<svg xmlns="http://www.w3.org/2000/svg" width="135.0mm" height="135.0mm" viewBox="0 0 135.0 135.0" font-family="sans-serif">
<rect x="0" y="0" width="135.0" height="135.0" rx="4" fill="#161616"/>
<polygon points="0.00,0.00 135.00,0.00 135.00,12.15 78.30,12.15 51.30,5.40 36.45,5.40 31.05,10.80 17.55,10.80 0.00,5.40" fill="#0a2333"/>
<polygon points="28.35,31.05 40.50,33.75 36.45,36.45 28.35,33.75" fill="#0a2333"/>
<polyline points="0.00,70.88 74.25,70.88 125.55,101.25" fill="none" stroke="#0a2333" stroke-width="2.5" stroke-linejoin="round"/>
<polygon points="5.40,78.30 20.25,79.65 24.30,83.70 16.20,93.15 5.40,91.80" fill="none" stroke="#666" stroke-width="0.2"/>
<polyline points="25.65,13.50 29.70,17.55 33.75,21.60 37.80,25.65 41.85,29.70 52.65,40.50 56.70,44.55 60.75,48.60 64.80,52.65 68.85,56.70 72.90,60.75 76.95,64.80 81.00,68.85 85.05,72.90 89.10,76.95 93.15,81.00" fill="none" stroke="#005DAA" stroke-width="1.2" stroke-linejoin="round" stroke-linecap="round"/>
<polyline points="93.15,81.00 97.20,76.95 97.20,72.90 97.20,54.00 93.15,49.95" fill="none" stroke="#005DAA" stroke-width="1.2" stroke-linejoin="round" stroke-linecap="round"/>
<polyline points="93.15,81.00 96.53,84.38 99.90,87.75 103.28,91.12 106.65,94.50 110.03,97.88 113.40,101.25 116.78,104.62 120.15,108.00 123.53,111.38 126.90,114.75 126.90,120.83 126.90,126.90" fill="none" stroke="#005DAA" stroke-width="1.2" stroke-linejoin="round" stroke-linecap="round"/>
<polyline points="5.40,40.50 10.80,40.50 16.20,40.50 25.65,40.50 31.05,40.50 36.45,40.50 41.85,40.50 52.65,40.50 58.05,40.50 62.33,40.50 66.60,40.50 70.88,40.50 75.15,40.50 79.42,40.50 83.70,40.50 93.15,49.95 97.20,54.00 101.25,49.95 105.30,45.90 109.35,41.85 113.40,37.80 117.45,33.75 121.50,29.70" fill="none" stroke="#FDD005" stroke-width="1.2" stroke-linejoin="round" stroke-linecap="round"/>
<polyline points="25.65,13.50 25.65,20.25 25.65,27.00 25.65,33.75 25.65,40.50 25.65,47.25 25.65,54.00 25.65,60.75 25.65,67.50 25.65,74.25" fill="none" stroke="#009AC7" stroke-width="1.2" stroke-linejoin="round" stroke-linecap="round"/>
<polyline points="25.65,74.25 21.60,78.30 17.55,82.35 13.50,86.40" fill="none" stroke="#009AC7" stroke-width="1.2" stroke-linejoin="round" stroke-linecap="round"/>
<polyline points="25.65,74.25 25.65,81.00 25.65,87.75 25.65,94.50 25.65,101.25" fill="none" stroke="#009AC7" stroke-width="1.2" stroke-linejoin="round" stroke-linecap="round"/>
<rect x="58.60" y="57.00" width="17.8" height="21.0" fill="none" stroke="#444" stroke-width="0.25" stroke-dasharray="1,1"/>
<rect x="62.90" y="75.00" width="9.2" height="3.2" fill="none" stroke="#444" stroke-width="0.25" stroke-dasharray="1,1"/>
<rect x="24.85" y="12.75" width="1.6" height="1.5" fill="#222" stroke="#777" stroke-width="0.1"/>
<circle cx="25.65" cy="13.50" r="1.05" fill="none" stroke="#fff" stroke-width="0.35"/>
<rect x="28.90" y="16.80" width="1.6" height="1.5" fill="#222" stroke="#777" stroke-width="0.1"/>
<circle cx="29.70" cy="17.55" r="0.75" fill="none" stroke="#fff" stroke-width="0.35"/>
<rect x="32.95" y="20.85" width="1.6" height="1.5" fill="#222" stroke="#777" stroke-width="0.1"/>
<circle cx="33.75" cy="21.60" r="0.75" fill="none" stroke="#fff" stroke-width="0.35"/>
<rect x="37.00" y="24.90" width="1.6" height="1.5" fill="#222" stroke="#777" stroke-width="0.1"/>
<circle cx="37.80" cy="25.65" r="0.75" fill="none" stroke="#fff" stroke-width="0.35"/>
<rect x="41.05" y="28.95" width="1.6" height="1.5" fill="#222" stroke="#777" stroke-width="0.1"/>
<circle cx="41.85" cy="29.70" r="0.75" fill="none" stroke="#fff" stroke-width="0.35"/>
<rect x="51.85" y="39.75" width="1.6" height="1.5" fill="#222" stroke="#777" stroke-width="0.1"/>
<circle cx="52.65" cy="40.50" r="1.05" fill="none" stroke="#fff" stroke-width="0.35"/>
<rect x="55.90" y="43.80" width="1.6" height="1.5" fill="#222" stroke="#777" stroke-width="0.1"/>
<circle cx="56.70" cy="44.55" r="0.75" fill="none" stroke="#fff" stroke-width="0.35"/>
<rect x="59.95" y="47.85" width="1.6" height="1.5" fill="#222" stroke="#777" stroke-width="0.1"/>
<circle cx="60.75" cy="48.60" r="0.75" fill="none" stroke="#fff" stroke-width="0.35"/>
<rect x="64.00" y="51.90" width="1.6" height="1.5" fill="#222" stroke="#777" stroke-width="0.1"/>
<circle cx="64.80" cy="52.65" r="0.75" fill="none" stroke="#fff" stroke-width="0.35"/>
<rect x="68.05" y="55.95" width="1.6" height="1.5" fill="#222" stroke="#777" stroke-width="0.1"/>
<circle cx="68.85" cy="56.70" r="0.75" fill="none" stroke="#fff" stroke-width="0.35"/>
<rect x="72.10" y="60.00" width="1.6" height="1.5" fill="#222" stroke="#777" stroke-width="0.1"/>
<circle cx="72.90" cy="60.75" r="0.75" fill="none" stroke="#fff" stroke-width="0.35"/>
<rect x="76.15" y="64.05" width="1.6" height="1.5" fill="#222" stroke="#777" stroke-width="0.1"/>
<circle cx="76.95" cy="64.80" r="0.75" fill="none" stroke="#fff" stroke-width="0.35"/>
<rect x="80.20" y="68.10" width="1.6" height="1.5" fill="#222" stroke="#777" stroke-width="0.1"/>
<circle cx="81.00" cy="68.85" r="0.75" fill="none" stroke="#fff" stroke-width="0.35"/>
<rect x="84.25" y="72.15" width="1.6" height="1.5" fill="#222" stroke="#777" stroke-width="0.1"/>
<circle cx="85.05" cy="72.90" r="0.75" fill="none" stroke="#fff" stroke-width="0.35"/>
<rect x="88.30" y="76.20" width="1.6" height="1.5" fill="#222" stroke="#777" stroke-width="0.1"/>
<circle cx="89.10" cy="76.95" r="0.75" fill="none" stroke="#fff" stroke-width="0.35"/>
<rect x="92.35" y="80.25" width="1.6" height="1.5" fill="#222" stroke="#777" stroke-width="0.1"/>
<circle cx="93.15" cy="81.00" r="0.75" fill="none" stroke="#fff" stroke-width="0.35"/>
<rect x="96.40" y="76.20" width="1.6" height="1.5" fill="#222" stroke="#777" stroke-width="0.1"/>
<circle cx="97.20" cy="76.95" r="0.75" fill="none" stroke="#fff" stroke-width="0.35"/>
<rect x="96.40" y="72.15" width="1.6" height="1.5" fill="#222" stroke="#777" stroke-width="0.1"/>
<circle cx="97.20" cy="72.90" r="0.75" fill="none" stroke="#fff" stroke-width="0.35"/>
<rect x="96.40" y="53.25" width="1.6" height="1.5" fill="#222" stroke="#777" stroke-width="0.1"/>
<circle cx="97.20" cy="54.00" r="1.05" fill="none" stroke="#fff" stroke-width="0.35"/>
<rect x="92.35" y="49.20" width="1.6" height="1.5" fill="#222" stroke="#777" stroke-width="0.1"/>
<circle cx="93.15" cy="49.95" r="0.75" fill="none" stroke="#fff" stroke-width="0.35"/>
<rect x="95.73" y="83.62" width="1.6" height="1.5" fill="#222" stroke="#777" stroke-width="0.1"/>
<circle cx="96.53" cy="84.38" r="0.75" fill="none" stroke="#fff" stroke-width="0.35"/>
<rect x="99.10" y="87.00" width="1.6" height="1.5" fill="#222" stroke="#777" stroke-width="0.1"/>
<circle cx="99.90" cy="87.75" r="0.75" fill="none" stroke="#fff" stroke-width="0.35"/>
<rect x="102.48" y="90.38" width="1.6" height="1.5" fill="#222" stroke="#777" stroke-width="0.1"/>
<circle cx="103.28" cy="91.12" r="0.75" fill="none" stroke="#fff" stroke-width="0.35"/>
<rect x="105.85" y="93.75" width="1.6" height="1.5" fill="#222" stroke="#777" stroke-width="0.1"/>
<circle cx="106.65" cy="94.50" r="0.75" fill="none" stroke="#fff" stroke-width="0.35"/>
<rect x="109.23" y="97.12" width="1.6" height="1.5" fill="#222" stroke="#777" stroke-width="0.1"/>
<circle cx="110.03" cy="97.88" r="0.75" fill="none" stroke="#999" stroke-width="0.35" stroke-dasharray="0.6,0.45"/>
<rect x="112.60" y="100.50" width="1.6" height="1.5" fill="#222" stroke="#777" stroke-width="0.1"/>
<circle cx="113.40" cy="101.25" r="0.75" fill="none" stroke="#999" stroke-width="0.35" stroke-dasharray="0.6,0.45"/>
<rect x="115.98" y="103.88" width="1.6" height="1.5" fill="#222" stroke="#777" stroke-width="0.1"/>
<circle cx="116.78" cy="104.62" r="0.75" fill="none" stroke="#999" stroke-width="0.35" stroke-dasharray="0.6,0.45"/>
<rect x="119.35" y="107.25" width="1.6" height="1.5" fill="#222" stroke="#777" stroke-width="0.1"/>
<circle cx="120.15" cy="108.00" r="0.75" fill="none" stroke="#999" stroke-width="0.35" stroke-dasharray="0.6,0.45"/>
<rect x="122.73" y="110.63" width="1.6" height="1.5" fill="#222" stroke="#777" stroke-width="0.1"/>
<circle cx="123.53" cy="111.38" r="0.75" fill="none" stroke="#999" stroke-width="0.35" stroke-dasharray="0.6,0.45"/>
<rect x="126.10" y="114.00" width="1.6" height="1.5" fill="#222" stroke="#777" stroke-width="0.1"/>
<circle cx="126.90" cy="114.75" r="0.75" fill="none" stroke="#999" stroke-width="0.35" stroke-dasharray="0.6,0.45"/>
<rect x="126.10" y="120.08" width="1.6" height="1.5" fill="#222" stroke="#777" stroke-width="0.1"/>
<circle cx="126.90" cy="120.83" r="0.75" fill="none" stroke="#999" stroke-width="0.35" stroke-dasharray="0.6,0.45"/>
<rect x="126.10" y="126.15" width="1.6" height="1.5" fill="#222" stroke="#777" stroke-width="0.1"/>
<circle cx="126.90" cy="126.90" r="0.75" fill="none" stroke="#999" stroke-width="0.35" stroke-dasharray="0.6,0.45"/>
<rect x="4.60" y="39.75" width="1.6" height="1.5" fill="#222" stroke="#777" stroke-width="0.1"/>
<circle cx="5.40" cy="40.50" r="0.75" fill="none" stroke="#999" stroke-width="0.35" stroke-dasharray="0.6,0.45"/>
<rect x="10.00" y="39.75" width="1.6" height="1.5" fill="#222" stroke="#777" stroke-width="0.1"/>
<circle cx="10.80" cy="40.50" r="0.75" fill="none" stroke="#999" stroke-width="0.35" stroke-dasharray="0.6,0.45"/>
<rect x="15.40" y="39.75" width="1.6" height="1.5" fill="#222" stroke="#777" stroke-width="0.1"/>
<circle cx="16.20" cy="40.50" r="0.75" fill="none" stroke="#999" stroke-width="0.35" stroke-dasharray="0.6,0.45"/>
<rect x="24.85" y="39.75" width="1.6" height="1.5" fill="#222" stroke="#777" stroke-width="0.1"/>
<circle cx="25.65" cy="40.50" r="1.05" fill="none" stroke="#999" stroke-width="0.35" stroke-dasharray="0.6,0.45"/>
<rect x="30.25" y="39.75" width="1.6" height="1.5" fill="#222" stroke="#777" stroke-width="0.1"/>
<circle cx="31.05" cy="40.50" r="0.75" fill="none" stroke="#999" stroke-width="0.35" stroke-dasharray="0.6,0.45"/>
<rect x="35.65" y="39.75" width="1.6" height="1.5" fill="#222" stroke="#777" stroke-width="0.1"/>
<circle cx="36.45" cy="40.50" r="0.75" fill="none" stroke="#999" stroke-width="0.35" stroke-dasharray="0.6,0.45"/>
<rect x="41.05" y="39.75" width="1.6" height="1.5" fill="#222" stroke="#777" stroke-width="0.1"/>
<circle cx="41.85" cy="40.50" r="0.75" fill="none" stroke="#fff" stroke-width="0.35"/>
<rect x="57.25" y="39.75" width="1.6" height="1.5" fill="#222" stroke="#777" stroke-width="0.1"/>
<circle cx="58.05" cy="40.50" r="0.75" fill="none" stroke="#fff" stroke-width="0.35"/>
<rect x="61.53" y="39.75" width="1.6" height="1.5" fill="#222" stroke="#777" stroke-width="0.1"/>
<circle cx="62.33" cy="40.50" r="0.75" fill="none" stroke="#fff" stroke-width="0.35"/>
<rect x="65.80" y="39.75" width="1.6" height="1.5" fill="#222" stroke="#777" stroke-width="0.1"/>
<circle cx="66.60" cy="40.50" r="0.75" fill="none" stroke="#fff" stroke-width="0.35"/>
<rect x="70.08" y="39.75" width="1.6" height="1.5" fill="#222" stroke="#777" stroke-width="0.1"/>
<circle cx="70.88" cy="40.50" r="0.75" fill="none" stroke="#fff" stroke-width="0.35"/>
<rect x="74.35" y="39.75" width="1.6" height="1.5" fill="#222" stroke="#777" stroke-width="0.1"/>
<circle cx="75.15" cy="40.50" r="0.75" fill="none" stroke="#fff" stroke-width="0.35"/>
<rect x="78.62" y="39.75" width="1.6" height="1.5" fill="#222" stroke="#777" stroke-width="0.1"/>
<circle cx="79.42" cy="40.50" r="0.75" fill="none" stroke="#fff" stroke-width="0.35"/>
<rect x="82.90" y="39.75" width="1.6" height="1.5" fill="#222" stroke="#777" stroke-width="0.1"/>
<circle cx="83.70" cy="40.50" r="0.75" fill="none" stroke="#fff" stroke-width="0.35"/>
<rect x="100.45" y="49.20" width="1.6" height="1.5" fill="#222" stroke="#777" stroke-width="0.1"/>
<circle cx="101.25" cy="49.95" r="0.75" fill="none" stroke="#fff" stroke-width="0.35"/>
<rect x="104.50" y="45.15" width="1.6" height="1.5" fill="#222" stroke="#777" stroke-width="0.1"/>
<circle cx="105.30" cy="45.90" r="0.75" fill="none" stroke="#fff" stroke-width="0.35"/>
<rect x="108.55" y="41.10" width="1.6" height="1.5" fill="#222" stroke="#777" stroke-width="0.1"/>
<circle cx="109.35" cy="41.85" r="0.75" fill="none" stroke="#fff" stroke-width="0.35"/>
<rect x="112.60" y="37.05" width="1.6" height="1.5" fill="#222" stroke="#777" stroke-width="0.1"/>
<circle cx="113.40" cy="37.80" r="0.75" fill="none" stroke="#fff" stroke-width="0.35"/>
<rect x="116.65" y="33.00" width="1.6" height="1.5" fill="#222" stroke="#777" stroke-width="0.1"/>
<circle cx="117.45" cy="33.75" r="0.75" fill="none" stroke="#fff" stroke-width="0.35"/>
<rect x="120.70" y="28.95" width="1.6" height="1.5" fill="#222" stroke="#777" stroke-width="0.1"/>
<circle cx="121.50" cy="29.70" r="0.75" fill="none" stroke="#fff" stroke-width="0.35"/>
<rect x="24.85" y="19.50" width="1.6" height="1.5" fill="#222" stroke="#777" stroke-width="0.1"/>
<circle cx="25.65" cy="20.25" r="0.75" fill="none" stroke="#fff" stroke-width="0.35"/>
<rect x="24.85" y="26.25" width="1.6" height="1.5" fill="#222" stroke="#777" stroke-width="0.1"/>
<circle cx="25.65" cy="27.00" r="0.75" fill="none" stroke="#fff" stroke-width="0.35"/>
<rect x="24.85" y="33.00" width="1.6" height="1.5" fill="#222" stroke="#777" stroke-width="0.1"/>
<circle cx="25.65" cy="33.75" r="0.75" fill="none" stroke="#fff" stroke-width="0.35"/>
<rect x="24.85" y="46.50" width="1.6" height="1.5" fill="#222" stroke="#777" stroke-width="0.1"/>
<circle cx="25.65" cy="47.25" r="0.75" fill="none" stroke="#fff" stroke-width="0.35"/>
<rect x="24.85" y="53.25" width="1.6" height="1.5" fill="#222" stroke="#777" stroke-width="0.1"/>
<circle cx="25.65" cy="54.00" r="0.75" fill="none" stroke="#fff" stroke-width="0.35"/>
<rect x="24.85" y="60.00" width="1.6" height="1.5" fill="#222" stroke="#777" stroke-width="0.1"/>
<circle cx="25.65" cy="60.75" r="0.75" fill="none" stroke="#fff" stroke-width="0.35"/>
<rect x="24.85" y="66.75" width="1.6" height="1.5" fill="#222" stroke="#777" stroke-width="0.1"/>
<circle cx="25.65" cy="67.50" r="0.75" fill="none" stroke="#fff" stroke-width="0.35"/>
<rect x="24.85" y="73.50" width="1.6" height="1.5" fill="#222" stroke="#777" stroke-width="0.1"/>
<circle cx="25.65" cy="74.25" r="0.75" fill="none" stroke="#fff" stroke-width="0.35"/>
<rect x="20.80" y="77.55" width="1.6" height="1.5" fill="#222" stroke="#777" stroke-width="0.1"/>
<circle cx="21.60" cy="78.30" r="0.75" fill="none" stroke="#fff" stroke-width="0.35"/>
<rect x="16.75" y="81.60" width="1.6" height="1.5" fill="#222" stroke="#777" stroke-width="0.1"/>
<circle cx="17.55" cy="82.35" r="0.75" fill="none" stroke="#fff" stroke-width="0.35"/>
<rect x="12.70" y="85.65" width="1.6" height="1.5" fill="#222" stroke="#777" stroke-width="0.1"/>
<circle cx="13.50" cy="86.40" r="0.75" fill="none" stroke="#fff" stroke-width="0.35"/>
<rect x="24.85" y="80.25" width="1.6" height="1.5" fill="#222" stroke="#777" stroke-width="0.1"/>
<circle cx="25.65" cy="81.00" r="0.75" fill="none" stroke="#fff" stroke-width="0.35"/>
<rect x="24.85" y="87.00" width="1.6" height="1.5" fill="#222" stroke="#777" stroke-width="0.1"/>
<circle cx="25.65" cy="87.75" r="0.75" fill="none" stroke="#fff" stroke-width="0.35"/>
<rect x="24.85" y="93.75" width="1.6" height="1.5" fill="#222" stroke="#777" stroke-width="0.1"/>
<circle cx="25.65" cy="94.50" r="0.75" fill="none" stroke="#fff" stroke-width="0.35"/>
<rect x="24.85" y="100.50" width="1.6" height="1.5" fill="#222" stroke="#777" stroke-width="0.1"/>
<circle cx="25.65" cy="101.25" r="0.75" fill="none" stroke="#fff" stroke-width="0.35"/>
<rect x="30.25" y="7.35" width="1.6" height="1.5" fill="#222" stroke="#777" stroke-width="0.1"/>
<circle cx="31.05" cy="8.10" r="0.75" fill="none" stroke="#fff" stroke-width="0.35"/>
<text transform="translate(24.05,13.90) rotate(0)" text-anchor="end" font-size="1.62" fill="#eee">Waterfront</text>
<text transform="translate(30.60,16.65) rotate(-45)" text-anchor="start" font-size="1.62" fill="#eee">Burrard</text>
<text transform="translate(34.65,20.70) rotate(-45)" text-anchor="start" font-size="1.62" fill="#eee">Granville</text>
<text transform="translate(38.70,24.75) rotate(-45)" text-anchor="start" font-size="1.62" fill="#eee">Stadium–Chinatown</text>
<text transform="translate(42.75,28.80) rotate(-45)" text-anchor="start" font-size="1.62" fill="#eee">Main Street–Science World</text>
<text transform="translate(53.55,39.60) rotate(-45)" text-anchor="start" font-size="1.62" fill="#eee">Commercial–Broadway</text>
<text transform="translate(55.80,45.45) rotate(-45)" text-anchor="end" font-size="1.62" fill="#eee">Nanaimo</text>
<text transform="translate(59.85,49.50) rotate(-45)" text-anchor="end" font-size="1.62" fill="#eee">29th Avenue</text>
<text transform="translate(63.90,53.55) rotate(-45)" text-anchor="end" font-size="1.62" fill="#eee">Joyce–Collingwood</text>
<text transform="translate(67.95,57.60) rotate(-45)" text-anchor="end" font-size="1.62" fill="#eee">Patterson</text>
<text transform="translate(73.80,59.85) rotate(-45)" text-anchor="start" font-size="1.62" fill="#eee">Metrotown</text>
<text transform="translate(77.85,63.90) rotate(-45)" text-anchor="start" font-size="1.62" fill="#eee">Royal Oak</text>
<text transform="translate(81.90,67.95) rotate(-45)" text-anchor="start" font-size="1.62" fill="#eee">Edmonds</text>
<text transform="translate(85.95,72.00) rotate(-45)" text-anchor="start" font-size="1.62" fill="#eee">22nd Street</text>
<text transform="translate(88.20,77.85) rotate(-45)" text-anchor="end" font-size="1.62" fill="#eee">New Westminster</text>
<text transform="translate(92.25,81.90) rotate(-45)" text-anchor="end" font-size="1.62" fill="#eee">Columbia</text>
<text transform="translate(99.00,77.35) rotate(0)" text-anchor="start" font-size="1.62" fill="#eee">Sapperton</text>
<text transform="translate(99.00,73.30) rotate(0)" text-anchor="start" font-size="1.62" fill="#eee">Braid</text>
<text transform="translate(99.00,54.60) rotate(0)" text-anchor="start" font-size="1.62" fill="#eee">Lougheed Town Centre</text>
<text transform="translate(94.05,49.05) rotate(-45)" text-anchor="start" font-size="1.62" fill="#eee">Production Way–University</text>
<text transform="translate(95.62,85.28) rotate(-45)" text-anchor="end" font-size="1.62" fill="#eee">Scott Road</text>
<text transform="translate(99.00,88.65) rotate(-45)" text-anchor="end" font-size="1.62" fill="#eee">Gateway</text>
<text transform="translate(102.38,92.03) rotate(-45)" text-anchor="end" font-size="1.62" fill="#eee">Surrey Central</text>
<text transform="translate(105.75,95.40) rotate(-45)" text-anchor="end" font-size="1.62" fill="#eee">King George</text>
<text transform="translate(109.12,98.78) rotate(-45)" text-anchor="end" font-size="1.62" fill="#eee">Green Timbers</text>
<text transform="translate(112.50,102.15) rotate(-45)" text-anchor="end" font-size="1.62" fill="#eee">152 Street</text>
<text transform="translate(115.88,105.53) rotate(-45)" text-anchor="end" font-size="1.62" fill="#eee">Fleetwood</text>
<text transform="translate(119.25,108.90) rotate(-45)" text-anchor="end" font-size="1.62" fill="#eee">Bakerview</text>
<text transform="translate(122.62,112.28) rotate(-45)" text-anchor="end" font-size="1.62" fill="#eee">Hillcrest</text>
<text transform="translate(126.00,115.65) rotate(-45)" text-anchor="end" font-size="1.62" fill="#eee">Clayton</text>
<text transform="translate(125.30,121.23) rotate(0)" text-anchor="end" font-size="1.62" fill="#eee">Willowbrook</text>
<text transform="translate(125.30,127.30) rotate(0)" text-anchor="end" font-size="1.62" fill="#eee">Langley City Centre</text>
<text transform="translate(6.30,41.40) rotate(45)" text-anchor="start" font-size="1.62" fill="#eee">Arbutus</text>
<text transform="translate(11.70,41.40) rotate(45)" text-anchor="start" font-size="1.62" fill="#eee">South Granville</text>
<text transform="translate(17.10,41.40) rotate(45)" text-anchor="start" font-size="1.62" fill="#eee">Oak–VGH</text>
<text transform="translate(26.55,41.40) rotate(45)" text-anchor="start" font-size="1.62" fill="#eee">Broadway–City Hall</text>
<text transform="translate(31.95,41.40) rotate(45)" text-anchor="start" font-size="1.62" fill="#eee">Mount Pleasant</text>
<text transform="translate(37.35,41.40) rotate(45)" text-anchor="start" font-size="1.62" fill="#eee">Great Northern Way–Emily Carr</text>
<text transform="translate(42.75,41.40) rotate(45)" text-anchor="start" font-size="1.62" fill="#eee">VCC–Clark</text>
<text transform="translate(58.95,39.60) rotate(-45)" text-anchor="start" font-size="1.62" fill="#eee">Renfrew</text>
<text transform="translate(63.23,39.60) rotate(-45)" text-anchor="start" font-size="1.62" fill="#eee">Rupert</text>
<text transform="translate(67.50,39.60) rotate(-45)" text-anchor="start" font-size="1.62" fill="#eee">Gilmore</text>
<text transform="translate(71.78,39.60) rotate(-45)" text-anchor="start" font-size="1.62" fill="#eee">Brentwood Town Centre</text>
<text transform="translate(76.05,39.60) rotate(-45)" text-anchor="start" font-size="1.62" fill="#eee">Holdom</text>
<text transform="translate(80.32,39.60) rotate(-45)" text-anchor="start" font-size="1.62" fill="#eee">Sperling–Burnaby Lake</text>
<text transform="translate(84.60,39.60) rotate(-45)" text-anchor="start" font-size="1.62" fill="#eee">Lake City Way</text>
<text transform="translate(103.05,50.55) rotate(0)" text-anchor="start" font-size="1.62" fill="#eee">Burquitlam</text>
<text transform="translate(107.10,46.50) rotate(0)" text-anchor="start" font-size="1.62" fill="#eee">Moody Centre</text>
<text transform="translate(111.15,42.45) rotate(0)" text-anchor="start" font-size="1.62" fill="#eee">Inlet Centre</text>
<text transform="translate(115.20,38.40) rotate(0)" text-anchor="start" font-size="1.62" fill="#eee">Coquitlam Central</text>
<text transform="translate(119.25,34.35) rotate(0)" text-anchor="start" font-size="1.62" fill="#eee">Lincoln</text>
<text transform="translate(119.70,30.30) rotate(0)" text-anchor="end" font-size="1.62" fill="#eee">Lafarge Lake–Douglas</text>
<text transform="translate(24.05,20.65) rotate(0)" text-anchor="end" font-size="1.62" fill="#eee">Vancouver City Centre</text>
<text transform="translate(24.05,27.40) rotate(0)" text-anchor="end" font-size="1.62" fill="#eee">Yaletown–Roundhouse</text>
<text transform="translate(24.05,34.15) rotate(0)" text-anchor="end" font-size="1.62" fill="#eee">Olympic Village</text>
<text transform="translate(26.55,48.15) rotate(45)" text-anchor="start" font-size="1.62" fill="#eee">King Edward</text>
<text transform="translate(24.05,54.40) rotate(0)" text-anchor="end" font-size="1.62" fill="#eee">Oakridge–41st Avenue</text>
<text transform="translate(24.05,61.15) rotate(0)" text-anchor="end" font-size="1.62" fill="#eee">Langara–49th Avenue</text>
<text transform="translate(24.05,67.90) rotate(0)" text-anchor="end" font-size="1.62" fill="#eee">Marine Drive</text>
<text transform="translate(24.05,74.65) rotate(0)" text-anchor="end" font-size="1.62" fill="#eee">Bridgeport</text>
<text transform="translate(20.00,78.70) rotate(0)" text-anchor="end" font-size="1.62" fill="#eee">Templeton</text>
<text transform="translate(15.95,82.75) rotate(0)" text-anchor="end" font-size="1.62" fill="#eee">Sea Island Centre</text>
<text transform="translate(11.90,86.80) rotate(0)" text-anchor="end" font-size="1.62" fill="#eee">YVR–Airport</text>
<text transform="translate(27.25,81.40) rotate(0)" text-anchor="start" font-size="1.62" fill="#eee">Capstan</text>
<text transform="translate(27.25,88.15) rotate(0)" text-anchor="start" font-size="1.62" fill="#eee">Aberdeen</text>
<text transform="translate(27.25,94.90) rotate(0)" text-anchor="start" font-size="1.62" fill="#eee">Lansdowne</text>
<text transform="translate(27.25,101.65) rotate(0)" text-anchor="start" font-size="1.62" fill="#eee">Richmond–Brighouse</text>
<text transform="translate(32.65,8.50) rotate(0)" text-anchor="start" font-size="1.62" fill="#eee">SeaBus</text>
<polygon points="53.53,56.25 60.06,49.71 59.00,48.65 52.47,55.19" fill="rgba(255,40,40,0.45)" stroke="#ff2828" stroke-width="0.15"/>
<text x="2.5" y="133.0" font-size="2.2" fill="#555">vancouver v3 preview — board 135 mm, text 1.2 mm</text>
</svg>