G04 #@! TF.GenerationSoftware,KiCad,Pcbnew,10.0.5*
G04 #@! TF.CreationDate,2026-09-08T23:02:42-07:00*
G04 #@! TF.ProjectId,vancouver-skytrain-pcb,76616e63-6f75-4766-9572-2d736b797472,rev?*
G04 #@! TF.SameCoordinates,Original*
G04 #@! TF.FileFunction,Copper,L2,Bot*
G04 #@! TF.FilePolarity,Positive*
%FSLAX46Y46*%
G04 Gerber Fmt 4.6, Leading zero omitted, Abs format (unit mm)*
G04 Created by KiCad (PCBNEW 10.0.5) date 2026-09-08 23:02:42*
%MOMM*%
%LPD*%
G01*
G04 APERTURE LIST*
G04 Aperture macros list*
%AMRoundRect*
0 Rectangle with rounded corners*
0 $1 Rounding radius*
0 $2 $3 $4 $5 $6 $7 $8 $9 X,Y pos of 4 corners*
0 Add a 4 corners polygon primitive as box body*
4,1,4,$2,$3,$4,$5,$6,$7,$8,$9,$2,$3,0*
0 Add four circle primitives for the rounded corners*
1,1,$1+$1,$2,$3*
1,1,$1+$1,$4,$5*
1,1,$1+$1,$6,$7*
1,1,$1+$1,$8,$9*
0 Add four rect primitives between the rounded corners*
20,1,$1+$1,$2,$3,$4,$5,0*
20,1,$1+$1,$4,$5,$6,$7,0*
20,1,$1+$1,$6,$7,$8,$9,0*
20,1,$1+$1,$8,$9,$2,$3,0*%
G04 Aperture macros list end*
G04 #@! TA.AperFunction,NonConductor*
%ADD10C,0.200000*%
G04 #@! TD*
G04 #@! TA.AperFunction,ComponentPad*
%ADD11C,3.600000*%
G04 #@! TD*
G04 #@! TA.AperFunction,ConnectorPad*
%ADD12C,5.600000*%
G04 #@! TD*
G04 #@! TA.AperFunction,SMDPad,CuDef*
%ADD13RoundRect,0.500000X-0.875000X-0.500000X0.875000X-0.500000X0.875000X0.500000X-0.875000X0.500000X0*%
G04 #@! TD*
G04 #@! TA.AperFunction,SMDPad,CuDef*
%ADD14RoundRect,0.275000X0.275000X-0.975000X0.275000X0.975000X-0.275000X0.975000X-0.275000X-0.975000X0*%
G04 #@! TD*
G04 #@! TA.AperFunction,SMDPad,CuDef*
%ADD15C,1.700000*%
G04 #@! TD*
G04 #@! TA.AperFunction,SMDPad,CuDef*
%ADD16R,1.000000X0.750000*%
G04 #@! TD*
G04 #@! TA.AperFunction,SMDPad,CuDef*
%ADD17R,3.000000X3.000000*%
G04 #@! TD*
G04 #@! TA.AperFunction,ViaPad*
%ADD18C,0.600000*%
G04 #@! TD*
G04 #@! TA.AperFunction,Conductor*
%ADD19C,0.250000*%
G04 #@! TD*
G04 #@! TA.AperFunction,Conductor*
%ADD20C,1.000000*%
G04 #@! TD*
G04 APERTURE END LIST*
D10*
X82800000Y-41500000D02*
X82800000Y-41600000D01*
D11*
X196000000Y-105000000D03*
D12*
X196000000Y-105000000D03*
D11*
X196000000Y-4000000D03*
D12*
X196000000Y-4000000D03*
D11*
X4000000Y-105000000D03*
D12*
X4000000Y-105000000D03*
D11*
X4000000Y-4000000D03*
D12*
X4000000Y-4000000D03*
D13*
X92000000Y-62120000D03*
X92000000Y-59580000D03*
X92000000Y-57040000D03*
X92000000Y-54500000D03*
X92000000Y-51960000D03*
X92000000Y-49420000D03*
X92000000Y-46880000D03*
X108165000Y-46880000D03*
X108164999Y-49420000D03*
X108165000Y-51960000D03*
X108165000Y-54500000D03*
X108165000Y-57040000D03*
X108164999Y-59580000D03*
X108165000Y-62120000D03*
D14*
X98912000Y-45860000D03*
X101452000Y-45859999D03*
D15*
X98912000Y-62878000D03*
X101452000Y-62878001D03*
X98912000Y-60338000D03*
X101452000Y-60337999D03*
D16*
X83300000Y-48250000D03*
X77300000Y-48250000D03*
X83300000Y-51950000D03*
X77300000Y-51950000D03*
D17*
X131100000Y-53800000D03*
X131100000Y-60000000D03*
X44200000Y-86000000D03*
D16*
X83300000Y-39050000D03*
X77300000Y-39050000D03*
X83300000Y-42750000D03*
X77300000Y-42750000D03*
X83300000Y-56500000D03*
X77300000Y-56500000D03*
X83300000Y-60200000D03*
X77300000Y-60200000D03*
D17*
X44200000Y-79100000D03*
X131000000Y-46800000D03*
D16*
X83300000Y-64450000D03*
X77300000Y-64450000D03*
X83300000Y-68150000D03*
X77300000Y-68150000D03*
D18*
X32100000Y-28500000D03*
X83300000Y-45900000D03*
X87400000Y-29200000D03*
X46400000Y-17800000D03*
X48200000Y-42000000D03*
X77700000Y-7600000D03*
X35500000Y-62400000D03*
X48700000Y-19100000D03*
X20000000Y-67700000D03*
X134100000Y-26200000D03*
X50100000Y-106700000D03*
X35900000Y-65900000D03*
X128700000Y-67900000D03*
X38100000Y-29900000D03*
X158000000Y-80600000D03*
X60900000Y-97900000D03*
X81200000Y-28600000D03*
X51500000Y-21100000D03*
X146000000Y-73400000D03*
X177100000Y-61200000D03*
X110900000Y-4600000D03*
X65800000Y-1300000D03*
X50700000Y-102500000D03*
X41600000Y-70600000D03*
X14600000Y-33500000D03*
X35800000Y-71400000D03*
X153800000Y-48600000D03*
X40700000Y-29700000D03*
X71400000Y-31200000D03*
X41700000Y-67000000D03*
X132500000Y-63400000D03*
X46200000Y-22800000D03*
X87500000Y-47000000D03*
X125150000Y-56050000D03*
X135600000Y-67300000D03*
X54100000Y-57800000D03*
X47900000Y-53400000D03*
X56200000Y-7000000D03*
X99300000Y-57100000D03*
X17100000Y-28700000D03*
X119600000Y-28100000D03*
X143100000Y-19200000D03*
X113500000Y-54600000D03*
X26100000Y-107300000D03*
X45500000Y-31200000D03*
X132200000Y-65500000D03*
X168500000Y-43100000D03*
X49200000Y-29800000D03*
X48000000Y-25600000D03*
X48100000Y-45600000D03*
X18100000Y-49800000D03*
X41100000Y-62300000D03*
X42900000Y-18500000D03*
X41700000Y-73900000D03*
X54000000Y-27900000D03*
X175100000Y-92500000D03*
X190800000Y-102400000D03*
X40200000Y-16200000D03*
X99200000Y-72700000D03*
X110300000Y-56800000D03*
X58200000Y-3500000D03*
X43500000Y-54800000D03*
X43300000Y-31800000D03*
X59600000Y-30500000D03*
X43400000Y-59400000D03*
X59465000Y-25900000D03*
X43968812Y-18300000D03*
X118100000Y-56200000D03*
X38934738Y-65201377D03*
X110200000Y-32500000D03*
X34212500Y-60012500D03*
X44200000Y-79100000D03*
X103600000Y-31000000D03*
X61200000Y-25900000D03*
X44500000Y-28000000D03*
X127600000Y-60000000D03*
X47900000Y-14900000D03*
X105819457Y-58560767D03*
X42605000Y-21600000D03*
X112300000Y-53600000D03*
X124750000Y-26050000D03*
X48740449Y-16599635D03*
X54614051Y-5002855D03*
X46700000Y-27400000D03*
X45300000Y-33600000D03*
X128550000Y-20250000D03*
X134506703Y-17155780D03*
X46500000Y-55600000D03*
X44800000Y-61300000D03*
X41300060Y-60421821D03*
X38100000Y-60900000D03*
X118000000Y-48400000D03*
X121800000Y-52300000D03*
X24300000Y-60000000D03*
X39516297Y-63424994D03*
X58700000Y-28900000D03*
X66200000Y-30000000D03*
X40350000Y-76200000D03*
X113251874Y-57644398D03*
X120200000Y-56200000D03*
X40173960Y-24626970D03*
X41200000Y-23000000D03*
X58900000Y-5100000D03*
D19*
X77100000Y-68150000D02*
X83100000Y-68150000D01*
X110300000Y-56800000D02*
X110300000Y-58819999D01*
D20*
X121620000Y-59580000D02*
X125150000Y-56050000D01*
X127400000Y-53800000D02*
X131100000Y-53800000D01*
D19*
X110300000Y-58819999D02*
X109539999Y-59580000D01*
D20*
X108164999Y-59580000D02*
X121620000Y-59580000D01*
D19*
X109539999Y-59580000D02*
X108164999Y-59580000D01*
D20*
X125150000Y-56050000D02*
X127400000Y-53800000D01*
D19*
X77200000Y-51950000D02*
X83200000Y-51950000D01*
X77500000Y-60200000D02*
X83500000Y-60200000D01*
X106790000Y-62120000D02*
X108165000Y-62120000D01*
X47900000Y-14900000D02*
X47900000Y-10600000D01*
X42605000Y-21600000D02*
X43968812Y-20236188D01*
X38999027Y-65265666D02*
X41265666Y-65265666D01*
D20*
X127600000Y-60000000D02*
X124800000Y-60000000D01*
D19*
X38934738Y-65201377D02*
X38999027Y-65265666D01*
X57700000Y-27665000D02*
X57700000Y-29300000D01*
X59465000Y-25900000D02*
X61200000Y-25900000D01*
X43500000Y-59300000D02*
X43500000Y-54800000D01*
X38500187Y-61525000D02*
X35725000Y-61525000D01*
X40141297Y-63166110D02*
X38500187Y-61525000D01*
X44500000Y-28000000D02*
X44500000Y-30600000D01*
X43968812Y-20236188D02*
X43968812Y-18300000D01*
X59465000Y-25900000D02*
X57700000Y-27665000D01*
X105100000Y-32500000D02*
X110200000Y-32500000D01*
X105819457Y-58560767D02*
X105819457Y-61149457D01*
D20*
X131100000Y-60000000D02*
X135500000Y-60000000D01*
D19*
X57700000Y-29300000D02*
X58900000Y-30500000D01*
X43400000Y-67400000D02*
X43400000Y-59400000D01*
X47900000Y-10600000D02*
X55000000Y-3500000D01*
X44500000Y-30600000D02*
X43300000Y-31800000D01*
X41265666Y-65265666D02*
X44200000Y-68200000D01*
X58900000Y-30500000D02*
X59600000Y-30500000D01*
X44200000Y-68200000D02*
X44200000Y-79100000D01*
X115500000Y-53600000D02*
X118100000Y-56200000D01*
D20*
X127600000Y-60000000D02*
X131100000Y-60000000D01*
D19*
X112300000Y-53600000D02*
X115500000Y-53600000D01*
X40141297Y-63994818D02*
X40141297Y-63166110D01*
D20*
X140000000Y-41300000D02*
X124750000Y-26050000D01*
X122680000Y-62120000D02*
X108165000Y-62120000D01*
X124800000Y-60000000D02*
X122680000Y-62120000D01*
D19*
X43400000Y-59400000D02*
X43500000Y-59300000D01*
D20*
X135500000Y-60000000D02*
X140000000Y-55500000D01*
D19*
X35725000Y-61525000D02*
X34212500Y-60012500D01*
D20*
X140000000Y-55500000D02*
X140000000Y-41300000D01*
D19*
X55000000Y-3500000D02*
X58200000Y-3500000D01*
D20*
X102200000Y-3500000D02*
X58200000Y-3500000D01*
D19*
X105819457Y-61149457D02*
X106790000Y-62120000D01*
D20*
X124750000Y-26050000D02*
X102200000Y-3500000D01*
D19*
X103600000Y-31000000D02*
X105100000Y-32500000D01*
X44200000Y-68200000D02*
X43400000Y-67400000D01*
X38934738Y-65201377D02*
X40141297Y-63994818D01*
X54614051Y-5002855D02*
X54133541Y-5002855D01*
X54133541Y-5002855D02*
X48700000Y-10436396D01*
X48700000Y-16559186D02*
X48740449Y-16599635D01*
X48700000Y-10436396D02*
X48700000Y-16559186D01*
X46700000Y-32200000D02*
X45300000Y-33600000D01*
X46700000Y-27400000D02*
X46700000Y-32200000D01*
X131630000Y-17170000D02*
X128550000Y-20250000D01*
X134506703Y-17155780D02*
X134492483Y-17170000D01*
X134492483Y-17170000D02*
X131630000Y-17170000D01*
X44800000Y-61300000D02*
X46500000Y-59600000D01*
X46500000Y-59600000D02*
X46500000Y-55600000D01*
X40821881Y-60900000D02*
X41300060Y-60421821D01*
X38100000Y-60900000D02*
X40821881Y-60900000D01*
X121800000Y-52200000D02*
X121800000Y-52300000D01*
X118000000Y-48400000D02*
X121800000Y-52200000D01*
X27724994Y-63424994D02*
X24300000Y-60000000D01*
X39516297Y-63424994D02*
X27724994Y-63424994D01*
X65100000Y-28900000D02*
X66200000Y-30000000D01*
X58700000Y-28900000D02*
X65100000Y-28900000D01*
X40400000Y-76250000D02*
X40400000Y-82200000D01*
X40350000Y-76200000D02*
X40400000Y-76250000D01*
X40400000Y-82200000D02*
X44200000Y-86000000D01*
X118755602Y-57644398D02*
X120200000Y-56200000D01*
X113251874Y-57644398D02*
X118755602Y-57644398D01*
X41200000Y-23600000D02*
X41200000Y-23000000D01*
X40173960Y-24626970D02*
X40173960Y-24626040D01*
X40173960Y-24626040D02*
X41200000Y-23600000D01*
D20*
X131000000Y-34400000D02*
X101700000Y-5100000D01*
X108165000Y-46880000D02*
X130920000Y-46880000D01*
X101700000Y-5100000D02*
X58900000Y-5100000D01*
X131000000Y-46800000D02*
X131000000Y-34400000D01*
X130920000Y-46880000D02*
X131000000Y-46800000D01*
D19*
X85430000Y-62120000D02*
X83300000Y-64250000D01*
X92000000Y-62120000D02*
X85430000Y-62120000D01*
X83300000Y-64250000D02*
X83300000Y-64450000D01*
X90625000Y-59580000D02*
X87545000Y-56500000D01*
X92000000Y-59580000D02*
X90625000Y-59580000D01*
X87545000Y-56500000D02*
X83300000Y-56500000D01*
X79050000Y-50000000D02*
X77300000Y-48250000D01*
X92000000Y-57040000D02*
X90625000Y-57040000D01*
X83585000Y-50000000D02*
X79050000Y-50000000D01*
X90625000Y-57040000D02*
X83585000Y-50000000D01*
X80300000Y-43725000D02*
X81837500Y-45262500D01*
X84362500Y-45262500D02*
X89037500Y-49937500D01*
X81837500Y-45262500D02*
X84362500Y-45262500D01*
X89037500Y-52462500D02*
X91075000Y-54500000D01*
X89037500Y-49937500D02*
X89037500Y-52462500D01*
X80300000Y-40400000D02*
X80300000Y-43725000D01*
X78950000Y-39050000D02*
X80300000Y-40400000D01*
X91075000Y-54500000D02*
X92000000Y-54500000D01*
X77300000Y-39050000D02*
X78950000Y-39050000D01*
G04 #@! TA.AperFunction,Conductor*
G36*
X132213703Y-34940383D02*
G01*
X132220181Y-34946415D01*
X138955181Y-41681415D01*
X138988666Y-41742738D01*
X138991500Y-41769096D01*
X138991500Y-55030904D01*
X138971815Y-55097943D01*
X138955181Y-55118585D01*
X135118585Y-58955181D01*
X135057262Y-58988666D01*
X135030904Y-58991500D01*
X133232500Y-58991500D01*
X133165461Y-58971815D01*
X133119706Y-58919011D01*
X133108500Y-58867500D01*
X133108500Y-58451362D01*
X133108499Y-58451345D01*
X133102429Y-58394894D01*
X133101989Y-58390799D01*
X133101193Y-58388665D01*
X133059886Y-58277918D01*
X133050889Y-58253796D01*
X132963261Y-58136739D01*
X132846204Y-58049111D01*
X132836196Y-58045378D01*
X132709203Y-57998011D01*
X132648654Y-57991500D01*
X132648638Y-57991500D01*
X129551362Y-57991500D01*
X129551345Y-57991500D01*
X129490797Y-57998011D01*
X129490795Y-57998011D01*
X129353795Y-58049111D01*
X129236739Y-58136739D01*
X129149111Y-58253795D01*
X129098011Y-58390795D01*
X129098011Y-58390797D01*
X129091500Y-58451345D01*
X129091500Y-58867500D01*
X129071815Y-58934539D01*
X129019011Y-58980294D01*
X128967500Y-58991500D01*
X124700666Y-58991500D01*
X124505838Y-59030253D01*
X124505838Y-59030254D01*
X124505835Y-59030255D01*
X124505831Y-59030256D01*
X124429809Y-59061745D01*
X124429807Y-59061745D01*
X124322294Y-59106278D01*
X124157123Y-59216642D01*
X124157115Y-59216648D01*
X122298585Y-61075181D01*
X122237262Y-61108666D01*
X122210904Y-61111500D01*
X109985293Y-61111500D01*
X109918254Y-61091815D01*
X109887082Y-61061194D01*
X109886460Y-61061705D01*
X109771914Y-60922131D01*
X109744601Y-60857821D01*
X109756392Y-60788954D01*
X109771665Y-60765105D01*
X109879277Y-60633129D01*
X109973441Y-60452861D01*
X110029389Y-60257328D01*
X110029390Y-60257325D01*
X110039998Y-60138000D01*
X110039999Y-60137998D01*
X110039999Y-59022002D01*
X110039998Y-59021999D01*
X110029390Y-58902674D01*
X110029389Y-58902671D01*
X109973441Y-58707138D01*
X109879277Y-58526870D01*
X109771665Y-58394894D01*
X109744556Y-58330498D01*
X109756565Y-58261668D01*
X109771911Y-58237872D01*
X109882595Y-58103004D01*
X109976241Y-57927804D01*
X110033908Y-57737701D01*
X110048500Y-57589547D01*
X110048499Y-56490454D01*
X110033908Y-56342299D01*
X109976241Y-56152196D01*
X109976239Y-56152193D01*
X109976239Y-56152191D01*
X109882598Y-55977001D01*
X109882594Y-55976994D01*
X109777276Y-55848665D01*
X109749963Y-55784355D01*
X109761754Y-55715488D01*
X109777276Y-55691335D01*
X109782794Y-55684612D01*
X109882595Y-55563004D01*
X109973234Y-55393430D01*
X109976239Y-55387808D01*
X109976239Y-55387807D01*
X109976241Y-55387804D01*
X110033908Y-55197701D01*
X110048500Y-55049547D01*
X110048499Y-53950454D01*
X110033908Y-53802299D01*
X109976241Y-53612196D01*
X109976239Y-53612193D01*
X109976239Y-53612191D01*
X109955147Y-53572731D01*
X109927157Y-53520365D01*
X111491500Y-53520365D01*
X111491500Y-53679634D01*
X111522568Y-53835823D01*
X111522570Y-53835831D01*
X111583517Y-53982969D01*
X111671995Y-54115387D01*
X111672001Y-54115394D01*
X111784605Y-54227998D01*
X111784612Y-54228004D01*
X111917030Y-54316482D01*
X111917031Y-54316482D01*
X111917032Y-54316483D01*
X112064169Y-54377430D01*
X112183092Y-54401085D01*
X112220365Y-54408499D01*
X112220369Y-54408500D01*
X112220370Y-54408500D01*
X112379631Y-54408500D01*
X112379632Y-54408499D01*
X112535831Y-54377430D01*
X112682968Y-54316483D01*
X112775887Y-54254396D01*
X112842564Y-54233520D01*
X112844777Y-54233500D01*
X115186234Y-54233500D01*
X115253273Y-54253185D01*
X115273915Y-54269819D01*
X117266832Y-56262736D01*
X117300317Y-56324059D01*
X117300768Y-56326226D01*
X117322568Y-56435823D01*
X117322570Y-56435831D01*
X117383517Y-56582969D01*
X117471995Y-56715387D01*
X117472001Y-56715394D01*
X117555824Y-56799217D01*
X117589309Y-56860540D01*
X117584325Y-56930232D01*
X117542453Y-56986165D01*
X117476989Y-57010582D01*
X117468143Y-57010898D01*
X113796651Y-57010898D01*
X113729612Y-56991213D01*
X113727761Y-56990001D01*
X113634840Y-56927913D01*
X113487705Y-56866968D01*
X113487697Y-56866966D01*
X113331508Y-56835898D01*
X113331504Y-56835898D01*
X113172244Y-56835898D01*
X113172239Y-56835898D01*
X113016050Y-56866966D01*
X113016042Y-56866968D01*
X112868904Y-56927915D01*
X112736486Y-57016393D01*
X112736479Y-57016399D01*
X112623875Y-57129003D01*
X112623869Y-57129010D01*
X112535391Y-57261428D01*
X112474444Y-57408566D01*
X112474442Y-57408574D01*
X112443374Y-57564763D01*
X112443374Y-57724032D01*
X112474442Y-57880221D01*
X112474444Y-57880229D01*
X112535391Y-58027367D01*
X112623869Y-58159785D01*
X112623875Y-58159792D01*
X112736479Y-58272396D01*
X112736486Y-58272402D01*
X112868904Y-58360880D01*
X112868905Y-58360880D01*
X112868906Y-58360881D01*
X113016043Y-58421828D01*
X113164522Y-58451362D01*
X113172239Y-58452897D01*
X113172243Y-58452898D01*
X113172244Y-58452898D01*
X113331505Y-58452898D01*
X113331506Y-58452897D01*
X113487705Y-58421828D01*
X113613293Y-58369806D01*
X113634840Y-58360882D01*
X113634840Y-58360881D01*
X113634842Y-58360881D01*
X113727761Y-58298794D01*
X113794438Y-58277918D01*
X113796651Y-58277898D01*
X118817997Y-58277898D01*
X118817998Y-58277897D01*
X118940387Y-58253553D01*
X119055677Y-58205798D01*
X119159435Y-58136469D01*
X120262737Y-57033165D01*
X120324058Y-56999682D01*
X120326122Y-56999251D01*
X120435831Y-56977430D01*
X120582968Y-56916483D01*
X120715389Y-56828003D01*
X120828003Y-56715389D01*
X120916483Y-56582968D01*
X120977430Y-56435831D01*
X121008500Y-56279630D01*
X121008500Y-56120370D01*
X120977430Y-55964169D01*
X120916483Y-55817032D01*
X120916335Y-55816811D01*
X120828004Y-55684612D01*
X120827998Y-55684605D01*
X120715394Y-55572001D01*
X120715387Y-55571995D01*
X120582969Y-55483517D01*
X120435831Y-55422570D01*
X120435823Y-55422568D01*
X120279634Y-55391500D01*
X120279630Y-55391500D01*
X120120370Y-55391500D01*
X120120365Y-55391500D01*
X119964176Y-55422568D01*
X119964168Y-55422570D01*
X119817030Y-55483517D01*
X119684612Y-55571995D01*
X119684605Y-55572001D01*
X119572001Y-55684605D01*
X119571995Y-55684612D01*
X119483517Y-55817030D01*
X119422570Y-55964168D01*
X119422568Y-55964176D01*
X119400768Y-56073772D01*
X119368383Y-56135683D01*
X119366832Y-56137262D01*
X119119032Y-56385062D01*
X119057709Y-56418547D01*
X118988017Y-56413563D01*
X118932084Y-56371691D01*
X118907667Y-56306227D01*
X118907949Y-56285220D01*
X118908500Y-56279628D01*
X118908500Y-56120369D01*
X118908499Y-56120365D01*
X118899231Y-56073772D01*
X118877430Y-55964169D01*
X118816483Y-55817032D01*
X118816335Y-55816811D01*
X118728004Y-55684612D01*
X118727998Y-55684605D01*
X118615394Y-55572001D01*
X118615387Y-55571995D01*
X118482969Y-55483517D01*
X118335831Y-55422570D01*
X118335823Y-55422568D01*
X118226226Y-55400768D01*
X118164315Y-55368384D01*
X118162736Y-55366832D01*
X118143748Y-55347844D01*
X129100000Y-55347844D01*
X129106401Y-55407372D01*
X129106403Y-55407379D01*
X129156645Y-55542086D01*
X129156649Y-55542093D01*
X129242809Y-55657187D01*
X129242812Y-55657190D01*
X129357906Y-55743350D01*
X129357913Y-55743354D01*
X129492620Y-55793596D01*
X129492627Y-55793598D01*
X129552155Y-55799999D01*
X129552172Y-55800000D01*
X130850000Y-55800000D01*
X131350000Y-55800000D01*
X132647828Y-55800000D01*
X132647844Y-55799999D01*
X132707372Y-55793598D01*
X132707379Y-55793596D01*
X132842086Y-55743354D01*
X132842093Y-55743350D01*
X132957187Y-55657190D01*
X132957190Y-55657187D01*
X133043350Y-55542093D01*
X133043354Y-55542086D01*
X133093596Y-55407379D01*
X133093598Y-55407372D01*
X133099999Y-55347844D01*
X133100000Y-55347827D01*
X133100000Y-54050000D01*
X131350000Y-54050000D01*
X131350000Y-55800000D01*
X130850000Y-55800000D01*
X130850000Y-54050000D01*
X129100000Y-54050000D01*
X129100000Y-55347844D01*
X118143748Y-55347844D01*
X116882224Y-54086319D01*
X115903836Y-53107931D01*
X115903832Y-53107928D01*
X115800081Y-53038603D01*
X115800072Y-53038598D01*
X115684785Y-52990845D01*
X115684777Y-52990843D01*
X115562398Y-52966500D01*
X115562394Y-52966500D01*
X112844777Y-52966500D01*
X112777738Y-52946815D01*
X112775887Y-52945603D01*
X112682966Y-52883515D01*
X112535831Y-52822570D01*
X112535823Y-52822568D01*
X112379634Y-52791500D01*
X112379630Y-52791500D01*
X112220370Y-52791500D01*
X112220365Y-52791500D01*
X112064176Y-52822568D01*
X112064168Y-52822570D01*
X111917030Y-52883517D01*
X111784612Y-52971995D01*
X111784605Y-52972001D01*
X111672001Y-53084605D01*
X111671995Y-53084612D01*
X111583517Y-53217030D01*
X111522570Y-53364168D01*
X111522568Y-53364176D01*
X111491500Y-53520365D01*
X109927157Y-53520365D01*
X109882598Y-53437001D01*
X109882594Y-53436994D01*
X109777276Y-53308665D01*
X109749963Y-53244355D01*
X109761754Y-53175488D01*
X109777276Y-53151335D01*
X109812899Y-53107929D01*
X109882595Y-53023004D01*
X109957153Y-52883515D01*
X109976239Y-52847808D01*
X109976239Y-52847807D01*
X109976241Y-52847804D01*
X110033908Y-52657701D01*
X110048500Y-52509547D01*
X110048499Y-51410454D01*
X110033908Y-51262299D01*
X109976241Y-51072196D01*
X109976239Y-51072193D01*
X109976239Y-51072191D01*
X109882598Y-50897001D01*
X109882594Y-50896994D01*
X109777276Y-50768664D01*
X109749963Y-50704354D01*
X109761754Y-50635486D01*
X109777276Y-50611334D01*
X109875152Y-50492072D01*
X109882594Y-50483004D01*
X109976240Y-50307804D01*
X110033907Y-50117701D01*
X110048499Y-49969547D01*
X110048498Y-48870454D01*
X110033907Y-48722299D01*
X109976240Y-48532196D01*
X109976238Y-48532193D01*
X109976238Y-48532191D01*
X109882597Y-48357001D01*
X109882593Y-48356994D01*
X109777276Y-48228665D01*
X109749963Y-48164355D01*
X109761754Y-48095487D01*
X109777276Y-48071335D01*
X109886460Y-47938295D01*
X109887514Y-47939160D01*
X109935802Y-47898805D01*
X109985293Y-47888500D01*
X117151177Y-47888500D01*
X117218216Y-47908185D01*
X117263971Y-47960989D01*
X117273915Y-48030147D01*
X117265738Y-48059953D01*
X117222570Y-48164168D01*
X117222568Y-48164176D01*
X117191500Y-48320365D01*
X117191500Y-48479634D01*
X117222568Y-48635823D01*
X117222570Y-48635831D01*
X117283517Y-48782969D01*
X117371995Y-48915387D01*
X117372001Y-48915394D01*
X117484605Y-49027998D01*
X117484612Y-49028004D01*
X117617030Y-49116482D01*
X117617031Y-49116482D01*
X117617032Y-49116483D01*
X117764169Y-49177430D01*
X117798566Y-49184271D01*
X117873774Y-49199232D01*
X117935685Y-49231616D01*
X117937264Y-49233168D01*
X120955181Y-52251085D01*
X120988666Y-52312408D01*
X120991500Y-52338766D01*
X120991500Y-52379634D01*
X121022568Y-52535823D01*
X121022570Y-52535831D01*
X121083517Y-52682969D01*
X121171995Y-52815387D01*
X121172001Y-52815394D01*
X121284605Y-52927998D01*
X121284612Y-52928004D01*
X121417030Y-53016482D01*
X121417031Y-53016482D01*
X121417032Y-53016483D01*
X121564169Y-53077430D01*
X121717494Y-53107928D01*
X121720365Y-53108499D01*
X121720369Y-53108500D01*
X121720370Y-53108500D01*
X121879631Y-53108500D01*
X121879632Y-53108499D01*
X122035831Y-53077430D01*
X122182968Y-53016483D01*
X122315389Y-52928003D01*
X122428003Y-52815389D01*
X122516483Y-52682968D01*
X122577430Y-52535831D01*
X122608500Y-52379630D01*
X122608500Y-52252155D01*
X129100000Y-52252155D01*
X129100000Y-53550000D01*
X130850000Y-53550000D01*
X131350000Y-53550000D01*
X133100000Y-53550000D01*
X133100000Y-52252172D01*
X133099999Y-52252155D01*
X133093598Y-52192627D01*
X133093596Y-52192620D01*
X133043354Y-52057913D01*
X133043350Y-52057906D01*
X132957190Y-51942812D01*
X132957187Y-51942809D01*
X132842093Y-51856649D01*
X132842086Y-51856645D01*
X132707379Y-51806403D01*
X132707372Y-51806401D01*
X132647844Y-51800000D01*
X131350000Y-51800000D01*
X131350000Y-53550000D01*
X130850000Y-53550000D01*
X130850000Y-51800000D01*
X129552155Y-51800000D01*
X129492627Y-51806401D01*
X129492620Y-51806403D01*
X129357913Y-51856645D01*
X129357906Y-51856649D01*
X129242812Y-51942809D01*
X129242809Y-51942812D01*
X129156649Y-52057906D01*
X129156645Y-52057913D01*
X129106403Y-52192620D01*
X129106401Y-52192627D01*
X129100000Y-52252155D01*
X122608500Y-52252155D01*
X122608500Y-52220370D01*
X122577430Y-52064169D01*
X122516483Y-51917032D01*
X122442562Y-51806401D01*
X122428004Y-51784612D01*
X122427998Y-51784605D01*
X122315394Y-51672001D01*
X122315387Y-51671995D01*
X122182969Y-51583517D01*
X122030204Y-51520239D01*
X122031016Y-51518277D01*
X121988953Y-51493048D01*
X118833168Y-48337264D01*
X118799683Y-48275941D01*
X118799232Y-48273774D01*
X118777431Y-48164176D01*
X118777430Y-48164169D01*
X118748526Y-48094389D01*
X118734262Y-48059953D01*
X118726793Y-47990484D01*
X118758068Y-47928004D01*
X118818157Y-47892352D01*
X118848823Y-47888500D01*
X128867500Y-47888500D01*
X128934539Y-47908185D01*
X128980294Y-47960989D01*
X128991500Y-48012500D01*
X128991500Y-48348654D01*
X128998011Y-48409202D01*
X128998011Y-48409204D01*
X129024281Y-48479634D01*
X129049111Y-48546204D01*
X129136739Y-48663261D01*
X129253796Y-48750889D01*
X129390799Y-48801989D01*
X129418050Y-48804918D01*
X129451345Y-48808499D01*
X129451362Y-48808500D01*
X132548638Y-48808500D01*
X132548654Y-48808499D01*
X132575692Y-48805591D01*
X132609201Y-48801989D01*
X132746204Y-48750889D01*
X132863261Y-48663261D01*
X132950889Y-48546204D01*
X133001989Y-48409201D01*
X133007601Y-48357001D01*
X133008499Y-48348654D01*
X133008500Y-48348637D01*
X133008500Y-45251362D01*
X133008499Y-45251345D01*
X133005157Y-45220270D01*
X133001989Y-45190799D01*
X132950889Y-45053796D01*
X132863261Y-44936739D01*
X132746204Y-44849111D01*
X132724447Y-44840996D01*
X132609203Y-44798011D01*
X132548654Y-44791500D01*
X132548638Y-44791500D01*
X132132500Y-44791500D01*
X132065461Y-44771815D01*
X132019706Y-44719011D01*
X132008500Y-44667500D01*
X132008500Y-35034096D01*
X132028185Y-34967057D01*
X132080989Y-34921302D01*
X132150147Y-34911358D01*
X132213703Y-34940383D01*
G37*
G04 #@! TD.AperFunction*
G04 #@! TA.AperFunction,Conductor*
G36*
X195002532Y-604D02*
G01*
X195011885Y-988D01*
X195371814Y-15766D01*
X195377366Y-16122D01*
X195458217Y-23172D01*
X195462664Y-23642D01*
X195788429Y-64160D01*
X195794570Y-65083D01*
X195869510Y-78277D01*
X195869779Y-78325D01*
X195873696Y-79079D01*
X196200348Y-147490D01*
X196206959Y-149066D01*
X196272429Y-166594D01*
X196275555Y-167478D01*
X196604434Y-265317D01*
X196611455Y-267637D01*
X196661509Y-285845D01*
X196664147Y-286838D01*
X196997684Y-416921D01*
X197004987Y-420043D01*
X197031620Y-432458D01*
X197033629Y-433416D01*
X197375213Y-600350D01*
X197384230Y-605229D01*
X197730428Y-811471D01*
X197739012Y-817078D01*
X198067005Y-1051227D01*
X198075081Y-1057512D01*
X198194651Y-1158776D01*
X198382608Y-1317957D01*
X198390151Y-1324901D01*
X198675098Y-1609848D01*
X198682042Y-1617391D01*
X198815917Y-1775468D01*
X198942481Y-1924911D01*
X198948778Y-1933002D01*
X199182921Y-2260987D01*
X199188528Y-2269571D01*
X199394770Y-2615769D01*
X199399649Y-2624786D01*
X199566559Y-2966320D01*
X199567541Y-2968378D01*
X199579952Y-2995004D01*
X199583087Y-3002337D01*
X199713149Y-3335824D01*
X199714153Y-3338489D01*
X199732361Y-3388543D01*
X199734684Y-3395575D01*
X199832494Y-3724351D01*
X199833424Y-3727642D01*
X199850928Y-3793026D01*
X199852513Y-3799675D01*
X199920919Y-4126304D01*
X199921673Y-4130219D01*
X199934911Y-4205401D01*
X199935842Y-4211599D01*
X199976351Y-4537295D01*
X199976830Y-4541827D01*
X199983871Y-4622562D01*
X199984236Y-4628248D01*
X199999396Y-4997467D01*
X199999500Y-5002554D01*
X199999500Y-103997445D01*
X199999396Y-104002532D01*
X199984236Y-104371750D01*
X199983871Y-104377436D01*
X199976830Y-104458171D01*
X199976351Y-104462703D01*
X199935842Y-104788399D01*
X199934911Y-104794597D01*
X199921673Y-104869779D01*
X199920919Y-104873694D01*
X199852513Y-105200323D01*
X199850928Y-105206972D01*
X199833424Y-105272356D01*
X199832494Y-105275647D01*
X199734684Y-105604423D01*
X199732361Y-105611455D01*
X199714153Y-105661509D01*
X199713149Y-105664174D01*
X199583087Y-105997661D01*
X199579952Y-106004994D01*
X199567531Y-106031641D01*
X199566549Y-106033698D01*
X199399652Y-106375207D01*
X199394773Y-106384225D01*
X199188528Y-106730428D01*
X199182921Y-106739012D01*
X198948778Y-107066997D01*
X198942481Y-107075088D01*
X198682042Y-107382608D01*
X198675098Y-107390151D01*
X198390151Y-107675098D01*
X198382608Y-107682042D01*
X198075088Y-107942481D01*
X198066997Y-107948778D01*
X197739012Y-108182921D01*
X197730428Y-108188528D01*
X197384225Y-108394773D01*
X197375207Y-108399652D01*
X197033698Y-108566549D01*
X197031641Y-108567531D01*
X197004994Y-108579952D01*
X196997661Y-108583087D01*
X196664174Y-108713149D01*
X196661509Y-108714153D01*
X196611455Y-108732361D01*
X196604423Y-108734684D01*
X196275647Y-108832494D01*
X196272356Y-108833424D01*
X196206972Y-108850928D01*
X196200323Y-108852513D01*
X195873694Y-108920919D01*
X195869779Y-108921673D01*
X195794597Y-108934911D01*
X195788399Y-108935842D01*
X195462703Y-108976351D01*
X195458171Y-108976830D01*
X195377436Y-108983871D01*
X195371750Y-108984236D01*
X195002533Y-108999396D01*
X194997446Y-108999500D01*
X5002554Y-108999500D01*
X4997467Y-108999396D01*
X4628273Y-108984237D01*
X4622586Y-108983872D01*
X4541796Y-108976826D01*
X4537265Y-108976347D01*
X4211624Y-108935845D01*
X4205426Y-108934914D01*
X4130171Y-108921663D01*
X4126256Y-108920909D01*
X3799714Y-108852521D01*
X3793065Y-108850936D01*
X3727566Y-108833401D01*
X3724275Y-108832471D01*
X3395611Y-108734695D01*
X3388579Y-108732372D01*
X3338410Y-108714122D01*
X3335745Y-108713118D01*
X3002376Y-108583102D01*
X2995042Y-108579966D01*
X2968209Y-108567458D01*
X2966152Y-108566477D01*
X2624791Y-108399652D01*
X2615774Y-108394773D01*
X2269571Y-108188528D01*
X2260987Y-108182921D01*
X1933002Y-107948778D01*
X1924911Y-107942481D01*
X1617391Y-107682042D01*
X1609848Y-107675098D01*
X1324901Y-107390151D01*
X1317957Y-107382608D01*
X1184087Y-107224537D01*
X1057512Y-107075081D01*
X1051227Y-107067005D01*
X817078Y-106739012D01*
X811471Y-106730428D01*
X605229Y-106384230D01*
X600350Y-106375213D01*
X600347Y-106375207D01*
X433450Y-106033698D01*
X432589Y-106031895D01*
X420014Y-106004917D01*
X416903Y-105997640D01*
X286875Y-105664240D01*
X285876Y-105661588D01*
X267626Y-105611419D01*
X265309Y-105604407D01*
X167508Y-105275658D01*
X166610Y-105272479D01*
X149060Y-105206926D01*
X147481Y-105200303D01*
X79088Y-104873741D01*
X78341Y-104869866D01*
X72637Y-104837467D01*
X691500Y-104837467D01*
X691500Y-105162532D01*
X723361Y-105486032D01*
X723364Y-105486049D01*
X786775Y-105804848D01*
X786778Y-105804859D01*
X881145Y-106115945D01*
X1005546Y-106416274D01*
X1005548Y-106416279D01*
X1158776Y-106702948D01*
X1158793Y-106702976D01*
X1339370Y-106973230D01*
X1339387Y-106973253D01*
X1545611Y-107224537D01*
X1775462Y-107454388D01*
X1775467Y-107454392D01*
X1775468Y-107454393D01*
X2026752Y-107660617D01*
X2026759Y-107660622D01*
X2026769Y-107660629D01*
X2297023Y-107841206D01*
X2297028Y-107841209D01*
X2297040Y-107841217D01*
X2297049Y-107841221D01*
X2297051Y-107841223D01*
X2583720Y-107994451D01*
X2583722Y-107994451D01*
X2583728Y-107994455D01*
X2884056Y-108118855D01*
X3195131Y-108213219D01*
X3195137Y-108213220D01*
X3195140Y-108213221D01*
X3195151Y-108213224D01*
X3395066Y-108252988D01*
X3513957Y-108276637D01*
X3837464Y-108308500D01*
X3837467Y-108308500D01*
X4162533Y-108308500D01*
X4162536Y-108308500D01*
X4486043Y-108276637D01*
X4643850Y-108245247D01*
X4804848Y-108213224D01*
X4804859Y-108213221D01*
X4804859Y-108213220D01*
X4804869Y-108213219D01*
X5115944Y-108118855D01*
X5416272Y-107994455D01*
X5702960Y-107841217D01*
X5973248Y-107660617D01*
X6224532Y-107454393D01*
X6454393Y-107224532D01*
X6660617Y-106973248D01*
X6841217Y-106702960D01*
X6994455Y-106416272D01*
X7118855Y-106115944D01*
X7213219Y-105804869D01*
X7213221Y-105804859D01*
X7213224Y-105804848D01*
X7253097Y-105604387D01*
X7276637Y-105486043D01*
X7308500Y-105162536D01*
X7308500Y-104837467D01*
X192691500Y-104837467D01*
X192691500Y-105162532D01*
X192723361Y-105486032D01*
X192723364Y-105486049D01*
X192786775Y-105804848D01*
X192786778Y-105804859D01*
X192881145Y-106115945D01*
X193005546Y-106416274D01*
X193005548Y-106416279D01*
X193158776Y-106702948D01*
X193158793Y-106702976D01*
X193339370Y-106973230D01*
X193339387Y-106973253D01*
X193545611Y-107224537D01*
X193775462Y-107454388D01*
X193775467Y-107454392D01*
X193775468Y-107454393D01*
X194026752Y-107660617D01*
X194026759Y-107660622D01*
X194026769Y-107660629D01*
X194297023Y-107841206D01*
X194297028Y-107841209D01*
X194297040Y-107841217D01*
X194297049Y-107841221D01*
X194297051Y-107841223D01*
X194583720Y-107994451D01*
X194583722Y-107994451D01*
X194583728Y-107994455D01*
X194884056Y-108118855D01*
X195195131Y-108213219D01*
X195195137Y-108213220D01*
X195195140Y-108213221D01*
X195195151Y-108213224D01*
X195395066Y-108252988D01*
X195513957Y-108276637D01*
X195837464Y-108308500D01*
X195837467Y-108308500D01*
X196162533Y-108308500D01*
X196162536Y-108308500D01*
X196486043Y-108276637D01*
X196643850Y-108245247D01*
X196804848Y-108213224D01*
X196804859Y-108213221D01*
X196804859Y-108213220D01*
X196804869Y-108213219D01*
X197115944Y-108118855D01*
X197416272Y-107994455D01*
X197702960Y-107841217D01*
X197973248Y-107660617D01*
X198224532Y-107454393D01*
X198454393Y-107224532D01*
X198660617Y-106973248D01*
X198841217Y-106702960D01*
X198994455Y-106416272D01*
X199118855Y-106115944D01*
X199213219Y-105804869D01*
X199213221Y-105804859D01*
X199213224Y-105804848D01*
X199253097Y-105604387D01*
X199276637Y-105486043D01*
X199308500Y-105162536D01*
X199308500Y-104837464D01*
X199276637Y-104513957D01*
X199252988Y-104395066D01*
X199213224Y-104195151D01*
X199213221Y-104195140D01*
X199213220Y-104195137D01*
X199213219Y-104195131D01*
X199118855Y-103884056D01*
X198994455Y-103583728D01*
X198841217Y-103297040D01*
X198841206Y-103297023D01*
X198660629Y-103026769D01*
X198660622Y-103026759D01*
X198660617Y-103026752D01*
X198454393Y-102775468D01*
X198454392Y-102775467D01*
X198454388Y-102775462D01*
X198224537Y-102545611D01*
X197973253Y-102339387D01*
X197973230Y-102339370D01*
X197702976Y-102158793D01*
X197702948Y-102158776D01*
X197416279Y-102005548D01*
X197416274Y-102005546D01*
X197115945Y-101881145D01*
X196804859Y-101786778D01*
X196804848Y-101786775D01*
X196486049Y-101723364D01*
X196486032Y-101723361D01*
X196241395Y-101699267D01*
X196162536Y-101691500D01*
X195837464Y-101691500D01*
X195764530Y-101698683D01*
X195513967Y-101723361D01*
X195513950Y-101723364D01*
X195195151Y-101786775D01*
X195195140Y-101786778D01*
X194884054Y-101881145D01*
X194583725Y-102005546D01*
X194583720Y-102005548D01*
X194297051Y-102158776D01*
X194297023Y-102158793D01*
X194026769Y-102339370D01*
X194026746Y-102339387D01*
X193775462Y-102545611D01*
X193545611Y-102775462D01*
X193339387Y-103026746D01*
X193339370Y-103026769D01*
X193158793Y-103297023D01*
X193158776Y-103297051D01*
X193005548Y-103583720D01*
X193005546Y-103583725D01*
X192881145Y-103884054D01*
X192786778Y-104195140D01*
X192786775Y-104195151D01*
X192723364Y-104513950D01*
X192723361Y-104513967D01*
X192698683Y-104764530D01*
X192692927Y-104822981D01*
X192691500Y-104837467D01*
X7308500Y-104837467D01*
X7308500Y-104837464D01*
X7276637Y-104513957D01*
X7252988Y-104395066D01*
X7213224Y-104195151D01*
X7213221Y-104195140D01*
X7213220Y-104195137D01*
X7213219Y-104195131D01*
X7118855Y-103884056D01*
X6994455Y-103583728D01*
X6841217Y-103297040D01*
X6841206Y-103297023D01*
X6660629Y-103026769D01*
X6660622Y-103026759D01*
X6660617Y-103026752D01*
X6454393Y-102775468D01*
X6454392Y-102775467D01*
X6454388Y-102775462D01*
X6224537Y-102545611D01*
X5973253Y-102339387D01*
X5973230Y-102339370D01*
X5702976Y-102158793D01*
X5702948Y-102158776D01*
X5416279Y-102005548D01*
X5416274Y-102005546D01*
X5115945Y-101881145D01*
X4804859Y-101786778D01*
X4804848Y-101786775D01*
X4486049Y-101723364D01*
X4486032Y-101723361D01*
X4241395Y-101699267D01*
X4162536Y-101691500D01*
X3837464Y-101691500D01*
X3764530Y-101698683D01*
X3513967Y-101723361D01*
X3513950Y-101723364D01*
X3195151Y-101786775D01*
X3195140Y-101786778D01*
X2884054Y-101881145D01*
X2583725Y-102005546D01*
X2583720Y-102005548D01*
X2297051Y-102158776D01*
X2297023Y-102158793D01*
X2026769Y-102339370D01*
X2026746Y-102339387D01*
X1775462Y-102545611D01*
X1545611Y-102775462D01*
X1339387Y-103026746D01*
X1339370Y-103026769D01*
X1158793Y-103297023D01*
X1158776Y-103297051D01*
X1005548Y-103583720D01*
X1005546Y-103583725D01*
X881145Y-103884054D01*
X786778Y-104195140D01*
X786775Y-104195151D01*
X723364Y-104513950D01*
X723361Y-104513967D01*
X698683Y-104764530D01*
X692927Y-104822981D01*
X691500Y-104837467D01*
X72637Y-104837467D01*
X65079Y-104794540D01*
X64157Y-104788399D01*
X23648Y-104462703D01*
X23175Y-104458234D01*
X16121Y-104377343D01*
X15765Y-104371788D01*
X604Y-104002532D01*
X500Y-103997446D01*
X500Y-76120365D01*
X39541500Y-76120365D01*
X39541500Y-76279634D01*
X39572568Y-76435823D01*
X39572570Y-76435831D01*
X39633517Y-76582969D01*
X39721995Y-76715387D01*
X39721996Y-76715388D01*
X39721997Y-76715389D01*
X39730179Y-76723571D01*
X39763665Y-76784891D01*
X39766500Y-76811254D01*
X39766500Y-82262398D01*
X39790843Y-82384777D01*
X39790845Y-82384785D01*
X39838598Y-82500072D01*
X39838603Y-82500081D01*
X39907928Y-82603832D01*
X39907931Y-82603836D01*
X42155181Y-84851085D01*
X42188666Y-84912408D01*
X42191500Y-84938766D01*
X42191500Y-87548654D01*
X42198011Y-87609202D01*
X42198011Y-87609204D01*
X42249111Y-87746204D01*
X42336739Y-87863261D01*
X42453796Y-87950889D01*
X42590799Y-88001989D01*
X42618050Y-88004918D01*
X42651345Y-88008499D01*
X42651362Y-88008500D01*
X45748638Y-88008500D01*
X45748654Y-88008499D01*
X45775692Y-88005591D01*
X45809201Y-88001989D01*
X45946204Y-87950889D01*
X46063261Y-87863261D01*
X46150889Y-87746204D01*
X46201989Y-87609201D01*
X46205591Y-87575692D01*
X46208499Y-87548654D01*
X46208500Y-87548637D01*
X46208500Y-84451362D01*
X46208499Y-84451345D01*
X46205157Y-84420270D01*
X46201989Y-84390799D01*
X46150889Y-84253796D01*
X46063261Y-84136739D01*
X45946204Y-84049111D01*
X45809203Y-83998011D01*
X45748654Y-83991500D01*
X45748638Y-83991500D01*
X43138767Y-83991500D01*
X43071728Y-83971815D01*
X43051086Y-83955181D01*
X41069819Y-81973914D01*
X41036334Y-81912591D01*
X41033500Y-81886233D01*
X41033500Y-76669945D01*
X41053185Y-76602906D01*
X41054344Y-76601134D01*
X41066483Y-76582968D01*
X41127430Y-76435831D01*
X41158500Y-76279630D01*
X41158500Y-76120370D01*
X41127430Y-75964169D01*
X41066483Y-75817032D01*
X40978003Y-75684611D01*
X40977998Y-75684605D01*
X40865394Y-75572001D01*
X40865387Y-75571995D01*
X40732969Y-75483517D01*
X40585831Y-75422570D01*
X40585823Y-75422568D01*
X40429634Y-75391500D01*
X40429630Y-75391500D01*
X40270370Y-75391500D01*
X40270365Y-75391500D01*
X40114176Y-75422568D01*
X40114168Y-75422570D01*
X39967030Y-75483517D01*
X39834612Y-75571995D01*
X39834605Y-75572001D01*
X39722001Y-75684605D01*
X39721995Y-75684612D01*
X39633517Y-75817030D01*
X39572570Y-75964168D01*
X39572568Y-75964176D01*
X39541500Y-76120365D01*
X500Y-76120365D01*
X500Y-59920365D01*
X23491500Y-59920365D01*
X23491500Y-60079634D01*
X23522568Y-60235823D01*
X23522570Y-60235831D01*
X23583517Y-60382969D01*
X23671995Y-60515387D01*
X23672001Y-60515394D01*
X23784605Y-60627998D01*
X23784612Y-60628004D01*
X23917030Y-60716482D01*
X23917031Y-60716482D01*
X23917032Y-60716483D01*
X24064169Y-60777430D01*
X24093947Y-60783353D01*
X24173774Y-60799232D01*
X24235685Y-60831616D01*
X24237264Y-60833168D01*
X27232923Y-63828827D01*
X27318299Y-63914203D01*
X27321162Y-63917066D01*
X27424912Y-63986390D01*
X27424918Y-63986393D01*
X27424919Y-63986394D01*
X27540209Y-64034149D01*
X27656155Y-64057212D01*
X27662595Y-64058493D01*
X27662599Y-64058494D01*
X27662600Y-64058494D01*
X38882354Y-64058494D01*
X38949393Y-64078179D01*
X38995148Y-64130983D01*
X39005092Y-64200141D01*
X38976067Y-64263697D01*
X38970048Y-64270161D01*
X38872000Y-64368210D01*
X38810676Y-64401694D01*
X38808510Y-64402145D01*
X38698914Y-64423945D01*
X38698906Y-64423947D01*
X38551768Y-64484894D01*
X38419350Y-64573372D01*
X38419343Y-64573378D01*
X38306739Y-64685982D01*
X38306733Y-64685989D01*
X38218255Y-64818407D01*
X38157308Y-64965545D01*
X38157306Y-64965553D01*
X38126238Y-65121742D01*
X38126238Y-65281011D01*
X38157306Y-65437200D01*
X38157308Y-65437208D01*
X38218255Y-65584346D01*
X38306733Y-65716764D01*
X38306739Y-65716771D01*
X38419343Y-65829375D01*
X38419350Y-65829381D01*
X38551768Y-65917859D01*
X38551769Y-65917859D01*
X38551770Y-65917860D01*
X38698907Y-65978807D01*
X38855103Y-66009876D01*
X38855107Y-66009877D01*
X38855108Y-66009877D01*
X39014369Y-66009877D01*
X39014370Y-66009876D01*
X39170569Y-65978807D01*
X39317706Y-65917860D01*
X39317709Y-65917857D01*
X39323076Y-65914990D01*
X39324155Y-65917008D01*
X39381102Y-65899185D01*
X39383299Y-65899166D01*
X40951900Y-65899166D01*
X41018939Y-65918851D01*
X41039581Y-65935485D01*
X43530181Y-68426085D01*
X43563666Y-68487408D01*
X43566500Y-68513766D01*
X43566500Y-76967500D01*
X43546815Y-77034539D01*
X43494011Y-77080294D01*
X43442500Y-77091500D01*
X42651345Y-77091500D01*
X42590797Y-77098011D01*
X42590795Y-77098011D01*
X42453795Y-77149111D01*
X42336739Y-77236739D01*
X42249111Y-77353795D01*
X42198011Y-77490795D01*
X42198011Y-77490797D01*
X42191500Y-77551345D01*
X42191500Y-80648654D01*
X42198011Y-80709202D01*
X42198011Y-80709204D01*
X42249111Y-80846204D01*
X42336739Y-80963261D01*
X42453796Y-81050889D01*
X42590799Y-81101989D01*
X42618050Y-81104918D01*
X42651345Y-81108499D01*
X42651362Y-81108500D01*
X45748638Y-81108500D01*
X45748654Y-81108499D01*
X45775692Y-81105591D01*
X45809201Y-81101989D01*
X45946204Y-81050889D01*
X46063261Y-80963261D01*
X46150889Y-80846204D01*
X46201989Y-80709201D01*
X46205591Y-80675692D01*
X46208499Y-80648654D01*
X46208500Y-80648637D01*
X46208500Y-77551362D01*
X46208499Y-77551345D01*
X46205157Y-77520270D01*
X46201989Y-77490799D01*
X46150889Y-77353796D01*
X46063261Y-77236739D01*
X45946204Y-77149111D01*
X45809203Y-77098011D01*
X45748654Y-77091500D01*
X45748638Y-77091500D01*
X44957500Y-77091500D01*
X44890461Y-77071815D01*
X44844706Y-77019011D01*
X44833500Y-76967500D01*
X44833500Y-68572844D01*
X76300000Y-68572844D01*
X76306401Y-68632372D01*
X76306403Y-68632379D01*
X76356645Y-68767086D01*
X76356649Y-68767093D01*
X76442809Y-68882187D01*
X76442812Y-68882190D01*
X76557906Y-68968350D01*
X76557913Y-68968354D01*
X76692620Y-69018596D01*
X76692627Y-69018598D01*
X76752155Y-69024999D01*
X76752172Y-69025000D01*
X77050000Y-69025000D01*
X77550000Y-69025000D01*
X77847828Y-69025000D01*
X77847844Y-69024999D01*
X77907372Y-69018598D01*
X77907379Y-69018596D01*
X78042086Y-68968354D01*
X78042093Y-68968350D01*
X78157187Y-68882190D01*
X78157190Y-68882187D01*
X78243350Y-68767093D01*
X78243354Y-68767086D01*
X78293596Y-68632379D01*
X78293598Y-68632372D01*
X78299999Y-68572844D01*
X82300000Y-68572844D01*
X82306401Y-68632372D01*
X82306403Y-68632379D01*
X82356645Y-68767086D01*
X82356649Y-68767093D01*
X82442809Y-68882187D01*
X82442812Y-68882190D01*
X82557906Y-68968350D01*
X82557913Y-68968354D01*
X82692620Y-69018596D01*
X82692627Y-69018598D01*
X82752155Y-69024999D01*
X82752172Y-69025000D01*
X83050000Y-69025000D01*
X83550000Y-69025000D01*
X83847828Y-69025000D01*
X83847844Y-69024999D01*
X83907372Y-69018598D01*
X83907379Y-69018596D01*
X84042086Y-68968354D01*
X84042093Y-68968350D01*
X84157187Y-68882190D01*
X84157190Y-68882187D01*
X84243350Y-68767093D01*
X84243354Y-68767086D01*
X84293596Y-68632379D01*
X84293598Y-68632372D01*
X84299999Y-68572844D01*
X84300000Y-68572827D01*
X84300000Y-68400000D01*
X83550000Y-68400000D01*
X83550000Y-69025000D01*
X83050000Y-69025000D01*
X83050000Y-68400000D01*
X82300000Y-68400000D01*
X82300000Y-68572844D01*
X78299999Y-68572844D01*
X78300000Y-68572827D01*
X78300000Y-68400000D01*
X77550000Y-68400000D01*
X77550000Y-69025000D01*
X77050000Y-69025000D01*
X77050000Y-68400000D01*
X76300000Y-68400000D01*
X76300000Y-68572844D01*
X44833500Y-68572844D01*
X44833500Y-68137605D01*
X44833499Y-68137601D01*
X44809156Y-68015222D01*
X44809155Y-68015215D01*
X44761400Y-67899925D01*
X44761399Y-67899924D01*
X44761396Y-67899918D01*
X44696189Y-67802329D01*
X44696186Y-67802326D01*
X44692071Y-67796167D01*
X44623059Y-67727155D01*
X76300000Y-67727155D01*
X76300000Y-67900000D01*
X77050000Y-67900000D01*
X77550000Y-67900000D01*
X78300000Y-67900000D01*
X78300000Y-67727172D01*
X78299999Y-67727155D01*
X82300000Y-67727155D01*
X82300000Y-67900000D01*
X83050000Y-67900000D01*
X83550000Y-67900000D01*
X84300000Y-67900000D01*
X84300000Y-67727172D01*
X84299999Y-67727155D01*
X84293598Y-67667627D01*
X84293596Y-67667620D01*
X84243354Y-67532913D01*
X84243350Y-67532906D01*
X84157190Y-67417812D01*
X84157187Y-67417809D01*
X84042093Y-67331649D01*
X84042086Y-67331645D01*
X83907379Y-67281403D01*
X83907372Y-67281401D01*
X83847844Y-67275000D01*
X83550000Y-67275000D01*
X83550000Y-67900000D01*
X83050000Y-67900000D01*
X83050000Y-67275000D01*
X82752155Y-67275000D01*
X82692627Y-67281401D01*
X82692620Y-67281403D01*
X82557913Y-67331645D01*
X82557906Y-67331649D01*
X82442812Y-67417809D01*
X82442809Y-67417812D01*
X82356649Y-67532906D01*
X82356645Y-67532913D01*
X82306403Y-67667620D01*
X82306401Y-67667627D01*
X82300000Y-67727155D01*
X78299999Y-67727155D01*
X78293598Y-67667627D01*
X78293596Y-67667620D01*
X78243354Y-67532913D01*
X78243350Y-67532906D01*
X78157190Y-67417812D01*
X78157187Y-67417809D01*
X78042093Y-67331649D01*
X78042086Y-67331645D01*
X77907379Y-67281403D01*
X77907372Y-67281401D01*
X77847844Y-67275000D01*
X77550000Y-67275000D01*
X77550000Y-67900000D01*
X77050000Y-67900000D01*
X77050000Y-67275000D01*
X76752155Y-67275000D01*
X76692627Y-67281401D01*
X76692620Y-67281403D01*
X76557913Y-67331645D01*
X76557906Y-67331649D01*
X76442812Y-67417809D01*
X76442809Y-67417812D01*
X76356649Y-67532906D01*
X76356645Y-67532913D01*
X76306403Y-67667620D01*
X76306401Y-67667627D01*
X76300000Y-67727155D01*
X44623059Y-67727155D01*
X44603833Y-67707929D01*
X44069819Y-67173915D01*
X44036334Y-67112592D01*
X44033500Y-67086234D01*
X44033500Y-64026345D01*
X76291500Y-64026345D01*
X76291500Y-64873654D01*
X76298011Y-64934202D01*
X76298011Y-64934204D01*
X76349111Y-65071204D01*
X76436739Y-65188261D01*
X76553796Y-65275889D01*
X76690799Y-65326989D01*
X76718050Y-65329918D01*
X76751345Y-65333499D01*
X76751362Y-65333500D01*
X77848638Y-65333500D01*
X77848654Y-65333499D01*
X77875692Y-65330591D01*
X77909201Y-65326989D01*
X78046204Y-65275889D01*
X78163261Y-65188261D01*
X78250889Y-65071204D01*
X78301989Y-64934201D01*
X78305591Y-64900692D01*
X78308499Y-64873654D01*
X78308500Y-64873637D01*
X78308500Y-64026362D01*
X78308499Y-64026345D01*
X78304203Y-63986394D01*
X78301989Y-63965799D01*
X78282744Y-63914203D01*
X78279522Y-63905564D01*
X78250889Y-63828796D01*
X78163261Y-63711739D01*
X78046204Y-63624111D01*
X78018849Y-63613908D01*
X77909203Y-63573011D01*
X77848654Y-63566500D01*
X77848638Y-63566500D01*
X76751362Y-63566500D01*
X76751345Y-63566500D01*
X76690797Y-63573011D01*
X76690795Y-63573011D01*
X76553795Y-63624111D01*
X76436739Y-63711739D01*
X76349111Y-63828795D01*
X76298011Y-63965795D01*
X76298011Y-63965797D01*
X76291500Y-64026345D01*
X44033500Y-64026345D01*
X44033500Y-61976255D01*
X44053185Y-61909216D01*
X44105989Y-61863461D01*
X44175147Y-61853517D01*
X44238703Y-61882542D01*
X44245181Y-61888574D01*
X44284605Y-61927998D01*
X44284612Y-61928004D01*
X44417030Y-62016482D01*
X44417031Y-62016482D01*
X44417032Y-62016483D01*
X44564169Y-62077430D01*
X44720365Y-62108499D01*
X44720369Y-62108500D01*
X44720370Y-62108500D01*
X44879631Y-62108500D01*
X44879632Y-62108499D01*
X45035831Y-62077430D01*
X45182968Y-62016483D01*
X45315389Y-61928003D01*
X45428003Y-61815389D01*
X45516483Y-61682968D01*
X45577430Y-61535831D01*
X45599231Y-61426222D01*
X45631615Y-61364315D01*
X45633110Y-61362792D01*
X46373059Y-60622844D01*
X76300000Y-60622844D01*
X76306401Y-60682372D01*
X76306403Y-60682379D01*
X76356645Y-60817086D01*
X76356649Y-60817093D01*
X76442809Y-60932187D01*
X76442812Y-60932190D01*
X76557906Y-61018350D01*
X76557913Y-61018354D01*
X76692620Y-61068596D01*
X76692627Y-61068598D01*
X76752155Y-61074999D01*
X76752172Y-61075000D01*
X77050000Y-61075000D01*
X77550000Y-61075000D01*
X77847828Y-61075000D01*
X77847844Y-61074999D01*
X77907372Y-61068598D01*
X77907379Y-61068596D01*
X78042086Y-61018354D01*
X78042093Y-61018350D01*
X78157187Y-60932190D01*
X78157190Y-60932187D01*
X78243350Y-60817093D01*
X78243354Y-60817086D01*
X78293596Y-60682379D01*
X78293598Y-60682372D01*
X78299999Y-60622844D01*
X82300000Y-60622844D01*
X82306401Y-60682372D01*
X82306403Y-60682379D01*
X82356645Y-60817086D01*
X82356649Y-60817093D01*
X82442809Y-60932187D01*
X82442812Y-60932190D01*
X82557906Y-61018350D01*
X82557913Y-61018354D01*
X82692620Y-61068596D01*
X82692627Y-61068598D01*
X82752155Y-61074999D01*
X82752172Y-61075000D01*
X83050000Y-61075000D01*
X83550000Y-61075000D01*
X83847828Y-61075000D01*
X83847844Y-61074999D01*
X83907372Y-61068598D01*
X83907379Y-61068596D01*
X84042086Y-61018354D01*
X84042093Y-61018350D01*
X84157187Y-60932190D01*
X84157190Y-60932187D01*
X84243350Y-60817093D01*
X84243354Y-60817086D01*
X84293596Y-60682379D01*
X84293598Y-60682372D01*
X84299999Y-60622844D01*
X84300000Y-60622827D01*
X84300000Y-60450000D01*
X83550000Y-60450000D01*
X83550000Y-61075000D01*
X83050000Y-61075000D01*
X83050000Y-60450000D01*
X82300000Y-60450000D01*
X82300000Y-60622844D01*
X78299999Y-60622844D01*
X78300000Y-60622827D01*
X78300000Y-60450000D01*
X77550000Y-60450000D01*
X77550000Y-61075000D01*
X77050000Y-61075000D01*
X77050000Y-60450000D01*
X76300000Y-60450000D01*
X76300000Y-60622844D01*
X46373059Y-60622844D01*
X46992071Y-60003833D01*
X47061400Y-59900075D01*
X47109155Y-59784785D01*
X47110673Y-59777155D01*
X76300000Y-59777155D01*
X76300000Y-59950000D01*
X77050000Y-59950000D01*
X77550000Y-59950000D01*
X78300000Y-59950000D01*
X78300000Y-59777172D01*
X78299999Y-59777155D01*
X82300000Y-59777155D01*
X82300000Y-59950000D01*
X83050000Y-59950000D01*
X83550000Y-59950000D01*
X84300000Y-59950000D01*
X84300000Y-59777172D01*
X84299999Y-59777155D01*
X84293598Y-59717627D01*
X84293596Y-59717620D01*
X84243354Y-59582913D01*
X84243350Y-59582906D01*
X84157190Y-59467812D01*
X84157187Y-59467809D01*
X84042093Y-59381649D01*
X84042086Y-59381645D01*
X83907379Y-59331403D01*
X83907372Y-59331401D01*
X83847844Y-59325000D01*
X83550000Y-59325000D01*
X83550000Y-59950000D01*
X83050000Y-59950000D01*
X83050000Y-59325000D01*
X82752155Y-59325000D01*
X82692627Y-59331401D01*
X82692620Y-59331403D01*
X82557913Y-59381645D01*
X82557906Y-59381649D01*
X82442812Y-59467809D01*
X82442809Y-59467812D01*
X82356649Y-59582906D01*
X82356645Y-59582913D01*
X82306403Y-59717620D01*
X82306401Y-59717627D01*
X82300000Y-59777155D01*
X78299999Y-59777155D01*
X78293598Y-59717627D01*
X78293596Y-59717620D01*
X78243354Y-59582913D01*
X78243350Y-59582906D01*
X78157190Y-59467812D01*
X78157187Y-59467809D01*
X78042093Y-59381649D01*
X78042086Y-59381645D01*
X77907379Y-59331403D01*
X77907372Y-59331401D01*
X77847844Y-59325000D01*
X77550000Y-59325000D01*
X77550000Y-59950000D01*
X77050000Y-59950000D01*
X77050000Y-59325000D01*
X76752155Y-59325000D01*
X76692627Y-59331401D01*
X76692620Y-59331403D01*
X76557913Y-59381645D01*
X76557906Y-59381649D01*
X76442812Y-59467809D01*
X76442809Y-59467812D01*
X76356649Y-59582906D01*
X76356645Y-59582913D01*
X76306403Y-59717620D01*
X76306401Y-59717627D01*
X76300000Y-59777155D01*
X47110673Y-59777155D01*
X47133500Y-59662394D01*
X47133500Y-59537606D01*
X47133500Y-56144777D01*
X47138827Y-56126633D01*
X47139165Y-56107725D01*
X47152666Y-56079504D01*
X47153185Y-56077738D01*
X47154097Y-56076345D01*
X76291500Y-56076345D01*
X76291500Y-56923654D01*
X76298011Y-56984202D01*
X76298011Y-56984204D01*
X76349111Y-57121204D01*
X76436739Y-57238261D01*
X76553796Y-57325889D01*
X76690799Y-57376989D01*
X76718050Y-57379918D01*
X76751345Y-57383499D01*
X76751362Y-57383500D01*
X77848638Y-57383500D01*
X77848654Y-57383499D01*
X77875692Y-57380591D01*
X77909201Y-57376989D01*
X78046204Y-57325889D01*
X78163261Y-57238261D01*
X78250889Y-57121204D01*
X78299826Y-56990001D01*
X78301988Y-56984204D01*
X78301988Y-56984203D01*
X78301989Y-56984201D01*
X78305591Y-56950692D01*
X78308499Y-56923654D01*
X78308500Y-56923637D01*
X78308500Y-56076362D01*
X78308499Y-56076345D01*
X78305157Y-56045270D01*
X78301989Y-56015799D01*
X78299054Y-56007931D01*
X78255382Y-55890843D01*
X78250889Y-55878796D01*
X78163261Y-55761739D01*
X78046204Y-55674111D01*
X78000838Y-55657190D01*
X77909203Y-55623011D01*
X77848654Y-55616500D01*
X77848638Y-55616500D01*
X76751362Y-55616500D01*
X76751345Y-55616500D01*
X76690797Y-55623011D01*
X76690795Y-55623011D01*
X76553795Y-55674111D01*
X76436739Y-55761739D01*
X76349111Y-55878795D01*
X76298011Y-56015795D01*
X76298011Y-56015797D01*
X76291500Y-56076345D01*
X47154097Y-56076345D01*
X47154397Y-56075887D01*
X47194546Y-56015799D01*
X47216483Y-55982968D01*
X47277430Y-55835831D01*
X47308500Y-55679630D01*
X47308500Y-55520370D01*
X47277430Y-55364169D01*
X47216483Y-55217032D01*
X47203565Y-55197699D01*
X47128004Y-55084612D01*
X47127998Y-55084605D01*
X47015394Y-54972001D01*
X47015387Y-54971995D01*
X46882969Y-54883517D01*
X46735831Y-54822570D01*
X46735823Y-54822568D01*
X46579634Y-54791500D01*
X46579630Y-54791500D01*
X46420370Y-54791500D01*
X46420365Y-54791500D01*
X46264176Y-54822568D01*
X46264168Y-54822570D01*
X46117030Y-54883517D01*
X45984612Y-54971995D01*
X45984605Y-54972001D01*
X45872001Y-55084605D01*
X45871995Y-55084612D01*
X45783517Y-55217030D01*
X45722570Y-55364168D01*
X45722568Y-55364176D01*
X45691500Y-55520365D01*
X45691500Y-55679634D01*
X45722568Y-55835823D01*
X45722570Y-55835831D01*
X45783515Y-55982966D01*
X45845603Y-56075887D01*
X45866480Y-56142564D01*
X45866500Y-56144777D01*
X45866500Y-59286233D01*
X45846815Y-59353272D01*
X45830181Y-59373914D01*
X44737262Y-60466832D01*
X44675939Y-60500317D01*
X44673772Y-60500768D01*
X44564176Y-60522568D01*
X44564168Y-60522570D01*
X44417030Y-60583517D01*
X44284612Y-60671995D01*
X44284605Y-60672001D01*
X44245181Y-60711426D01*
X44183858Y-60744911D01*
X44114166Y-60739927D01*
X44058233Y-60698055D01*
X44033816Y-60632591D01*
X44033500Y-60623745D01*
X44033500Y-59944777D01*
X44053185Y-59877738D01*
X44054397Y-59875887D01*
X44094068Y-59816515D01*
X44116483Y-59782968D01*
X44177430Y-59635831D01*
X44208500Y-59479630D01*
X44208500Y-59320370D01*
X44177430Y-59164169D01*
X44142939Y-59080901D01*
X44133500Y-59033448D01*
X44133500Y-55344777D01*
X44153185Y-55277738D01*
X44154397Y-55275887D01*
X44193722Y-55217032D01*
X44216483Y-55182968D01*
X44277430Y-55035831D01*
X44308500Y-54879630D01*
X44308500Y-54720370D01*
X44277430Y-54564169D01*
X44216483Y-54417032D01*
X44210781Y-54408499D01*
X44128004Y-54284612D01*
X44127998Y-54284605D01*
X44015394Y-54172001D01*
X44015387Y-54171995D01*
X43882969Y-54083517D01*
X43735831Y-54022570D01*
X43735823Y-54022568D01*
X43579634Y-53991500D01*
X43579630Y-53991500D01*
X43420370Y-53991500D01*
X43420365Y-53991500D01*
X43264176Y-54022568D01*
X43264168Y-54022570D01*
X43117030Y-54083517D01*
X42984612Y-54171995D01*
X42984605Y-54172001D01*
X42872001Y-54284605D01*
X42871995Y-54284612D01*
X42783517Y-54417030D01*
X42722570Y-54564168D01*
X42722568Y-54564176D01*
X42691500Y-54720365D01*
X42691500Y-54879634D01*
X42722568Y-55035823D01*
X42722570Y-55035831D01*
X42783515Y-55182966D01*
X42845603Y-55275887D01*
X42866480Y-55342564D01*
X42866500Y-55344777D01*
X42866500Y-58738745D01*
X42846815Y-58805784D01*
X42830181Y-58826426D01*
X42772001Y-58884605D01*
X42771995Y-58884612D01*
X42683517Y-59017030D01*
X42622570Y-59164168D01*
X42622568Y-59164176D01*
X42591500Y-59320365D01*
X42591500Y-59479634D01*
X42622568Y-59635823D01*
X42622570Y-59635831D01*
X42683515Y-59782966D01*
X42745603Y-59875887D01*
X42766480Y-59942564D01*
X42766500Y-59944777D01*
X42766500Y-65571233D01*
X42746815Y-65638272D01*
X42694011Y-65684027D01*
X42624853Y-65693971D01*
X42561297Y-65664946D01*
X42554819Y-65658914D01*
X41669502Y-64773597D01*
X41669498Y-64773594D01*
X41565747Y-64704269D01*
X41565738Y-64704264D01*
X41450451Y-64656511D01*
X41450443Y-64656509D01*
X41328064Y-64632166D01*
X41328060Y-64632166D01*
X40699216Y-64632166D01*
X40632177Y-64612481D01*
X40586422Y-64559677D01*
X40576478Y-64490519D01*
X40605503Y-64426963D01*
X40611535Y-64420485D01*
X40633365Y-64398654D01*
X40633368Y-64398651D01*
X40702697Y-64294893D01*
X40750452Y-64179603D01*
X40774797Y-64057212D01*
X40774797Y-63932424D01*
X40774797Y-63103716D01*
X40750452Y-62981325D01*
X40702697Y-62866035D01*
X40702696Y-62866034D01*
X40702693Y-62866028D01*
X40633369Y-62762278D01*
X40624591Y-62753500D01*
X40545130Y-62674039D01*
X39616272Y-61745181D01*
X39582787Y-61683858D01*
X39587771Y-61614166D01*
X39629643Y-61558233D01*
X39695107Y-61533816D01*
X39703953Y-61533500D01*
X40884276Y-61533500D01*
X40884277Y-61533499D01*
X41006666Y-61509155D01*
X41121956Y-61461400D01*
X41225714Y-61392071D01*
X41362797Y-61254986D01*
X41424118Y-61221503D01*
X41426203Y-61221068D01*
X41535891Y-61199251D01*
X41683028Y-61138304D01*
X41815449Y-61049824D01*
X41928063Y-60937210D01*
X42016543Y-60804789D01*
X42077490Y-60657652D01*
X42108560Y-60501451D01*
X42108560Y-60342191D01*
X42077490Y-60185990D01*
X42016543Y-60038853D01*
X42003868Y-60019884D01*
X41928064Y-59906433D01*
X41928058Y-59906426D01*
X41815454Y-59793822D01*
X41815447Y-59793816D01*
X41683029Y-59705338D01*
X41535891Y-59644391D01*
X41535883Y-59644389D01*
X41379694Y-59613321D01*
X41379690Y-59613321D01*
X41220430Y-59613321D01*
X41220425Y-59613321D01*
X41064236Y-59644389D01*
X41064228Y-59644391D01*
X40917090Y-59705338D01*
X40784672Y-59793816D01*
X40784665Y-59793822D01*
X40672061Y-59906426D01*
X40672055Y-59906433D01*
X40583577Y-60038851D01*
X40561507Y-60092134D01*
X40522630Y-60185990D01*
X40522629Y-60185992D01*
X40520989Y-60189953D01*
X40477148Y-60244356D01*
X40410854Y-60266421D01*
X40406428Y-60266500D01*
X38644777Y-60266500D01*
X38577738Y-60246815D01*
X38575887Y-60245603D01*
X38482966Y-60183515D01*
X38335831Y-60122570D01*
X38335823Y-60122568D01*
X38179634Y-60091500D01*
X38179630Y-60091500D01*
X38020370Y-60091500D01*
X38020365Y-60091500D01*
X37864176Y-60122568D01*
X37864168Y-60122570D01*
X37717030Y-60183517D01*
X37584612Y-60271995D01*
X37584605Y-60272001D01*
X37472001Y-60384605D01*
X37471995Y-60384612D01*
X37383517Y-60517030D01*
X37322570Y-60664168D01*
X37322568Y-60664176D01*
X37297204Y-60791691D01*
X37264819Y-60853602D01*
X37204104Y-60888176D01*
X37175587Y-60891500D01*
X36038766Y-60891500D01*
X35971727Y-60871815D01*
X35951085Y-60855181D01*
X35045668Y-59949764D01*
X35012183Y-59888441D01*
X35011732Y-59886274D01*
X34993341Y-59793818D01*
X34989930Y-59776669D01*
X34928983Y-59629532D01*
X34926616Y-59625990D01*
X34840504Y-59497112D01*
X34840498Y-59497105D01*
X34727894Y-59384501D01*
X34727887Y-59384495D01*
X34595469Y-59296017D01*
X34448331Y-59235070D01*
X34448323Y-59235068D01*
X34292134Y-59204000D01*
X34292130Y-59204000D01*
X34132870Y-59204000D01*
X34132865Y-59204000D01*
X33976676Y-59235068D01*
X33976668Y-59235070D01*
X33829530Y-59296017D01*
X33697112Y-59384495D01*
X33697105Y-59384501D01*
X33584501Y-59497105D01*
X33584495Y-59497112D01*
X33496017Y-59629530D01*
X33435070Y-59776668D01*
X33435068Y-59776676D01*
X33404000Y-59932865D01*
X33404000Y-60092134D01*
X33435068Y-60248323D01*
X33435070Y-60248331D01*
X33496017Y-60395469D01*
X33584495Y-60527887D01*
X33584501Y-60527894D01*
X33697105Y-60640498D01*
X33697112Y-60640504D01*
X33829530Y-60728982D01*
X33829531Y-60728982D01*
X33829532Y-60728983D01*
X33976669Y-60789930D01*
X34004612Y-60795488D01*
X34086273Y-60811732D01*
X34148184Y-60844117D01*
X34149763Y-60845668D01*
X35321163Y-62017068D01*
X35321167Y-62017071D01*
X35424918Y-62086396D01*
X35424924Y-62086399D01*
X35424925Y-62086400D01*
X35540215Y-62134155D01*
X35662601Y-62158499D01*
X35662605Y-62158500D01*
X35662606Y-62158500D01*
X35787394Y-62158500D01*
X38186421Y-62158500D01*
X38253460Y-62178185D01*
X38274102Y-62194819D01*
X38659096Y-62579813D01*
X38692581Y-62641136D01*
X38687597Y-62710828D01*
X38645725Y-62766761D01*
X38580261Y-62791178D01*
X38571415Y-62791494D01*
X28038760Y-62791494D01*
X27971721Y-62771809D01*
X27951079Y-62755175D01*
X25133168Y-59937264D01*
X25099683Y-59875941D01*
X25099232Y-59873774D01*
X25083327Y-59793816D01*
X25077430Y-59764169D01*
X25016483Y-59617032D01*
X25014003Y-59613321D01*
X24928004Y-59484612D01*
X24927998Y-59484605D01*
X24815394Y-59372001D01*
X24815387Y-59371995D01*
X24682969Y-59283517D01*
X24535831Y-59222570D01*
X24535823Y-59222568D01*
X24379634Y-59191500D01*
X24379630Y-59191500D01*
X24220370Y-59191500D01*
X24220365Y-59191500D01*
X24064176Y-59222568D01*
X24064168Y-59222570D01*
X23917030Y-59283517D01*
X23784612Y-59371995D01*
X23784605Y-59372001D01*
X23672001Y-59484605D01*
X23671995Y-59484612D01*
X23583517Y-59617030D01*
X23522570Y-59764168D01*
X23522568Y-59764176D01*
X23491500Y-59920365D01*
X500Y-59920365D01*
X500Y-52372844D01*
X76300000Y-52372844D01*
X76306401Y-52432372D01*
X76306403Y-52432379D01*
X76356645Y-52567086D01*
X76356649Y-52567093D01*
X76442809Y-52682187D01*
X76442812Y-52682190D01*
X76557906Y-52768350D01*
X76557913Y-52768354D01*
X76692620Y-52818596D01*
X76692627Y-52818598D01*
X76752155Y-52824999D01*
X76752172Y-52825000D01*
X77050000Y-52825000D01*
X77550000Y-52825000D01*
X77847828Y-52825000D01*
X77847844Y-52824999D01*
X77907372Y-52818598D01*
X77907379Y-52818596D01*
X78042086Y-52768354D01*
X78042093Y-52768350D01*
X78157187Y-52682190D01*
X78157190Y-52682187D01*
X78243350Y-52567093D01*
X78243354Y-52567086D01*
X78293596Y-52432379D01*
X78293598Y-52432372D01*
X78299999Y-52372844D01*
X82300000Y-52372844D01*
X82306401Y-52432372D01*
X82306403Y-52432379D01*
X82356645Y-52567086D01*
X82356649Y-52567093D01*
X82442809Y-52682187D01*
X82442812Y-52682190D01*
X82557906Y-52768350D01*
X82557913Y-52768354D01*
X82692620Y-52818596D01*
X82692627Y-52818598D01*
X82752155Y-52824999D01*
X82752172Y-52825000D01*
X83050000Y-52825000D01*
X83550000Y-52825000D01*
X83847828Y-52825000D01*
X83847844Y-52824999D01*
X83907372Y-52818598D01*
X83907379Y-52818596D01*
X84042086Y-52768354D01*
X84042093Y-52768350D01*
X84157187Y-52682190D01*
X84157190Y-52682187D01*
X84243350Y-52567093D01*
X84243354Y-52567086D01*
X84293596Y-52432379D01*
X84293598Y-52432372D01*
X84299999Y-52372844D01*
X84300000Y-52372827D01*
X84300000Y-52200000D01*
X83550000Y-52200000D01*
X83550000Y-52825000D01*
X83050000Y-52825000D01*
X83050000Y-52200000D01*
X82300000Y-52200000D01*
X82300000Y-52372844D01*
X78299999Y-52372844D01*
X78300000Y-52372827D01*
X78300000Y-52200000D01*
X77550000Y-52200000D01*
X77550000Y-52825000D01*
X77050000Y-52825000D01*
X77050000Y-52200000D01*
X76300000Y-52200000D01*
X76300000Y-52372844D01*
X500Y-52372844D01*
X500Y-51527155D01*
X76300000Y-51527155D01*
X76300000Y-51700000D01*
X77050000Y-51700000D01*
X77550000Y-51700000D01*
X78300000Y-51700000D01*
X78300000Y-51527172D01*
X78299999Y-51527155D01*
X82300000Y-51527155D01*
X82300000Y-51700000D01*
X83050000Y-51700000D01*
X83050000Y-51075000D01*
X82752155Y-51075000D01*
X82692627Y-51081401D01*
X82692620Y-51081403D01*
X82557913Y-51131645D01*
X82557906Y-51131649D01*
X82442812Y-51217809D01*
X82442809Y-51217812D01*
X82356649Y-51332906D01*
X82356645Y-51332913D01*
X82306403Y-51467620D01*
X82306401Y-51467627D01*
X82300000Y-51527155D01*
X78299999Y-51527155D01*
X78293598Y-51467627D01*
X78293596Y-51467620D01*
X78243354Y-51332913D01*
X78243350Y-51332906D01*
X78157190Y-51217812D01*
X78157187Y-51217809D01*
X78042093Y-51131649D01*
X78042086Y-51131645D01*
X77907379Y-51081403D01*
X77907372Y-51081401D01*
X77847844Y-51075000D01*
X77550000Y-51075000D01*
X77550000Y-51700000D01*
X77050000Y-51700000D01*
X77050000Y-51075000D01*
X76752155Y-51075000D01*
X76692627Y-51081401D01*
X76692620Y-51081403D01*
X76557913Y-51131645D01*
X76557906Y-51131649D01*
X76442812Y-51217809D01*
X76442809Y-51217812D01*
X76356649Y-51332906D01*
X76356645Y-51332913D01*
X76306403Y-51467620D01*
X76306401Y-51467627D01*
X76300000Y-51527155D01*
X500Y-51527155D01*
X500Y-43172844D01*
X76300000Y-43172844D01*
X76306401Y-43232372D01*
X76306403Y-43232379D01*
X76356645Y-43367086D01*
X76356649Y-43367093D01*
X76442809Y-43482187D01*
X76442812Y-43482190D01*
X76557906Y-43568350D01*
X76557913Y-43568354D01*
X76692620Y-43618596D01*
X76692627Y-43618598D01*
X76752155Y-43624999D01*
X76752172Y-43625000D01*
X77050000Y-43625000D01*
X77550000Y-43625000D01*
X77847828Y-43625000D01*
X77847844Y-43624999D01*
X77907372Y-43618598D01*
X77907379Y-43618596D01*
X78042086Y-43568354D01*
X78042093Y-43568350D01*
X78157187Y-43482190D01*
X78157190Y-43482187D01*
X78243350Y-43367093D01*
X78243354Y-43367086D01*
X78293596Y-43232379D01*
X78293598Y-43232372D01*
X78299999Y-43172844D01*
X78300000Y-43172827D01*
X78300000Y-43000000D01*
X77550000Y-43000000D01*
X77550000Y-43625000D01*
X77050000Y-43625000D01*
X77050000Y-43000000D01*
X76300000Y-43000000D01*
X76300000Y-43172844D01*
X500Y-43172844D01*
X500Y-42327155D01*
X76300000Y-42327155D01*
X76300000Y-42500000D01*
X77050000Y-42500000D01*
X77550000Y-42500000D01*
X78300000Y-42500000D01*
X78300000Y-42327172D01*
X78299999Y-42327155D01*
X78293598Y-42267627D01*
X78293596Y-42267620D01*
X78243354Y-42132913D01*
X78243350Y-42132906D01*
X78157190Y-42017812D01*
X78157187Y-42017809D01*
X78042093Y-41931649D01*
X78042086Y-41931645D01*
X77907379Y-41881403D01*
X77907372Y-41881401D01*
X77847844Y-41875000D01*
X77550000Y-41875000D01*
X77550000Y-42500000D01*
X77050000Y-42500000D01*
X77050000Y-41875000D01*
X76752155Y-41875000D01*
X76692627Y-41881401D01*
X76692620Y-41881403D01*
X76557913Y-41931645D01*
X76557906Y-41931649D01*
X76442812Y-42017809D01*
X76442809Y-42017812D01*
X76356649Y-42132906D01*
X76356645Y-42132913D01*
X76306403Y-42267620D01*
X76306401Y-42267627D01*
X76300000Y-42327155D01*
X500Y-42327155D01*
X500Y-38626345D01*
X76291500Y-38626345D01*
X76291500Y-39473654D01*
X76298011Y-39534202D01*
X76298011Y-39534204D01*
X76349111Y-39671204D01*
X76436739Y-39788261D01*
X76553796Y-39875889D01*
X76690799Y-39926989D01*
X76718050Y-39929918D01*
X76751345Y-39933499D01*
X76751362Y-39933500D01*
X77848638Y-39933500D01*
X77848654Y-39933499D01*
X77875692Y-39930591D01*
X77909201Y-39926989D01*
X78046204Y-39875889D01*
X78163261Y-39788261D01*
X78204487Y-39733188D01*
X78260421Y-39691318D01*
X78303754Y-39683500D01*
X78636234Y-39683500D01*
X78703273Y-39703185D01*
X78723915Y-39719819D01*
X79630181Y-40626085D01*
X79663666Y-40687408D01*
X79666500Y-40713766D01*
X79666500Y-43787398D01*
X79690843Y-43909777D01*
X79690845Y-43909785D01*
X79738598Y-44025072D01*
X79738603Y-44025081D01*
X79807928Y-44128832D01*
X79807931Y-44128836D01*
X81345429Y-45666333D01*
X81426596Y-45747500D01*
X81433668Y-45754572D01*
X81537418Y-45823896D01*
X81537424Y-45823899D01*
X81537425Y-45823900D01*
X81652715Y-45871655D01*
X81775101Y-45895999D01*
X81775105Y-45896000D01*
X81775106Y-45896000D01*
X84048734Y-45896000D01*
X84115773Y-45915685D01*
X84136415Y-45932319D01*
X88367681Y-50163585D01*
X88401166Y-50224908D01*
X88404000Y-50251266D01*
X88404000Y-52524898D01*
X88428343Y-52647277D01*
X88428345Y-52647285D01*
X88476098Y-52762572D01*
X88476103Y-52762581D01*
X88545428Y-52866332D01*
X88545431Y-52866336D01*
X90080181Y-54401085D01*
X90113666Y-54462408D01*
X90116500Y-54488766D01*
X90116500Y-55049542D01*
X90131091Y-55197699D01*
X90184419Y-55373497D01*
X90185042Y-55443364D01*
X90147794Y-55502477D01*
X90084500Y-55532068D01*
X90015255Y-55522742D01*
X89978077Y-55497173D01*
X83988836Y-49507931D01*
X83988832Y-49507928D01*
X83885081Y-49438603D01*
X83885072Y-49438598D01*
X83769785Y-49390845D01*
X83769777Y-49390843D01*
X83710827Y-49379117D01*
X83648916Y-49346732D01*
X83614342Y-49286017D01*
X83618081Y-49216247D01*
X83658948Y-49159575D01*
X83723966Y-49133994D01*
X83735018Y-49133500D01*
X83848638Y-49133500D01*
X83848654Y-49133499D01*
X83875692Y-49130591D01*
X83909201Y-49126989D01*
X83910998Y-49126319D01*
X83937371Y-49116482D01*
X84046204Y-49075889D01*
X84163261Y-48988261D01*
X84250889Y-48871204D01*
X84301989Y-48734201D01*
X84305591Y-48700692D01*
X84308499Y-48673654D01*
X84308500Y-48673637D01*
X84308500Y-47826362D01*
X84308499Y-47826345D01*
X84305157Y-47795270D01*
X84301989Y-47765799D01*
X84250889Y-47628796D01*
X84163261Y-47511739D01*
X84046204Y-47424111D01*
X83909203Y-47373011D01*
X83848654Y-47366500D01*
X83848638Y-47366500D01*
X82751362Y-47366500D01*
X82751345Y-47366500D01*
X82690797Y-47373011D01*
X82690795Y-47373011D01*
X82553795Y-47424111D01*
X82436739Y-47511739D01*
X82349111Y-47628795D01*
X82298011Y-47765795D01*
X82298011Y-47765797D01*
X82291500Y-47826345D01*
X82291500Y-48673654D01*
X82298011Y-48734202D01*
X82298011Y-48734204D01*
X82325723Y-48808500D01*
X82349111Y-48871204D01*
X82436739Y-48988261D01*
X82553796Y-49075889D01*
X82621442Y-49101120D01*
X82689001Y-49126319D01*
X82744934Y-49168190D01*
X82769350Y-49233655D01*
X82754498Y-49301928D01*
X82705092Y-49351333D01*
X82645666Y-49366500D01*
X79363767Y-49366500D01*
X79296728Y-49346815D01*
X79276086Y-49330181D01*
X78344819Y-48398914D01*
X78311334Y-48337591D01*
X78308500Y-48311233D01*
X78308500Y-47826362D01*
X78308499Y-47826345D01*
X78305157Y-47795270D01*
X78301989Y-47765799D01*
X78250889Y-47628796D01*
X78163261Y-47511739D01*
X78046204Y-47424111D01*
X77909203Y-47373011D01*
X77848654Y-47366500D01*
X77848638Y-47366500D01*
X76751362Y-47366500D01*
X76751345Y-47366500D01*
X76690797Y-47373011D01*
X76690795Y-47373011D01*
X76553795Y-47424111D01*
X76436739Y-47511739D01*
X76349111Y-47628795D01*
X76298011Y-47765795D01*
X76298011Y-47765797D01*
X76291500Y-47826345D01*
X76291500Y-48673654D01*
X76298011Y-48734202D01*
X76298011Y-48734204D01*
X76325723Y-48808500D01*
X76349111Y-48871204D01*
X76436739Y-48988261D01*
X76553796Y-49075889D01*
X76662629Y-49116482D01*
X76689002Y-49126319D01*
X76690799Y-49126989D01*
X76718050Y-49129918D01*
X76751345Y-49133499D01*
X76751362Y-49133500D01*
X77236234Y-49133500D01*
X77303273Y-49153185D01*
X77323915Y-49169819D01*
X78646163Y-50492069D01*
X78646167Y-50492072D01*
X78749921Y-50561399D01*
X78749923Y-50561399D01*
X78749925Y-50561401D01*
X78831447Y-50595168D01*
X78865215Y-50609155D01*
X78865217Y-50609155D01*
X78865222Y-50609157D01*
X78987601Y-50633499D01*
X78987605Y-50633500D01*
X78987606Y-50633500D01*
X83271234Y-50633500D01*
X83338273Y-50653185D01*
X83358915Y-50669819D01*
X83569367Y-50880271D01*
X83602852Y-50941594D01*
X83597868Y-51011286D01*
X83569367Y-51055633D01*
X83550000Y-51075000D01*
X83550000Y-51700000D01*
X84337734Y-51700000D01*
X84404773Y-51719685D01*
X84425415Y-51736319D01*
X90080181Y-57391085D01*
X90113666Y-57452408D01*
X90116500Y-57478765D01*
X90116500Y-57589542D01*
X90131091Y-57737699D01*
X90184419Y-57913496D01*
X90185042Y-57983363D01*
X90147794Y-58042476D01*
X90084500Y-58072066D01*
X90015255Y-58062741D01*
X89978077Y-58037172D01*
X87948836Y-56007931D01*
X87948832Y-56007928D01*
X87845081Y-55938603D01*
X87845072Y-55938598D01*
X87729785Y-55890845D01*
X87729777Y-55890843D01*
X87607398Y-55866500D01*
X87607394Y-55866500D01*
X84303754Y-55866500D01*
X84236715Y-55846815D01*
X84204487Y-55816811D01*
X84163261Y-55761739D01*
X84046204Y-55674111D01*
X84000838Y-55657190D01*
X83909203Y-55623011D01*
X83848654Y-55616500D01*
X83848638Y-55616500D01*
X82751362Y-55616500D01*
X82751345Y-55616500D01*
X82690797Y-55623011D01*
X82690795Y-55623011D01*
X82553795Y-55674111D01*
X82436739Y-55761739D01*
X82349111Y-55878795D01*
X82298011Y-56015795D01*
X82298011Y-56015797D01*
X82291500Y-56076345D01*
X82291500Y-56923654D01*
X82298011Y-56984202D01*
X82298011Y-56984204D01*
X82349111Y-57121204D01*
X82436739Y-57238261D01*
X82553796Y-57325889D01*
X82690799Y-57376989D01*
X82718050Y-57379918D01*
X82751345Y-57383499D01*
X82751362Y-57383500D01*
X83848638Y-57383500D01*
X83848654Y-57383499D01*
X83875692Y-57380591D01*
X83909201Y-57376989D01*
X84046204Y-57325889D01*
X84163261Y-57238261D01*
X84204487Y-57183188D01*
X84260421Y-57141318D01*
X84303754Y-57133500D01*
X87231234Y-57133500D01*
X87298273Y-57153185D01*
X87318915Y-57169819D01*
X90080181Y-59931086D01*
X90113666Y-59992409D01*
X90116500Y-60018766D01*
X90116500Y-60129542D01*
X90131091Y-60277699D01*
X90188760Y-60467808D01*
X90282401Y-60642998D01*
X90282405Y-60643005D01*
X90387723Y-60771335D01*
X90415036Y-60835645D01*
X90403245Y-60904513D01*
X90387723Y-60928665D01*
X90282405Y-61056994D01*
X90282401Y-61057001D01*
X90188760Y-61232191D01*
X90138313Y-61398495D01*
X90100015Y-61456934D01*
X90036203Y-61485390D01*
X90019652Y-61486500D01*
X85367601Y-61486500D01*
X85245222Y-61510843D01*
X85245214Y-61510845D01*
X85129927Y-61558598D01*
X85129918Y-61558603D01*
X85026167Y-61627928D01*
X85026163Y-61627931D01*
X83123915Y-63530181D01*
X83062592Y-63563666D01*
X83036234Y-63566500D01*
X82751345Y-63566500D01*
X82690797Y-63573011D01*
X82690795Y-63573011D01*
X82553795Y-63624111D01*
X82436739Y-63711739D01*
X82349111Y-63828795D01*
X82298011Y-63965795D01*
X82298011Y-63965797D01*
X82291500Y-64026345D01*
X82291500Y-64873654D01*
X82298011Y-64934202D01*
X82298011Y-64934204D01*
X82349111Y-65071204D01*
X82436739Y-65188261D01*
X82553796Y-65275889D01*
X82690799Y-65326989D01*
X82718050Y-65329918D01*
X82751345Y-65333499D01*
X82751362Y-65333500D01*
X83848638Y-65333500D01*
X83848654Y-65333499D01*
X83875692Y-65330591D01*
X83909201Y-65326989D01*
X84046204Y-65275889D01*
X84163261Y-65188261D01*
X84250889Y-65071204D01*
X84301989Y-64934201D01*
X84305591Y-64900692D01*
X84308499Y-64873654D01*
X84308500Y-64873637D01*
X84308500Y-64188766D01*
X84328185Y-64121727D01*
X84344819Y-64101085D01*
X85656085Y-62789819D01*
X85717408Y-62756334D01*
X85743766Y-62753500D01*
X90019652Y-62753500D01*
X90086691Y-62773185D01*
X90132446Y-62825989D01*
X90138313Y-62841505D01*
X90188760Y-63007808D01*
X90282401Y-63182998D01*
X90282405Y-63183005D01*
X90408431Y-63336568D01*
X90561994Y-63462594D01*
X90562001Y-63462598D01*
X90737191Y-63556239D01*
X90737193Y-63556239D01*
X90737196Y-63556241D01*
X90927299Y-63613908D01*
X90927298Y-63613908D01*
X90937766Y-63614938D01*
X91075453Y-63628500D01*
X92924546Y-63628499D01*
X93072701Y-63613908D01*
X93262804Y-63556241D01*
X93438004Y-63462595D01*
X93591568Y-63336568D01*
X93717595Y-63183004D01*
X93808078Y-63013721D01*
X93811239Y-63007808D01*
X93811239Y-63007807D01*
X93811241Y-63007804D01*
X93868908Y-62817701D01*
X93883500Y-62669547D01*
X93883499Y-61570454D01*
X93868908Y-61422299D01*
X93811241Y-61232196D01*
X93811239Y-61232193D01*
X93811239Y-61232191D01*
X93717598Y-61057001D01*
X93717594Y-61056994D01*
X93615169Y-60932190D01*
X93612275Y-60928664D01*
X93584963Y-60864355D01*
X93596754Y-60795488D01*
X93612276Y-60771335D01*
X93647034Y-60728983D01*
X93717595Y-60643004D01*
X93793256Y-60501451D01*
X93811239Y-60467808D01*
X93811239Y-60467807D01*
X93811241Y-60467804D01*
X93868908Y-60277701D01*
X93873500Y-60231083D01*
X97553500Y-60231083D01*
X97553500Y-60231084D01*
X97553500Y-60444916D01*
X97562455Y-60501455D01*
X97586951Y-60656117D01*
X97653026Y-60859480D01*
X97653027Y-60859483D01*
X97748131Y-61046132D01*
X97750106Y-61050009D01*
X97875794Y-61223004D01*
X98026996Y-61374206D01*
X98147010Y-61461401D01*
X98199991Y-61499894D01*
X98203873Y-61502273D01*
X98250748Y-61554086D01*
X98262169Y-61623016D01*
X98234512Y-61687178D01*
X98203873Y-61713727D01*
X98199991Y-61716105D01*
X98026993Y-61841796D01*
X97875796Y-61992993D01*
X97750106Y-62165990D01*
X97653027Y-62356516D01*
X97653026Y-62356519D01*
X97586951Y-62559882D01*
X97568870Y-62674040D01*
X97553500Y-62771084D01*
X97553500Y-62984916D01*
X97570103Y-63089743D01*
X97586951Y-63196117D01*
X97653026Y-63399480D01*
X97653027Y-63399483D01*
X97741445Y-63573011D01*
X97750106Y-63590009D01*
X97875794Y-63763004D01*
X98026996Y-63914206D01*
X98199991Y-64039894D01*
X98293438Y-64087507D01*
X98390516Y-64136972D01*
X98390519Y-64136973D01*
X98492200Y-64170010D01*
X98593884Y-64203049D01*
X98805084Y-64236500D01*
X98805085Y-64236500D01*
X99018915Y-64236500D01*
X99018916Y-64236500D01*
X99230116Y-64203049D01*
X99433483Y-64136972D01*
X99624009Y-64039894D01*
X99797004Y-63914206D01*
X99948206Y-63763004D01*
X100073894Y-63590009D01*
X100073898Y-63590002D01*
X100076267Y-63586136D01*
X100128075Y-63539257D01*
X100197004Y-63527829D01*
X100261169Y-63555481D01*
X100287723Y-63586123D01*
X100290100Y-63590002D01*
X100290105Y-63590009D01*
X100290106Y-63590010D01*
X100415794Y-63763005D01*
X100566996Y-63914207D01*
X100739991Y-64039895D01*
X100833438Y-64087508D01*
X100930516Y-64136973D01*
X100930519Y-64136974D01*
X101032200Y-64170011D01*
X101133884Y-64203050D01*
X101345084Y-64236501D01*
X101345085Y-64236501D01*
X101558915Y-64236501D01*
X101558916Y-64236501D01*
X101770116Y-64203050D01*
X101966146Y-64139356D01*
X101973480Y-64136974D01*
X101973483Y-64136973D01*
X102003405Y-64121727D01*
X102164009Y-64039895D01*
X102337004Y-63914207D01*
X102488206Y-63763005D01*
X102613894Y-63590010D01*
X102710972Y-63399484D01*
X102777049Y-63196117D01*
X102810500Y-62984917D01*
X102810500Y-62771085D01*
X102777049Y-62559885D01*
X102710972Y-62356519D01*
X102710972Y-62356517D01*
X102628582Y-62194819D01*
X102613894Y-62165992D01*
X102488206Y-61992997D01*
X102337004Y-61841795D01*
X102204026Y-61745181D01*
X102164004Y-61716103D01*
X102160132Y-61713731D01*
X102113253Y-61661923D01*
X102101826Y-61592994D01*
X102129479Y-61528829D01*
X102160132Y-61502269D01*
X102164004Y-61499896D01*
X102164006Y-61499894D01*
X102164009Y-61499893D01*
X102337004Y-61374205D01*
X102488206Y-61223003D01*
X102613894Y-61050008D01*
X102710972Y-60859482D01*
X102777049Y-60656115D01*
X102810500Y-60444915D01*
X102810500Y-60231083D01*
X102777049Y-60019883D01*
X102734342Y-59888441D01*
X102710973Y-59816518D01*
X102710972Y-59816515D01*
X102645575Y-59688167D01*
X102613894Y-59625990D01*
X102488206Y-59452995D01*
X102337004Y-59301793D01*
X102164009Y-59176105D01*
X102140597Y-59164176D01*
X101973483Y-59079026D01*
X101973480Y-59079025D01*
X101770117Y-59012950D01*
X101634687Y-58991500D01*
X101558916Y-58979499D01*
X101345084Y-58979499D01*
X101287206Y-58988666D01*
X101133882Y-59012950D01*
X100930519Y-59079025D01*
X100930516Y-59079026D01*
X100739990Y-59176105D01*
X100566993Y-59301795D01*
X100415796Y-59452992D01*
X100290103Y-59625994D01*
X100287720Y-59629882D01*
X100235903Y-59676752D01*
X100166972Y-59688167D01*
X100102812Y-59660503D01*
X100076270Y-59629869D01*
X100073892Y-59625988D01*
X100042591Y-59582906D01*
X99948206Y-59452996D01*
X99797004Y-59301794D01*
X99624009Y-59176106D01*
X99600595Y-59164176D01*
X99433483Y-59079027D01*
X99433480Y-59079026D01*
X99230117Y-59012951D01*
X99124516Y-58996225D01*
X99018916Y-58979500D01*
X98805084Y-58979500D01*
X98747213Y-58988666D01*
X98593882Y-59012951D01*
X98390519Y-59079026D01*
X98390516Y-59079027D01*
X98199990Y-59176106D01*
X98026993Y-59301796D01*
X97875796Y-59452993D01*
X97750106Y-59625990D01*
X97653027Y-59816516D01*
X97653026Y-59816519D01*
X97586951Y-60019882D01*
X97553500Y-60231083D01*
X93873500Y-60231083D01*
X93883500Y-60129547D01*
X93883499Y-59030454D01*
X93868908Y-58882299D01*
X93811241Y-58692196D01*
X93811239Y-58692193D01*
X93811239Y-58692191D01*
X93717598Y-58517001D01*
X93717594Y-58516994D01*
X93617388Y-58394894D01*
X93612275Y-58388664D01*
X93584963Y-58324355D01*
X93596754Y-58255488D01*
X93612276Y-58231335D01*
X93717594Y-58103005D01*
X93717598Y-58102998D01*
X93734132Y-58072066D01*
X93811241Y-57927804D01*
X93868908Y-57737701D01*
X93883500Y-57589547D01*
X93883499Y-56490454D01*
X93868908Y-56342299D01*
X93811241Y-56152196D01*
X93811239Y-56152193D01*
X93811239Y-56152191D01*
X93717598Y-55977001D01*
X93717594Y-55976994D01*
X93612276Y-55848665D01*
X93584963Y-55784355D01*
X93596754Y-55715488D01*
X93612276Y-55691335D01*
X93617794Y-55684612D01*
X93717595Y-55563004D01*
X93808234Y-55393430D01*
X93811239Y-55387808D01*
X93811239Y-55387807D01*
X93811241Y-55387804D01*
X93868908Y-55197701D01*
X93883500Y-55049547D01*
X93883499Y-53950454D01*
X93868908Y-53802299D01*
X93811241Y-53612196D01*
X93811239Y-53612193D01*
X93811239Y-53612191D01*
X93717598Y-53437001D01*
X93717594Y-53436994D01*
X93612276Y-53308665D01*
X93584963Y-53244355D01*
X93596754Y-53175488D01*
X93612276Y-53151335D01*
X93647899Y-53107929D01*
X93717595Y-53023004D01*
X93792153Y-52883515D01*
X93811239Y-52847808D01*
X93811239Y-52847807D01*
X93811241Y-52847804D01*
X93868908Y-52657701D01*
X93883500Y-52509547D01*
X93883499Y-51410454D01*
X93868908Y-51262299D01*
X93811241Y-51072196D01*
X93811239Y-51072193D01*
X93811239Y-51072191D01*
X93717598Y-50897001D01*
X93717594Y-50896994D01*
X93612276Y-50768665D01*
X93584963Y-50704355D01*
X93596754Y-50635488D01*
X93612276Y-50611335D01*
X93614064Y-50609157D01*
X93717595Y-50483004D01*
X93811241Y-50307804D01*
X93868908Y-50117701D01*
X93883500Y-49969547D01*
X93883499Y-48870454D01*
X93868908Y-48722299D01*
X93811241Y-48532196D01*
X93811239Y-48532193D01*
X93811239Y-48532191D01*
X93717598Y-48357001D01*
X93717594Y-48356994D01*
X93612276Y-48228665D01*
X93584963Y-48164355D01*
X93596754Y-48095488D01*
X93612276Y-48071335D01*
X93656842Y-48017032D01*
X93717595Y-47943004D01*
X93811241Y-47767804D01*
X93868908Y-47577701D01*
X93883500Y-47429547D01*
X93883499Y-46330454D01*
X93868908Y-46182299D01*
X93811241Y-45992196D01*
X93811239Y-45992193D01*
X93811239Y-45992191D01*
X93717598Y-45817001D01*
X93717594Y-45816994D01*
X93591568Y-45663431D01*
X93438005Y-45537405D01*
X93437998Y-45537401D01*
X93262808Y-45443760D01*
X93167752Y-45414925D01*
X93072701Y-45386092D01*
X93072699Y-45386091D01*
X93072701Y-45386091D01*
X92966415Y-45375623D01*
X92924547Y-45371500D01*
X92924543Y-45371500D01*
X91075457Y-45371500D01*
X90927300Y-45386091D01*
X90737191Y-45443760D01*
X90562001Y-45537401D01*
X90561994Y-45537405D01*
X90408431Y-45663431D01*
X90282405Y-45816994D01*
X90282401Y-45817001D01*
X90188760Y-45992191D01*
X90131091Y-46182300D01*
X90116500Y-46330456D01*
X90116500Y-47429542D01*
X90131091Y-47577699D01*
X90188760Y-47767808D01*
X90282401Y-47942998D01*
X90282405Y-47943005D01*
X90387723Y-48071335D01*
X90415036Y-48135645D01*
X90403245Y-48204513D01*
X90387723Y-48228665D01*
X90282405Y-48356994D01*
X90282401Y-48357001D01*
X90188760Y-48532191D01*
X90131091Y-48722300D01*
X90116500Y-48870456D01*
X90116500Y-49969542D01*
X90131091Y-50117699D01*
X90188760Y-50307808D01*
X90282401Y-50482998D01*
X90282405Y-50483005D01*
X90387723Y-50611335D01*
X90415036Y-50675645D01*
X90403245Y-50744513D01*
X90387723Y-50768665D01*
X90282405Y-50896994D01*
X90282401Y-50897001D01*
X90188760Y-51072191D01*
X90131091Y-51262300D01*
X90116500Y-51410456D01*
X90116500Y-52346234D01*
X90096815Y-52413273D01*
X90044011Y-52459028D01*
X89974853Y-52468972D01*
X89911297Y-52439947D01*
X89904819Y-52433915D01*
X89707319Y-52236415D01*
X89673834Y-52175092D01*
X89671000Y-52148734D01*
X89671000Y-49875105D01*
X89670999Y-49875101D01*
X89646656Y-49752722D01*
X89646655Y-49752715D01*
X89598900Y-49637425D01*
X89598899Y-49637424D01*
X89598896Y-49637418D01*
X89529572Y-49533668D01*
X89503832Y-49507928D01*
X89441333Y-49445429D01*
X87322499Y-47326595D01*
X84921103Y-44925198D01*
X84836894Y-44840989D01*
X97853500Y-44840989D01*
X97853500Y-46879010D01*
X97868308Y-47010439D01*
X97868309Y-47010445D01*
X97926623Y-47177098D01*
X97926624Y-47177099D01*
X98020559Y-47326596D01*
X98145404Y-47451441D01*
X98294901Y-47545376D01*
X98461552Y-47603690D01*
X98461558Y-47603690D01*
X98461560Y-47603691D01*
X98503384Y-47608403D01*
X98592990Y-47618499D01*
X98592993Y-47618500D01*
X98592996Y-47618500D01*
X99231007Y-47618500D01*
X99231008Y-47618499D01*
X99362448Y-47603690D01*
X99529099Y-47545376D01*
X99678596Y-47451441D01*
X99803441Y-47326596D01*
X99897376Y-47177099D01*
X99955690Y-47010448D01*
X99970500Y-46879004D01*
X99970500Y-44840996D01*
X99970499Y-44840988D01*
X100393500Y-44840988D01*
X100393500Y-46879009D01*
X100408308Y-47010438D01*
X100408309Y-47010444D01*
X100466623Y-47177097D01*
X100560559Y-47326595D01*
X100685404Y-47451440D01*
X100834901Y-47545375D01*
X101001552Y-47603689D01*
X101001558Y-47603689D01*
X101001560Y-47603690D01*
X101043384Y-47608402D01*
X101132990Y-47618498D01*
X101132993Y-47618499D01*
X101132996Y-47618499D01*
X101771007Y-47618499D01*
X101771008Y-47618498D01*
X101902448Y-47603689D01*
X102069099Y-47545375D01*
X102218596Y-47451440D01*
X102343441Y-47326595D01*
X102437376Y-47177098D01*
X102495690Y-47010447D01*
X102510500Y-46879003D01*
X102510500Y-44840995D01*
X102495690Y-44709551D01*
X102437376Y-44542900D01*
X102343441Y-44393403D01*
X102218596Y-44268558D01*
X102069101Y-44174624D01*
X102069098Y-44174622D01*
X101902445Y-44116308D01*
X101902439Y-44116307D01*
X101771010Y-44101499D01*
X101771004Y-44101499D01*
X101132996Y-44101499D01*
X101132989Y-44101499D01*
X101001560Y-44116307D01*
X101001554Y-44116308D01*
X100834901Y-44174622D01*
X100685403Y-44268558D01*
X100560559Y-44393402D01*
X100466623Y-44542900D01*
X100408309Y-44709553D01*
X100408308Y-44709559D01*
X100393500Y-44840988D01*
X99970499Y-44840988D01*
X99955690Y-44709552D01*
X99897376Y-44542901D01*
X99803441Y-44393404D01*
X99678596Y-44268559D01*
X99678594Y-44268558D01*
X99529098Y-44174623D01*
X99362445Y-44116309D01*
X99362439Y-44116308D01*
X99231010Y-44101500D01*
X99231004Y-44101500D01*
X98592996Y-44101500D01*
X98592989Y-44101500D01*
X98461560Y-44116308D01*
X98461554Y-44116309D01*
X98294901Y-44174623D01*
X98145403Y-44268559D01*
X98020559Y-44393403D01*
X97926623Y-44542901D01*
X97868309Y-44709554D01*
X97868308Y-44709560D01*
X97853500Y-44840989D01*
X84836894Y-44840989D01*
X84766336Y-44770431D01*
X84766332Y-44770428D01*
X84662581Y-44701103D01*
X84662572Y-44701098D01*
X84547285Y-44653345D01*
X84547277Y-44653343D01*
X84424898Y-44629000D01*
X84424894Y-44629000D01*
X82151266Y-44629000D01*
X82084227Y-44609315D01*
X82063585Y-44592681D01*
X80969819Y-43498915D01*
X80936334Y-43437592D01*
X80933500Y-43411234D01*
X80933500Y-43172844D01*
X82300000Y-43172844D01*
X82306401Y-43232372D01*
X82306403Y-43232379D01*
X82356645Y-43367086D01*
X82356649Y-43367093D01*
X82442809Y-43482187D01*
X82442812Y-43482190D01*
X82557906Y-43568350D01*
X82557913Y-43568354D01*
X82692620Y-43618596D01*
X82692627Y-43618598D01*
X82752155Y-43624999D01*
X82752172Y-43625000D01*
X83050000Y-43625000D01*
X83550000Y-43625000D01*
X83847828Y-43625000D01*
X83847844Y-43624999D01*
X83907372Y-43618598D01*
X83907379Y-43618596D01*
X84042086Y-43568354D01*
X84042093Y-43568350D01*
X84157187Y-43482190D01*
X84157190Y-43482187D01*
X84243350Y-43367093D01*
X84243354Y-43367086D01*
X84293596Y-43232379D01*
X84293598Y-43232372D01*
X84299999Y-43172844D01*
X84300000Y-43172827D01*
X84300000Y-43000000D01*
X83550000Y-43000000D01*
X83550000Y-43625000D01*
X83050000Y-43625000D01*
X83050000Y-43000000D01*
X82300000Y-43000000D01*
X82300000Y-43172844D01*
X80933500Y-43172844D01*
X80933500Y-41419889D01*
X82191500Y-41419889D01*
X82191500Y-41680111D01*
X82215343Y-41769096D01*
X82232969Y-41834874D01*
X82232969Y-41834875D01*
X82313076Y-41973624D01*
X82313081Y-41973630D01*
X82331878Y-41992427D01*
X82365363Y-42053750D01*
X82360379Y-42123442D01*
X82359282Y-42125842D01*
X82306403Y-42267620D01*
X82306401Y-42267627D01*
X82300000Y-42327155D01*
X82300000Y-42500000D01*
X84300000Y-42500000D01*
X84300000Y-42327172D01*
X84299999Y-42327155D01*
X84293598Y-42267627D01*
X84293596Y-42267620D01*
X84243354Y-42132913D01*
X84243350Y-42132906D01*
X84157190Y-42017812D01*
X84157187Y-42017809D01*
X84042093Y-41931649D01*
X84042086Y-41931645D01*
X83907379Y-41881403D01*
X83907372Y-41881401D01*
X83847844Y-41875000D01*
X83517879Y-41875000D01*
X83450840Y-41855315D01*
X83405085Y-41802511D01*
X83395141Y-41733353D01*
X83398100Y-41718920D01*
X83408500Y-41680111D01*
X83408500Y-41419889D01*
X83367032Y-41265128D01*
X83286921Y-41126372D01*
X83173628Y-41013079D01*
X83173626Y-41013078D01*
X83173624Y-41013076D01*
X83034874Y-40932969D01*
X83034873Y-40932968D01*
X83034872Y-40932968D01*
X82880111Y-40891500D01*
X82719889Y-40891500D01*
X82565128Y-40932968D01*
X82565127Y-40932968D01*
X82565125Y-40932969D01*
X82565124Y-40932969D01*
X82426375Y-41013076D01*
X82426369Y-41013081D01*
X82313081Y-41126369D01*
X82313076Y-41126375D01*
X82232969Y-41265124D01*
X82232969Y-41265125D01*
X82232968Y-41265127D01*
X82232968Y-41265128D01*
X82191500Y-41419889D01*
X80933500Y-41419889D01*
X80933500Y-40337605D01*
X80933499Y-40337601D01*
X80909156Y-40215222D01*
X80909155Y-40215215D01*
X80861400Y-40099925D01*
X80861399Y-40099924D01*
X80861396Y-40099918D01*
X80792072Y-39996168D01*
X80792071Y-39996167D01*
X80703833Y-39907929D01*
X80269541Y-39473637D01*
X79506627Y-38710722D01*
X79422250Y-38626345D01*
X82291500Y-38626345D01*
X82291500Y-39473654D01*
X82298011Y-39534202D01*
X82298011Y-39534204D01*
X82349111Y-39671204D01*
X82436739Y-39788261D01*
X82553796Y-39875889D01*
X82690799Y-39926989D01*
X82718050Y-39929918D01*
X82751345Y-39933499D01*
X82751362Y-39933500D01*
X83848638Y-39933500D01*
X83848654Y-39933499D01*
X83875692Y-39930591D01*
X83909201Y-39926989D01*
X84046204Y-39875889D01*
X84163261Y-39788261D01*
X84250889Y-39671204D01*
X84301989Y-39534201D01*
X84305591Y-39500692D01*
X84308499Y-39473654D01*
X84308500Y-39473637D01*
X84308500Y-38626362D01*
X84308499Y-38626345D01*
X84305157Y-38595270D01*
X84301989Y-38565799D01*
X84299054Y-38557931D01*
X84255382Y-38440843D01*
X84250889Y-38428796D01*
X84163261Y-38311739D01*
X84046204Y-38224111D01*
X83909203Y-38173011D01*
X83848654Y-38166500D01*
X83848638Y-38166500D01*
X82751362Y-38166500D01*
X82751345Y-38166500D01*
X82690797Y-38173011D01*
X82690795Y-38173011D01*
X82553795Y-38224111D01*
X82436739Y-38311739D01*
X82349111Y-38428795D01*
X82298011Y-38565795D01*
X82298011Y-38565797D01*
X82291500Y-38626345D01*
X79422250Y-38626345D01*
X79353836Y-38557931D01*
X79353832Y-38557928D01*
X79250081Y-38488603D01*
X79250072Y-38488598D01*
X79134785Y-38440845D01*
X79134777Y-38440843D01*
X79012398Y-38416500D01*
X79012394Y-38416500D01*
X78303754Y-38416500D01*
X78236715Y-38396815D01*
X78204487Y-38366811D01*
X78163261Y-38311739D01*
X78046204Y-38224111D01*
X77909203Y-38173011D01*
X77848654Y-38166500D01*
X77848638Y-38166500D01*
X76751362Y-38166500D01*
X76751345Y-38166500D01*
X76690797Y-38173011D01*
X76690795Y-38173011D01*
X76553795Y-38224111D01*
X76436739Y-38311739D01*
X76349111Y-38428795D01*
X76298011Y-38565795D01*
X76298011Y-38565797D01*
X76291500Y-38626345D01*
X500Y-38626345D01*
X500Y-33520365D01*
X44491500Y-33520365D01*
X44491500Y-33679634D01*
X44522568Y-33835823D01*
X44522570Y-33835831D01*
X44583517Y-33982969D01*
X44671995Y-34115387D01*
X44672001Y-34115394D01*
X44784605Y-34227998D01*
X44784612Y-34228004D01*
X44917030Y-34316482D01*
X44917031Y-34316482D01*
X44917032Y-34316483D01*
X45064169Y-34377430D01*
X45220365Y-34408499D01*
X45220369Y-34408500D01*
X45220370Y-34408500D01*
X45379631Y-34408500D01*
X45379632Y-34408499D01*
X45535831Y-34377430D01*
X45682968Y-34316483D01*
X45815389Y-34228003D01*
X45928003Y-34115389D01*
X46016483Y-33982968D01*
X46077430Y-33835831D01*
X46099231Y-33726222D01*
X46131615Y-33664315D01*
X46133110Y-33662792D01*
X47192071Y-32603833D01*
X47261400Y-32500075D01*
X47309155Y-32384785D01*
X47333500Y-32262394D01*
X47333500Y-32137606D01*
X47333500Y-27944777D01*
X47353185Y-27877738D01*
X47354397Y-27875887D01*
X47416484Y-27782966D01*
X47425408Y-27761419D01*
X47477430Y-27635831D01*
X47484040Y-27602601D01*
X57066500Y-27602601D01*
X57066500Y-29362398D01*
X57090843Y-29484777D01*
X57090845Y-29484785D01*
X57138598Y-29600072D01*
X57138603Y-29600081D01*
X57207928Y-29703832D01*
X57207931Y-29703836D01*
X58407929Y-30903833D01*
X58470928Y-30966832D01*
X58496168Y-30992072D01*
X58599918Y-31061396D01*
X58599924Y-31061399D01*
X58599925Y-31061400D01*
X58715215Y-31109155D01*
X58809971Y-31128003D01*
X58837601Y-31133499D01*
X58837605Y-31133500D01*
X58837606Y-31133500D01*
X59055223Y-31133500D01*
X59122262Y-31153185D01*
X59124113Y-31154397D01*
X59217033Y-31216484D01*
X59290600Y-31246956D01*
X59364169Y-31277430D01*
X59520365Y-31308499D01*
X59520369Y-31308500D01*
X59520370Y-31308500D01*
X59679631Y-31308500D01*
X59679632Y-31308499D01*
X59835831Y-31277430D01*
X59982968Y-31216483D01*
X60115389Y-31128003D01*
X60228003Y-31015389D01*
X60291495Y-30920365D01*
X102791500Y-30920365D01*
X102791500Y-31079634D01*
X102822568Y-31235823D01*
X102822570Y-31235831D01*
X102883517Y-31382969D01*
X102971995Y-31515387D01*
X102972001Y-31515394D01*
X103084605Y-31627998D01*
X103084612Y-31628004D01*
X103217030Y-31716482D01*
X103217031Y-31716482D01*
X103217032Y-31716483D01*
X103364169Y-31777430D01*
X103393845Y-31783332D01*
X103473773Y-31799232D01*
X103535684Y-31831617D01*
X103537263Y-31833168D01*
X104696163Y-32992068D01*
X104696167Y-32992071D01*
X104799918Y-33061396D01*
X104799924Y-33061399D01*
X104799925Y-33061400D01*
X104915215Y-33109155D01*
X105009971Y-33128003D01*
X105037601Y-33133499D01*
X105037605Y-33133500D01*
X105037606Y-33133500D01*
X105162393Y-33133500D01*
X109655223Y-33133500D01*
X109722262Y-33153185D01*
X109724113Y-33154397D01*
X109817033Y-33216484D01*
X109890600Y-33246956D01*
X109964169Y-33277430D01*
X110120365Y-33308499D01*
X110120369Y-33308500D01*
X110120370Y-33308500D01*
X110279631Y-33308500D01*
X110279632Y-33308499D01*
X110435831Y-33277430D01*
X110582968Y-33216483D01*
X110715389Y-33128003D01*
X110828003Y-33015389D01*
X110916483Y-32882968D01*
X110977430Y-32735831D01*
X111008500Y-32579630D01*
X111008500Y-32420370D01*
X110977430Y-32264169D01*
X110916483Y-32117032D01*
X110862221Y-32035823D01*
X110828004Y-31984612D01*
X110827998Y-31984605D01*
X110715394Y-31872001D01*
X110715387Y-31871995D01*
X110582969Y-31783517D01*
X110435831Y-31722570D01*
X110435823Y-31722568D01*
X110279634Y-31691500D01*
X110279630Y-31691500D01*
X110120370Y-31691500D01*
X110120365Y-31691500D01*
X109964176Y-31722568D01*
X109964168Y-31722570D01*
X109817033Y-31783515D01*
X109724113Y-31845603D01*
X109657436Y-31866480D01*
X109655223Y-31866500D01*
X105413766Y-31866500D01*
X105346727Y-31846815D01*
X105326085Y-31830181D01*
X104433168Y-30937264D01*
X104399683Y-30875941D01*
X104399232Y-30873774D01*
X104383097Y-30792661D01*
X104377430Y-30764169D01*
X104316483Y-30617032D01*
X104263413Y-30537607D01*
X104228004Y-30484612D01*
X104227998Y-30484605D01*
X104115394Y-30372001D01*
X104115387Y-30371995D01*
X103982969Y-30283517D01*
X103835831Y-30222570D01*
X103835823Y-30222568D01*
X103679634Y-30191500D01*
X103679630Y-30191500D01*
X103520370Y-30191500D01*
X103520365Y-30191500D01*
X103364176Y-30222568D01*
X103364168Y-30222570D01*
X103217030Y-30283517D01*
X103084612Y-30371995D01*
X103084605Y-30372001D01*
X102972001Y-30484605D01*
X102971995Y-30484612D01*
X102883517Y-30617030D01*
X102822570Y-30764168D01*
X102822568Y-30764176D01*
X102791500Y-30920365D01*
X60291495Y-30920365D01*
X60316483Y-30882968D01*
X60377430Y-30735831D01*
X60408500Y-30579630D01*
X60408500Y-30420370D01*
X60377430Y-30264169D01*
X60316483Y-30117032D01*
X60228003Y-29984611D01*
X60227998Y-29984605D01*
X60115394Y-29872001D01*
X60115387Y-29871995D01*
X59982969Y-29783517D01*
X59982966Y-29783515D01*
X59955312Y-29772061D01*
X59900908Y-29728220D01*
X59878843Y-29661926D01*
X59896122Y-29594227D01*
X59947259Y-29546616D01*
X60002764Y-29533500D01*
X64786234Y-29533500D01*
X64853273Y-29553185D01*
X64873915Y-29569819D01*
X65366832Y-30062736D01*
X65400317Y-30124059D01*
X65400768Y-30126226D01*
X65422568Y-30235823D01*
X65422570Y-30235831D01*
X65483517Y-30382969D01*
X65571995Y-30515387D01*
X65572001Y-30515394D01*
X65684605Y-30627998D01*
X65684612Y-30628004D01*
X65817030Y-30716482D01*
X65817031Y-30716482D01*
X65817032Y-30716483D01*
X65964169Y-30777430D01*
X66120365Y-30808499D01*
X66120369Y-30808500D01*
X66120370Y-30808500D01*
X66279631Y-30808500D01*
X66279632Y-30808499D01*
X66305191Y-30803415D01*
X66359261Y-30792661D01*
X66391597Y-30786228D01*
X66435831Y-30777430D01*
X66582968Y-30716483D01*
X66715389Y-30628003D01*
X66828003Y-30515389D01*
X66916483Y-30382968D01*
X66977430Y-30235831D01*
X67008500Y-30079630D01*
X67008500Y-29920370D01*
X66977430Y-29764169D01*
X66916483Y-29617032D01*
X66916116Y-29616483D01*
X66828004Y-29484612D01*
X66827998Y-29484605D01*
X66715394Y-29372001D01*
X66715387Y-29371995D01*
X66582969Y-29283517D01*
X66435831Y-29222570D01*
X66435823Y-29222568D01*
X66326226Y-29200768D01*
X66264315Y-29168384D01*
X66262736Y-29166832D01*
X65503836Y-28407931D01*
X65503832Y-28407928D01*
X65400081Y-28338603D01*
X65400072Y-28338598D01*
X65284785Y-28290845D01*
X65284777Y-28290843D01*
X65162398Y-28266500D01*
X65162394Y-28266500D01*
X59244777Y-28266500D01*
X59177738Y-28246815D01*
X59175887Y-28245603D01*
X59082966Y-28183515D01*
X58935831Y-28122570D01*
X58935823Y-28122568D01*
X58779634Y-28091500D01*
X58779630Y-28091500D01*
X58620370Y-28091500D01*
X58620365Y-28091500D01*
X58481691Y-28119084D01*
X58412099Y-28112857D01*
X58356922Y-28069993D01*
X58333678Y-28004104D01*
X58333500Y-27997467D01*
X58333500Y-27978765D01*
X58353185Y-27911726D01*
X58369814Y-27891088D01*
X59527737Y-26733165D01*
X59589058Y-26699682D01*
X59591122Y-26699251D01*
X59700831Y-26677430D01*
X59847968Y-26616483D01*
X59940887Y-26554396D01*
X60007564Y-26533520D01*
X60009777Y-26533500D01*
X60655223Y-26533500D01*
X60722262Y-26553185D01*
X60724113Y-26554397D01*
X60817033Y-26616484D01*
X60890600Y-26646956D01*
X60964169Y-26677430D01*
X61110662Y-26706569D01*
X61120365Y-26708499D01*
X61120369Y-26708500D01*
X61120370Y-26708500D01*
X61279631Y-26708500D01*
X61279632Y-26708499D01*
X61435831Y-26677430D01*
X61582968Y-26616483D01*
X61715389Y-26528003D01*
X61828003Y-26415389D01*
X61916483Y-26282968D01*
X61977430Y-26135831D01*
X62008500Y-25979630D01*
X62008500Y-25820370D01*
X61977430Y-25664169D01*
X61916483Y-25517032D01*
X61843042Y-25407119D01*
X61828004Y-25384612D01*
X61827998Y-25384605D01*
X61715394Y-25272001D01*
X61715387Y-25271995D01*
X61582969Y-25183517D01*
X61435831Y-25122570D01*
X61435823Y-25122568D01*
X61279634Y-25091500D01*
X61279630Y-25091500D01*
X61120370Y-25091500D01*
X61120365Y-25091500D01*
X60964176Y-25122568D01*
X60964168Y-25122570D01*
X60817033Y-25183515D01*
X60724113Y-25245603D01*
X60657436Y-25266480D01*
X60655223Y-25266500D01*
X60009777Y-25266500D01*
X59942738Y-25246815D01*
X59940887Y-25245603D01*
X59847966Y-25183515D01*
X59700831Y-25122570D01*
X59700823Y-25122568D01*
X59544634Y-25091500D01*
X59544630Y-25091500D01*
X59385370Y-25091500D01*
X59385365Y-25091500D01*
X59229176Y-25122568D01*
X59229168Y-25122570D01*
X59082030Y-25183517D01*
X58949612Y-25271995D01*
X58949605Y-25272001D01*
X58837001Y-25384605D01*
X58836995Y-25384612D01*
X58748517Y-25517030D01*
X58687570Y-25664168D01*
X58687568Y-25664176D01*
X58665768Y-25773772D01*
X58633383Y-25835683D01*
X58631832Y-25837262D01*
X57584491Y-26884605D01*
X57296167Y-27172929D01*
X57252047Y-27217049D01*
X57207927Y-27261168D01*
X57138603Y-27364918D01*
X57138598Y-27364927D01*
X57090845Y-27480214D01*
X57090843Y-27480222D01*
X57066500Y-27602601D01*
X47484040Y-27602601D01*
X47490063Y-27572323D01*
X47508382Y-27480222D01*
X47508500Y-27479630D01*
X47508500Y-27320370D01*
X47477430Y-27164169D01*
X47416483Y-27017032D01*
X47328003Y-26884611D01*
X47327998Y-26884605D01*
X47215394Y-26772001D01*
X47215387Y-26771995D01*
X47082969Y-26683517D01*
X46935831Y-26622570D01*
X46935823Y-26622568D01*
X46779634Y-26591500D01*
X46779630Y-26591500D01*
X46620370Y-26591500D01*
X46620365Y-26591500D01*
X46464176Y-26622568D01*
X46464168Y-26622570D01*
X46317030Y-26683517D01*
X46184612Y-26771995D01*
X46184605Y-26772001D01*
X46072001Y-26884605D01*
X46071995Y-26884612D01*
X45983517Y-27017030D01*
X45922570Y-27164168D01*
X45922568Y-27164176D01*
X45891500Y-27320365D01*
X45891500Y-27479634D01*
X45922568Y-27635823D01*
X45922570Y-27635831D01*
X45983515Y-27782966D01*
X46045603Y-27875887D01*
X46066480Y-27942564D01*
X46066500Y-27944777D01*
X46066500Y-31886233D01*
X46046815Y-31953272D01*
X46030181Y-31973914D01*
X45237262Y-32766832D01*
X45175939Y-32800317D01*
X45173772Y-32800768D01*
X45064176Y-32822568D01*
X45064168Y-32822570D01*
X44917030Y-32883517D01*
X44784612Y-32971995D01*
X44784605Y-32972001D01*
X44672001Y-33084605D01*
X44671995Y-33084612D01*
X44583517Y-33217030D01*
X44522570Y-33364168D01*
X44522568Y-33364176D01*
X44491500Y-33520365D01*
X500Y-33520365D01*
X500Y-31720365D01*
X42491500Y-31720365D01*
X42491500Y-31879634D01*
X42522568Y-32035823D01*
X42522570Y-32035831D01*
X42583517Y-32182969D01*
X42671995Y-32315387D01*
X42672001Y-32315394D01*
X42784605Y-32427998D01*
X42784612Y-32428004D01*
X42917030Y-32516482D01*
X42917031Y-32516482D01*
X42917032Y-32516483D01*
X43064169Y-32577430D01*
X43220365Y-32608499D01*
X43220369Y-32608500D01*
X43220370Y-32608500D01*
X43379631Y-32608500D01*
X43379632Y-32608499D01*
X43535831Y-32577430D01*
X43682968Y-32516483D01*
X43815389Y-32428003D01*
X43928003Y-32315389D01*
X44016483Y-32182968D01*
X44077430Y-32035831D01*
X44099231Y-31926222D01*
X44131615Y-31864315D01*
X44133109Y-31862793D01*
X44992071Y-31003833D01*
X45061400Y-30900075D01*
X45109155Y-30784785D01*
X45133500Y-30662394D01*
X45133500Y-30537607D01*
X45133500Y-28544777D01*
X45153185Y-28477738D01*
X45154397Y-28475887D01*
X45199803Y-28407931D01*
X45216483Y-28382968D01*
X45277430Y-28235831D01*
X45308500Y-28079630D01*
X45308500Y-27920370D01*
X45277430Y-27764169D01*
X45216483Y-27617032D01*
X45128003Y-27484611D01*
X45127998Y-27484605D01*
X45015394Y-27372001D01*
X45015387Y-27371995D01*
X44882969Y-27283517D01*
X44735831Y-27222570D01*
X44735823Y-27222568D01*
X44579634Y-27191500D01*
X44579630Y-27191500D01*
X44420370Y-27191500D01*
X44420365Y-27191500D01*
X44264176Y-27222568D01*
X44264168Y-27222570D01*
X44117030Y-27283517D01*
X43984612Y-27371995D01*
X43984605Y-27372001D01*
X43872001Y-27484605D01*
X43871995Y-27484612D01*
X43783517Y-27617030D01*
X43722570Y-27764168D01*
X43722568Y-27764176D01*
X43691500Y-27920365D01*
X43691500Y-28079634D01*
X43722568Y-28235823D01*
X43722570Y-28235831D01*
X43783515Y-28382966D01*
X43845603Y-28475887D01*
X43866480Y-28542564D01*
X43866500Y-28544777D01*
X43866500Y-30286233D01*
X43846815Y-30353272D01*
X43830181Y-30373914D01*
X43237262Y-30966832D01*
X43175939Y-31000317D01*
X43173772Y-31000768D01*
X43064176Y-31022568D01*
X43064168Y-31022570D01*
X42917030Y-31083517D01*
X42784612Y-31171995D01*
X42784605Y-31172001D01*
X42672001Y-31284605D01*
X42671995Y-31284612D01*
X42583517Y-31417030D01*
X42522570Y-31564168D01*
X42522568Y-31564176D01*
X42491500Y-31720365D01*
X500Y-31720365D01*
X500Y-24547335D01*
X39365460Y-24547335D01*
X39365460Y-24706604D01*
X39396528Y-24862793D01*
X39396530Y-24862801D01*
X39457477Y-25009939D01*
X39545955Y-25142357D01*
X39545961Y-25142364D01*
X39658565Y-25254968D01*
X39658572Y-25254974D01*
X39790990Y-25343452D01*
X39790991Y-25343452D01*
X39790992Y-25343453D01*
X39938129Y-25404400D01*
X40094325Y-25435469D01*
X40094329Y-25435470D01*
X40094330Y-25435470D01*
X40253591Y-25435470D01*
X40253592Y-25435469D01*
X40409791Y-25404400D01*
X40556928Y-25343453D01*
X40689349Y-25254973D01*
X40801963Y-25142359D01*
X40890443Y-25009938D01*
X40951390Y-24862801D01*
X40973422Y-24752031D01*
X41005806Y-24690124D01*
X41007298Y-24688604D01*
X41692072Y-24003833D01*
X41761401Y-23900075D01*
X41809155Y-23784784D01*
X41833500Y-23662393D01*
X41833500Y-23544777D01*
X41853185Y-23477738D01*
X41854397Y-23475887D01*
X41901419Y-23405513D01*
X41916483Y-23382968D01*
X41977430Y-23235831D01*
X42008500Y-23079630D01*
X42008500Y-22920370D01*
X41977430Y-22764169D01*
X41916483Y-22617032D01*
X41828003Y-22484611D01*
X41827998Y-22484605D01*
X41715394Y-22372001D01*
X41715387Y-22371995D01*
X41582969Y-22283517D01*
X41435831Y-22222570D01*
X41435823Y-22222568D01*
X41279634Y-22191500D01*
X41279630Y-22191500D01*
X41120370Y-22191500D01*
X41120365Y-22191500D01*
X40964176Y-22222568D01*
X40964168Y-22222570D01*
X40817030Y-22283517D01*
X40684612Y-22371995D01*
X40684605Y-22372001D01*
X40572001Y-22484605D01*
X40571995Y-22484612D01*
X40483517Y-22617030D01*
X40422570Y-22764168D01*
X40422568Y-22764176D01*
X40391500Y-22920365D01*
X40391500Y-23079634D01*
X40422568Y-23235823D01*
X40422570Y-23235831D01*
X40462825Y-23333014D01*
X40470294Y-23402483D01*
X40439019Y-23464963D01*
X40435945Y-23468148D01*
X40110061Y-23794033D01*
X40048738Y-23827518D01*
X40046571Y-23827969D01*
X39938136Y-23849538D01*
X39938128Y-23849540D01*
X39790990Y-23910487D01*
X39658572Y-23998965D01*
X39658565Y-23998971D01*
X39545961Y-24111575D01*
X39545955Y-24111582D01*
X39457477Y-24244000D01*
X39396530Y-24391138D01*
X39396528Y-24391146D01*
X39365460Y-24547335D01*
X500Y-24547335D01*
X500Y-21520365D01*
X41796500Y-21520365D01*
X41796500Y-21679634D01*
X41827568Y-21835823D01*
X41827570Y-21835831D01*
X41888517Y-21982969D01*
X41976995Y-22115387D01*
X41977001Y-22115394D01*
X42089605Y-22227998D01*
X42089612Y-22228004D01*
X42222030Y-22316482D01*
X42222031Y-22316482D01*
X42222032Y-22316483D01*
X42369169Y-22377430D01*
X42525365Y-22408499D01*
X42525369Y-22408500D01*
X42525370Y-22408500D01*
X42684631Y-22408500D01*
X42684632Y-22408499D01*
X42840831Y-22377430D01*
X42987968Y-22316483D01*
X43120389Y-22228003D01*
X43233003Y-22115389D01*
X43321483Y-21982968D01*
X43382430Y-21835831D01*
X43404231Y-21726222D01*
X43436615Y-21664315D01*
X43438110Y-21662792D01*
X44460883Y-20640021D01*
X44530212Y-20536263D01*
X44577967Y-20420973D01*
X44602312Y-20298582D01*
X44602312Y-18844777D01*
X44621997Y-18777738D01*
X44623209Y-18775887D01*
X44685296Y-18682966D01*
X44694220Y-18661419D01*
X44746242Y-18535831D01*
X44777312Y-18379630D01*
X44777312Y-18220370D01*
X44746242Y-18064169D01*
X44685295Y-17917032D01*
X44655382Y-17872264D01*
X44596816Y-17784612D01*
X44596810Y-17784605D01*
X44484206Y-17672001D01*
X44484199Y-17671995D01*
X44351781Y-17583517D01*
X44204643Y-17522570D01*
X44204635Y-17522568D01*
X44048446Y-17491500D01*
X44048442Y-17491500D01*
X43889182Y-17491500D01*
X43889177Y-17491500D01*
X43732988Y-17522568D01*
X43732980Y-17522570D01*
X43585842Y-17583517D01*
X43453424Y-17671995D01*
X43453417Y-17672001D01*
X43340813Y-17784605D01*
X43340807Y-17784612D01*
X43252329Y-17917030D01*
X43191382Y-18064168D01*
X43191380Y-18064176D01*
X43160312Y-18220365D01*
X43160312Y-18379634D01*
X43191380Y-18535823D01*
X43191382Y-18535831D01*
X43252327Y-18682966D01*
X43314415Y-18775887D01*
X43335292Y-18842564D01*
X43335312Y-18844777D01*
X43335312Y-19922421D01*
X43315627Y-19989460D01*
X43298993Y-20010102D01*
X42542262Y-20766832D01*
X42480939Y-20800317D01*
X42478772Y-20800768D01*
X42369176Y-20822568D01*
X42369168Y-20822570D01*
X42222030Y-20883517D01*
X42089612Y-20971995D01*
X42089605Y-20972001D01*
X41977001Y-21084605D01*
X41976995Y-21084612D01*
X41888517Y-21217030D01*
X41827570Y-21364168D01*
X41827568Y-21364176D01*
X41796500Y-21520365D01*
X500Y-21520365D01*
X500Y-14820365D01*
X47091500Y-14820365D01*
X47091500Y-14979634D01*
X47122568Y-15135823D01*
X47122570Y-15135831D01*
X47183517Y-15282969D01*
X47271995Y-15415387D01*
X47272001Y-15415394D01*
X47384605Y-15527998D01*
X47384612Y-15528004D01*
X47517030Y-15616482D01*
X47517031Y-15616482D01*
X47517032Y-15616483D01*
X47664169Y-15677430D01*
X47820365Y-15708499D01*
X47820369Y-15708500D01*
X47942500Y-15708500D01*
X48009539Y-15728185D01*
X48055294Y-15780989D01*
X48066500Y-15832500D01*
X48066500Y-16115394D01*
X48046815Y-16182433D01*
X48045603Y-16184283D01*
X48023966Y-16216665D01*
X47963019Y-16363803D01*
X47963017Y-16363811D01*
X47931949Y-16520000D01*
X47931949Y-16679269D01*
X47963017Y-16835458D01*
X47963019Y-16835466D01*
X48023966Y-16982604D01*
X48112444Y-17115022D01*
X48112450Y-17115029D01*
X48225054Y-17227633D01*
X48225061Y-17227639D01*
X48357479Y-17316117D01*
X48357480Y-17316117D01*
X48357481Y-17316118D01*
X48504618Y-17377065D01*
X48660814Y-17408134D01*
X48660818Y-17408135D01*
X48660819Y-17408135D01*
X48820080Y-17408135D01*
X48820081Y-17408134D01*
X48976280Y-17377065D01*
X49123417Y-17316118D01*
X49255838Y-17227638D01*
X49368452Y-17115024D01*
X49456932Y-16982603D01*
X49517879Y-16835466D01*
X49548949Y-16679265D01*
X49548949Y-16520005D01*
X49517879Y-16363804D01*
X49456932Y-16216667D01*
X49389264Y-16115394D01*
X49368453Y-16084247D01*
X49364583Y-16079531D01*
X49365905Y-16078445D01*
X49336334Y-16024289D01*
X49333500Y-15997931D01*
X49333500Y-10750161D01*
X49353185Y-10683122D01*
X49369814Y-10662485D01*
X54230394Y-5801904D01*
X54291715Y-5768421D01*
X54361407Y-5773405D01*
X54365500Y-5775016D01*
X54378220Y-5780285D01*
X54534416Y-5811354D01*
X54534420Y-5811355D01*
X54534421Y-5811355D01*
X54693682Y-5811355D01*
X54693683Y-5811354D01*
X54849882Y-5780285D01*
X54997019Y-5719338D01*
X55129440Y-5630858D01*
X55242054Y-5518244D01*
X55330534Y-5385823D01*
X55391481Y-5238686D01*
X55422551Y-5082485D01*
X55422551Y-4923225D01*
X55391481Y-4767024D01*
X55330534Y-4619887D01*
X55278376Y-4541827D01*
X55242055Y-4487467D01*
X55242049Y-4487460D01*
X55162927Y-4408338D01*
X55129442Y-4347015D01*
X55134426Y-4277323D01*
X55162924Y-4232979D01*
X55226086Y-4169817D01*
X55287409Y-4136334D01*
X55313766Y-4133500D01*
X57355904Y-4133500D01*
X57422943Y-4153185D01*
X57443580Y-4169814D01*
X57506741Y-4232975D01*
X57557120Y-4283354D01*
X57722289Y-4393717D01*
X57722295Y-4393720D01*
X57722296Y-4393721D01*
X57905831Y-4469744D01*
X57908821Y-4470338D01*
X57910242Y-4471082D01*
X57911663Y-4471513D01*
X57911581Y-4471782D01*
X57970731Y-4502723D01*
X58005305Y-4563439D01*
X58001566Y-4633208D01*
X57999190Y-4639408D01*
X57930257Y-4805826D01*
X57930254Y-4805838D01*
X57891500Y-5000666D01*
X57891500Y-5199333D01*
X57930254Y-5394161D01*
X57930256Y-5394169D01*
X58006277Y-5577701D01*
X58006282Y-5577710D01*
X58116646Y-5742880D01*
X58116649Y-5742884D01*
X58257115Y-5883350D01*
X58257119Y-5883353D01*
X58422289Y-5993717D01*
X58422295Y-5993720D01*
X58422296Y-5993721D01*
X58605831Y-6069744D01*
X58800666Y-6108499D01*
X58800670Y-6108500D01*
X58800671Y-6108500D01*
X101230904Y-6108500D01*
X101297943Y-6128185D01*
X101318585Y-6144819D01*
X129955181Y-34781415D01*
X129988666Y-34842738D01*
X129991500Y-34869096D01*
X129991500Y-44667500D01*
X129971815Y-44734539D01*
X129919011Y-44780294D01*
X129867500Y-44791500D01*
X129451345Y-44791500D01*
X129390797Y-44798011D01*
X129390795Y-44798011D01*
X129253795Y-44849111D01*
X129136739Y-44936739D01*
X129049111Y-45053795D01*
X128998011Y-45190795D01*
X128998011Y-45190797D01*
X128991500Y-45251345D01*
X128991500Y-45747500D01*
X128971815Y-45814539D01*
X128919011Y-45860294D01*
X128867500Y-45871500D01*
X109985293Y-45871500D01*
X109918254Y-45851815D01*
X109887082Y-45821194D01*
X109886460Y-45821705D01*
X109756568Y-45663431D01*
X109603005Y-45537405D01*
X109602998Y-45537401D01*
X109427808Y-45443760D01*
X109332752Y-45414925D01*
X109237701Y-45386092D01*
X109237699Y-45386091D01*
X109237701Y-45386091D01*
X109131415Y-45375623D01*
X109089547Y-45371500D01*
X109089543Y-45371500D01*
X107240457Y-45371500D01*
X107092300Y-45386091D01*
X106902191Y-45443760D01*
X106727001Y-45537401D01*
X106726994Y-45537405D01*
X106573431Y-45663431D01*
X106447405Y-45816994D01*
X106447401Y-45817001D01*
X106353760Y-45992191D01*
X106296091Y-46182300D01*
X106281500Y-46330456D01*
X106281500Y-47429542D01*
X106296091Y-47577699D01*
X106353760Y-47767808D01*
X106447401Y-47942998D01*
X106447406Y-47943005D01*
X106552722Y-48071334D01*
X106580035Y-48135644D01*
X106568244Y-48204512D01*
X106552723Y-48228663D01*
X106447404Y-48356995D01*
X106447400Y-48357001D01*
X106353759Y-48532191D01*
X106296090Y-48722300D01*
X106281499Y-48870456D01*
X106281499Y-49969542D01*
X106296090Y-50117699D01*
X106353759Y-50307808D01*
X106447400Y-50482998D01*
X106447404Y-50483005D01*
X106552722Y-50611335D01*
X106580035Y-50675645D01*
X106568244Y-50744513D01*
X106552723Y-50768664D01*
X106447405Y-50896995D01*
X106447401Y-50897001D01*
X106353760Y-51072191D01*
X106296091Y-51262300D01*
X106281500Y-51410456D01*
X106281500Y-52509542D01*
X106296091Y-52657699D01*
X106353760Y-52847808D01*
X106447401Y-53022998D01*
X106447405Y-53023005D01*
X106552723Y-53151335D01*
X106580036Y-53215645D01*
X106568245Y-53284513D01*
X106552723Y-53308665D01*
X106447405Y-53436994D01*
X106447401Y-53437001D01*
X106353760Y-53612191D01*
X106296091Y-53802300D01*
X106281500Y-53950456D01*
X106281500Y-55049542D01*
X106296091Y-55197699D01*
X106353760Y-55387808D01*
X106447401Y-55562998D01*
X106447405Y-55563005D01*
X106552723Y-55691335D01*
X106580036Y-55755645D01*
X106568245Y-55824513D01*
X106552723Y-55848665D01*
X106447405Y-55976994D01*
X106447401Y-55977001D01*
X106353760Y-56152191D01*
X106296091Y-56342300D01*
X106281500Y-56490456D01*
X106281500Y-57589542D01*
X106290742Y-57683380D01*
X106277722Y-57752026D01*
X106229657Y-57802736D01*
X106161806Y-57819409D01*
X106119887Y-57810094D01*
X106055292Y-57783338D01*
X106055280Y-57783335D01*
X105899091Y-57752267D01*
X105899087Y-57752267D01*
X105739827Y-57752267D01*
X105739822Y-57752267D01*
X105583633Y-57783335D01*
X105583625Y-57783337D01*
X105436487Y-57844284D01*
X105304069Y-57932762D01*
X105304062Y-57932768D01*
X105191458Y-58045372D01*
X105191452Y-58045379D01*
X105102974Y-58177797D01*
X105042027Y-58324935D01*
X105042025Y-58324943D01*
X105010957Y-58481132D01*
X105010957Y-58640401D01*
X105042025Y-58796590D01*
X105042027Y-58796598D01*
X105102972Y-58943733D01*
X105165060Y-59036654D01*
X105185937Y-59103331D01*
X105185957Y-59105544D01*
X105185957Y-61211855D01*
X105210300Y-61334234D01*
X105210302Y-61334242D01*
X105258055Y-61449529D01*
X105258060Y-61449538D01*
X105327385Y-61553289D01*
X105327388Y-61553293D01*
X106245181Y-62471085D01*
X106278666Y-62532408D01*
X106281500Y-62558765D01*
X106281500Y-62669542D01*
X106296091Y-62817699D01*
X106353760Y-63007808D01*
X106447401Y-63182998D01*
X106447405Y-63183005D01*
X106573431Y-63336568D01*
X106726994Y-63462594D01*
X106727001Y-63462598D01*
X106902191Y-63556239D01*
X106902193Y-63556239D01*
X106902196Y-63556241D01*
X107092299Y-63613908D01*
X107092298Y-63613908D01*
X107102766Y-63614938D01*
X107240453Y-63628500D01*
X109089546Y-63628499D01*
X109237701Y-63613908D01*
X109427804Y-63556241D01*
X109603004Y-63462595D01*
X109756568Y-63336568D01*
X109871833Y-63196118D01*
X109886460Y-63178295D01*
X109887514Y-63179160D01*
X109935802Y-63138805D01*
X109985293Y-63128500D01*
X122779330Y-63128500D01*
X122779331Y-63128499D01*
X122974169Y-63089744D01*
X123157704Y-63013721D01*
X123322881Y-62903353D01*
X123463353Y-62762881D01*
X123521912Y-62704322D01*
X123521924Y-62704308D01*
X125181416Y-61044819D01*
X125242739Y-61011334D01*
X125269097Y-61008500D01*
X127500671Y-61008500D01*
X128967500Y-61008500D01*
X129034539Y-61028185D01*
X129080294Y-61080989D01*
X129091500Y-61132500D01*
X129091500Y-61548654D01*
X129098011Y-61609202D01*
X129098011Y-61609204D01*
X129137885Y-61716106D01*
X129149111Y-61746204D01*
X129236739Y-61863261D01*
X129353796Y-61950889D01*
X129490799Y-62001989D01*
X129518050Y-62004918D01*
X129551345Y-62008499D01*
X129551362Y-62008500D01*
X132648638Y-62008500D01*
X132648654Y-62008499D01*
X132675692Y-62005591D01*
X132709201Y-62001989D01*
X132846204Y-61950889D01*
X132963261Y-61863261D01*
X133050889Y-61746204D01*
X133101989Y-61609201D01*
X133106155Y-61570454D01*
X133108499Y-61548654D01*
X133108500Y-61548637D01*
X133108500Y-61132500D01*
X133128185Y-61065461D01*
X133180989Y-61019706D01*
X133232500Y-61008500D01*
X135599330Y-61008500D01*
X135599331Y-61008499D01*
X135794169Y-60969744D01*
X135977704Y-60893721D01*
X136142881Y-60783353D01*
X136283353Y-60642881D01*
X140783353Y-56142881D01*
X140893721Y-55977704D01*
X140894015Y-55976994D01*
X140939783Y-55866501D01*
X140939783Y-55866500D01*
X140969744Y-55794169D01*
X141008500Y-55599329D01*
X141008500Y-41200671D01*
X140969744Y-41005831D01*
X140922623Y-40892071D01*
X140922386Y-40891500D01*
X140893725Y-40822303D01*
X140893724Y-40822302D01*
X140893722Y-40822296D01*
X140783354Y-40657119D01*
X140783351Y-40657115D01*
X125540424Y-25414190D01*
X125540422Y-25414187D01*
X120296600Y-20170365D01*
X127741500Y-20170365D01*
X127741500Y-20329634D01*
X127772568Y-20485823D01*
X127772570Y-20485831D01*
X127833517Y-20632969D01*
X127921995Y-20765387D01*
X127922001Y-20765394D01*
X128034605Y-20877998D01*
X128034612Y-20878004D01*
X128167030Y-20966482D01*
X128167031Y-20966482D01*
X128167032Y-20966483D01*
X128314169Y-21027430D01*
X128470365Y-21058499D01*
X128470369Y-21058500D01*
X128470370Y-21058500D01*
X128629631Y-21058500D01*
X128629632Y-21058499D01*
X128785831Y-21027430D01*
X128932968Y-20966483D01*
X129065389Y-20878003D01*
X129178003Y-20765389D01*
X129266483Y-20632968D01*
X129327430Y-20485831D01*
X129349231Y-20376222D01*
X129381615Y-20314315D01*
X129383110Y-20312792D01*
X131856086Y-17839819D01*
X131917409Y-17806334D01*
X131943767Y-17803500D01*
X133983208Y-17803500D01*
X134050247Y-17823185D01*
X134052098Y-17824397D01*
X134123736Y-17872264D01*
X134197303Y-17902736D01*
X134270872Y-17933210D01*
X134427068Y-17964279D01*
X134427072Y-17964280D01*
X134427073Y-17964280D01*
X134586334Y-17964280D01*
X134586335Y-17964279D01*
X134742534Y-17933210D01*
X134889671Y-17872263D01*
X135022092Y-17783783D01*
X135134706Y-17671169D01*
X135223186Y-17538748D01*
X135284133Y-17391611D01*
X135315203Y-17235410D01*
X135315203Y-17076150D01*
X135284133Y-16919949D01*
X135223186Y-16772812D01*
X135160683Y-16679269D01*
X135134707Y-16640392D01*
X135134701Y-16640385D01*
X135022097Y-16527781D01*
X135022090Y-16527775D01*
X134889672Y-16439297D01*
X134742534Y-16378350D01*
X134742526Y-16378348D01*
X134586337Y-16347280D01*
X134586333Y-16347280D01*
X134427073Y-16347280D01*
X134427068Y-16347280D01*
X134270879Y-16378348D01*
X134270871Y-16378350D01*
X134123735Y-16439296D01*
X134043851Y-16492672D01*
X134009534Y-16515602D01*
X133942858Y-16536480D01*
X133940645Y-16536500D01*
X131567601Y-16536500D01*
X131445222Y-16560842D01*
X131445213Y-16560845D01*
X131329924Y-16608599D01*
X131329921Y-16608600D01*
X131226167Y-16677927D01*
X131226163Y-16677930D01*
X128487262Y-19416832D01*
X128425939Y-19450317D01*
X128423772Y-19450768D01*
X128314176Y-19472568D01*
X128314168Y-19472570D01*
X128167030Y-19533517D01*
X128034612Y-19621995D01*
X128034605Y-19622001D01*
X127922001Y-19734605D01*
X127921995Y-19734612D01*
X127833517Y-19867030D01*
X127772570Y-20014168D01*
X127772568Y-20014176D01*
X127741500Y-20170365D01*
X120296600Y-20170365D01*
X103963699Y-3837464D01*
X192691500Y-3837464D01*
X192691500Y-4162536D01*
X192696335Y-4211624D01*
X192723361Y-4486032D01*
X192723364Y-4486049D01*
X192786775Y-4804848D01*
X192786778Y-4804859D01*
X192881145Y-5115945D01*
X193005546Y-5416274D01*
X193005548Y-5416279D01*
X193158776Y-5702948D01*
X193158793Y-5702976D01*
X193339370Y-5973230D01*
X193339387Y-5973253D01*
X193545611Y-6224537D01*
X193775462Y-6454388D01*
X193775467Y-6454392D01*
X193775468Y-6454393D01*
X194026752Y-6660617D01*
X194026759Y-6660622D01*
X194026769Y-6660629D01*
X194297023Y-6841206D01*
X194297028Y-6841209D01*
X194297040Y-6841217D01*
X194297049Y-6841221D01*
X194297051Y-6841223D01*
X194583720Y-6994451D01*
X194583722Y-6994451D01*
X194583728Y-6994455D01*
X194884056Y-7118855D01*
X195195131Y-7213219D01*
X195195137Y-7213220D01*
X195195140Y-7213221D01*
X195195151Y-7213224D01*
X195395066Y-7252988D01*
X195513957Y-7276637D01*
X195837464Y-7308500D01*
X195837467Y-7308500D01*
X196162533Y-7308500D01*
X196162536Y-7308500D01*
X196486043Y-7276637D01*
X196643850Y-7245247D01*
X196804848Y-7213224D01*
X196804859Y-7213221D01*
X196804859Y-7213220D01*
X196804869Y-7213219D01*
X197115944Y-7118855D01*
X197416272Y-6994455D01*
X197702960Y-6841217D01*
X197973248Y-6660617D01*
X198224532Y-6454393D01*
X198454393Y-6224532D01*
X198660617Y-5973248D01*
X198841217Y-5702960D01*
X198994455Y-5416272D01*
X199118855Y-5115944D01*
X199213219Y-4804869D01*
X199213221Y-4804859D01*
X199213224Y-4804848D01*
X199261242Y-4563439D01*
X199276637Y-4486043D01*
X199308500Y-4162536D01*
X199308500Y-3837464D01*
X199276637Y-3513957D01*
X199249288Y-3376462D01*
X199213224Y-3195151D01*
X199213221Y-3195140D01*
X199213220Y-3195137D01*
X199213219Y-3195131D01*
X199118855Y-2884056D01*
X198994455Y-2583728D01*
X198916447Y-2437786D01*
X198841223Y-2297051D01*
X198841221Y-2297049D01*
X198841217Y-2297040D01*
X198819917Y-2265162D01*
X198660629Y-2026769D01*
X198660622Y-2026759D01*
X198660617Y-2026752D01*
X198454393Y-1775468D01*
X198454392Y-1775467D01*
X198454388Y-1775462D01*
X198224537Y-1545611D01*
X197973253Y-1339387D01*
X197973230Y-1339370D01*
X197702976Y-1158793D01*
X197702948Y-1158776D01*
X197416279Y-1005548D01*
X197416274Y-1005546D01*
X197115945Y-881145D01*
X196804859Y-786778D01*
X196804848Y-786775D01*
X196486049Y-723364D01*
X196486032Y-723361D01*
X196241395Y-699267D01*
X196162536Y-691500D01*
X195837464Y-691500D01*
X195764530Y-698683D01*
X195513967Y-723361D01*
X195513950Y-723364D01*
X195195151Y-786775D01*
X195195140Y-786778D01*
X194884054Y-881145D01*
X194583725Y-1005546D01*
X194583720Y-1005548D01*
X194297051Y-1158776D01*
X194297023Y-1158793D01*
X194026769Y-1339370D01*
X194026746Y-1339387D01*
X193775462Y-1545611D01*
X193545611Y-1775462D01*
X193339387Y-2026746D01*
X193339370Y-2026769D01*
X193158793Y-2297023D01*
X193158776Y-2297051D01*
X193005548Y-2583720D01*
X193005546Y-2583725D01*
X192881145Y-2884054D01*
X192786778Y-3195140D01*
X192786775Y-3195151D01*
X192723364Y-3513950D01*
X192723361Y-3513967D01*
X192698683Y-3764530D01*
X192691500Y-3837464D01*
X103963699Y-3837464D01*
X102842884Y-2716649D01*
X102842880Y-2716646D01*
X102677710Y-2606282D01*
X102677697Y-2606275D01*
X102623262Y-2583728D01*
X102623261Y-2583728D01*
X102494169Y-2530256D01*
X102494161Y-2530254D01*
X102299333Y-2491500D01*
X102299329Y-2491500D01*
X58100671Y-2491500D01*
X58100666Y-2491500D01*
X57905838Y-2530254D01*
X57905830Y-2530256D01*
X57722298Y-2606277D01*
X57722289Y-2606282D01*
X57557120Y-2716645D01*
X57500353Y-2773413D01*
X57443583Y-2830182D01*
X57382263Y-2863666D01*
X57355904Y-2866500D01*
X54937601Y-2866500D01*
X54815222Y-2890843D01*
X54815214Y-2890845D01*
X54699927Y-2938598D01*
X54699918Y-2938603D01*
X54596167Y-3007928D01*
X54596163Y-3007931D01*
X47496167Y-10107929D01*
X47452047Y-10152049D01*
X47407927Y-10196168D01*
X47338603Y-10299918D01*
X47338598Y-10299927D01*
X47290845Y-10415214D01*
X47290843Y-10415222D01*
X47266500Y-10537601D01*
X47266500Y-14355222D01*
X47246815Y-14422261D01*
X47245603Y-14424112D01*
X47183516Y-14517033D01*
X47122570Y-14664168D01*
X47122568Y-14664176D01*
X47091500Y-14820365D01*
X500Y-14820365D01*
X500Y-5002553D01*
X604Y-4997467D01*
X3652Y-4923220D01*
X15765Y-4628205D01*
X16121Y-4622661D01*
X23176Y-4541753D01*
X23648Y-4537295D01*
X64158Y-4211587D01*
X65078Y-4205465D01*
X78339Y-4130147D01*
X79089Y-4126256D01*
X139571Y-3837467D01*
X139572Y-3837464D01*
X691500Y-3837464D01*
X691500Y-4162536D01*
X696335Y-4211624D01*
X723361Y-4486032D01*
X723364Y-4486049D01*
X786775Y-4804848D01*
X786778Y-4804859D01*
X881145Y-5115945D01*
X1005546Y-5416274D01*
X1005548Y-5416279D01*
X1158776Y-5702948D01*
X1158793Y-5702976D01*
X1339370Y-5973230D01*
X1339387Y-5973253D01*
X1545611Y-6224537D01*
X1775462Y-6454388D01*
X1775467Y-6454392D01*
X1775468Y-6454393D01*
X2026752Y-6660617D01*
X2026759Y-6660622D01*
X2026769Y-6660629D01*
X2297023Y-6841206D01*
X2297028Y-6841209D01*
X2297040Y-6841217D01*
X2297049Y-6841221D01*
X2297051Y-6841223D01*
X2583720Y-6994451D01*
X2583722Y-6994451D01*
X2583728Y-6994455D01*
X2884056Y-7118855D01*
X3195131Y-7213219D01*
X3195137Y-7213220D01*
X3195140Y-7213221D01*
X3195151Y-7213224D01*
X3395066Y-7252988D01*
X3513957Y-7276637D01*
X3837464Y-7308500D01*
X3837467Y-7308500D01*
X4162533Y-7308500D01*
X4162536Y-7308500D01*
X4486043Y-7276637D01*
X4643850Y-7245247D01*
X4804848Y-7213224D01*
X4804859Y-7213221D01*
X4804859Y-7213220D01*
X4804869Y-7213219D01*
X5115944Y-7118855D01*
X5416272Y-6994455D01*
X5702960Y-6841217D01*
X5973248Y-6660617D01*
X6224532Y-6454393D01*
X6454393Y-6224532D01*
X6660617Y-5973248D01*
X6841217Y-5702960D01*
X6994455Y-5416272D01*
X7118855Y-5115944D01*
X7213219Y-4804869D01*
X7213221Y-4804859D01*
X7213224Y-4804848D01*
X7261242Y-4563439D01*
X7276637Y-4486043D01*
X7308500Y-4162536D01*
X7308500Y-3837464D01*
X7276637Y-3513957D01*
X7249288Y-3376462D01*
X7213224Y-3195151D01*
X7213221Y-3195140D01*
X7213220Y-3195137D01*
X7213219Y-3195131D01*
X7118855Y-2884056D01*
X6994455Y-2583728D01*
X6916447Y-2437786D01*
X6841223Y-2297051D01*
X6841221Y-2297049D01*
X6841217Y-2297040D01*
X6819917Y-2265162D01*
X6660629Y-2026769D01*
X6660622Y-2026759D01*
X6660617Y-2026752D01*
X6454393Y-1775468D01*
X6454392Y-1775467D01*
X6454388Y-1775462D01*
X6224537Y-1545611D01*
X5973253Y-1339387D01*
X5973230Y-1339370D01*
X5702976Y-1158793D01*
X5702948Y-1158776D01*
X5416279Y-1005548D01*
X5416274Y-1005546D01*
X5115945Y-881145D01*
X4804859Y-786778D01*
X4804848Y-786775D01*
X4486049Y-723364D01*
X4486032Y-723361D01*
X4241395Y-699267D01*
X4162536Y-691500D01*
X3837464Y-691500D01*
X3764530Y-698683D01*
X3513967Y-723361D01*
X3513950Y-723364D01*
X3195151Y-786775D01*
X3195140Y-786778D01*
X2884054Y-881145D01*
X2583725Y-1005546D01*
X2583720Y-1005548D01*
X2297051Y-1158776D01*
X2297023Y-1158793D01*
X2026769Y-1339370D01*
X2026746Y-1339387D01*
X1775462Y-1545611D01*
X1545611Y-1775462D01*
X1339387Y-2026746D01*
X1339370Y-2026769D01*
X1158793Y-2297023D01*
X1158776Y-2297051D01*
X1005548Y-2583720D01*
X1005546Y-2583725D01*
X881145Y-2884054D01*
X786778Y-3195140D01*
X786775Y-3195151D01*
X723364Y-3513950D01*
X723361Y-3513967D01*
X698683Y-3764530D01*
X691500Y-3837464D01*
X139572Y-3837464D01*
X147481Y-3799696D01*
X149056Y-3793089D01*
X166620Y-3727482D01*
X167506Y-3724351D01*
X265315Y-3395571D01*
X267616Y-3388607D01*
X285903Y-3338335D01*
X286852Y-3335819D01*
X416912Y-3002337D01*
X420011Y-2995089D01*
X432589Y-2968105D01*
X433452Y-2966296D01*
X600355Y-2624776D01*
X605223Y-2615779D01*
X811475Y-2269563D01*
X817078Y-2260987D01*
X1051236Y-1932982D01*
X1057503Y-1924930D01*
X1317968Y-1617378D01*
X1324889Y-1609860D01*
X1609860Y-1324889D01*
X1617378Y-1317968D01*
X1924930Y-1057503D01*
X1932982Y-1051236D01*
X2260994Y-817072D01*
X2269563Y-811475D01*
X2615779Y-605223D01*
X2624776Y-600355D01*
X2966296Y-433452D01*
X2968105Y-432589D01*
X2995089Y-420011D01*
X3002341Y-416911D01*
X3335827Y-286849D01*
X3338335Y-285903D01*
X3388607Y-267616D01*
X3395578Y-265314D01*
X3724380Y-167497D01*
X3727482Y-166620D01*
X3793089Y-149056D01*
X3799680Y-147485D01*
X4126281Y-79084D01*
X4130147Y-78339D01*
X4205465Y-65078D01*
X4211587Y-64158D01*
X4537302Y-23647D01*
X4541753Y-23176D01*
X4622661Y-16121D01*
X4628205Y-15765D01*
X4988437Y-974D01*
X4997468Y-604D01*
X5002554Y-500D01*
X194997446Y-500D01*
X195002532Y-604D01*
G37*
G04 #@! TD.AperFunction*
M02*
