M48
; DRILL file KiCad 10.0.5 date 2026-09-08T23:02:48
; FORMAT={-:-/ absolute / metric / decimal}
; #@! TF.CreationDate,2026-09-08T23:02:48-07:00
; #@! TF.GenerationSoftware,Kicad,Pcbnew,10.0.5
; #@! TF.FileFunction,MixedPlating,1,2
FMAT,2
METRIC
; #@! TA.AperFunction,Plated,PTH,ViaDrill
T1C0.400
; #@! TA.AperFunction,Plated,PTH,ComponentDrill
T2C3.200
%
G90
G05
T1
X14.6Y-33.5
X17.1Y-28.7
X18.1Y-49.8
X20.0Y-67.7
X24.3Y-60.0
X26.1Y-107.3
X32.1Y-28.5
X34.212Y-60.012
X35.5Y-62.4
X35.8Y-71.4
X35.9Y-65.9
X38.1Y-29.9
X38.1Y-60.9
X38.935Y-65.201
X39.516Y-63.425
X40.174Y-24.627
X40.2Y-16.2
X40.35Y-76.2
X40.7Y-29.7
X41.1Y-62.3
X41.2Y-23.0
X41.3Y-60.422
X41.6Y-70.6
X41.7Y-67.0
X41.7Y-73.9
X42.605Y-21.6
X42.9Y-18.5
X43.3Y-31.8
X43.4Y-59.4
X43.5Y-54.8
X43.969Y-18.3
X44.2Y-79.1
X44.5Y-28.0
X44.8Y-61.3
X45.3Y-33.6
X45.5Y-31.2
X46.2Y-22.8
X46.4Y-17.8
X46.5Y-55.6
X46.7Y-27.4
X47.9Y-14.9
X47.9Y-53.4
X48.0Y-25.6
X48.1Y-45.6
X48.2Y-42.0
X48.7Y-19.1
X48.74Y-16.6
X49.2Y-29.8
X50.1Y-106.7
X50.7Y-102.5
X51.5Y-21.1
X54.0Y-27.9
X54.1Y-57.8
X54.614Y-5.003
X56.2Y-7.0
X58.2Y-3.5
X58.7Y-28.9
X58.9Y-5.1
X59.465Y-25.9
X59.6Y-30.5
X60.9Y-97.9
X61.2Y-25.9
X65.8Y-1.3
X66.2Y-30.0
X71.4Y-31.2
X77.7Y-7.6
X81.2Y-28.6
X83.3Y-45.9
X87.4Y-29.2
X87.5Y-47.0
X99.2Y-72.7
X99.3Y-57.1
X103.6Y-31.0
X105.819Y-58.561
X110.2Y-32.5
X110.3Y-56.8
X110.9Y-4.6
X112.3Y-53.6
X113.252Y-57.644
X113.5Y-54.6
X118.0Y-48.4
X118.1Y-56.2
X119.6Y-28.1
X120.2Y-56.2
X121.8Y-52.3
X124.75Y-26.05
X125.15Y-56.05
X127.6Y-60.0
X128.55Y-20.25
X128.7Y-67.9
X132.2Y-65.5
X132.5Y-63.4
X134.1Y-26.2
X134.507Y-17.156
X135.6Y-67.3
X143.1Y-19.2
X146.0Y-73.4
X153.8Y-48.6
X158.0Y-80.6
X168.5Y-43.1
X175.1Y-92.5
X177.1Y-61.2
X190.8Y-102.4
T2
X4.0Y-4.0
X4.0Y-105.0
X196.0Y-4.0
X196.0Y-105.0
M30
