G04 #@! TF.GenerationSoftware,KiCad,Pcbnew,10.0.5*
G04 #@! TF.CreationDate,2026-09-08T23:12:58-07:00*
G04 #@! TF.ProjectId,vancouver-skytrain-pcb,76616e63-6f75-4766-9572-2d736b797472,rev?*
G04 #@! TF.SameCoordinates,Original*
G04 #@! TF.FileFunction,Soldermask,Bot*
G04 #@! TF.FilePolarity,Negative*
%FSLAX46Y46*%
G04 Gerber Fmt 4.6, Leading zero omitted, Abs format (unit mm)*
G04 Created by KiCad (PCBNEW 10.0.5) date 2026-09-08 23:12:58*
%MOMM*%
%LPD*%
G01*
G04 APERTURE LIST*
G04 Aperture macros list*
%AMRoundRect*
0 Rectangle with rounded corners*
0 $1 Rounding radius*
0 $2 $3 $4 $5 $6 $7 $8 $9 X,Y pos of 4 corners*
0 Add a 4 corners polygon primitive as box body*
4,1,4,$2,$3,$4,$5,$6,$7,$8,$9,$2,$3,0*
0 Add four circle primitives for the rounded corners*
1,1,$1+$1,$2,$3*
1,1,$1+$1,$4,$5*
1,1,$1+$1,$6,$7*
1,1,$1+$1,$8,$9*
0 Add four rect primitives between the rounded corners*
20,1,$1+$1,$2,$3,$4,$5,0*
20,1,$1+$1,$4,$5,$6,$7,0*
20,1,$1+$1,$6,$7,$8,$9,0*
20,1,$1+$1,$8,$9,$2,$3,0*%
G04 Aperture macros list end*
%ADD10C,4.000000*%
%ADD11C,6.000000*%
%ADD12RoundRect,0.550800X-0.875000X-0.500000X0.875000X-0.500000X0.875000X0.500000X-0.875000X0.500000X0*%
%ADD13RoundRect,0.475000X0.275000X-0.975000X0.275000X0.975000X-0.275000X0.975000X-0.275000X-0.975000X0*%
%ADD14C,2.100000*%
%ADD15RoundRect,0.200000X0.500000X0.375000X-0.500000X0.375000X-0.500000X-0.375000X0.500000X-0.375000X0*%
%ADD16RoundRect,0.200000X-1.500000X-1.500000X1.500000X-1.500000X1.500000X1.500000X-1.500000X1.500000X0*%
G04 APERTURE END LIST*
D10*
X196000000Y-105000000D03*
D11*
X196000000Y-105000000D03*
D10*
X196000000Y-4000000D03*
D11*
X196000000Y-4000000D03*
D10*
X4000000Y-105000000D03*
D11*
X4000000Y-105000000D03*
D10*
X4000000Y-4000000D03*
D11*
X4000000Y-4000000D03*
D12*
X92000000Y-62120000D03*
X92000000Y-59580000D03*
X92000000Y-57040000D03*
X92000000Y-54500000D03*
X92000000Y-51960000D03*
X92000000Y-49420000D03*
X92000000Y-46880000D03*
X108165000Y-46880000D03*
X108164999Y-49420000D03*
X108165000Y-51960000D03*
X108165000Y-54500000D03*
X108165000Y-57040000D03*
X108164999Y-59580000D03*
X108165000Y-62120000D03*
D13*
X98912000Y-45860000D03*
X101452000Y-45859999D03*
D14*
X98912000Y-62878000D03*
X101452000Y-62878001D03*
X98912000Y-60338000D03*
X101452000Y-60337999D03*
D15*
X83300000Y-48250000D03*
X77300000Y-48250000D03*
X83300000Y-51950000D03*
X77300000Y-51950000D03*
D16*
X131100000Y-53800000D03*
X131100000Y-60000000D03*
X44200000Y-86000000D03*
D15*
X83300000Y-39050000D03*
X77300000Y-39050000D03*
X83300000Y-42750000D03*
X77300000Y-42750000D03*
X83300000Y-56500000D03*
X77300000Y-56500000D03*
X83300000Y-60200000D03*
X77300000Y-60200000D03*
D16*
X44200000Y-79100000D03*
X131000000Y-46800000D03*
D15*
X83300000Y-64450000D03*
X77300000Y-64450000D03*
X83300000Y-68150000D03*
X77300000Y-68150000D03*
M02*
