G04 #@! TF.GenerationSoftware,KiCad,Pcbnew,10.0.5*
G04 #@! TF.CreationDate,2026-09-08T23:02:42-07:00*
G04 #@! TF.ProjectId,vancouver-skytrain-pcb,76616e63-6f75-4766-9572-2d736b797472,rev?*
G04 #@! TF.SameCoordinates,Original*
G04 #@! TF.FileFunction,Soldermask,Top*
G04 #@! TF.FilePolarity,Negative*
%FSLAX46Y46*%
G04 Gerber Fmt 4.6, Leading zero omitted, Abs format (unit mm)*
G04 Created by KiCad (PCBNEW 10.0.5) date 2026-09-08 23:02:42*
%MOMM*%
%LPD*%
G01*
G04 APERTURE LIST*
G04 Aperture macros list*
%AMRoundRect*
0 Rectangle with rounded corners*
0 $1 Rounding radius*
0 $2 $3 $4 $5 $6 $7 $8 $9 X,Y pos of 4 corners*
0 Add a 4 corners polygon primitive as box body*
4,1,4,$2,$3,$4,$5,$6,$7,$8,$9,$2,$3,0*
0 Add four circle primitives for the rounded corners*
1,1,$1+$1,$2,$3*
1,1,$1+$1,$4,$5*
1,1,$1+$1,$6,$7*
1,1,$1+$1,$8,$9*
0 Add four rect primitives between the rounded corners*
20,1,$1+$1,$2,$3,$4,$5,0*
20,1,$1+$1,$4,$5,$6,$7,0*
20,1,$1+$1,$6,$7,$8,$9,0*
20,1,$1+$1,$8,$9,$2,$3,0*%
G04 Aperture macros list end*
%ADD10C,0.100000*%
%ADD11C,0.250000*%
%ADD12C,0.191000*%
%ADD13C,1.760000*%
%ADD14RoundRect,0.300000X-0.300000X-0.225000X0.300000X-0.225000X0.300000X0.225000X-0.300000X0.225000X0*%
%ADD15RoundRect,0.200000X-0.400000X-0.325000X0.400000X-0.325000X0.400000X0.325000X-0.400000X0.325000X0*%
%ADD16RoundRect,0.300000X0.300000X0.225000X-0.300000X0.225000X-0.300000X-0.225000X0.300000X-0.225000X0*%
%ADD17RoundRect,0.200000X0.400000X0.325000X-0.400000X0.325000X-0.400000X-0.325000X0.400000X-0.325000X0*%
%ADD18RoundRect,0.340000X0.170000X-0.140000X0.170000X0.140000X-0.170000X0.140000X-0.170000X-0.140000X0*%
%ADD19C,4.000000*%
%ADD20C,6.000000*%
%ADD21RoundRect,0.340000X-0.170000X0.140000X-0.170000X-0.140000X0.170000X-0.140000X0.170000X0.140000X0*%
%ADD22RoundRect,0.340000X-0.140000X-0.170000X0.140000X-0.170000X0.140000X0.170000X-0.140000X0.170000X0*%
%ADD23RoundRect,0.340000X0.140000X0.170000X-0.140000X0.170000X-0.140000X-0.170000X0.140000X-0.170000X0*%
G04 APERTURE END LIST*
D10*
X39180000Y-13240000D02*
X39440000Y-12540000D01*
X38980000Y-11760000D01*
X37930000Y-12080000D01*
X36880000Y-12400000D01*
X37240000Y-13080000D01*
X38080000Y-13560000D01*
X39180000Y-13240000D01*
G36*
X39440000Y-12540000D02*
G01*
X39180000Y-13240000D01*
X38080000Y-13560000D01*
X37240000Y-13080000D01*
X36880000Y-12400000D01*
X37930000Y-12080000D01*
X38980000Y-11760000D01*
X39440000Y-12540000D01*
G37*
X93320000Y-41880000D02*
X93240000Y-41380000D01*
X92260000Y-40440000D01*
X90340000Y-40340000D01*
X89820000Y-40540000D01*
X89520000Y-41120000D01*
X89720000Y-41880000D01*
X90940000Y-42140000D01*
X92160000Y-42400000D01*
X93320000Y-41880000D01*
G36*
X92260000Y-40440000D02*
G01*
X93240000Y-41380000D01*
X93320000Y-41880000D01*
X92160000Y-42400000D01*
X90940000Y-42140000D01*
X89720000Y-41880000D01*
X89520000Y-41120000D01*
X89820000Y-40540000D01*
X90340000Y-40340000D01*
X92260000Y-40440000D01*
G37*
X115880000Y-400000D02*
X116660000Y-1230000D01*
X117440000Y-2180000D01*
X117420000Y-3120000D01*
X117860000Y-3480000D01*
X118580000Y-2080000D01*
X118420000Y-1400000D01*
X118800000Y-400000D01*
X117400000Y-400000D01*
X116000000Y-400000D01*
X115880000Y-400000D01*
G36*
X118420000Y-1400000D02*
G01*
X118580000Y-2080000D01*
X117860000Y-3480000D01*
X117420000Y-3120000D01*
X117440000Y-2180000D01*
X116660000Y-1230000D01*
X115880000Y-400000D01*
X116000000Y-400000D01*
X117400000Y-400000D01*
X118800000Y-400000D01*
X118420000Y-1400000D01*
G37*
X102960000Y-38940000D02*
X101145000Y-38250000D01*
X99330000Y-37560000D01*
X97515000Y-36870000D01*
X95700000Y-36180000D01*
X95240000Y-36320000D01*
X95240000Y-36820000D01*
X96972000Y-37400000D01*
X98704000Y-37980000D01*
X100436000Y-38560000D01*
X102168000Y-39140000D01*
X103900000Y-39720000D01*
X102960000Y-38940000D01*
G36*
X97515000Y-36870000D02*
G01*
X99330000Y-37560000D01*
X101145000Y-38250000D01*
X102960000Y-38940000D01*
X103900000Y-39720000D01*
X102168000Y-39140000D01*
X100436000Y-38560000D01*
X98704000Y-37980000D01*
X96972000Y-37400000D01*
X95240000Y-36820000D01*
X95240000Y-36320000D01*
X95700000Y-36180000D01*
X97515000Y-36870000D01*
G37*
X46560000Y-23920000D02*
X46840000Y-24000000D01*
X47100000Y-24140000D01*
X47180000Y-24180000D01*
X47960000Y-23920000D01*
X49180000Y-23920000D01*
X49180000Y-23840000D01*
X49220000Y-23660000D01*
X49100000Y-23660000D01*
X48820000Y-23600000D01*
X48540000Y-23520000D01*
X48280000Y-23380000D01*
X48040000Y-23220000D01*
X47880000Y-23080000D01*
X47100000Y-23600000D01*
X46240000Y-23780000D01*
X46220000Y-23860000D01*
X46280000Y-23860000D01*
X46560000Y-23920000D01*
G36*
X48040000Y-23220000D02*
G01*
X48280000Y-23380000D01*
X48540000Y-23520000D01*
X48820000Y-23600000D01*
X49100000Y-23660000D01*
X49220000Y-23660000D01*
X49180000Y-23840000D01*
X49180000Y-23920000D01*
X47960000Y-23920000D01*
X47180000Y-24180000D01*
X47100000Y-24140000D01*
X46840000Y-24000000D01*
X46560000Y-23920000D01*
X46280000Y-23860000D01*
X46220000Y-23860000D01*
X46240000Y-23780000D01*
X47100000Y-23600000D01*
X47880000Y-23080000D01*
X48040000Y-23220000D01*
G37*
X45600000Y-10180000D02*
X45860000Y-10400000D01*
X45560000Y-11620000D01*
X44340000Y-11420000D01*
X43640000Y-11880000D01*
X43040000Y-11720000D01*
X42180000Y-12580000D01*
X41340000Y-11760000D01*
X40000000Y-12260000D01*
X39840000Y-12820000D01*
X41300000Y-14060000D01*
X41760000Y-13800000D01*
X42180000Y-14020000D01*
X42100000Y-14600000D01*
X42460000Y-14900000D01*
X42520000Y-14880000D01*
X42780000Y-14740000D01*
X43060000Y-14660000D01*
X43340000Y-14600000D01*
X43620000Y-14580000D01*
X43900000Y-14600000D01*
X44180000Y-14660000D01*
X44460000Y-14740000D01*
X44720000Y-14880000D01*
X44960000Y-15040000D01*
X45180000Y-15220000D01*
X45180000Y-15240000D01*
X45240000Y-15140000D01*
X45400000Y-14900000D01*
X45580000Y-14680000D01*
X45800000Y-14500000D01*
X46040000Y-14340000D01*
X46300000Y-14200000D01*
X46580000Y-14120000D01*
X46860000Y-14060000D01*
X47140000Y-14040000D01*
X47420000Y-14060000D01*
X47700000Y-14120000D01*
X47980000Y-14200000D01*
X48240000Y-14340000D01*
X48480000Y-14500000D01*
X48700000Y-14680000D01*
X48880000Y-14900000D01*
X49040000Y-15140000D01*
X49180000Y-15400000D01*
X49260000Y-15680000D01*
X49320000Y-15960000D01*
X49340000Y-16240000D01*
X49320000Y-16520000D01*
X49260000Y-16800000D01*
X49180000Y-17080000D01*
X49100000Y-17220000D01*
X49920000Y-17280000D01*
X50320000Y-17700000D01*
X51040000Y-17560000D01*
X51220000Y-16900000D01*
X51600000Y-17240000D01*
X52060000Y-17120000D01*
X51160000Y-16340000D01*
X51420000Y-15580000D01*
X52420000Y-15980000D01*
X53420000Y-16380000D01*
X53680000Y-15740000D01*
X54260000Y-15940000D01*
X54500000Y-17620000D01*
X54780000Y-16400000D01*
X55140000Y-16340000D01*
X55220000Y-17860000D01*
X55600000Y-17920000D01*
X55880000Y-17200000D01*
X56220000Y-18000000D01*
X56680000Y-17780000D01*
X56360000Y-17380000D01*
X56640000Y-16840000D01*
X58160000Y-16660000D01*
X58320000Y-15700000D01*
X59360000Y-16020000D01*
X60400000Y-16340000D01*
X60840000Y-15620000D01*
X60920000Y-16960000D01*
X61220000Y-17080000D01*
X61400000Y-15940000D01*
X62060000Y-16680000D01*
X62920000Y-15730000D01*
X63780000Y-14780000D01*
X65230000Y-14180000D01*
X66680000Y-13580000D01*
X67800000Y-13600000D01*
X68560000Y-14380000D01*
X69320000Y-14300000D01*
X70240000Y-15000000D01*
X71600000Y-15220000D01*
X72580000Y-15180000D01*
X73140000Y-14260000D01*
X74660000Y-13960000D01*
X76180000Y-13660000D01*
X77890000Y-13940000D01*
X79600000Y-14220000D01*
X80980000Y-15000000D01*
X82460000Y-15060000D01*
X83930000Y-14130000D01*
X85400000Y-13200000D01*
X86560000Y-12880000D01*
X87807000Y-13680000D01*
X89053000Y-14480000D01*
X90300000Y-15280000D01*
X91200000Y-15240000D01*
X92170000Y-15800000D01*
X93140000Y-16360000D01*
X94400000Y-16020000D01*
X95260000Y-16280000D01*
X96350000Y-15790000D01*
X97440000Y-15300000D01*
X99290000Y-15035000D01*
X101140000Y-14770000D01*
X102990000Y-14505000D01*
X104840000Y-14240000D01*
X106500000Y-14400000D01*
X107330000Y-15140000D01*
X108160000Y-15880000D01*
X109140000Y-15570000D01*
X110120000Y-15260000D01*
X111120000Y-15980000D01*
X112920000Y-16300000D01*
X114280000Y-16000000D01*
X115150000Y-15250000D01*
X116020000Y-14500000D01*
X117380000Y-14680000D01*
X118740000Y-14860000D01*
X119140000Y-14560000D01*
X120750000Y-14470000D01*
X122360000Y-14380000D01*
X123840000Y-15160000D01*
X124827000Y-16427000D01*
X125813000Y-17693000D01*
X126800000Y-18960000D01*
X125980000Y-19540000D01*
X126000000Y-20180000D01*
X127020000Y-20740000D01*
X127160000Y-19740000D01*
X127520000Y-19620000D01*
X128700000Y-19560000D01*
X129320000Y-19960000D01*
X129780000Y-19340000D01*
X129880000Y-19460000D01*
X130080000Y-19340000D01*
X130340000Y-19200000D01*
X130620000Y-19120000D01*
X130900000Y-19060000D01*
X131180000Y-19040000D01*
X131460000Y-19060000D01*
X131740000Y-19120000D01*
X132020000Y-19200000D01*
X132280000Y-19340000D01*
X132520000Y-19500000D01*
X132540000Y-19520000D01*
X133420000Y-19040000D01*
X134160000Y-19660000D01*
X134380000Y-19260000D01*
X134140000Y-18700000D01*
X134480000Y-18280000D01*
X134280000Y-17660000D01*
X133380000Y-17140000D01*
X133020000Y-17780000D01*
X131940000Y-17280000D01*
X132120000Y-16720000D01*
X131780000Y-16100000D01*
X130400000Y-15470000D01*
X129020000Y-14840000D01*
X127640000Y-13600000D01*
X126200000Y-12980000D01*
X124880000Y-11500000D01*
X124120000Y-11860000D01*
X123530000Y-10810000D01*
X122940000Y-9760000D01*
X121660000Y-9700000D01*
X120600000Y-10400000D01*
X118780000Y-10080000D01*
X118140000Y-10960000D01*
X117420000Y-11060000D01*
X116540000Y-11660000D01*
X115660000Y-12260000D01*
X115080000Y-11980000D01*
X114060000Y-12700000D01*
X112260000Y-12720000D01*
X110880000Y-13820000D01*
X109660000Y-13870000D01*
X108440000Y-13920000D01*
X107680000Y-13600000D01*
X106880000Y-11800000D01*
X105460000Y-11600000D01*
X105820000Y-10640000D01*
X105320000Y-9590000D01*
X104820000Y-8540000D01*
X105030000Y-6920000D01*
X105240000Y-5300000D01*
X105620000Y-4800000D01*
X105300000Y-4240000D01*
X105760000Y-3080000D01*
X105460000Y-2000000D01*
X104940000Y-2000000D01*
X104280000Y-2680000D01*
X103780000Y-2280000D01*
X103300000Y-2480000D01*
X103500000Y-1980000D01*
X104480000Y-1720000D01*
X105120000Y-1140000D01*
X105520000Y-560000D01*
X105320000Y-400000D01*
X103910000Y-400000D01*
X102500000Y-400000D01*
X101540000Y-1480000D01*
X100280000Y-1760000D01*
X99960000Y-2040000D01*
X99980000Y-2800000D01*
X98780000Y-3200000D01*
X98880000Y-4440000D01*
X98980000Y-5680000D01*
X98860000Y-6960000D01*
X98740000Y-8240000D01*
X97480000Y-8940000D01*
X96420000Y-10320000D01*
X95540000Y-9670000D01*
X94660000Y-9020000D01*
X94020000Y-9320000D01*
X93320000Y-8940000D01*
X91720000Y-9040000D01*
X90610000Y-8180000D01*
X89500000Y-7320000D01*
X88270000Y-6930000D01*
X87040000Y-6540000D01*
X85960000Y-7040000D01*
X85120000Y-6560000D01*
X83540000Y-6640000D01*
X82640000Y-6860000D01*
X82360000Y-8500000D01*
X81740000Y-8660000D01*
X81560000Y-9460000D01*
X80320000Y-9680000D01*
X80440000Y-11120000D01*
X81960000Y-10860000D01*
X82340000Y-11520000D01*
X81120000Y-11840000D01*
X79900000Y-12160000D01*
X79640000Y-11020000D01*
X79140000Y-10940000D01*
X79000000Y-10360000D01*
X78420000Y-10360000D01*
X78100000Y-10620000D01*
X78320000Y-11680000D01*
X77160000Y-11300000D01*
X76760000Y-12200000D01*
X75880000Y-12220000D01*
X75520000Y-11600000D01*
X75780000Y-10800000D01*
X75000000Y-8980000D01*
X74680000Y-9880000D01*
X75420000Y-11600000D01*
X74820000Y-12420000D01*
X74560000Y-11100000D01*
X74080000Y-11000000D01*
X73960000Y-9860000D01*
X73620000Y-9940000D01*
X73560000Y-10840000D01*
X73080000Y-10980000D01*
X72980000Y-11980000D01*
X71630000Y-11710000D01*
X70280000Y-11440000D01*
X69960000Y-10540000D01*
X70100000Y-9440000D01*
X69380000Y-10820000D01*
X69100000Y-10360000D01*
X67280000Y-9580000D01*
X67860000Y-8680000D01*
X67540000Y-8560000D01*
X66600000Y-9180000D01*
X64920000Y-8380000D01*
X64780000Y-7740000D01*
X63260000Y-8090000D01*
X61740000Y-8440000D01*
X60320000Y-8220000D01*
X59210000Y-7400000D01*
X58100000Y-6580000D01*
X58080000Y-6600000D01*
X57920000Y-6840000D01*
X57740000Y-7060000D01*
X57520000Y-7240000D01*
X57280000Y-7400000D01*
X57020000Y-7540000D01*
X56740000Y-7620000D01*
X56460000Y-7680000D01*
X56180000Y-7700000D01*
X55900000Y-7680000D01*
X55620000Y-7620000D01*
X55340000Y-7540000D01*
X55080000Y-7400000D01*
X54840000Y-7240000D01*
X54620000Y-7060000D01*
X54440000Y-6840000D01*
X54280000Y-6600000D01*
X54140000Y-6340000D01*
X54060000Y-6060000D01*
X54000000Y-5780000D01*
X53980000Y-5500000D01*
X54000000Y-5220000D01*
X54060000Y-4940000D01*
X54140000Y-4660000D01*
X54280000Y-4400000D01*
X54440000Y-4160000D01*
X54620000Y-3940000D01*
X54720000Y-3860000D01*
X54200000Y-3500000D01*
X53660000Y-4220000D01*
X52120000Y-4220000D01*
X50580000Y-4220000D01*
X49960000Y-3840000D01*
X48960000Y-3880000D01*
X48680000Y-5380000D01*
X47900000Y-5560000D01*
X46800000Y-5320000D01*
X47020000Y-4020000D01*
X46420000Y-4380000D01*
X45860000Y-4080000D01*
X45980000Y-5120000D01*
X46480000Y-5680000D01*
X46300000Y-6480000D01*
X44740000Y-5280000D01*
X44340000Y-5380000D01*
X43350000Y-4860000D01*
X42360000Y-4340000D01*
X41510000Y-3680000D01*
X40660000Y-3020000D01*
X40700000Y-1980000D01*
X39300000Y-2420000D01*
X39160000Y-620000D01*
X38580000Y-660000D01*
X38380000Y-400000D01*
X36469000Y-400000D01*
X34558000Y-400000D01*
X32647000Y-400000D01*
X30736000Y-400000D01*
X28825000Y-400000D01*
X26914000Y-400000D01*
X25003000Y-400000D01*
X23092000Y-400000D01*
X21181000Y-400000D01*
X19270000Y-400000D01*
X17359000Y-400000D01*
X15448000Y-400000D01*
X13537000Y-400000D01*
X11626000Y-400000D01*
X9715000Y-400000D01*
X7804000Y-400000D01*
X5893000Y-400000D01*
X4006000Y-509000D01*
X2529000Y-1120000D01*
X1747000Y-1747000D01*
X1198000Y-2411000D01*
X565000Y-3781000D01*
X400000Y-5603000D01*
X400000Y-7471000D01*
X400000Y-9338000D01*
X400000Y-11206000D01*
X400000Y-13074000D01*
X400000Y-14942000D01*
X400000Y-16809000D01*
X400000Y-18677000D01*
X400000Y-20545000D01*
X400000Y-22412000D01*
X400000Y-24280000D01*
X580000Y-24220000D01*
X1627000Y-23160000D01*
X2673000Y-22100000D01*
X3720000Y-21040000D01*
X4810000Y-20660000D01*
X5900000Y-20280000D01*
X7240000Y-20300000D01*
X8200000Y-20720000D01*
X9120000Y-20480000D01*
X10833000Y-20793000D01*
X12547000Y-21107000D01*
X14260000Y-21420000D01*
X15160000Y-21960000D01*
X16060000Y-22500000D01*
X17460000Y-22220000D01*
X18860000Y-21940000D01*
X20060000Y-22520000D01*
X21240000Y-23760000D01*
X22720000Y-23680000D01*
X23300000Y-23320000D01*
X24920000Y-23627000D01*
X26540000Y-23933000D01*
X28160000Y-24240000D01*
X29020000Y-24140000D01*
X29990000Y-23610000D01*
X30960000Y-23080000D01*
X31920000Y-22940000D01*
X33500000Y-23300000D01*
X34030000Y-22300000D01*
X34560000Y-21300000D01*
X35500000Y-21300000D01*
X35900000Y-20920000D01*
X36520000Y-21160000D01*
X37120000Y-20780000D01*
X38140000Y-21340000D01*
X38480000Y-21920000D01*
X38900000Y-22900000D01*
X38480000Y-23620000D01*
X38720000Y-24500000D01*
X39260000Y-24660000D01*
X39400000Y-23720000D01*
X39840000Y-23540000D01*
X41000000Y-24660000D01*
X41360000Y-25720000D01*
X40600000Y-25920000D01*
X41060000Y-26340000D01*
X41780000Y-25940000D01*
X43240000Y-26160000D01*
X43820000Y-25880000D01*
X43820000Y-25760000D01*
X43860000Y-25520000D01*
X43800000Y-25520000D01*
X43520000Y-25460000D01*
X43240000Y-25380000D01*
X42980000Y-25240000D01*
X42740000Y-25080000D01*
X42520000Y-24900000D01*
X42440000Y-24800000D01*
X41560000Y-24260000D01*
X40180000Y-23020000D01*
X39220000Y-21610000D01*
X38260000Y-20200000D01*
X37720000Y-19190000D01*
X37180000Y-18180000D01*
X37210000Y-17170000D01*
X37240000Y-16160000D01*
X36100000Y-15400000D01*
X35260000Y-14140000D01*
X35100000Y-13080000D01*
X34400000Y-12800000D01*
X33880000Y-11760000D01*
X32800000Y-11620000D01*
X32500000Y-10060000D01*
X33060000Y-9540000D01*
X33220000Y-7990000D01*
X33380000Y-6440000D01*
X34350000Y-5470000D01*
X35320000Y-4500000D01*
X36590000Y-4160000D01*
X37860000Y-3820000D01*
X38680000Y-4840000D01*
X39500000Y-5860000D01*
X39840000Y-7220000D01*
X40980000Y-8120000D01*
X41280000Y-8880000D01*
X41820000Y-9280000D01*
X42700000Y-9320000D01*
X43520000Y-9960000D01*
X44340000Y-10600000D01*
X45080000Y-10680000D01*
X45600000Y-10180000D01*
G36*
X38580000Y-660000D02*
G01*
X39160000Y-620000D01*
X39300000Y-2420000D01*
X40700000Y-1980000D01*
X40660000Y-3020000D01*
X41510000Y-3680000D01*
X42360000Y-4340000D01*
X43350000Y-4860000D01*
X44340000Y-5380000D01*
X44740000Y-5280000D01*
X46300000Y-6480000D01*
X46480000Y-5680000D01*
X45980000Y-5120000D01*
X45860000Y-4080000D01*
X46420000Y-4380000D01*
X47020000Y-4020000D01*
X46800000Y-5320000D01*
X47900000Y-5560000D01*
X48680000Y-5380000D01*
X48960000Y-3880000D01*
X49960000Y-3840000D01*
X50580000Y-4220000D01*
X52120000Y-4220000D01*
X53660000Y-4220000D01*
X54200000Y-3500000D01*
X54720000Y-3860000D01*
X54620000Y-3940000D01*
X54440000Y-4160000D01*
X54280000Y-4400000D01*
X54140000Y-4660000D01*
X54060000Y-4940000D01*
X54000000Y-5220000D01*
X53980000Y-5500000D01*
X54000000Y-5780000D01*
X54060000Y-6060000D01*
X54140000Y-6340000D01*
X54280000Y-6600000D01*
X54440000Y-6840000D01*
X54620000Y-7060000D01*
X54840000Y-7240000D01*
X55080000Y-7400000D01*
X55340000Y-7540000D01*
X55620000Y-7620000D01*
X55900000Y-7680000D01*
X56180000Y-7700000D01*
X56460000Y-7680000D01*
X56740000Y-7620000D01*
X57020000Y-7540000D01*
X57280000Y-7400000D01*
X57520000Y-7240000D01*
X57740000Y-7060000D01*
X57920000Y-6840000D01*
X58080000Y-6600000D01*
X58100000Y-6580000D01*
X59210000Y-7400000D01*
X60320000Y-8220000D01*
X61740000Y-8440000D01*
X63260000Y-8090000D01*
X64780000Y-7740000D01*
X64920000Y-8380000D01*
X66600000Y-9180000D01*
X67540000Y-8560000D01*
X67860000Y-8680000D01*
X67280000Y-9580000D01*
X69100000Y-10360000D01*
X69380000Y-10820000D01*
X70100000Y-9440000D01*
X69960000Y-10540000D01*
X70280000Y-11440000D01*
X71630000Y-11710000D01*
X72980000Y-11980000D01*
X73080000Y-10980000D01*
X73560000Y-10840000D01*
X73620000Y-9940000D01*
X73960000Y-9860000D01*
X74080000Y-11000000D01*
X74560000Y-11100000D01*
X74820000Y-12420000D01*
X75420000Y-11600000D01*
X74680000Y-9880000D01*
X75000000Y-8980000D01*
X75780000Y-10800000D01*
X75520000Y-11600000D01*
X75880000Y-12220000D01*
X76760000Y-12200000D01*
X77160000Y-11300000D01*
X78320000Y-11680000D01*
X78100000Y-10620000D01*
X78420000Y-10360000D01*
X79000000Y-10360000D01*
X79140000Y-10940000D01*
X79640000Y-11020000D01*
X79900000Y-12160000D01*
X81120000Y-11840000D01*
X82340000Y-11520000D01*
X81960000Y-10860000D01*
X80440000Y-11120000D01*
X80320000Y-9680000D01*
X81560000Y-9460000D01*
X81740000Y-8660000D01*
X82360000Y-8500000D01*
X82640000Y-6860000D01*
X83540000Y-6640000D01*
X85120000Y-6560000D01*
X85960000Y-7040000D01*
X87040000Y-6540000D01*
X88270000Y-6930000D01*
X89500000Y-7320000D01*
X90610000Y-8180000D01*
X91720000Y-9040000D01*
X93320000Y-8940000D01*
X94020000Y-9320000D01*
X94660000Y-9020000D01*
X95540000Y-9670000D01*
X96420000Y-10320000D01*
X97480000Y-8940000D01*
X98740000Y-8240000D01*
X98860000Y-6960000D01*
X98980000Y-5680000D01*
X98880000Y-4440000D01*
X98780000Y-3200000D01*
X99980000Y-2800000D01*
X99960000Y-2040000D01*
X100280000Y-1760000D01*
X101540000Y-1480000D01*
X102500000Y-400000D01*
X103910000Y-400000D01*
X105320000Y-400000D01*
X105520000Y-560000D01*
X105120000Y-1140000D01*
X104480000Y-1720000D01*
X103500000Y-1980000D01*
X103300000Y-2480000D01*
X103780000Y-2280000D01*
X104280000Y-2680000D01*
X104940000Y-2000000D01*
X105460000Y-2000000D01*
X105760000Y-3080000D01*
X105300000Y-4240000D01*
X105620000Y-4800000D01*
X105240000Y-5300000D01*
X105030000Y-6920000D01*
X104820000Y-8540000D01*
X105320000Y-9590000D01*
X105820000Y-10640000D01*
X105460000Y-11600000D01*
X106880000Y-11800000D01*
X107680000Y-13600000D01*
X108440000Y-13920000D01*
X109660000Y-13870000D01*
X110880000Y-13820000D01*
X112260000Y-12720000D01*
X114060000Y-12700000D01*
X115080000Y-11980000D01*
X115660000Y-12260000D01*
X116540000Y-11660000D01*
X117420000Y-11060000D01*
X118140000Y-10960000D01*
X118780000Y-10080000D01*
X120600000Y-10400000D01*
X121660000Y-9700000D01*
X122940000Y-9760000D01*
X123530000Y-10810000D01*
X124120000Y-11860000D01*
X124880000Y-11500000D01*
X126200000Y-12980000D01*
X127640000Y-13600000D01*
X129020000Y-14840000D01*
X130400000Y-15470000D01*
X131780000Y-16100000D01*
X132120000Y-16720000D01*
X131940000Y-17280000D01*
X133020000Y-17780000D01*
X133380000Y-17140000D01*
X134280000Y-17660000D01*
X134480000Y-18280000D01*
X134140000Y-18700000D01*
X134380000Y-19260000D01*
X134160000Y-19660000D01*
X133420000Y-19040000D01*
X132540000Y-19520000D01*
X132520000Y-19500000D01*
X132280000Y-19340000D01*
X132020000Y-19200000D01*
X131740000Y-19120000D01*
X131460000Y-19060000D01*
X131180000Y-19040000D01*
X130900000Y-19060000D01*
X130620000Y-19120000D01*
X130340000Y-19200000D01*
X130080000Y-19340000D01*
X129880000Y-19460000D01*
X129780000Y-19340000D01*
X129320000Y-19960000D01*
X128700000Y-19560000D01*
X127520000Y-19620000D01*
X127160000Y-19740000D01*
X127020000Y-20740000D01*
X126000000Y-20180000D01*
X125980000Y-19540000D01*
X126800000Y-18960000D01*
X125813000Y-17693000D01*
X124827000Y-16427000D01*
X123840000Y-15160000D01*
X122360000Y-14380000D01*
X120750000Y-14470000D01*
X119140000Y-14560000D01*
X118740000Y-14860000D01*
X117380000Y-14680000D01*
X116020000Y-14500000D01*
X115150000Y-15250000D01*
X114280000Y-16000000D01*
X112920000Y-16300000D01*
X111120000Y-15980000D01*
X110120000Y-15260000D01*
X109140000Y-15570000D01*
X108160000Y-15880000D01*
X107330000Y-15140000D01*
X106500000Y-14400000D01*
X104840000Y-14240000D01*
X102990000Y-14505000D01*
X101140000Y-14770000D01*
X99290000Y-15035000D01*
X97440000Y-15300000D01*
X96350000Y-15790000D01*
X95260000Y-16280000D01*
X94400000Y-16020000D01*
X93140000Y-16360000D01*
X92170000Y-15800000D01*
X91200000Y-15240000D01*
X90300000Y-15280000D01*
X89053000Y-14480000D01*
X87807000Y-13680000D01*
X86560000Y-12880000D01*
X85400000Y-13200000D01*
X83930000Y-14130000D01*
X82460000Y-15060000D01*
X80980000Y-15000000D01*
X79600000Y-14220000D01*
X77890000Y-13940000D01*
X76180000Y-13660000D01*
X74660000Y-13960000D01*
X73140000Y-14260000D01*
X72580000Y-15180000D01*
X71600000Y-15220000D01*
X70240000Y-15000000D01*
X69320000Y-14300000D01*
X68560000Y-14380000D01*
X67800000Y-13600000D01*
X66680000Y-13580000D01*
X65230000Y-14180000D01*
X63780000Y-14780000D01*
X62920000Y-15730000D01*
X62060000Y-16680000D01*
X61400000Y-15940000D01*
X61220000Y-17080000D01*
X60920000Y-16960000D01*
X60840000Y-15620000D01*
X60400000Y-16340000D01*
X59360000Y-16020000D01*
X58320000Y-15700000D01*
X58160000Y-16660000D01*
X56640000Y-16840000D01*
X56360000Y-17380000D01*
X56680000Y-17780000D01*
X56220000Y-18000000D01*
X55880000Y-17200000D01*
X55600000Y-17920000D01*
X55220000Y-17860000D01*
X55140000Y-16340000D01*
X54780000Y-16400000D01*
X54500000Y-17620000D01*
X54260000Y-15940000D01*
X53680000Y-15740000D01*
X53420000Y-16380000D01*
X52420000Y-15980000D01*
X51420000Y-15580000D01*
X51160000Y-16340000D01*
X52060000Y-17120000D01*
X51600000Y-17240000D01*
X51220000Y-16900000D01*
X51040000Y-17560000D01*
X50320000Y-17700000D01*
X49920000Y-17280000D01*
X49100000Y-17220000D01*
X49180000Y-17080000D01*
X49260000Y-16800000D01*
X49320000Y-16520000D01*
X49340000Y-16240000D01*
X49320000Y-15960000D01*
X49260000Y-15680000D01*
X49180000Y-15400000D01*
X49040000Y-15140000D01*
X48880000Y-14900000D01*
X48700000Y-14680000D01*
X48480000Y-14500000D01*
X48240000Y-14340000D01*
X47980000Y-14200000D01*
X47700000Y-14120000D01*
X47420000Y-14060000D01*
X47140000Y-14040000D01*
X46860000Y-14060000D01*
X46580000Y-14120000D01*
X46300000Y-14200000D01*
X46040000Y-14340000D01*
X45800000Y-14500000D01*
X45580000Y-14680000D01*
X45400000Y-14900000D01*
X45240000Y-15140000D01*
X45180000Y-15240000D01*
X45180000Y-15220000D01*
X44960000Y-15040000D01*
X44720000Y-14880000D01*
X44460000Y-14740000D01*
X44180000Y-14660000D01*
X43900000Y-14600000D01*
X43620000Y-14580000D01*
X43340000Y-14600000D01*
X43060000Y-14660000D01*
X42780000Y-14740000D01*
X42520000Y-14880000D01*
X42460000Y-14900000D01*
X42100000Y-14600000D01*
X42180000Y-14020000D01*
X41760000Y-13800000D01*
X41300000Y-14060000D01*
X39840000Y-12820000D01*
X40000000Y-12260000D01*
X41340000Y-11760000D01*
X42180000Y-12580000D01*
X43040000Y-11720000D01*
X43640000Y-11880000D01*
X44340000Y-11420000D01*
X45560000Y-11620000D01*
X45860000Y-10400000D01*
X45600000Y-10180000D01*
X45080000Y-10680000D01*
X44340000Y-10600000D01*
X43520000Y-9960000D01*
X42700000Y-9320000D01*
X41820000Y-9280000D01*
X41280000Y-8880000D01*
X40980000Y-8120000D01*
X39840000Y-7220000D01*
X39500000Y-5860000D01*
X38680000Y-4840000D01*
X37860000Y-3820000D01*
X36590000Y-4160000D01*
X35320000Y-4500000D01*
X34350000Y-5470000D01*
X33380000Y-6440000D01*
X33220000Y-7990000D01*
X33060000Y-9540000D01*
X32500000Y-10060000D01*
X32800000Y-11620000D01*
X33880000Y-11760000D01*
X34400000Y-12800000D01*
X35100000Y-13080000D01*
X35260000Y-14140000D01*
X36100000Y-15400000D01*
X37240000Y-16160000D01*
X37210000Y-17170000D01*
X37180000Y-18180000D01*
X37720000Y-19190000D01*
X38260000Y-20200000D01*
X39220000Y-21610000D01*
X40180000Y-23020000D01*
X41560000Y-24260000D01*
X42440000Y-24800000D01*
X42520000Y-24900000D01*
X42740000Y-25080000D01*
X42980000Y-25240000D01*
X43240000Y-25380000D01*
X43520000Y-25460000D01*
X43800000Y-25520000D01*
X43860000Y-25520000D01*
X43820000Y-25760000D01*
X43820000Y-25880000D01*
X43240000Y-26160000D01*
X41780000Y-25940000D01*
X41060000Y-26340000D01*
X40600000Y-25920000D01*
X41360000Y-25720000D01*
X41000000Y-24660000D01*
X39840000Y-23540000D01*
X39400000Y-23720000D01*
X39260000Y-24660000D01*
X38720000Y-24500000D01*
X38480000Y-23620000D01*
X38900000Y-22900000D01*
X38480000Y-21920000D01*
X38140000Y-21340000D01*
X37120000Y-20780000D01*
X36520000Y-21160000D01*
X35900000Y-20920000D01*
X35500000Y-21300000D01*
X34560000Y-21300000D01*
X34030000Y-22300000D01*
X33500000Y-23300000D01*
X31920000Y-22940000D01*
X30960000Y-23080000D01*
X29990000Y-23610000D01*
X29020000Y-24140000D01*
X28160000Y-24240000D01*
X26540000Y-23933000D01*
X24920000Y-23627000D01*
X23300000Y-23320000D01*
X22720000Y-23680000D01*
X21240000Y-23760000D01*
X20060000Y-22520000D01*
X18860000Y-21940000D01*
X17460000Y-22220000D01*
X16060000Y-22500000D01*
X15160000Y-21960000D01*
X14260000Y-21420000D01*
X12547000Y-21107000D01*
X10833000Y-20793000D01*
X9120000Y-20480000D01*
X8200000Y-20720000D01*
X7240000Y-20300000D01*
X5900000Y-20280000D01*
X4810000Y-20660000D01*
X3720000Y-21040000D01*
X2673000Y-22100000D01*
X1627000Y-23160000D01*
X580000Y-24220000D01*
X400000Y-24280000D01*
X400000Y-22412000D01*
X400000Y-20545000D01*
X400000Y-18677000D01*
X400000Y-16809000D01*
X400000Y-14942000D01*
X400000Y-13074000D01*
X400000Y-11206000D01*
X400000Y-9338000D01*
X400000Y-7471000D01*
X400000Y-5603000D01*
X565000Y-3781000D01*
X1198000Y-2411000D01*
X1747000Y-1747000D01*
X2529000Y-1120000D01*
X4006000Y-509000D01*
X5893000Y-400000D01*
X7804000Y-400000D01*
X9715000Y-400000D01*
X11626000Y-400000D01*
X13537000Y-400000D01*
X15448000Y-400000D01*
X17359000Y-400000D01*
X19270000Y-400000D01*
X21181000Y-400000D01*
X23092000Y-400000D01*
X25003000Y-400000D01*
X26914000Y-400000D01*
X28825000Y-400000D01*
X30736000Y-400000D01*
X32647000Y-400000D01*
X34558000Y-400000D01*
X36469000Y-400000D01*
X38380000Y-400000D01*
X38580000Y-660000D01*
G37*
X100680000Y-79080000D02*
X100360000Y-77420000D01*
X99900000Y-77260000D01*
X98540000Y-78260000D01*
X97480000Y-78540000D01*
X95507000Y-78340000D01*
X93533000Y-78140000D01*
X91560000Y-77940000D01*
X90193000Y-78153000D01*
X88827000Y-78367000D01*
X87460000Y-78580000D01*
X87140000Y-78360000D01*
X88030000Y-77560000D01*
X88920000Y-76760000D01*
X90480000Y-76100000D01*
X92040000Y-75440000D01*
X93600000Y-74780000D01*
X94430000Y-73410000D01*
X95260000Y-72040000D01*
X96560000Y-70920000D01*
X96940000Y-70840000D01*
X97280000Y-71380000D01*
X97480000Y-70840000D01*
X99160000Y-70240000D01*
X100527000Y-69347000D01*
X101893000Y-68453000D01*
X103260000Y-67560000D01*
X104440000Y-67300000D01*
X104340000Y-66980000D01*
X103360000Y-67020000D01*
X103580000Y-66220000D01*
X105120000Y-65300000D01*
X106007000Y-64200000D01*
X106893000Y-63100000D01*
X107780000Y-62000000D01*
X108240000Y-61820000D01*
X107850000Y-63300000D01*
X107460000Y-64780000D01*
X106876000Y-66324000D01*
X106292000Y-67868000D01*
X105708000Y-69412000D01*
X105124000Y-70956000D01*
X104540000Y-72500000D01*
X103870000Y-73450000D01*
X103200000Y-74400000D01*
X102020000Y-75430000D01*
X100840000Y-76460000D01*
X100360000Y-77420000D01*
X100680000Y-79080000D01*
X101520000Y-78740000D01*
X102700000Y-77440000D01*
X103880000Y-76140000D01*
X104790000Y-75490000D01*
X105700000Y-74840000D01*
X106310000Y-73830000D01*
X106920000Y-72820000D01*
X107500000Y-70953000D01*
X108080000Y-69087000D01*
X108660000Y-67220000D01*
X109100000Y-66860000D01*
X109580000Y-65690000D01*
X110060000Y-64520000D01*
X110910000Y-63150000D01*
X111760000Y-61780000D01*
X113000000Y-60470000D01*
X114240000Y-59160000D01*
X114540000Y-58260000D01*
X115720000Y-56750000D01*
X116900000Y-55240000D01*
X117850000Y-54280000D01*
X118800000Y-53320000D01*
X118850000Y-52280000D01*
X118900000Y-51240000D01*
X118420000Y-51000000D01*
X117700000Y-51400000D01*
X117520000Y-50940000D01*
X117960000Y-49920000D01*
X118800000Y-49240000D01*
X119640000Y-48560000D01*
X120690000Y-48350000D01*
X121740000Y-48140000D01*
X123240000Y-48280000D01*
X122080000Y-48900000D01*
X121160000Y-50160000D01*
X120420000Y-50260000D01*
X118900000Y-51240000D01*
X118850000Y-52280000D01*
X118800000Y-53320000D01*
X120120000Y-52490000D01*
X121440000Y-51660000D01*
X123173000Y-51387000D01*
X124907000Y-51113000D01*
X126640000Y-50840000D01*
X128225000Y-50810000D01*
X129810000Y-50780000D01*
X131395000Y-50750000D01*
X132980000Y-50720000D01*
X134620000Y-50540000D01*
X136260000Y-50360000D01*
X137900000Y-50180000D01*
X139720000Y-50513000D01*
X141540000Y-50847000D01*
X143360000Y-51180000D01*
X145180000Y-51513000D01*
X147000000Y-51847000D01*
X148820000Y-52180000D01*
X150640000Y-52513000D01*
X152460000Y-52847000D01*
X154280000Y-53180000D01*
X156213000Y-52920000D01*
X158147000Y-52660000D01*
X160080000Y-52400000D01*
X161480000Y-52610000D01*
X162880000Y-52820000D01*
X164470000Y-53600000D01*
X166060000Y-54380000D01*
X166800000Y-55280000D01*
X167540000Y-56180000D01*
X167920000Y-57570000D01*
X168300000Y-58960000D01*
X168460000Y-60520000D01*
X168620000Y-62080000D01*
X168780000Y-63640000D01*
X169720000Y-65300000D01*
X170790000Y-66050000D01*
X171860000Y-66800000D01*
X173250000Y-67210000D01*
X174640000Y-67620000D01*
X176147000Y-67460000D01*
X177653000Y-67300000D01*
X179160000Y-67140000D01*
X181090000Y-66630000D01*
X183020000Y-66120000D01*
X184597000Y-65060000D01*
X186175000Y-64000000D01*
X187752000Y-62940000D01*
X189330000Y-61880000D01*
X190907000Y-60820000D01*
X192485000Y-59760000D01*
X194062000Y-58700000D01*
X195640000Y-57640000D01*
X197093000Y-56867000D01*
X198547000Y-56093000D01*
X199600000Y-55320000D01*
X199600000Y-53440000D01*
X198513000Y-53960000D01*
X197187000Y-54480000D01*
X195860000Y-55000000D01*
X194593000Y-55800000D01*
X193327000Y-56600000D01*
X192060000Y-57400000D01*
X190400000Y-58040000D01*
X188740000Y-58680000D01*
X187520000Y-58850000D01*
X186300000Y-59020000D01*
X185850000Y-60400000D01*
X185400000Y-61780000D01*
X185480000Y-62180000D01*
X184230000Y-63320000D01*
X182980000Y-64460000D01*
X181440000Y-65090000D01*
X179900000Y-65720000D01*
X178313000Y-65893000D01*
X176727000Y-66067000D01*
X175140000Y-66240000D01*
X173790000Y-65990000D01*
X172440000Y-65740000D01*
X171570000Y-65080000D01*
X170700000Y-64420000D01*
X169800000Y-62880000D01*
X169580000Y-60960000D01*
X169360000Y-59040000D01*
X169140000Y-57120000D01*
X168750000Y-55850000D01*
X168360000Y-54580000D01*
X168660000Y-54360000D01*
X170113000Y-54680000D01*
X171567000Y-55000000D01*
X173020000Y-55320000D01*
X174405000Y-56220000D01*
X175790000Y-57120000D01*
X177175000Y-58020000D01*
X178560000Y-58920000D01*
X180067000Y-59500000D01*
X181573000Y-60080000D01*
X183080000Y-60660000D01*
X184240000Y-61220000D01*
X185400000Y-61780000D01*
X185850000Y-60400000D01*
X186300000Y-59020000D01*
X185110000Y-58870000D01*
X183920000Y-58720000D01*
X182690000Y-58300000D01*
X181460000Y-57880000D01*
X179776000Y-57052000D01*
X178092000Y-56224000D01*
X176408000Y-55396000D01*
X174724000Y-54568000D01*
X173040000Y-53740000D01*
X171613000Y-53400000D01*
X170187000Y-53060000D01*
X168760000Y-52720000D01*
X167507000Y-52173000D01*
X166253000Y-51627000D01*
X165000000Y-51080000D01*
X163547000Y-50673000D01*
X162093000Y-50267000D01*
X160640000Y-49860000D01*
X159840000Y-48890000D01*
X159040000Y-47920000D01*
X158260000Y-46600000D01*
X157480000Y-45280000D01*
X157760000Y-43940000D01*
X158600000Y-42820000D01*
X160044000Y-42040000D01*
X161488000Y-41260000D01*
X162932000Y-40480000D01*
X164376000Y-39700000D01*
X165820000Y-38920000D01*
X166650000Y-38210000D01*
X167480000Y-37500000D01*
X168100000Y-36100000D01*
X169210000Y-35380000D01*
X170320000Y-34660000D01*
X171290000Y-33600000D01*
X172260000Y-32540000D01*
X172850000Y-31030000D01*
X173440000Y-29520000D01*
X174030000Y-28010000D01*
X174620000Y-26500000D01*
X175690000Y-24860000D01*
X176760000Y-23220000D01*
X177767000Y-22133000D01*
X178773000Y-21047000D01*
X179780000Y-19960000D01*
X181200000Y-19060000D01*
X182620000Y-18160000D01*
X184040000Y-17260000D01*
X185050000Y-17130000D01*
X186060000Y-17000000D01*
X187070000Y-16650000D01*
X188080000Y-16300000D01*
X189400000Y-15160000D01*
X190720000Y-14020000D01*
X190420000Y-12270000D01*
X190120000Y-10520000D01*
X188720000Y-9920000D01*
X187320000Y-9320000D01*
X186400000Y-8420000D01*
X185480000Y-7520000D01*
X184740000Y-6040000D01*
X184560000Y-4740000D01*
X185080000Y-3320000D01*
X186160000Y-1920000D01*
X187480000Y-920000D01*
X187800000Y-400000D01*
X186360000Y-400000D01*
X185180000Y-1050000D01*
X184000000Y-2080000D01*
X184000000Y-3700000D01*
X183260000Y-4460000D01*
X183360000Y-5220000D01*
X182880000Y-6660000D01*
X183440000Y-8000000D01*
X184000000Y-9340000D01*
X184560000Y-10680000D01*
X185860000Y-11620000D01*
X187760000Y-12240000D01*
X188700000Y-12120000D01*
X189200000Y-12640000D01*
X189120000Y-13240000D01*
X187620000Y-14000000D01*
X185925000Y-14430000D01*
X184230000Y-14860000D01*
X182535000Y-15290000D01*
X180840000Y-15720000D01*
X179193000Y-16513000D01*
X177547000Y-17307000D01*
X175900000Y-18100000D01*
X175150000Y-19010000D01*
X174400000Y-19920000D01*
X173910000Y-21640000D01*
X173420000Y-23360000D01*
X172713000Y-24647000D01*
X172007000Y-25933000D01*
X171300000Y-27220000D01*
X170727000Y-28807000D01*
X170153000Y-30393000D01*
X169580000Y-31980000D01*
X168400000Y-33590000D01*
X167220000Y-35200000D01*
X165860000Y-36280000D01*
X164560000Y-36700000D01*
X163260000Y-37120000D01*
X162020000Y-37920000D01*
X160780000Y-38720000D01*
X159540000Y-39520000D01*
X158450000Y-40470000D01*
X157360000Y-41420000D01*
X156540000Y-41740000D01*
X155587000Y-42767000D01*
X154633000Y-43793000D01*
X153680000Y-44820000D01*
X153060000Y-46140000D01*
X154460000Y-46310000D01*
X155860000Y-46480000D01*
X156693000Y-47667000D01*
X157527000Y-48853000D01*
X158360000Y-50040000D01*
X157880000Y-50520000D01*
X155980000Y-50970000D01*
X154080000Y-51420000D01*
X152595000Y-51050000D01*
X151110000Y-50680000D01*
X149625000Y-50310000D01*
X148140000Y-49940000D01*
X148060000Y-49660000D01*
X149020000Y-48740000D01*
X149980000Y-47820000D01*
X151520000Y-46980000D01*
X153060000Y-46140000D01*
X153680000Y-44820000D01*
X152160000Y-45280000D01*
X150640000Y-45740000D01*
X148890000Y-45940000D01*
X147140000Y-46140000D01*
X145660000Y-47140000D01*
X144780000Y-46620000D01*
X143720000Y-46620000D01*
X142085000Y-47055000D01*
X140450000Y-47490000D01*
X138815000Y-47925000D01*
X137180000Y-48360000D01*
X135590000Y-48310000D01*
X134000000Y-48260000D01*
X132250000Y-47885000D01*
X130500000Y-47510000D01*
X128750000Y-47135000D01*
X127000000Y-46760000D01*
X125370000Y-46600000D01*
X123740000Y-46440000D01*
X121830000Y-46730000D01*
X119920000Y-47020000D01*
X119500000Y-47240000D01*
X119440000Y-47520000D01*
X119360000Y-47800000D01*
X119220000Y-48060000D01*
X119060000Y-48300000D01*
X118880000Y-48520000D01*
X118660000Y-48700000D01*
X118420000Y-48860000D01*
X118160000Y-49000000D01*
X117880000Y-49080000D01*
X117600000Y-49140000D01*
X117320000Y-49160000D01*
X117040000Y-49140000D01*
X116940000Y-49120000D01*
X116600000Y-49460000D01*
X116320000Y-50580000D01*
X116040000Y-51700000D01*
X115200000Y-53500000D01*
X114360000Y-55300000D01*
X114320000Y-55340000D01*
X114380000Y-55440000D01*
X114460000Y-55720000D01*
X114520000Y-56000000D01*
X114540000Y-56280000D01*
X114520000Y-56560000D01*
X114460000Y-56840000D01*
X114380000Y-57120000D01*
X114240000Y-57380000D01*
X114080000Y-57620000D01*
X113900000Y-57840000D01*
X113680000Y-58020000D01*
X113440000Y-58180000D01*
X113180000Y-58320000D01*
X112900000Y-58400000D01*
X112620000Y-58460000D01*
X112340000Y-58480000D01*
X112060000Y-58460000D01*
X111940000Y-58440000D01*
X111920000Y-58660000D01*
X111860000Y-58940000D01*
X111780000Y-59220000D01*
X111640000Y-59480000D01*
X111480000Y-59720000D01*
X111300000Y-59940000D01*
X111080000Y-60120000D01*
X110840000Y-60280000D01*
X110580000Y-60420000D01*
X110300000Y-60500000D01*
X110020000Y-60560000D01*
X109740000Y-60580000D01*
X109460000Y-60560000D01*
X109180000Y-60500000D01*
X108900000Y-60420000D01*
X108640000Y-60280000D01*
X108400000Y-60120000D01*
X108180000Y-59940000D01*
X108060000Y-59800000D01*
X107040000Y-59780000D01*
X105810000Y-59170000D01*
X104580000Y-58560000D01*
X103260000Y-58320000D01*
X101360000Y-58820000D01*
X100720000Y-59240000D01*
X100680000Y-59360000D01*
X100600000Y-59640000D01*
X100460000Y-59900000D01*
X100300000Y-60140000D01*
X100120000Y-60340000D01*
X101240000Y-60200000D01*
X102940000Y-60410000D01*
X104640000Y-60620000D01*
X106100000Y-60380000D01*
X107360000Y-60960000D01*
X107060000Y-61820000D01*
X106120000Y-62930000D01*
X105180000Y-64040000D01*
X103973000Y-65067000D01*
X102767000Y-66093000D01*
X101560000Y-67120000D01*
X100075000Y-68005000D01*
X98590000Y-68890000D01*
X97105000Y-69775000D01*
X95620000Y-70660000D01*
X94713000Y-71727000D01*
X93807000Y-72793000D01*
X92900000Y-73860000D01*
X91184000Y-74504000D01*
X89468000Y-75148000D01*
X87752000Y-75792000D01*
X86036000Y-76436000D01*
X84320000Y-77080000D01*
X83710000Y-78020000D01*
X83100000Y-78960000D01*
X81710000Y-79680000D01*
X80320000Y-80400000D01*
X78588000Y-80872000D01*
X76856000Y-81344000D01*
X75124000Y-81816000D01*
X73392000Y-82288000D01*
X71660000Y-82760000D01*
X70410000Y-83350000D01*
X69160000Y-83940000D01*
X67960000Y-84760000D01*
X66760000Y-85580000D01*
X65720000Y-86915000D01*
X64680000Y-88250000D01*
X63640000Y-89585000D01*
X62600000Y-90920000D01*
X61525000Y-92040000D01*
X60450000Y-93160000D01*
X59375000Y-94280000D01*
X58300000Y-95400000D01*
X57270000Y-95770000D01*
X56240000Y-96140000D01*
X55900000Y-94880000D01*
X55480000Y-94820000D01*
X55000000Y-95200000D01*
X55440000Y-96180000D01*
X55160000Y-96780000D01*
X54460000Y-97040000D01*
X54120000Y-96780000D01*
X52340000Y-97460000D01*
X50692000Y-98324000D01*
X49044000Y-99188000D01*
X47396000Y-100052000D01*
X45748000Y-100916000D01*
X44100000Y-101780000D01*
X42790000Y-102010000D01*
X41480000Y-102240000D01*
X40080000Y-102113000D01*
X38680000Y-101987000D01*
X37280000Y-101860000D01*
X35567000Y-100893000D01*
X33853000Y-99927000D01*
X32140000Y-98960000D01*
X31780000Y-98540000D01*
X32160000Y-97660000D01*
X31760000Y-97420000D01*
X31160000Y-98260000D01*
X30400000Y-98020000D01*
X30220000Y-97460000D01*
X28860000Y-96990000D01*
X27500000Y-96520000D01*
X27400000Y-95880000D01*
X26980000Y-96220000D01*
X25640000Y-95853000D01*
X24300000Y-95487000D01*
X22960000Y-95120000D01*
X21640000Y-95110000D01*
X20320000Y-95100000D01*
X19280000Y-94480000D01*
X20860000Y-93800000D01*
X21100000Y-92360000D01*
X21340000Y-90920000D01*
X21040000Y-89560000D01*
X21180000Y-87630000D01*
X21320000Y-85700000D01*
X21080000Y-83813000D01*
X20840000Y-81927000D01*
X20600000Y-80040000D01*
X20547000Y-78367000D01*
X20493000Y-76693000D01*
X20440000Y-75020000D01*
X19990000Y-73820000D01*
X19540000Y-72620000D01*
X19580000Y-71280000D01*
X20940000Y-70600000D01*
X22367000Y-70807000D01*
X23793000Y-71013000D01*
X25220000Y-71220000D01*
X27080000Y-71300000D01*
X28940000Y-71380000D01*
X30800000Y-71460000D01*
X32430000Y-71110000D01*
X34060000Y-70760000D01*
X35273000Y-69847000D01*
X36487000Y-68933000D01*
X37700000Y-68020000D01*
X37580000Y-67840000D01*
X37440000Y-67580000D01*
X37360000Y-67300000D01*
X37300000Y-67020000D01*
X37280000Y-66860000D01*
X37060000Y-67260000D01*
X35700000Y-68460000D01*
X34750000Y-68910000D01*
X33800000Y-69360000D01*
X32253000Y-69480000D01*
X30707000Y-69600000D01*
X29160000Y-69720000D01*
X27500000Y-69020000D01*
X25840000Y-69160000D01*
X24280000Y-68087000D01*
X22720000Y-67013000D01*
X21160000Y-65940000D01*
X19880000Y-66920000D01*
X21267000Y-67653000D01*
X22653000Y-68387000D01*
X24040000Y-69120000D01*
X24800000Y-69900000D01*
X23800000Y-69910000D01*
X22800000Y-69920000D01*
X21340000Y-69190000D01*
X19880000Y-68460000D01*
X18447000Y-68000000D01*
X17013000Y-67540000D01*
X15580000Y-67080000D01*
X15520000Y-66800000D01*
X16040000Y-66720000D01*
X17960000Y-66820000D01*
X19880000Y-66920000D01*
X21160000Y-65940000D01*
X19607000Y-65593000D01*
X18053000Y-65247000D01*
X16500000Y-64900000D01*
X16580000Y-63355000D01*
X16660000Y-61810000D01*
X16740000Y-60265000D01*
X16820000Y-58720000D01*
X17660000Y-57090000D01*
X18500000Y-55460000D01*
X18673000Y-54020000D01*
X18847000Y-52580000D01*
X19020000Y-51140000D01*
X18600000Y-50880000D01*
X17960000Y-51300000D01*
X17640000Y-50760000D01*
X15840000Y-50740000D01*
X15040000Y-51160000D01*
X14940000Y-49420000D01*
X14580000Y-48780000D01*
X12993000Y-47747000D01*
X11407000Y-46713000D01*
X9820000Y-45680000D01*
X8570000Y-44465000D01*
X7320000Y-43250000D01*
X6070000Y-42035000D01*
X4820000Y-40820000D01*
X5060000Y-40660000D01*
X6304000Y-41736000D01*
X7548000Y-42812000D01*
X8792000Y-43888000D01*
X10036000Y-44964000D01*
X11280000Y-46040000D01*
X12873000Y-46773000D01*
X14467000Y-47507000D01*
X16060000Y-48240000D01*
X17515000Y-48620000D01*
X18970000Y-49000000D01*
X20425000Y-49380000D01*
X21880000Y-49760000D01*
X23180000Y-50570000D01*
X24480000Y-51380000D01*
X25470000Y-51660000D01*
X26460000Y-51940000D01*
X26040000Y-52360000D01*
X24990000Y-52230000D01*
X23940000Y-52100000D01*
X22750000Y-52210000D01*
X21560000Y-52320000D01*
X20590000Y-52040000D01*
X19620000Y-51760000D01*
X19100000Y-53240000D01*
X19740000Y-53800000D01*
X21120000Y-53707000D01*
X22500000Y-53613000D01*
X23880000Y-53520000D01*
X24940000Y-53200000D01*
X26000000Y-52880000D01*
X27480000Y-51940000D01*
X28560000Y-51960000D01*
X28800000Y-52480000D01*
X29160000Y-52020000D01*
X30690000Y-52890000D01*
X32220000Y-53760000D01*
X33147000Y-54873000D01*
X34073000Y-55987000D01*
X35000000Y-57100000D01*
X36320000Y-58140000D01*
X36460000Y-58220000D01*
X36660000Y-58240000D01*
X36940000Y-58300000D01*
X37220000Y-58380000D01*
X37480000Y-58520000D01*
X37720000Y-58680000D01*
X37940000Y-58860000D01*
X38120000Y-59080000D01*
X38180000Y-59160000D01*
X39880000Y-59720000D01*
X39373000Y-61040000D01*
X38867000Y-62360000D01*
X38360000Y-63680000D01*
X37500000Y-64980000D01*
X37500000Y-65780000D01*
X37580000Y-65640000D01*
X37740000Y-65400000D01*
X37920000Y-65180000D01*
X38140000Y-65000000D01*
X38380000Y-64840000D01*
X38640000Y-64700000D01*
X38920000Y-64620000D01*
X39020000Y-64600000D01*
X38980000Y-64420000D01*
X38920000Y-64140000D01*
X38900000Y-63860000D01*
X38920000Y-63580000D01*
X38980000Y-63300000D01*
X39060000Y-63020000D01*
X39200000Y-62760000D01*
X39360000Y-62520000D01*
X39540000Y-62300000D01*
X39760000Y-62120000D01*
X40000000Y-61960000D01*
X40260000Y-61820000D01*
X40320000Y-61800000D01*
X40540000Y-60720000D01*
X40680000Y-60660000D01*
X40740000Y-60380000D01*
X40820000Y-60100000D01*
X40960000Y-59840000D01*
X41120000Y-59600000D01*
X41300000Y-59380000D01*
X41520000Y-59200000D01*
X41760000Y-59040000D01*
X42020000Y-58900000D01*
X42300000Y-58820000D01*
X42580000Y-58760000D01*
X42860000Y-58740000D01*
X43140000Y-58760000D01*
X43420000Y-58820000D01*
X43700000Y-58900000D01*
X43960000Y-59040000D01*
X44040000Y-59100000D01*
X44640000Y-58720000D01*
X45680000Y-58640000D01*
X46720000Y-58560000D01*
X48190000Y-59080000D01*
X49660000Y-59600000D01*
X51093000Y-59853000D01*
X52527000Y-60107000D01*
X53960000Y-60360000D01*
X54040000Y-59120000D01*
X53500000Y-58840000D01*
X51880000Y-58810000D01*
X50260000Y-58780000D01*
X48767000Y-58320000D01*
X47273000Y-57860000D01*
X45780000Y-57400000D01*
X45760000Y-57140000D01*
X46900000Y-56760000D01*
X48520000Y-57040000D01*
X50013000Y-57020000D01*
X51507000Y-57000000D01*
X53000000Y-56980000D01*
X54350000Y-56410000D01*
X55700000Y-55840000D01*
X57270000Y-55430000D01*
X58840000Y-55020000D01*
X60240000Y-55500000D01*
X61140000Y-56360000D01*
X59447000Y-56860000D01*
X57753000Y-57360000D01*
X56060000Y-57860000D01*
X55050000Y-58490000D01*
X54040000Y-59120000D01*
X53960000Y-60360000D01*
X55660000Y-59587000D01*
X57360000Y-58813000D01*
X59060000Y-58040000D01*
X60660000Y-57960000D01*
X61160000Y-57480000D01*
X62600000Y-57370000D01*
X64040000Y-57260000D01*
X65847000Y-57380000D01*
X67653000Y-57500000D01*
X69460000Y-57620000D01*
X70727000Y-58213000D01*
X71993000Y-58807000D01*
X73260000Y-59400000D01*
X74500000Y-59670000D01*
X75740000Y-59940000D01*
X77273000Y-60707000D01*
X78807000Y-61473000D01*
X80340000Y-62240000D01*
X81640000Y-63513000D01*
X82940000Y-64787000D01*
X84240000Y-66060000D01*
X85850000Y-67130000D01*
X87460000Y-68200000D01*
X88460000Y-68540000D01*
X89460000Y-68880000D01*
X90520000Y-68690000D01*
X91580000Y-68500000D01*
X92920000Y-67880000D01*
X93980000Y-66780000D01*
X95040000Y-65680000D01*
X94660000Y-65600000D01*
X93780000Y-66370000D01*
X92900000Y-67140000D01*
X93800000Y-65520000D01*
X94680000Y-64830000D01*
X95560000Y-64140000D01*
X96080000Y-64480000D01*
X96260000Y-63540000D01*
X97347000Y-62620000D01*
X98433000Y-61700000D01*
X99520000Y-60780000D01*
X99400000Y-60840000D01*
X99120000Y-60920000D01*
X98840000Y-60980000D01*
X98560000Y-61000000D01*
X98280000Y-60980000D01*
X98040000Y-60940000D01*
X96740000Y-61770000D01*
X95440000Y-62600000D01*
X94187000Y-64107000D01*
X92933000Y-65613000D01*
X91680000Y-67120000D01*
X90300000Y-67940000D01*
X88620000Y-67860000D01*
X86920000Y-66920000D01*
X85760000Y-65970000D01*
X84600000Y-65020000D01*
X83627000Y-63860000D01*
X82653000Y-62700000D01*
X81680000Y-61540000D01*
X80480000Y-60860000D01*
X78970000Y-60230000D01*
X77460000Y-59600000D01*
X76470000Y-58980000D01*
X75480000Y-58360000D01*
X73600000Y-57920000D01*
X71720000Y-57480000D01*
X70460000Y-56830000D01*
X69200000Y-56180000D01*
X67575000Y-56145000D01*
X65950000Y-56110000D01*
X64325000Y-56075000D01*
X62700000Y-56040000D01*
X61340000Y-55547000D01*
X59980000Y-55053000D01*
X58620000Y-54560000D01*
X56787000Y-55120000D01*
X54953000Y-55680000D01*
X53120000Y-56240000D01*
X51730000Y-56380000D01*
X50340000Y-56520000D01*
X48540000Y-56410000D01*
X46740000Y-56300000D01*
X45375000Y-56940000D01*
X44010000Y-57580000D01*
X42645000Y-58220000D01*
X41280000Y-58860000D01*
X39500000Y-58580000D01*
X37720000Y-58300000D01*
X36730000Y-57650000D01*
X35740000Y-57000000D01*
X34810000Y-55650000D01*
X33880000Y-54300000D01*
X32850000Y-53350000D01*
X31820000Y-52400000D01*
X30380000Y-51760000D01*
X28940000Y-51120000D01*
X27100000Y-50970000D01*
X25260000Y-50820000D01*
X23920000Y-49840000D01*
X22580000Y-48860000D01*
X20840000Y-48460000D01*
X19100000Y-48060000D01*
X18960000Y-47360000D01*
X17680000Y-46020000D01*
X17540000Y-45040000D01*
X16420000Y-43720000D01*
X14850000Y-42640000D01*
X13280000Y-41560000D01*
X12030000Y-40460000D01*
X10780000Y-39360000D01*
X9220000Y-38336000D01*
X7660000Y-37312000D01*
X6100000Y-36288000D01*
X4540000Y-35264000D01*
X2980000Y-34240000D01*
X2600000Y-32760000D01*
X1760000Y-31330000D01*
X920000Y-29900000D01*
X400000Y-30160000D01*
X400000Y-32033000D01*
X400000Y-33907000D01*
X400000Y-35780000D01*
X400000Y-36140000D01*
X400000Y-36440000D01*
X400000Y-38400000D01*
X400000Y-40360000D01*
X400000Y-42320000D01*
X400000Y-44280000D01*
X400000Y-46240000D01*
X400000Y-48200000D01*
X400000Y-50160000D01*
X400000Y-52120000D01*
X400000Y-54080000D01*
X400000Y-56040000D01*
X400000Y-58000000D01*
X400000Y-59960000D01*
X400000Y-61920000D01*
X400000Y-63880000D01*
X400000Y-65840000D01*
X400000Y-67800000D01*
X400000Y-69760000D01*
X400000Y-71720000D01*
X400000Y-73680000D01*
X400000Y-75640000D01*
X400000Y-77600000D01*
X400000Y-79560000D01*
X400000Y-81520000D01*
X400000Y-83480000D01*
X400000Y-85440000D01*
X400000Y-87400000D01*
X400000Y-89360000D01*
X400000Y-91320000D01*
X400000Y-93280000D01*
X400000Y-95240000D01*
X400000Y-97200000D01*
X400000Y-99160000D01*
X400000Y-101120000D01*
X400000Y-103080000D01*
X522000Y-105011000D01*
X1162000Y-106496000D01*
X1747000Y-107213000D01*
X2562000Y-107861000D01*
X4126000Y-108476000D01*
X6095000Y-108560000D01*
X8080000Y-108560000D01*
X10065000Y-108560000D01*
X12050000Y-108560000D01*
X14035000Y-108560000D01*
X16020000Y-108560000D01*
X18005000Y-108560000D01*
X19990000Y-108560000D01*
X21975000Y-108560000D01*
X23960000Y-108560000D01*
X23570000Y-107580000D01*
X23180000Y-106220000D01*
X24720000Y-105480000D01*
X24740000Y-105100000D01*
X23660000Y-104240000D01*
X23580000Y-102480000D01*
X24360000Y-102200000D01*
X26170000Y-102580000D01*
X27980000Y-102960000D01*
X29510000Y-103950000D01*
X31040000Y-104940000D01*
X30780000Y-105300000D01*
X29000000Y-105760000D01*
X28980000Y-106380000D01*
X30040000Y-106260000D01*
X30680000Y-105800000D01*
X31780000Y-105860000D01*
X33030000Y-106820000D01*
X34280000Y-107780000D01*
X35540000Y-108370000D01*
X36800000Y-108560000D01*
X38628000Y-108560000D01*
X40456000Y-108560000D01*
X42284000Y-108560000D01*
X44112000Y-108560000D01*
X45940000Y-108560000D01*
X46880000Y-108000000D01*
X47620000Y-107800000D01*
X48520000Y-106770000D01*
X49420000Y-105740000D01*
X50780000Y-104820000D01*
X50900000Y-104320000D01*
X51920000Y-103740000D01*
X53040000Y-103860000D01*
X52800000Y-105120000D01*
X51600000Y-106660000D01*
X51480000Y-107320000D01*
X50630000Y-108120000D01*
X49780000Y-108560000D01*
X51260000Y-108560000D01*
X52740000Y-108560000D01*
X54220000Y-108560000D01*
X55560000Y-107780000D01*
X56740000Y-108560000D01*
X57220000Y-107720000D01*
X56920000Y-106000000D01*
X57280000Y-105680000D01*
X57430000Y-104320000D01*
X57580000Y-102960000D01*
X57320000Y-102140000D01*
X56520000Y-102380000D01*
X56000000Y-101640000D01*
X54860000Y-100680000D01*
X54070000Y-101760000D01*
X53280000Y-102840000D01*
X52230000Y-103120000D01*
X51180000Y-103400000D01*
X49590000Y-104260000D01*
X48000000Y-105120000D01*
X46610000Y-105430000D01*
X45220000Y-105740000D01*
X44320000Y-105540000D01*
X44720000Y-104860000D01*
X45660000Y-104430000D01*
X46600000Y-104000000D01*
X47820000Y-103127000D01*
X49040000Y-102253000D01*
X50260000Y-101380000D01*
X51780000Y-100967000D01*
X53300000Y-100553000D01*
X54820000Y-100140000D01*
X54860000Y-100680000D01*
X56000000Y-101640000D01*
X57070000Y-100990000D01*
X58140000Y-100340000D01*
X59180000Y-100390000D01*
X60220000Y-100440000D01*
X61300000Y-100260000D01*
X61520000Y-99900000D01*
X62120000Y-100080000D01*
X62960000Y-99130000D01*
X63800000Y-98180000D01*
X64460000Y-96933000D01*
X65120000Y-95687000D01*
X65780000Y-94440000D01*
X65040000Y-94320000D01*
X64560000Y-95210000D01*
X64080000Y-96100000D01*
X63190000Y-97310000D01*
X62300000Y-98520000D01*
X61260000Y-99120000D01*
X61200000Y-99620000D01*
X60260000Y-99220000D01*
X58940000Y-99360000D01*
X57620000Y-99500000D01*
X57260000Y-99120000D01*
X58753000Y-98087000D01*
X60247000Y-97053000D01*
X61740000Y-96020000D01*
X62770000Y-95070000D01*
X63800000Y-94120000D01*
X64820000Y-93910000D01*
X65840000Y-93700000D01*
X67060000Y-92920000D01*
X67840000Y-91590000D01*
X68620000Y-90260000D01*
X69400000Y-88930000D01*
X70180000Y-87600000D01*
X70950000Y-86830000D01*
X71720000Y-86060000D01*
X72870000Y-85600000D01*
X74020000Y-85140000D01*
X75220000Y-85120000D01*
X76420000Y-84080000D01*
X78247000Y-84073000D01*
X80073000Y-84067000D01*
X81900000Y-84060000D01*
X82900000Y-83120000D01*
X83280000Y-83240000D01*
X85010000Y-82600000D01*
X86740000Y-81960000D01*
X88470000Y-81320000D01*
X90200000Y-80680000D01*
X91410000Y-80610000D01*
X92620000Y-80540000D01*
X94207000Y-80893000D01*
X95793000Y-81247000D01*
X97380000Y-81600000D01*
X98570000Y-81130000D01*
X99760000Y-80660000D01*
X100720000Y-79620000D01*
X100680000Y-79080000D01*
G36*
X187480000Y-920000D02*
G01*
X186160000Y-1920000D01*
X185080000Y-3320000D01*
X184560000Y-4740000D01*
X184740000Y-6040000D01*
X185480000Y-7520000D01*
X186400000Y-8420000D01*
X187320000Y-9320000D01*
X188720000Y-9920000D01*
X190120000Y-10520000D01*
X190420000Y-12270000D01*
X190720000Y-14020000D01*
X189400000Y-15160000D01*
X188080000Y-16300000D01*
X187070000Y-16650000D01*
X186060000Y-17000000D01*
X185050000Y-17130000D01*
X184040000Y-17260000D01*
X182620000Y-18160000D01*
X181200000Y-19060000D01*
X179780000Y-19960000D01*
X178773000Y-21047000D01*
X177767000Y-22133000D01*
X176760000Y-23220000D01*
X175690000Y-24860000D01*
X174620000Y-26500000D01*
X174030000Y-28010000D01*
X173440000Y-29520000D01*
X172850000Y-31030000D01*
X172260000Y-32540000D01*
X171290000Y-33600000D01*
X170320000Y-34660000D01*
X169210000Y-35380000D01*
X168100000Y-36100000D01*
X167480000Y-37500000D01*
X166650000Y-38210000D01*
X165820000Y-38920000D01*
X164376000Y-39700000D01*
X162932000Y-40480000D01*
X161488000Y-41260000D01*
X160044000Y-42040000D01*
X158600000Y-42820000D01*
X157760000Y-43940000D01*
X157480000Y-45280000D01*
X158260000Y-46600000D01*
X159040000Y-47920000D01*
X159840000Y-48890000D01*
X160640000Y-49860000D01*
X162093000Y-50267000D01*
X163547000Y-50673000D01*
X165000000Y-51080000D01*
X166253000Y-51627000D01*
X167507000Y-52173000D01*
X168760000Y-52720000D01*
X170187000Y-53060000D01*
X171613000Y-53400000D01*
X173040000Y-53740000D01*
X174724000Y-54568000D01*
X176408000Y-55396000D01*
X178092000Y-56224000D01*
X179776000Y-57052000D01*
X181460000Y-57880000D01*
X182690000Y-58300000D01*
X183920000Y-58720000D01*
X185110000Y-58870000D01*
X186300000Y-59020000D01*
X187520000Y-58850000D01*
X188740000Y-58680000D01*
X190400000Y-58040000D01*
X192060000Y-57400000D01*
X193327000Y-56600000D01*
X194593000Y-55800000D01*
X195860000Y-55000000D01*
X197187000Y-54480000D01*
X198513000Y-53960000D01*
X199600000Y-53440000D01*
X199600000Y-55320000D01*
X198547000Y-56093000D01*
X197093000Y-56867000D01*
X195640000Y-57640000D01*
X194062000Y-58700000D01*
X192485000Y-59760000D01*
X190907000Y-60820000D01*
X189330000Y-61880000D01*
X187752000Y-62940000D01*
X186175000Y-64000000D01*
X184597000Y-65060000D01*
X183020000Y-66120000D01*
X181090000Y-66630000D01*
X179160000Y-67140000D01*
X177653000Y-67300000D01*
X176147000Y-67460000D01*
X174640000Y-67620000D01*
X173250000Y-67210000D01*
X171860000Y-66800000D01*
X170790000Y-66050000D01*
X169720000Y-65300000D01*
X168780000Y-63640000D01*
X168620000Y-62080000D01*
X168460000Y-60520000D01*
X168300000Y-58960000D01*
X167920000Y-57570000D01*
X167540000Y-56180000D01*
X166800000Y-55280000D01*
X166224444Y-54580000D01*
X168360000Y-54580000D01*
X168750000Y-55850000D01*
X169140000Y-57120000D01*
X169360000Y-59040000D01*
X169580000Y-60960000D01*
X169800000Y-62880000D01*
X170700000Y-64420000D01*
X171570000Y-65080000D01*
X172440000Y-65740000D01*
X173790000Y-65990000D01*
X175140000Y-66240000D01*
X176727000Y-66067000D01*
X178313000Y-65893000D01*
X179900000Y-65720000D01*
X181440000Y-65090000D01*
X182980000Y-64460000D01*
X184230000Y-63320000D01*
X185480000Y-62180000D01*
X185400000Y-61780000D01*
X184240000Y-61220000D01*
X183080000Y-60660000D01*
X181573000Y-60080000D01*
X180067000Y-59500000D01*
X178560000Y-58920000D01*
X177175000Y-58020000D01*
X175790000Y-57120000D01*
X174405000Y-56220000D01*
X173020000Y-55320000D01*
X171567000Y-55000000D01*
X170113000Y-54680000D01*
X168660000Y-54360000D01*
X168360000Y-54580000D01*
X166224444Y-54580000D01*
X166060000Y-54380000D01*
X164470000Y-53600000D01*
X162880000Y-52820000D01*
X161480000Y-52610000D01*
X160080000Y-52400000D01*
X158147000Y-52660000D01*
X156213000Y-52920000D01*
X154280000Y-53180000D01*
X152460000Y-52847000D01*
X150640000Y-52513000D01*
X148820000Y-52180000D01*
X147000000Y-51847000D01*
X145180000Y-51513000D01*
X143360000Y-51180000D01*
X141540000Y-50847000D01*
X139720000Y-50513000D01*
X137900000Y-50180000D01*
X136260000Y-50360000D01*
X134620000Y-50540000D01*
X132980000Y-50720000D01*
X131395000Y-50750000D01*
X129810000Y-50780000D01*
X128225000Y-50810000D01*
X126640000Y-50840000D01*
X124907000Y-51113000D01*
X123173000Y-51387000D01*
X121440000Y-51660000D01*
X120120000Y-52490000D01*
X118800000Y-53320000D01*
X117850000Y-54280000D01*
X116900000Y-55240000D01*
X115720000Y-56750000D01*
X114540000Y-58260000D01*
X114240000Y-59160000D01*
X113000000Y-60470000D01*
X111760000Y-61780000D01*
X110910000Y-63150000D01*
X110060000Y-64520000D01*
X109580000Y-65690000D01*
X109100000Y-66860000D01*
X108660000Y-67220000D01*
X108080000Y-69087000D01*
X107500000Y-70953000D01*
X106920000Y-72820000D01*
X106310000Y-73830000D01*
X105700000Y-74840000D01*
X104790000Y-75490000D01*
X103880000Y-76140000D01*
X102700000Y-77440000D01*
X101520000Y-78740000D01*
X100680000Y-79080000D01*
X100720000Y-79620000D01*
X99760000Y-80660000D01*
X98570000Y-81130000D01*
X97380000Y-81600000D01*
X95793000Y-81247000D01*
X94207000Y-80893000D01*
X92620000Y-80540000D01*
X91410000Y-80610000D01*
X90200000Y-80680000D01*
X88470000Y-81320000D01*
X86740000Y-81960000D01*
X85010000Y-82600000D01*
X83280000Y-83240000D01*
X82900000Y-83120000D01*
X81900000Y-84060000D01*
X80073000Y-84067000D01*
X78247000Y-84073000D01*
X76420000Y-84080000D01*
X75220000Y-85120000D01*
X74020000Y-85140000D01*
X72870000Y-85600000D01*
X71720000Y-86060000D01*
X70950000Y-86830000D01*
X70180000Y-87600000D01*
X69400000Y-88930000D01*
X68620000Y-90260000D01*
X67840000Y-91590000D01*
X67060000Y-92920000D01*
X65840000Y-93700000D01*
X64820000Y-93910000D01*
X63800000Y-94120000D01*
X62770000Y-95070000D01*
X61740000Y-96020000D01*
X60247000Y-97053000D01*
X58753000Y-98087000D01*
X57260000Y-99120000D01*
X57620000Y-99500000D01*
X58940000Y-99360000D01*
X60260000Y-99220000D01*
X61200000Y-99620000D01*
X61260000Y-99120000D01*
X62300000Y-98520000D01*
X63190000Y-97310000D01*
X64080000Y-96100000D01*
X64560000Y-95210000D01*
X65040000Y-94320000D01*
X65780000Y-94440000D01*
X65120000Y-95687000D01*
X64460000Y-96933000D01*
X63800000Y-98180000D01*
X62960000Y-99130000D01*
X62120000Y-100080000D01*
X61520000Y-99900000D01*
X61300000Y-100260000D01*
X60220000Y-100440000D01*
X59180000Y-100390000D01*
X58140000Y-100340000D01*
X57070000Y-100990000D01*
X56000000Y-101640000D01*
X56520000Y-102380000D01*
X57320000Y-102140000D01*
X57580000Y-102960000D01*
X57430000Y-104320000D01*
X57280000Y-105680000D01*
X56920000Y-106000000D01*
X57220000Y-107720000D01*
X56740000Y-108560000D01*
X55560000Y-107780000D01*
X54220000Y-108560000D01*
X52740000Y-108560000D01*
X51260000Y-108560000D01*
X49780000Y-108560000D01*
X50630000Y-108120000D01*
X51480000Y-107320000D01*
X51600000Y-106660000D01*
X52800000Y-105120000D01*
X53040000Y-103860000D01*
X51920000Y-103740000D01*
X50900000Y-104320000D01*
X50780000Y-104820000D01*
X49420000Y-105740000D01*
X48520000Y-106770000D01*
X47620000Y-107800000D01*
X46880000Y-108000000D01*
X45940000Y-108560000D01*
X44112000Y-108560000D01*
X42284000Y-108560000D01*
X40456000Y-108560000D01*
X38628000Y-108560000D01*
X36800000Y-108560000D01*
X35540000Y-108370000D01*
X34280000Y-107780000D01*
X33030000Y-106820000D01*
X31780000Y-105860000D01*
X30680000Y-105800000D01*
X30040000Y-106260000D01*
X28980000Y-106380000D01*
X29000000Y-105760000D01*
X29851304Y-105540000D01*
X44320000Y-105540000D01*
X45220000Y-105740000D01*
X46610000Y-105430000D01*
X48000000Y-105120000D01*
X49590000Y-104260000D01*
X51180000Y-103400000D01*
X52230000Y-103120000D01*
X53280000Y-102840000D01*
X54070000Y-101760000D01*
X54860000Y-100680000D01*
X54820000Y-100140000D01*
X53300000Y-100553000D01*
X51780000Y-100967000D01*
X50260000Y-101380000D01*
X49040000Y-102253000D01*
X47820000Y-103127000D01*
X46600000Y-104000000D01*
X45660000Y-104430000D01*
X44720000Y-104860000D01*
X44320000Y-105540000D01*
X29851304Y-105540000D01*
X30780000Y-105300000D01*
X31040000Y-104940000D01*
X29510000Y-103950000D01*
X27980000Y-102960000D01*
X26170000Y-102580000D01*
X24360000Y-102200000D01*
X23580000Y-102480000D01*
X23660000Y-104240000D01*
X24740000Y-105100000D01*
X24720000Y-105480000D01*
X23180000Y-106220000D01*
X23570000Y-107580000D01*
X23960000Y-108560000D01*
X21975000Y-108560000D01*
X19990000Y-108560000D01*
X18005000Y-108560000D01*
X16020000Y-108560000D01*
X14035000Y-108560000D01*
X12050000Y-108560000D01*
X10065000Y-108560000D01*
X8080000Y-108560000D01*
X6095000Y-108560000D01*
X4126000Y-108476000D01*
X2562000Y-107861000D01*
X1747000Y-107213000D01*
X1162000Y-106496000D01*
X522000Y-105011000D01*
X400000Y-103080000D01*
X400000Y-101120000D01*
X400000Y-99160000D01*
X400000Y-97200000D01*
X400000Y-95240000D01*
X400000Y-93280000D01*
X400000Y-91320000D01*
X400000Y-89360000D01*
X400000Y-87400000D01*
X400000Y-85440000D01*
X400000Y-83480000D01*
X400000Y-81520000D01*
X400000Y-79560000D01*
X400000Y-77600000D01*
X400000Y-75640000D01*
X400000Y-73680000D01*
X400000Y-71720000D01*
X400000Y-69760000D01*
X400000Y-67800000D01*
X400000Y-66800000D01*
X15520000Y-66800000D01*
X15580000Y-67080000D01*
X17013000Y-67540000D01*
X18447000Y-68000000D01*
X19880000Y-68460000D01*
X21340000Y-69190000D01*
X22800000Y-69920000D01*
X23800000Y-69910000D01*
X24800000Y-69900000D01*
X24040000Y-69120000D01*
X22653000Y-68387000D01*
X21267000Y-67653000D01*
X19880000Y-66920000D01*
X17960000Y-66820000D01*
X16040000Y-66720000D01*
X15520000Y-66800000D01*
X400000Y-66800000D01*
X400000Y-65840000D01*
X400000Y-63880000D01*
X400000Y-61920000D01*
X400000Y-59960000D01*
X400000Y-58000000D01*
X400000Y-56040000D01*
X400000Y-54080000D01*
X400000Y-52120000D01*
X400000Y-50160000D01*
X400000Y-48200000D01*
X400000Y-46240000D01*
X400000Y-44280000D01*
X400000Y-42320000D01*
X400000Y-40360000D01*
X400000Y-38400000D01*
X400000Y-36440000D01*
X400000Y-36140000D01*
X400000Y-35780000D01*
X400000Y-33907000D01*
X400000Y-32033000D01*
X400000Y-30160000D01*
X920000Y-29900000D01*
X1760000Y-31330000D01*
X2600000Y-32760000D01*
X2980000Y-34240000D01*
X4540000Y-35264000D01*
X6100000Y-36288000D01*
X7660000Y-37312000D01*
X9220000Y-38336000D01*
X10780000Y-39360000D01*
X12030000Y-40460000D01*
X13280000Y-41560000D01*
X14850000Y-42640000D01*
X16420000Y-43720000D01*
X17540000Y-45040000D01*
X17680000Y-46020000D01*
X18960000Y-47360000D01*
X19100000Y-48060000D01*
X20840000Y-48460000D01*
X22580000Y-48860000D01*
X23920000Y-49840000D01*
X25260000Y-50820000D01*
X27100000Y-50970000D01*
X28940000Y-51120000D01*
X30380000Y-51760000D01*
X31820000Y-52400000D01*
X32850000Y-53350000D01*
X33880000Y-54300000D01*
X34810000Y-55650000D01*
X35740000Y-57000000D01*
X36730000Y-57650000D01*
X37720000Y-58300000D01*
X39500000Y-58580000D01*
X41280000Y-58860000D01*
X42645000Y-58220000D01*
X44010000Y-57580000D01*
X44948438Y-57140000D01*
X45760000Y-57140000D01*
X45780000Y-57400000D01*
X47273000Y-57860000D01*
X48767000Y-58320000D01*
X50260000Y-58780000D01*
X51880000Y-58810000D01*
X53500000Y-58840000D01*
X54040000Y-59120000D01*
X55050000Y-58490000D01*
X56060000Y-57860000D01*
X57753000Y-57360000D01*
X59447000Y-56860000D01*
X61140000Y-56360000D01*
X60240000Y-55500000D01*
X58840000Y-55020000D01*
X57270000Y-55430000D01*
X55700000Y-55840000D01*
X54350000Y-56410000D01*
X53000000Y-56980000D01*
X51507000Y-57000000D01*
X50013000Y-57020000D01*
X48520000Y-57040000D01*
X46900000Y-56760000D01*
X45760000Y-57140000D01*
X44948438Y-57140000D01*
X45375000Y-56940000D01*
X46740000Y-56300000D01*
X48540000Y-56410000D01*
X50340000Y-56520000D01*
X51730000Y-56380000D01*
X53120000Y-56240000D01*
X54953000Y-55680000D01*
X56787000Y-55120000D01*
X58620000Y-54560000D01*
X59980000Y-55053000D01*
X61340000Y-55547000D01*
X62700000Y-56040000D01*
X64325000Y-56075000D01*
X65950000Y-56110000D01*
X67575000Y-56145000D01*
X69200000Y-56180000D01*
X70460000Y-56830000D01*
X71720000Y-57480000D01*
X73600000Y-57920000D01*
X75480000Y-58360000D01*
X76470000Y-58980000D01*
X77460000Y-59600000D01*
X78970000Y-60230000D01*
X80480000Y-60860000D01*
X81680000Y-61540000D01*
X82653000Y-62700000D01*
X83627000Y-63860000D01*
X84600000Y-65020000D01*
X85760000Y-65970000D01*
X86920000Y-66920000D01*
X88620000Y-67860000D01*
X90300000Y-67940000D01*
X91680000Y-67120000D01*
X92933000Y-65613000D01*
X94187000Y-64107000D01*
X95440000Y-62600000D01*
X96740000Y-61770000D01*
X98040000Y-60940000D01*
X98280000Y-60980000D01*
X98560000Y-61000000D01*
X98840000Y-60980000D01*
X99120000Y-60920000D01*
X99400000Y-60840000D01*
X99520000Y-60780000D01*
X98433000Y-61700000D01*
X97347000Y-62620000D01*
X96260000Y-63540000D01*
X96080000Y-64480000D01*
X95560000Y-64140000D01*
X94680000Y-64830000D01*
X93800000Y-65520000D01*
X92900000Y-67140000D01*
X93780000Y-66370000D01*
X94660000Y-65600000D01*
X95040000Y-65680000D01*
X93980000Y-66780000D01*
X92920000Y-67880000D01*
X91580000Y-68500000D01*
X90520000Y-68690000D01*
X89460000Y-68880000D01*
X88460000Y-68540000D01*
X87460000Y-68200000D01*
X85850000Y-67130000D01*
X84240000Y-66060000D01*
X82940000Y-64787000D01*
X81640000Y-63513000D01*
X80340000Y-62240000D01*
X78807000Y-61473000D01*
X77273000Y-60707000D01*
X75740000Y-59940000D01*
X74500000Y-59670000D01*
X73260000Y-59400000D01*
X71993000Y-58807000D01*
X70727000Y-58213000D01*
X69460000Y-57620000D01*
X67653000Y-57500000D01*
X65847000Y-57380000D01*
X64040000Y-57260000D01*
X62600000Y-57370000D01*
X61160000Y-57480000D01*
X60660000Y-57960000D01*
X59060000Y-58040000D01*
X57360000Y-58813000D01*
X55660000Y-59587000D01*
X53960000Y-60360000D01*
X52527000Y-60107000D01*
X51093000Y-59853000D01*
X49660000Y-59600000D01*
X48190000Y-59080000D01*
X46720000Y-58560000D01*
X45680000Y-58640000D01*
X44640000Y-58720000D01*
X44040000Y-59100000D01*
X43960000Y-59040000D01*
X43700000Y-58900000D01*
X43420000Y-58820000D01*
X43140000Y-58760000D01*
X42860000Y-58740000D01*
X42580000Y-58760000D01*
X42300000Y-58820000D01*
X42020000Y-58900000D01*
X41760000Y-59040000D01*
X41520000Y-59200000D01*
X41300000Y-59380000D01*
X41120000Y-59600000D01*
X40960000Y-59840000D01*
X40820000Y-60100000D01*
X40740000Y-60380000D01*
X40680000Y-60660000D01*
X40540000Y-60720000D01*
X40320000Y-61800000D01*
X40260000Y-61820000D01*
X40000000Y-61960000D01*
X39760000Y-62120000D01*
X39540000Y-62300000D01*
X39360000Y-62520000D01*
X39200000Y-62760000D01*
X39060000Y-63020000D01*
X38980000Y-63300000D01*
X38920000Y-63580000D01*
X38900000Y-63860000D01*
X38920000Y-64140000D01*
X38980000Y-64420000D01*
X39020000Y-64600000D01*
X38920000Y-64620000D01*
X38640000Y-64700000D01*
X38380000Y-64840000D01*
X38140000Y-65000000D01*
X37920000Y-65180000D01*
X37740000Y-65400000D01*
X37580000Y-65640000D01*
X37500000Y-65780000D01*
X37500000Y-64980000D01*
X38360000Y-63680000D01*
X38867000Y-62360000D01*
X39373000Y-61040000D01*
X39880000Y-59720000D01*
X38180000Y-59160000D01*
X38120000Y-59080000D01*
X37940000Y-58860000D01*
X37720000Y-58680000D01*
X37480000Y-58520000D01*
X37220000Y-58380000D01*
X36940000Y-58300000D01*
X36660000Y-58240000D01*
X36460000Y-58220000D01*
X36320000Y-58140000D01*
X35000000Y-57100000D01*
X34073000Y-55987000D01*
X33147000Y-54873000D01*
X32220000Y-53760000D01*
X30690000Y-52890000D01*
X29160000Y-52020000D01*
X28800000Y-52480000D01*
X28560000Y-51960000D01*
X27480000Y-51940000D01*
X26000000Y-52880000D01*
X24940000Y-53200000D01*
X23880000Y-53520000D01*
X22500000Y-53613000D01*
X21120000Y-53707000D01*
X19740000Y-53800000D01*
X19100000Y-53240000D01*
X19620000Y-51760000D01*
X20590000Y-52040000D01*
X21560000Y-52320000D01*
X22750000Y-52210000D01*
X23940000Y-52100000D01*
X24990000Y-52230000D01*
X26040000Y-52360000D01*
X26460000Y-51940000D01*
X25470000Y-51660000D01*
X24480000Y-51380000D01*
X23180000Y-50570000D01*
X21880000Y-49760000D01*
X20425000Y-49380000D01*
X18970000Y-49000000D01*
X17515000Y-48620000D01*
X16060000Y-48240000D01*
X14467000Y-47507000D01*
X12873000Y-46773000D01*
X11280000Y-46040000D01*
X10036000Y-44964000D01*
X8792000Y-43888000D01*
X7548000Y-42812000D01*
X6304000Y-41736000D01*
X5060000Y-40660000D01*
X4820000Y-40820000D01*
X6070000Y-42035000D01*
X7320000Y-43250000D01*
X8570000Y-44465000D01*
X9820000Y-45680000D01*
X11407000Y-46713000D01*
X12993000Y-47747000D01*
X14580000Y-48780000D01*
X14940000Y-49420000D01*
X15040000Y-51160000D01*
X15840000Y-50740000D01*
X17640000Y-50760000D01*
X17960000Y-51300000D01*
X18600000Y-50880000D01*
X19020000Y-51140000D01*
X18847000Y-52580000D01*
X18673000Y-54020000D01*
X18500000Y-55460000D01*
X17660000Y-57090000D01*
X16820000Y-58720000D01*
X16740000Y-60265000D01*
X16660000Y-61810000D01*
X16580000Y-63355000D01*
X16500000Y-64900000D01*
X18053000Y-65247000D01*
X19607000Y-65593000D01*
X21160000Y-65940000D01*
X22720000Y-67013000D01*
X24280000Y-68087000D01*
X25840000Y-69160000D01*
X27500000Y-69020000D01*
X29160000Y-69720000D01*
X30707000Y-69600000D01*
X32253000Y-69480000D01*
X33800000Y-69360000D01*
X34750000Y-68910000D01*
X35700000Y-68460000D01*
X37060000Y-67260000D01*
X37280000Y-66860000D01*
X37300000Y-67020000D01*
X37360000Y-67300000D01*
X37440000Y-67580000D01*
X37580000Y-67840000D01*
X37700000Y-68020000D01*
X36487000Y-68933000D01*
X35273000Y-69847000D01*
X34060000Y-70760000D01*
X32430000Y-71110000D01*
X30800000Y-71460000D01*
X28940000Y-71380000D01*
X27080000Y-71300000D01*
X25220000Y-71220000D01*
X23793000Y-71013000D01*
X22367000Y-70807000D01*
X20940000Y-70600000D01*
X19580000Y-71280000D01*
X19540000Y-72620000D01*
X19990000Y-73820000D01*
X20440000Y-75020000D01*
X20493000Y-76693000D01*
X20547000Y-78367000D01*
X20600000Y-80040000D01*
X20840000Y-81927000D01*
X21080000Y-83813000D01*
X21320000Y-85700000D01*
X21180000Y-87630000D01*
X21040000Y-89560000D01*
X21340000Y-90920000D01*
X21100000Y-92360000D01*
X20860000Y-93800000D01*
X19280000Y-94480000D01*
X20320000Y-95100000D01*
X21640000Y-95110000D01*
X22960000Y-95120000D01*
X24300000Y-95487000D01*
X25640000Y-95853000D01*
X26980000Y-96220000D01*
X27400000Y-95880000D01*
X27500000Y-96520000D01*
X28860000Y-96990000D01*
X30220000Y-97460000D01*
X30400000Y-98020000D01*
X31160000Y-98260000D01*
X31760000Y-97420000D01*
X32160000Y-97660000D01*
X31780000Y-98540000D01*
X32140000Y-98960000D01*
X33853000Y-99927000D01*
X35567000Y-100893000D01*
X37280000Y-101860000D01*
X38680000Y-101987000D01*
X40080000Y-102113000D01*
X41480000Y-102240000D01*
X42790000Y-102010000D01*
X44100000Y-101780000D01*
X45748000Y-100916000D01*
X47396000Y-100052000D01*
X49044000Y-99188000D01*
X50692000Y-98324000D01*
X52340000Y-97460000D01*
X54120000Y-96780000D01*
X54460000Y-97040000D01*
X55160000Y-96780000D01*
X55440000Y-96180000D01*
X55000000Y-95200000D01*
X55480000Y-94820000D01*
X55900000Y-94880000D01*
X56240000Y-96140000D01*
X57270000Y-95770000D01*
X58300000Y-95400000D01*
X59375000Y-94280000D01*
X60450000Y-93160000D01*
X61525000Y-92040000D01*
X62600000Y-90920000D01*
X63640000Y-89585000D01*
X64680000Y-88250000D01*
X65720000Y-86915000D01*
X66760000Y-85580000D01*
X67960000Y-84760000D01*
X69160000Y-83940000D01*
X70410000Y-83350000D01*
X71660000Y-82760000D01*
X73392000Y-82288000D01*
X75124000Y-81816000D01*
X76856000Y-81344000D01*
X78588000Y-80872000D01*
X80320000Y-80400000D01*
X81710000Y-79680000D01*
X83100000Y-78960000D01*
X83489362Y-78360000D01*
X87140000Y-78360000D01*
X87460000Y-78580000D01*
X88827000Y-78367000D01*
X90193000Y-78153000D01*
X91560000Y-77940000D01*
X93533000Y-78140000D01*
X95507000Y-78340000D01*
X97480000Y-78540000D01*
X98540000Y-78260000D01*
X99900000Y-77260000D01*
X100360000Y-77420000D01*
X100840000Y-76460000D01*
X102020000Y-75430000D01*
X103200000Y-74400000D01*
X103870000Y-73450000D01*
X104540000Y-72500000D01*
X105124000Y-70956000D01*
X105708000Y-69412000D01*
X106292000Y-67868000D01*
X106876000Y-66324000D01*
X107460000Y-64780000D01*
X107850000Y-63300000D01*
X108240000Y-61820000D01*
X107780000Y-62000000D01*
X106893000Y-63100000D01*
X106007000Y-64200000D01*
X105120000Y-65300000D01*
X103580000Y-66220000D01*
X103360000Y-67020000D01*
X104340000Y-66980000D01*
X104440000Y-67300000D01*
X103260000Y-67560000D01*
X101893000Y-68453000D01*
X100527000Y-69347000D01*
X99160000Y-70240000D01*
X97480000Y-70840000D01*
X97280000Y-71380000D01*
X96940000Y-70840000D01*
X96560000Y-70920000D01*
X95260000Y-72040000D01*
X94430000Y-73410000D01*
X93600000Y-74780000D01*
X92040000Y-75440000D01*
X90480000Y-76100000D01*
X88920000Y-76760000D01*
X88030000Y-77560000D01*
X87140000Y-78360000D01*
X83489362Y-78360000D01*
X83710000Y-78020000D01*
X84320000Y-77080000D01*
X86036000Y-76436000D01*
X87752000Y-75792000D01*
X89468000Y-75148000D01*
X91184000Y-74504000D01*
X92900000Y-73860000D01*
X93807000Y-72793000D01*
X94713000Y-71727000D01*
X95620000Y-70660000D01*
X97105000Y-69775000D01*
X98590000Y-68890000D01*
X100075000Y-68005000D01*
X101560000Y-67120000D01*
X102767000Y-66093000D01*
X103973000Y-65067000D01*
X105180000Y-64040000D01*
X106120000Y-62930000D01*
X107060000Y-61820000D01*
X107360000Y-60960000D01*
X106100000Y-60380000D01*
X104640000Y-60620000D01*
X102940000Y-60410000D01*
X101240000Y-60200000D01*
X100120000Y-60340000D01*
X100300000Y-60140000D01*
X100460000Y-59900000D01*
X100600000Y-59640000D01*
X100680000Y-59360000D01*
X100720000Y-59240000D01*
X101360000Y-58820000D01*
X103260000Y-58320000D01*
X104580000Y-58560000D01*
X105810000Y-59170000D01*
X107040000Y-59780000D01*
X108060000Y-59800000D01*
X108180000Y-59940000D01*
X108400000Y-60120000D01*
X108640000Y-60280000D01*
X108900000Y-60420000D01*
X109180000Y-60500000D01*
X109460000Y-60560000D01*
X109740000Y-60580000D01*
X110020000Y-60560000D01*
X110300000Y-60500000D01*
X110580000Y-60420000D01*
X110840000Y-60280000D01*
X111080000Y-60120000D01*
X111300000Y-59940000D01*
X111480000Y-59720000D01*
X111640000Y-59480000D01*
X111780000Y-59220000D01*
X111860000Y-58940000D01*
X111920000Y-58660000D01*
X111940000Y-58440000D01*
X112060000Y-58460000D01*
X112340000Y-58480000D01*
X112620000Y-58460000D01*
X112900000Y-58400000D01*
X113180000Y-58320000D01*
X113440000Y-58180000D01*
X113680000Y-58020000D01*
X113900000Y-57840000D01*
X114080000Y-57620000D01*
X114240000Y-57380000D01*
X114380000Y-57120000D01*
X114460000Y-56840000D01*
X114520000Y-56560000D01*
X114540000Y-56280000D01*
X114520000Y-56000000D01*
X114460000Y-55720000D01*
X114380000Y-55440000D01*
X114320000Y-55340000D01*
X114360000Y-55300000D01*
X115200000Y-53500000D01*
X116040000Y-51700000D01*
X116230000Y-50940000D01*
X117520000Y-50940000D01*
X117700000Y-51400000D01*
X118420000Y-51000000D01*
X118900000Y-51240000D01*
X120420000Y-50260000D01*
X121160000Y-50160000D01*
X121525079Y-49660000D01*
X148060000Y-49660000D01*
X148140000Y-49940000D01*
X149625000Y-50310000D01*
X151110000Y-50680000D01*
X152595000Y-51050000D01*
X154080000Y-51420000D01*
X155980000Y-50970000D01*
X157880000Y-50520000D01*
X158360000Y-50040000D01*
X157527000Y-48853000D01*
X156693000Y-47667000D01*
X155860000Y-46480000D01*
X154460000Y-46310000D01*
X153060000Y-46140000D01*
X151520000Y-46980000D01*
X149980000Y-47820000D01*
X149020000Y-48740000D01*
X148060000Y-49660000D01*
X121525079Y-49660000D01*
X122080000Y-48900000D01*
X123240000Y-48280000D01*
X121740000Y-48140000D01*
X120690000Y-48350000D01*
X119640000Y-48560000D01*
X118800000Y-49240000D01*
X117960000Y-49920000D01*
X117520000Y-50940000D01*
X116230000Y-50940000D01*
X116320000Y-50580000D01*
X116600000Y-49460000D01*
X116940000Y-49120000D01*
X117040000Y-49140000D01*
X117320000Y-49160000D01*
X117600000Y-49140000D01*
X117880000Y-49080000D01*
X118160000Y-49000000D01*
X118420000Y-48860000D01*
X118660000Y-48700000D01*
X118880000Y-48520000D01*
X119060000Y-48300000D01*
X119220000Y-48060000D01*
X119360000Y-47800000D01*
X119440000Y-47520000D01*
X119500000Y-47240000D01*
X119920000Y-47020000D01*
X121830000Y-46730000D01*
X123740000Y-46440000D01*
X125370000Y-46600000D01*
X127000000Y-46760000D01*
X128750000Y-47135000D01*
X130500000Y-47510000D01*
X132250000Y-47885000D01*
X134000000Y-48260000D01*
X135590000Y-48310000D01*
X137180000Y-48360000D01*
X138815000Y-47925000D01*
X140450000Y-47490000D01*
X142085000Y-47055000D01*
X143720000Y-46620000D01*
X144780000Y-46620000D01*
X145660000Y-47140000D01*
X147140000Y-46140000D01*
X148890000Y-45940000D01*
X150640000Y-45740000D01*
X152160000Y-45280000D01*
X153680000Y-44820000D01*
X154633000Y-43793000D01*
X155587000Y-42767000D01*
X156540000Y-41740000D01*
X157360000Y-41420000D01*
X158450000Y-40470000D01*
X159540000Y-39520000D01*
X160780000Y-38720000D01*
X162020000Y-37920000D01*
X163260000Y-37120000D01*
X164560000Y-36700000D01*
X165860000Y-36280000D01*
X167220000Y-35200000D01*
X168400000Y-33590000D01*
X169580000Y-31980000D01*
X170153000Y-30393000D01*
X170727000Y-28807000D01*
X171300000Y-27220000D01*
X172007000Y-25933000D01*
X172713000Y-24647000D01*
X173420000Y-23360000D01*
X173910000Y-21640000D01*
X174400000Y-19920000D01*
X175150000Y-19010000D01*
X175900000Y-18100000D01*
X177547000Y-17307000D01*
X179193000Y-16513000D01*
X180840000Y-15720000D01*
X182535000Y-15290000D01*
X184230000Y-14860000D01*
X185925000Y-14430000D01*
X187620000Y-14000000D01*
X189120000Y-13240000D01*
X189200000Y-12640000D01*
X188700000Y-12120000D01*
X187760000Y-12240000D01*
X185860000Y-11620000D01*
X184560000Y-10680000D01*
X184000000Y-9340000D01*
X183440000Y-8000000D01*
X182880000Y-6660000D01*
X183360000Y-5220000D01*
X183260000Y-4460000D01*
X184000000Y-3700000D01*
X184000000Y-2080000D01*
X185180000Y-1050000D01*
X186360000Y-400000D01*
X187800000Y-400000D01*
X187480000Y-920000D01*
G37*
D11*
X11800000Y-23780000D02*
X12660000Y-25680000D01*
X12020000Y-21420000D02*
X11800000Y-23780000D01*
X12660000Y-25680000D02*
X13360000Y-25560000D01*
X13240000Y-39720000D02*
X12780000Y-40780000D01*
X13360000Y-25560000D02*
X13360000Y-26420000D01*
X13360000Y-26420000D02*
X14780000Y-26340000D01*
X14680000Y-30660000D02*
X18520000Y-30760000D01*
X14780000Y-26340000D02*
X14680000Y-30660000D01*
X18100000Y-35140000D02*
X20540000Y-36520000D01*
X18520000Y-30760000D02*
X18620000Y-31520000D01*
X18620000Y-31520000D02*
X20600000Y-31560000D01*
X19960000Y-40300000D02*
X20520000Y-42020000D01*
X20520000Y-40240000D02*
X19960000Y-40300000D01*
X20520000Y-42020000D02*
X13240000Y-39720000D01*
X20540000Y-34720000D02*
X18100000Y-35140000D01*
X20540000Y-36520000D02*
X20520000Y-40240000D01*
X20600000Y-31560000D02*
X20540000Y-34720000D01*
D12*
X5771428Y-28183996D02*
X5771428Y-29398282D01*
X5771428Y-29398282D02*
X5842857Y-29541139D01*
X5842857Y-29541139D02*
X5914286Y-29612568D01*
X5914286Y-29612568D02*
X6057143Y-29683996D01*
X6057143Y-29683996D02*
X6342857Y-29683996D01*
X6342857Y-29683996D02*
X6485714Y-29612568D01*
X6485714Y-29612568D02*
X6557143Y-29541139D01*
X6557143Y-29541139D02*
X6628571Y-29398282D01*
X6628571Y-29398282D02*
X6628571Y-28183996D01*
X7842857Y-28898282D02*
X8057143Y-28969710D01*
X8057143Y-28969710D02*
X8128572Y-29041139D01*
X8128572Y-29041139D02*
X8200000Y-29183996D01*
X8200000Y-29183996D02*
X8200000Y-29398282D01*
X8200000Y-29398282D02*
X8128572Y-29541139D01*
X8128572Y-29541139D02*
X8057143Y-29612568D01*
X8057143Y-29612568D02*
X7914286Y-29683996D01*
X7914286Y-29683996D02*
X7342857Y-29683996D01*
X7342857Y-29683996D02*
X7342857Y-28183996D01*
X7342857Y-28183996D02*
X7842857Y-28183996D01*
X7842857Y-28183996D02*
X7985715Y-28255425D01*
X7985715Y-28255425D02*
X8057143Y-28326853D01*
X8057143Y-28326853D02*
X8128572Y-28469710D01*
X8128572Y-28469710D02*
X8128572Y-28612568D01*
X8128572Y-28612568D02*
X8057143Y-28755425D01*
X8057143Y-28755425D02*
X7985715Y-28826853D01*
X7985715Y-28826853D02*
X7842857Y-28898282D01*
X7842857Y-28898282D02*
X7342857Y-28898282D01*
X9700000Y-29541139D02*
X9628572Y-29612568D01*
X9628572Y-29612568D02*
X9414286Y-29683996D01*
X9414286Y-29683996D02*
X9271429Y-29683996D01*
X9271429Y-29683996D02*
X9057143Y-29612568D01*
X9057143Y-29612568D02*
X8914286Y-29469710D01*
X8914286Y-29469710D02*
X8842857Y-29326853D01*
X8842857Y-29326853D02*
X8771429Y-29041139D01*
X8771429Y-29041139D02*
X8771429Y-28826853D01*
X8771429Y-28826853D02*
X8842857Y-28541139D01*
X8842857Y-28541139D02*
X8914286Y-28398282D01*
X8914286Y-28398282D02*
X9057143Y-28255425D01*
X9057143Y-28255425D02*
X9271429Y-28183996D01*
X9271429Y-28183996D02*
X9414286Y-28183996D01*
X9414286Y-28183996D02*
X9628572Y-28255425D01*
X9628572Y-28255425D02*
X9700000Y-28326853D01*
X28864286Y-45083996D02*
X29364286Y-46583996D01*
X29364286Y-46583996D02*
X29864286Y-45083996D01*
X31007143Y-46583996D02*
X31007143Y-45798282D01*
X31007143Y-45798282D02*
X30935714Y-45655425D01*
X30935714Y-45655425D02*
X30792857Y-45583996D01*
X30792857Y-45583996D02*
X30507143Y-45583996D01*
X30507143Y-45583996D02*
X30364285Y-45655425D01*
X31007143Y-46512568D02*
X30864285Y-46583996D01*
X30864285Y-46583996D02*
X30507143Y-46583996D01*
X30507143Y-46583996D02*
X30364285Y-46512568D01*
X30364285Y-46512568D02*
X30292857Y-46369710D01*
X30292857Y-46369710D02*
X30292857Y-46226853D01*
X30292857Y-46226853D02*
X30364285Y-46083996D01*
X30364285Y-46083996D02*
X30507143Y-46012568D01*
X30507143Y-46012568D02*
X30864285Y-46012568D01*
X30864285Y-46012568D02*
X31007143Y-45941139D01*
X31721428Y-45583996D02*
X31721428Y-46583996D01*
X31721428Y-45726853D02*
X31792857Y-45655425D01*
X31792857Y-45655425D02*
X31935714Y-45583996D01*
X31935714Y-45583996D02*
X32150000Y-45583996D01*
X32150000Y-45583996D02*
X32292857Y-45655425D01*
X32292857Y-45655425D02*
X32364286Y-45798282D01*
X32364286Y-45798282D02*
X32364286Y-46583996D01*
X33721429Y-46512568D02*
X33578571Y-46583996D01*
X33578571Y-46583996D02*
X33292857Y-46583996D01*
X33292857Y-46583996D02*
X33150000Y-46512568D01*
X33150000Y-46512568D02*
X33078571Y-46441139D01*
X33078571Y-46441139D02*
X33007143Y-46298282D01*
X33007143Y-46298282D02*
X33007143Y-45869710D01*
X33007143Y-45869710D02*
X33078571Y-45726853D01*
X33078571Y-45726853D02*
X33150000Y-45655425D01*
X33150000Y-45655425D02*
X33292857Y-45583996D01*
X33292857Y-45583996D02*
X33578571Y-45583996D01*
X33578571Y-45583996D02*
X33721429Y-45655425D01*
X34578571Y-46583996D02*
X34435714Y-46512568D01*
X34435714Y-46512568D02*
X34364285Y-46441139D01*
X34364285Y-46441139D02*
X34292857Y-46298282D01*
X34292857Y-46298282D02*
X34292857Y-45869710D01*
X34292857Y-45869710D02*
X34364285Y-45726853D01*
X34364285Y-45726853D02*
X34435714Y-45655425D01*
X34435714Y-45655425D02*
X34578571Y-45583996D01*
X34578571Y-45583996D02*
X34792857Y-45583996D01*
X34792857Y-45583996D02*
X34935714Y-45655425D01*
X34935714Y-45655425D02*
X35007143Y-45726853D01*
X35007143Y-45726853D02*
X35078571Y-45869710D01*
X35078571Y-45869710D02*
X35078571Y-46298282D01*
X35078571Y-46298282D02*
X35007143Y-46441139D01*
X35007143Y-46441139D02*
X34935714Y-46512568D01*
X34935714Y-46512568D02*
X34792857Y-46583996D01*
X34792857Y-46583996D02*
X34578571Y-46583996D01*
X36364286Y-45583996D02*
X36364286Y-46583996D01*
X35721428Y-45583996D02*
X35721428Y-46369710D01*
X35721428Y-46369710D02*
X35792857Y-46512568D01*
X35792857Y-46512568D02*
X35935714Y-46583996D01*
X35935714Y-46583996D02*
X36150000Y-46583996D01*
X36150000Y-46583996D02*
X36292857Y-46512568D01*
X36292857Y-46512568D02*
X36364286Y-46441139D01*
X36935714Y-45583996D02*
X37292857Y-46583996D01*
X37292857Y-46583996D02*
X37650000Y-45583996D01*
X38792857Y-46512568D02*
X38650000Y-46583996D01*
X38650000Y-46583996D02*
X38364286Y-46583996D01*
X38364286Y-46583996D02*
X38221428Y-46512568D01*
X38221428Y-46512568D02*
X38150000Y-46369710D01*
X38150000Y-46369710D02*
X38150000Y-45798282D01*
X38150000Y-45798282D02*
X38221428Y-45655425D01*
X38221428Y-45655425D02*
X38364286Y-45583996D01*
X38364286Y-45583996D02*
X38650000Y-45583996D01*
X38650000Y-45583996D02*
X38792857Y-45655425D01*
X38792857Y-45655425D02*
X38864286Y-45798282D01*
X38864286Y-45798282D02*
X38864286Y-45941139D01*
X38864286Y-45941139D02*
X38150000Y-46083996D01*
X39507142Y-46583996D02*
X39507142Y-45583996D01*
X39507142Y-45869710D02*
X39578571Y-45726853D01*
X39578571Y-45726853D02*
X39650000Y-45655425D01*
X39650000Y-45655425D02*
X39792857Y-45583996D01*
X39792857Y-45583996D02*
X39935714Y-45583996D01*
X33909999Y-86323996D02*
X33409999Y-85609710D01*
X33052856Y-86323996D02*
X33052856Y-84823996D01*
X33052856Y-84823996D02*
X33624285Y-84823996D01*
X33624285Y-84823996D02*
X33767142Y-84895425D01*
X33767142Y-84895425D02*
X33838571Y-84966853D01*
X33838571Y-84966853D02*
X33909999Y-85109710D01*
X33909999Y-85109710D02*
X33909999Y-85323996D01*
X33909999Y-85323996D02*
X33838571Y-85466853D01*
X33838571Y-85466853D02*
X33767142Y-85538282D01*
X33767142Y-85538282D02*
X33624285Y-85609710D01*
X33624285Y-85609710D02*
X33052856Y-85609710D01*
X34552856Y-86323996D02*
X34552856Y-85323996D01*
X34552856Y-84823996D02*
X34481428Y-84895425D01*
X34481428Y-84895425D02*
X34552856Y-84966853D01*
X34552856Y-84966853D02*
X34624285Y-84895425D01*
X34624285Y-84895425D02*
X34552856Y-84823996D01*
X34552856Y-84823996D02*
X34552856Y-84966853D01*
X35910000Y-86252568D02*
X35767142Y-86323996D01*
X35767142Y-86323996D02*
X35481428Y-86323996D01*
X35481428Y-86323996D02*
X35338571Y-86252568D01*
X35338571Y-86252568D02*
X35267142Y-86181139D01*
X35267142Y-86181139D02*
X35195714Y-86038282D01*
X35195714Y-86038282D02*
X35195714Y-85609710D01*
X35195714Y-85609710D02*
X35267142Y-85466853D01*
X35267142Y-85466853D02*
X35338571Y-85395425D01*
X35338571Y-85395425D02*
X35481428Y-85323996D01*
X35481428Y-85323996D02*
X35767142Y-85323996D01*
X35767142Y-85323996D02*
X35910000Y-85395425D01*
X36552856Y-86323996D02*
X36552856Y-84823996D01*
X37195714Y-86323996D02*
X37195714Y-85538282D01*
X37195714Y-85538282D02*
X37124285Y-85395425D01*
X37124285Y-85395425D02*
X36981428Y-85323996D01*
X36981428Y-85323996D02*
X36767142Y-85323996D01*
X36767142Y-85323996D02*
X36624285Y-85395425D01*
X36624285Y-85395425D02*
X36552856Y-85466853D01*
X37909999Y-86323996D02*
X37909999Y-85323996D01*
X37909999Y-85466853D02*
X37981428Y-85395425D01*
X37981428Y-85395425D02*
X38124285Y-85323996D01*
X38124285Y-85323996D02*
X38338571Y-85323996D01*
X38338571Y-85323996D02*
X38481428Y-85395425D01*
X38481428Y-85395425D02*
X38552857Y-85538282D01*
X38552857Y-85538282D02*
X38552857Y-86323996D01*
X38552857Y-85538282D02*
X38624285Y-85395425D01*
X38624285Y-85395425D02*
X38767142Y-85323996D01*
X38767142Y-85323996D02*
X38981428Y-85323996D01*
X38981428Y-85323996D02*
X39124285Y-85395425D01*
X39124285Y-85395425D02*
X39195714Y-85538282D01*
X39195714Y-85538282D02*
X39195714Y-86323996D01*
X40124285Y-86323996D02*
X39981428Y-86252568D01*
X39981428Y-86252568D02*
X39909999Y-86181139D01*
X39909999Y-86181139D02*
X39838571Y-86038282D01*
X39838571Y-86038282D02*
X39838571Y-85609710D01*
X39838571Y-85609710D02*
X39909999Y-85466853D01*
X39909999Y-85466853D02*
X39981428Y-85395425D01*
X39981428Y-85395425D02*
X40124285Y-85323996D01*
X40124285Y-85323996D02*
X40338571Y-85323996D01*
X40338571Y-85323996D02*
X40481428Y-85395425D01*
X40481428Y-85395425D02*
X40552857Y-85466853D01*
X40552857Y-85466853D02*
X40624285Y-85609710D01*
X40624285Y-85609710D02*
X40624285Y-86038282D01*
X40624285Y-86038282D02*
X40552857Y-86181139D01*
X40552857Y-86181139D02*
X40481428Y-86252568D01*
X40481428Y-86252568D02*
X40338571Y-86323996D01*
X40338571Y-86323996D02*
X40124285Y-86323996D01*
X41267142Y-85323996D02*
X41267142Y-86323996D01*
X41267142Y-85466853D02*
X41338571Y-85395425D01*
X41338571Y-85395425D02*
X41481428Y-85323996D01*
X41481428Y-85323996D02*
X41695714Y-85323996D01*
X41695714Y-85323996D02*
X41838571Y-85395425D01*
X41838571Y-85395425D02*
X41910000Y-85538282D01*
X41910000Y-85538282D02*
X41910000Y-86323996D01*
X43267143Y-86323996D02*
X43267143Y-84823996D01*
X43267143Y-86252568D02*
X43124285Y-86323996D01*
X43124285Y-86323996D02*
X42838571Y-86323996D01*
X42838571Y-86323996D02*
X42695714Y-86252568D01*
X42695714Y-86252568D02*
X42624285Y-86181139D01*
X42624285Y-86181139D02*
X42552857Y-86038282D01*
X42552857Y-86038282D02*
X42552857Y-85609710D01*
X42552857Y-85609710D02*
X42624285Y-85466853D01*
X42624285Y-85466853D02*
X42695714Y-85395425D01*
X42695714Y-85395425D02*
X42838571Y-85323996D01*
X42838571Y-85323996D02*
X43124285Y-85323996D01*
X43124285Y-85323996D02*
X43267143Y-85395425D01*
X77311428Y-3863996D02*
X77311428Y-2363996D01*
X77311428Y-2363996D02*
X78168571Y-3863996D01*
X78168571Y-3863996D02*
X78168571Y-2363996D01*
X79097143Y-3863996D02*
X78954286Y-3792568D01*
X78954286Y-3792568D02*
X78882857Y-3721139D01*
X78882857Y-3721139D02*
X78811429Y-3578282D01*
X78811429Y-3578282D02*
X78811429Y-3149710D01*
X78811429Y-3149710D02*
X78882857Y-3006853D01*
X78882857Y-3006853D02*
X78954286Y-2935425D01*
X78954286Y-2935425D02*
X79097143Y-2863996D01*
X79097143Y-2863996D02*
X79311429Y-2863996D01*
X79311429Y-2863996D02*
X79454286Y-2935425D01*
X79454286Y-2935425D02*
X79525715Y-3006853D01*
X79525715Y-3006853D02*
X79597143Y-3149710D01*
X79597143Y-3149710D02*
X79597143Y-3578282D01*
X79597143Y-3578282D02*
X79525715Y-3721139D01*
X79525715Y-3721139D02*
X79454286Y-3792568D01*
X79454286Y-3792568D02*
X79311429Y-3863996D01*
X79311429Y-3863996D02*
X79097143Y-3863996D01*
X80240000Y-3863996D02*
X80240000Y-2863996D01*
X80240000Y-3149710D02*
X80311429Y-3006853D01*
X80311429Y-3006853D02*
X80382858Y-2935425D01*
X80382858Y-2935425D02*
X80525715Y-2863996D01*
X80525715Y-2863996D02*
X80668572Y-2863996D01*
X80954286Y-2863996D02*
X81525714Y-2863996D01*
X81168571Y-2363996D02*
X81168571Y-3649710D01*
X81168571Y-3649710D02*
X81240000Y-3792568D01*
X81240000Y-3792568D02*
X81382857Y-3863996D01*
X81382857Y-3863996D02*
X81525714Y-3863996D01*
X82025714Y-3863996D02*
X82025714Y-2363996D01*
X82668572Y-3863996D02*
X82668572Y-3078282D01*
X82668572Y-3078282D02*
X82597143Y-2935425D01*
X82597143Y-2935425D02*
X82454286Y-2863996D01*
X82454286Y-2863996D02*
X82240000Y-2863996D01*
X82240000Y-2863996D02*
X82097143Y-2935425D01*
X82097143Y-2935425D02*
X82025714Y-3006853D01*
X84311429Y-2363996D02*
X84811429Y-3863996D01*
X84811429Y-3863996D02*
X85311429Y-2363996D01*
X86454286Y-3863996D02*
X86454286Y-3078282D01*
X86454286Y-3078282D02*
X86382857Y-2935425D01*
X86382857Y-2935425D02*
X86240000Y-2863996D01*
X86240000Y-2863996D02*
X85954286Y-2863996D01*
X85954286Y-2863996D02*
X85811428Y-2935425D01*
X86454286Y-3792568D02*
X86311428Y-3863996D01*
X86311428Y-3863996D02*
X85954286Y-3863996D01*
X85954286Y-3863996D02*
X85811428Y-3792568D01*
X85811428Y-3792568D02*
X85740000Y-3649710D01*
X85740000Y-3649710D02*
X85740000Y-3506853D01*
X85740000Y-3506853D02*
X85811428Y-3363996D01*
X85811428Y-3363996D02*
X85954286Y-3292568D01*
X85954286Y-3292568D02*
X86311428Y-3292568D01*
X86311428Y-3292568D02*
X86454286Y-3221139D01*
X87168571Y-2863996D02*
X87168571Y-3863996D01*
X87168571Y-3006853D02*
X87240000Y-2935425D01*
X87240000Y-2935425D02*
X87382857Y-2863996D01*
X87382857Y-2863996D02*
X87597143Y-2863996D01*
X87597143Y-2863996D02*
X87740000Y-2935425D01*
X87740000Y-2935425D02*
X87811429Y-3078282D01*
X87811429Y-3078282D02*
X87811429Y-3863996D01*
X89168572Y-3792568D02*
X89025714Y-3863996D01*
X89025714Y-3863996D02*
X88740000Y-3863996D01*
X88740000Y-3863996D02*
X88597143Y-3792568D01*
X88597143Y-3792568D02*
X88525714Y-3721139D01*
X88525714Y-3721139D02*
X88454286Y-3578282D01*
X88454286Y-3578282D02*
X88454286Y-3149710D01*
X88454286Y-3149710D02*
X88525714Y-3006853D01*
X88525714Y-3006853D02*
X88597143Y-2935425D01*
X88597143Y-2935425D02*
X88740000Y-2863996D01*
X88740000Y-2863996D02*
X89025714Y-2863996D01*
X89025714Y-2863996D02*
X89168572Y-2935425D01*
X90025714Y-3863996D02*
X89882857Y-3792568D01*
X89882857Y-3792568D02*
X89811428Y-3721139D01*
X89811428Y-3721139D02*
X89740000Y-3578282D01*
X89740000Y-3578282D02*
X89740000Y-3149710D01*
X89740000Y-3149710D02*
X89811428Y-3006853D01*
X89811428Y-3006853D02*
X89882857Y-2935425D01*
X89882857Y-2935425D02*
X90025714Y-2863996D01*
X90025714Y-2863996D02*
X90240000Y-2863996D01*
X90240000Y-2863996D02*
X90382857Y-2935425D01*
X90382857Y-2935425D02*
X90454286Y-3006853D01*
X90454286Y-3006853D02*
X90525714Y-3149710D01*
X90525714Y-3149710D02*
X90525714Y-3578282D01*
X90525714Y-3578282D02*
X90454286Y-3721139D01*
X90454286Y-3721139D02*
X90382857Y-3792568D01*
X90382857Y-3792568D02*
X90240000Y-3863996D01*
X90240000Y-3863996D02*
X90025714Y-3863996D01*
X91811429Y-2863996D02*
X91811429Y-3863996D01*
X91168571Y-2863996D02*
X91168571Y-3649710D01*
X91168571Y-3649710D02*
X91240000Y-3792568D01*
X91240000Y-3792568D02*
X91382857Y-3863996D01*
X91382857Y-3863996D02*
X91597143Y-3863996D01*
X91597143Y-3863996D02*
X91740000Y-3792568D01*
X91740000Y-3792568D02*
X91811429Y-3721139D01*
X92382857Y-2863996D02*
X92740000Y-3863996D01*
X92740000Y-3863996D02*
X93097143Y-2863996D01*
X94240000Y-3792568D02*
X94097143Y-3863996D01*
X94097143Y-3863996D02*
X93811429Y-3863996D01*
X93811429Y-3863996D02*
X93668571Y-3792568D01*
X93668571Y-3792568D02*
X93597143Y-3649710D01*
X93597143Y-3649710D02*
X93597143Y-3078282D01*
X93597143Y-3078282D02*
X93668571Y-2935425D01*
X93668571Y-2935425D02*
X93811429Y-2863996D01*
X93811429Y-2863996D02*
X94097143Y-2863996D01*
X94097143Y-2863996D02*
X94240000Y-2935425D01*
X94240000Y-2935425D02*
X94311429Y-3078282D01*
X94311429Y-3078282D02*
X94311429Y-3221139D01*
X94311429Y-3221139D02*
X93597143Y-3363996D01*
X94954285Y-3863996D02*
X94954285Y-2863996D01*
X94954285Y-3149710D02*
X95025714Y-3006853D01*
X95025714Y-3006853D02*
X95097143Y-2935425D01*
X95097143Y-2935425D02*
X95240000Y-2863996D01*
X95240000Y-2863996D02*
X95382857Y-2863996D01*
X91757142Y-20198282D02*
X91971428Y-20269710D01*
X91971428Y-20269710D02*
X92042857Y-20341139D01*
X92042857Y-20341139D02*
X92114285Y-20483996D01*
X92114285Y-20483996D02*
X92114285Y-20698282D01*
X92114285Y-20698282D02*
X92042857Y-20841139D01*
X92042857Y-20841139D02*
X91971428Y-20912568D01*
X91971428Y-20912568D02*
X91828571Y-20983996D01*
X91828571Y-20983996D02*
X91257142Y-20983996D01*
X91257142Y-20983996D02*
X91257142Y-19483996D01*
X91257142Y-19483996D02*
X91757142Y-19483996D01*
X91757142Y-19483996D02*
X91900000Y-19555425D01*
X91900000Y-19555425D02*
X91971428Y-19626853D01*
X91971428Y-19626853D02*
X92042857Y-19769710D01*
X92042857Y-19769710D02*
X92042857Y-19912568D01*
X92042857Y-19912568D02*
X91971428Y-20055425D01*
X91971428Y-20055425D02*
X91900000Y-20126853D01*
X91900000Y-20126853D02*
X91757142Y-20198282D01*
X91757142Y-20198282D02*
X91257142Y-20198282D01*
X93400000Y-19983996D02*
X93400000Y-20983996D01*
X92757142Y-19983996D02*
X92757142Y-20769710D01*
X92757142Y-20769710D02*
X92828571Y-20912568D01*
X92828571Y-20912568D02*
X92971428Y-20983996D01*
X92971428Y-20983996D02*
X93185714Y-20983996D01*
X93185714Y-20983996D02*
X93328571Y-20912568D01*
X93328571Y-20912568D02*
X93400000Y-20841139D01*
X94114285Y-20983996D02*
X94114285Y-19983996D01*
X94114285Y-20269710D02*
X94185714Y-20126853D01*
X94185714Y-20126853D02*
X94257143Y-20055425D01*
X94257143Y-20055425D02*
X94400000Y-19983996D01*
X94400000Y-19983996D02*
X94542857Y-19983996D01*
X95042856Y-19983996D02*
X95042856Y-20983996D01*
X95042856Y-20126853D02*
X95114285Y-20055425D01*
X95114285Y-20055425D02*
X95257142Y-19983996D01*
X95257142Y-19983996D02*
X95471428Y-19983996D01*
X95471428Y-19983996D02*
X95614285Y-20055425D01*
X95614285Y-20055425D02*
X95685714Y-20198282D01*
X95685714Y-20198282D02*
X95685714Y-20983996D01*
X97042857Y-20983996D02*
X97042857Y-20198282D01*
X97042857Y-20198282D02*
X96971428Y-20055425D01*
X96971428Y-20055425D02*
X96828571Y-19983996D01*
X96828571Y-19983996D02*
X96542857Y-19983996D01*
X96542857Y-19983996D02*
X96399999Y-20055425D01*
X97042857Y-20912568D02*
X96899999Y-20983996D01*
X96899999Y-20983996D02*
X96542857Y-20983996D01*
X96542857Y-20983996D02*
X96399999Y-20912568D01*
X96399999Y-20912568D02*
X96328571Y-20769710D01*
X96328571Y-20769710D02*
X96328571Y-20626853D01*
X96328571Y-20626853D02*
X96399999Y-20483996D01*
X96399999Y-20483996D02*
X96542857Y-20412568D01*
X96542857Y-20412568D02*
X96899999Y-20412568D01*
X96899999Y-20412568D02*
X97042857Y-20341139D01*
X97757142Y-20983996D02*
X97757142Y-19483996D01*
X97757142Y-20055425D02*
X97900000Y-19983996D01*
X97900000Y-19983996D02*
X98185714Y-19983996D01*
X98185714Y-19983996D02*
X98328571Y-20055425D01*
X98328571Y-20055425D02*
X98400000Y-20126853D01*
X98400000Y-20126853D02*
X98471428Y-20269710D01*
X98471428Y-20269710D02*
X98471428Y-20698282D01*
X98471428Y-20698282D02*
X98400000Y-20841139D01*
X98400000Y-20841139D02*
X98328571Y-20912568D01*
X98328571Y-20912568D02*
X98185714Y-20983996D01*
X98185714Y-20983996D02*
X97900000Y-20983996D01*
X97900000Y-20983996D02*
X97757142Y-20912568D01*
X98971428Y-19983996D02*
X99328571Y-20983996D01*
X99685714Y-19983996D02*
X99328571Y-20983996D01*
X99328571Y-20983996D02*
X99185714Y-21341139D01*
X99185714Y-21341139D02*
X99114285Y-21412568D01*
X99114285Y-21412568D02*
X98971428Y-21483996D01*
X98084285Y-91383996D02*
X98084285Y-89883996D01*
X98084285Y-89883996D02*
X98441428Y-89883996D01*
X98441428Y-89883996D02*
X98655714Y-89955425D01*
X98655714Y-89955425D02*
X98798571Y-90098282D01*
X98798571Y-90098282D02*
X98870000Y-90241139D01*
X98870000Y-90241139D02*
X98941428Y-90526853D01*
X98941428Y-90526853D02*
X98941428Y-90741139D01*
X98941428Y-90741139D02*
X98870000Y-91026853D01*
X98870000Y-91026853D02*
X98798571Y-91169710D01*
X98798571Y-91169710D02*
X98655714Y-91312568D01*
X98655714Y-91312568D02*
X98441428Y-91383996D01*
X98441428Y-91383996D02*
X98084285Y-91383996D01*
X100155714Y-91312568D02*
X100012857Y-91383996D01*
X100012857Y-91383996D02*
X99727143Y-91383996D01*
X99727143Y-91383996D02*
X99584285Y-91312568D01*
X99584285Y-91312568D02*
X99512857Y-91169710D01*
X99512857Y-91169710D02*
X99512857Y-90598282D01*
X99512857Y-90598282D02*
X99584285Y-90455425D01*
X99584285Y-90455425D02*
X99727143Y-90383996D01*
X99727143Y-90383996D02*
X100012857Y-90383996D01*
X100012857Y-90383996D02*
X100155714Y-90455425D01*
X100155714Y-90455425D02*
X100227143Y-90598282D01*
X100227143Y-90598282D02*
X100227143Y-90741139D01*
X100227143Y-90741139D02*
X99512857Y-90883996D01*
X101084285Y-91383996D02*
X100941428Y-91312568D01*
X100941428Y-91312568D02*
X100869999Y-91169710D01*
X100869999Y-91169710D02*
X100869999Y-89883996D01*
X101441428Y-90383996D02*
X102012856Y-90383996D01*
X101655713Y-89883996D02*
X101655713Y-91169710D01*
X101655713Y-91169710D02*
X101727142Y-91312568D01*
X101727142Y-91312568D02*
X101869999Y-91383996D01*
X101869999Y-91383996D02*
X102012856Y-91383996D01*
X103155714Y-91383996D02*
X103155714Y-90598282D01*
X103155714Y-90598282D02*
X103084285Y-90455425D01*
X103084285Y-90455425D02*
X102941428Y-90383996D01*
X102941428Y-90383996D02*
X102655714Y-90383996D01*
X102655714Y-90383996D02*
X102512856Y-90455425D01*
X103155714Y-91312568D02*
X103012856Y-91383996D01*
X103012856Y-91383996D02*
X102655714Y-91383996D01*
X102655714Y-91383996D02*
X102512856Y-91312568D01*
X102512856Y-91312568D02*
X102441428Y-91169710D01*
X102441428Y-91169710D02*
X102441428Y-91026853D01*
X102441428Y-91026853D02*
X102512856Y-90883996D01*
X102512856Y-90883996D02*
X102655714Y-90812568D01*
X102655714Y-90812568D02*
X103012856Y-90812568D01*
X103012856Y-90812568D02*
X103155714Y-90741139D01*
X119750001Y-80412568D02*
X119964287Y-80483996D01*
X119964287Y-80483996D02*
X120321429Y-80483996D01*
X120321429Y-80483996D02*
X120464287Y-80412568D01*
X120464287Y-80412568D02*
X120535715Y-80341139D01*
X120535715Y-80341139D02*
X120607144Y-80198282D01*
X120607144Y-80198282D02*
X120607144Y-80055425D01*
X120607144Y-80055425D02*
X120535715Y-79912568D01*
X120535715Y-79912568D02*
X120464287Y-79841139D01*
X120464287Y-79841139D02*
X120321429Y-79769710D01*
X120321429Y-79769710D02*
X120035715Y-79698282D01*
X120035715Y-79698282D02*
X119892858Y-79626853D01*
X119892858Y-79626853D02*
X119821429Y-79555425D01*
X119821429Y-79555425D02*
X119750001Y-79412568D01*
X119750001Y-79412568D02*
X119750001Y-79269710D01*
X119750001Y-79269710D02*
X119821429Y-79126853D01*
X119821429Y-79126853D02*
X119892858Y-79055425D01*
X119892858Y-79055425D02*
X120035715Y-78983996D01*
X120035715Y-78983996D02*
X120392858Y-78983996D01*
X120392858Y-78983996D02*
X120607144Y-79055425D01*
X121892858Y-79483996D02*
X121892858Y-80483996D01*
X121250000Y-79483996D02*
X121250000Y-80269710D01*
X121250000Y-80269710D02*
X121321429Y-80412568D01*
X121321429Y-80412568D02*
X121464286Y-80483996D01*
X121464286Y-80483996D02*
X121678572Y-80483996D01*
X121678572Y-80483996D02*
X121821429Y-80412568D01*
X121821429Y-80412568D02*
X121892858Y-80341139D01*
X122607143Y-80483996D02*
X122607143Y-79483996D01*
X122607143Y-79769710D02*
X122678572Y-79626853D01*
X122678572Y-79626853D02*
X122750001Y-79555425D01*
X122750001Y-79555425D02*
X122892858Y-79483996D01*
X122892858Y-79483996D02*
X123035715Y-79483996D01*
X123535714Y-80483996D02*
X123535714Y-79483996D01*
X123535714Y-79769710D02*
X123607143Y-79626853D01*
X123607143Y-79626853D02*
X123678572Y-79555425D01*
X123678572Y-79555425D02*
X123821429Y-79483996D01*
X123821429Y-79483996D02*
X123964286Y-79483996D01*
X125035714Y-80412568D02*
X124892857Y-80483996D01*
X124892857Y-80483996D02*
X124607143Y-80483996D01*
X124607143Y-80483996D02*
X124464285Y-80412568D01*
X124464285Y-80412568D02*
X124392857Y-80269710D01*
X124392857Y-80269710D02*
X124392857Y-79698282D01*
X124392857Y-79698282D02*
X124464285Y-79555425D01*
X124464285Y-79555425D02*
X124607143Y-79483996D01*
X124607143Y-79483996D02*
X124892857Y-79483996D01*
X124892857Y-79483996D02*
X125035714Y-79555425D01*
X125035714Y-79555425D02*
X125107143Y-79698282D01*
X125107143Y-79698282D02*
X125107143Y-79841139D01*
X125107143Y-79841139D02*
X124392857Y-79983996D01*
X125607142Y-79483996D02*
X125964285Y-80483996D01*
X126321428Y-79483996D02*
X125964285Y-80483996D01*
X125964285Y-80483996D02*
X125821428Y-80841139D01*
X125821428Y-80841139D02*
X125749999Y-80912568D01*
X125749999Y-80912568D02*
X125607142Y-80983996D01*
X125499999Y-30783996D02*
X125499999Y-29283996D01*
X125499999Y-29283996D02*
X126071428Y-29283996D01*
X126071428Y-29283996D02*
X126214285Y-29355425D01*
X126214285Y-29355425D02*
X126285714Y-29426853D01*
X126285714Y-29426853D02*
X126357142Y-29569710D01*
X126357142Y-29569710D02*
X126357142Y-29783996D01*
X126357142Y-29783996D02*
X126285714Y-29926853D01*
X126285714Y-29926853D02*
X126214285Y-29998282D01*
X126214285Y-29998282D02*
X126071428Y-30069710D01*
X126071428Y-30069710D02*
X125499999Y-30069710D01*
X127214285Y-30783996D02*
X127071428Y-30712568D01*
X127071428Y-30712568D02*
X126999999Y-30641139D01*
X126999999Y-30641139D02*
X126928571Y-30498282D01*
X126928571Y-30498282D02*
X126928571Y-30069710D01*
X126928571Y-30069710D02*
X126999999Y-29926853D01*
X126999999Y-29926853D02*
X127071428Y-29855425D01*
X127071428Y-29855425D02*
X127214285Y-29783996D01*
X127214285Y-29783996D02*
X127428571Y-29783996D01*
X127428571Y-29783996D02*
X127571428Y-29855425D01*
X127571428Y-29855425D02*
X127642857Y-29926853D01*
X127642857Y-29926853D02*
X127714285Y-30069710D01*
X127714285Y-30069710D02*
X127714285Y-30498282D01*
X127714285Y-30498282D02*
X127642857Y-30641139D01*
X127642857Y-30641139D02*
X127571428Y-30712568D01*
X127571428Y-30712568D02*
X127428571Y-30783996D01*
X127428571Y-30783996D02*
X127214285Y-30783996D01*
X128357142Y-30783996D02*
X128357142Y-29783996D01*
X128357142Y-30069710D02*
X128428571Y-29926853D01*
X128428571Y-29926853D02*
X128500000Y-29855425D01*
X128500000Y-29855425D02*
X128642857Y-29783996D01*
X128642857Y-29783996D02*
X128785714Y-29783996D01*
X129071428Y-29783996D02*
X129642856Y-29783996D01*
X129285713Y-29283996D02*
X129285713Y-30569710D01*
X129285713Y-30569710D02*
X129357142Y-30712568D01*
X129357142Y-30712568D02*
X129499999Y-30783996D01*
X129499999Y-30783996D02*
X129642856Y-30783996D01*
X131285713Y-30783996D02*
X131285713Y-29283996D01*
X131285713Y-29283996D02*
X131785713Y-30355425D01*
X131785713Y-30355425D02*
X132285713Y-29283996D01*
X132285713Y-29283996D02*
X132285713Y-30783996D01*
X133214285Y-30783996D02*
X133071428Y-30712568D01*
X133071428Y-30712568D02*
X132999999Y-30641139D01*
X132999999Y-30641139D02*
X132928571Y-30498282D01*
X132928571Y-30498282D02*
X132928571Y-30069710D01*
X132928571Y-30069710D02*
X132999999Y-29926853D01*
X132999999Y-29926853D02*
X133071428Y-29855425D01*
X133071428Y-29855425D02*
X133214285Y-29783996D01*
X133214285Y-29783996D02*
X133428571Y-29783996D01*
X133428571Y-29783996D02*
X133571428Y-29855425D01*
X133571428Y-29855425D02*
X133642857Y-29926853D01*
X133642857Y-29926853D02*
X133714285Y-30069710D01*
X133714285Y-30069710D02*
X133714285Y-30498282D01*
X133714285Y-30498282D02*
X133642857Y-30641139D01*
X133642857Y-30641139D02*
X133571428Y-30712568D01*
X133571428Y-30712568D02*
X133428571Y-30783996D01*
X133428571Y-30783996D02*
X133214285Y-30783996D01*
X134571428Y-30783996D02*
X134428571Y-30712568D01*
X134428571Y-30712568D02*
X134357142Y-30641139D01*
X134357142Y-30641139D02*
X134285714Y-30498282D01*
X134285714Y-30498282D02*
X134285714Y-30069710D01*
X134285714Y-30069710D02*
X134357142Y-29926853D01*
X134357142Y-29926853D02*
X134428571Y-29855425D01*
X134428571Y-29855425D02*
X134571428Y-29783996D01*
X134571428Y-29783996D02*
X134785714Y-29783996D01*
X134785714Y-29783996D02*
X134928571Y-29855425D01*
X134928571Y-29855425D02*
X135000000Y-29926853D01*
X135000000Y-29926853D02*
X135071428Y-30069710D01*
X135071428Y-30069710D02*
X135071428Y-30498282D01*
X135071428Y-30498282D02*
X135000000Y-30641139D01*
X135000000Y-30641139D02*
X134928571Y-30712568D01*
X134928571Y-30712568D02*
X134785714Y-30783996D01*
X134785714Y-30783996D02*
X134571428Y-30783996D01*
X136357143Y-30783996D02*
X136357143Y-29283996D01*
X136357143Y-30712568D02*
X136214285Y-30783996D01*
X136214285Y-30783996D02*
X135928571Y-30783996D01*
X135928571Y-30783996D02*
X135785714Y-30712568D01*
X135785714Y-30712568D02*
X135714285Y-30641139D01*
X135714285Y-30641139D02*
X135642857Y-30498282D01*
X135642857Y-30498282D02*
X135642857Y-30069710D01*
X135642857Y-30069710D02*
X135714285Y-29926853D01*
X135714285Y-29926853D02*
X135785714Y-29855425D01*
X135785714Y-29855425D02*
X135928571Y-29783996D01*
X135928571Y-29783996D02*
X136214285Y-29783996D01*
X136214285Y-29783996D02*
X136357143Y-29855425D01*
X136928571Y-29783996D02*
X137285714Y-30783996D01*
X137642857Y-29783996D02*
X137285714Y-30783996D01*
X137285714Y-30783996D02*
X137142857Y-31141139D01*
X137142857Y-31141139D02*
X137071428Y-31212568D01*
X137071428Y-31212568D02*
X136928571Y-31283996D01*
X149941428Y-27923996D02*
X149941428Y-26423996D01*
X149941428Y-26423996D02*
X150512857Y-26423996D01*
X150512857Y-26423996D02*
X150655714Y-26495425D01*
X150655714Y-26495425D02*
X150727143Y-26566853D01*
X150727143Y-26566853D02*
X150798571Y-26709710D01*
X150798571Y-26709710D02*
X150798571Y-26923996D01*
X150798571Y-26923996D02*
X150727143Y-27066853D01*
X150727143Y-27066853D02*
X150655714Y-27138282D01*
X150655714Y-27138282D02*
X150512857Y-27209710D01*
X150512857Y-27209710D02*
X149941428Y-27209710D01*
X151655714Y-27923996D02*
X151512857Y-27852568D01*
X151512857Y-27852568D02*
X151441428Y-27781139D01*
X151441428Y-27781139D02*
X151370000Y-27638282D01*
X151370000Y-27638282D02*
X151370000Y-27209710D01*
X151370000Y-27209710D02*
X151441428Y-27066853D01*
X151441428Y-27066853D02*
X151512857Y-26995425D01*
X151512857Y-26995425D02*
X151655714Y-26923996D01*
X151655714Y-26923996D02*
X151870000Y-26923996D01*
X151870000Y-26923996D02*
X152012857Y-26995425D01*
X152012857Y-26995425D02*
X152084286Y-27066853D01*
X152084286Y-27066853D02*
X152155714Y-27209710D01*
X152155714Y-27209710D02*
X152155714Y-27638282D01*
X152155714Y-27638282D02*
X152084286Y-27781139D01*
X152084286Y-27781139D02*
X152012857Y-27852568D01*
X152012857Y-27852568D02*
X151870000Y-27923996D01*
X151870000Y-27923996D02*
X151655714Y-27923996D01*
X152798571Y-27923996D02*
X152798571Y-26923996D01*
X152798571Y-27209710D02*
X152870000Y-27066853D01*
X152870000Y-27066853D02*
X152941429Y-26995425D01*
X152941429Y-26995425D02*
X153084286Y-26923996D01*
X153084286Y-26923996D02*
X153227143Y-26923996D01*
X153512857Y-26923996D02*
X154084285Y-26923996D01*
X153727142Y-26423996D02*
X153727142Y-27709710D01*
X153727142Y-27709710D02*
X153798571Y-27852568D01*
X153798571Y-27852568D02*
X153941428Y-27923996D01*
X153941428Y-27923996D02*
X154084285Y-27923996D01*
X156584285Y-27781139D02*
X156512857Y-27852568D01*
X156512857Y-27852568D02*
X156298571Y-27923996D01*
X156298571Y-27923996D02*
X156155714Y-27923996D01*
X156155714Y-27923996D02*
X155941428Y-27852568D01*
X155941428Y-27852568D02*
X155798571Y-27709710D01*
X155798571Y-27709710D02*
X155727142Y-27566853D01*
X155727142Y-27566853D02*
X155655714Y-27281139D01*
X155655714Y-27281139D02*
X155655714Y-27066853D01*
X155655714Y-27066853D02*
X155727142Y-26781139D01*
X155727142Y-26781139D02*
X155798571Y-26638282D01*
X155798571Y-26638282D02*
X155941428Y-26495425D01*
X155941428Y-26495425D02*
X156155714Y-26423996D01*
X156155714Y-26423996D02*
X156298571Y-26423996D01*
X156298571Y-26423996D02*
X156512857Y-26495425D01*
X156512857Y-26495425D02*
X156584285Y-26566853D01*
X157441428Y-27923996D02*
X157298571Y-27852568D01*
X157298571Y-27852568D02*
X157227142Y-27781139D01*
X157227142Y-27781139D02*
X157155714Y-27638282D01*
X157155714Y-27638282D02*
X157155714Y-27209710D01*
X157155714Y-27209710D02*
X157227142Y-27066853D01*
X157227142Y-27066853D02*
X157298571Y-26995425D01*
X157298571Y-26995425D02*
X157441428Y-26923996D01*
X157441428Y-26923996D02*
X157655714Y-26923996D01*
X157655714Y-26923996D02*
X157798571Y-26995425D01*
X157798571Y-26995425D02*
X157870000Y-27066853D01*
X157870000Y-27066853D02*
X157941428Y-27209710D01*
X157941428Y-27209710D02*
X157941428Y-27638282D01*
X157941428Y-27638282D02*
X157870000Y-27781139D01*
X157870000Y-27781139D02*
X157798571Y-27852568D01*
X157798571Y-27852568D02*
X157655714Y-27923996D01*
X157655714Y-27923996D02*
X157441428Y-27923996D01*
X159227143Y-26923996D02*
X159227143Y-28423996D01*
X159227143Y-27852568D02*
X159084285Y-27923996D01*
X159084285Y-27923996D02*
X158798571Y-27923996D01*
X158798571Y-27923996D02*
X158655714Y-27852568D01*
X158655714Y-27852568D02*
X158584285Y-27781139D01*
X158584285Y-27781139D02*
X158512857Y-27638282D01*
X158512857Y-27638282D02*
X158512857Y-27209710D01*
X158512857Y-27209710D02*
X158584285Y-27066853D01*
X158584285Y-27066853D02*
X158655714Y-26995425D01*
X158655714Y-26995425D02*
X158798571Y-26923996D01*
X158798571Y-26923996D02*
X159084285Y-26923996D01*
X159084285Y-26923996D02*
X159227143Y-26995425D01*
X160584286Y-26923996D02*
X160584286Y-27923996D01*
X159941428Y-26923996D02*
X159941428Y-27709710D01*
X159941428Y-27709710D02*
X160012857Y-27852568D01*
X160012857Y-27852568D02*
X160155714Y-27923996D01*
X160155714Y-27923996D02*
X160370000Y-27923996D01*
X160370000Y-27923996D02*
X160512857Y-27852568D01*
X160512857Y-27852568D02*
X160584286Y-27781139D01*
X161298571Y-27923996D02*
X161298571Y-26923996D01*
X161298571Y-26423996D02*
X161227143Y-26495425D01*
X161227143Y-26495425D02*
X161298571Y-26566853D01*
X161298571Y-26566853D02*
X161370000Y-26495425D01*
X161370000Y-26495425D02*
X161298571Y-26423996D01*
X161298571Y-26423996D02*
X161298571Y-26566853D01*
X161798572Y-26923996D02*
X162370000Y-26923996D01*
X162012857Y-26423996D02*
X162012857Y-27709710D01*
X162012857Y-27709710D02*
X162084286Y-27852568D01*
X162084286Y-27852568D02*
X162227143Y-27923996D01*
X162227143Y-27923996D02*
X162370000Y-27923996D01*
X163084286Y-27923996D02*
X162941429Y-27852568D01*
X162941429Y-27852568D02*
X162870000Y-27709710D01*
X162870000Y-27709710D02*
X162870000Y-26423996D01*
X164298572Y-27923996D02*
X164298572Y-27138282D01*
X164298572Y-27138282D02*
X164227143Y-26995425D01*
X164227143Y-26995425D02*
X164084286Y-26923996D01*
X164084286Y-26923996D02*
X163798572Y-26923996D01*
X163798572Y-26923996D02*
X163655714Y-26995425D01*
X164298572Y-27852568D02*
X164155714Y-27923996D01*
X164155714Y-27923996D02*
X163798572Y-27923996D01*
X163798572Y-27923996D02*
X163655714Y-27852568D01*
X163655714Y-27852568D02*
X163584286Y-27709710D01*
X163584286Y-27709710D02*
X163584286Y-27566853D01*
X163584286Y-27566853D02*
X163655714Y-27423996D01*
X163655714Y-27423996D02*
X163798572Y-27352568D01*
X163798572Y-27352568D02*
X164155714Y-27352568D01*
X164155714Y-27352568D02*
X164298572Y-27281139D01*
X165012857Y-27923996D02*
X165012857Y-26923996D01*
X165012857Y-27066853D02*
X165084286Y-26995425D01*
X165084286Y-26995425D02*
X165227143Y-26923996D01*
X165227143Y-26923996D02*
X165441429Y-26923996D01*
X165441429Y-26923996D02*
X165584286Y-26995425D01*
X165584286Y-26995425D02*
X165655715Y-27138282D01*
X165655715Y-27138282D02*
X165655715Y-27923996D01*
X165655715Y-27138282D02*
X165727143Y-26995425D01*
X165727143Y-26995425D02*
X165870000Y-26923996D01*
X165870000Y-26923996D02*
X166084286Y-26923996D01*
X166084286Y-26923996D02*
X166227143Y-26995425D01*
X166227143Y-26995425D02*
X166298572Y-27138282D01*
X166298572Y-27138282D02*
X166298572Y-27923996D01*
X160151428Y-7721139D02*
X160080000Y-7792568D01*
X160080000Y-7792568D02*
X159865714Y-7863996D01*
X159865714Y-7863996D02*
X159722857Y-7863996D01*
X159722857Y-7863996D02*
X159508571Y-7792568D01*
X159508571Y-7792568D02*
X159365714Y-7649710D01*
X159365714Y-7649710D02*
X159294285Y-7506853D01*
X159294285Y-7506853D02*
X159222857Y-7221139D01*
X159222857Y-7221139D02*
X159222857Y-7006853D01*
X159222857Y-7006853D02*
X159294285Y-6721139D01*
X159294285Y-6721139D02*
X159365714Y-6578282D01*
X159365714Y-6578282D02*
X159508571Y-6435425D01*
X159508571Y-6435425D02*
X159722857Y-6363996D01*
X159722857Y-6363996D02*
X159865714Y-6363996D01*
X159865714Y-6363996D02*
X160080000Y-6435425D01*
X160080000Y-6435425D02*
X160151428Y-6506853D01*
X161008571Y-7863996D02*
X160865714Y-7792568D01*
X160865714Y-7792568D02*
X160794285Y-7721139D01*
X160794285Y-7721139D02*
X160722857Y-7578282D01*
X160722857Y-7578282D02*
X160722857Y-7149710D01*
X160722857Y-7149710D02*
X160794285Y-7006853D01*
X160794285Y-7006853D02*
X160865714Y-6935425D01*
X160865714Y-6935425D02*
X161008571Y-6863996D01*
X161008571Y-6863996D02*
X161222857Y-6863996D01*
X161222857Y-6863996D02*
X161365714Y-6935425D01*
X161365714Y-6935425D02*
X161437143Y-7006853D01*
X161437143Y-7006853D02*
X161508571Y-7149710D01*
X161508571Y-7149710D02*
X161508571Y-7578282D01*
X161508571Y-7578282D02*
X161437143Y-7721139D01*
X161437143Y-7721139D02*
X161365714Y-7792568D01*
X161365714Y-7792568D02*
X161222857Y-7863996D01*
X161222857Y-7863996D02*
X161008571Y-7863996D01*
X162794286Y-6863996D02*
X162794286Y-8363996D01*
X162794286Y-7792568D02*
X162651428Y-7863996D01*
X162651428Y-7863996D02*
X162365714Y-7863996D01*
X162365714Y-7863996D02*
X162222857Y-7792568D01*
X162222857Y-7792568D02*
X162151428Y-7721139D01*
X162151428Y-7721139D02*
X162080000Y-7578282D01*
X162080000Y-7578282D02*
X162080000Y-7149710D01*
X162080000Y-7149710D02*
X162151428Y-7006853D01*
X162151428Y-7006853D02*
X162222857Y-6935425D01*
X162222857Y-6935425D02*
X162365714Y-6863996D01*
X162365714Y-6863996D02*
X162651428Y-6863996D01*
X162651428Y-6863996D02*
X162794286Y-6935425D01*
X164151429Y-6863996D02*
X164151429Y-7863996D01*
X163508571Y-6863996D02*
X163508571Y-7649710D01*
X163508571Y-7649710D02*
X163580000Y-7792568D01*
X163580000Y-7792568D02*
X163722857Y-7863996D01*
X163722857Y-7863996D02*
X163937143Y-7863996D01*
X163937143Y-7863996D02*
X164080000Y-7792568D01*
X164080000Y-7792568D02*
X164151429Y-7721139D01*
X164865714Y-7863996D02*
X164865714Y-6863996D01*
X164865714Y-6363996D02*
X164794286Y-6435425D01*
X164794286Y-6435425D02*
X164865714Y-6506853D01*
X164865714Y-6506853D02*
X164937143Y-6435425D01*
X164937143Y-6435425D02*
X164865714Y-6363996D01*
X164865714Y-6363996D02*
X164865714Y-6506853D01*
X165365715Y-6863996D02*
X165937143Y-6863996D01*
X165580000Y-6363996D02*
X165580000Y-7649710D01*
X165580000Y-7649710D02*
X165651429Y-7792568D01*
X165651429Y-7792568D02*
X165794286Y-7863996D01*
X165794286Y-7863996D02*
X165937143Y-7863996D01*
X166651429Y-7863996D02*
X166508572Y-7792568D01*
X166508572Y-7792568D02*
X166437143Y-7649710D01*
X166437143Y-7649710D02*
X166437143Y-6363996D01*
X167865715Y-7863996D02*
X167865715Y-7078282D01*
X167865715Y-7078282D02*
X167794286Y-6935425D01*
X167794286Y-6935425D02*
X167651429Y-6863996D01*
X167651429Y-6863996D02*
X167365715Y-6863996D01*
X167365715Y-6863996D02*
X167222857Y-6935425D01*
X167865715Y-7792568D02*
X167722857Y-7863996D01*
X167722857Y-7863996D02*
X167365715Y-7863996D01*
X167365715Y-7863996D02*
X167222857Y-7792568D01*
X167222857Y-7792568D02*
X167151429Y-7649710D01*
X167151429Y-7649710D02*
X167151429Y-7506853D01*
X167151429Y-7506853D02*
X167222857Y-7363996D01*
X167222857Y-7363996D02*
X167365715Y-7292568D01*
X167365715Y-7292568D02*
X167722857Y-7292568D01*
X167722857Y-7292568D02*
X167865715Y-7221139D01*
X168580000Y-7863996D02*
X168580000Y-6863996D01*
X168580000Y-7006853D02*
X168651429Y-6935425D01*
X168651429Y-6935425D02*
X168794286Y-6863996D01*
X168794286Y-6863996D02*
X169008572Y-6863996D01*
X169008572Y-6863996D02*
X169151429Y-6935425D01*
X169151429Y-6935425D02*
X169222858Y-7078282D01*
X169222858Y-7078282D02*
X169222858Y-7863996D01*
X169222858Y-7078282D02*
X169294286Y-6935425D01*
X169294286Y-6935425D02*
X169437143Y-6863996D01*
X169437143Y-6863996D02*
X169651429Y-6863996D01*
X169651429Y-6863996D02*
X169794286Y-6935425D01*
X169794286Y-6935425D02*
X169865715Y-7078282D01*
X169865715Y-7078282D02*
X169865715Y-7863996D01*
X181592856Y-34183996D02*
X181592856Y-32683996D01*
X181592856Y-32683996D02*
X182164285Y-32683996D01*
X182164285Y-32683996D02*
X182307142Y-32755425D01*
X182307142Y-32755425D02*
X182378571Y-32826853D01*
X182378571Y-32826853D02*
X182449999Y-32969710D01*
X182449999Y-32969710D02*
X182449999Y-33183996D01*
X182449999Y-33183996D02*
X182378571Y-33326853D01*
X182378571Y-33326853D02*
X182307142Y-33398282D01*
X182307142Y-33398282D02*
X182164285Y-33469710D01*
X182164285Y-33469710D02*
X181592856Y-33469710D01*
X183092856Y-34183996D02*
X183092856Y-33183996D01*
X183092856Y-32683996D02*
X183021428Y-32755425D01*
X183021428Y-32755425D02*
X183092856Y-32826853D01*
X183092856Y-32826853D02*
X183164285Y-32755425D01*
X183164285Y-32755425D02*
X183092856Y-32683996D01*
X183092856Y-32683996D02*
X183092856Y-32826853D01*
X183592857Y-33183996D02*
X184164285Y-33183996D01*
X183807142Y-32683996D02*
X183807142Y-33969710D01*
X183807142Y-33969710D02*
X183878571Y-34112568D01*
X183878571Y-34112568D02*
X184021428Y-34183996D01*
X184021428Y-34183996D02*
X184164285Y-34183996D01*
X184450000Y-33183996D02*
X185021428Y-33183996D01*
X184664285Y-32683996D02*
X184664285Y-33969710D01*
X184664285Y-33969710D02*
X184735714Y-34112568D01*
X184735714Y-34112568D02*
X184878571Y-34183996D01*
X184878571Y-34183996D02*
X185021428Y-34183996D01*
X186664285Y-34183996D02*
X186664285Y-32683996D01*
X186664285Y-32683996D02*
X187164285Y-33755425D01*
X187164285Y-33755425D02*
X187664285Y-32683996D01*
X187664285Y-32683996D02*
X187664285Y-34183996D01*
X188950000Y-34112568D02*
X188807143Y-34183996D01*
X188807143Y-34183996D02*
X188521429Y-34183996D01*
X188521429Y-34183996D02*
X188378571Y-34112568D01*
X188378571Y-34112568D02*
X188307143Y-33969710D01*
X188307143Y-33969710D02*
X188307143Y-33398282D01*
X188307143Y-33398282D02*
X188378571Y-33255425D01*
X188378571Y-33255425D02*
X188521429Y-33183996D01*
X188521429Y-33183996D02*
X188807143Y-33183996D01*
X188807143Y-33183996D02*
X188950000Y-33255425D01*
X188950000Y-33255425D02*
X189021429Y-33398282D01*
X189021429Y-33398282D02*
X189021429Y-33541139D01*
X189021429Y-33541139D02*
X188307143Y-33683996D01*
X190307143Y-34183996D02*
X190307143Y-33398282D01*
X190307143Y-33398282D02*
X190235714Y-33255425D01*
X190235714Y-33255425D02*
X190092857Y-33183996D01*
X190092857Y-33183996D02*
X189807143Y-33183996D01*
X189807143Y-33183996D02*
X189664285Y-33255425D01*
X190307143Y-34112568D02*
X190164285Y-34183996D01*
X190164285Y-34183996D02*
X189807143Y-34183996D01*
X189807143Y-34183996D02*
X189664285Y-34112568D01*
X189664285Y-34112568D02*
X189592857Y-33969710D01*
X189592857Y-33969710D02*
X189592857Y-33826853D01*
X189592857Y-33826853D02*
X189664285Y-33683996D01*
X189664285Y-33683996D02*
X189807143Y-33612568D01*
X189807143Y-33612568D02*
X190164285Y-33612568D01*
X190164285Y-33612568D02*
X190307143Y-33541139D01*
X191664286Y-34183996D02*
X191664286Y-32683996D01*
X191664286Y-34112568D02*
X191521428Y-34183996D01*
X191521428Y-34183996D02*
X191235714Y-34183996D01*
X191235714Y-34183996D02*
X191092857Y-34112568D01*
X191092857Y-34112568D02*
X191021428Y-34041139D01*
X191021428Y-34041139D02*
X190950000Y-33898282D01*
X190950000Y-33898282D02*
X190950000Y-33469710D01*
X190950000Y-33469710D02*
X191021428Y-33326853D01*
X191021428Y-33326853D02*
X191092857Y-33255425D01*
X191092857Y-33255425D02*
X191235714Y-33183996D01*
X191235714Y-33183996D02*
X191521428Y-33183996D01*
X191521428Y-33183996D02*
X191664286Y-33255425D01*
X192592857Y-34183996D02*
X192450000Y-34112568D01*
X192450000Y-34112568D02*
X192378571Y-34041139D01*
X192378571Y-34041139D02*
X192307143Y-33898282D01*
X192307143Y-33898282D02*
X192307143Y-33469710D01*
X192307143Y-33469710D02*
X192378571Y-33326853D01*
X192378571Y-33326853D02*
X192450000Y-33255425D01*
X192450000Y-33255425D02*
X192592857Y-33183996D01*
X192592857Y-33183996D02*
X192807143Y-33183996D01*
X192807143Y-33183996D02*
X192950000Y-33255425D01*
X192950000Y-33255425D02*
X193021429Y-33326853D01*
X193021429Y-33326853D02*
X193092857Y-33469710D01*
X193092857Y-33469710D02*
X193092857Y-33898282D01*
X193092857Y-33898282D02*
X193021429Y-34041139D01*
X193021429Y-34041139D02*
X192950000Y-34112568D01*
X192950000Y-34112568D02*
X192807143Y-34183996D01*
X192807143Y-34183996D02*
X192592857Y-34183996D01*
X193592857Y-33183996D02*
X193878572Y-34183996D01*
X193878572Y-34183996D02*
X194164286Y-33469710D01*
X194164286Y-33469710D02*
X194450000Y-34183996D01*
X194450000Y-34183996D02*
X194735714Y-33183996D01*
X195235715Y-34112568D02*
X195378572Y-34183996D01*
X195378572Y-34183996D02*
X195664286Y-34183996D01*
X195664286Y-34183996D02*
X195807143Y-34112568D01*
X195807143Y-34112568D02*
X195878572Y-33969710D01*
X195878572Y-33969710D02*
X195878572Y-33898282D01*
X195878572Y-33898282D02*
X195807143Y-33755425D01*
X195807143Y-33755425D02*
X195664286Y-33683996D01*
X195664286Y-33683996D02*
X195450001Y-33683996D01*
X195450001Y-33683996D02*
X195307143Y-33612568D01*
X195307143Y-33612568D02*
X195235715Y-33469710D01*
X195235715Y-33469710D02*
X195235715Y-33398282D01*
X195235715Y-33398282D02*
X195307143Y-33255425D01*
X195307143Y-33255425D02*
X195450001Y-33183996D01*
X195450001Y-33183996D02*
X195664286Y-33183996D01*
X195664286Y-33183996D02*
X195807143Y-33255425D01*
X187201428Y-83803996D02*
X186487142Y-83803996D01*
X186487142Y-83803996D02*
X186487142Y-82303996D01*
X188344286Y-83803996D02*
X188344286Y-83018282D01*
X188344286Y-83018282D02*
X188272857Y-82875425D01*
X188272857Y-82875425D02*
X188130000Y-82803996D01*
X188130000Y-82803996D02*
X187844286Y-82803996D01*
X187844286Y-82803996D02*
X187701428Y-82875425D01*
X188344286Y-83732568D02*
X188201428Y-83803996D01*
X188201428Y-83803996D02*
X187844286Y-83803996D01*
X187844286Y-83803996D02*
X187701428Y-83732568D01*
X187701428Y-83732568D02*
X187630000Y-83589710D01*
X187630000Y-83589710D02*
X187630000Y-83446853D01*
X187630000Y-83446853D02*
X187701428Y-83303996D01*
X187701428Y-83303996D02*
X187844286Y-83232568D01*
X187844286Y-83232568D02*
X188201428Y-83232568D01*
X188201428Y-83232568D02*
X188344286Y-83161139D01*
X189058571Y-82803996D02*
X189058571Y-83803996D01*
X189058571Y-82946853D02*
X189130000Y-82875425D01*
X189130000Y-82875425D02*
X189272857Y-82803996D01*
X189272857Y-82803996D02*
X189487143Y-82803996D01*
X189487143Y-82803996D02*
X189630000Y-82875425D01*
X189630000Y-82875425D02*
X189701429Y-83018282D01*
X189701429Y-83018282D02*
X189701429Y-83803996D01*
X191058572Y-82803996D02*
X191058572Y-84018282D01*
X191058572Y-84018282D02*
X190987143Y-84161139D01*
X190987143Y-84161139D02*
X190915714Y-84232568D01*
X190915714Y-84232568D02*
X190772857Y-84303996D01*
X190772857Y-84303996D02*
X190558572Y-84303996D01*
X190558572Y-84303996D02*
X190415714Y-84232568D01*
X191058572Y-83732568D02*
X190915714Y-83803996D01*
X190915714Y-83803996D02*
X190630000Y-83803996D01*
X190630000Y-83803996D02*
X190487143Y-83732568D01*
X190487143Y-83732568D02*
X190415714Y-83661139D01*
X190415714Y-83661139D02*
X190344286Y-83518282D01*
X190344286Y-83518282D02*
X190344286Y-83089710D01*
X190344286Y-83089710D02*
X190415714Y-82946853D01*
X190415714Y-82946853D02*
X190487143Y-82875425D01*
X190487143Y-82875425D02*
X190630000Y-82803996D01*
X190630000Y-82803996D02*
X190915714Y-82803996D01*
X190915714Y-82803996D02*
X191058572Y-82875425D01*
X191987143Y-83803996D02*
X191844286Y-83732568D01*
X191844286Y-83732568D02*
X191772857Y-83589710D01*
X191772857Y-83589710D02*
X191772857Y-82303996D01*
X193130000Y-83732568D02*
X192987143Y-83803996D01*
X192987143Y-83803996D02*
X192701429Y-83803996D01*
X192701429Y-83803996D02*
X192558571Y-83732568D01*
X192558571Y-83732568D02*
X192487143Y-83589710D01*
X192487143Y-83589710D02*
X192487143Y-83018282D01*
X192487143Y-83018282D02*
X192558571Y-82875425D01*
X192558571Y-82875425D02*
X192701429Y-82803996D01*
X192701429Y-82803996D02*
X192987143Y-82803996D01*
X192987143Y-82803996D02*
X193130000Y-82875425D01*
X193130000Y-82875425D02*
X193201429Y-83018282D01*
X193201429Y-83018282D02*
X193201429Y-83161139D01*
X193201429Y-83161139D02*
X192487143Y-83303996D01*
X193701428Y-82803996D02*
X194058571Y-83803996D01*
X194415714Y-82803996D02*
X194058571Y-83803996D01*
X194058571Y-83803996D02*
X193915714Y-84161139D01*
X193915714Y-84161139D02*
X193844285Y-84232568D01*
X193844285Y-84232568D02*
X193701428Y-84303996D01*
D13*
X70285714Y-95369432D02*
X72952381Y-103369432D01*
X72952381Y-103369432D02*
X75619048Y-95369432D01*
X77904762Y-101083718D02*
X81714286Y-101083718D01*
X77142857Y-103369432D02*
X79809524Y-95369432D01*
X79809524Y-95369432D02*
X82476191Y-103369432D01*
X85142857Y-103369432D02*
X85142857Y-95369432D01*
X85142857Y-95369432D02*
X89714286Y-103369432D01*
X89714286Y-103369432D02*
X89714286Y-95369432D01*
X98095238Y-102607527D02*
X97714286Y-102988480D01*
X97714286Y-102988480D02*
X96571428Y-103369432D01*
X96571428Y-103369432D02*
X95809524Y-103369432D01*
X95809524Y-103369432D02*
X94666667Y-102988480D01*
X94666667Y-102988480D02*
X93904762Y-102226575D01*
X93904762Y-102226575D02*
X93523809Y-101464670D01*
X93523809Y-101464670D02*
X93142857Y-99940860D01*
X93142857Y-99940860D02*
X93142857Y-98798003D01*
X93142857Y-98798003D02*
X93523809Y-97274194D01*
X93523809Y-97274194D02*
X93904762Y-96512289D01*
X93904762Y-96512289D02*
X94666667Y-95750384D01*
X94666667Y-95750384D02*
X95809524Y-95369432D01*
X95809524Y-95369432D02*
X96571428Y-95369432D01*
X96571428Y-95369432D02*
X97714286Y-95750384D01*
X97714286Y-95750384D02*
X98095238Y-96131337D01*
X103047619Y-95369432D02*
X104571428Y-95369432D01*
X104571428Y-95369432D02*
X105333333Y-95750384D01*
X105333333Y-95750384D02*
X106095238Y-96512289D01*
X106095238Y-96512289D02*
X106476190Y-98036099D01*
X106476190Y-98036099D02*
X106476190Y-100702765D01*
X106476190Y-100702765D02*
X106095238Y-102226575D01*
X106095238Y-102226575D02*
X105333333Y-102988480D01*
X105333333Y-102988480D02*
X104571428Y-103369432D01*
X104571428Y-103369432D02*
X103047619Y-103369432D01*
X103047619Y-103369432D02*
X102285714Y-102988480D01*
X102285714Y-102988480D02*
X101523809Y-102226575D01*
X101523809Y-102226575D02*
X101142857Y-100702765D01*
X101142857Y-100702765D02*
X101142857Y-98036099D01*
X101142857Y-98036099D02*
X101523809Y-96512289D01*
X101523809Y-96512289D02*
X102285714Y-95750384D01*
X102285714Y-95750384D02*
X103047619Y-95369432D01*
X109904761Y-95369432D02*
X109904761Y-101845622D01*
X109904761Y-101845622D02*
X110285714Y-102607527D01*
X110285714Y-102607527D02*
X110666666Y-102988480D01*
X110666666Y-102988480D02*
X111428571Y-103369432D01*
X111428571Y-103369432D02*
X112952380Y-103369432D01*
X112952380Y-103369432D02*
X113714285Y-102988480D01*
X113714285Y-102988480D02*
X114095238Y-102607527D01*
X114095238Y-102607527D02*
X114476190Y-101845622D01*
X114476190Y-101845622D02*
X114476190Y-95369432D01*
X117142856Y-95369432D02*
X119809523Y-103369432D01*
X119809523Y-103369432D02*
X122476190Y-95369432D01*
X125142856Y-99178956D02*
X127809523Y-99178956D01*
X128952380Y-103369432D02*
X125142856Y-103369432D01*
X125142856Y-103369432D02*
X125142856Y-95369432D01*
X125142856Y-95369432D02*
X128952380Y-95369432D01*
X136952380Y-103369432D02*
X134285713Y-99559908D01*
X132380951Y-103369432D02*
X132380951Y-95369432D01*
X132380951Y-95369432D02*
X135428570Y-95369432D01*
X135428570Y-95369432D02*
X136190475Y-95750384D01*
X136190475Y-95750384D02*
X136571428Y-96131337D01*
X136571428Y-96131337D02*
X136952380Y-96893241D01*
X136952380Y-96893241D02*
X136952380Y-98036099D01*
X136952380Y-98036099D02*
X136571428Y-98798003D01*
X136571428Y-98798003D02*
X136190475Y-99178956D01*
X136190475Y-99178956D02*
X135428570Y-99559908D01*
X135428570Y-99559908D02*
X132380951Y-99559908D01*
D14*
X65630000Y-35010000D03*
D15*
X64130000Y-35010000D03*
X64130000Y-35910000D03*
X65630000Y-35910000D03*
D14*
X40290000Y-70630000D03*
D15*
X38790000Y-70630000D03*
X38790000Y-71530000D03*
X40290000Y-71530000D03*
D16*
X46390000Y-16690000D03*
D17*
X47890000Y-16690000D03*
X47890000Y-15790000D03*
X46390000Y-15790000D03*
D14*
X44370000Y-16330000D03*
D15*
X42870000Y-16330000D03*
X42870000Y-17230000D03*
X44370000Y-17230000D03*
D16*
X118690000Y-43310000D03*
D17*
X120190000Y-43310000D03*
X120190000Y-42410000D03*
X118690000Y-42410000D03*
D18*
X76300000Y-45880000D03*
X76300000Y-44920000D03*
D14*
X68810000Y-37050000D03*
D15*
X67310000Y-37050000D03*
X67310000Y-37950000D03*
X68810000Y-37950000D03*
D18*
X128700000Y-66760000D03*
X128700000Y-65800000D03*
D14*
X47430000Y-19070000D03*
D15*
X45930000Y-19070000D03*
X45930000Y-19970000D03*
X47430000Y-19970000D03*
D14*
X46770000Y-34670000D03*
D15*
X45270000Y-34670000D03*
X45270000Y-35570000D03*
X46770000Y-35570000D03*
D16*
X100970000Y-32930000D03*
D17*
X102470000Y-32930000D03*
X102470000Y-32030000D03*
X100970000Y-32030000D03*
D16*
X81250000Y-27250000D03*
D17*
X82750000Y-27250000D03*
X82750000Y-26350000D03*
X81250000Y-26350000D03*
D14*
X82050000Y-45910000D03*
D15*
X80550000Y-45910000D03*
X80550000Y-46810000D03*
X82050000Y-46810000D03*
D14*
X61590000Y-28290000D03*
D15*
X60090000Y-28290000D03*
X60090000Y-29190000D03*
X61590000Y-29190000D03*
D16*
X42110000Y-61390000D03*
D17*
X43610000Y-61390000D03*
X43610000Y-60490000D03*
X42110000Y-60490000D03*
D19*
X196000000Y-105000000D03*
D20*
X196000000Y-105000000D03*
D14*
X178950000Y-96210000D03*
D15*
X177450000Y-96210000D03*
X177450000Y-97110000D03*
X178950000Y-97110000D03*
D16*
X53950000Y-26750000D03*
D17*
X55450000Y-26750000D03*
X55450000Y-25850000D03*
X53950000Y-25850000D03*
D14*
X130330000Y-58790000D03*
D15*
X128830000Y-58790000D03*
X128830000Y-59690000D03*
X130330000Y-59690000D03*
D16*
X41730000Y-28790000D03*
D17*
X43230000Y-28790000D03*
X43230000Y-27890000D03*
X41730000Y-27890000D03*
D14*
X190790000Y-103670000D03*
D15*
X189290000Y-103670000D03*
X189290000Y-104570000D03*
X190790000Y-104570000D03*
D14*
X41850000Y-63410000D03*
D15*
X40350000Y-63410000D03*
X40350000Y-64310000D03*
X41850000Y-64310000D03*
D14*
X145570000Y-22670000D03*
D15*
X144070000Y-22670000D03*
X144070000Y-23570000D03*
X145570000Y-23570000D03*
D14*
X44830000Y-22890000D03*
D15*
X43330000Y-22890000D03*
X43330000Y-23790000D03*
X44830000Y-23790000D03*
D21*
X43400000Y-52420000D03*
X43400000Y-53380000D03*
D14*
X46430000Y-53690000D03*
D15*
X44930000Y-53690000D03*
X44930000Y-54590000D03*
X46430000Y-54590000D03*
D14*
X131930000Y-20790000D03*
D15*
X130430000Y-20790000D03*
X130430000Y-21690000D03*
X131930000Y-21690000D03*
D19*
X196000000Y-4000000D03*
D20*
X196000000Y-4000000D03*
D16*
X87410000Y-28050000D03*
D17*
X88910000Y-28050000D03*
X88910000Y-27150000D03*
X87410000Y-27150000D03*
D14*
X117950000Y-28790000D03*
D15*
X116450000Y-28790000D03*
X116450000Y-29690000D03*
X117950000Y-29690000D03*
D21*
X99400000Y-29940000D03*
X99400000Y-30900000D03*
D19*
X4000000Y-105000000D03*
D20*
X4000000Y-105000000D03*
D14*
X131190000Y-63430000D03*
D15*
X129690000Y-63430000D03*
X129690000Y-64330000D03*
X131190000Y-64330000D03*
D14*
X46710000Y-45710000D03*
D15*
X45210000Y-45710000D03*
X45210000Y-46610000D03*
X46710000Y-46610000D03*
D16*
X57170000Y-27610000D03*
D17*
X58670000Y-27610000D03*
X58670000Y-26710000D03*
X57170000Y-26710000D03*
D14*
X40350000Y-73930000D03*
D15*
X38850000Y-73930000D03*
X38850000Y-74830000D03*
X40350000Y-74830000D03*
D14*
X132170000Y-66670000D03*
D15*
X130670000Y-66670000D03*
X130670000Y-67570000D03*
X132170000Y-67570000D03*
D16*
X35630000Y-60870000D03*
D17*
X37130000Y-60870000D03*
X37130000Y-59970000D03*
X35630000Y-59970000D03*
D14*
X184410000Y-99910000D03*
D15*
X182910000Y-99910000D03*
X182910000Y-100810000D03*
X184410000Y-100810000D03*
D16*
X49950000Y-28710000D03*
D17*
X51450000Y-28710000D03*
X51450000Y-27810000D03*
X49950000Y-27810000D03*
D14*
X137530000Y-21170000D03*
D15*
X136030000Y-21170000D03*
X136030000Y-22070000D03*
X137530000Y-22070000D03*
D22*
X43040000Y-30700000D03*
X44000000Y-30700000D03*
D14*
X79250000Y-43990000D03*
D15*
X77750000Y-43990000D03*
X77750000Y-44890000D03*
X79250000Y-44890000D03*
D14*
X158050000Y-81910000D03*
D15*
X156550000Y-81910000D03*
X156550000Y-82810000D03*
X158050000Y-82810000D03*
D14*
X113090000Y-55830000D03*
D15*
X111590000Y-55830000D03*
X111590000Y-56730000D03*
X113090000Y-56730000D03*
D14*
X135570000Y-68670000D03*
D15*
X134070000Y-68670000D03*
X134070000Y-69570000D03*
X135570000Y-69570000D03*
D14*
X173610000Y-92510000D03*
D15*
X172110000Y-92510000D03*
X172110000Y-93410000D03*
X173610000Y-93410000D03*
D16*
X147370000Y-18070000D03*
D17*
X148870000Y-18070000D03*
X148870000Y-17170000D03*
X147370000Y-17170000D03*
D14*
X40230000Y-66290000D03*
D15*
X38730000Y-66290000D03*
X38730000Y-67190000D03*
X40230000Y-67190000D03*
D16*
X67510000Y-30850000D03*
D17*
X69010000Y-30850000D03*
X69010000Y-29950000D03*
X67510000Y-29950000D03*
D14*
X46550000Y-42370000D03*
D15*
X45050000Y-42370000D03*
X45050000Y-43270000D03*
X46550000Y-43270000D03*
D14*
X96110000Y-52510000D03*
D15*
X94610000Y-52510000D03*
X94610000Y-53410000D03*
X96110000Y-53410000D03*
D16*
X38090000Y-28610000D03*
D17*
X39590000Y-28610000D03*
X39590000Y-27710000D03*
X38090000Y-27710000D03*
D14*
X110490000Y-57930000D03*
D15*
X108990000Y-57930000D03*
X108990000Y-58830000D03*
X110490000Y-58830000D03*
D14*
X153210000Y-79010000D03*
D15*
X151710000Y-79010000D03*
X151710000Y-79910000D03*
X153210000Y-79910000D03*
D14*
X122910000Y-56230000D03*
D15*
X121410000Y-56230000D03*
X121410000Y-57130000D03*
X122910000Y-57130000D03*
D14*
X86910000Y-48690000D03*
D15*
X85410000Y-48690000D03*
X85410000Y-49590000D03*
X86910000Y-49590000D03*
D18*
X56300000Y-2680000D03*
X56300000Y-1720000D03*
D14*
X52110000Y-23670000D03*
D15*
X50610000Y-23670000D03*
X50610000Y-24570000D03*
X52110000Y-24570000D03*
D16*
X45870000Y-29770000D03*
D17*
X47370000Y-29770000D03*
X47370000Y-28870000D03*
X45870000Y-28870000D03*
D23*
X122280000Y-45200000D03*
X121320000Y-45200000D03*
D14*
X46750000Y-25590000D03*
D15*
X45250000Y-25590000D03*
X45250000Y-26490000D03*
X46750000Y-26490000D03*
D14*
X50130000Y-21030000D03*
D15*
X48630000Y-21030000D03*
X48630000Y-21930000D03*
X50130000Y-21930000D03*
D16*
X33430000Y-28510000D03*
D17*
X34930000Y-28510000D03*
X34930000Y-27610000D03*
X33430000Y-27610000D03*
D16*
X114250000Y-35910000D03*
D17*
X115750000Y-35910000D03*
X115750000Y-35010000D03*
X114250000Y-35010000D03*
D14*
X44170000Y-19630000D03*
D15*
X42670000Y-19630000D03*
X42670000Y-20530000D03*
X44170000Y-20530000D03*
D18*
X38800000Y-77760000D03*
X38800000Y-76800000D03*
D16*
X93130000Y-30730000D03*
D17*
X94630000Y-30730000D03*
X94630000Y-29830000D03*
X93130000Y-29830000D03*
D16*
X77550000Y-27930000D03*
D17*
X79050000Y-27930000D03*
X79050000Y-27030000D03*
X77550000Y-27030000D03*
D14*
X73270000Y-39870000D03*
D15*
X71770000Y-39870000D03*
X71770000Y-40770000D03*
X73270000Y-40770000D03*
D16*
X107550000Y-33510000D03*
D17*
X109050000Y-33510000D03*
X109050000Y-32610000D03*
X107550000Y-32610000D03*
D16*
X116570000Y-47410000D03*
D17*
X118070000Y-47410000D03*
X118070000Y-46510000D03*
X116570000Y-46510000D03*
D19*
X4000000Y-4000000D03*
D20*
X4000000Y-4000000D03*
D14*
X145990000Y-74730000D03*
D15*
X144490000Y-74730000D03*
X144490000Y-75630000D03*
X145990000Y-75630000D03*
D16*
X146410000Y-21230000D03*
D17*
X147910000Y-21230000D03*
X147910000Y-20330000D03*
X146410000Y-20330000D03*
D14*
X99310000Y-58350000D03*
D15*
X97810000Y-58350000D03*
X97810000Y-59250000D03*
X99310000Y-59250000D03*
D16*
X71350000Y-29990000D03*
D17*
X72850000Y-29990000D03*
X72850000Y-29090000D03*
X71350000Y-29090000D03*
D16*
X32010000Y-62630000D03*
D17*
X33510000Y-62630000D03*
X33510000Y-61730000D03*
X32010000Y-61730000D03*
D16*
X55430000Y-5950000D03*
D17*
X56930000Y-5950000D03*
X56930000Y-5050000D03*
X55430000Y-5050000D03*
D16*
X25590000Y-62030000D03*
D17*
X27090000Y-62030000D03*
X27090000Y-61130000D03*
X25590000Y-61130000D03*
M02*
