%TF.GenerationSoftware,KiCad,Pcbnew,7.0.1*%
%TF.CreationDate,2023-09-17T14:31:18-07:00*%
%TF.ProjectId,vancouver-skytrain-pcb,76616e63-6f75-4766-9572-2d736b797472,rev?*%
%TF.SameCoordinates,Original*%
%TF.FileFunction,Soldermask,Top*%
%TF.FilePolarity,Negative*%
%FSLAX46Y46*%
G04 Gerber Fmt 4.6, Leading zero omitted, Abs format (unit mm)*
G04 Created by KiCad (PCBNEW 7.0.1) date 2023-09-17 14:31:18*
%MOMM*%
%LPD*%
G01*
G04 APERTURE LIST*
G04 Aperture macros list*
%AMRoundRect*
0 Rectangle with rounded corners*
0 $1 Rounding radius*
0 $2 $3 $4 $5 $6 $7 $8 $9 X,Y pos of 4 corners*
0 Add a 4 corners polygon primitive as box body*
4,1,4,$2,$3,$4,$5,$6,$7,$8,$9,$2,$3,0*
0 Add four circle primitives for the rounded corners*
1,1,$1+$1,$2,$3*
1,1,$1+$1,$4,$5*
1,1,$1+$1,$6,$7*
1,1,$1+$1,$8,$9*
0 Add four rect primitives between the rounded corners*
20,1,$1+$1,$2,$3,$4,$5,0*
20,1,$1+$1,$4,$5,$6,$7,0*
20,1,$1+$1,$6,$7,$8,$9,0*
20,1,$1+$1,$8,$9,$2,$3,0*%
%AMFreePoly0*
4,1,9,3.862500,-0.866500,0.737500,-0.866500,0.737500,-0.450000,-0.737500,-0.450000,-0.737500,0.450000,0.737500,0.450000,0.737500,0.866500,3.862500,0.866500,3.862500,-0.866500,3.862500,-0.866500,$1*%
G04 Aperture macros list end*
%ADD10C,0.010000*%
%ADD11RoundRect,0.147500X-0.172500X0.147500X-0.172500X-0.147500X0.172500X-0.147500X0.172500X0.147500X0*%
%ADD12RoundRect,0.112500X-0.112500X-0.112500X0.112500X-0.112500X0.112500X0.112500X-0.112500X0.112500X0*%
%ADD13RoundRect,0.112500X-0.112500X0.112500X-0.112500X-0.112500X0.112500X-0.112500X0.112500X0.112500X0*%
%ADD14RoundRect,0.112500X-0.159099X0.000000X0.000000X-0.159099X0.159099X0.000000X0.000000X0.159099X0*%
%ADD15RoundRect,0.147500X0.226274X0.017678X0.017678X0.226274X-0.226274X-0.017678X-0.017678X-0.226274X0*%
%ADD16RoundRect,0.112500X0.000000X0.159099X-0.159099X0.000000X0.000000X-0.159099X0.159099X0.000000X0*%
%ADD17RoundRect,0.147500X-0.226274X-0.017678X-0.017678X-0.226274X0.226274X0.017678X0.017678X0.226274X0*%
%ADD18C,3.200000*%
%ADD19RoundRect,0.147500X0.147500X0.172500X-0.147500X0.172500X-0.147500X-0.172500X0.147500X-0.172500X0*%
%ADD20RoundRect,0.147500X-0.147500X-0.172500X0.147500X-0.172500X0.147500X0.172500X-0.147500X0.172500X0*%
%ADD21RoundRect,0.147500X0.172500X-0.147500X0.172500X0.147500X-0.172500X0.147500X-0.172500X-0.147500X0*%
%ADD22RoundRect,0.112500X0.112500X0.112500X-0.112500X0.112500X-0.112500X-0.112500X0.112500X-0.112500X0*%
%ADD23RoundRect,0.147500X0.017678X-0.226274X0.226274X-0.017678X-0.017678X0.226274X-0.226274X0.017678X0*%
%ADD24RoundRect,0.112500X0.112500X-0.112500X0.112500X0.112500X-0.112500X0.112500X-0.112500X-0.112500X0*%
%ADD25R,1.700000X1.700000*%
%ADD26O,1.700000X1.700000*%
%ADD27R,0.500000X0.600000*%
%ADD28RoundRect,0.112500X0.159099X0.000000X0.000000X0.159099X-0.159099X0.000000X0.000000X-0.159099X0*%
%ADD29RoundRect,0.147500X-0.017678X0.226274X-0.226274X0.017678X0.017678X-0.226274X0.226274X-0.017678X0*%
%ADD30RoundRect,0.112500X0.000000X-0.159099X0.159099X0.000000X0.000000X0.159099X-0.159099X0.000000X0*%
%ADD31RoundRect,0.218750X0.218750X0.256250X-0.218750X0.256250X-0.218750X-0.256250X0.218750X-0.256250X0*%
%ADD32R,0.900000X1.300000*%
%ADD33FreePoly0,90.000000*%
%ADD34RoundRect,0.218750X-0.256250X0.218750X-0.256250X-0.218750X0.256250X-0.218750X0.256250X0.218750X0*%
%ADD35RoundRect,0.135000X-0.135000X-0.185000X0.135000X-0.185000X0.135000X0.185000X-0.135000X0.185000X0*%
%ADD36R,1.500000X0.900000*%
%ADD37R,0.900000X1.500000*%
%ADD38C,0.600000*%
%ADD39R,4.200000X4.200000*%
%ADD40RoundRect,0.150000X0.512500X0.150000X-0.512500X0.150000X-0.512500X-0.150000X0.512500X-0.150000X0*%
%ADD41RoundRect,0.250000X0.650000X1.550000X-0.650000X1.550000X-0.650000X-1.550000X0.650000X-1.550000X0*%
%ADD42O,1.800000X3.600000*%
G04 APERTURE END LIST*
%TO.C,G\u002A\u002A\u002A*%
D10*
X81285326Y-40071318D02*
X81356563Y-40076820D01*
X81414659Y-40089773D01*
X81474194Y-40113057D01*
X81525036Y-40137293D01*
X81687948Y-40239379D01*
X81819409Y-40367065D01*
X81917600Y-40515720D01*
X81980705Y-40680714D01*
X82006907Y-40857415D01*
X81994388Y-41041194D01*
X81947045Y-41212713D01*
X81884008Y-41332391D01*
X81791020Y-41450128D01*
X81679136Y-41554884D01*
X81559413Y-41635617D01*
X81492826Y-41666309D01*
X81344581Y-41706365D01*
X81185819Y-41722996D01*
X81033485Y-41715184D01*
X80953589Y-41698726D01*
X80809144Y-41644911D01*
X80683692Y-41566738D01*
X80564153Y-41455919D01*
X80555221Y-41446234D01*
X80460353Y-41325138D01*
X80397722Y-41200253D01*
X80363207Y-41060367D01*
X80352686Y-40895213D01*
X80361294Y-40736543D01*
X80390397Y-40605203D01*
X80444910Y-40489158D01*
X80529752Y-40376376D01*
X80591306Y-40311194D01*
X80704336Y-40209594D01*
X80813382Y-40139516D01*
X80930237Y-40096187D01*
X81066688Y-40074837D01*
X81186369Y-40070385D01*
X81285326Y-40071318D01*
G36*
X81285326Y-40071318D02*
G01*
X81356563Y-40076820D01*
X81414659Y-40089773D01*
X81474194Y-40113057D01*
X81525036Y-40137293D01*
X81687948Y-40239379D01*
X81819409Y-40367065D01*
X81917600Y-40515720D01*
X81980705Y-40680714D01*
X82006907Y-40857415D01*
X81994388Y-41041194D01*
X81947045Y-41212713D01*
X81884008Y-41332391D01*
X81791020Y-41450128D01*
X81679136Y-41554884D01*
X81559413Y-41635617D01*
X81492826Y-41666309D01*
X81344581Y-41706365D01*
X81185819Y-41722996D01*
X81033485Y-41715184D01*
X80953589Y-41698726D01*
X80809144Y-41644911D01*
X80683692Y-41566738D01*
X80564153Y-41455919D01*
X80555221Y-41446234D01*
X80460353Y-41325138D01*
X80397722Y-41200253D01*
X80363207Y-41060367D01*
X80352686Y-40895213D01*
X80361294Y-40736543D01*
X80390397Y-40605203D01*
X80444910Y-40489158D01*
X80529752Y-40376376D01*
X80591306Y-40311194D01*
X80704336Y-40209594D01*
X80813382Y-40139516D01*
X80930237Y-40096187D01*
X81066688Y-40074837D01*
X81186369Y-40070385D01*
X81285326Y-40071318D01*
G37*
X101679216Y-76129538D02*
X101706638Y-76147112D01*
X101744526Y-76177575D01*
X101795807Y-76223509D01*
X101863405Y-76287495D01*
X101950248Y-76372117D01*
X102059259Y-76479955D01*
X102193366Y-76613592D01*
X102291949Y-76712085D01*
X102424269Y-76845113D01*
X102546715Y-76969696D01*
X102656126Y-77082506D01*
X102749339Y-77180214D01*
X102823191Y-77259492D01*
X102874520Y-77317012D01*
X102900163Y-77349446D01*
X102902521Y-77354659D01*
X102887955Y-77375224D01*
X102846184Y-77422986D01*
X102779871Y-77495147D01*
X102691684Y-77588908D01*
X102584288Y-77701470D01*
X102460348Y-77830034D01*
X102322531Y-77971802D01*
X102173502Y-78123975D01*
X102060663Y-78238505D01*
X101219194Y-79090463D01*
X99039810Y-79090463D01*
X98119253Y-78169723D01*
X97927907Y-77978130D01*
X97764629Y-77814101D01*
X97627371Y-77675449D01*
X97514084Y-77559986D01*
X97422720Y-77465527D01*
X97351231Y-77389884D01*
X97297567Y-77330870D01*
X97259680Y-77286299D01*
X97235523Y-77253983D01*
X97223045Y-77231736D01*
X97220200Y-77217371D01*
X97222065Y-77211932D01*
X97229070Y-77204280D01*
X97241804Y-77197725D01*
X97263429Y-77192167D01*
X97297104Y-77187502D01*
X97345991Y-77183628D01*
X97413250Y-77180445D01*
X97502041Y-77177849D01*
X97615525Y-77175739D01*
X97756863Y-77174013D01*
X97929216Y-77172569D01*
X98135744Y-77171305D01*
X98379607Y-77170119D01*
X98539753Y-77169425D01*
X99834072Y-77163971D01*
X100707032Y-76659613D01*
X100884111Y-76557351D01*
X101051254Y-76460915D01*
X101204628Y-76372512D01*
X101340401Y-76294345D01*
X101454738Y-76228621D01*
X101543807Y-76177546D01*
X101603774Y-76143323D01*
X101630491Y-76128326D01*
X101644068Y-76122727D01*
X101659334Y-76122270D01*
X101679216Y-76129538D01*
G36*
X101679216Y-76129538D02*
G01*
X101706638Y-76147112D01*
X101744526Y-76177575D01*
X101795807Y-76223509D01*
X101863405Y-76287495D01*
X101950248Y-76372117D01*
X102059259Y-76479955D01*
X102193366Y-76613592D01*
X102291949Y-76712085D01*
X102424269Y-76845113D01*
X102546715Y-76969696D01*
X102656126Y-77082506D01*
X102749339Y-77180214D01*
X102823191Y-77259492D01*
X102874520Y-77317012D01*
X102900163Y-77349446D01*
X102902521Y-77354659D01*
X102887955Y-77375224D01*
X102846184Y-77422986D01*
X102779871Y-77495147D01*
X102691684Y-77588908D01*
X102584288Y-77701470D01*
X102460348Y-77830034D01*
X102322531Y-77971802D01*
X102173502Y-78123975D01*
X102060663Y-78238505D01*
X101219194Y-79090463D01*
X99039810Y-79090463D01*
X98119253Y-78169723D01*
X97927907Y-77978130D01*
X97764629Y-77814101D01*
X97627371Y-77675449D01*
X97514084Y-77559986D01*
X97422720Y-77465527D01*
X97351231Y-77389884D01*
X97297567Y-77330870D01*
X97259680Y-77286299D01*
X97235523Y-77253983D01*
X97223045Y-77231736D01*
X97220200Y-77217371D01*
X97222065Y-77211932D01*
X97229070Y-77204280D01*
X97241804Y-77197725D01*
X97263429Y-77192167D01*
X97297104Y-77187502D01*
X97345991Y-77183628D01*
X97413250Y-77180445D01*
X97502041Y-77177849D01*
X97615525Y-77175739D01*
X97756863Y-77174013D01*
X97929216Y-77172569D01*
X98135744Y-77171305D01*
X98379607Y-77170119D01*
X98539753Y-77169425D01*
X99834072Y-77163971D01*
X100707032Y-76659613D01*
X100884111Y-76557351D01*
X101051254Y-76460915D01*
X101204628Y-76372512D01*
X101340401Y-76294345D01*
X101454738Y-76228621D01*
X101543807Y-76177546D01*
X101603774Y-76143323D01*
X101630491Y-76128326D01*
X101644068Y-76122727D01*
X101659334Y-76122270D01*
X101679216Y-76129538D01*
G37*
X311902576Y-90066938D02*
X303151624Y-98860909D01*
X294400673Y-107654880D01*
X311913159Y-107676046D01*
X311913159Y-114999713D01*
X258763505Y-115010313D01*
X257535984Y-116237971D01*
X257346763Y-116426958D01*
X257165941Y-116607060D01*
X256995775Y-116776059D01*
X256838524Y-116931735D01*
X256696444Y-117071869D01*
X256571794Y-117194242D01*
X256466830Y-117296635D01*
X256383811Y-117376829D01*
X256324994Y-117432604D01*
X256292637Y-117461741D01*
X256287043Y-117465630D01*
X256267300Y-117451161D01*
X256221673Y-117410202D01*
X256153982Y-117346418D01*
X256068052Y-117263477D01*
X255967704Y-117165047D01*
X255856761Y-117054794D01*
X255810724Y-117008657D01*
X255532237Y-116736979D01*
X255253721Y-116480881D01*
X254981382Y-116245776D01*
X254721430Y-116037075D01*
X254550845Y-115910088D01*
X254297420Y-115741379D01*
X254051376Y-115606320D01*
X253801896Y-115500339D01*
X253538161Y-115418867D01*
X253249354Y-115357330D01*
X253238377Y-115355433D01*
X253201507Y-115349691D01*
X253159753Y-115344534D01*
X253110606Y-115339916D01*
X253051554Y-115335790D01*
X252980088Y-115332108D01*
X252893697Y-115328824D01*
X252789871Y-115325890D01*
X252666100Y-115323259D01*
X252519872Y-115320885D01*
X252348678Y-115318720D01*
X252150007Y-115316717D01*
X251921349Y-115314829D01*
X251660193Y-115313009D01*
X251364030Y-115311211D01*
X251030348Y-115309386D01*
X250688860Y-115307648D01*
X250324108Y-115305822D01*
X249999359Y-115304132D01*
X249712282Y-115302530D01*
X249460547Y-115300961D01*
X249241823Y-115299377D01*
X249053781Y-115297724D01*
X248894089Y-115295952D01*
X248760418Y-115294009D01*
X248650437Y-115291844D01*
X248561816Y-115289405D01*
X248492224Y-115286641D01*
X248439331Y-115283500D01*
X248400807Y-115279932D01*
X248374321Y-115275884D01*
X248357544Y-115271306D01*
X248348144Y-115266146D01*
X248343792Y-115260352D01*
X248342499Y-115255888D01*
X248349779Y-115243151D01*
X248373933Y-115213920D01*
X248415699Y-115167448D01*
X248475815Y-115102988D01*
X248555018Y-115019792D01*
X248654046Y-114917114D01*
X248773637Y-114794205D01*
X248914527Y-114650320D01*
X249077455Y-114484710D01*
X249263158Y-114296628D01*
X249472374Y-114085328D01*
X249705840Y-113850063D01*
X249964294Y-113590084D01*
X250248473Y-113304645D01*
X250559115Y-112992998D01*
X250896957Y-112654397D01*
X251262737Y-112288094D01*
X251657193Y-111893342D01*
X252014609Y-111535846D01*
X255694447Y-107855963D01*
X289836341Y-107855963D01*
X300821826Y-96870463D01*
X301557789Y-96134534D01*
X302264276Y-95428154D01*
X302941712Y-94750900D01*
X303590517Y-94102352D01*
X304211117Y-93482088D01*
X304803934Y-92889686D01*
X305369391Y-92324726D01*
X305907912Y-91786786D01*
X306419919Y-91275444D01*
X306905836Y-90790280D01*
X307366086Y-90330872D01*
X307801092Y-89896799D01*
X308211278Y-89487638D01*
X308597066Y-89102970D01*
X308958880Y-88742372D01*
X309297143Y-88405423D01*
X309612278Y-88091702D01*
X309904708Y-87800787D01*
X310174857Y-87532258D01*
X310423147Y-87285692D01*
X310650002Y-87060669D01*
X310855846Y-86856766D01*
X311041100Y-86673563D01*
X311206189Y-86510639D01*
X311351535Y-86367572D01*
X311477562Y-86243940D01*
X311584693Y-86139322D01*
X311673351Y-86053297D01*
X311743960Y-85985444D01*
X311796942Y-85935341D01*
X311832720Y-85902567D01*
X311851719Y-85886700D01*
X311854943Y-85884963D01*
X311902576Y-85884963D01*
X311902576Y-90066938D01*
G36*
X311902576Y-90066938D02*
G01*
X303151624Y-98860909D01*
X294400673Y-107654880D01*
X311913159Y-107676046D01*
X311913159Y-114999713D01*
X258763505Y-115010313D01*
X257535984Y-116237971D01*
X257346763Y-116426958D01*
X257165941Y-116607060D01*
X256995775Y-116776059D01*
X256838524Y-116931735D01*
X256696444Y-117071869D01*
X256571794Y-117194242D01*
X256466830Y-117296635D01*
X256383811Y-117376829D01*
X256324994Y-117432604D01*
X256292637Y-117461741D01*
X256287043Y-117465630D01*
X256267300Y-117451161D01*
X256221673Y-117410202D01*
X256153982Y-117346418D01*
X256068052Y-117263477D01*
X255967704Y-117165047D01*
X255856761Y-117054794D01*
X255810724Y-117008657D01*
X255532237Y-116736979D01*
X255253721Y-116480881D01*
X254981382Y-116245776D01*
X254721430Y-116037075D01*
X254550845Y-115910088D01*
X254297420Y-115741379D01*
X254051376Y-115606320D01*
X253801896Y-115500339D01*
X253538161Y-115418867D01*
X253249354Y-115357330D01*
X253238377Y-115355433D01*
X253201507Y-115349691D01*
X253159753Y-115344534D01*
X253110606Y-115339916D01*
X253051554Y-115335790D01*
X252980088Y-115332108D01*
X252893697Y-115328824D01*
X252789871Y-115325890D01*
X252666100Y-115323259D01*
X252519872Y-115320885D01*
X252348678Y-115318720D01*
X252150007Y-115316717D01*
X251921349Y-115314829D01*
X251660193Y-115313009D01*
X251364030Y-115311211D01*
X251030348Y-115309386D01*
X250688860Y-115307648D01*
X250324108Y-115305822D01*
X249999359Y-115304132D01*
X249712282Y-115302530D01*
X249460547Y-115300961D01*
X249241823Y-115299377D01*
X249053781Y-115297724D01*
X248894089Y-115295952D01*
X248760418Y-115294009D01*
X248650437Y-115291844D01*
X248561816Y-115289405D01*
X248492224Y-115286641D01*
X248439331Y-115283500D01*
X248400807Y-115279932D01*
X248374321Y-115275884D01*
X248357544Y-115271306D01*
X248348144Y-115266146D01*
X248343792Y-115260352D01*
X248342499Y-115255888D01*
X248349779Y-115243151D01*
X248373933Y-115213920D01*
X248415699Y-115167448D01*
X248475815Y-115102988D01*
X248555018Y-115019792D01*
X248654046Y-114917114D01*
X248773637Y-114794205D01*
X248914527Y-114650320D01*
X249077455Y-114484710D01*
X249263158Y-114296628D01*
X249472374Y-114085328D01*
X249705840Y-113850063D01*
X249964294Y-113590084D01*
X250248473Y-113304645D01*
X250559115Y-112992998D01*
X250896957Y-112654397D01*
X251262737Y-112288094D01*
X251657193Y-111893342D01*
X252014609Y-111535846D01*
X255694447Y-107855963D01*
X289836341Y-107855963D01*
X300821826Y-96870463D01*
X301557789Y-96134534D01*
X302264276Y-95428154D01*
X302941712Y-94750900D01*
X303590517Y-94102352D01*
X304211117Y-93482088D01*
X304803934Y-92889686D01*
X305369391Y-92324726D01*
X305907912Y-91786786D01*
X306419919Y-91275444D01*
X306905836Y-90790280D01*
X307366086Y-90330872D01*
X307801092Y-89896799D01*
X308211278Y-89487638D01*
X308597066Y-89102970D01*
X308958880Y-88742372D01*
X309297143Y-88405423D01*
X309612278Y-88091702D01*
X309904708Y-87800787D01*
X310174857Y-87532258D01*
X310423147Y-87285692D01*
X310650002Y-87060669D01*
X310855846Y-86856766D01*
X311041100Y-86673563D01*
X311206189Y-86510639D01*
X311351535Y-86367572D01*
X311477562Y-86243940D01*
X311584693Y-86139322D01*
X311673351Y-86053297D01*
X311743960Y-85985444D01*
X311796942Y-85935341D01*
X311832720Y-85902567D01*
X311851719Y-85886700D01*
X311854943Y-85884963D01*
X311902576Y-85884963D01*
X311902576Y-90066938D01*
G37*
X224554335Y-98718175D02*
X224871005Y-98718498D01*
X225220085Y-98719059D01*
X225602721Y-98719858D01*
X226020057Y-98720894D01*
X226473238Y-98722167D01*
X226963411Y-98723677D01*
X227491719Y-98725423D01*
X228059309Y-98727405D01*
X228667324Y-98729623D01*
X229094507Y-98731227D01*
X229610986Y-98733178D01*
X230120862Y-98735084D01*
X230622208Y-98736940D01*
X231113101Y-98738739D01*
X231591615Y-98740474D01*
X232055823Y-98742138D01*
X232503801Y-98743726D01*
X232933622Y-98745231D01*
X233343362Y-98746645D01*
X233731095Y-98747964D01*
X234094896Y-98749179D01*
X234432839Y-98750286D01*
X234742998Y-98751276D01*
X235023448Y-98752144D01*
X235272264Y-98752883D01*
X235487520Y-98753487D01*
X235667290Y-98753949D01*
X235809650Y-98754262D01*
X235912673Y-98754421D01*
X235952246Y-98754439D01*
X236143390Y-98754450D01*
X236296724Y-98754761D01*
X236416773Y-98755658D01*
X236508061Y-98757428D01*
X236575112Y-98760358D01*
X236622450Y-98764735D01*
X236654599Y-98770846D01*
X236676084Y-98778978D01*
X236691428Y-98789417D01*
X236704874Y-98802170D01*
X236720843Y-98820400D01*
X236733351Y-98843013D01*
X236743251Y-98875850D01*
X236751395Y-98924753D01*
X236758636Y-98995560D01*
X236765828Y-99094112D01*
X236773822Y-99226250D01*
X236778283Y-99304879D01*
X236788732Y-99495456D01*
X236796309Y-99648818D01*
X236800871Y-99769998D01*
X236802276Y-99864026D01*
X236800381Y-99935932D01*
X236795044Y-99990749D01*
X236786123Y-100033507D01*
X236773474Y-100069237D01*
X236756957Y-100102970D01*
X236755617Y-100105451D01*
X236734510Y-100132915D01*
X236686625Y-100188111D01*
X236614351Y-100268521D01*
X236520081Y-100371630D01*
X236406205Y-100494921D01*
X236275113Y-100635878D01*
X236129196Y-100791987D01*
X235970846Y-100960729D01*
X235802452Y-101139591D01*
X235626406Y-101326055D01*
X235445098Y-101517606D01*
X235260919Y-101711727D01*
X235076260Y-101905903D01*
X234893511Y-102097617D01*
X234715063Y-102284355D01*
X234543308Y-102463599D01*
X234380635Y-102632833D01*
X234229436Y-102789542D01*
X234092101Y-102931210D01*
X233971021Y-103055321D01*
X233868587Y-103159359D01*
X233787189Y-103240807D01*
X233729218Y-103297150D01*
X233697066Y-103325871D01*
X233692776Y-103328743D01*
X233652420Y-103339091D01*
X233576231Y-103347580D01*
X233462517Y-103354318D01*
X233309588Y-103359409D01*
X233151992Y-103362454D01*
X233028270Y-103364170D01*
X232868413Y-103366210D01*
X232674980Y-103368548D01*
X232450530Y-103371159D01*
X232197622Y-103374018D01*
X231918814Y-103377100D01*
X231616667Y-103380379D01*
X231293739Y-103383831D01*
X230952589Y-103387429D01*
X230595776Y-103391150D01*
X230225859Y-103394967D01*
X229845398Y-103398855D01*
X229456951Y-103402790D01*
X229063078Y-103406745D01*
X228666337Y-103410697D01*
X228269287Y-103414619D01*
X227874488Y-103418487D01*
X227484498Y-103422274D01*
X227101878Y-103425957D01*
X226729184Y-103429509D01*
X226368978Y-103432906D01*
X226023817Y-103436122D01*
X225696262Y-103439133D01*
X225388870Y-103441912D01*
X225104201Y-103444435D01*
X224844814Y-103446676D01*
X224613268Y-103448611D01*
X224412122Y-103450214D01*
X224243936Y-103451460D01*
X224111267Y-103452323D01*
X224016676Y-103452779D01*
X223976242Y-103452845D01*
X223810301Y-103452519D01*
X223680683Y-103451616D01*
X223581378Y-103449671D01*
X223506374Y-103446221D01*
X223449662Y-103440802D01*
X223405230Y-103432950D01*
X223367070Y-103422201D01*
X223329170Y-103408092D01*
X223313493Y-103401716D01*
X223205352Y-103351259D01*
X223085812Y-103285819D01*
X222967021Y-103212914D01*
X222861125Y-103140061D01*
X222780273Y-103074780D01*
X222770704Y-103065765D01*
X222717236Y-103003908D01*
X222674911Y-102937382D01*
X222661901Y-102907464D01*
X222656691Y-102882375D01*
X222652476Y-102840428D01*
X222649279Y-102779772D01*
X222647121Y-102698557D01*
X222646024Y-102594931D01*
X222646009Y-102467045D01*
X222647097Y-102313048D01*
X222649311Y-102131089D01*
X222652672Y-101919318D01*
X222657201Y-101675884D01*
X222662920Y-101398937D01*
X222669850Y-101086625D01*
X222678013Y-100737100D01*
X222687430Y-100348509D01*
X222695389Y-100027930D01*
X222701905Y-99766965D01*
X222707640Y-99545031D01*
X222713025Y-99358844D01*
X222718491Y-99205119D01*
X222724470Y-99080570D01*
X222731393Y-98981913D01*
X222739693Y-98905864D01*
X222749799Y-98849137D01*
X222762144Y-98808447D01*
X222777159Y-98780510D01*
X222795275Y-98762042D01*
X222816925Y-98749756D01*
X222842538Y-98740370D01*
X222865466Y-98732973D01*
X222882533Y-98730416D01*
X222918270Y-98728101D01*
X222973820Y-98726027D01*
X223050328Y-98724194D01*
X223148941Y-98722602D01*
X223270803Y-98721251D01*
X223417059Y-98720139D01*
X223588855Y-98719268D01*
X223787335Y-98718636D01*
X224013645Y-98718244D01*
X224268930Y-98718090D01*
X224554335Y-98718175D01*
G36*
X224554335Y-98718175D02*
G01*
X224871005Y-98718498D01*
X225220085Y-98719059D01*
X225602721Y-98719858D01*
X226020057Y-98720894D01*
X226473238Y-98722167D01*
X226963411Y-98723677D01*
X227491719Y-98725423D01*
X228059309Y-98727405D01*
X228667324Y-98729623D01*
X229094507Y-98731227D01*
X229610986Y-98733178D01*
X230120862Y-98735084D01*
X230622208Y-98736940D01*
X231113101Y-98738739D01*
X231591615Y-98740474D01*
X232055823Y-98742138D01*
X232503801Y-98743726D01*
X232933622Y-98745231D01*
X233343362Y-98746645D01*
X233731095Y-98747964D01*
X234094896Y-98749179D01*
X234432839Y-98750286D01*
X234742998Y-98751276D01*
X235023448Y-98752144D01*
X235272264Y-98752883D01*
X235487520Y-98753487D01*
X235667290Y-98753949D01*
X235809650Y-98754262D01*
X235912673Y-98754421D01*
X235952246Y-98754439D01*
X236143390Y-98754450D01*
X236296724Y-98754761D01*
X236416773Y-98755658D01*
X236508061Y-98757428D01*
X236575112Y-98760358D01*
X236622450Y-98764735D01*
X236654599Y-98770846D01*
X236676084Y-98778978D01*
X236691428Y-98789417D01*
X236704874Y-98802170D01*
X236720843Y-98820400D01*
X236733351Y-98843013D01*
X236743251Y-98875850D01*
X236751395Y-98924753D01*
X236758636Y-98995560D01*
X236765828Y-99094112D01*
X236773822Y-99226250D01*
X236778283Y-99304879D01*
X236788732Y-99495456D01*
X236796309Y-99648818D01*
X236800871Y-99769998D01*
X236802276Y-99864026D01*
X236800381Y-99935932D01*
X236795044Y-99990749D01*
X236786123Y-100033507D01*
X236773474Y-100069237D01*
X236756957Y-100102970D01*
X236755617Y-100105451D01*
X236734510Y-100132915D01*
X236686625Y-100188111D01*
X236614351Y-100268521D01*
X236520081Y-100371630D01*
X236406205Y-100494921D01*
X236275113Y-100635878D01*
X236129196Y-100791987D01*
X235970846Y-100960729D01*
X235802452Y-101139591D01*
X235626406Y-101326055D01*
X235445098Y-101517606D01*
X235260919Y-101711727D01*
X235076260Y-101905903D01*
X234893511Y-102097617D01*
X234715063Y-102284355D01*
X234543308Y-102463599D01*
X234380635Y-102632833D01*
X234229436Y-102789542D01*
X234092101Y-102931210D01*
X233971021Y-103055321D01*
X233868587Y-103159359D01*
X233787189Y-103240807D01*
X233729218Y-103297150D01*
X233697066Y-103325871D01*
X233692776Y-103328743D01*
X233652420Y-103339091D01*
X233576231Y-103347580D01*
X233462517Y-103354318D01*
X233309588Y-103359409D01*
X233151992Y-103362454D01*
X233028270Y-103364170D01*
X232868413Y-103366210D01*
X232674980Y-103368548D01*
X232450530Y-103371159D01*
X232197622Y-103374018D01*
X231918814Y-103377100D01*
X231616667Y-103380379D01*
X231293739Y-103383831D01*
X230952589Y-103387429D01*
X230595776Y-103391150D01*
X230225859Y-103394967D01*
X229845398Y-103398855D01*
X229456951Y-103402790D01*
X229063078Y-103406745D01*
X228666337Y-103410697D01*
X228269287Y-103414619D01*
X227874488Y-103418487D01*
X227484498Y-103422274D01*
X227101878Y-103425957D01*
X226729184Y-103429509D01*
X226368978Y-103432906D01*
X226023817Y-103436122D01*
X225696262Y-103439133D01*
X225388870Y-103441912D01*
X225104201Y-103444435D01*
X224844814Y-103446676D01*
X224613268Y-103448611D01*
X224412122Y-103450214D01*
X224243936Y-103451460D01*
X224111267Y-103452323D01*
X224016676Y-103452779D01*
X223976242Y-103452845D01*
X223810301Y-103452519D01*
X223680683Y-103451616D01*
X223581378Y-103449671D01*
X223506374Y-103446221D01*
X223449662Y-103440802D01*
X223405230Y-103432950D01*
X223367070Y-103422201D01*
X223329170Y-103408092D01*
X223313493Y-103401716D01*
X223205352Y-103351259D01*
X223085812Y-103285819D01*
X222967021Y-103212914D01*
X222861125Y-103140061D01*
X222780273Y-103074780D01*
X222770704Y-103065765D01*
X222717236Y-103003908D01*
X222674911Y-102937382D01*
X222661901Y-102907464D01*
X222656691Y-102882375D01*
X222652476Y-102840428D01*
X222649279Y-102779772D01*
X222647121Y-102698557D01*
X222646024Y-102594931D01*
X222646009Y-102467045D01*
X222647097Y-102313048D01*
X222649311Y-102131089D01*
X222652672Y-101919318D01*
X222657201Y-101675884D01*
X222662920Y-101398937D01*
X222669850Y-101086625D01*
X222678013Y-100737100D01*
X222687430Y-100348509D01*
X222695389Y-100027930D01*
X222701905Y-99766965D01*
X222707640Y-99545031D01*
X222713025Y-99358844D01*
X222718491Y-99205119D01*
X222724470Y-99080570D01*
X222731393Y-98981913D01*
X222739693Y-98905864D01*
X222749799Y-98849137D01*
X222762144Y-98808447D01*
X222777159Y-98780510D01*
X222795275Y-98762042D01*
X222816925Y-98749756D01*
X222842538Y-98740370D01*
X222865466Y-98732973D01*
X222882533Y-98730416D01*
X222918270Y-98728101D01*
X222973820Y-98726027D01*
X223050328Y-98724194D01*
X223148941Y-98722602D01*
X223270803Y-98721251D01*
X223417059Y-98720139D01*
X223588855Y-98719268D01*
X223787335Y-98718636D01*
X224013645Y-98718244D01*
X224268930Y-98718090D01*
X224554335Y-98718175D01*
G37*
X189423486Y-184159958D02*
X193593182Y-184159958D01*
X193614679Y-184160665D01*
X193676879Y-184161576D01*
X193778152Y-184162681D01*
X193916870Y-184163972D01*
X194091401Y-184165438D01*
X194300118Y-184167072D01*
X194541389Y-184168863D01*
X194813586Y-184170804D01*
X195115078Y-184172883D01*
X195444237Y-184175093D01*
X195799432Y-184177424D01*
X196179034Y-184179867D01*
X196581413Y-184182413D01*
X197004940Y-184185053D01*
X197447985Y-184187776D01*
X197908919Y-184190576D01*
X198386111Y-184193441D01*
X198877932Y-184196363D01*
X199382753Y-184199332D01*
X199898943Y-184202341D01*
X200424874Y-184205378D01*
X200958915Y-184208436D01*
X201499438Y-184211505D01*
X202044812Y-184214575D01*
X202593407Y-184217638D01*
X203143595Y-184220685D01*
X203693745Y-184223706D01*
X204242227Y-184226692D01*
X204787414Y-184229634D01*
X205327673Y-184232522D01*
X205861377Y-184235349D01*
X206386895Y-184238103D01*
X206902597Y-184240777D01*
X207406855Y-184243361D01*
X207898038Y-184245846D01*
X208374517Y-184248222D01*
X208834662Y-184250481D01*
X209276844Y-184252613D01*
X209699433Y-184254609D01*
X210100799Y-184256461D01*
X210479312Y-184258158D01*
X210833344Y-184259692D01*
X211161264Y-184261053D01*
X211461443Y-184262232D01*
X211732251Y-184263221D01*
X211972059Y-184264009D01*
X212165214Y-184264553D01*
X213382268Y-184267630D01*
X219213742Y-178436270D01*
X219213742Y-158518393D01*
X206398204Y-171333917D01*
X205779708Y-171952437D01*
X205168573Y-172563644D01*
X204565483Y-173166853D01*
X203971122Y-173761378D01*
X203386175Y-174346535D01*
X202811325Y-174921637D01*
X202247258Y-175485999D01*
X201694656Y-176038937D01*
X201154205Y-176579764D01*
X200626589Y-177107796D01*
X200112491Y-177622347D01*
X199612597Y-178122731D01*
X199127590Y-178608264D01*
X198658155Y-179078260D01*
X198204975Y-179532033D01*
X197768735Y-179968899D01*
X197350120Y-180388171D01*
X196949813Y-180789165D01*
X196568499Y-181171195D01*
X196206861Y-181533577D01*
X195865585Y-181875623D01*
X195545354Y-182196650D01*
X195246853Y-182495972D01*
X194970766Y-182772903D01*
X194717776Y-183026759D01*
X194488569Y-183256853D01*
X194283829Y-183462500D01*
X194104239Y-183643016D01*
X193950484Y-183797714D01*
X193823249Y-183925910D01*
X193723217Y-184026917D01*
X193651072Y-184100052D01*
X193607499Y-184144627D01*
X193593182Y-184159958D01*
X189423486Y-184159958D01*
X204338655Y-169244800D01*
X219277242Y-154306224D01*
X219277242Y-147077796D01*
X214652270Y-147077796D01*
X211625492Y-150104630D01*
X208598714Y-153131463D01*
X164360251Y-153131463D01*
X162095500Y-150866637D01*
X159830749Y-148601812D01*
X131372120Y-148596512D01*
X102913492Y-148591213D01*
X102913492Y-145733713D01*
X131742521Y-145728413D01*
X160571549Y-145723114D01*
X165228087Y-150379796D01*
X206947691Y-150379796D01*
X217319293Y-140008130D01*
X223542340Y-140008130D01*
X246359992Y-117189948D01*
X249683159Y-117195497D01*
X250129429Y-117196169D01*
X250535394Y-117196693D01*
X250903080Y-117197171D01*
X251234515Y-117197707D01*
X251531724Y-117198404D01*
X251796734Y-117199363D01*
X252031574Y-117200688D01*
X252238269Y-117202482D01*
X252418847Y-117204848D01*
X252575334Y-117207888D01*
X252709757Y-117211704D01*
X252824143Y-117216401D01*
X252920519Y-117222080D01*
X253000912Y-117228844D01*
X253067349Y-117236796D01*
X253121857Y-117246039D01*
X253166462Y-117256676D01*
X253203191Y-117268810D01*
X253234072Y-117282542D01*
X253261130Y-117297976D01*
X253286394Y-117315216D01*
X253311890Y-117334362D01*
X253339645Y-117355519D01*
X253371685Y-117378789D01*
X253377501Y-117382824D01*
X253623403Y-117563130D01*
X253885010Y-117775751D01*
X254157105Y-118016196D01*
X254434471Y-118279978D01*
X254525034Y-118370138D01*
X254633509Y-118480020D01*
X254731516Y-118580615D01*
X254815252Y-118667914D01*
X254880914Y-118737907D01*
X254924700Y-118786583D01*
X254942806Y-118809934D01*
X254943076Y-118810925D01*
X254928215Y-118826703D01*
X254884067Y-118871758D01*
X254811283Y-118945437D01*
X254710515Y-119047088D01*
X254582415Y-119176059D01*
X254427633Y-119331696D01*
X254246823Y-119513348D01*
X254040635Y-119720361D01*
X253809721Y-119952084D01*
X253554733Y-120207863D01*
X253276322Y-120487047D01*
X252975139Y-120788982D01*
X252651837Y-121113017D01*
X252307067Y-121458498D01*
X251941481Y-121824773D01*
X251555730Y-122211190D01*
X251150466Y-122617096D01*
X250726341Y-123041838D01*
X250284005Y-123484764D01*
X249824111Y-123945222D01*
X249347311Y-124422558D01*
X248854255Y-124916121D01*
X248345596Y-125425258D01*
X247821985Y-125949316D01*
X247284074Y-126487643D01*
X246732514Y-127039586D01*
X246167958Y-127604493D01*
X245591055Y-128181711D01*
X245002459Y-128770588D01*
X244402821Y-129370471D01*
X243792792Y-129980708D01*
X243173025Y-130600646D01*
X242544170Y-131229632D01*
X241906879Y-131867015D01*
X241261804Y-132512140D01*
X240782575Y-132991379D01*
X226622075Y-147151868D01*
X226622076Y-164296768D01*
X226622076Y-181441669D01*
X216578614Y-191485463D01*
X142050632Y-191485463D01*
X135721825Y-197814296D01*
X129393019Y-204143130D01*
X72208228Y-204143130D01*
X70308540Y-204143131D01*
X68450728Y-204143137D01*
X66634335Y-204143146D01*
X64858905Y-204143159D01*
X63123979Y-204143177D01*
X61429102Y-204143199D01*
X59773816Y-204143227D01*
X58157664Y-204143259D01*
X56580189Y-204143297D01*
X55040934Y-204143340D01*
X53539442Y-204143390D01*
X52075256Y-204143445D01*
X50647919Y-204143507D01*
X49256974Y-204143576D01*
X47901963Y-204143651D01*
X46582431Y-204143734D01*
X45297919Y-204143824D01*
X44047971Y-204143922D01*
X42832129Y-204144028D01*
X41649938Y-204144142D01*
X40500938Y-204144264D01*
X39384675Y-204144396D01*
X38300690Y-204144536D01*
X37248526Y-204144685D01*
X36227727Y-204144844D01*
X35237836Y-204145012D01*
X34278394Y-204145191D01*
X33348947Y-204145379D01*
X32449035Y-204145578D01*
X31578203Y-204145788D01*
X30735993Y-204146009D01*
X29921948Y-204146241D01*
X29135612Y-204146485D01*
X28376526Y-204146740D01*
X27644235Y-204147007D01*
X26938281Y-204147287D01*
X26258207Y-204147579D01*
X25603556Y-204147884D01*
X24973871Y-204148201D01*
X24368695Y-204148533D01*
X23787570Y-204148877D01*
X23230041Y-204149236D01*
X22695650Y-204149608D01*
X22183939Y-204149995D01*
X21694452Y-204150396D01*
X21226732Y-204150812D01*
X20780321Y-204151243D01*
X20354763Y-204151689D01*
X19949601Y-204152151D01*
X19564377Y-204152629D01*
X19198635Y-204153123D01*
X18851917Y-204153633D01*
X18523767Y-204154159D01*
X18213728Y-204154703D01*
X17921341Y-204155263D01*
X17646151Y-204155841D01*
X17387701Y-204156436D01*
X17145532Y-204157050D01*
X16919189Y-204157681D01*
X16708215Y-204158331D01*
X16512151Y-204158999D01*
X16330542Y-204159686D01*
X16162929Y-204160392D01*
X16008857Y-204161118D01*
X15867868Y-204161863D01*
X15739505Y-204162628D01*
X15623311Y-204163413D01*
X15518828Y-204164219D01*
X15425601Y-204165045D01*
X15343171Y-204165892D01*
X15271083Y-204166760D01*
X15208878Y-204167650D01*
X15156100Y-204168561D01*
X15112292Y-204169494D01*
X15076996Y-204170449D01*
X15049756Y-204171427D01*
X15030115Y-204172427D01*
X15017615Y-204173450D01*
X15011800Y-204174496D01*
X15011254Y-204174880D01*
X15004948Y-204181004D01*
X14989190Y-204186302D01*
X14961178Y-204190831D01*
X14918106Y-204194650D01*
X14857171Y-204197816D01*
X14775567Y-204200388D01*
X14670491Y-204202423D01*
X14539138Y-204203980D01*
X14378704Y-204205117D01*
X14186384Y-204205892D01*
X13959374Y-204206363D01*
X13694870Y-204206587D01*
X13477934Y-204206630D01*
X13227936Y-204206438D01*
X12990355Y-204205884D01*
X12768576Y-204204999D01*
X12565983Y-204203813D01*
X12385960Y-204202359D01*
X12231893Y-204200666D01*
X12107164Y-204198766D01*
X12015158Y-204196691D01*
X11959260Y-204194471D01*
X11942687Y-204192518D01*
X11942390Y-204171124D01*
X11942095Y-204107818D01*
X11941801Y-204003019D01*
X11941508Y-203857150D01*
X11941218Y-203670630D01*
X11940929Y-203443880D01*
X11940642Y-203177321D01*
X11940356Y-202871375D01*
X11940073Y-202526460D01*
X11939791Y-202142999D01*
X11939512Y-201721413D01*
X11939234Y-201262120D01*
X11938959Y-200765544D01*
X11938686Y-200232103D01*
X11938415Y-199662219D01*
X11938146Y-199056314D01*
X11937880Y-198414806D01*
X11937616Y-197738118D01*
X11937355Y-197026669D01*
X11937096Y-196280882D01*
X11936840Y-195501175D01*
X11936586Y-194687971D01*
X11936336Y-193841689D01*
X11936088Y-192962751D01*
X11935843Y-192051577D01*
X11935601Y-191108589D01*
X11935361Y-190134206D01*
X11935125Y-189128849D01*
X11934892Y-188092940D01*
X11934663Y-187026899D01*
X11934436Y-185931146D01*
X11934213Y-184806103D01*
X11933993Y-183652190D01*
X11933776Y-182469828D01*
X11933563Y-181259438D01*
X11933354Y-180021440D01*
X11933148Y-178756255D01*
X11932946Y-177464304D01*
X11932747Y-176146007D01*
X11932553Y-174801786D01*
X11932362Y-173432061D01*
X11932175Y-172037253D01*
X11931992Y-170617782D01*
X11931813Y-169174069D01*
X11931638Y-167706535D01*
X11931468Y-166215601D01*
X11931301Y-164701688D01*
X11931139Y-163165216D01*
X11930982Y-161606605D01*
X11930828Y-160026277D01*
X11930679Y-158424653D01*
X11930535Y-156802153D01*
X11930395Y-155159197D01*
X11930260Y-153496208D01*
X11930130Y-151813604D01*
X11930004Y-150111808D01*
X11929883Y-148391239D01*
X11929768Y-146652319D01*
X11929657Y-144895468D01*
X11929551Y-143121107D01*
X11929450Y-141329657D01*
X11929354Y-139521538D01*
X11929264Y-137697172D01*
X11929179Y-135856978D01*
X11929099Y-134001378D01*
X11929025Y-132130793D01*
X11928956Y-130245643D01*
X11928892Y-128346348D01*
X11928835Y-126433330D01*
X11928782Y-124507010D01*
X11928736Y-122567807D01*
X11928695Y-120616144D01*
X11928660Y-118652439D01*
X11928631Y-116677116D01*
X11928608Y-114690593D01*
X11928591Y-112693292D01*
X11928581Y-110685633D01*
X11928576Y-108668038D01*
X11928576Y-12055630D01*
X16553387Y-12055630D01*
X26639387Y-22141546D01*
X36725386Y-32227463D01*
X113919533Y-32227463D01*
X115592192Y-33899630D01*
X117264851Y-35571796D01*
X218801006Y-35571796D01*
X230527326Y-23845463D01*
X242253645Y-12119130D01*
X245253282Y-12119129D01*
X248252919Y-12119129D01*
X248277145Y-12164395D01*
X248277234Y-12168533D01*
X248274085Y-12175733D01*
X248267089Y-12186611D01*
X248255637Y-12201779D01*
X248239117Y-12221852D01*
X248216921Y-12247441D01*
X248188438Y-12279162D01*
X248153059Y-12317627D01*
X248110173Y-12363449D01*
X248059172Y-12417244D01*
X247999444Y-12479623D01*
X247930380Y-12551200D01*
X247851370Y-12632590D01*
X247761804Y-12724405D01*
X247661073Y-12827259D01*
X247548567Y-12941765D01*
X247423675Y-13068538D01*
X247285787Y-13208190D01*
X247134295Y-13361334D01*
X246968588Y-13528585D01*
X246788056Y-13710557D01*
X246592089Y-13907861D01*
X246380077Y-14121113D01*
X246151411Y-14350925D01*
X245905481Y-14597911D01*
X245641676Y-14862684D01*
X245359387Y-15145859D01*
X245058005Y-15448047D01*
X244736918Y-15769864D01*
X244395518Y-16111923D01*
X244033194Y-16474836D01*
X243649336Y-16859218D01*
X243243336Y-17265681D01*
X242814581Y-17694841D01*
X242362464Y-18147309D01*
X241886374Y-18623699D01*
X241385701Y-19124626D01*
X240859835Y-19650702D01*
X240308167Y-20202541D01*
X239730086Y-20780757D01*
X239124983Y-21385963D01*
X238492247Y-22018772D01*
X237831269Y-22679798D01*
X237141440Y-23369655D01*
X236578041Y-23933062D01*
X224854711Y-35656463D01*
X256096714Y-35656463D01*
X267320311Y-46880135D01*
X267898964Y-47458821D01*
X268470231Y-48030179D01*
X269033381Y-48593476D01*
X269587682Y-49147979D01*
X270132401Y-49692953D01*
X270666807Y-50227666D01*
X271190167Y-50751384D01*
X271701750Y-51263373D01*
X272200824Y-51762901D01*
X272686656Y-52249233D01*
X273158516Y-52721637D01*
X273615669Y-53179378D01*
X274057386Y-53621724D01*
X274482933Y-54047941D01*
X274891580Y-54457296D01*
X275282593Y-54849055D01*
X275655240Y-55222484D01*
X276008791Y-55576851D01*
X276342512Y-55911422D01*
X276655673Y-56225463D01*
X276947540Y-56518241D01*
X277217382Y-56789023D01*
X277464468Y-57037074D01*
X277688064Y-57261663D01*
X277887439Y-57462055D01*
X278061861Y-57637516D01*
X278210598Y-57787314D01*
X278332918Y-57910715D01*
X278428089Y-58006986D01*
X278495380Y-58075392D01*
X278534057Y-58115202D01*
X278543909Y-58125985D01*
X278530391Y-58159088D01*
X278518509Y-58173563D01*
X278506905Y-58176176D01*
X278476733Y-58178619D01*
X278426850Y-58180896D01*
X278356117Y-58183013D01*
X278263391Y-58184974D01*
X278147532Y-58186783D01*
X278007397Y-58188445D01*
X277841847Y-58189966D01*
X277649739Y-58191349D01*
X277429932Y-58192599D01*
X277181286Y-58193722D01*
X276902659Y-58194721D01*
X276592909Y-58195601D01*
X276250896Y-58196368D01*
X275875478Y-58197025D01*
X275465514Y-58197578D01*
X275019863Y-58198031D01*
X274537384Y-58198389D01*
X274016935Y-58198656D01*
X273457375Y-58198837D01*
X272857563Y-58198938D01*
X272332539Y-58198963D01*
X266171970Y-58198963D01*
X251122514Y-43149463D01*
X128884805Y-43149463D01*
X127985409Y-44049046D01*
X127086012Y-44948629D01*
X113644823Y-44948630D01*
X100203633Y-44948630D01*
X99059953Y-43800338D01*
X98868070Y-43607429D01*
X98677839Y-43415699D01*
X98492457Y-43228400D01*
X98315119Y-43048781D01*
X98149023Y-42880094D01*
X97997365Y-42725589D01*
X97863342Y-42588517D01*
X97750150Y-42472128D01*
X97660986Y-42379672D01*
X97606642Y-42322506D01*
X97506096Y-42217367D01*
X97406627Y-42116721D01*
X97314828Y-42026994D01*
X97237293Y-41954608D01*
X97180615Y-41905989D01*
X97173668Y-41900654D01*
X97120243Y-41856974D01*
X97043892Y-41789530D01*
X96951477Y-41704640D01*
X96849860Y-41608618D01*
X96745902Y-41507782D01*
X96732610Y-41494685D01*
X96414895Y-41181029D01*
X89694694Y-41175704D01*
X82974492Y-41170380D01*
X82974492Y-40196713D01*
X85119581Y-40191320D01*
X87264669Y-40185927D01*
X87197281Y-40064320D01*
X87181665Y-40040787D01*
X87154587Y-40006535D01*
X87114761Y-39960243D01*
X87060900Y-39900591D01*
X86991716Y-39826259D01*
X86905923Y-39735926D01*
X86802234Y-39628272D01*
X86679362Y-39501976D01*
X86536019Y-39355719D01*
X86370920Y-39188180D01*
X86182777Y-38998039D01*
X85970303Y-38783976D01*
X85732211Y-38544669D01*
X85467214Y-38278799D01*
X85174026Y-37985046D01*
X85031066Y-37841921D01*
X82932239Y-35741130D01*
X76899732Y-35741130D01*
X74618987Y-38021801D01*
X72338242Y-40302473D01*
X72338242Y-52071370D01*
X73407159Y-53140129D01*
X74476076Y-54208889D01*
X74476076Y-61881906D01*
X74476075Y-69554924D01*
X78280806Y-73359610D01*
X82085536Y-77164296D01*
X94466859Y-77164296D01*
X95383511Y-78079755D01*
X95586977Y-78283410D01*
X95761496Y-78459117D01*
X95908513Y-78608393D01*
X96029471Y-78732759D01*
X96125817Y-78833733D01*
X96198995Y-78912836D01*
X96250449Y-78971587D01*
X96281625Y-79011505D01*
X96293967Y-79034109D01*
X96294244Y-79037546D01*
X96293462Y-79041262D01*
X96291336Y-79044755D01*
X96286587Y-79048032D01*
X96277938Y-79051103D01*
X96264112Y-79053973D01*
X96243830Y-79056652D01*
X96215815Y-79059147D01*
X96178790Y-79061466D01*
X96131477Y-79063616D01*
X96072597Y-79065607D01*
X96000874Y-79067445D01*
X95915030Y-79069138D01*
X95813787Y-79070694D01*
X95695867Y-79072121D01*
X95559994Y-79073427D01*
X95404888Y-79074620D01*
X95229273Y-79075707D01*
X95031870Y-79076697D01*
X94811403Y-79077597D01*
X94566593Y-79078415D01*
X94296164Y-79079159D01*
X93998836Y-79079837D01*
X93673333Y-79080456D01*
X93318376Y-79081025D01*
X92932689Y-79081550D01*
X92514994Y-79082042D01*
X92064012Y-79082506D01*
X91578466Y-79082950D01*
X91057080Y-79083384D01*
X90498574Y-79083814D01*
X89901671Y-79084248D01*
X89265094Y-79084694D01*
X88587564Y-79085161D01*
X88530796Y-79085200D01*
X80773267Y-79090520D01*
X77471187Y-75788491D01*
X74169108Y-72486463D01*
X67565210Y-79090463D01*
X25401127Y-79090463D01*
X15018909Y-89472745D01*
X15018909Y-115973391D01*
X44768659Y-145723115D01*
X72888576Y-145728414D01*
X101008492Y-145733713D01*
X101008492Y-148591213D01*
X96092574Y-148596549D01*
X91176657Y-148601886D01*
X91171324Y-154036383D01*
X91165992Y-159470880D01*
X89738584Y-159476321D01*
X89446390Y-159477284D01*
X89193987Y-159477761D01*
X88978834Y-159477714D01*
X88798393Y-159477108D01*
X88650123Y-159475904D01*
X88531483Y-159474065D01*
X88439934Y-159471555D01*
X88372936Y-159468335D01*
X88327949Y-159464369D01*
X88302433Y-159459619D01*
X88294283Y-159455155D01*
X88292801Y-159431927D01*
X88291351Y-159368145D01*
X88289939Y-159265586D01*
X88288571Y-159126028D01*
X88287251Y-158951251D01*
X88285986Y-158743032D01*
X88284782Y-158503150D01*
X88283643Y-158233384D01*
X88282576Y-157935510D01*
X88281586Y-157611309D01*
X88280678Y-157262558D01*
X88279859Y-156891035D01*
X88279133Y-156498519D01*
X88278507Y-156086789D01*
X88277986Y-155657622D01*
X88277576Y-155212797D01*
X88277282Y-154754092D01*
X88277110Y-154283286D01*
X88277066Y-153983421D01*
X88276742Y-148538296D01*
X56891740Y-148538296D01*
X56877977Y-150723755D01*
X56876378Y-150982282D01*
X56874592Y-151279356D01*
X56872641Y-151611192D01*
X56870545Y-151974004D01*
X56868324Y-152364006D01*
X56866001Y-152777413D01*
X56863594Y-153210439D01*
X56861126Y-153659299D01*
X56858617Y-154120207D01*
X56856088Y-154589377D01*
X56853559Y-155063024D01*
X56851052Y-155537362D01*
X56848587Y-156008606D01*
X56846185Y-156472970D01*
X56843867Y-156926667D01*
X56843524Y-156994380D01*
X56839923Y-157694223D01*
X56836268Y-158383070D01*
X56832569Y-159059430D01*
X56828836Y-159721812D01*
X56825081Y-160368725D01*
X56821314Y-160998679D01*
X56817546Y-161610183D01*
X56813786Y-162201748D01*
X56810047Y-162771881D01*
X56806339Y-163319092D01*
X56802672Y-163841892D01*
X56799056Y-164338788D01*
X56795504Y-164808292D01*
X56792024Y-165248911D01*
X56788628Y-165659155D01*
X56785327Y-166037535D01*
X56782131Y-166382559D01*
X56779051Y-166692736D01*
X56776098Y-166966576D01*
X56773281Y-167202589D01*
X56770612Y-167399283D01*
X56768102Y-167555168D01*
X56768047Y-167558193D01*
X56754238Y-168321841D01*
X56880629Y-168468360D01*
X56963236Y-168561070D01*
X57074988Y-168681614D01*
X57214442Y-168828557D01*
X57380159Y-169000463D01*
X57570697Y-169195897D01*
X57784616Y-169413423D01*
X58020475Y-169651605D01*
X58276834Y-169909010D01*
X58552252Y-170184199D01*
X58845289Y-170475740D01*
X59154502Y-170782195D01*
X59478453Y-171102129D01*
X59815700Y-171434108D01*
X60164803Y-171776695D01*
X60524320Y-172128455D01*
X60892812Y-172487952D01*
X61268837Y-172853751D01*
X61650956Y-173224417D01*
X61754909Y-173325071D01*
X61905609Y-173470934D01*
X62054314Y-173614870D01*
X62196686Y-173752680D01*
X62328389Y-173880168D01*
X62445086Y-173993135D01*
X62542441Y-174087383D01*
X62616118Y-174158715D01*
X62645168Y-174186845D01*
X62847510Y-174382796D01*
X82170214Y-174382796D01*
X88276742Y-168276158D01*
X88277066Y-164847185D01*
X88277205Y-164469195D01*
X88277540Y-164102548D01*
X88278061Y-163749495D01*
X88278756Y-163412286D01*
X88279614Y-163093169D01*
X88280624Y-162794395D01*
X88281776Y-162518212D01*
X88283056Y-162266871D01*
X88284455Y-162042621D01*
X88285961Y-161847711D01*
X88287564Y-161684392D01*
X88289251Y-161554912D01*
X88291011Y-161461522D01*
X88292834Y-161406470D01*
X88294283Y-161391604D01*
X88305843Y-161386190D01*
X88334809Y-161381590D01*
X88383721Y-161377766D01*
X88455119Y-161374682D01*
X88551543Y-161372300D01*
X88675534Y-161370583D01*
X88829630Y-161369493D01*
X89016372Y-161368994D01*
X89238301Y-161369049D01*
X89497956Y-161369619D01*
X89738584Y-161370438D01*
X91165992Y-161375880D01*
X91171329Y-165429296D01*
X91176667Y-169482713D01*
X88266204Y-172393101D01*
X85355742Y-175303488D01*
X85355742Y-196988796D01*
X126281466Y-196988796D01*
X132708747Y-190561541D01*
X139136028Y-184134287D01*
X164268048Y-184158831D01*
X189400069Y-184183375D01*
X189423486Y-184159958D01*
G36*
X189423486Y-184159958D02*
G01*
X193593182Y-184159958D01*
X193614679Y-184160665D01*
X193676879Y-184161576D01*
X193778152Y-184162681D01*
X193916870Y-184163972D01*
X194091401Y-184165438D01*
X194300118Y-184167072D01*
X194541389Y-184168863D01*
X194813586Y-184170804D01*
X195115078Y-184172883D01*
X195444237Y-184175093D01*
X195799432Y-184177424D01*
X196179034Y-184179867D01*
X196581413Y-184182413D01*
X197004940Y-184185053D01*
X197447985Y-184187776D01*
X197908919Y-184190576D01*
X198386111Y-184193441D01*
X198877932Y-184196363D01*
X199382753Y-184199332D01*
X199898943Y-184202341D01*
X200424874Y-184205378D01*
X200958915Y-184208436D01*
X201499438Y-184211505D01*
X202044812Y-184214575D01*
X202593407Y-184217638D01*
X203143595Y-184220685D01*
X203693745Y-184223706D01*
X204242227Y-184226692D01*
X204787414Y-184229634D01*
X205327673Y-184232522D01*
X205861377Y-184235349D01*
X206386895Y-184238103D01*
X206902597Y-184240777D01*
X207406855Y-184243361D01*
X207898038Y-184245846D01*
X208374517Y-184248222D01*
X208834662Y-184250481D01*
X209276844Y-184252613D01*
X209699433Y-184254609D01*
X210100799Y-184256461D01*
X210479312Y-184258158D01*
X210833344Y-184259692D01*
X211161264Y-184261053D01*
X211461443Y-184262232D01*
X211732251Y-184263221D01*
X211972059Y-184264009D01*
X212165214Y-184264553D01*
X213382268Y-184267630D01*
X219213742Y-178436270D01*
X219213742Y-158518393D01*
X206398204Y-171333917D01*
X205779708Y-171952437D01*
X205168573Y-172563644D01*
X204565483Y-173166853D01*
X203971122Y-173761378D01*
X203386175Y-174346535D01*
X202811325Y-174921637D01*
X202247258Y-175485999D01*
X201694656Y-176038937D01*
X201154205Y-176579764D01*
X200626589Y-177107796D01*
X200112491Y-177622347D01*
X199612597Y-178122731D01*
X199127590Y-178608264D01*
X198658155Y-179078260D01*
X198204975Y-179532033D01*
X197768735Y-179968899D01*
X197350120Y-180388171D01*
X196949813Y-180789165D01*
X196568499Y-181171195D01*
X196206861Y-181533577D01*
X195865585Y-181875623D01*
X195545354Y-182196650D01*
X195246853Y-182495972D01*
X194970766Y-182772903D01*
X194717776Y-183026759D01*
X194488569Y-183256853D01*
X194283829Y-183462500D01*
X194104239Y-183643016D01*
X193950484Y-183797714D01*
X193823249Y-183925910D01*
X193723217Y-184026917D01*
X193651072Y-184100052D01*
X193607499Y-184144627D01*
X193593182Y-184159958D01*
X189423486Y-184159958D01*
X204338655Y-169244800D01*
X219277242Y-154306224D01*
X219277242Y-147077796D01*
X214652270Y-147077796D01*
X211625492Y-150104630D01*
X208598714Y-153131463D01*
X164360251Y-153131463D01*
X162095500Y-150866637D01*
X159830749Y-148601812D01*
X131372120Y-148596512D01*
X102913492Y-148591213D01*
X102913492Y-145733713D01*
X131742521Y-145728413D01*
X160571549Y-145723114D01*
X165228087Y-150379796D01*
X206947691Y-150379796D01*
X217319293Y-140008130D01*
X223542340Y-140008130D01*
X246359992Y-117189948D01*
X249683159Y-117195497D01*
X250129429Y-117196169D01*
X250535394Y-117196693D01*
X250903080Y-117197171D01*
X251234515Y-117197707D01*
X251531724Y-117198404D01*
X251796734Y-117199363D01*
X252031574Y-117200688D01*
X252238269Y-117202482D01*
X252418847Y-117204848D01*
X252575334Y-117207888D01*
X252709757Y-117211704D01*
X252824143Y-117216401D01*
X252920519Y-117222080D01*
X253000912Y-117228844D01*
X253067349Y-117236796D01*
X253121857Y-117246039D01*
X253166462Y-117256676D01*
X253203191Y-117268810D01*
X253234072Y-117282542D01*
X253261130Y-117297976D01*
X253286394Y-117315216D01*
X253311890Y-117334362D01*
X253339645Y-117355519D01*
X253371685Y-117378789D01*
X253377501Y-117382824D01*
X253623403Y-117563130D01*
X253885010Y-117775751D01*
X254157105Y-118016196D01*
X254434471Y-118279978D01*
X254525034Y-118370138D01*
X254633509Y-118480020D01*
X254731516Y-118580615D01*
X254815252Y-118667914D01*
X254880914Y-118737907D01*
X254924700Y-118786583D01*
X254942806Y-118809934D01*
X254943076Y-118810925D01*
X254928215Y-118826703D01*
X254884067Y-118871758D01*
X254811283Y-118945437D01*
X254710515Y-119047088D01*
X254582415Y-119176059D01*
X254427633Y-119331696D01*
X254246823Y-119513348D01*
X254040635Y-119720361D01*
X253809721Y-119952084D01*
X253554733Y-120207863D01*
X253276322Y-120487047D01*
X252975139Y-120788982D01*
X252651837Y-121113017D01*
X252307067Y-121458498D01*
X251941481Y-121824773D01*
X251555730Y-122211190D01*
X251150466Y-122617096D01*
X250726341Y-123041838D01*
X250284005Y-123484764D01*
X249824111Y-123945222D01*
X249347311Y-124422558D01*
X248854255Y-124916121D01*
X248345596Y-125425258D01*
X247821985Y-125949316D01*
X247284074Y-126487643D01*
X246732514Y-127039586D01*
X246167958Y-127604493D01*
X245591055Y-128181711D01*
X245002459Y-128770588D01*
X244402821Y-129370471D01*
X243792792Y-129980708D01*
X243173025Y-130600646D01*
X242544170Y-131229632D01*
X241906879Y-131867015D01*
X241261804Y-132512140D01*
X240782575Y-132991379D01*
X226622075Y-147151868D01*
X226622076Y-164296768D01*
X226622076Y-181441669D01*
X216578614Y-191485463D01*
X142050632Y-191485463D01*
X135721825Y-197814296D01*
X129393019Y-204143130D01*
X72208228Y-204143130D01*
X70308540Y-204143131D01*
X68450728Y-204143137D01*
X66634335Y-204143146D01*
X64858905Y-204143159D01*
X63123979Y-204143177D01*
X61429102Y-204143199D01*
X59773816Y-204143227D01*
X58157664Y-204143259D01*
X56580189Y-204143297D01*
X55040934Y-204143340D01*
X53539442Y-204143390D01*
X52075256Y-204143445D01*
X50647919Y-204143507D01*
X49256974Y-204143576D01*
X47901963Y-204143651D01*
X46582431Y-204143734D01*
X45297919Y-204143824D01*
X44047971Y-204143922D01*
X42832129Y-204144028D01*
X41649938Y-204144142D01*
X40500938Y-204144264D01*
X39384675Y-204144396D01*
X38300690Y-204144536D01*
X37248526Y-204144685D01*
X36227727Y-204144844D01*
X35237836Y-204145012D01*
X34278394Y-204145191D01*
X33348947Y-204145379D01*
X32449035Y-204145578D01*
X31578203Y-204145788D01*
X30735993Y-204146009D01*
X29921948Y-204146241D01*
X29135612Y-204146485D01*
X28376526Y-204146740D01*
X27644235Y-204147007D01*
X26938281Y-204147287D01*
X26258207Y-204147579D01*
X25603556Y-204147884D01*
X24973871Y-204148201D01*
X24368695Y-204148533D01*
X23787570Y-204148877D01*
X23230041Y-204149236D01*
X22695650Y-204149608D01*
X22183939Y-204149995D01*
X21694452Y-204150396D01*
X21226732Y-204150812D01*
X20780321Y-204151243D01*
X20354763Y-204151689D01*
X19949601Y-204152151D01*
X19564377Y-204152629D01*
X19198635Y-204153123D01*
X18851917Y-204153633D01*
X18523767Y-204154159D01*
X18213728Y-204154703D01*
X17921341Y-204155263D01*
X17646151Y-204155841D01*
X17387701Y-204156436D01*
X17145532Y-204157050D01*
X16919189Y-204157681D01*
X16708215Y-204158331D01*
X16512151Y-204158999D01*
X16330542Y-204159686D01*
X16162929Y-204160392D01*
X16008857Y-204161118D01*
X15867868Y-204161863D01*
X15739505Y-204162628D01*
X15623311Y-204163413D01*
X15518828Y-204164219D01*
X15425601Y-204165045D01*
X15343171Y-204165892D01*
X15271083Y-204166760D01*
X15208878Y-204167650D01*
X15156100Y-204168561D01*
X15112292Y-204169494D01*
X15076996Y-204170449D01*
X15049756Y-204171427D01*
X15030115Y-204172427D01*
X15017615Y-204173450D01*
X15011800Y-204174496D01*
X15011254Y-204174880D01*
X15004948Y-204181004D01*
X14989190Y-204186302D01*
X14961178Y-204190831D01*
X14918106Y-204194650D01*
X14857171Y-204197816D01*
X14775567Y-204200388D01*
X14670491Y-204202423D01*
X14539138Y-204203980D01*
X14378704Y-204205117D01*
X14186384Y-204205892D01*
X13959374Y-204206363D01*
X13694870Y-204206587D01*
X13477934Y-204206630D01*
X13227936Y-204206438D01*
X12990355Y-204205884D01*
X12768576Y-204204999D01*
X12565983Y-204203813D01*
X12385960Y-204202359D01*
X12231893Y-204200666D01*
X12107164Y-204198766D01*
X12015158Y-204196691D01*
X11959260Y-204194471D01*
X11942687Y-204192518D01*
X11942390Y-204171124D01*
X11942095Y-204107818D01*
X11941801Y-204003019D01*
X11941508Y-203857150D01*
X11941218Y-203670630D01*
X11940929Y-203443880D01*
X11940642Y-203177321D01*
X11940356Y-202871375D01*
X11940073Y-202526460D01*
X11939791Y-202142999D01*
X11939512Y-201721413D01*
X11939234Y-201262120D01*
X11938959Y-200765544D01*
X11938686Y-200232103D01*
X11938415Y-199662219D01*
X11938146Y-199056314D01*
X11937880Y-198414806D01*
X11937616Y-197738118D01*
X11937355Y-197026669D01*
X11937096Y-196280882D01*
X11936840Y-195501175D01*
X11936586Y-194687971D01*
X11936336Y-193841689D01*
X11936088Y-192962751D01*
X11935843Y-192051577D01*
X11935601Y-191108589D01*
X11935361Y-190134206D01*
X11935125Y-189128849D01*
X11934892Y-188092940D01*
X11934663Y-187026899D01*
X11934436Y-185931146D01*
X11934213Y-184806103D01*
X11933993Y-183652190D01*
X11933776Y-182469828D01*
X11933563Y-181259438D01*
X11933354Y-180021440D01*
X11933148Y-178756255D01*
X11932946Y-177464304D01*
X11932747Y-176146007D01*
X11932553Y-174801786D01*
X11932362Y-173432061D01*
X11932175Y-172037253D01*
X11931992Y-170617782D01*
X11931813Y-169174069D01*
X11931638Y-167706535D01*
X11931468Y-166215601D01*
X11931301Y-164701688D01*
X11931139Y-163165216D01*
X11930982Y-161606605D01*
X11930828Y-160026277D01*
X11930679Y-158424653D01*
X11930535Y-156802153D01*
X11930395Y-155159197D01*
X11930260Y-153496208D01*
X11930130Y-151813604D01*
X11930004Y-150111808D01*
X11929883Y-148391239D01*
X11929768Y-146652319D01*
X11929657Y-144895468D01*
X11929551Y-143121107D01*
X11929450Y-141329657D01*
X11929354Y-139521538D01*
X11929264Y-137697172D01*
X11929179Y-135856978D01*
X11929099Y-134001378D01*
X11929025Y-132130793D01*
X11928956Y-130245643D01*
X11928892Y-128346348D01*
X11928835Y-126433330D01*
X11928782Y-124507010D01*
X11928736Y-122567807D01*
X11928695Y-120616144D01*
X11928660Y-118652439D01*
X11928631Y-116677116D01*
X11928608Y-114690593D01*
X11928591Y-112693292D01*
X11928581Y-110685633D01*
X11928576Y-108668038D01*
X11928576Y-12055630D01*
X16553387Y-12055630D01*
X26639387Y-22141546D01*
X36725386Y-32227463D01*
X113919533Y-32227463D01*
X115592192Y-33899630D01*
X117264851Y-35571796D01*
X218801006Y-35571796D01*
X230527326Y-23845463D01*
X242253645Y-12119130D01*
X245253282Y-12119129D01*
X248252919Y-12119129D01*
X248277145Y-12164395D01*
X248277234Y-12168533D01*
X248274085Y-12175733D01*
X248267089Y-12186611D01*
X248255637Y-12201779D01*
X248239117Y-12221852D01*
X248216921Y-12247441D01*
X248188438Y-12279162D01*
X248153059Y-12317627D01*
X248110173Y-12363449D01*
X248059172Y-12417244D01*
X247999444Y-12479623D01*
X247930380Y-12551200D01*
X247851370Y-12632590D01*
X247761804Y-12724405D01*
X247661073Y-12827259D01*
X247548567Y-12941765D01*
X247423675Y-13068538D01*
X247285787Y-13208190D01*
X247134295Y-13361334D01*
X246968588Y-13528585D01*
X246788056Y-13710557D01*
X246592089Y-13907861D01*
X246380077Y-14121113D01*
X246151411Y-14350925D01*
X245905481Y-14597911D01*
X245641676Y-14862684D01*
X245359387Y-15145859D01*
X245058005Y-15448047D01*
X244736918Y-15769864D01*
X244395518Y-16111923D01*
X244033194Y-16474836D01*
X243649336Y-16859218D01*
X243243336Y-17265681D01*
X242814581Y-17694841D01*
X242362464Y-18147309D01*
X241886374Y-18623699D01*
X241385701Y-19124626D01*
X240859835Y-19650702D01*
X240308167Y-20202541D01*
X239730086Y-20780757D01*
X239124983Y-21385963D01*
X238492247Y-22018772D01*
X237831269Y-22679798D01*
X237141440Y-23369655D01*
X236578041Y-23933062D01*
X224854711Y-35656463D01*
X256096714Y-35656463D01*
X267320311Y-46880135D01*
X267898964Y-47458821D01*
X268470231Y-48030179D01*
X269033381Y-48593476D01*
X269587682Y-49147979D01*
X270132401Y-49692953D01*
X270666807Y-50227666D01*
X271190167Y-50751384D01*
X271701750Y-51263373D01*
X272200824Y-51762901D01*
X272686656Y-52249233D01*
X273158516Y-52721637D01*
X273615669Y-53179378D01*
X274057386Y-53621724D01*
X274482933Y-54047941D01*
X274891580Y-54457296D01*
X275282593Y-54849055D01*
X275655240Y-55222484D01*
X276008791Y-55576851D01*
X276342512Y-55911422D01*
X276655673Y-56225463D01*
X276947540Y-56518241D01*
X277217382Y-56789023D01*
X277464468Y-57037074D01*
X277688064Y-57261663D01*
X277887439Y-57462055D01*
X278061861Y-57637516D01*
X278210598Y-57787314D01*
X278332918Y-57910715D01*
X278428089Y-58006986D01*
X278495380Y-58075392D01*
X278534057Y-58115202D01*
X278543909Y-58125985D01*
X278530391Y-58159088D01*
X278518509Y-58173563D01*
X278506905Y-58176176D01*
X278476733Y-58178619D01*
X278426850Y-58180896D01*
X278356117Y-58183013D01*
X278263391Y-58184974D01*
X278147532Y-58186783D01*
X278007397Y-58188445D01*
X277841847Y-58189966D01*
X277649739Y-58191349D01*
X277429932Y-58192599D01*
X277181286Y-58193722D01*
X276902659Y-58194721D01*
X276592909Y-58195601D01*
X276250896Y-58196368D01*
X275875478Y-58197025D01*
X275465514Y-58197578D01*
X275019863Y-58198031D01*
X274537384Y-58198389D01*
X274016935Y-58198656D01*
X273457375Y-58198837D01*
X272857563Y-58198938D01*
X272332539Y-58198963D01*
X266171970Y-58198963D01*
X251122514Y-43149463D01*
X128884805Y-43149463D01*
X127985409Y-44049046D01*
X127086012Y-44948629D01*
X113644823Y-44948630D01*
X100203633Y-44948630D01*
X99059953Y-43800338D01*
X98868070Y-43607429D01*
X98677839Y-43415699D01*
X98492457Y-43228400D01*
X98315119Y-43048781D01*
X98149023Y-42880094D01*
X97997365Y-42725589D01*
X97863342Y-42588517D01*
X97750150Y-42472128D01*
X97660986Y-42379672D01*
X97606642Y-42322506D01*
X97506096Y-42217367D01*
X97406627Y-42116721D01*
X97314828Y-42026994D01*
X97237293Y-41954608D01*
X97180615Y-41905989D01*
X97173668Y-41900654D01*
X97120243Y-41856974D01*
X97043892Y-41789530D01*
X96951477Y-41704640D01*
X96849860Y-41608618D01*
X96745902Y-41507782D01*
X96732610Y-41494685D01*
X96414895Y-41181029D01*
X89694694Y-41175704D01*
X82974492Y-41170380D01*
X82974492Y-40196713D01*
X85119581Y-40191320D01*
X87264669Y-40185927D01*
X87197281Y-40064320D01*
X87181665Y-40040787D01*
X87154587Y-40006535D01*
X87114761Y-39960243D01*
X87060900Y-39900591D01*
X86991716Y-39826259D01*
X86905923Y-39735926D01*
X86802234Y-39628272D01*
X86679362Y-39501976D01*
X86536019Y-39355719D01*
X86370920Y-39188180D01*
X86182777Y-38998039D01*
X85970303Y-38783976D01*
X85732211Y-38544669D01*
X85467214Y-38278799D01*
X85174026Y-37985046D01*
X85031066Y-37841921D01*
X82932239Y-35741130D01*
X76899732Y-35741130D01*
X74618987Y-38021801D01*
X72338242Y-40302473D01*
X72338242Y-52071370D01*
X73407159Y-53140129D01*
X74476076Y-54208889D01*
X74476076Y-61881906D01*
X74476075Y-69554924D01*
X78280806Y-73359610D01*
X82085536Y-77164296D01*
X94466859Y-77164296D01*
X95383511Y-78079755D01*
X95586977Y-78283410D01*
X95761496Y-78459117D01*
X95908513Y-78608393D01*
X96029471Y-78732759D01*
X96125817Y-78833733D01*
X96198995Y-78912836D01*
X96250449Y-78971587D01*
X96281625Y-79011505D01*
X96293967Y-79034109D01*
X96294244Y-79037546D01*
X96293462Y-79041262D01*
X96291336Y-79044755D01*
X96286587Y-79048032D01*
X96277938Y-79051103D01*
X96264112Y-79053973D01*
X96243830Y-79056652D01*
X96215815Y-79059147D01*
X96178790Y-79061466D01*
X96131477Y-79063616D01*
X96072597Y-79065607D01*
X96000874Y-79067445D01*
X95915030Y-79069138D01*
X95813787Y-79070694D01*
X95695867Y-79072121D01*
X95559994Y-79073427D01*
X95404888Y-79074620D01*
X95229273Y-79075707D01*
X95031870Y-79076697D01*
X94811403Y-79077597D01*
X94566593Y-79078415D01*
X94296164Y-79079159D01*
X93998836Y-79079837D01*
X93673333Y-79080456D01*
X93318376Y-79081025D01*
X92932689Y-79081550D01*
X92514994Y-79082042D01*
X92064012Y-79082506D01*
X91578466Y-79082950D01*
X91057080Y-79083384D01*
X90498574Y-79083814D01*
X89901671Y-79084248D01*
X89265094Y-79084694D01*
X88587564Y-79085161D01*
X88530796Y-79085200D01*
X80773267Y-79090520D01*
X77471187Y-75788491D01*
X74169108Y-72486463D01*
X67565210Y-79090463D01*
X25401127Y-79090463D01*
X15018909Y-89472745D01*
X15018909Y-115973391D01*
X44768659Y-145723115D01*
X72888576Y-145728414D01*
X101008492Y-145733713D01*
X101008492Y-148591213D01*
X96092574Y-148596549D01*
X91176657Y-148601886D01*
X91171324Y-154036383D01*
X91165992Y-159470880D01*
X89738584Y-159476321D01*
X89446390Y-159477284D01*
X89193987Y-159477761D01*
X88978834Y-159477714D01*
X88798393Y-159477108D01*
X88650123Y-159475904D01*
X88531483Y-159474065D01*
X88439934Y-159471555D01*
X88372936Y-159468335D01*
X88327949Y-159464369D01*
X88302433Y-159459619D01*
X88294283Y-159455155D01*
X88292801Y-159431927D01*
X88291351Y-159368145D01*
X88289939Y-159265586D01*
X88288571Y-159126028D01*
X88287251Y-158951251D01*
X88285986Y-158743032D01*
X88284782Y-158503150D01*
X88283643Y-158233384D01*
X88282576Y-157935510D01*
X88281586Y-157611309D01*
X88280678Y-157262558D01*
X88279859Y-156891035D01*
X88279133Y-156498519D01*
X88278507Y-156086789D01*
X88277986Y-155657622D01*
X88277576Y-155212797D01*
X88277282Y-154754092D01*
X88277110Y-154283286D01*
X88277066Y-153983421D01*
X88276742Y-148538296D01*
X56891740Y-148538296D01*
X56877977Y-150723755D01*
X56876378Y-150982282D01*
X56874592Y-151279356D01*
X56872641Y-151611192D01*
X56870545Y-151974004D01*
X56868324Y-152364006D01*
X56866001Y-152777413D01*
X56863594Y-153210439D01*
X56861126Y-153659299D01*
X56858617Y-154120207D01*
X56856088Y-154589377D01*
X56853559Y-155063024D01*
X56851052Y-155537362D01*
X56848587Y-156008606D01*
X56846185Y-156472970D01*
X56843867Y-156926667D01*
X56843524Y-156994380D01*
X56839923Y-157694223D01*
X56836268Y-158383070D01*
X56832569Y-159059430D01*
X56828836Y-159721812D01*
X56825081Y-160368725D01*
X56821314Y-160998679D01*
X56817546Y-161610183D01*
X56813786Y-162201748D01*
X56810047Y-162771881D01*
X56806339Y-163319092D01*
X56802672Y-163841892D01*
X56799056Y-164338788D01*
X56795504Y-164808292D01*
X56792024Y-165248911D01*
X56788628Y-165659155D01*
X56785327Y-166037535D01*
X56782131Y-166382559D01*
X56779051Y-166692736D01*
X56776098Y-166966576D01*
X56773281Y-167202589D01*
X56770612Y-167399283D01*
X56768102Y-167555168D01*
X56768047Y-167558193D01*
X56754238Y-168321841D01*
X56880629Y-168468360D01*
X56963236Y-168561070D01*
X57074988Y-168681614D01*
X57214442Y-168828557D01*
X57380159Y-169000463D01*
X57570697Y-169195897D01*
X57784616Y-169413423D01*
X58020475Y-169651605D01*
X58276834Y-169909010D01*
X58552252Y-170184199D01*
X58845289Y-170475740D01*
X59154502Y-170782195D01*
X59478453Y-171102129D01*
X59815700Y-171434108D01*
X60164803Y-171776695D01*
X60524320Y-172128455D01*
X60892812Y-172487952D01*
X61268837Y-172853751D01*
X61650956Y-173224417D01*
X61754909Y-173325071D01*
X61905609Y-173470934D01*
X62054314Y-173614870D01*
X62196686Y-173752680D01*
X62328389Y-173880168D01*
X62445086Y-173993135D01*
X62542441Y-174087383D01*
X62616118Y-174158715D01*
X62645168Y-174186845D01*
X62847510Y-174382796D01*
X82170214Y-174382796D01*
X88276742Y-168276158D01*
X88277066Y-164847185D01*
X88277205Y-164469195D01*
X88277540Y-164102548D01*
X88278061Y-163749495D01*
X88278756Y-163412286D01*
X88279614Y-163093169D01*
X88280624Y-162794395D01*
X88281776Y-162518212D01*
X88283056Y-162266871D01*
X88284455Y-162042621D01*
X88285961Y-161847711D01*
X88287564Y-161684392D01*
X88289251Y-161554912D01*
X88291011Y-161461522D01*
X88292834Y-161406470D01*
X88294283Y-161391604D01*
X88305843Y-161386190D01*
X88334809Y-161381590D01*
X88383721Y-161377766D01*
X88455119Y-161374682D01*
X88551543Y-161372300D01*
X88675534Y-161370583D01*
X88829630Y-161369493D01*
X89016372Y-161368994D01*
X89238301Y-161369049D01*
X89497956Y-161369619D01*
X89738584Y-161370438D01*
X91165992Y-161375880D01*
X91171329Y-165429296D01*
X91176667Y-169482713D01*
X88266204Y-172393101D01*
X85355742Y-175303488D01*
X85355742Y-196988796D01*
X126281466Y-196988796D01*
X132708747Y-190561541D01*
X139136028Y-184134287D01*
X164268048Y-184158831D01*
X189400069Y-184183375D01*
X189423486Y-184159958D01*
G37*
%TD*%
D11*
%TO.C,C42*%
X83500000Y-90265000D03*
X83500000Y-91235000D03*
%TD*%
D12*
%TO.C,LED66*%
X119075000Y-83775000D03*
X119925000Y-83775000D03*
X119075000Y-84625000D03*
X119925000Y-84625000D03*
%TD*%
D13*
%TO.C,LED122*%
X72575000Y-160575000D03*
X72575000Y-161425000D03*
X71725000Y-160575000D03*
X71725000Y-161425000D03*
%TD*%
D14*
%TO.C,LED20*%
X99752082Y-46547918D03*
X100353123Y-47148959D03*
X99151041Y-47148959D03*
X99752082Y-47750000D03*
%TD*%
D15*
%TO.C,C66*%
X91842947Y-49842947D03*
X91157053Y-49157053D03*
%TD*%
D12*
%TO.C,LED67*%
X111225000Y-91275000D03*
X112075000Y-91275000D03*
X111225000Y-92125000D03*
X112075000Y-92125000D03*
%TD*%
D16*
%TO.C,LED28*%
X159326041Y-110575000D03*
X158725000Y-111176041D03*
X158725000Y-109973959D03*
X158123959Y-110575000D03*
%TD*%
D15*
%TO.C,C28*%
X98268988Y-50416906D03*
X97583094Y-49731012D03*
%TD*%
D13*
%TO.C,LED42*%
X252050000Y-93200000D03*
X252050000Y-94050000D03*
X251200000Y-93200000D03*
X251200000Y-94050000D03*
%TD*%
D17*
%TO.C,C26*%
X88657053Y-46657053D03*
X89342947Y-47342947D03*
%TD*%
D14*
%TO.C,LED11*%
X174975000Y-123622918D03*
X175576041Y-124223959D03*
X174373959Y-124223959D03*
X174975000Y-124825000D03*
%TD*%
D11*
%TO.C,R1*%
X278037500Y-170515000D03*
X278037500Y-171485000D03*
%TD*%
D14*
%TO.C,LED18*%
X94425000Y-58547918D03*
X95026041Y-59148959D03*
X93823959Y-59148959D03*
X94425000Y-59750000D03*
%TD*%
D18*
%TO.C,H2*%
X302000000Y-22000000D03*
%TD*%
D19*
%TO.C,C80*%
X103985000Y-116000000D03*
X103015000Y-116000000D03*
%TD*%
D20*
%TO.C,C87*%
X99750000Y-163500000D03*
X100720000Y-163500000D03*
%TD*%
D13*
%TO.C,LED72*%
X72800000Y-92975000D03*
X72800000Y-93825000D03*
X71950000Y-92975000D03*
X71950000Y-93825000D03*
%TD*%
D20*
%TO.C,C84*%
X99765000Y-141000000D03*
X100735000Y-141000000D03*
%TD*%
D12*
%TO.C,LED62*%
X168200000Y-91175000D03*
X169050000Y-91175000D03*
X168200000Y-92025000D03*
X169050000Y-92025000D03*
%TD*%
%TO.C,LED9*%
X191375000Y-135200000D03*
X192225000Y-135200000D03*
X191375000Y-136050000D03*
X192225000Y-136050000D03*
%TD*%
D13*
%TO.C,LED34*%
X216975000Y-136950000D03*
X216975000Y-137800000D03*
X216125000Y-136950000D03*
X216125000Y-137800000D03*
%TD*%
D21*
%TO.C,C93*%
X83750000Y-162235000D03*
X83750000Y-161265000D03*
%TD*%
D20*
%TO.C,C85*%
X99765000Y-153250000D03*
X100735000Y-153250000D03*
%TD*%
D14*
%TO.C,LED17*%
X102750000Y-66597918D03*
X103351041Y-67198959D03*
X102148959Y-67198959D03*
X102750000Y-67800000D03*
%TD*%
D21*
%TO.C,C99*%
X205750000Y-94735000D03*
X205750000Y-93765000D03*
%TD*%
D20*
%TO.C,C78*%
X99750000Y-116000000D03*
X100720000Y-116000000D03*
%TD*%
D21*
%TO.C,C107*%
X248250000Y-94985000D03*
X248250000Y-94015000D03*
%TD*%
D22*
%TO.C,LED47*%
X259425000Y-143050000D03*
X258575000Y-143050000D03*
X259425000Y-142200000D03*
X258575000Y-142200000D03*
%TD*%
D16*
%TO.C,LED31*%
X182327082Y-133551041D03*
X181726041Y-134152082D03*
X181726041Y-132950000D03*
X181125000Y-133551041D03*
%TD*%
D12*
%TO.C,LED99*%
X102400000Y-142050000D03*
X103250000Y-142050000D03*
X102400000Y-142900000D03*
X103250000Y-142900000D03*
%TD*%
D22*
%TO.C,LED112*%
X100575000Y-93675000D03*
X99725000Y-93675000D03*
X100575000Y-92825000D03*
X99725000Y-92825000D03*
%TD*%
D20*
%TO.C,C47*%
X257515000Y-133250000D03*
X258485000Y-133250000D03*
%TD*%
D21*
%TO.C,C22*%
X121000000Y-87235000D03*
X121000000Y-86265000D03*
%TD*%
D15*
%TO.C,C34*%
X86842947Y-62592947D03*
X86157053Y-61907053D03*
%TD*%
D14*
%TO.C,LED12*%
X167525000Y-116272918D03*
X168126041Y-116873959D03*
X166923959Y-116873959D03*
X167525000Y-117475000D03*
%TD*%
D18*
%TO.C,H3*%
X302000000Y-190000000D03*
%TD*%
D19*
%TO.C,C119*%
X261985000Y-71750000D03*
X261015000Y-71750000D03*
%TD*%
D23*
%TO.C,C15*%
X158907053Y-112842947D03*
X159592947Y-112157053D03*
%TD*%
D24*
%TO.C,LED114*%
X100650000Y-117925000D03*
X100650000Y-117075000D03*
X101500000Y-117925000D03*
X101500000Y-117075000D03*
%TD*%
%TO.C,LED53*%
X272925000Y-61800000D03*
X272925000Y-60950000D03*
X273775000Y-61800000D03*
X273775000Y-60950000D03*
%TD*%
D12*
%TO.C,LED97*%
X102325000Y-164675000D03*
X103175000Y-164675000D03*
X102325000Y-165525000D03*
X103175000Y-165525000D03*
%TD*%
D11*
%TO.C,C60*%
X218250000Y-134265000D03*
X218250000Y-135235000D03*
%TD*%
%TO.C,C108*%
X248250000Y-90530000D03*
X248250000Y-91500000D03*
%TD*%
D25*
%TO.C,J1*%
X308750000Y-148950000D03*
D26*
X308750000Y-151490000D03*
X308750000Y-154030000D03*
X308750000Y-156570000D03*
%TD*%
D25*
%TO.C,J3_PROGRAMING_PIN1*%
X308750000Y-164650000D03*
D26*
X308750000Y-167190000D03*
X308750000Y-169730000D03*
X308750000Y-172270000D03*
X308750000Y-174810000D03*
X308750000Y-177350000D03*
%TD*%
D12*
%TO.C,LED120*%
X61675000Y-158900000D03*
X62525000Y-158900000D03*
X61675000Y-159750000D03*
X62525000Y-159750000D03*
%TD*%
D24*
%TO.C,LED52*%
X284425000Y-61725000D03*
X284425000Y-60875000D03*
X285275000Y-61725000D03*
X285275000Y-60875000D03*
%TD*%
D27*
%TO.C,Q2*%
X301000000Y-177250000D03*
X302000000Y-177250000D03*
X301500000Y-175950000D03*
%TD*%
D11*
%TO.C,C65*%
X113250000Y-90265000D03*
X113250000Y-91235000D03*
%TD*%
D12*
%TO.C,LED58*%
X216125000Y-91250000D03*
X216975000Y-91250000D03*
X216125000Y-92100000D03*
X216975000Y-92100000D03*
%TD*%
D13*
%TO.C,LED78*%
X131625000Y-85425000D03*
X131625000Y-86275000D03*
X130775000Y-85425000D03*
X130775000Y-86275000D03*
%TD*%
D14*
%TO.C,LED36*%
X239550000Y-120072918D03*
X240151041Y-120673959D03*
X238948959Y-120673959D03*
X239550000Y-121275000D03*
%TD*%
D13*
%TO.C,LED85*%
X216950000Y-93000000D03*
X216950000Y-93850000D03*
X216100000Y-93000000D03*
X216100000Y-93850000D03*
%TD*%
%TO.C,LED77*%
X119925000Y-85500000D03*
X119925000Y-86350000D03*
X119075000Y-85500000D03*
X119075000Y-86350000D03*
%TD*%
%TO.C,LED75*%
X102400000Y-92825000D03*
X102400000Y-93675000D03*
X101550000Y-92825000D03*
X101550000Y-93675000D03*
%TD*%
D19*
%TO.C,C83*%
X103985000Y-141000000D03*
X103015000Y-141000000D03*
%TD*%
D28*
%TO.C,LED108*%
X97226041Y-47750000D03*
X96625000Y-47148959D03*
X97827082Y-47148959D03*
X97226041Y-46547918D03*
%TD*%
D22*
%TO.C,LED54*%
X259425000Y-70675000D03*
X258575000Y-70675000D03*
X259425000Y-69825000D03*
X258575000Y-69825000D03*
%TD*%
%TO.C,LED90*%
X273775000Y-63550000D03*
X272925000Y-63550000D03*
X273775000Y-62700000D03*
X272925000Y-62700000D03*
%TD*%
D12*
%TO.C,LED65*%
X130775000Y-83675000D03*
X131625000Y-83675000D03*
X130775000Y-84525000D03*
X131625000Y-84525000D03*
%TD*%
D17*
%TO.C,C133*%
X253407053Y-102157053D03*
X254092947Y-102842947D03*
%TD*%
D20*
%TO.C,C134*%
X257515000Y-144250000D03*
X258485000Y-144250000D03*
%TD*%
D11*
%TO.C,C96*%
X73750000Y-158015000D03*
X73750000Y-158985000D03*
%TD*%
D20*
%TO.C,C90*%
X99765000Y-173500000D03*
X100735000Y-173500000D03*
%TD*%
D17*
%TO.C,C39*%
X83657053Y-59407053D03*
X84342947Y-60092947D03*
%TD*%
D28*
%TO.C,LED22*%
X90773959Y-47101041D03*
X90172918Y-46500000D03*
X91375000Y-46500000D03*
X90773959Y-45898959D03*
%TD*%
D23*
%TO.C,C19*%
X138232053Y-92192947D03*
X138917947Y-91507053D03*
%TD*%
D29*
%TO.C,C13*%
X185092947Y-132407053D03*
X184407053Y-133092947D03*
%TD*%
D21*
%TO.C,C10*%
X218250000Y-138720000D03*
X218250000Y-137750000D03*
%TD*%
D16*
%TO.C,LED27*%
X151826041Y-103026041D03*
X151225000Y-103627082D03*
X151225000Y-102425000D03*
X150623959Y-103026041D03*
%TD*%
D17*
%TO.C,C7*%
X238407053Y-117157053D03*
X239092947Y-117842947D03*
%TD*%
D24*
%TO.C,LED55*%
X249375000Y-92250000D03*
X249375000Y-91400000D03*
X250225000Y-92250000D03*
X250225000Y-91400000D03*
%TD*%
D11*
%TO.C,C118*%
X205750000Y-90390000D03*
X205750000Y-91360000D03*
%TD*%
D24*
%TO.C,LED124*%
X100575000Y-165500000D03*
X100575000Y-164650000D03*
X101425000Y-165500000D03*
X101425000Y-164650000D03*
%TD*%
D29*
%TO.C,C25*%
X96592947Y-59157053D03*
X95907053Y-59842947D03*
%TD*%
D21*
%TO.C,C115*%
X230750000Y-94735000D03*
X230750000Y-93765000D03*
%TD*%
D20*
%TO.C,C55*%
X249765000Y-174750000D03*
X250735000Y-174750000D03*
%TD*%
D12*
%TO.C,LED8*%
X203700000Y-135250000D03*
X204550000Y-135250000D03*
X203700000Y-136100000D03*
X204550000Y-136100000D03*
%TD*%
D11*
%TO.C,C112*%
X238750000Y-90515000D03*
X238750000Y-91485000D03*
%TD*%
D21*
%TO.C,C95*%
X73750000Y-162235000D03*
X73750000Y-161265000D03*
%TD*%
%TO.C,C64*%
X113250000Y-94735000D03*
X113250000Y-93765000D03*
%TD*%
%TO.C,C117*%
X218250000Y-94735000D03*
X218250000Y-93765000D03*
%TD*%
D11*
%TO.C,C73*%
X170250000Y-90265000D03*
X170250000Y-91235000D03*
%TD*%
D21*
%TO.C,C110*%
X243500000Y-94750000D03*
X243500000Y-93780000D03*
%TD*%
%TO.C,C113*%
X238750000Y-94800000D03*
X238750000Y-93830000D03*
%TD*%
%TO.C,R3*%
X298500000Y-179335000D03*
X298500000Y-178365000D03*
%TD*%
D16*
%TO.C,LED45*%
X257601041Y-120522918D03*
X257000000Y-121123959D03*
X257000000Y-119921877D03*
X256398959Y-120522918D03*
%TD*%
D29*
%TO.C,C21*%
X145167947Y-92257053D03*
X144482053Y-92942947D03*
%TD*%
D24*
%TO.C,LED56*%
X239825000Y-92090000D03*
X239825000Y-91240000D03*
X240675000Y-92090000D03*
X240675000Y-91240000D03*
%TD*%
D16*
%TO.C,LED127*%
X117351041Y-32750000D03*
X116750000Y-33351041D03*
X116750000Y-32148959D03*
X116148959Y-32750000D03*
%TD*%
D13*
%TO.C,LED74*%
X92475000Y-92950000D03*
X92475000Y-93800000D03*
X91625000Y-92950000D03*
X91625000Y-93800000D03*
%TD*%
%TO.C,LED94*%
X299675000Y-43175000D03*
X299675000Y-44025000D03*
X298825000Y-43175000D03*
X298825000Y-44025000D03*
%TD*%
D20*
%TO.C,C79*%
X249765000Y-171000000D03*
X250735000Y-171000000D03*
%TD*%
D23*
%TO.C,C69*%
X111657053Y-80592947D03*
X112342947Y-79907053D03*
%TD*%
D11*
%TO.C,C61*%
X98500000Y-90015000D03*
X98500000Y-90985000D03*
%TD*%
D20*
%TO.C,C136*%
X257515000Y-155250000D03*
X258485000Y-155250000D03*
%TD*%
D11*
%TO.C,C111*%
X243500000Y-90515000D03*
X243500000Y-91485000D03*
%TD*%
D22*
%TO.C,LED48*%
X259450000Y-154025000D03*
X258600000Y-154025000D03*
X259450000Y-153175000D03*
X258600000Y-153175000D03*
%TD*%
D12*
%TO.C,LED61*%
X181525000Y-91225000D03*
X182375000Y-91225000D03*
X181525000Y-92075000D03*
X182375000Y-92075000D03*
%TD*%
D29*
%TO.C,C24*%
X104842947Y-67407053D03*
X104157053Y-68092947D03*
%TD*%
D20*
%TO.C,C103*%
X249765000Y-172250000D03*
X250735000Y-172250000D03*
%TD*%
D24*
%TO.C,LED116*%
X100625000Y-142875000D03*
X100625000Y-142025000D03*
X101475000Y-142875000D03*
X101475000Y-142025000D03*
%TD*%
D18*
%TO.C,H4*%
X22000000Y-190000000D03*
%TD*%
D11*
%TO.C,C114*%
X230750000Y-90515000D03*
X230750000Y-91485000D03*
%TD*%
D13*
%TO.C,LED76*%
X112075000Y-93025000D03*
X112075000Y-93875000D03*
X111225000Y-93025000D03*
X111225000Y-93875000D03*
%TD*%
D20*
%TO.C,C91*%
X99765000Y-183750000D03*
X100735000Y-183750000D03*
%TD*%
D19*
%TO.C,R5*%
X299235000Y-174600000D03*
X298265000Y-174600000D03*
%TD*%
D22*
%TO.C,LED46*%
X259450000Y-131975000D03*
X258600000Y-131975000D03*
X259450000Y-131125000D03*
X258600000Y-131125000D03*
%TD*%
D29*
%TO.C,C56*%
X177092947Y-124407053D03*
X176407053Y-125092947D03*
%TD*%
D17*
%TO.C,C33*%
X245907053Y-109657053D03*
X246592947Y-110342947D03*
%TD*%
D13*
%TO.C,LED83*%
X192275000Y-92900000D03*
X192275000Y-93750000D03*
X191425000Y-92900000D03*
X191425000Y-93750000D03*
%TD*%
D12*
%TO.C,LED63*%
X154975000Y-91150000D03*
X155825000Y-91150000D03*
X154975000Y-92000000D03*
X155825000Y-92000000D03*
%TD*%
D15*
%TO.C,C127*%
X298342947Y-64092947D03*
X297657053Y-63407053D03*
%TD*%
D13*
%TO.C,LED41*%
X242450000Y-93015000D03*
X242450000Y-93865000D03*
X241600000Y-93015000D03*
X241600000Y-93865000D03*
%TD*%
D18*
%TO.C,H1*%
X22000000Y-22000000D03*
%TD*%
D13*
%TO.C,LED73*%
X82475000Y-93000000D03*
X82475000Y-93850000D03*
X81625000Y-93000000D03*
X81625000Y-93850000D03*
%TD*%
D14*
%TO.C,LED14*%
X152476041Y-101175000D03*
X153077082Y-101776041D03*
X151875000Y-101776041D03*
X152476041Y-102377082D03*
%TD*%
D21*
%TO.C,C74*%
X170250000Y-94485000D03*
X170250000Y-93515000D03*
%TD*%
D20*
%TO.C,C120*%
X249765000Y-173500000D03*
X250735000Y-173500000D03*
%TD*%
D30*
%TO.C,LED5*%
X237723959Y-119448959D03*
X238325000Y-118847918D03*
X238325000Y-120050000D03*
X238926041Y-119448959D03*
%TD*%
D11*
%TO.C,C94*%
X83750000Y-158015000D03*
X83750000Y-158985000D03*
%TD*%
D17*
%TO.C,C5*%
X116657053Y-30657053D03*
X117342947Y-31342947D03*
%TD*%
D14*
%TO.C,LED37*%
X246925000Y-112547918D03*
X247526041Y-113148959D03*
X246323959Y-113148959D03*
X246925000Y-113750000D03*
%TD*%
D28*
%TO.C,LED51*%
X297125000Y-61352082D03*
X296523959Y-60751041D03*
X297726041Y-60751041D03*
X297125000Y-60150000D03*
%TD*%
D19*
%TO.C,C86*%
X103985000Y-153250000D03*
X103015000Y-153250000D03*
%TD*%
D17*
%TO.C,C128*%
X294907053Y-60907053D03*
X295592947Y-61592947D03*
%TD*%
D19*
%TO.C,C130*%
X300485000Y-54000000D03*
X299515000Y-54000000D03*
%TD*%
D21*
%TO.C,C58*%
X193500000Y-138720000D03*
X193500000Y-137750000D03*
%TD*%
D29*
%TO.C,C20*%
X141417947Y-88757053D03*
X140732053Y-89442947D03*
%TD*%
D16*
%TO.C,LED19*%
X92652082Y-47750000D03*
X92051041Y-48351041D03*
X92051041Y-47148959D03*
X91450000Y-47750000D03*
%TD*%
D22*
%TO.C,LED111*%
X101550000Y-85450000D03*
X100700000Y-85450000D03*
X101550000Y-84600000D03*
X100700000Y-84600000D03*
%TD*%
%TO.C,LED91*%
X285250000Y-63500000D03*
X284400000Y-63500000D03*
X285250000Y-62650000D03*
X284400000Y-62650000D03*
%TD*%
D14*
%TO.C,LED15*%
X142851041Y-91647918D03*
X143452082Y-92248959D03*
X142250000Y-92248959D03*
X142851041Y-92850000D03*
%TD*%
D21*
%TO.C,C97*%
X63500000Y-162235000D03*
X63500000Y-161265000D03*
%TD*%
D12*
%TO.C,LED98*%
X102325000Y-154325000D03*
X103175000Y-154325000D03*
X102325000Y-155175000D03*
X103175000Y-155175000D03*
%TD*%
D17*
%TO.C,C31*%
X98407053Y-43831012D03*
X99092947Y-44516906D03*
%TD*%
D30*
%TO.C,LED44*%
X245072918Y-111925000D03*
X245673959Y-111323959D03*
X245673959Y-112526041D03*
X246275000Y-111925000D03*
%TD*%
D11*
%TO.C,C71*%
X132750000Y-83015000D03*
X132750000Y-83985000D03*
%TD*%
%TO.C,C2*%
X285500000Y-190025000D03*
X285500000Y-190995000D03*
%TD*%
D19*
%TO.C,C77*%
X103985000Y-103250000D03*
X103015000Y-103250000D03*
%TD*%
D13*
%TO.C,LED84*%
X204550000Y-93000000D03*
X204550000Y-93850000D03*
X203700000Y-93000000D03*
X203700000Y-93850000D03*
%TD*%
D16*
%TO.C,LED24*%
X102100000Y-68450000D03*
X101498959Y-69051041D03*
X101498959Y-67848959D03*
X100897918Y-68450000D03*
%TD*%
D11*
%TO.C,C70*%
X121000000Y-83015000D03*
X121000000Y-83985000D03*
%TD*%
D23*
%TO.C,C16*%
X151407053Y-105342947D03*
X152092947Y-104657053D03*
%TD*%
D31*
%TO.C,D1*%
X281325000Y-171000000D03*
X279750000Y-171000000D03*
%TD*%
D13*
%TO.C,LED33*%
X204550000Y-137000000D03*
X204550000Y-137850000D03*
X203700000Y-137000000D03*
X203700000Y-137850000D03*
%TD*%
D19*
%TO.C,C35*%
X104235000Y-86500000D03*
X103265000Y-86500000D03*
%TD*%
D12*
%TO.C,LED7*%
X216125000Y-135200000D03*
X216975000Y-135200000D03*
X216125000Y-136050000D03*
X216975000Y-136050000D03*
%TD*%
D14*
%TO.C,LED16*%
X112723959Y-76648959D03*
X113325000Y-77250000D03*
X112122918Y-77250000D03*
X112723959Y-77851041D03*
%TD*%
D19*
%TO.C,C138*%
X262235000Y-155250000D03*
X261265000Y-155250000D03*
%TD*%
D11*
%TO.C,C50*%
X157000000Y-90315000D03*
X157000000Y-91285000D03*
%TD*%
D12*
%TO.C,LED60*%
X191425000Y-91150000D03*
X192275000Y-91150000D03*
X191425000Y-92000000D03*
X192275000Y-92000000D03*
%TD*%
D11*
%TO.C,C109*%
X253250000Y-90515000D03*
X253250000Y-91485000D03*
%TD*%
D13*
%TO.C,LED2*%
X261175000Y-142200000D03*
X261175000Y-143050000D03*
X260325000Y-142200000D03*
X260325000Y-143050000D03*
%TD*%
D21*
%TO.C,C124*%
X271750000Y-64485000D03*
X271750000Y-63515000D03*
%TD*%
D13*
%TO.C,LED82*%
X182375000Y-92975000D03*
X182375000Y-93825000D03*
X181525000Y-92975000D03*
X181525000Y-93825000D03*
%TD*%
D21*
%TO.C,C104*%
X183750000Y-94485000D03*
X183750000Y-93515000D03*
%TD*%
D32*
%TO.C,U_POWER1*%
X237230000Y-181740000D03*
D33*
X238730000Y-181652500D03*
D32*
X240230000Y-181740000D03*
%TD*%
D12*
%TO.C,LED57*%
X228500000Y-91250000D03*
X229350000Y-91250000D03*
X228500000Y-92100000D03*
X229350000Y-92100000D03*
%TD*%
D16*
%TO.C,LED30*%
X174326041Y-125475000D03*
X173725000Y-126076041D03*
X173725000Y-124873959D03*
X173123959Y-125475000D03*
%TD*%
D30*
%TO.C,LED6*%
X230148959Y-126823959D03*
X230750000Y-126222918D03*
X230750000Y-127425000D03*
X231351041Y-126823959D03*
%TD*%
D23*
%TO.C,C6*%
X257157053Y-122592947D03*
X257842947Y-121907053D03*
%TD*%
D11*
%TO.C,C63*%
X103500000Y-90000000D03*
X103500000Y-90970000D03*
%TD*%
D13*
%TO.C,LED3*%
X261200000Y-131150000D03*
X261200000Y-132000000D03*
X260350000Y-131150000D03*
X260350000Y-132000000D03*
%TD*%
D24*
%TO.C,LED126*%
X100775000Y-185675000D03*
X100775000Y-184825000D03*
X101625000Y-185675000D03*
X101625000Y-184825000D03*
%TD*%
D21*
%TO.C,C51*%
X157000000Y-94535000D03*
X157000000Y-93565000D03*
%TD*%
%TO.C,C75*%
X98500000Y-94485000D03*
X98500000Y-93515000D03*
%TD*%
D19*
%TO.C,C88*%
X103985000Y-163500000D03*
X103015000Y-163500000D03*
%TD*%
D16*
%TO.C,LED110*%
X91450000Y-73400000D03*
X90848959Y-74001041D03*
X90848959Y-72798959D03*
X90247918Y-73400000D03*
%TD*%
D22*
%TO.C,LED88*%
X250225000Y-94050000D03*
X249375000Y-94050000D03*
X250225000Y-93200000D03*
X249375000Y-93200000D03*
%TD*%
D13*
%TO.C,LED123*%
X82525000Y-160650000D03*
X82525000Y-161500000D03*
X81675000Y-160650000D03*
X81675000Y-161500000D03*
%TD*%
%TO.C,LED32*%
X192250000Y-136950000D03*
X192250000Y-137800000D03*
X191400000Y-136950000D03*
X191400000Y-137800000D03*
%TD*%
D20*
%TO.C,C131*%
X296015000Y-45000000D03*
X296985000Y-45000000D03*
%TD*%
D21*
%TO.C,C45*%
X93500000Y-94735000D03*
X93500000Y-93765000D03*
%TD*%
D29*
%TO.C,C52*%
X162342947Y-109407053D03*
X161657053Y-110092947D03*
%TD*%
D30*
%TO.C,LED21*%
X97898959Y-45898959D03*
X98500000Y-45297918D03*
X98500000Y-46500000D03*
X99101041Y-45898959D03*
%TD*%
D12*
%TO.C,LED70*%
X81625000Y-91225000D03*
X82475000Y-91225000D03*
X81625000Y-92075000D03*
X82475000Y-92075000D03*
%TD*%
D24*
%TO.C,LED113*%
X100625000Y-105300000D03*
X100625000Y-104450000D03*
X101475000Y-105300000D03*
X101475000Y-104450000D03*
%TD*%
D15*
%TO.C,C122*%
X256592947Y-105342947D03*
X255907053Y-104657053D03*
%TD*%
D34*
%TO.C,C3*%
X246500000Y-184250000D03*
X246500000Y-185825000D03*
%TD*%
D12*
%TO.C,LED40*%
X241600000Y-91240000D03*
X242450000Y-91240000D03*
X241600000Y-92090000D03*
X242450000Y-92090000D03*
%TD*%
D11*
%TO.C,C12*%
X193500000Y-134265000D03*
X193500000Y-135235000D03*
%TD*%
%TO.C,C100*%
X193500000Y-90375000D03*
X193500000Y-91345000D03*
%TD*%
D12*
%TO.C,LED96*%
X102400000Y-174775000D03*
X103250000Y-174775000D03*
X102400000Y-175625000D03*
X103250000Y-175625000D03*
%TD*%
D11*
%TO.C,C125*%
X283250000Y-60015000D03*
X283250000Y-60985000D03*
%TD*%
D29*
%TO.C,C38*%
X94342947Y-72407053D03*
X93657053Y-73092947D03*
%TD*%
D16*
%TO.C,LED106*%
X87701041Y-60376041D03*
X87100000Y-60977082D03*
X87100000Y-59775000D03*
X86498959Y-60376041D03*
%TD*%
D13*
%TO.C,LED80*%
X155850000Y-92925000D03*
X155850000Y-93775000D03*
X155000000Y-92925000D03*
X155000000Y-93775000D03*
%TD*%
D35*
%TO.C,R2*%
X285450000Y-176000000D03*
X286470000Y-176000000D03*
%TD*%
D19*
%TO.C,C1*%
X239735000Y-189500000D03*
X238765000Y-189500000D03*
%TD*%
D21*
%TO.C,C62*%
X103500000Y-94485000D03*
X103500000Y-93515000D03*
%TD*%
D24*
%TO.C,LED117*%
X100575000Y-155175000D03*
X100575000Y-154325000D03*
X101425000Y-155175000D03*
X101425000Y-154325000D03*
%TD*%
D15*
%TO.C,C29*%
X101818988Y-47016906D03*
X101133094Y-46331012D03*
%TD*%
D20*
%TO.C,C76*%
X99765000Y-103250000D03*
X100735000Y-103250000D03*
%TD*%
D29*
%TO.C,C23*%
X114842947Y-77407053D03*
X114157053Y-78092947D03*
%TD*%
D21*
%TO.C,C59*%
X205750000Y-138735000D03*
X205750000Y-137765000D03*
%TD*%
D20*
%TO.C,C4*%
X301280000Y-174600000D03*
X302250000Y-174600000D03*
%TD*%
D11*
%TO.C,C116*%
X218250000Y-90515000D03*
X218250000Y-91485000D03*
%TD*%
D16*
%TO.C,LED26*%
X142202082Y-93500000D03*
X141601041Y-94101041D03*
X141601041Y-92898959D03*
X141000000Y-93500000D03*
%TD*%
D23*
%TO.C,C57*%
X181907053Y-135592947D03*
X182592947Y-134907053D03*
%TD*%
D11*
%TO.C,C102*%
X183750000Y-90265000D03*
X183750000Y-91235000D03*
%TD*%
D20*
%TO.C,C30*%
X249765000Y-177230000D03*
X250735000Y-177230000D03*
%TD*%
D11*
%TO.C,C44*%
X93500000Y-90265000D03*
X93500000Y-91235000D03*
%TD*%
D20*
%TO.C,C81*%
X99765000Y-131000000D03*
X100735000Y-131000000D03*
%TD*%
%TO.C,C129*%
X296015000Y-54000000D03*
X296985000Y-54000000D03*
%TD*%
D17*
%TO.C,C27*%
X95083094Y-47231012D03*
X95768988Y-47916906D03*
%TD*%
D21*
%TO.C,C72*%
X132750000Y-87220000D03*
X132750000Y-86250000D03*
%TD*%
D28*
%TO.C,LED79*%
X140350000Y-92900000D03*
X139748959Y-92298959D03*
X140951041Y-92298959D03*
X140350000Y-91697918D03*
%TD*%
D30*
%TO.C,LED64*%
X140998959Y-91047918D03*
X141600000Y-90446877D03*
X141600000Y-91648959D03*
X142201041Y-91047918D03*
%TD*%
D36*
%TO.C,U_CPU1*%
X283750000Y-191260000D03*
X283750000Y-189990000D03*
X283750000Y-188720000D03*
X283750000Y-187450000D03*
X283750000Y-186180000D03*
X283750000Y-184910000D03*
X283750000Y-183640000D03*
X283750000Y-182370000D03*
X283750000Y-181100000D03*
X283750000Y-179830000D03*
X283750000Y-178560000D03*
X283750000Y-177290000D03*
X283750000Y-176020000D03*
X283750000Y-174750000D03*
D37*
X280710000Y-173500000D03*
X279440000Y-173500000D03*
X278170000Y-173500000D03*
X276900000Y-173500000D03*
X275630000Y-173500000D03*
X274360000Y-173500000D03*
X273090000Y-173500000D03*
X271820000Y-173500000D03*
X270550000Y-173500000D03*
X269280000Y-173500000D03*
D36*
X266250000Y-174750000D03*
X266250000Y-176020000D03*
X266250000Y-177290000D03*
X266250000Y-178560000D03*
X266250000Y-179830000D03*
X266250000Y-181100000D03*
X266250000Y-182370000D03*
X266250000Y-183640000D03*
X266250000Y-184910000D03*
X266250000Y-186180000D03*
X266250000Y-187450000D03*
X266250000Y-188720000D03*
X266250000Y-189990000D03*
X266250000Y-191260000D03*
D38*
X277205000Y-184682500D03*
X277205000Y-183157500D03*
X276442500Y-185445000D03*
X276442500Y-183920000D03*
X276442500Y-182395000D03*
X275680000Y-184682500D03*
D39*
X275680000Y-183920000D03*
D38*
X275680000Y-183157500D03*
X274917500Y-185445000D03*
X274917500Y-183920000D03*
X274917500Y-182395000D03*
X274155000Y-184682500D03*
X274155000Y-183157500D03*
%TD*%
D16*
%TO.C,LED25*%
X112075000Y-78500000D03*
X111473959Y-79101041D03*
X111473959Y-77898959D03*
X110872918Y-78500000D03*
%TD*%
D23*
%TO.C,C18*%
X141732053Y-95692947D03*
X142417947Y-95007053D03*
%TD*%
D11*
%TO.C,C11*%
X205750000Y-134265000D03*
X205750000Y-135235000D03*
%TD*%
D15*
%TO.C,C9*%
X234092947Y-127842947D03*
X233407053Y-127157053D03*
%TD*%
D17*
%TO.C,C49*%
X230907053Y-124657053D03*
X231592947Y-125342947D03*
%TD*%
D23*
%TO.C,C14*%
X173907053Y-127592947D03*
X174592947Y-126907053D03*
%TD*%
D19*
%TO.C,C82*%
X103985000Y-131000000D03*
X103015000Y-131000000D03*
%TD*%
D13*
%TO.C,LED86*%
X229350000Y-93000000D03*
X229350000Y-93850000D03*
X228500000Y-93000000D03*
X228500000Y-93850000D03*
%TD*%
D12*
%TO.C,LED71*%
X71975000Y-91200000D03*
X72825000Y-91200000D03*
X71975000Y-92050000D03*
X72825000Y-92050000D03*
%TD*%
D16*
%TO.C,LED29*%
X166876041Y-118125000D03*
X166275000Y-118726041D03*
X166275000Y-117523959D03*
X165673959Y-118125000D03*
%TD*%
D14*
%TO.C,LED4*%
X258275000Y-118697918D03*
X258876041Y-119298959D03*
X257673959Y-119298959D03*
X258275000Y-119900000D03*
%TD*%
D12*
%TO.C,LED101*%
X102400000Y-117100000D03*
X103250000Y-117100000D03*
X102400000Y-117950000D03*
X103250000Y-117950000D03*
%TD*%
D28*
%TO.C,LED109*%
X85848959Y-59726041D03*
X85247918Y-59125000D03*
X86450000Y-59125000D03*
X85848959Y-58523959D03*
%TD*%
D23*
%TO.C,C37*%
X91157053Y-75592947D03*
X91842947Y-74907053D03*
%TD*%
D12*
%TO.C,LED59*%
X203700000Y-91250000D03*
X204550000Y-91250000D03*
X203700000Y-92100000D03*
X204550000Y-92100000D03*
%TD*%
%TO.C,LED39*%
X251200000Y-91400000D03*
X252050000Y-91400000D03*
X251200000Y-92250000D03*
X252050000Y-92250000D03*
%TD*%
D14*
%TO.C,LED35*%
X231977082Y-127447918D03*
X232578123Y-128048959D03*
X231376041Y-128048959D03*
X231977082Y-128650000D03*
%TD*%
D23*
%TO.C,C67*%
X93407053Y-62342947D03*
X94092947Y-61657053D03*
%TD*%
D20*
%TO.C,C121*%
X257765000Y-71750000D03*
X258735000Y-71750000D03*
%TD*%
%TO.C,C36*%
X99765000Y-86500000D03*
X100735000Y-86500000D03*
%TD*%
D23*
%TO.C,C53*%
X166407053Y-120342947D03*
X167092947Y-119657053D03*
%TD*%
D13*
%TO.C,LED81*%
X169025000Y-92925000D03*
X169025000Y-93775000D03*
X168175000Y-92925000D03*
X168175000Y-93775000D03*
%TD*%
D15*
%TO.C,C32*%
X249092947Y-112842947D03*
X248407053Y-112157053D03*
%TD*%
D12*
%TO.C,LED100*%
X102250000Y-132300000D03*
X103100000Y-132300000D03*
X102250000Y-133150000D03*
X103100000Y-133150000D03*
%TD*%
D21*
%TO.C,C101*%
X193500000Y-94360000D03*
X193500000Y-93390000D03*
%TD*%
D11*
%TO.C,C105*%
X271750000Y-60015000D03*
X271750000Y-60985000D03*
%TD*%
D21*
%TO.C,R4*%
X301000000Y-179320000D03*
X301000000Y-178350000D03*
%TD*%
D11*
%TO.C,C41*%
X74000000Y-90265000D03*
X74000000Y-91235000D03*
%TD*%
D27*
%TO.C,Q1*%
X298500000Y-177250000D03*
X299500000Y-177250000D03*
X299000000Y-175950000D03*
%TD*%
D12*
%TO.C,LED118*%
X81675000Y-158900000D03*
X82525000Y-158900000D03*
X81675000Y-159750000D03*
X82525000Y-159750000D03*
%TD*%
D30*
%TO.C,LED43*%
X252772918Y-104100000D03*
X253373959Y-103498959D03*
X253373959Y-104701041D03*
X253975000Y-104100000D03*
%TD*%
D13*
%TO.C,LED89*%
X261175000Y-69825000D03*
X261175000Y-70675000D03*
X260325000Y-69825000D03*
X260325000Y-70675000D03*
%TD*%
D12*
%TO.C,LED102*%
X102400000Y-104475000D03*
X103250000Y-104475000D03*
X102400000Y-105325000D03*
X103250000Y-105325000D03*
%TD*%
D22*
%TO.C,LED87*%
X240675000Y-93865000D03*
X239825000Y-93865000D03*
X240675000Y-93015000D03*
X239825000Y-93015000D03*
%TD*%
%TO.C,LED49*%
X297925000Y-44025000D03*
X297075000Y-44025000D03*
X297925000Y-43175000D03*
X297075000Y-43175000D03*
%TD*%
D29*
%TO.C,C54*%
X169842947Y-116907053D03*
X169157053Y-117592947D03*
%TD*%
D13*
%TO.C,LED121*%
X62500000Y-160750000D03*
X62500000Y-161600000D03*
X61650000Y-160750000D03*
X61650000Y-161600000D03*
%TD*%
D14*
%TO.C,LED38*%
X254625000Y-104750000D03*
X255226041Y-105351041D03*
X254023959Y-105351041D03*
X254625000Y-105952082D03*
%TD*%
D22*
%TO.C,LED50*%
X297925000Y-52800000D03*
X297075000Y-52800000D03*
X297925000Y-51950000D03*
X297075000Y-51950000D03*
%TD*%
D29*
%TO.C,C17*%
X154592947Y-101907053D03*
X153907053Y-102592947D03*
%TD*%
D12*
%TO.C,LED119*%
X71700000Y-158850000D03*
X72550000Y-158850000D03*
X71700000Y-159700000D03*
X72550000Y-159700000D03*
%TD*%
D19*
%TO.C,C46*%
X262235000Y-133250000D03*
X261265000Y-133250000D03*
%TD*%
D40*
%TO.C,U1*%
X300387500Y-152450000D03*
X300387500Y-151500000D03*
X300387500Y-150550000D03*
X298112500Y-150550000D03*
X298112500Y-152450000D03*
%TD*%
D20*
%TO.C,C123*%
X249765000Y-176000000D03*
X250735000Y-176000000D03*
%TD*%
D21*
%TO.C,C43*%
X83500000Y-94735000D03*
X83500000Y-93765000D03*
%TD*%
D12*
%TO.C,LED95*%
X102525000Y-184850000D03*
X103375000Y-184850000D03*
X102525000Y-185700000D03*
X103375000Y-185700000D03*
%TD*%
D21*
%TO.C,C126*%
X283250000Y-64485000D03*
X283250000Y-63515000D03*
%TD*%
%TO.C,C106*%
X253250000Y-94985000D03*
X253250000Y-94015000D03*
%TD*%
%TO.C,C40*%
X74000000Y-94735000D03*
X74000000Y-93765000D03*
%TD*%
D14*
%TO.C,LED13*%
X159950000Y-108747918D03*
X160551041Y-109348959D03*
X159348959Y-109348959D03*
X159950000Y-109950000D03*
%TD*%
%TO.C,LED10*%
X182976041Y-131698959D03*
X183577082Y-132300000D03*
X182375000Y-132300000D03*
X182976041Y-132901041D03*
%TD*%
D13*
%TO.C,LED1*%
X261225000Y-153150000D03*
X261225000Y-154000000D03*
X260375000Y-153150000D03*
X260375000Y-154000000D03*
%TD*%
D12*
%TO.C,LED69*%
X91625000Y-91175000D03*
X92475000Y-91175000D03*
X91625000Y-92025000D03*
X92475000Y-92025000D03*
%TD*%
D24*
%TO.C,LED125*%
X100650000Y-175625000D03*
X100650000Y-174775000D03*
X101500000Y-175625000D03*
X101500000Y-174775000D03*
%TD*%
D19*
%TO.C,C132*%
X300485000Y-45000000D03*
X299515000Y-45000000D03*
%TD*%
D12*
%TO.C,LED68*%
X101575000Y-91025000D03*
X102425000Y-91025000D03*
X101575000Y-91875000D03*
X102425000Y-91875000D03*
%TD*%
D11*
%TO.C,C98*%
X63500000Y-158015000D03*
X63500000Y-158985000D03*
%TD*%
D15*
%TO.C,C8*%
X241592947Y-120342947D03*
X240907053Y-119657053D03*
%TD*%
D14*
%TO.C,LED105*%
X92123959Y-71573959D03*
X92725000Y-72175000D03*
X91522918Y-72175000D03*
X92123959Y-72776041D03*
%TD*%
D16*
%TO.C,LED23*%
X93725000Y-60350000D03*
X93123959Y-60951041D03*
X93123959Y-59748959D03*
X92522918Y-60350000D03*
%TD*%
%TO.C,LED107*%
X99076041Y-48423959D03*
X98475000Y-49025000D03*
X98475000Y-47822918D03*
X97873959Y-48423959D03*
%TD*%
D19*
%TO.C,C89*%
X103985000Y-173500000D03*
X103015000Y-173500000D03*
%TD*%
%TO.C,C92*%
X103985000Y-183750000D03*
X103015000Y-183750000D03*
%TD*%
D24*
%TO.C,LED115*%
X100500000Y-133125000D03*
X100500000Y-132275000D03*
X101350000Y-133125000D03*
X101350000Y-132275000D03*
%TD*%
D13*
%TO.C,LED104*%
X103325000Y-84625000D03*
X103325000Y-85475000D03*
X102475000Y-84625000D03*
X102475000Y-85475000D03*
%TD*%
%TO.C,LED93*%
X299675000Y-51950000D03*
X299675000Y-52800000D03*
X298825000Y-51950000D03*
X298825000Y-52800000D03*
%TD*%
D19*
%TO.C,C135*%
X262235000Y-144250000D03*
X261265000Y-144250000D03*
%TD*%
D29*
%TO.C,C48*%
X260592947Y-119407053D03*
X259907053Y-120092947D03*
%TD*%
D23*
%TO.C,C68*%
X101907053Y-70592947D03*
X102592947Y-69907053D03*
%TD*%
D24*
%TO.C,LED103*%
X99750000Y-91850000D03*
X99750000Y-91000000D03*
X100600000Y-91850000D03*
X100600000Y-91000000D03*
%TD*%
D41*
%TO.C,J2_POWER_IN1*%
X240500000Y-194000000D03*
D42*
X236690000Y-194000000D03*
%TD*%
D16*
%TO.C,LED92*%
X299101041Y-62000000D03*
X298500000Y-62601041D03*
X298500000Y-61398959D03*
X297898959Y-62000000D03*
%TD*%
M02*
