%TF.GenerationSoftware,KiCad,Pcbnew,7.0.1*%
%TF.CreationDate,2023-09-17T14:31:18-07:00*%
%TF.ProjectId,vancouver-skytrain-pcb,76616e63-6f75-4766-9572-2d736b797472,rev?*%
%TF.SameCoordinates,Original*%
%TF.FileFunction,Other,User*%
%FSLAX46Y46*%
G04 Gerber Fmt 4.6, Leading zero omitted, Abs format (unit mm)*
G04 Created by KiCad (PCBNEW 7.0.1) date 2023-09-17 14:31:18*
%MOMM*%
%LPD*%
G01*
G04 APERTURE LIST*
%ADD10C,0.050000*%
G04 APERTURE END LIST*
D10*
%TO.C,C42*%
X83970000Y-89820000D02*
X83970000Y-91680000D01*
X83030000Y-89820000D02*
X83970000Y-89820000D01*
X83970000Y-91680000D02*
X83030000Y-91680000D01*
X83030000Y-91680000D02*
X83030000Y-89820000D01*
%TO.C,LED66*%
X118800000Y-83500000D02*
X118800000Y-84900000D01*
X118800000Y-84900000D02*
X120200000Y-84900000D01*
X120200000Y-83500000D02*
X118800000Y-83500000D01*
X120200000Y-84900000D02*
X120200000Y-83500000D01*
%TO.C,LED122*%
X72850000Y-160300000D02*
X71450000Y-160300000D01*
X71450000Y-160300000D02*
X71450000Y-161700000D01*
X72850000Y-161700000D02*
X72850000Y-160300000D01*
X71450000Y-161700000D02*
X72850000Y-161700000D01*
%TO.C,LED20*%
X99752082Y-46159010D02*
X98762133Y-47148959D01*
X98762133Y-47148959D02*
X99752082Y-48138908D01*
X100742031Y-47148959D02*
X99752082Y-46159010D01*
X99752082Y-48138908D02*
X100742031Y-47148959D01*
%TO.C,C66*%
X91825269Y-50489949D02*
X90510051Y-49174731D01*
X92489949Y-49825269D02*
X91825269Y-50489949D01*
X90510051Y-49174731D02*
X91174731Y-48510051D01*
X91174731Y-48510051D02*
X92489949Y-49825269D01*
%TO.C,LED67*%
X110950000Y-91000000D02*
X110950000Y-92400000D01*
X110950000Y-92400000D02*
X112350000Y-92400000D01*
X112350000Y-91000000D02*
X110950000Y-91000000D01*
X112350000Y-92400000D02*
X112350000Y-91000000D01*
%TO.C,LED28*%
X159714949Y-110575000D02*
X158725000Y-109585051D01*
X158725000Y-109585051D02*
X157735051Y-110575000D01*
X158725000Y-111564949D02*
X159714949Y-110575000D01*
X157735051Y-110575000D02*
X158725000Y-111564949D01*
%TO.C,C28*%
X98251310Y-51063908D02*
X96936092Y-49748690D01*
X98915990Y-50399228D02*
X98251310Y-51063908D01*
X96936092Y-49748690D02*
X97600772Y-49084010D01*
X97600772Y-49084010D02*
X98915990Y-50399228D01*
%TO.C,LED42*%
X252325000Y-92925000D02*
X250925000Y-92925000D01*
X250925000Y-92925000D02*
X250925000Y-94325000D01*
X252325000Y-94325000D02*
X252325000Y-92925000D01*
X250925000Y-94325000D02*
X252325000Y-94325000D01*
%TO.C,C26*%
X88674731Y-46010051D02*
X89989949Y-47325269D01*
X88010051Y-46674731D02*
X88674731Y-46010051D01*
X89989949Y-47325269D02*
X89325269Y-47989949D01*
X89325269Y-47989949D02*
X88010051Y-46674731D01*
%TO.C,LED11*%
X174975000Y-123234010D02*
X173985051Y-124223959D01*
X173985051Y-124223959D02*
X174975000Y-125213908D01*
X175964949Y-124223959D02*
X174975000Y-123234010D01*
X174975000Y-125213908D02*
X175964949Y-124223959D01*
%TO.C,R1*%
X278507500Y-170070000D02*
X278507500Y-171930000D01*
X277567500Y-170070000D02*
X278507500Y-170070000D01*
X278507500Y-171930000D02*
X277567500Y-171930000D01*
X277567500Y-171930000D02*
X277567500Y-170070000D01*
%TO.C,LED18*%
X94425000Y-58159010D02*
X93435051Y-59148959D01*
X93435051Y-59148959D02*
X94425000Y-60138908D01*
X95414949Y-59148959D02*
X94425000Y-58159010D01*
X94425000Y-60138908D02*
X95414949Y-59148959D01*
%TO.C,H2*%
X305450000Y-22000000D02*
G75*
G03*
X305450000Y-22000000I-3450000J0D01*
G01*
%TO.C,C80*%
X104430000Y-116470000D02*
X102570000Y-116470000D01*
X104430000Y-115530000D02*
X104430000Y-116470000D01*
X102570000Y-116470000D02*
X102570000Y-115530000D01*
X102570000Y-115530000D02*
X104430000Y-115530000D01*
%TO.C,C87*%
X99305000Y-163030000D02*
X101165000Y-163030000D01*
X99305000Y-163970000D02*
X99305000Y-163030000D01*
X101165000Y-163030000D02*
X101165000Y-163970000D01*
X101165000Y-163970000D02*
X99305000Y-163970000D01*
%TO.C,LED72*%
X73075000Y-92700000D02*
X71675000Y-92700000D01*
X71675000Y-92700000D02*
X71675000Y-94100000D01*
X73075000Y-94100000D02*
X73075000Y-92700000D01*
X71675000Y-94100000D02*
X73075000Y-94100000D01*
%TO.C,C84*%
X99320000Y-140530000D02*
X101180000Y-140530000D01*
X99320000Y-141470000D02*
X99320000Y-140530000D01*
X101180000Y-140530000D02*
X101180000Y-141470000D01*
X101180000Y-141470000D02*
X99320000Y-141470000D01*
%TO.C,LED62*%
X167925000Y-90900000D02*
X167925000Y-92300000D01*
X167925000Y-92300000D02*
X169325000Y-92300000D01*
X169325000Y-90900000D02*
X167925000Y-90900000D01*
X169325000Y-92300000D02*
X169325000Y-90900000D01*
%TO.C,LED9*%
X191100000Y-134925000D02*
X191100000Y-136325000D01*
X191100000Y-136325000D02*
X192500000Y-136325000D01*
X192500000Y-134925000D02*
X191100000Y-134925000D01*
X192500000Y-136325000D02*
X192500000Y-134925000D01*
%TO.C,LED34*%
X217250000Y-136675000D02*
X215850000Y-136675000D01*
X215850000Y-136675000D02*
X215850000Y-138075000D01*
X217250000Y-138075000D02*
X217250000Y-136675000D01*
X215850000Y-138075000D02*
X217250000Y-138075000D01*
%TO.C,C93*%
X83280000Y-162680000D02*
X83280000Y-160820000D01*
X84220000Y-162680000D02*
X83280000Y-162680000D01*
X83280000Y-160820000D02*
X84220000Y-160820000D01*
X84220000Y-160820000D02*
X84220000Y-162680000D01*
%TO.C,C85*%
X99320000Y-152780000D02*
X101180000Y-152780000D01*
X99320000Y-153720000D02*
X99320000Y-152780000D01*
X101180000Y-152780000D02*
X101180000Y-153720000D01*
X101180000Y-153720000D02*
X99320000Y-153720000D01*
%TO.C,LED17*%
X102750000Y-66209010D02*
X101760051Y-67198959D01*
X101760051Y-67198959D02*
X102750000Y-68188908D01*
X103739949Y-67198959D02*
X102750000Y-66209010D01*
X102750000Y-68188908D02*
X103739949Y-67198959D01*
%TO.C,C99*%
X205280000Y-95180000D02*
X205280000Y-93320000D01*
X206220000Y-95180000D02*
X205280000Y-95180000D01*
X205280000Y-93320000D02*
X206220000Y-93320000D01*
X206220000Y-93320000D02*
X206220000Y-95180000D01*
%TO.C,C78*%
X99305000Y-115530000D02*
X101165000Y-115530000D01*
X99305000Y-116470000D02*
X99305000Y-115530000D01*
X101165000Y-115530000D02*
X101165000Y-116470000D01*
X101165000Y-116470000D02*
X99305000Y-116470000D01*
%TO.C,C107*%
X247780000Y-95430000D02*
X247780000Y-93570000D01*
X248720000Y-95430000D02*
X247780000Y-95430000D01*
X247780000Y-93570000D02*
X248720000Y-93570000D01*
X248720000Y-93570000D02*
X248720000Y-95430000D01*
%TO.C,LED47*%
X259700000Y-143325000D02*
X259700000Y-141925000D01*
X259700000Y-141925000D02*
X258300000Y-141925000D01*
X258300000Y-143325000D02*
X259700000Y-143325000D01*
X258300000Y-141925000D02*
X258300000Y-143325000D01*
%TO.C,LED31*%
X182715990Y-133551041D02*
X181726041Y-132561092D01*
X181726041Y-132561092D02*
X180736092Y-133551041D01*
X181726041Y-134540990D02*
X182715990Y-133551041D01*
X180736092Y-133551041D02*
X181726041Y-134540990D01*
%TO.C,LED99*%
X102125000Y-141775000D02*
X102125000Y-143175000D01*
X102125000Y-143175000D02*
X103525000Y-143175000D01*
X103525000Y-141775000D02*
X102125000Y-141775000D01*
X103525000Y-143175000D02*
X103525000Y-141775000D01*
%TO.C,LED112*%
X100850000Y-93950000D02*
X100850000Y-92550000D01*
X100850000Y-92550000D02*
X99450000Y-92550000D01*
X99450000Y-93950000D02*
X100850000Y-93950000D01*
X99450000Y-92550000D02*
X99450000Y-93950000D01*
%TO.C,C47*%
X257070000Y-132780000D02*
X258930000Y-132780000D01*
X257070000Y-133720000D02*
X257070000Y-132780000D01*
X258930000Y-132780000D02*
X258930000Y-133720000D01*
X258930000Y-133720000D02*
X257070000Y-133720000D01*
%TO.C,C22*%
X120530000Y-87680000D02*
X120530000Y-85820000D01*
X121470000Y-87680000D02*
X120530000Y-87680000D01*
X120530000Y-85820000D02*
X121470000Y-85820000D01*
X121470000Y-85820000D02*
X121470000Y-87680000D01*
%TO.C,C34*%
X86825269Y-63239949D02*
X85510051Y-61924731D01*
X87489949Y-62575269D02*
X86825269Y-63239949D01*
X85510051Y-61924731D02*
X86174731Y-61260051D01*
X86174731Y-61260051D02*
X87489949Y-62575269D01*
%TO.C,LED12*%
X167525000Y-115884010D02*
X166535051Y-116873959D01*
X166535051Y-116873959D02*
X167525000Y-117863908D01*
X168514949Y-116873959D02*
X167525000Y-115884010D01*
X167525000Y-117863908D02*
X168514949Y-116873959D01*
%TO.C,H3*%
X305450000Y-190000000D02*
G75*
G03*
X305450000Y-190000000I-3450000J0D01*
G01*
%TO.C,C119*%
X262430000Y-72220000D02*
X260570000Y-72220000D01*
X262430000Y-71280000D02*
X262430000Y-72220000D01*
X260570000Y-72220000D02*
X260570000Y-71280000D01*
X260570000Y-71280000D02*
X262430000Y-71280000D01*
%TO.C,C15*%
X158260051Y-112825269D02*
X159575269Y-111510051D01*
X158924731Y-113489949D02*
X158260051Y-112825269D01*
X159575269Y-111510051D02*
X160239949Y-112174731D01*
X160239949Y-112174731D02*
X158924731Y-113489949D01*
%TO.C,LED114*%
X100375000Y-118200000D02*
X101775000Y-118200000D01*
X101775000Y-118200000D02*
X101775000Y-116800000D01*
X100375000Y-116800000D02*
X100375000Y-118200000D01*
X101775000Y-116800000D02*
X100375000Y-116800000D01*
%TO.C,LED53*%
X272650000Y-62075000D02*
X274050000Y-62075000D01*
X274050000Y-62075000D02*
X274050000Y-60675000D01*
X272650000Y-60675000D02*
X272650000Y-62075000D01*
X274050000Y-60675000D02*
X272650000Y-60675000D01*
%TO.C,LED97*%
X102050000Y-164400000D02*
X102050000Y-165800000D01*
X102050000Y-165800000D02*
X103450000Y-165800000D01*
X103450000Y-164400000D02*
X102050000Y-164400000D01*
X103450000Y-165800000D02*
X103450000Y-164400000D01*
%TO.C,C60*%
X218720000Y-133820000D02*
X218720000Y-135680000D01*
X217780000Y-133820000D02*
X218720000Y-133820000D01*
X218720000Y-135680000D02*
X217780000Y-135680000D01*
X217780000Y-135680000D02*
X217780000Y-133820000D01*
%TO.C,C108*%
X248720000Y-90085000D02*
X248720000Y-91945000D01*
X247780000Y-90085000D02*
X248720000Y-90085000D01*
X248720000Y-91945000D02*
X247780000Y-91945000D01*
X247780000Y-91945000D02*
X247780000Y-90085000D01*
%TO.C,J1*%
X306950000Y-147150000D02*
X306950000Y-158350000D01*
X306950000Y-158350000D02*
X310550000Y-158350000D01*
X310550000Y-147150000D02*
X306950000Y-147150000D01*
X310550000Y-158350000D02*
X310550000Y-147150000D01*
%TO.C,J3_PROGRAMING_PIN1*%
X306950000Y-162850000D02*
X306950000Y-179150000D01*
X306950000Y-179150000D02*
X310550000Y-179150000D01*
X310550000Y-162850000D02*
X306950000Y-162850000D01*
X310550000Y-179150000D02*
X310550000Y-162850000D01*
%TO.C,LED120*%
X61400000Y-158625000D02*
X61400000Y-160025000D01*
X61400000Y-160025000D02*
X62800000Y-160025000D01*
X62800000Y-158625000D02*
X61400000Y-158625000D01*
X62800000Y-160025000D02*
X62800000Y-158625000D01*
%TO.C,LED52*%
X284150000Y-62000000D02*
X285550000Y-62000000D01*
X285550000Y-62000000D02*
X285550000Y-60600000D01*
X284150000Y-60600000D02*
X284150000Y-62000000D01*
X285550000Y-60600000D02*
X284150000Y-60600000D01*
%TO.C,Q2*%
X300350000Y-177800000D02*
X300350000Y-175400000D01*
X302650000Y-177800000D02*
X300350000Y-177800000D01*
X300350000Y-175400000D02*
X302650000Y-175400000D01*
X302650000Y-175400000D02*
X302650000Y-177800000D01*
%TO.C,C65*%
X113720000Y-89820000D02*
X113720000Y-91680000D01*
X112780000Y-89820000D02*
X113720000Y-89820000D01*
X113720000Y-91680000D02*
X112780000Y-91680000D01*
X112780000Y-91680000D02*
X112780000Y-89820000D01*
%TO.C,LED58*%
X215850000Y-90975000D02*
X215850000Y-92375000D01*
X215850000Y-92375000D02*
X217250000Y-92375000D01*
X217250000Y-90975000D02*
X215850000Y-90975000D01*
X217250000Y-92375000D02*
X217250000Y-90975000D01*
%TO.C,LED78*%
X131900000Y-85150000D02*
X130500000Y-85150000D01*
X130500000Y-85150000D02*
X130500000Y-86550000D01*
X131900000Y-86550000D02*
X131900000Y-85150000D01*
X130500000Y-86550000D02*
X131900000Y-86550000D01*
%TO.C,LED36*%
X239550000Y-119684010D02*
X238560051Y-120673959D01*
X238560051Y-120673959D02*
X239550000Y-121663908D01*
X240539949Y-120673959D02*
X239550000Y-119684010D01*
X239550000Y-121663908D02*
X240539949Y-120673959D01*
%TO.C,LED85*%
X217225000Y-92725000D02*
X215825000Y-92725000D01*
X215825000Y-92725000D02*
X215825000Y-94125000D01*
X217225000Y-94125000D02*
X217225000Y-92725000D01*
X215825000Y-94125000D02*
X217225000Y-94125000D01*
%TO.C,LED77*%
X120200000Y-85225000D02*
X118800000Y-85225000D01*
X118800000Y-85225000D02*
X118800000Y-86625000D01*
X120200000Y-86625000D02*
X120200000Y-85225000D01*
X118800000Y-86625000D02*
X120200000Y-86625000D01*
%TO.C,LED75*%
X102675000Y-92550000D02*
X101275000Y-92550000D01*
X101275000Y-92550000D02*
X101275000Y-93950000D01*
X102675000Y-93950000D02*
X102675000Y-92550000D01*
X101275000Y-93950000D02*
X102675000Y-93950000D01*
%TO.C,C83*%
X104430000Y-141470000D02*
X102570000Y-141470000D01*
X104430000Y-140530000D02*
X104430000Y-141470000D01*
X102570000Y-141470000D02*
X102570000Y-140530000D01*
X102570000Y-140530000D02*
X104430000Y-140530000D01*
%TO.C,LED108*%
X97226041Y-48138908D02*
X98215990Y-47148959D01*
X98215990Y-47148959D02*
X97226041Y-46159010D01*
X96236092Y-47148959D02*
X97226041Y-48138908D01*
X97226041Y-46159010D02*
X96236092Y-47148959D01*
%TO.C,LED54*%
X259700000Y-70950000D02*
X259700000Y-69550000D01*
X259700000Y-69550000D02*
X258300000Y-69550000D01*
X258300000Y-70950000D02*
X259700000Y-70950000D01*
X258300000Y-69550000D02*
X258300000Y-70950000D01*
%TO.C,LED90*%
X274050000Y-63825000D02*
X274050000Y-62425000D01*
X274050000Y-62425000D02*
X272650000Y-62425000D01*
X272650000Y-63825000D02*
X274050000Y-63825000D01*
X272650000Y-62425000D02*
X272650000Y-63825000D01*
%TO.C,LED65*%
X130500000Y-83400000D02*
X130500000Y-84800000D01*
X130500000Y-84800000D02*
X131900000Y-84800000D01*
X131900000Y-83400000D02*
X130500000Y-83400000D01*
X131900000Y-84800000D02*
X131900000Y-83400000D01*
%TO.C,C133*%
X253424731Y-101510051D02*
X254739949Y-102825269D01*
X252760051Y-102174731D02*
X253424731Y-101510051D01*
X254739949Y-102825269D02*
X254075269Y-103489949D01*
X254075269Y-103489949D02*
X252760051Y-102174731D01*
%TO.C,C134*%
X257070000Y-143780000D02*
X258930000Y-143780000D01*
X257070000Y-144720000D02*
X257070000Y-143780000D01*
X258930000Y-143780000D02*
X258930000Y-144720000D01*
X258930000Y-144720000D02*
X257070000Y-144720000D01*
%TO.C,C96*%
X74220000Y-157570000D02*
X74220000Y-159430000D01*
X73280000Y-157570000D02*
X74220000Y-157570000D01*
X74220000Y-159430000D02*
X73280000Y-159430000D01*
X73280000Y-159430000D02*
X73280000Y-157570000D01*
%TO.C,C90*%
X99320000Y-173030000D02*
X101180000Y-173030000D01*
X99320000Y-173970000D02*
X99320000Y-173030000D01*
X101180000Y-173030000D02*
X101180000Y-173970000D01*
X101180000Y-173970000D02*
X99320000Y-173970000D01*
%TO.C,C39*%
X83674731Y-58760051D02*
X84989949Y-60075269D01*
X83010051Y-59424731D02*
X83674731Y-58760051D01*
X84989949Y-60075269D02*
X84325269Y-60739949D01*
X84325269Y-60739949D02*
X83010051Y-59424731D01*
%TO.C,LED22*%
X90773959Y-47489949D02*
X91763908Y-46500000D01*
X91763908Y-46500000D02*
X90773959Y-45510051D01*
X89784010Y-46500000D02*
X90773959Y-47489949D01*
X90773959Y-45510051D02*
X89784010Y-46500000D01*
%TO.C,C19*%
X137585051Y-92175269D02*
X138900269Y-90860051D01*
X138249731Y-92839949D02*
X137585051Y-92175269D01*
X138900269Y-90860051D02*
X139564949Y-91524731D01*
X139564949Y-91524731D02*
X138249731Y-92839949D01*
%TO.C,C13*%
X185739949Y-132424731D02*
X184424731Y-133739949D01*
X185075269Y-131760051D02*
X185739949Y-132424731D01*
X184424731Y-133739949D02*
X183760051Y-133075269D01*
X183760051Y-133075269D02*
X185075269Y-131760051D01*
%TO.C,C10*%
X217780000Y-139165000D02*
X217780000Y-137305000D01*
X218720000Y-139165000D02*
X217780000Y-139165000D01*
X217780000Y-137305000D02*
X218720000Y-137305000D01*
X218720000Y-137305000D02*
X218720000Y-139165000D01*
%TO.C,LED27*%
X152214949Y-103026041D02*
X151225000Y-102036092D01*
X151225000Y-102036092D02*
X150235051Y-103026041D01*
X151225000Y-104015990D02*
X152214949Y-103026041D01*
X150235051Y-103026041D02*
X151225000Y-104015990D01*
%TO.C,C7*%
X238424731Y-116510051D02*
X239739949Y-117825269D01*
X237760051Y-117174731D02*
X238424731Y-116510051D01*
X239739949Y-117825269D02*
X239075269Y-118489949D01*
X239075269Y-118489949D02*
X237760051Y-117174731D01*
%TO.C,LED55*%
X249100000Y-92525000D02*
X250500000Y-92525000D01*
X250500000Y-92525000D02*
X250500000Y-91125000D01*
X249100000Y-91125000D02*
X249100000Y-92525000D01*
X250500000Y-91125000D02*
X249100000Y-91125000D01*
%TO.C,C118*%
X206220000Y-89945000D02*
X206220000Y-91805000D01*
X205280000Y-89945000D02*
X206220000Y-89945000D01*
X206220000Y-91805000D02*
X205280000Y-91805000D01*
X205280000Y-91805000D02*
X205280000Y-89945000D01*
%TO.C,LED124*%
X100300000Y-165775000D02*
X101700000Y-165775000D01*
X101700000Y-165775000D02*
X101700000Y-164375000D01*
X100300000Y-164375000D02*
X100300000Y-165775000D01*
X101700000Y-164375000D02*
X100300000Y-164375000D01*
%TO.C,C25*%
X97239949Y-59174731D02*
X95924731Y-60489949D01*
X96575269Y-58510051D02*
X97239949Y-59174731D01*
X95924731Y-60489949D02*
X95260051Y-59825269D01*
X95260051Y-59825269D02*
X96575269Y-58510051D01*
%TO.C,C115*%
X230280000Y-95180000D02*
X230280000Y-93320000D01*
X231220000Y-95180000D02*
X230280000Y-95180000D01*
X230280000Y-93320000D02*
X231220000Y-93320000D01*
X231220000Y-93320000D02*
X231220000Y-95180000D01*
%TO.C,C55*%
X249320000Y-174280000D02*
X251180000Y-174280000D01*
X249320000Y-175220000D02*
X249320000Y-174280000D01*
X251180000Y-174280000D02*
X251180000Y-175220000D01*
X251180000Y-175220000D02*
X249320000Y-175220000D01*
%TO.C,LED8*%
X203425000Y-134975000D02*
X203425000Y-136375000D01*
X203425000Y-136375000D02*
X204825000Y-136375000D01*
X204825000Y-134975000D02*
X203425000Y-134975000D01*
X204825000Y-136375000D02*
X204825000Y-134975000D01*
%TO.C,C112*%
X239220000Y-90070000D02*
X239220000Y-91930000D01*
X238280000Y-90070000D02*
X239220000Y-90070000D01*
X239220000Y-91930000D02*
X238280000Y-91930000D01*
X238280000Y-91930000D02*
X238280000Y-90070000D01*
%TO.C,C95*%
X73280000Y-162680000D02*
X73280000Y-160820000D01*
X74220000Y-162680000D02*
X73280000Y-162680000D01*
X73280000Y-160820000D02*
X74220000Y-160820000D01*
X74220000Y-160820000D02*
X74220000Y-162680000D01*
%TO.C,C64*%
X112780000Y-95180000D02*
X112780000Y-93320000D01*
X113720000Y-95180000D02*
X112780000Y-95180000D01*
X112780000Y-93320000D02*
X113720000Y-93320000D01*
X113720000Y-93320000D02*
X113720000Y-95180000D01*
%TO.C,C117*%
X217780000Y-95180000D02*
X217780000Y-93320000D01*
X218720000Y-95180000D02*
X217780000Y-95180000D01*
X217780000Y-93320000D02*
X218720000Y-93320000D01*
X218720000Y-93320000D02*
X218720000Y-95180000D01*
%TO.C,C73*%
X170720000Y-89820000D02*
X170720000Y-91680000D01*
X169780000Y-89820000D02*
X170720000Y-89820000D01*
X170720000Y-91680000D02*
X169780000Y-91680000D01*
X169780000Y-91680000D02*
X169780000Y-89820000D01*
%TO.C,C110*%
X243030000Y-95195000D02*
X243030000Y-93335000D01*
X243970000Y-95195000D02*
X243030000Y-95195000D01*
X243030000Y-93335000D02*
X243970000Y-93335000D01*
X243970000Y-93335000D02*
X243970000Y-95195000D01*
%TO.C,C113*%
X238280000Y-95245000D02*
X238280000Y-93385000D01*
X239220000Y-95245000D02*
X238280000Y-95245000D01*
X238280000Y-93385000D02*
X239220000Y-93385000D01*
X239220000Y-93385000D02*
X239220000Y-95245000D01*
%TO.C,R3*%
X298030000Y-179780000D02*
X298030000Y-177920000D01*
X298970000Y-179780000D02*
X298030000Y-179780000D01*
X298030000Y-177920000D02*
X298970000Y-177920000D01*
X298970000Y-177920000D02*
X298970000Y-179780000D01*
%TO.C,LED45*%
X257989949Y-120522918D02*
X257000000Y-119532969D01*
X257000000Y-119532969D02*
X256010051Y-120522918D01*
X257000000Y-121512867D02*
X257989949Y-120522918D01*
X256010051Y-120522918D02*
X257000000Y-121512867D01*
%TO.C,C21*%
X145814949Y-92274731D02*
X144499731Y-93589949D01*
X145150269Y-91610051D02*
X145814949Y-92274731D01*
X144499731Y-93589949D02*
X143835051Y-92925269D01*
X143835051Y-92925269D02*
X145150269Y-91610051D01*
%TO.C,LED56*%
X239550000Y-92365000D02*
X240950000Y-92365000D01*
X240950000Y-92365000D02*
X240950000Y-90965000D01*
X239550000Y-90965000D02*
X239550000Y-92365000D01*
X240950000Y-90965000D02*
X239550000Y-90965000D01*
%TO.C,LED127*%
X117739949Y-32750000D02*
X116750000Y-31760051D01*
X116750000Y-31760051D02*
X115760051Y-32750000D01*
X116750000Y-33739949D02*
X117739949Y-32750000D01*
X115760051Y-32750000D02*
X116750000Y-33739949D01*
%TO.C,LED74*%
X92750000Y-92675000D02*
X91350000Y-92675000D01*
X91350000Y-92675000D02*
X91350000Y-94075000D01*
X92750000Y-94075000D02*
X92750000Y-92675000D01*
X91350000Y-94075000D02*
X92750000Y-94075000D01*
%TO.C,LED94*%
X299950000Y-42900000D02*
X298550000Y-42900000D01*
X298550000Y-42900000D02*
X298550000Y-44300000D01*
X299950000Y-44300000D02*
X299950000Y-42900000D01*
X298550000Y-44300000D02*
X299950000Y-44300000D01*
%TO.C,C79*%
X249320000Y-170530000D02*
X251180000Y-170530000D01*
X249320000Y-171470000D02*
X249320000Y-170530000D01*
X251180000Y-170530000D02*
X251180000Y-171470000D01*
X251180000Y-171470000D02*
X249320000Y-171470000D01*
%TO.C,C69*%
X111010051Y-80575269D02*
X112325269Y-79260051D01*
X111674731Y-81239949D02*
X111010051Y-80575269D01*
X112325269Y-79260051D02*
X112989949Y-79924731D01*
X112989949Y-79924731D02*
X111674731Y-81239949D01*
%TO.C,C61*%
X98970000Y-89570000D02*
X98970000Y-91430000D01*
X98030000Y-89570000D02*
X98970000Y-89570000D01*
X98970000Y-91430000D02*
X98030000Y-91430000D01*
X98030000Y-91430000D02*
X98030000Y-89570000D01*
%TO.C,C136*%
X257070000Y-154780000D02*
X258930000Y-154780000D01*
X257070000Y-155720000D02*
X257070000Y-154780000D01*
X258930000Y-154780000D02*
X258930000Y-155720000D01*
X258930000Y-155720000D02*
X257070000Y-155720000D01*
%TO.C,C111*%
X243970000Y-90070000D02*
X243970000Y-91930000D01*
X243030000Y-90070000D02*
X243970000Y-90070000D01*
X243970000Y-91930000D02*
X243030000Y-91930000D01*
X243030000Y-91930000D02*
X243030000Y-90070000D01*
%TO.C,LED48*%
X259725000Y-154300000D02*
X259725000Y-152900000D01*
X259725000Y-152900000D02*
X258325000Y-152900000D01*
X258325000Y-154300000D02*
X259725000Y-154300000D01*
X258325000Y-152900000D02*
X258325000Y-154300000D01*
%TO.C,LED61*%
X181250000Y-90950000D02*
X181250000Y-92350000D01*
X181250000Y-92350000D02*
X182650000Y-92350000D01*
X182650000Y-90950000D02*
X181250000Y-90950000D01*
X182650000Y-92350000D02*
X182650000Y-90950000D01*
%TO.C,C24*%
X105489949Y-67424731D02*
X104174731Y-68739949D01*
X104825269Y-66760051D02*
X105489949Y-67424731D01*
X104174731Y-68739949D02*
X103510051Y-68075269D01*
X103510051Y-68075269D02*
X104825269Y-66760051D01*
%TO.C,C103*%
X249320000Y-171780000D02*
X251180000Y-171780000D01*
X249320000Y-172720000D02*
X249320000Y-171780000D01*
X251180000Y-171780000D02*
X251180000Y-172720000D01*
X251180000Y-172720000D02*
X249320000Y-172720000D01*
%TO.C,LED116*%
X100350000Y-143150000D02*
X101750000Y-143150000D01*
X101750000Y-143150000D02*
X101750000Y-141750000D01*
X100350000Y-141750000D02*
X100350000Y-143150000D01*
X101750000Y-141750000D02*
X100350000Y-141750000D01*
%TO.C,H4*%
X25450000Y-190000000D02*
G75*
G03*
X25450000Y-190000000I-3450000J0D01*
G01*
%TO.C,C114*%
X231220000Y-90070000D02*
X231220000Y-91930000D01*
X230280000Y-90070000D02*
X231220000Y-90070000D01*
X231220000Y-91930000D02*
X230280000Y-91930000D01*
X230280000Y-91930000D02*
X230280000Y-90070000D01*
%TO.C,LED76*%
X112350000Y-92750000D02*
X110950000Y-92750000D01*
X110950000Y-92750000D02*
X110950000Y-94150000D01*
X112350000Y-94150000D02*
X112350000Y-92750000D01*
X110950000Y-94150000D02*
X112350000Y-94150000D01*
%TO.C,C91*%
X99320000Y-183280000D02*
X101180000Y-183280000D01*
X99320000Y-184220000D02*
X99320000Y-183280000D01*
X101180000Y-183280000D02*
X101180000Y-184220000D01*
X101180000Y-184220000D02*
X99320000Y-184220000D01*
%TO.C,R5*%
X299680000Y-175070000D02*
X297820000Y-175070000D01*
X299680000Y-174130000D02*
X299680000Y-175070000D01*
X297820000Y-175070000D02*
X297820000Y-174130000D01*
X297820000Y-174130000D02*
X299680000Y-174130000D01*
%TO.C,LED46*%
X259725000Y-132250000D02*
X259725000Y-130850000D01*
X259725000Y-130850000D02*
X258325000Y-130850000D01*
X258325000Y-132250000D02*
X259725000Y-132250000D01*
X258325000Y-130850000D02*
X258325000Y-132250000D01*
%TO.C,C56*%
X177739949Y-124424731D02*
X176424731Y-125739949D01*
X177075269Y-123760051D02*
X177739949Y-124424731D01*
X176424731Y-125739949D02*
X175760051Y-125075269D01*
X175760051Y-125075269D02*
X177075269Y-123760051D01*
%TO.C,C33*%
X245924731Y-109010051D02*
X247239949Y-110325269D01*
X245260051Y-109674731D02*
X245924731Y-109010051D01*
X247239949Y-110325269D02*
X246575269Y-110989949D01*
X246575269Y-110989949D02*
X245260051Y-109674731D01*
%TO.C,LED83*%
X192550000Y-92625000D02*
X191150000Y-92625000D01*
X191150000Y-92625000D02*
X191150000Y-94025000D01*
X192550000Y-94025000D02*
X192550000Y-92625000D01*
X191150000Y-94025000D02*
X192550000Y-94025000D01*
%TO.C,LED63*%
X154700000Y-90875000D02*
X154700000Y-92275000D01*
X154700000Y-92275000D02*
X156100000Y-92275000D01*
X156100000Y-90875000D02*
X154700000Y-90875000D01*
X156100000Y-92275000D02*
X156100000Y-90875000D01*
%TO.C,C127*%
X298325269Y-64739949D02*
X297010051Y-63424731D01*
X298989949Y-64075269D02*
X298325269Y-64739949D01*
X297010051Y-63424731D02*
X297674731Y-62760051D01*
X297674731Y-62760051D02*
X298989949Y-64075269D01*
%TO.C,LED41*%
X242725000Y-92740000D02*
X241325000Y-92740000D01*
X241325000Y-92740000D02*
X241325000Y-94140000D01*
X242725000Y-94140000D02*
X242725000Y-92740000D01*
X241325000Y-94140000D02*
X242725000Y-94140000D01*
%TO.C,H1*%
X25450000Y-22000000D02*
G75*
G03*
X25450000Y-22000000I-3450000J0D01*
G01*
%TO.C,LED73*%
X82750000Y-92725000D02*
X81350000Y-92725000D01*
X81350000Y-92725000D02*
X81350000Y-94125000D01*
X82750000Y-94125000D02*
X82750000Y-92725000D01*
X81350000Y-94125000D02*
X82750000Y-94125000D01*
%TO.C,LED14*%
X152476041Y-100786092D02*
X151486092Y-101776041D01*
X151486092Y-101776041D02*
X152476041Y-102765990D01*
X153465990Y-101776041D02*
X152476041Y-100786092D01*
X152476041Y-102765990D02*
X153465990Y-101776041D01*
%TO.C,C74*%
X169780000Y-94930000D02*
X169780000Y-93070000D01*
X170720000Y-94930000D02*
X169780000Y-94930000D01*
X169780000Y-93070000D02*
X170720000Y-93070000D01*
X170720000Y-93070000D02*
X170720000Y-94930000D01*
%TO.C,C120*%
X249320000Y-173030000D02*
X251180000Y-173030000D01*
X249320000Y-173970000D02*
X249320000Y-173030000D01*
X251180000Y-173030000D02*
X251180000Y-173970000D01*
X251180000Y-173970000D02*
X249320000Y-173970000D01*
%TO.C,LED5*%
X237335051Y-119448959D02*
X238325000Y-120438908D01*
X238325000Y-120438908D02*
X239314949Y-119448959D01*
X238325000Y-118459010D02*
X237335051Y-119448959D01*
X239314949Y-119448959D02*
X238325000Y-118459010D01*
%TO.C,C94*%
X84220000Y-157570000D02*
X84220000Y-159430000D01*
X83280000Y-157570000D02*
X84220000Y-157570000D01*
X84220000Y-159430000D02*
X83280000Y-159430000D01*
X83280000Y-159430000D02*
X83280000Y-157570000D01*
%TO.C,C5*%
X116674731Y-30010051D02*
X117989949Y-31325269D01*
X116010051Y-30674731D02*
X116674731Y-30010051D01*
X117989949Y-31325269D02*
X117325269Y-31989949D01*
X117325269Y-31989949D02*
X116010051Y-30674731D01*
%TO.C,LED37*%
X246925000Y-112159010D02*
X245935051Y-113148959D01*
X245935051Y-113148959D02*
X246925000Y-114138908D01*
X247914949Y-113148959D02*
X246925000Y-112159010D01*
X246925000Y-114138908D02*
X247914949Y-113148959D01*
%TO.C,LED51*%
X297125000Y-61740990D02*
X298114949Y-60751041D01*
X298114949Y-60751041D02*
X297125000Y-59761092D01*
X296135051Y-60751041D02*
X297125000Y-61740990D01*
X297125000Y-59761092D02*
X296135051Y-60751041D01*
%TO.C,C86*%
X104430000Y-153720000D02*
X102570000Y-153720000D01*
X104430000Y-152780000D02*
X104430000Y-153720000D01*
X102570000Y-153720000D02*
X102570000Y-152780000D01*
X102570000Y-152780000D02*
X104430000Y-152780000D01*
%TO.C,C128*%
X294924731Y-60260051D02*
X296239949Y-61575269D01*
X294260051Y-60924731D02*
X294924731Y-60260051D01*
X296239949Y-61575269D02*
X295575269Y-62239949D01*
X295575269Y-62239949D02*
X294260051Y-60924731D01*
%TO.C,C130*%
X300930000Y-54470000D02*
X299070000Y-54470000D01*
X300930000Y-53530000D02*
X300930000Y-54470000D01*
X299070000Y-54470000D02*
X299070000Y-53530000D01*
X299070000Y-53530000D02*
X300930000Y-53530000D01*
%TO.C,C58*%
X193030000Y-139165000D02*
X193030000Y-137305000D01*
X193970000Y-139165000D02*
X193030000Y-139165000D01*
X193030000Y-137305000D02*
X193970000Y-137305000D01*
X193970000Y-137305000D02*
X193970000Y-139165000D01*
%TO.C,C20*%
X142064949Y-88774731D02*
X140749731Y-90089949D01*
X141400269Y-88110051D02*
X142064949Y-88774731D01*
X140749731Y-90089949D02*
X140085051Y-89425269D01*
X140085051Y-89425269D02*
X141400269Y-88110051D01*
%TO.C,LED19*%
X93040990Y-47750000D02*
X92051041Y-46760051D01*
X92051041Y-46760051D02*
X91061092Y-47750000D01*
X92051041Y-48739949D02*
X93040990Y-47750000D01*
X91061092Y-47750000D02*
X92051041Y-48739949D01*
%TO.C,LED111*%
X101825000Y-85725000D02*
X101825000Y-84325000D01*
X101825000Y-84325000D02*
X100425000Y-84325000D01*
X100425000Y-85725000D02*
X101825000Y-85725000D01*
X100425000Y-84325000D02*
X100425000Y-85725000D01*
%TO.C,LED91*%
X285525000Y-63775000D02*
X285525000Y-62375000D01*
X285525000Y-62375000D02*
X284125000Y-62375000D01*
X284125000Y-63775000D02*
X285525000Y-63775000D01*
X284125000Y-62375000D02*
X284125000Y-63775000D01*
%TO.C,LED15*%
X142851041Y-91259010D02*
X141861092Y-92248959D01*
X141861092Y-92248959D02*
X142851041Y-93238908D01*
X143840990Y-92248959D02*
X142851041Y-91259010D01*
X142851041Y-93238908D02*
X143840990Y-92248959D01*
%TO.C,C97*%
X63030000Y-162680000D02*
X63030000Y-160820000D01*
X63970000Y-162680000D02*
X63030000Y-162680000D01*
X63030000Y-160820000D02*
X63970000Y-160820000D01*
X63970000Y-160820000D02*
X63970000Y-162680000D01*
%TO.C,LED98*%
X102050000Y-154050000D02*
X102050000Y-155450000D01*
X102050000Y-155450000D02*
X103450000Y-155450000D01*
X103450000Y-154050000D02*
X102050000Y-154050000D01*
X103450000Y-155450000D02*
X103450000Y-154050000D01*
%TO.C,C31*%
X98424731Y-43184010D02*
X99739949Y-44499228D01*
X97760051Y-43848690D02*
X98424731Y-43184010D01*
X99739949Y-44499228D02*
X99075269Y-45163908D01*
X99075269Y-45163908D02*
X97760051Y-43848690D01*
%TO.C,LED44*%
X244684010Y-111925000D02*
X245673959Y-112914949D01*
X245673959Y-112914949D02*
X246663908Y-111925000D01*
X245673959Y-110935051D02*
X244684010Y-111925000D01*
X246663908Y-111925000D02*
X245673959Y-110935051D01*
%TO.C,C71*%
X133220000Y-82570000D02*
X133220000Y-84430000D01*
X132280000Y-82570000D02*
X133220000Y-82570000D01*
X133220000Y-84430000D02*
X132280000Y-84430000D01*
X132280000Y-84430000D02*
X132280000Y-82570000D01*
%TO.C,C2*%
X285970000Y-189580000D02*
X285970000Y-191440000D01*
X285030000Y-189580000D02*
X285970000Y-189580000D01*
X285970000Y-191440000D02*
X285030000Y-191440000D01*
X285030000Y-191440000D02*
X285030000Y-189580000D01*
%TO.C,C77*%
X104430000Y-103720000D02*
X102570000Y-103720000D01*
X104430000Y-102780000D02*
X104430000Y-103720000D01*
X102570000Y-103720000D02*
X102570000Y-102780000D01*
X102570000Y-102780000D02*
X104430000Y-102780000D01*
%TO.C,LED84*%
X204825000Y-92725000D02*
X203425000Y-92725000D01*
X203425000Y-92725000D02*
X203425000Y-94125000D01*
X204825000Y-94125000D02*
X204825000Y-92725000D01*
X203425000Y-94125000D02*
X204825000Y-94125000D01*
%TO.C,LED24*%
X102488908Y-68450000D02*
X101498959Y-67460051D01*
X101498959Y-67460051D02*
X100509010Y-68450000D01*
X101498959Y-69439949D02*
X102488908Y-68450000D01*
X100509010Y-68450000D02*
X101498959Y-69439949D01*
%TO.C,C70*%
X121470000Y-82570000D02*
X121470000Y-84430000D01*
X120530000Y-82570000D02*
X121470000Y-82570000D01*
X121470000Y-84430000D02*
X120530000Y-84430000D01*
X120530000Y-84430000D02*
X120530000Y-82570000D01*
%TO.C,C16*%
X150760051Y-105325269D02*
X152075269Y-104010051D01*
X151424731Y-105989949D02*
X150760051Y-105325269D01*
X152075269Y-104010051D02*
X152739949Y-104674731D01*
X152739949Y-104674731D02*
X151424731Y-105989949D01*
%TO.C,D1*%
X282017500Y-171730000D02*
X279057500Y-171730000D01*
X282017500Y-170270000D02*
X282017500Y-171730000D01*
X279057500Y-171730000D02*
X279057500Y-170270000D01*
X279057500Y-170270000D02*
X282017500Y-170270000D01*
%TO.C,LED33*%
X204825000Y-136725000D02*
X203425000Y-136725000D01*
X203425000Y-136725000D02*
X203425000Y-138125000D01*
X204825000Y-138125000D02*
X204825000Y-136725000D01*
X203425000Y-138125000D02*
X204825000Y-138125000D01*
%TO.C,C35*%
X104680000Y-86970000D02*
X102820000Y-86970000D01*
X104680000Y-86030000D02*
X104680000Y-86970000D01*
X102820000Y-86970000D02*
X102820000Y-86030000D01*
X102820000Y-86030000D02*
X104680000Y-86030000D01*
%TO.C,LED7*%
X215850000Y-134925000D02*
X215850000Y-136325000D01*
X215850000Y-136325000D02*
X217250000Y-136325000D01*
X217250000Y-134925000D02*
X215850000Y-134925000D01*
X217250000Y-136325000D02*
X217250000Y-134925000D01*
%TO.C,LED16*%
X112723959Y-76260051D02*
X111734010Y-77250000D01*
X111734010Y-77250000D02*
X112723959Y-78239949D01*
X113713908Y-77250000D02*
X112723959Y-76260051D01*
X112723959Y-78239949D02*
X113713908Y-77250000D01*
%TO.C,C138*%
X262680000Y-155720000D02*
X260820000Y-155720000D01*
X262680000Y-154780000D02*
X262680000Y-155720000D01*
X260820000Y-155720000D02*
X260820000Y-154780000D01*
X260820000Y-154780000D02*
X262680000Y-154780000D01*
%TO.C,C50*%
X157470000Y-89870000D02*
X157470000Y-91730000D01*
X156530000Y-89870000D02*
X157470000Y-89870000D01*
X157470000Y-91730000D02*
X156530000Y-91730000D01*
X156530000Y-91730000D02*
X156530000Y-89870000D01*
%TO.C,LED60*%
X191150000Y-90875000D02*
X191150000Y-92275000D01*
X191150000Y-92275000D02*
X192550000Y-92275000D01*
X192550000Y-90875000D02*
X191150000Y-90875000D01*
X192550000Y-92275000D02*
X192550000Y-90875000D01*
%TO.C,C109*%
X253720000Y-90070000D02*
X253720000Y-91930000D01*
X252780000Y-90070000D02*
X253720000Y-90070000D01*
X253720000Y-91930000D02*
X252780000Y-91930000D01*
X252780000Y-91930000D02*
X252780000Y-90070000D01*
%TO.C,LED2*%
X261450000Y-141925000D02*
X260050000Y-141925000D01*
X260050000Y-141925000D02*
X260050000Y-143325000D01*
X261450000Y-143325000D02*
X261450000Y-141925000D01*
X260050000Y-143325000D02*
X261450000Y-143325000D01*
%TO.C,C124*%
X271280000Y-64930000D02*
X271280000Y-63070000D01*
X272220000Y-64930000D02*
X271280000Y-64930000D01*
X271280000Y-63070000D02*
X272220000Y-63070000D01*
X272220000Y-63070000D02*
X272220000Y-64930000D01*
%TO.C,LED82*%
X182650000Y-92700000D02*
X181250000Y-92700000D01*
X181250000Y-92700000D02*
X181250000Y-94100000D01*
X182650000Y-94100000D02*
X182650000Y-92700000D01*
X181250000Y-94100000D02*
X182650000Y-94100000D01*
%TO.C,C104*%
X183280000Y-94930000D02*
X183280000Y-93070000D01*
X184220000Y-94930000D02*
X183280000Y-94930000D01*
X183280000Y-93070000D02*
X184220000Y-93070000D01*
X184220000Y-93070000D02*
X184220000Y-94930000D01*
%TO.C,U_POWER1*%
X241230000Y-182640000D02*
X236230000Y-182640000D01*
X241230000Y-182640000D02*
X241230000Y-177540000D01*
X236230000Y-177540000D02*
X236230000Y-182640000D01*
X236230000Y-177540000D02*
X241230000Y-177540000D01*
%TO.C,LED57*%
X228225000Y-90975000D02*
X228225000Y-92375000D01*
X228225000Y-92375000D02*
X229625000Y-92375000D01*
X229625000Y-90975000D02*
X228225000Y-90975000D01*
X229625000Y-92375000D02*
X229625000Y-90975000D01*
%TO.C,LED30*%
X174714949Y-125475000D02*
X173725000Y-124485051D01*
X173725000Y-124485051D02*
X172735051Y-125475000D01*
X173725000Y-126464949D02*
X174714949Y-125475000D01*
X172735051Y-125475000D02*
X173725000Y-126464949D01*
%TO.C,LED6*%
X229760051Y-126823959D02*
X230750000Y-127813908D01*
X230750000Y-127813908D02*
X231739949Y-126823959D01*
X230750000Y-125834010D02*
X229760051Y-126823959D01*
X231739949Y-126823959D02*
X230750000Y-125834010D01*
%TO.C,C6*%
X256510051Y-122575269D02*
X257825269Y-121260051D01*
X257174731Y-123239949D02*
X256510051Y-122575269D01*
X257825269Y-121260051D02*
X258489949Y-121924731D01*
X258489949Y-121924731D02*
X257174731Y-123239949D01*
%TO.C,C63*%
X103970000Y-89555000D02*
X103970000Y-91415000D01*
X103030000Y-89555000D02*
X103970000Y-89555000D01*
X103970000Y-91415000D02*
X103030000Y-91415000D01*
X103030000Y-91415000D02*
X103030000Y-89555000D01*
%TO.C,LED3*%
X261475000Y-130875000D02*
X260075000Y-130875000D01*
X260075000Y-130875000D02*
X260075000Y-132275000D01*
X261475000Y-132275000D02*
X261475000Y-130875000D01*
X260075000Y-132275000D02*
X261475000Y-132275000D01*
%TO.C,LED126*%
X100500000Y-185950000D02*
X101900000Y-185950000D01*
X101900000Y-185950000D02*
X101900000Y-184550000D01*
X100500000Y-184550000D02*
X100500000Y-185950000D01*
X101900000Y-184550000D02*
X100500000Y-184550000D01*
%TO.C,C51*%
X156530000Y-94980000D02*
X156530000Y-93120000D01*
X157470000Y-94980000D02*
X156530000Y-94980000D01*
X156530000Y-93120000D02*
X157470000Y-93120000D01*
X157470000Y-93120000D02*
X157470000Y-94980000D01*
%TO.C,C75*%
X98030000Y-94930000D02*
X98030000Y-93070000D01*
X98970000Y-94930000D02*
X98030000Y-94930000D01*
X98030000Y-93070000D02*
X98970000Y-93070000D01*
X98970000Y-93070000D02*
X98970000Y-94930000D01*
%TO.C,C88*%
X104430000Y-163970000D02*
X102570000Y-163970000D01*
X104430000Y-163030000D02*
X104430000Y-163970000D01*
X102570000Y-163970000D02*
X102570000Y-163030000D01*
X102570000Y-163030000D02*
X104430000Y-163030000D01*
%TO.C,LED110*%
X91838908Y-73400000D02*
X90848959Y-72410051D01*
X90848959Y-72410051D02*
X89859010Y-73400000D01*
X90848959Y-74389949D02*
X91838908Y-73400000D01*
X89859010Y-73400000D02*
X90848959Y-74389949D01*
%TO.C,LED88*%
X250500000Y-94325000D02*
X250500000Y-92925000D01*
X250500000Y-92925000D02*
X249100000Y-92925000D01*
X249100000Y-94325000D02*
X250500000Y-94325000D01*
X249100000Y-92925000D02*
X249100000Y-94325000D01*
%TO.C,LED123*%
X82800000Y-160375000D02*
X81400000Y-160375000D01*
X81400000Y-160375000D02*
X81400000Y-161775000D01*
X82800000Y-161775000D02*
X82800000Y-160375000D01*
X81400000Y-161775000D02*
X82800000Y-161775000D01*
%TO.C,LED32*%
X192525000Y-136675000D02*
X191125000Y-136675000D01*
X191125000Y-136675000D02*
X191125000Y-138075000D01*
X192525000Y-138075000D02*
X192525000Y-136675000D01*
X191125000Y-138075000D02*
X192525000Y-138075000D01*
%TO.C,C131*%
X295570000Y-44530000D02*
X297430000Y-44530000D01*
X295570000Y-45470000D02*
X295570000Y-44530000D01*
X297430000Y-44530000D02*
X297430000Y-45470000D01*
X297430000Y-45470000D02*
X295570000Y-45470000D01*
%TO.C,C45*%
X93030000Y-95180000D02*
X93030000Y-93320000D01*
X93970000Y-95180000D02*
X93030000Y-95180000D01*
X93030000Y-93320000D02*
X93970000Y-93320000D01*
X93970000Y-93320000D02*
X93970000Y-95180000D01*
%TO.C,C52*%
X162989949Y-109424731D02*
X161674731Y-110739949D01*
X162325269Y-108760051D02*
X162989949Y-109424731D01*
X161674731Y-110739949D02*
X161010051Y-110075269D01*
X161010051Y-110075269D02*
X162325269Y-108760051D01*
%TO.C,LED21*%
X97510051Y-45898959D02*
X98500000Y-46888908D01*
X98500000Y-46888908D02*
X99489949Y-45898959D01*
X98500000Y-44909010D02*
X97510051Y-45898959D01*
X99489949Y-45898959D02*
X98500000Y-44909010D01*
%TO.C,LED70*%
X81350000Y-90950000D02*
X81350000Y-92350000D01*
X81350000Y-92350000D02*
X82750000Y-92350000D01*
X82750000Y-90950000D02*
X81350000Y-90950000D01*
X82750000Y-92350000D02*
X82750000Y-90950000D01*
%TO.C,LED113*%
X100350000Y-105575000D02*
X101750000Y-105575000D01*
X101750000Y-105575000D02*
X101750000Y-104175000D01*
X100350000Y-104175000D02*
X100350000Y-105575000D01*
X101750000Y-104175000D02*
X100350000Y-104175000D01*
%TO.C,C122*%
X256575269Y-105989949D02*
X255260051Y-104674731D01*
X257239949Y-105325269D02*
X256575269Y-105989949D01*
X255260051Y-104674731D02*
X255924731Y-104010051D01*
X255924731Y-104010051D02*
X257239949Y-105325269D01*
%TO.C,C3*%
X247230000Y-183557500D02*
X247230000Y-186517500D01*
X245770000Y-183557500D02*
X247230000Y-183557500D01*
X247230000Y-186517500D02*
X245770000Y-186517500D01*
X245770000Y-186517500D02*
X245770000Y-183557500D01*
%TO.C,LED40*%
X241325000Y-90965000D02*
X241325000Y-92365000D01*
X241325000Y-92365000D02*
X242725000Y-92365000D01*
X242725000Y-90965000D02*
X241325000Y-90965000D01*
X242725000Y-92365000D02*
X242725000Y-90965000D01*
%TO.C,C12*%
X193970000Y-133820000D02*
X193970000Y-135680000D01*
X193030000Y-133820000D02*
X193970000Y-133820000D01*
X193970000Y-135680000D02*
X193030000Y-135680000D01*
X193030000Y-135680000D02*
X193030000Y-133820000D01*
%TO.C,C100*%
X193970000Y-89930000D02*
X193970000Y-91790000D01*
X193030000Y-89930000D02*
X193970000Y-89930000D01*
X193970000Y-91790000D02*
X193030000Y-91790000D01*
X193030000Y-91790000D02*
X193030000Y-89930000D01*
%TO.C,LED96*%
X102125000Y-174500000D02*
X102125000Y-175900000D01*
X102125000Y-175900000D02*
X103525000Y-175900000D01*
X103525000Y-174500000D02*
X102125000Y-174500000D01*
X103525000Y-175900000D02*
X103525000Y-174500000D01*
%TO.C,C125*%
X283720000Y-59570000D02*
X283720000Y-61430000D01*
X282780000Y-59570000D02*
X283720000Y-59570000D01*
X283720000Y-61430000D02*
X282780000Y-61430000D01*
X282780000Y-61430000D02*
X282780000Y-59570000D01*
%TO.C,C38*%
X94989949Y-72424731D02*
X93674731Y-73739949D01*
X94325269Y-71760051D02*
X94989949Y-72424731D01*
X93674731Y-73739949D02*
X93010051Y-73075269D01*
X93010051Y-73075269D02*
X94325269Y-71760051D01*
%TO.C,LED106*%
X88089949Y-60376041D02*
X87100000Y-59386092D01*
X87100000Y-59386092D02*
X86110051Y-60376041D01*
X87100000Y-61365990D02*
X88089949Y-60376041D01*
X86110051Y-60376041D02*
X87100000Y-61365990D01*
%TO.C,LED80*%
X156125000Y-92650000D02*
X154725000Y-92650000D01*
X154725000Y-92650000D02*
X154725000Y-94050000D01*
X156125000Y-94050000D02*
X156125000Y-92650000D01*
X154725000Y-94050000D02*
X156125000Y-94050000D01*
%TO.C,R2*%
X285030000Y-175530000D02*
X286890000Y-175530000D01*
X285030000Y-176470000D02*
X285030000Y-175530000D01*
X286890000Y-175530000D02*
X286890000Y-176470000D01*
X286890000Y-176470000D02*
X285030000Y-176470000D01*
%TO.C,C1*%
X240180000Y-189970000D02*
X238320000Y-189970000D01*
X240180000Y-189030000D02*
X240180000Y-189970000D01*
X238320000Y-189970000D02*
X238320000Y-189030000D01*
X238320000Y-189030000D02*
X240180000Y-189030000D01*
%TO.C,C62*%
X103030000Y-94930000D02*
X103030000Y-93070000D01*
X103970000Y-94930000D02*
X103030000Y-94930000D01*
X103030000Y-93070000D02*
X103970000Y-93070000D01*
X103970000Y-93070000D02*
X103970000Y-94930000D01*
%TO.C,LED117*%
X100300000Y-155450000D02*
X101700000Y-155450000D01*
X101700000Y-155450000D02*
X101700000Y-154050000D01*
X100300000Y-154050000D02*
X100300000Y-155450000D01*
X101700000Y-154050000D02*
X100300000Y-154050000D01*
%TO.C,C29*%
X101801310Y-47663908D02*
X100486092Y-46348690D01*
X102465990Y-46999228D02*
X101801310Y-47663908D01*
X100486092Y-46348690D02*
X101150772Y-45684010D01*
X101150772Y-45684010D02*
X102465990Y-46999228D01*
%TO.C,C76*%
X99320000Y-102780000D02*
X101180000Y-102780000D01*
X99320000Y-103720000D02*
X99320000Y-102780000D01*
X101180000Y-102780000D02*
X101180000Y-103720000D01*
X101180000Y-103720000D02*
X99320000Y-103720000D01*
%TO.C,C23*%
X115489949Y-77424731D02*
X114174731Y-78739949D01*
X114825269Y-76760051D02*
X115489949Y-77424731D01*
X114174731Y-78739949D02*
X113510051Y-78075269D01*
X113510051Y-78075269D02*
X114825269Y-76760051D01*
%TO.C,C59*%
X205280000Y-139180000D02*
X205280000Y-137320000D01*
X206220000Y-139180000D02*
X205280000Y-139180000D01*
X205280000Y-137320000D02*
X206220000Y-137320000D01*
X206220000Y-137320000D02*
X206220000Y-139180000D01*
%TO.C,C4*%
X300835000Y-174130000D02*
X302695000Y-174130000D01*
X300835000Y-175070000D02*
X300835000Y-174130000D01*
X302695000Y-174130000D02*
X302695000Y-175070000D01*
X302695000Y-175070000D02*
X300835000Y-175070000D01*
%TO.C,C116*%
X218720000Y-90070000D02*
X218720000Y-91930000D01*
X217780000Y-90070000D02*
X218720000Y-90070000D01*
X218720000Y-91930000D02*
X217780000Y-91930000D01*
X217780000Y-91930000D02*
X217780000Y-90070000D01*
%TO.C,LED26*%
X142590990Y-93500000D02*
X141601041Y-92510051D01*
X141601041Y-92510051D02*
X140611092Y-93500000D01*
X141601041Y-94489949D02*
X142590990Y-93500000D01*
X140611092Y-93500000D02*
X141601041Y-94489949D01*
%TO.C,C57*%
X181260051Y-135575269D02*
X182575269Y-134260051D01*
X181924731Y-136239949D02*
X181260051Y-135575269D01*
X182575269Y-134260051D02*
X183239949Y-134924731D01*
X183239949Y-134924731D02*
X181924731Y-136239949D01*
%TO.C,C102*%
X184220000Y-89820000D02*
X184220000Y-91680000D01*
X183280000Y-89820000D02*
X184220000Y-89820000D01*
X184220000Y-91680000D02*
X183280000Y-91680000D01*
X183280000Y-91680000D02*
X183280000Y-89820000D01*
%TO.C,C30*%
X249320000Y-176760000D02*
X251180000Y-176760000D01*
X249320000Y-177700000D02*
X249320000Y-176760000D01*
X251180000Y-176760000D02*
X251180000Y-177700000D01*
X251180000Y-177700000D02*
X249320000Y-177700000D01*
%TO.C,C44*%
X93970000Y-89820000D02*
X93970000Y-91680000D01*
X93030000Y-89820000D02*
X93970000Y-89820000D01*
X93970000Y-91680000D02*
X93030000Y-91680000D01*
X93030000Y-91680000D02*
X93030000Y-89820000D01*
%TO.C,C81*%
X99320000Y-130530000D02*
X101180000Y-130530000D01*
X99320000Y-131470000D02*
X99320000Y-130530000D01*
X101180000Y-130530000D02*
X101180000Y-131470000D01*
X101180000Y-131470000D02*
X99320000Y-131470000D01*
%TO.C,C129*%
X295570000Y-53530000D02*
X297430000Y-53530000D01*
X295570000Y-54470000D02*
X295570000Y-53530000D01*
X297430000Y-53530000D02*
X297430000Y-54470000D01*
X297430000Y-54470000D02*
X295570000Y-54470000D01*
%TO.C,C27*%
X95100772Y-46584010D02*
X96415990Y-47899228D01*
X94436092Y-47248690D02*
X95100772Y-46584010D01*
X96415990Y-47899228D02*
X95751310Y-48563908D01*
X95751310Y-48563908D02*
X94436092Y-47248690D01*
%TO.C,C72*%
X132280000Y-87665000D02*
X132280000Y-85805000D01*
X133220000Y-87665000D02*
X132280000Y-87665000D01*
X132280000Y-85805000D02*
X133220000Y-85805000D01*
X133220000Y-85805000D02*
X133220000Y-87665000D01*
%TO.C,LED79*%
X140350000Y-93288908D02*
X141339949Y-92298959D01*
X141339949Y-92298959D02*
X140350000Y-91309010D01*
X139360051Y-92298959D02*
X140350000Y-93288908D01*
X140350000Y-91309010D02*
X139360051Y-92298959D01*
%TO.C,LED64*%
X140610051Y-91047918D02*
X141600000Y-92037867D01*
X141600000Y-92037867D02*
X142589949Y-91047918D01*
X141600000Y-90057969D02*
X140610051Y-91047918D01*
X142589949Y-91047918D02*
X141600000Y-90057969D01*
%TO.C,U_CPU1*%
X299000000Y-213750000D02*
X299000000Y-192810000D01*
X299000000Y-192810000D02*
X284750000Y-192810000D01*
X284750000Y-172500000D02*
X284750000Y-192810000D01*
X284750000Y-172500000D02*
X265250000Y-172500000D01*
X265250000Y-192810000D02*
X265250000Y-172500000D01*
X265250000Y-192810000D02*
X251000000Y-192810000D01*
X251000000Y-213750000D02*
X299000000Y-213750000D01*
X251000000Y-192810000D02*
X251000000Y-213750000D01*
%TO.C,LED25*%
X112463908Y-78500000D02*
X111473959Y-77510051D01*
X111473959Y-77510051D02*
X110484010Y-78500000D01*
X111473959Y-79489949D02*
X112463908Y-78500000D01*
X110484010Y-78500000D02*
X111473959Y-79489949D01*
%TO.C,C18*%
X141085051Y-95675269D02*
X142400269Y-94360051D01*
X141749731Y-96339949D02*
X141085051Y-95675269D01*
X142400269Y-94360051D02*
X143064949Y-95024731D01*
X143064949Y-95024731D02*
X141749731Y-96339949D01*
%TO.C,C11*%
X206220000Y-133820000D02*
X206220000Y-135680000D01*
X205280000Y-133820000D02*
X206220000Y-133820000D01*
X206220000Y-135680000D02*
X205280000Y-135680000D01*
X205280000Y-135680000D02*
X205280000Y-133820000D01*
%TO.C,C9*%
X234075269Y-128489949D02*
X232760051Y-127174731D01*
X234739949Y-127825269D02*
X234075269Y-128489949D01*
X232760051Y-127174731D02*
X233424731Y-126510051D01*
X233424731Y-126510051D02*
X234739949Y-127825269D01*
%TO.C,C49*%
X230924731Y-124010051D02*
X232239949Y-125325269D01*
X230260051Y-124674731D02*
X230924731Y-124010051D01*
X232239949Y-125325269D02*
X231575269Y-125989949D01*
X231575269Y-125989949D02*
X230260051Y-124674731D01*
%TO.C,C14*%
X173260051Y-127575269D02*
X174575269Y-126260051D01*
X173924731Y-128239949D02*
X173260051Y-127575269D01*
X174575269Y-126260051D02*
X175239949Y-126924731D01*
X175239949Y-126924731D02*
X173924731Y-128239949D01*
%TO.C,C82*%
X104430000Y-131470000D02*
X102570000Y-131470000D01*
X104430000Y-130530000D02*
X104430000Y-131470000D01*
X102570000Y-131470000D02*
X102570000Y-130530000D01*
X102570000Y-130530000D02*
X104430000Y-130530000D01*
%TO.C,LED86*%
X229625000Y-92725000D02*
X228225000Y-92725000D01*
X228225000Y-92725000D02*
X228225000Y-94125000D01*
X229625000Y-94125000D02*
X229625000Y-92725000D01*
X228225000Y-94125000D02*
X229625000Y-94125000D01*
%TO.C,LED71*%
X71700000Y-90925000D02*
X71700000Y-92325000D01*
X71700000Y-92325000D02*
X73100000Y-92325000D01*
X73100000Y-90925000D02*
X71700000Y-90925000D01*
X73100000Y-92325000D02*
X73100000Y-90925000D01*
%TO.C,LED29*%
X167264949Y-118125000D02*
X166275000Y-117135051D01*
X166275000Y-117135051D02*
X165285051Y-118125000D01*
X166275000Y-119114949D02*
X167264949Y-118125000D01*
X165285051Y-118125000D02*
X166275000Y-119114949D01*
%TO.C,LED4*%
X258275000Y-118309010D02*
X257285051Y-119298959D01*
X257285051Y-119298959D02*
X258275000Y-120288908D01*
X259264949Y-119298959D02*
X258275000Y-118309010D01*
X258275000Y-120288908D02*
X259264949Y-119298959D01*
%TO.C,LED101*%
X102125000Y-116825000D02*
X102125000Y-118225000D01*
X102125000Y-118225000D02*
X103525000Y-118225000D01*
X103525000Y-116825000D02*
X102125000Y-116825000D01*
X103525000Y-118225000D02*
X103525000Y-116825000D01*
%TO.C,LED109*%
X85848959Y-60114949D02*
X86838908Y-59125000D01*
X86838908Y-59125000D02*
X85848959Y-58135051D01*
X84859010Y-59125000D02*
X85848959Y-60114949D01*
X85848959Y-58135051D02*
X84859010Y-59125000D01*
%TO.C,C37*%
X90510051Y-75575269D02*
X91825269Y-74260051D01*
X91174731Y-76239949D02*
X90510051Y-75575269D01*
X91825269Y-74260051D02*
X92489949Y-74924731D01*
X92489949Y-74924731D02*
X91174731Y-76239949D01*
%TO.C,LED59*%
X203425000Y-90975000D02*
X203425000Y-92375000D01*
X203425000Y-92375000D02*
X204825000Y-92375000D01*
X204825000Y-90975000D02*
X203425000Y-90975000D01*
X204825000Y-92375000D02*
X204825000Y-90975000D01*
%TO.C,LED39*%
X250925000Y-91125000D02*
X250925000Y-92525000D01*
X250925000Y-92525000D02*
X252325000Y-92525000D01*
X252325000Y-91125000D02*
X250925000Y-91125000D01*
X252325000Y-92525000D02*
X252325000Y-91125000D01*
%TO.C,LED35*%
X231977082Y-127059010D02*
X230987133Y-128048959D01*
X230987133Y-128048959D02*
X231977082Y-129038908D01*
X232967031Y-128048959D02*
X231977082Y-127059010D01*
X231977082Y-129038908D02*
X232967031Y-128048959D01*
%TO.C,C67*%
X92760051Y-62325269D02*
X94075269Y-61010051D01*
X93424731Y-62989949D02*
X92760051Y-62325269D01*
X94075269Y-61010051D02*
X94739949Y-61674731D01*
X94739949Y-61674731D02*
X93424731Y-62989949D01*
%TO.C,C121*%
X257320000Y-71280000D02*
X259180000Y-71280000D01*
X257320000Y-72220000D02*
X257320000Y-71280000D01*
X259180000Y-71280000D02*
X259180000Y-72220000D01*
X259180000Y-72220000D02*
X257320000Y-72220000D01*
%TO.C,C36*%
X99320000Y-86030000D02*
X101180000Y-86030000D01*
X99320000Y-86970000D02*
X99320000Y-86030000D01*
X101180000Y-86030000D02*
X101180000Y-86970000D01*
X101180000Y-86970000D02*
X99320000Y-86970000D01*
%TO.C,C53*%
X165760051Y-120325269D02*
X167075269Y-119010051D01*
X166424731Y-120989949D02*
X165760051Y-120325269D01*
X167075269Y-119010051D02*
X167739949Y-119674731D01*
X167739949Y-119674731D02*
X166424731Y-120989949D01*
%TO.C,LED81*%
X169300000Y-92650000D02*
X167900000Y-92650000D01*
X167900000Y-92650000D02*
X167900000Y-94050000D01*
X169300000Y-94050000D02*
X169300000Y-92650000D01*
X167900000Y-94050000D02*
X169300000Y-94050000D01*
%TO.C,C32*%
X249075269Y-113489949D02*
X247760051Y-112174731D01*
X249739949Y-112825269D02*
X249075269Y-113489949D01*
X247760051Y-112174731D02*
X248424731Y-111510051D01*
X248424731Y-111510051D02*
X249739949Y-112825269D01*
%TO.C,LED100*%
X101975000Y-132025000D02*
X101975000Y-133425000D01*
X101975000Y-133425000D02*
X103375000Y-133425000D01*
X103375000Y-132025000D02*
X101975000Y-132025000D01*
X103375000Y-133425000D02*
X103375000Y-132025000D01*
%TO.C,C101*%
X193030000Y-94805000D02*
X193030000Y-92945000D01*
X193970000Y-94805000D02*
X193030000Y-94805000D01*
X193030000Y-92945000D02*
X193970000Y-92945000D01*
X193970000Y-92945000D02*
X193970000Y-94805000D01*
%TO.C,C105*%
X272220000Y-59570000D02*
X272220000Y-61430000D01*
X271280000Y-59570000D02*
X272220000Y-59570000D01*
X272220000Y-61430000D02*
X271280000Y-61430000D01*
X271280000Y-61430000D02*
X271280000Y-59570000D01*
%TO.C,R4*%
X300530000Y-179765000D02*
X300530000Y-177905000D01*
X301470000Y-179765000D02*
X300530000Y-179765000D01*
X300530000Y-177905000D02*
X301470000Y-177905000D01*
X301470000Y-177905000D02*
X301470000Y-179765000D01*
%TO.C,C41*%
X74470000Y-89820000D02*
X74470000Y-91680000D01*
X73530000Y-89820000D02*
X74470000Y-89820000D01*
X74470000Y-91680000D02*
X73530000Y-91680000D01*
X73530000Y-91680000D02*
X73530000Y-89820000D01*
%TO.C,Q1*%
X297850000Y-177800000D02*
X297850000Y-175400000D01*
X300150000Y-177800000D02*
X297850000Y-177800000D01*
X297850000Y-175400000D02*
X300150000Y-175400000D01*
X300150000Y-175400000D02*
X300150000Y-177800000D01*
%TO.C,LED118*%
X81400000Y-158625000D02*
X81400000Y-160025000D01*
X81400000Y-160025000D02*
X82800000Y-160025000D01*
X82800000Y-158625000D02*
X81400000Y-158625000D01*
X82800000Y-160025000D02*
X82800000Y-158625000D01*
%TO.C,LED43*%
X252384010Y-104100000D02*
X253373959Y-105089949D01*
X253373959Y-105089949D02*
X254363908Y-104100000D01*
X253373959Y-103110051D02*
X252384010Y-104100000D01*
X254363908Y-104100000D02*
X253373959Y-103110051D01*
%TO.C,LED89*%
X261450000Y-69550000D02*
X260050000Y-69550000D01*
X260050000Y-69550000D02*
X260050000Y-70950000D01*
X261450000Y-70950000D02*
X261450000Y-69550000D01*
X260050000Y-70950000D02*
X261450000Y-70950000D01*
%TO.C,LED102*%
X102125000Y-104200000D02*
X102125000Y-105600000D01*
X102125000Y-105600000D02*
X103525000Y-105600000D01*
X103525000Y-104200000D02*
X102125000Y-104200000D01*
X103525000Y-105600000D02*
X103525000Y-104200000D01*
%TO.C,LED87*%
X240950000Y-94140000D02*
X240950000Y-92740000D01*
X240950000Y-92740000D02*
X239550000Y-92740000D01*
X239550000Y-94140000D02*
X240950000Y-94140000D01*
X239550000Y-92740000D02*
X239550000Y-94140000D01*
%TO.C,LED49*%
X298200000Y-44300000D02*
X298200000Y-42900000D01*
X298200000Y-42900000D02*
X296800000Y-42900000D01*
X296800000Y-44300000D02*
X298200000Y-44300000D01*
X296800000Y-42900000D02*
X296800000Y-44300000D01*
%TO.C,C54*%
X170489949Y-116924731D02*
X169174731Y-118239949D01*
X169825269Y-116260051D02*
X170489949Y-116924731D01*
X169174731Y-118239949D02*
X168510051Y-117575269D01*
X168510051Y-117575269D02*
X169825269Y-116260051D01*
%TO.C,LED121*%
X62775000Y-160475000D02*
X61375000Y-160475000D01*
X61375000Y-160475000D02*
X61375000Y-161875000D01*
X62775000Y-161875000D02*
X62775000Y-160475000D01*
X61375000Y-161875000D02*
X62775000Y-161875000D01*
%TO.C,LED38*%
X254625000Y-104361092D02*
X253635051Y-105351041D01*
X253635051Y-105351041D02*
X254625000Y-106340990D01*
X255614949Y-105351041D02*
X254625000Y-104361092D01*
X254625000Y-106340990D02*
X255614949Y-105351041D01*
%TO.C,LED50*%
X298200000Y-53075000D02*
X298200000Y-51675000D01*
X298200000Y-51675000D02*
X296800000Y-51675000D01*
X296800000Y-53075000D02*
X298200000Y-53075000D01*
X296800000Y-51675000D02*
X296800000Y-53075000D01*
%TO.C,C17*%
X155239949Y-101924731D02*
X153924731Y-103239949D01*
X154575269Y-101260051D02*
X155239949Y-101924731D01*
X153924731Y-103239949D02*
X153260051Y-102575269D01*
X153260051Y-102575269D02*
X154575269Y-101260051D01*
%TO.C,LED119*%
X71425000Y-158575000D02*
X71425000Y-159975000D01*
X71425000Y-159975000D02*
X72825000Y-159975000D01*
X72825000Y-158575000D02*
X71425000Y-158575000D01*
X72825000Y-159975000D02*
X72825000Y-158575000D01*
%TO.C,C46*%
X262680000Y-133720000D02*
X260820000Y-133720000D01*
X262680000Y-132780000D02*
X262680000Y-133720000D01*
X260820000Y-133720000D02*
X260820000Y-132780000D01*
X260820000Y-132780000D02*
X262680000Y-132780000D01*
%TO.C,U1*%
X301300000Y-153200000D02*
X301300000Y-149800000D01*
X301300000Y-149800000D02*
X297200000Y-149800000D01*
X297200000Y-153200000D02*
X301300000Y-153200000D01*
X297200000Y-149800000D02*
X297200000Y-153200000D01*
%TO.C,C123*%
X249320000Y-175530000D02*
X251180000Y-175530000D01*
X249320000Y-176470000D02*
X249320000Y-175530000D01*
X251180000Y-175530000D02*
X251180000Y-176470000D01*
X251180000Y-176470000D02*
X249320000Y-176470000D01*
%TO.C,C43*%
X83030000Y-95180000D02*
X83030000Y-93320000D01*
X83970000Y-95180000D02*
X83030000Y-95180000D01*
X83030000Y-93320000D02*
X83970000Y-93320000D01*
X83970000Y-93320000D02*
X83970000Y-95180000D01*
%TO.C,LED95*%
X102250000Y-184575000D02*
X102250000Y-185975000D01*
X102250000Y-185975000D02*
X103650000Y-185975000D01*
X103650000Y-184575000D02*
X102250000Y-184575000D01*
X103650000Y-185975000D02*
X103650000Y-184575000D01*
%TO.C,C126*%
X282780000Y-64930000D02*
X282780000Y-63070000D01*
X283720000Y-64930000D02*
X282780000Y-64930000D01*
X282780000Y-63070000D02*
X283720000Y-63070000D01*
X283720000Y-63070000D02*
X283720000Y-64930000D01*
%TO.C,C106*%
X252780000Y-95430000D02*
X252780000Y-93570000D01*
X253720000Y-95430000D02*
X252780000Y-95430000D01*
X252780000Y-93570000D02*
X253720000Y-93570000D01*
X253720000Y-93570000D02*
X253720000Y-95430000D01*
%TO.C,C40*%
X73530000Y-95180000D02*
X73530000Y-93320000D01*
X74470000Y-95180000D02*
X73530000Y-95180000D01*
X73530000Y-93320000D02*
X74470000Y-93320000D01*
X74470000Y-93320000D02*
X74470000Y-95180000D01*
%TO.C,LED13*%
X159950000Y-108359010D02*
X158960051Y-109348959D01*
X158960051Y-109348959D02*
X159950000Y-110338908D01*
X160939949Y-109348959D02*
X159950000Y-108359010D01*
X159950000Y-110338908D02*
X160939949Y-109348959D01*
%TO.C,LED10*%
X182976041Y-131310051D02*
X181986092Y-132300000D01*
X181986092Y-132300000D02*
X182976041Y-133289949D01*
X183965990Y-132300000D02*
X182976041Y-131310051D01*
X182976041Y-133289949D02*
X183965990Y-132300000D01*
%TO.C,LED1*%
X261500000Y-152875000D02*
X260100000Y-152875000D01*
X260100000Y-152875000D02*
X260100000Y-154275000D01*
X261500000Y-154275000D02*
X261500000Y-152875000D01*
X260100000Y-154275000D02*
X261500000Y-154275000D01*
%TO.C,LED69*%
X91350000Y-90900000D02*
X91350000Y-92300000D01*
X91350000Y-92300000D02*
X92750000Y-92300000D01*
X92750000Y-90900000D02*
X91350000Y-90900000D01*
X92750000Y-92300000D02*
X92750000Y-90900000D01*
%TO.C,LED125*%
X100375000Y-175900000D02*
X101775000Y-175900000D01*
X101775000Y-175900000D02*
X101775000Y-174500000D01*
X100375000Y-174500000D02*
X100375000Y-175900000D01*
X101775000Y-174500000D02*
X100375000Y-174500000D01*
%TO.C,C132*%
X300930000Y-45470000D02*
X299070000Y-45470000D01*
X300930000Y-44530000D02*
X300930000Y-45470000D01*
X299070000Y-45470000D02*
X299070000Y-44530000D01*
X299070000Y-44530000D02*
X300930000Y-44530000D01*
%TO.C,LED68*%
X101300000Y-90750000D02*
X101300000Y-92150000D01*
X101300000Y-92150000D02*
X102700000Y-92150000D01*
X102700000Y-90750000D02*
X101300000Y-90750000D01*
X102700000Y-92150000D02*
X102700000Y-90750000D01*
%TO.C,C98*%
X63970000Y-157570000D02*
X63970000Y-159430000D01*
X63030000Y-157570000D02*
X63970000Y-157570000D01*
X63970000Y-159430000D02*
X63030000Y-159430000D01*
X63030000Y-159430000D02*
X63030000Y-157570000D01*
%TO.C,C8*%
X241575269Y-120989949D02*
X240260051Y-119674731D01*
X242239949Y-120325269D02*
X241575269Y-120989949D01*
X240260051Y-119674731D02*
X240924731Y-119010051D01*
X240924731Y-119010051D02*
X242239949Y-120325269D01*
%TO.C,LED105*%
X92123959Y-71185051D02*
X91134010Y-72175000D01*
X91134010Y-72175000D02*
X92123959Y-73164949D01*
X93113908Y-72175000D02*
X92123959Y-71185051D01*
X92123959Y-73164949D02*
X93113908Y-72175000D01*
%TO.C,LED23*%
X94113908Y-60350000D02*
X93123959Y-59360051D01*
X93123959Y-59360051D02*
X92134010Y-60350000D01*
X93123959Y-61339949D02*
X94113908Y-60350000D01*
X92134010Y-60350000D02*
X93123959Y-61339949D01*
%TO.C,LED107*%
X99464949Y-48423959D02*
X98475000Y-47434010D01*
X98475000Y-47434010D02*
X97485051Y-48423959D01*
X98475000Y-49413908D02*
X99464949Y-48423959D01*
X97485051Y-48423959D02*
X98475000Y-49413908D01*
%TO.C,C89*%
X104430000Y-173970000D02*
X102570000Y-173970000D01*
X104430000Y-173030000D02*
X104430000Y-173970000D01*
X102570000Y-173970000D02*
X102570000Y-173030000D01*
X102570000Y-173030000D02*
X104430000Y-173030000D01*
%TO.C,C92*%
X104430000Y-184220000D02*
X102570000Y-184220000D01*
X104430000Y-183280000D02*
X104430000Y-184220000D01*
X102570000Y-184220000D02*
X102570000Y-183280000D01*
X102570000Y-183280000D02*
X104430000Y-183280000D01*
%TO.C,LED115*%
X100225000Y-133400000D02*
X101625000Y-133400000D01*
X101625000Y-133400000D02*
X101625000Y-132000000D01*
X100225000Y-132000000D02*
X100225000Y-133400000D01*
X101625000Y-132000000D02*
X100225000Y-132000000D01*
%TO.C,LED104*%
X103600000Y-84350000D02*
X102200000Y-84350000D01*
X102200000Y-84350000D02*
X102200000Y-85750000D01*
X103600000Y-85750000D02*
X103600000Y-84350000D01*
X102200000Y-85750000D02*
X103600000Y-85750000D01*
%TO.C,LED93*%
X299950000Y-51675000D02*
X298550000Y-51675000D01*
X298550000Y-51675000D02*
X298550000Y-53075000D01*
X299950000Y-53075000D02*
X299950000Y-51675000D01*
X298550000Y-53075000D02*
X299950000Y-53075000D01*
%TO.C,C135*%
X262680000Y-144720000D02*
X260820000Y-144720000D01*
X262680000Y-143780000D02*
X262680000Y-144720000D01*
X260820000Y-144720000D02*
X260820000Y-143780000D01*
X260820000Y-143780000D02*
X262680000Y-143780000D01*
%TO.C,C48*%
X261239949Y-119424731D02*
X259924731Y-120739949D01*
X260575269Y-118760051D02*
X261239949Y-119424731D01*
X259924731Y-120739949D02*
X259260051Y-120075269D01*
X259260051Y-120075269D02*
X260575269Y-118760051D01*
%TO.C,C68*%
X101260051Y-70575269D02*
X102575269Y-69260051D01*
X101924731Y-71239949D02*
X101260051Y-70575269D01*
X102575269Y-69260051D02*
X103239949Y-69924731D01*
X103239949Y-69924731D02*
X101924731Y-71239949D01*
%TO.C,LED103*%
X99475000Y-92125000D02*
X100875000Y-92125000D01*
X100875000Y-92125000D02*
X100875000Y-90725000D01*
X99475000Y-90725000D02*
X99475000Y-92125000D01*
X100875000Y-90725000D02*
X99475000Y-90725000D01*
%TO.C,J2_POWER_IN1*%
X243600000Y-198750000D02*
X243600000Y-190500000D01*
X243600000Y-190500000D02*
X233590000Y-190500000D01*
X233590000Y-198750000D02*
X243600000Y-198750000D01*
X233590000Y-190500000D02*
X233590000Y-198750000D01*
%TO.C,LED92*%
X299489949Y-62000000D02*
X298500000Y-61010051D01*
X298500000Y-61010051D02*
X297510051Y-62000000D01*
X298500000Y-62989949D02*
X299489949Y-62000000D01*
X297510051Y-62000000D02*
X298500000Y-62989949D01*
%TD*%
M02*
