%TF.GenerationSoftware,KiCad,Pcbnew,7.0.1*%
%TF.CreationDate,2023-09-17T14:31:18-07:00*%
%TF.ProjectId,vancouver-skytrain-pcb,76616e63-6f75-4766-9572-2d736b797472,rev?*%
%TF.SameCoordinates,Original*%
%TF.FileFunction,Paste,Top*%
%TF.FilePolarity,Positive*%
%FSLAX46Y46*%
G04 Gerber Fmt 4.6, Leading zero omitted, Abs format (unit mm)*
G04 Created by KiCad (PCBNEW 7.0.1) date 2023-09-17 14:31:18*
%MOMM*%
%LPD*%
G01*
G04 APERTURE LIST*
G04 Aperture macros list*
%AMRoundRect*
0 Rectangle with rounded corners*
0 $1 Rounding radius*
0 $2 $3 $4 $5 $6 $7 $8 $9 X,Y pos of 4 corners*
0 Add a 4 corners polygon primitive as box body*
4,1,4,$2,$3,$4,$5,$6,$7,$8,$9,$2,$3,0*
0 Add four circle primitives for the rounded corners*
1,1,$1+$1,$2,$3*
1,1,$1+$1,$4,$5*
1,1,$1+$1,$6,$7*
1,1,$1+$1,$8,$9*
0 Add four rect primitives between the rounded corners*
20,1,$1+$1,$2,$3,$4,$5,0*
20,1,$1+$1,$4,$5,$6,$7,0*
20,1,$1+$1,$6,$7,$8,$9,0*
20,1,$1+$1,$8,$9,$2,$3,0*%
%AMFreePoly0*
4,1,9,3.862500,-0.866500,0.737500,-0.866500,0.737500,-0.450000,-0.737500,-0.450000,-0.737500,0.450000,0.737500,0.450000,0.737500,0.866500,3.862500,0.866500,3.862500,-0.866500,3.862500,-0.866500,$1*%
G04 Aperture macros list end*
%ADD10RoundRect,0.147500X-0.172500X0.147500X-0.172500X-0.147500X0.172500X-0.147500X0.172500X0.147500X0*%
%ADD11RoundRect,0.112500X-0.112500X-0.112500X0.112500X-0.112500X0.112500X0.112500X-0.112500X0.112500X0*%
%ADD12RoundRect,0.112500X-0.112500X0.112500X-0.112500X-0.112500X0.112500X-0.112500X0.112500X0.112500X0*%
%ADD13RoundRect,0.112500X-0.159099X0.000000X0.000000X-0.159099X0.159099X0.000000X0.000000X0.159099X0*%
%ADD14RoundRect,0.147500X0.226274X0.017678X0.017678X0.226274X-0.226274X-0.017678X-0.017678X-0.226274X0*%
%ADD15RoundRect,0.112500X0.000000X0.159099X-0.159099X0.000000X0.000000X-0.159099X0.159099X0.000000X0*%
%ADD16RoundRect,0.147500X-0.226274X-0.017678X-0.017678X-0.226274X0.226274X0.017678X0.017678X0.226274X0*%
%ADD17RoundRect,0.147500X0.147500X0.172500X-0.147500X0.172500X-0.147500X-0.172500X0.147500X-0.172500X0*%
%ADD18RoundRect,0.147500X-0.147500X-0.172500X0.147500X-0.172500X0.147500X0.172500X-0.147500X0.172500X0*%
%ADD19RoundRect,0.147500X0.172500X-0.147500X0.172500X0.147500X-0.172500X0.147500X-0.172500X-0.147500X0*%
%ADD20RoundRect,0.112500X0.112500X0.112500X-0.112500X0.112500X-0.112500X-0.112500X0.112500X-0.112500X0*%
%ADD21RoundRect,0.147500X0.017678X-0.226274X0.226274X-0.017678X-0.017678X0.226274X-0.226274X0.017678X0*%
%ADD22RoundRect,0.112500X0.112500X-0.112500X0.112500X0.112500X-0.112500X0.112500X-0.112500X-0.112500X0*%
%ADD23R,0.500000X0.600000*%
%ADD24RoundRect,0.112500X0.159099X0.000000X0.000000X0.159099X-0.159099X0.000000X0.000000X-0.159099X0*%
%ADD25RoundRect,0.147500X-0.017678X0.226274X-0.226274X0.017678X0.017678X-0.226274X0.226274X-0.017678X0*%
%ADD26RoundRect,0.112500X0.000000X-0.159099X0.159099X0.000000X0.000000X0.159099X-0.159099X0.000000X0*%
%ADD27RoundRect,0.218750X0.218750X0.256250X-0.218750X0.256250X-0.218750X-0.256250X0.218750X-0.256250X0*%
%ADD28R,0.900000X1.300000*%
%ADD29FreePoly0,90.000000*%
%ADD30RoundRect,0.218750X-0.256250X0.218750X-0.256250X-0.218750X0.256250X-0.218750X0.256250X0.218750X0*%
%ADD31RoundRect,0.135000X-0.135000X-0.185000X0.135000X-0.185000X0.135000X0.185000X-0.135000X0.185000X0*%
%ADD32R,1.500000X0.900000*%
%ADD33R,0.900000X1.500000*%
%ADD34R,1.050000X1.050000*%
%ADD35RoundRect,0.150000X0.512500X0.150000X-0.512500X0.150000X-0.512500X-0.150000X0.512500X-0.150000X0*%
G04 APERTURE END LIST*
D10*
%TO.C,C42*%
X83500000Y-90265000D03*
X83500000Y-91235000D03*
%TD*%
D11*
%TO.C,LED66*%
X119075000Y-83775000D03*
X119925000Y-83775000D03*
X119075000Y-84625000D03*
X119925000Y-84625000D03*
%TD*%
D12*
%TO.C,LED122*%
X72575000Y-160575000D03*
X72575000Y-161425000D03*
X71725000Y-160575000D03*
X71725000Y-161425000D03*
%TD*%
D13*
%TO.C,LED20*%
X99752082Y-46547918D03*
X100353123Y-47148959D03*
X99151041Y-47148959D03*
X99752082Y-47750000D03*
%TD*%
D14*
%TO.C,C66*%
X91842947Y-49842947D03*
X91157053Y-49157053D03*
%TD*%
D11*
%TO.C,LED67*%
X111225000Y-91275000D03*
X112075000Y-91275000D03*
X111225000Y-92125000D03*
X112075000Y-92125000D03*
%TD*%
D15*
%TO.C,LED28*%
X159326041Y-110575000D03*
X158725000Y-111176041D03*
X158725000Y-109973959D03*
X158123959Y-110575000D03*
%TD*%
D14*
%TO.C,C28*%
X98268988Y-50416906D03*
X97583094Y-49731012D03*
%TD*%
D12*
%TO.C,LED42*%
X252050000Y-93200000D03*
X252050000Y-94050000D03*
X251200000Y-93200000D03*
X251200000Y-94050000D03*
%TD*%
D16*
%TO.C,C26*%
X88657053Y-46657053D03*
X89342947Y-47342947D03*
%TD*%
D13*
%TO.C,LED11*%
X174975000Y-123622918D03*
X175576041Y-124223959D03*
X174373959Y-124223959D03*
X174975000Y-124825000D03*
%TD*%
D10*
%TO.C,R1*%
X278037500Y-170515000D03*
X278037500Y-171485000D03*
%TD*%
D13*
%TO.C,LED18*%
X94425000Y-58547918D03*
X95026041Y-59148959D03*
X93823959Y-59148959D03*
X94425000Y-59750000D03*
%TD*%
D17*
%TO.C,C80*%
X103985000Y-116000000D03*
X103015000Y-116000000D03*
%TD*%
D18*
%TO.C,C87*%
X99750000Y-163500000D03*
X100720000Y-163500000D03*
%TD*%
D12*
%TO.C,LED72*%
X72800000Y-92975000D03*
X72800000Y-93825000D03*
X71950000Y-92975000D03*
X71950000Y-93825000D03*
%TD*%
D18*
%TO.C,C84*%
X99765000Y-141000000D03*
X100735000Y-141000000D03*
%TD*%
D11*
%TO.C,LED62*%
X168200000Y-91175000D03*
X169050000Y-91175000D03*
X168200000Y-92025000D03*
X169050000Y-92025000D03*
%TD*%
%TO.C,LED9*%
X191375000Y-135200000D03*
X192225000Y-135200000D03*
X191375000Y-136050000D03*
X192225000Y-136050000D03*
%TD*%
D12*
%TO.C,LED34*%
X216975000Y-136950000D03*
X216975000Y-137800000D03*
X216125000Y-136950000D03*
X216125000Y-137800000D03*
%TD*%
D19*
%TO.C,C93*%
X83750000Y-162235000D03*
X83750000Y-161265000D03*
%TD*%
D18*
%TO.C,C85*%
X99765000Y-153250000D03*
X100735000Y-153250000D03*
%TD*%
D13*
%TO.C,LED17*%
X102750000Y-66597918D03*
X103351041Y-67198959D03*
X102148959Y-67198959D03*
X102750000Y-67800000D03*
%TD*%
D19*
%TO.C,C99*%
X205750000Y-94735000D03*
X205750000Y-93765000D03*
%TD*%
D18*
%TO.C,C78*%
X99750000Y-116000000D03*
X100720000Y-116000000D03*
%TD*%
D19*
%TO.C,C107*%
X248250000Y-94985000D03*
X248250000Y-94015000D03*
%TD*%
D20*
%TO.C,LED47*%
X259425000Y-143050000D03*
X258575000Y-143050000D03*
X259425000Y-142200000D03*
X258575000Y-142200000D03*
%TD*%
D15*
%TO.C,LED31*%
X182327082Y-133551041D03*
X181726041Y-134152082D03*
X181726041Y-132950000D03*
X181125000Y-133551041D03*
%TD*%
D11*
%TO.C,LED99*%
X102400000Y-142050000D03*
X103250000Y-142050000D03*
X102400000Y-142900000D03*
X103250000Y-142900000D03*
%TD*%
D20*
%TO.C,LED112*%
X100575000Y-93675000D03*
X99725000Y-93675000D03*
X100575000Y-92825000D03*
X99725000Y-92825000D03*
%TD*%
D18*
%TO.C,C47*%
X257515000Y-133250000D03*
X258485000Y-133250000D03*
%TD*%
D19*
%TO.C,C22*%
X121000000Y-87235000D03*
X121000000Y-86265000D03*
%TD*%
D14*
%TO.C,C34*%
X86842947Y-62592947D03*
X86157053Y-61907053D03*
%TD*%
D13*
%TO.C,LED12*%
X167525000Y-116272918D03*
X168126041Y-116873959D03*
X166923959Y-116873959D03*
X167525000Y-117475000D03*
%TD*%
D17*
%TO.C,C119*%
X261985000Y-71750000D03*
X261015000Y-71750000D03*
%TD*%
D21*
%TO.C,C15*%
X158907053Y-112842947D03*
X159592947Y-112157053D03*
%TD*%
D22*
%TO.C,LED114*%
X100650000Y-117925000D03*
X100650000Y-117075000D03*
X101500000Y-117925000D03*
X101500000Y-117075000D03*
%TD*%
%TO.C,LED53*%
X272925000Y-61800000D03*
X272925000Y-60950000D03*
X273775000Y-61800000D03*
X273775000Y-60950000D03*
%TD*%
D11*
%TO.C,LED97*%
X102325000Y-164675000D03*
X103175000Y-164675000D03*
X102325000Y-165525000D03*
X103175000Y-165525000D03*
%TD*%
D10*
%TO.C,C60*%
X218250000Y-134265000D03*
X218250000Y-135235000D03*
%TD*%
%TO.C,C108*%
X248250000Y-90530000D03*
X248250000Y-91500000D03*
%TD*%
D11*
%TO.C,LED120*%
X61675000Y-158900000D03*
X62525000Y-158900000D03*
X61675000Y-159750000D03*
X62525000Y-159750000D03*
%TD*%
D22*
%TO.C,LED52*%
X284425000Y-61725000D03*
X284425000Y-60875000D03*
X285275000Y-61725000D03*
X285275000Y-60875000D03*
%TD*%
D23*
%TO.C,Q2*%
X301000000Y-177250000D03*
X302000000Y-177250000D03*
X301500000Y-175950000D03*
%TD*%
D10*
%TO.C,C65*%
X113250000Y-90265000D03*
X113250000Y-91235000D03*
%TD*%
D11*
%TO.C,LED58*%
X216125000Y-91250000D03*
X216975000Y-91250000D03*
X216125000Y-92100000D03*
X216975000Y-92100000D03*
%TD*%
D12*
%TO.C,LED78*%
X131625000Y-85425000D03*
X131625000Y-86275000D03*
X130775000Y-85425000D03*
X130775000Y-86275000D03*
%TD*%
D13*
%TO.C,LED36*%
X239550000Y-120072918D03*
X240151041Y-120673959D03*
X238948959Y-120673959D03*
X239550000Y-121275000D03*
%TD*%
D12*
%TO.C,LED85*%
X216950000Y-93000000D03*
X216950000Y-93850000D03*
X216100000Y-93000000D03*
X216100000Y-93850000D03*
%TD*%
%TO.C,LED77*%
X119925000Y-85500000D03*
X119925000Y-86350000D03*
X119075000Y-85500000D03*
X119075000Y-86350000D03*
%TD*%
%TO.C,LED75*%
X102400000Y-92825000D03*
X102400000Y-93675000D03*
X101550000Y-92825000D03*
X101550000Y-93675000D03*
%TD*%
D17*
%TO.C,C83*%
X103985000Y-141000000D03*
X103015000Y-141000000D03*
%TD*%
D24*
%TO.C,LED108*%
X97226041Y-47750000D03*
X96625000Y-47148959D03*
X97827082Y-47148959D03*
X97226041Y-46547918D03*
%TD*%
D20*
%TO.C,LED54*%
X259425000Y-70675000D03*
X258575000Y-70675000D03*
X259425000Y-69825000D03*
X258575000Y-69825000D03*
%TD*%
%TO.C,LED90*%
X273775000Y-63550000D03*
X272925000Y-63550000D03*
X273775000Y-62700000D03*
X272925000Y-62700000D03*
%TD*%
D11*
%TO.C,LED65*%
X130775000Y-83675000D03*
X131625000Y-83675000D03*
X130775000Y-84525000D03*
X131625000Y-84525000D03*
%TD*%
D16*
%TO.C,C133*%
X253407053Y-102157053D03*
X254092947Y-102842947D03*
%TD*%
D18*
%TO.C,C134*%
X257515000Y-144250000D03*
X258485000Y-144250000D03*
%TD*%
D10*
%TO.C,C96*%
X73750000Y-158015000D03*
X73750000Y-158985000D03*
%TD*%
D18*
%TO.C,C90*%
X99765000Y-173500000D03*
X100735000Y-173500000D03*
%TD*%
D16*
%TO.C,C39*%
X83657053Y-59407053D03*
X84342947Y-60092947D03*
%TD*%
D24*
%TO.C,LED22*%
X90773959Y-47101041D03*
X90172918Y-46500000D03*
X91375000Y-46500000D03*
X90773959Y-45898959D03*
%TD*%
D21*
%TO.C,C19*%
X138232053Y-92192947D03*
X138917947Y-91507053D03*
%TD*%
D25*
%TO.C,C13*%
X185092947Y-132407053D03*
X184407053Y-133092947D03*
%TD*%
D19*
%TO.C,C10*%
X218250000Y-138720000D03*
X218250000Y-137750000D03*
%TD*%
D15*
%TO.C,LED27*%
X151826041Y-103026041D03*
X151225000Y-103627082D03*
X151225000Y-102425000D03*
X150623959Y-103026041D03*
%TD*%
D16*
%TO.C,C7*%
X238407053Y-117157053D03*
X239092947Y-117842947D03*
%TD*%
D22*
%TO.C,LED55*%
X249375000Y-92250000D03*
X249375000Y-91400000D03*
X250225000Y-92250000D03*
X250225000Y-91400000D03*
%TD*%
D10*
%TO.C,C118*%
X205750000Y-90390000D03*
X205750000Y-91360000D03*
%TD*%
D22*
%TO.C,LED124*%
X100575000Y-165500000D03*
X100575000Y-164650000D03*
X101425000Y-165500000D03*
X101425000Y-164650000D03*
%TD*%
D25*
%TO.C,C25*%
X96592947Y-59157053D03*
X95907053Y-59842947D03*
%TD*%
D19*
%TO.C,C115*%
X230750000Y-94735000D03*
X230750000Y-93765000D03*
%TD*%
D18*
%TO.C,C55*%
X249765000Y-174750000D03*
X250735000Y-174750000D03*
%TD*%
D11*
%TO.C,LED8*%
X203700000Y-135250000D03*
X204550000Y-135250000D03*
X203700000Y-136100000D03*
X204550000Y-136100000D03*
%TD*%
D10*
%TO.C,C112*%
X238750000Y-90515000D03*
X238750000Y-91485000D03*
%TD*%
D19*
%TO.C,C95*%
X73750000Y-162235000D03*
X73750000Y-161265000D03*
%TD*%
%TO.C,C64*%
X113250000Y-94735000D03*
X113250000Y-93765000D03*
%TD*%
%TO.C,C117*%
X218250000Y-94735000D03*
X218250000Y-93765000D03*
%TD*%
D10*
%TO.C,C73*%
X170250000Y-90265000D03*
X170250000Y-91235000D03*
%TD*%
D19*
%TO.C,C110*%
X243500000Y-94750000D03*
X243500000Y-93780000D03*
%TD*%
%TO.C,C113*%
X238750000Y-94800000D03*
X238750000Y-93830000D03*
%TD*%
%TO.C,R3*%
X298500000Y-179335000D03*
X298500000Y-178365000D03*
%TD*%
D15*
%TO.C,LED45*%
X257601041Y-120522918D03*
X257000000Y-121123959D03*
X257000000Y-119921877D03*
X256398959Y-120522918D03*
%TD*%
D25*
%TO.C,C21*%
X145167947Y-92257053D03*
X144482053Y-92942947D03*
%TD*%
D22*
%TO.C,LED56*%
X239825000Y-92090000D03*
X239825000Y-91240000D03*
X240675000Y-92090000D03*
X240675000Y-91240000D03*
%TD*%
D15*
%TO.C,LED127*%
X117351041Y-32750000D03*
X116750000Y-33351041D03*
X116750000Y-32148959D03*
X116148959Y-32750000D03*
%TD*%
D12*
%TO.C,LED74*%
X92475000Y-92950000D03*
X92475000Y-93800000D03*
X91625000Y-92950000D03*
X91625000Y-93800000D03*
%TD*%
%TO.C,LED94*%
X299675000Y-43175000D03*
X299675000Y-44025000D03*
X298825000Y-43175000D03*
X298825000Y-44025000D03*
%TD*%
D18*
%TO.C,C79*%
X249765000Y-171000000D03*
X250735000Y-171000000D03*
%TD*%
D21*
%TO.C,C69*%
X111657053Y-80592947D03*
X112342947Y-79907053D03*
%TD*%
D10*
%TO.C,C61*%
X98500000Y-90015000D03*
X98500000Y-90985000D03*
%TD*%
D18*
%TO.C,C136*%
X257515000Y-155250000D03*
X258485000Y-155250000D03*
%TD*%
D10*
%TO.C,C111*%
X243500000Y-90515000D03*
X243500000Y-91485000D03*
%TD*%
D20*
%TO.C,LED48*%
X259450000Y-154025000D03*
X258600000Y-154025000D03*
X259450000Y-153175000D03*
X258600000Y-153175000D03*
%TD*%
D11*
%TO.C,LED61*%
X181525000Y-91225000D03*
X182375000Y-91225000D03*
X181525000Y-92075000D03*
X182375000Y-92075000D03*
%TD*%
D25*
%TO.C,C24*%
X104842947Y-67407053D03*
X104157053Y-68092947D03*
%TD*%
D18*
%TO.C,C103*%
X249765000Y-172250000D03*
X250735000Y-172250000D03*
%TD*%
D22*
%TO.C,LED116*%
X100625000Y-142875000D03*
X100625000Y-142025000D03*
X101475000Y-142875000D03*
X101475000Y-142025000D03*
%TD*%
D10*
%TO.C,C114*%
X230750000Y-90515000D03*
X230750000Y-91485000D03*
%TD*%
D12*
%TO.C,LED76*%
X112075000Y-93025000D03*
X112075000Y-93875000D03*
X111225000Y-93025000D03*
X111225000Y-93875000D03*
%TD*%
D18*
%TO.C,C91*%
X99765000Y-183750000D03*
X100735000Y-183750000D03*
%TD*%
D17*
%TO.C,R5*%
X299235000Y-174600000D03*
X298265000Y-174600000D03*
%TD*%
D20*
%TO.C,LED46*%
X259450000Y-131975000D03*
X258600000Y-131975000D03*
X259450000Y-131125000D03*
X258600000Y-131125000D03*
%TD*%
D25*
%TO.C,C56*%
X177092947Y-124407053D03*
X176407053Y-125092947D03*
%TD*%
D16*
%TO.C,C33*%
X245907053Y-109657053D03*
X246592947Y-110342947D03*
%TD*%
D12*
%TO.C,LED83*%
X192275000Y-92900000D03*
X192275000Y-93750000D03*
X191425000Y-92900000D03*
X191425000Y-93750000D03*
%TD*%
D11*
%TO.C,LED63*%
X154975000Y-91150000D03*
X155825000Y-91150000D03*
X154975000Y-92000000D03*
X155825000Y-92000000D03*
%TD*%
D14*
%TO.C,C127*%
X298342947Y-64092947D03*
X297657053Y-63407053D03*
%TD*%
D12*
%TO.C,LED41*%
X242450000Y-93015000D03*
X242450000Y-93865000D03*
X241600000Y-93015000D03*
X241600000Y-93865000D03*
%TD*%
%TO.C,LED73*%
X82475000Y-93000000D03*
X82475000Y-93850000D03*
X81625000Y-93000000D03*
X81625000Y-93850000D03*
%TD*%
D13*
%TO.C,LED14*%
X152476041Y-101175000D03*
X153077082Y-101776041D03*
X151875000Y-101776041D03*
X152476041Y-102377082D03*
%TD*%
D19*
%TO.C,C74*%
X170250000Y-94485000D03*
X170250000Y-93515000D03*
%TD*%
D18*
%TO.C,C120*%
X249765000Y-173500000D03*
X250735000Y-173500000D03*
%TD*%
D26*
%TO.C,LED5*%
X237723959Y-119448959D03*
X238325000Y-118847918D03*
X238325000Y-120050000D03*
X238926041Y-119448959D03*
%TD*%
D10*
%TO.C,C94*%
X83750000Y-158015000D03*
X83750000Y-158985000D03*
%TD*%
D16*
%TO.C,C5*%
X116657053Y-30657053D03*
X117342947Y-31342947D03*
%TD*%
D13*
%TO.C,LED37*%
X246925000Y-112547918D03*
X247526041Y-113148959D03*
X246323959Y-113148959D03*
X246925000Y-113750000D03*
%TD*%
D24*
%TO.C,LED51*%
X297125000Y-61352082D03*
X296523959Y-60751041D03*
X297726041Y-60751041D03*
X297125000Y-60150000D03*
%TD*%
D17*
%TO.C,C86*%
X103985000Y-153250000D03*
X103015000Y-153250000D03*
%TD*%
D16*
%TO.C,C128*%
X294907053Y-60907053D03*
X295592947Y-61592947D03*
%TD*%
D17*
%TO.C,C130*%
X300485000Y-54000000D03*
X299515000Y-54000000D03*
%TD*%
D19*
%TO.C,C58*%
X193500000Y-138720000D03*
X193500000Y-137750000D03*
%TD*%
D25*
%TO.C,C20*%
X141417947Y-88757053D03*
X140732053Y-89442947D03*
%TD*%
D15*
%TO.C,LED19*%
X92652082Y-47750000D03*
X92051041Y-48351041D03*
X92051041Y-47148959D03*
X91450000Y-47750000D03*
%TD*%
D20*
%TO.C,LED111*%
X101550000Y-85450000D03*
X100700000Y-85450000D03*
X101550000Y-84600000D03*
X100700000Y-84600000D03*
%TD*%
%TO.C,LED91*%
X285250000Y-63500000D03*
X284400000Y-63500000D03*
X285250000Y-62650000D03*
X284400000Y-62650000D03*
%TD*%
D13*
%TO.C,LED15*%
X142851041Y-91647918D03*
X143452082Y-92248959D03*
X142250000Y-92248959D03*
X142851041Y-92850000D03*
%TD*%
D19*
%TO.C,C97*%
X63500000Y-162235000D03*
X63500000Y-161265000D03*
%TD*%
D11*
%TO.C,LED98*%
X102325000Y-154325000D03*
X103175000Y-154325000D03*
X102325000Y-155175000D03*
X103175000Y-155175000D03*
%TD*%
D16*
%TO.C,C31*%
X98407053Y-43831012D03*
X99092947Y-44516906D03*
%TD*%
D26*
%TO.C,LED44*%
X245072918Y-111925000D03*
X245673959Y-111323959D03*
X245673959Y-112526041D03*
X246275000Y-111925000D03*
%TD*%
D10*
%TO.C,C71*%
X132750000Y-83015000D03*
X132750000Y-83985000D03*
%TD*%
%TO.C,C2*%
X285500000Y-190025000D03*
X285500000Y-190995000D03*
%TD*%
D17*
%TO.C,C77*%
X103985000Y-103250000D03*
X103015000Y-103250000D03*
%TD*%
D12*
%TO.C,LED84*%
X204550000Y-93000000D03*
X204550000Y-93850000D03*
X203700000Y-93000000D03*
X203700000Y-93850000D03*
%TD*%
D15*
%TO.C,LED24*%
X102100000Y-68450000D03*
X101498959Y-69051041D03*
X101498959Y-67848959D03*
X100897918Y-68450000D03*
%TD*%
D10*
%TO.C,C70*%
X121000000Y-83015000D03*
X121000000Y-83985000D03*
%TD*%
D21*
%TO.C,C16*%
X151407053Y-105342947D03*
X152092947Y-104657053D03*
%TD*%
D27*
%TO.C,D1*%
X281325000Y-171000000D03*
X279750000Y-171000000D03*
%TD*%
D12*
%TO.C,LED33*%
X204550000Y-137000000D03*
X204550000Y-137850000D03*
X203700000Y-137000000D03*
X203700000Y-137850000D03*
%TD*%
D17*
%TO.C,C35*%
X104235000Y-86500000D03*
X103265000Y-86500000D03*
%TD*%
D11*
%TO.C,LED7*%
X216125000Y-135200000D03*
X216975000Y-135200000D03*
X216125000Y-136050000D03*
X216975000Y-136050000D03*
%TD*%
D13*
%TO.C,LED16*%
X112723959Y-76648959D03*
X113325000Y-77250000D03*
X112122918Y-77250000D03*
X112723959Y-77851041D03*
%TD*%
D17*
%TO.C,C138*%
X262235000Y-155250000D03*
X261265000Y-155250000D03*
%TD*%
D10*
%TO.C,C50*%
X157000000Y-90315000D03*
X157000000Y-91285000D03*
%TD*%
D11*
%TO.C,LED60*%
X191425000Y-91150000D03*
X192275000Y-91150000D03*
X191425000Y-92000000D03*
X192275000Y-92000000D03*
%TD*%
D10*
%TO.C,C109*%
X253250000Y-90515000D03*
X253250000Y-91485000D03*
%TD*%
D12*
%TO.C,LED2*%
X261175000Y-142200000D03*
X261175000Y-143050000D03*
X260325000Y-142200000D03*
X260325000Y-143050000D03*
%TD*%
D19*
%TO.C,C124*%
X271750000Y-64485000D03*
X271750000Y-63515000D03*
%TD*%
D12*
%TO.C,LED82*%
X182375000Y-92975000D03*
X182375000Y-93825000D03*
X181525000Y-92975000D03*
X181525000Y-93825000D03*
%TD*%
D19*
%TO.C,C104*%
X183750000Y-94485000D03*
X183750000Y-93515000D03*
%TD*%
D28*
%TO.C,U_POWER1*%
X237230000Y-181740000D03*
D29*
X238730000Y-181652500D03*
D28*
X240230000Y-181740000D03*
%TD*%
D11*
%TO.C,LED57*%
X228500000Y-91250000D03*
X229350000Y-91250000D03*
X228500000Y-92100000D03*
X229350000Y-92100000D03*
%TD*%
D15*
%TO.C,LED30*%
X174326041Y-125475000D03*
X173725000Y-126076041D03*
X173725000Y-124873959D03*
X173123959Y-125475000D03*
%TD*%
D26*
%TO.C,LED6*%
X230148959Y-126823959D03*
X230750000Y-126222918D03*
X230750000Y-127425000D03*
X231351041Y-126823959D03*
%TD*%
D21*
%TO.C,C6*%
X257157053Y-122592947D03*
X257842947Y-121907053D03*
%TD*%
D10*
%TO.C,C63*%
X103500000Y-90000000D03*
X103500000Y-90970000D03*
%TD*%
D12*
%TO.C,LED3*%
X261200000Y-131150000D03*
X261200000Y-132000000D03*
X260350000Y-131150000D03*
X260350000Y-132000000D03*
%TD*%
D22*
%TO.C,LED126*%
X100775000Y-185675000D03*
X100775000Y-184825000D03*
X101625000Y-185675000D03*
X101625000Y-184825000D03*
%TD*%
D19*
%TO.C,C51*%
X157000000Y-94535000D03*
X157000000Y-93565000D03*
%TD*%
%TO.C,C75*%
X98500000Y-94485000D03*
X98500000Y-93515000D03*
%TD*%
D17*
%TO.C,C88*%
X103985000Y-163500000D03*
X103015000Y-163500000D03*
%TD*%
D15*
%TO.C,LED110*%
X91450000Y-73400000D03*
X90848959Y-74001041D03*
X90848959Y-72798959D03*
X90247918Y-73400000D03*
%TD*%
D20*
%TO.C,LED88*%
X250225000Y-94050000D03*
X249375000Y-94050000D03*
X250225000Y-93200000D03*
X249375000Y-93200000D03*
%TD*%
D12*
%TO.C,LED123*%
X82525000Y-160650000D03*
X82525000Y-161500000D03*
X81675000Y-160650000D03*
X81675000Y-161500000D03*
%TD*%
%TO.C,LED32*%
X192250000Y-136950000D03*
X192250000Y-137800000D03*
X191400000Y-136950000D03*
X191400000Y-137800000D03*
%TD*%
D18*
%TO.C,C131*%
X296015000Y-45000000D03*
X296985000Y-45000000D03*
%TD*%
D19*
%TO.C,C45*%
X93500000Y-94735000D03*
X93500000Y-93765000D03*
%TD*%
D25*
%TO.C,C52*%
X162342947Y-109407053D03*
X161657053Y-110092947D03*
%TD*%
D26*
%TO.C,LED21*%
X97898959Y-45898959D03*
X98500000Y-45297918D03*
X98500000Y-46500000D03*
X99101041Y-45898959D03*
%TD*%
D11*
%TO.C,LED70*%
X81625000Y-91225000D03*
X82475000Y-91225000D03*
X81625000Y-92075000D03*
X82475000Y-92075000D03*
%TD*%
D22*
%TO.C,LED113*%
X100625000Y-105300000D03*
X100625000Y-104450000D03*
X101475000Y-105300000D03*
X101475000Y-104450000D03*
%TD*%
D14*
%TO.C,C122*%
X256592947Y-105342947D03*
X255907053Y-104657053D03*
%TD*%
D30*
%TO.C,C3*%
X246500000Y-184250000D03*
X246500000Y-185825000D03*
%TD*%
D11*
%TO.C,LED40*%
X241600000Y-91240000D03*
X242450000Y-91240000D03*
X241600000Y-92090000D03*
X242450000Y-92090000D03*
%TD*%
D10*
%TO.C,C12*%
X193500000Y-134265000D03*
X193500000Y-135235000D03*
%TD*%
%TO.C,C100*%
X193500000Y-90375000D03*
X193500000Y-91345000D03*
%TD*%
D11*
%TO.C,LED96*%
X102400000Y-174775000D03*
X103250000Y-174775000D03*
X102400000Y-175625000D03*
X103250000Y-175625000D03*
%TD*%
D10*
%TO.C,C125*%
X283250000Y-60015000D03*
X283250000Y-60985000D03*
%TD*%
D25*
%TO.C,C38*%
X94342947Y-72407053D03*
X93657053Y-73092947D03*
%TD*%
D15*
%TO.C,LED106*%
X87701041Y-60376041D03*
X87100000Y-60977082D03*
X87100000Y-59775000D03*
X86498959Y-60376041D03*
%TD*%
D12*
%TO.C,LED80*%
X155850000Y-92925000D03*
X155850000Y-93775000D03*
X155000000Y-92925000D03*
X155000000Y-93775000D03*
%TD*%
D31*
%TO.C,R2*%
X285450000Y-176000000D03*
X286470000Y-176000000D03*
%TD*%
D17*
%TO.C,C1*%
X239735000Y-189500000D03*
X238765000Y-189500000D03*
%TD*%
D19*
%TO.C,C62*%
X103500000Y-94485000D03*
X103500000Y-93515000D03*
%TD*%
D22*
%TO.C,LED117*%
X100575000Y-155175000D03*
X100575000Y-154325000D03*
X101425000Y-155175000D03*
X101425000Y-154325000D03*
%TD*%
D14*
%TO.C,C29*%
X101818988Y-47016906D03*
X101133094Y-46331012D03*
%TD*%
D18*
%TO.C,C76*%
X99765000Y-103250000D03*
X100735000Y-103250000D03*
%TD*%
D25*
%TO.C,C23*%
X114842947Y-77407053D03*
X114157053Y-78092947D03*
%TD*%
D19*
%TO.C,C59*%
X205750000Y-138735000D03*
X205750000Y-137765000D03*
%TD*%
D18*
%TO.C,C4*%
X301280000Y-174600000D03*
X302250000Y-174600000D03*
%TD*%
D10*
%TO.C,C116*%
X218250000Y-90515000D03*
X218250000Y-91485000D03*
%TD*%
D15*
%TO.C,LED26*%
X142202082Y-93500000D03*
X141601041Y-94101041D03*
X141601041Y-92898959D03*
X141000000Y-93500000D03*
%TD*%
D21*
%TO.C,C57*%
X181907053Y-135592947D03*
X182592947Y-134907053D03*
%TD*%
D10*
%TO.C,C102*%
X183750000Y-90265000D03*
X183750000Y-91235000D03*
%TD*%
D18*
%TO.C,C30*%
X249765000Y-177230000D03*
X250735000Y-177230000D03*
%TD*%
D10*
%TO.C,C44*%
X93500000Y-90265000D03*
X93500000Y-91235000D03*
%TD*%
D18*
%TO.C,C81*%
X99765000Y-131000000D03*
X100735000Y-131000000D03*
%TD*%
%TO.C,C129*%
X296015000Y-54000000D03*
X296985000Y-54000000D03*
%TD*%
D16*
%TO.C,C27*%
X95083094Y-47231012D03*
X95768988Y-47916906D03*
%TD*%
D19*
%TO.C,C72*%
X132750000Y-87220000D03*
X132750000Y-86250000D03*
%TD*%
D24*
%TO.C,LED79*%
X140350000Y-92900000D03*
X139748959Y-92298959D03*
X140951041Y-92298959D03*
X140350000Y-91697918D03*
%TD*%
D26*
%TO.C,LED64*%
X140998959Y-91047918D03*
X141600000Y-90446877D03*
X141600000Y-91648959D03*
X142201041Y-91047918D03*
%TD*%
D32*
%TO.C,U_CPU1*%
X283750000Y-191260000D03*
X283750000Y-189990000D03*
X283750000Y-188720000D03*
X283750000Y-187450000D03*
X283750000Y-186180000D03*
X283750000Y-184910000D03*
X283750000Y-183640000D03*
X283750000Y-182370000D03*
X283750000Y-181100000D03*
X283750000Y-179830000D03*
X283750000Y-178560000D03*
X283750000Y-177290000D03*
X283750000Y-176020000D03*
X283750000Y-174750000D03*
D33*
X280710000Y-173500000D03*
X279440000Y-173500000D03*
X278170000Y-173500000D03*
X276900000Y-173500000D03*
X275630000Y-173500000D03*
X274360000Y-173500000D03*
X273090000Y-173500000D03*
X271820000Y-173500000D03*
X270550000Y-173500000D03*
X269280000Y-173500000D03*
D32*
X266250000Y-174750000D03*
X266250000Y-176020000D03*
X266250000Y-177290000D03*
X266250000Y-178560000D03*
X266250000Y-179830000D03*
X266250000Y-181100000D03*
X266250000Y-182370000D03*
X266250000Y-183640000D03*
X266250000Y-184910000D03*
X266250000Y-186180000D03*
X266250000Y-187450000D03*
X266250000Y-188720000D03*
X266250000Y-189990000D03*
X266250000Y-191260000D03*
D34*
X277205000Y-185445000D03*
X277205000Y-183920000D03*
X277205000Y-182395000D03*
X275680000Y-185445000D03*
X275680000Y-183920000D03*
X275680000Y-182395000D03*
X274155000Y-185445000D03*
X274155000Y-183920000D03*
X274155000Y-182395000D03*
%TD*%
D15*
%TO.C,LED25*%
X112075000Y-78500000D03*
X111473959Y-79101041D03*
X111473959Y-77898959D03*
X110872918Y-78500000D03*
%TD*%
D21*
%TO.C,C18*%
X141732053Y-95692947D03*
X142417947Y-95007053D03*
%TD*%
D10*
%TO.C,C11*%
X205750000Y-134265000D03*
X205750000Y-135235000D03*
%TD*%
D14*
%TO.C,C9*%
X234092947Y-127842947D03*
X233407053Y-127157053D03*
%TD*%
D16*
%TO.C,C49*%
X230907053Y-124657053D03*
X231592947Y-125342947D03*
%TD*%
D21*
%TO.C,C14*%
X173907053Y-127592947D03*
X174592947Y-126907053D03*
%TD*%
D17*
%TO.C,C82*%
X103985000Y-131000000D03*
X103015000Y-131000000D03*
%TD*%
D12*
%TO.C,LED86*%
X229350000Y-93000000D03*
X229350000Y-93850000D03*
X228500000Y-93000000D03*
X228500000Y-93850000D03*
%TD*%
D11*
%TO.C,LED71*%
X71975000Y-91200000D03*
X72825000Y-91200000D03*
X71975000Y-92050000D03*
X72825000Y-92050000D03*
%TD*%
D15*
%TO.C,LED29*%
X166876041Y-118125000D03*
X166275000Y-118726041D03*
X166275000Y-117523959D03*
X165673959Y-118125000D03*
%TD*%
D13*
%TO.C,LED4*%
X258275000Y-118697918D03*
X258876041Y-119298959D03*
X257673959Y-119298959D03*
X258275000Y-119900000D03*
%TD*%
D11*
%TO.C,LED101*%
X102400000Y-117100000D03*
X103250000Y-117100000D03*
X102400000Y-117950000D03*
X103250000Y-117950000D03*
%TD*%
D24*
%TO.C,LED109*%
X85848959Y-59726041D03*
X85247918Y-59125000D03*
X86450000Y-59125000D03*
X85848959Y-58523959D03*
%TD*%
D21*
%TO.C,C37*%
X91157053Y-75592947D03*
X91842947Y-74907053D03*
%TD*%
D11*
%TO.C,LED59*%
X203700000Y-91250000D03*
X204550000Y-91250000D03*
X203700000Y-92100000D03*
X204550000Y-92100000D03*
%TD*%
%TO.C,LED39*%
X251200000Y-91400000D03*
X252050000Y-91400000D03*
X251200000Y-92250000D03*
X252050000Y-92250000D03*
%TD*%
D13*
%TO.C,LED35*%
X231977082Y-127447918D03*
X232578123Y-128048959D03*
X231376041Y-128048959D03*
X231977082Y-128650000D03*
%TD*%
D21*
%TO.C,C67*%
X93407053Y-62342947D03*
X94092947Y-61657053D03*
%TD*%
D18*
%TO.C,C121*%
X257765000Y-71750000D03*
X258735000Y-71750000D03*
%TD*%
%TO.C,C36*%
X99765000Y-86500000D03*
X100735000Y-86500000D03*
%TD*%
D21*
%TO.C,C53*%
X166407053Y-120342947D03*
X167092947Y-119657053D03*
%TD*%
D12*
%TO.C,LED81*%
X169025000Y-92925000D03*
X169025000Y-93775000D03*
X168175000Y-92925000D03*
X168175000Y-93775000D03*
%TD*%
D14*
%TO.C,C32*%
X249092947Y-112842947D03*
X248407053Y-112157053D03*
%TD*%
D11*
%TO.C,LED100*%
X102250000Y-132300000D03*
X103100000Y-132300000D03*
X102250000Y-133150000D03*
X103100000Y-133150000D03*
%TD*%
D19*
%TO.C,C101*%
X193500000Y-94360000D03*
X193500000Y-93390000D03*
%TD*%
D10*
%TO.C,C105*%
X271750000Y-60015000D03*
X271750000Y-60985000D03*
%TD*%
D19*
%TO.C,R4*%
X301000000Y-179320000D03*
X301000000Y-178350000D03*
%TD*%
D10*
%TO.C,C41*%
X74000000Y-90265000D03*
X74000000Y-91235000D03*
%TD*%
D23*
%TO.C,Q1*%
X298500000Y-177250000D03*
X299500000Y-177250000D03*
X299000000Y-175950000D03*
%TD*%
D11*
%TO.C,LED118*%
X81675000Y-158900000D03*
X82525000Y-158900000D03*
X81675000Y-159750000D03*
X82525000Y-159750000D03*
%TD*%
D26*
%TO.C,LED43*%
X252772918Y-104100000D03*
X253373959Y-103498959D03*
X253373959Y-104701041D03*
X253975000Y-104100000D03*
%TD*%
D12*
%TO.C,LED89*%
X261175000Y-69825000D03*
X261175000Y-70675000D03*
X260325000Y-69825000D03*
X260325000Y-70675000D03*
%TD*%
D11*
%TO.C,LED102*%
X102400000Y-104475000D03*
X103250000Y-104475000D03*
X102400000Y-105325000D03*
X103250000Y-105325000D03*
%TD*%
D20*
%TO.C,LED87*%
X240675000Y-93865000D03*
X239825000Y-93865000D03*
X240675000Y-93015000D03*
X239825000Y-93015000D03*
%TD*%
%TO.C,LED49*%
X297925000Y-44025000D03*
X297075000Y-44025000D03*
X297925000Y-43175000D03*
X297075000Y-43175000D03*
%TD*%
D25*
%TO.C,C54*%
X169842947Y-116907053D03*
X169157053Y-117592947D03*
%TD*%
D12*
%TO.C,LED121*%
X62500000Y-160750000D03*
X62500000Y-161600000D03*
X61650000Y-160750000D03*
X61650000Y-161600000D03*
%TD*%
D13*
%TO.C,LED38*%
X254625000Y-104750000D03*
X255226041Y-105351041D03*
X254023959Y-105351041D03*
X254625000Y-105952082D03*
%TD*%
D20*
%TO.C,LED50*%
X297925000Y-52800000D03*
X297075000Y-52800000D03*
X297925000Y-51950000D03*
X297075000Y-51950000D03*
%TD*%
D25*
%TO.C,C17*%
X154592947Y-101907053D03*
X153907053Y-102592947D03*
%TD*%
D11*
%TO.C,LED119*%
X71700000Y-158850000D03*
X72550000Y-158850000D03*
X71700000Y-159700000D03*
X72550000Y-159700000D03*
%TD*%
D17*
%TO.C,C46*%
X262235000Y-133250000D03*
X261265000Y-133250000D03*
%TD*%
D35*
%TO.C,U1*%
X300387500Y-152450000D03*
X300387500Y-151500000D03*
X300387500Y-150550000D03*
X298112500Y-150550000D03*
X298112500Y-152450000D03*
%TD*%
D18*
%TO.C,C123*%
X249765000Y-176000000D03*
X250735000Y-176000000D03*
%TD*%
D19*
%TO.C,C43*%
X83500000Y-94735000D03*
X83500000Y-93765000D03*
%TD*%
D11*
%TO.C,LED95*%
X102525000Y-184850000D03*
X103375000Y-184850000D03*
X102525000Y-185700000D03*
X103375000Y-185700000D03*
%TD*%
D19*
%TO.C,C126*%
X283250000Y-64485000D03*
X283250000Y-63515000D03*
%TD*%
%TO.C,C106*%
X253250000Y-94985000D03*
X253250000Y-94015000D03*
%TD*%
%TO.C,C40*%
X74000000Y-94735000D03*
X74000000Y-93765000D03*
%TD*%
D13*
%TO.C,LED13*%
X159950000Y-108747918D03*
X160551041Y-109348959D03*
X159348959Y-109348959D03*
X159950000Y-109950000D03*
%TD*%
%TO.C,LED10*%
X182976041Y-131698959D03*
X183577082Y-132300000D03*
X182375000Y-132300000D03*
X182976041Y-132901041D03*
%TD*%
D12*
%TO.C,LED1*%
X261225000Y-153150000D03*
X261225000Y-154000000D03*
X260375000Y-153150000D03*
X260375000Y-154000000D03*
%TD*%
D11*
%TO.C,LED69*%
X91625000Y-91175000D03*
X92475000Y-91175000D03*
X91625000Y-92025000D03*
X92475000Y-92025000D03*
%TD*%
D22*
%TO.C,LED125*%
X100650000Y-175625000D03*
X100650000Y-174775000D03*
X101500000Y-175625000D03*
X101500000Y-174775000D03*
%TD*%
D17*
%TO.C,C132*%
X300485000Y-45000000D03*
X299515000Y-45000000D03*
%TD*%
D11*
%TO.C,LED68*%
X101575000Y-91025000D03*
X102425000Y-91025000D03*
X101575000Y-91875000D03*
X102425000Y-91875000D03*
%TD*%
D10*
%TO.C,C98*%
X63500000Y-158015000D03*
X63500000Y-158985000D03*
%TD*%
D14*
%TO.C,C8*%
X241592947Y-120342947D03*
X240907053Y-119657053D03*
%TD*%
D13*
%TO.C,LED105*%
X92123959Y-71573959D03*
X92725000Y-72175000D03*
X91522918Y-72175000D03*
X92123959Y-72776041D03*
%TD*%
D15*
%TO.C,LED23*%
X93725000Y-60350000D03*
X93123959Y-60951041D03*
X93123959Y-59748959D03*
X92522918Y-60350000D03*
%TD*%
%TO.C,LED107*%
X99076041Y-48423959D03*
X98475000Y-49025000D03*
X98475000Y-47822918D03*
X97873959Y-48423959D03*
%TD*%
D17*
%TO.C,C89*%
X103985000Y-173500000D03*
X103015000Y-173500000D03*
%TD*%
%TO.C,C92*%
X103985000Y-183750000D03*
X103015000Y-183750000D03*
%TD*%
D22*
%TO.C,LED115*%
X100500000Y-133125000D03*
X100500000Y-132275000D03*
X101350000Y-133125000D03*
X101350000Y-132275000D03*
%TD*%
D12*
%TO.C,LED104*%
X103325000Y-84625000D03*
X103325000Y-85475000D03*
X102475000Y-84625000D03*
X102475000Y-85475000D03*
%TD*%
%TO.C,LED93*%
X299675000Y-51950000D03*
X299675000Y-52800000D03*
X298825000Y-51950000D03*
X298825000Y-52800000D03*
%TD*%
D17*
%TO.C,C135*%
X262235000Y-144250000D03*
X261265000Y-144250000D03*
%TD*%
D25*
%TO.C,C48*%
X260592947Y-119407053D03*
X259907053Y-120092947D03*
%TD*%
D21*
%TO.C,C68*%
X101907053Y-70592947D03*
X102592947Y-69907053D03*
%TD*%
D22*
%TO.C,LED103*%
X99750000Y-91850000D03*
X99750000Y-91000000D03*
X100600000Y-91850000D03*
X100600000Y-91000000D03*
%TD*%
D15*
%TO.C,LED92*%
X299101041Y-62000000D03*
X298500000Y-62601041D03*
X298500000Y-61398959D03*
X297898959Y-62000000D03*
%TD*%
M02*
