%TF.GenerationSoftware,KiCad,Pcbnew,7.0.1*%
%TF.CreationDate,2023-09-17T14:31:27-07:00*%
%TF.ProjectId,vancouver-skytrain-pcb,76616e63-6f75-4766-9572-2d736b797472,rev?*%
%TF.SameCoordinates,Original*%
%TF.FileFunction,Drillmap*%
%TF.FilePolarity,Positive*%
%FSLAX45Y45*%
G04 Gerber Fmt 4.5, Leading zero omitted, Abs format (unit mm)*
G04 Created by KiCad (PCBNEW 7.0.1) date 2023-09-17 14:31:27*
%MOMM*%
%LPD*%
G01*
G04 APERTURE LIST*
%ADD10C,0.100000*%
%ADD11C,0.200000*%
%ADD12C,0.320000*%
G04 APERTURE END LIST*
D10*
X1200000Y-1200000D02*
X31200000Y-1200000D01*
X31200000Y-20000000D01*
X1200000Y-20000000D01*
X1200000Y-1200000D01*
D11*
D12*
X2040000Y-2040000D02*
X2360000Y-2360000D01*
X2360000Y-2040000D02*
X2040000Y-2360000D01*
X2040000Y-18840000D02*
X2360000Y-19160000D01*
X2360000Y-18840000D02*
X2040000Y-19160000D01*
X30040000Y-2040000D02*
X30360000Y-2360000D01*
X30360000Y-2040000D02*
X30040000Y-2360000D01*
X30040000Y-18840000D02*
X30360000Y-19160000D01*
X30360000Y-18840000D02*
X30040000Y-19160000D01*
D11*
X1442619Y-20317524D02*
X1442619Y-20117524D01*
X1442619Y-20117524D02*
X1490238Y-20117524D01*
X1490238Y-20117524D02*
X1518809Y-20127048D01*
X1518809Y-20127048D02*
X1537857Y-20146095D01*
X1537857Y-20146095D02*
X1547381Y-20165143D01*
X1547381Y-20165143D02*
X1556905Y-20203238D01*
X1556905Y-20203238D02*
X1556905Y-20231810D01*
X1556905Y-20231810D02*
X1547381Y-20269905D01*
X1547381Y-20269905D02*
X1537857Y-20288952D01*
X1537857Y-20288952D02*
X1518809Y-20308000D01*
X1518809Y-20308000D02*
X1490238Y-20317524D01*
X1490238Y-20317524D02*
X1442619Y-20317524D01*
X1642619Y-20317524D02*
X1642619Y-20184190D01*
X1642619Y-20222286D02*
X1652143Y-20203238D01*
X1652143Y-20203238D02*
X1661667Y-20193714D01*
X1661667Y-20193714D02*
X1680714Y-20184190D01*
X1680714Y-20184190D02*
X1699762Y-20184190D01*
X1766428Y-20317524D02*
X1766428Y-20184190D01*
X1766428Y-20117524D02*
X1756905Y-20127048D01*
X1756905Y-20127048D02*
X1766428Y-20136571D01*
X1766428Y-20136571D02*
X1775952Y-20127048D01*
X1775952Y-20127048D02*
X1766428Y-20117524D01*
X1766428Y-20117524D02*
X1766428Y-20136571D01*
X1890238Y-20317524D02*
X1871190Y-20308000D01*
X1871190Y-20308000D02*
X1861667Y-20288952D01*
X1861667Y-20288952D02*
X1861667Y-20117524D01*
X1995000Y-20317524D02*
X1975952Y-20308000D01*
X1975952Y-20308000D02*
X1966428Y-20288952D01*
X1966428Y-20288952D02*
X1966428Y-20117524D01*
X2223571Y-20317524D02*
X2223571Y-20117524D01*
X2223571Y-20117524D02*
X2290238Y-20260381D01*
X2290238Y-20260381D02*
X2356905Y-20117524D01*
X2356905Y-20117524D02*
X2356905Y-20317524D01*
X2537857Y-20317524D02*
X2537857Y-20212762D01*
X2537857Y-20212762D02*
X2528333Y-20193714D01*
X2528333Y-20193714D02*
X2509286Y-20184190D01*
X2509286Y-20184190D02*
X2471190Y-20184190D01*
X2471190Y-20184190D02*
X2452143Y-20193714D01*
X2537857Y-20308000D02*
X2518810Y-20317524D01*
X2518810Y-20317524D02*
X2471190Y-20317524D01*
X2471190Y-20317524D02*
X2452143Y-20308000D01*
X2452143Y-20308000D02*
X2442619Y-20288952D01*
X2442619Y-20288952D02*
X2442619Y-20269905D01*
X2442619Y-20269905D02*
X2452143Y-20250857D01*
X2452143Y-20250857D02*
X2471190Y-20241333D01*
X2471190Y-20241333D02*
X2518810Y-20241333D01*
X2518810Y-20241333D02*
X2537857Y-20231810D01*
X2633095Y-20184190D02*
X2633095Y-20384190D01*
X2633095Y-20193714D02*
X2652143Y-20184190D01*
X2652143Y-20184190D02*
X2690238Y-20184190D01*
X2690238Y-20184190D02*
X2709286Y-20193714D01*
X2709286Y-20193714D02*
X2718810Y-20203238D01*
X2718810Y-20203238D02*
X2728333Y-20222286D01*
X2728333Y-20222286D02*
X2728333Y-20279429D01*
X2728333Y-20279429D02*
X2718810Y-20298476D01*
X2718810Y-20298476D02*
X2709286Y-20308000D01*
X2709286Y-20308000D02*
X2690238Y-20317524D01*
X2690238Y-20317524D02*
X2652143Y-20317524D01*
X2652143Y-20317524D02*
X2633095Y-20308000D01*
X2814048Y-20298476D02*
X2823571Y-20308000D01*
X2823571Y-20308000D02*
X2814048Y-20317524D01*
X2814048Y-20317524D02*
X2804524Y-20308000D01*
X2804524Y-20308000D02*
X2814048Y-20298476D01*
X2814048Y-20298476D02*
X2814048Y-20317524D01*
X2814048Y-20193714D02*
X2823571Y-20203238D01*
X2823571Y-20203238D02*
X2814048Y-20212762D01*
X2814048Y-20212762D02*
X2804524Y-20203238D01*
X2804524Y-20203238D02*
X2814048Y-20193714D01*
X2814048Y-20193714D02*
X2814048Y-20212762D01*
X995000Y-20545000D02*
X1195000Y-20745000D01*
X1195000Y-20545000D02*
X995000Y-20745000D01*
X1423571Y-20537524D02*
X1547381Y-20537524D01*
X1547381Y-20537524D02*
X1480714Y-20613714D01*
X1480714Y-20613714D02*
X1509286Y-20613714D01*
X1509286Y-20613714D02*
X1528333Y-20623238D01*
X1528333Y-20623238D02*
X1537857Y-20632762D01*
X1537857Y-20632762D02*
X1547381Y-20651810D01*
X1547381Y-20651810D02*
X1547381Y-20699429D01*
X1547381Y-20699429D02*
X1537857Y-20718476D01*
X1537857Y-20718476D02*
X1528333Y-20728000D01*
X1528333Y-20728000D02*
X1509286Y-20737524D01*
X1509286Y-20737524D02*
X1452143Y-20737524D01*
X1452143Y-20737524D02*
X1433095Y-20728000D01*
X1433095Y-20728000D02*
X1423571Y-20718476D01*
X1633095Y-20718476D02*
X1642619Y-20728000D01*
X1642619Y-20728000D02*
X1633095Y-20737524D01*
X1633095Y-20737524D02*
X1623571Y-20728000D01*
X1623571Y-20728000D02*
X1633095Y-20718476D01*
X1633095Y-20718476D02*
X1633095Y-20737524D01*
X1718809Y-20556571D02*
X1728333Y-20547048D01*
X1728333Y-20547048D02*
X1747381Y-20537524D01*
X1747381Y-20537524D02*
X1795000Y-20537524D01*
X1795000Y-20537524D02*
X1814048Y-20547048D01*
X1814048Y-20547048D02*
X1823571Y-20556571D01*
X1823571Y-20556571D02*
X1833095Y-20575619D01*
X1833095Y-20575619D02*
X1833095Y-20594667D01*
X1833095Y-20594667D02*
X1823571Y-20623238D01*
X1823571Y-20623238D02*
X1709286Y-20737524D01*
X1709286Y-20737524D02*
X1833095Y-20737524D01*
X1956905Y-20537524D02*
X1975952Y-20537524D01*
X1975952Y-20537524D02*
X1995000Y-20547048D01*
X1995000Y-20547048D02*
X2004524Y-20556571D01*
X2004524Y-20556571D02*
X2014048Y-20575619D01*
X2014048Y-20575619D02*
X2023571Y-20613714D01*
X2023571Y-20613714D02*
X2023571Y-20661333D01*
X2023571Y-20661333D02*
X2014048Y-20699429D01*
X2014048Y-20699429D02*
X2004524Y-20718476D01*
X2004524Y-20718476D02*
X1995000Y-20728000D01*
X1995000Y-20728000D02*
X1975952Y-20737524D01*
X1975952Y-20737524D02*
X1956905Y-20737524D01*
X1956905Y-20737524D02*
X1937857Y-20728000D01*
X1937857Y-20728000D02*
X1928333Y-20718476D01*
X1928333Y-20718476D02*
X1918809Y-20699429D01*
X1918809Y-20699429D02*
X1909286Y-20661333D01*
X1909286Y-20661333D02*
X1909286Y-20613714D01*
X1909286Y-20613714D02*
X1918809Y-20575619D01*
X1918809Y-20575619D02*
X1928333Y-20556571D01*
X1928333Y-20556571D02*
X1937857Y-20547048D01*
X1937857Y-20547048D02*
X1956905Y-20537524D01*
X2147381Y-20537524D02*
X2166429Y-20537524D01*
X2166429Y-20537524D02*
X2185476Y-20547048D01*
X2185476Y-20547048D02*
X2195000Y-20556571D01*
X2195000Y-20556571D02*
X2204524Y-20575619D01*
X2204524Y-20575619D02*
X2214048Y-20613714D01*
X2214048Y-20613714D02*
X2214048Y-20661333D01*
X2214048Y-20661333D02*
X2204524Y-20699429D01*
X2204524Y-20699429D02*
X2195000Y-20718476D01*
X2195000Y-20718476D02*
X2185476Y-20728000D01*
X2185476Y-20728000D02*
X2166429Y-20737524D01*
X2166429Y-20737524D02*
X2147381Y-20737524D01*
X2147381Y-20737524D02*
X2128333Y-20728000D01*
X2128333Y-20728000D02*
X2118810Y-20718476D01*
X2118810Y-20718476D02*
X2109286Y-20699429D01*
X2109286Y-20699429D02*
X2099762Y-20661333D01*
X2099762Y-20661333D02*
X2099762Y-20613714D01*
X2099762Y-20613714D02*
X2109286Y-20575619D01*
X2109286Y-20575619D02*
X2118810Y-20556571D01*
X2118810Y-20556571D02*
X2128333Y-20547048D01*
X2128333Y-20547048D02*
X2147381Y-20537524D01*
X2299762Y-20737524D02*
X2299762Y-20604190D01*
X2299762Y-20623238D02*
X2309286Y-20613714D01*
X2309286Y-20613714D02*
X2328333Y-20604190D01*
X2328333Y-20604190D02*
X2356905Y-20604190D01*
X2356905Y-20604190D02*
X2375952Y-20613714D01*
X2375952Y-20613714D02*
X2385476Y-20632762D01*
X2385476Y-20632762D02*
X2385476Y-20737524D01*
X2385476Y-20632762D02*
X2395000Y-20613714D01*
X2395000Y-20613714D02*
X2414048Y-20604190D01*
X2414048Y-20604190D02*
X2442619Y-20604190D01*
X2442619Y-20604190D02*
X2461667Y-20613714D01*
X2461667Y-20613714D02*
X2471191Y-20632762D01*
X2471191Y-20632762D02*
X2471191Y-20737524D01*
X2566429Y-20737524D02*
X2566429Y-20604190D01*
X2566429Y-20623238D02*
X2575952Y-20613714D01*
X2575952Y-20613714D02*
X2595000Y-20604190D01*
X2595000Y-20604190D02*
X2623572Y-20604190D01*
X2623572Y-20604190D02*
X2642619Y-20613714D01*
X2642619Y-20613714D02*
X2652143Y-20632762D01*
X2652143Y-20632762D02*
X2652143Y-20737524D01*
X2652143Y-20632762D02*
X2661667Y-20613714D01*
X2661667Y-20613714D02*
X2680714Y-20604190D01*
X2680714Y-20604190D02*
X2709286Y-20604190D01*
X2709286Y-20604190D02*
X2728333Y-20613714D01*
X2728333Y-20613714D02*
X2737857Y-20632762D01*
X2737857Y-20632762D02*
X2737857Y-20737524D01*
X3128333Y-20528000D02*
X2956905Y-20785143D01*
X3385476Y-20537524D02*
X3404524Y-20537524D01*
X3404524Y-20537524D02*
X3423572Y-20547048D01*
X3423572Y-20547048D02*
X3433095Y-20556571D01*
X3433095Y-20556571D02*
X3442619Y-20575619D01*
X3442619Y-20575619D02*
X3452143Y-20613714D01*
X3452143Y-20613714D02*
X3452143Y-20661333D01*
X3452143Y-20661333D02*
X3442619Y-20699429D01*
X3442619Y-20699429D02*
X3433095Y-20718476D01*
X3433095Y-20718476D02*
X3423572Y-20728000D01*
X3423572Y-20728000D02*
X3404524Y-20737524D01*
X3404524Y-20737524D02*
X3385476Y-20737524D01*
X3385476Y-20737524D02*
X3366429Y-20728000D01*
X3366429Y-20728000D02*
X3356905Y-20718476D01*
X3356905Y-20718476D02*
X3347381Y-20699429D01*
X3347381Y-20699429D02*
X3337857Y-20661333D01*
X3337857Y-20661333D02*
X3337857Y-20613714D01*
X3337857Y-20613714D02*
X3347381Y-20575619D01*
X3347381Y-20575619D02*
X3356905Y-20556571D01*
X3356905Y-20556571D02*
X3366429Y-20547048D01*
X3366429Y-20547048D02*
X3385476Y-20537524D01*
X3537857Y-20718476D02*
X3547381Y-20728000D01*
X3547381Y-20728000D02*
X3537857Y-20737524D01*
X3537857Y-20737524D02*
X3528333Y-20728000D01*
X3528333Y-20728000D02*
X3537857Y-20718476D01*
X3537857Y-20718476D02*
X3537857Y-20737524D01*
X3737857Y-20737524D02*
X3623572Y-20737524D01*
X3680714Y-20737524D02*
X3680714Y-20537524D01*
X3680714Y-20537524D02*
X3661667Y-20566095D01*
X3661667Y-20566095D02*
X3642619Y-20585143D01*
X3642619Y-20585143D02*
X3623572Y-20594667D01*
X3814048Y-20556571D02*
X3823572Y-20547048D01*
X3823572Y-20547048D02*
X3842619Y-20537524D01*
X3842619Y-20537524D02*
X3890238Y-20537524D01*
X3890238Y-20537524D02*
X3909286Y-20547048D01*
X3909286Y-20547048D02*
X3918810Y-20556571D01*
X3918810Y-20556571D02*
X3928333Y-20575619D01*
X3928333Y-20575619D02*
X3928333Y-20594667D01*
X3928333Y-20594667D02*
X3918810Y-20623238D01*
X3918810Y-20623238D02*
X3804524Y-20737524D01*
X3804524Y-20737524D02*
X3928333Y-20737524D01*
X4099762Y-20537524D02*
X4061667Y-20537524D01*
X4061667Y-20537524D02*
X4042619Y-20547048D01*
X4042619Y-20547048D02*
X4033095Y-20556571D01*
X4033095Y-20556571D02*
X4014048Y-20585143D01*
X4014048Y-20585143D02*
X4004524Y-20623238D01*
X4004524Y-20623238D02*
X4004524Y-20699429D01*
X4004524Y-20699429D02*
X4014048Y-20718476D01*
X4014048Y-20718476D02*
X4023572Y-20728000D01*
X4023572Y-20728000D02*
X4042619Y-20737524D01*
X4042619Y-20737524D02*
X4080714Y-20737524D01*
X4080714Y-20737524D02*
X4099762Y-20728000D01*
X4099762Y-20728000D02*
X4109286Y-20718476D01*
X4109286Y-20718476D02*
X4118810Y-20699429D01*
X4118810Y-20699429D02*
X4118810Y-20651810D01*
X4118810Y-20651810D02*
X4109286Y-20632762D01*
X4109286Y-20632762D02*
X4099762Y-20623238D01*
X4099762Y-20623238D02*
X4080714Y-20613714D01*
X4080714Y-20613714D02*
X4042619Y-20613714D01*
X4042619Y-20613714D02*
X4023572Y-20623238D01*
X4023572Y-20623238D02*
X4014048Y-20632762D01*
X4014048Y-20632762D02*
X4004524Y-20651810D01*
X4242619Y-20537524D02*
X4261667Y-20537524D01*
X4261667Y-20537524D02*
X4280715Y-20547048D01*
X4280715Y-20547048D02*
X4290238Y-20556571D01*
X4290238Y-20556571D02*
X4299762Y-20575619D01*
X4299762Y-20575619D02*
X4309286Y-20613714D01*
X4309286Y-20613714D02*
X4309286Y-20661333D01*
X4309286Y-20661333D02*
X4299762Y-20699429D01*
X4299762Y-20699429D02*
X4290238Y-20718476D01*
X4290238Y-20718476D02*
X4280715Y-20728000D01*
X4280715Y-20728000D02*
X4261667Y-20737524D01*
X4261667Y-20737524D02*
X4242619Y-20737524D01*
X4242619Y-20737524D02*
X4223572Y-20728000D01*
X4223572Y-20728000D02*
X4214048Y-20718476D01*
X4214048Y-20718476D02*
X4204524Y-20699429D01*
X4204524Y-20699429D02*
X4195000Y-20661333D01*
X4195000Y-20661333D02*
X4195000Y-20613714D01*
X4195000Y-20613714D02*
X4204524Y-20575619D01*
X4204524Y-20575619D02*
X4214048Y-20556571D01*
X4214048Y-20556571D02*
X4223572Y-20547048D01*
X4223572Y-20547048D02*
X4242619Y-20537524D01*
X4385476Y-20537524D02*
X4385476Y-20575619D01*
X4461667Y-20537524D02*
X4461667Y-20575619D01*
X4756905Y-20813714D02*
X4747381Y-20804190D01*
X4747381Y-20804190D02*
X4728334Y-20775619D01*
X4728334Y-20775619D02*
X4718810Y-20756571D01*
X4718810Y-20756571D02*
X4709286Y-20728000D01*
X4709286Y-20728000D02*
X4699762Y-20680381D01*
X4699762Y-20680381D02*
X4699762Y-20642286D01*
X4699762Y-20642286D02*
X4709286Y-20594667D01*
X4709286Y-20594667D02*
X4718810Y-20566095D01*
X4718810Y-20566095D02*
X4728334Y-20547048D01*
X4728334Y-20547048D02*
X4747381Y-20518476D01*
X4747381Y-20518476D02*
X4756905Y-20508952D01*
X4918810Y-20604190D02*
X4918810Y-20737524D01*
X4871191Y-20528000D02*
X4823572Y-20670857D01*
X4823572Y-20670857D02*
X4947381Y-20670857D01*
X5175953Y-20737524D02*
X5175953Y-20537524D01*
X5261667Y-20737524D02*
X5261667Y-20632762D01*
X5261667Y-20632762D02*
X5252143Y-20613714D01*
X5252143Y-20613714D02*
X5233096Y-20604190D01*
X5233096Y-20604190D02*
X5204524Y-20604190D01*
X5204524Y-20604190D02*
X5185477Y-20613714D01*
X5185477Y-20613714D02*
X5175953Y-20623238D01*
X5385477Y-20737524D02*
X5366429Y-20728000D01*
X5366429Y-20728000D02*
X5356905Y-20718476D01*
X5356905Y-20718476D02*
X5347381Y-20699429D01*
X5347381Y-20699429D02*
X5347381Y-20642286D01*
X5347381Y-20642286D02*
X5356905Y-20623238D01*
X5356905Y-20623238D02*
X5366429Y-20613714D01*
X5366429Y-20613714D02*
X5385477Y-20604190D01*
X5385477Y-20604190D02*
X5414048Y-20604190D01*
X5414048Y-20604190D02*
X5433096Y-20613714D01*
X5433096Y-20613714D02*
X5442619Y-20623238D01*
X5442619Y-20623238D02*
X5452143Y-20642286D01*
X5452143Y-20642286D02*
X5452143Y-20699429D01*
X5452143Y-20699429D02*
X5442619Y-20718476D01*
X5442619Y-20718476D02*
X5433096Y-20728000D01*
X5433096Y-20728000D02*
X5414048Y-20737524D01*
X5414048Y-20737524D02*
X5385477Y-20737524D01*
X5566429Y-20737524D02*
X5547381Y-20728000D01*
X5547381Y-20728000D02*
X5537858Y-20708952D01*
X5537858Y-20708952D02*
X5537858Y-20537524D01*
X5718810Y-20728000D02*
X5699762Y-20737524D01*
X5699762Y-20737524D02*
X5661667Y-20737524D01*
X5661667Y-20737524D02*
X5642619Y-20728000D01*
X5642619Y-20728000D02*
X5633096Y-20708952D01*
X5633096Y-20708952D02*
X5633096Y-20632762D01*
X5633096Y-20632762D02*
X5642619Y-20613714D01*
X5642619Y-20613714D02*
X5661667Y-20604190D01*
X5661667Y-20604190D02*
X5699762Y-20604190D01*
X5699762Y-20604190D02*
X5718810Y-20613714D01*
X5718810Y-20613714D02*
X5728334Y-20632762D01*
X5728334Y-20632762D02*
X5728334Y-20651810D01*
X5728334Y-20651810D02*
X5633096Y-20670857D01*
X5804524Y-20728000D02*
X5823572Y-20737524D01*
X5823572Y-20737524D02*
X5861667Y-20737524D01*
X5861667Y-20737524D02*
X5880715Y-20728000D01*
X5880715Y-20728000D02*
X5890238Y-20708952D01*
X5890238Y-20708952D02*
X5890238Y-20699429D01*
X5890238Y-20699429D02*
X5880715Y-20680381D01*
X5880715Y-20680381D02*
X5861667Y-20670857D01*
X5861667Y-20670857D02*
X5833096Y-20670857D01*
X5833096Y-20670857D02*
X5814048Y-20661333D01*
X5814048Y-20661333D02*
X5804524Y-20642286D01*
X5804524Y-20642286D02*
X5804524Y-20632762D01*
X5804524Y-20632762D02*
X5814048Y-20613714D01*
X5814048Y-20613714D02*
X5833096Y-20604190D01*
X5833096Y-20604190D02*
X5861667Y-20604190D01*
X5861667Y-20604190D02*
X5880715Y-20613714D01*
X5956905Y-20813714D02*
X5966429Y-20804190D01*
X5966429Y-20804190D02*
X5985477Y-20775619D01*
X5985477Y-20775619D02*
X5995000Y-20756571D01*
X5995000Y-20756571D02*
X6004524Y-20728000D01*
X6004524Y-20728000D02*
X6014048Y-20680381D01*
X6014048Y-20680381D02*
X6014048Y-20642286D01*
X6014048Y-20642286D02*
X6004524Y-20594667D01*
X6004524Y-20594667D02*
X5995000Y-20566095D01*
X5995000Y-20566095D02*
X5985477Y-20547048D01*
X5985477Y-20547048D02*
X5966429Y-20518476D01*
X5966429Y-20518476D02*
X5956905Y-20508952D01*
X6318810Y-20813714D02*
X6309286Y-20804190D01*
X6309286Y-20804190D02*
X6290238Y-20775619D01*
X6290238Y-20775619D02*
X6280715Y-20756571D01*
X6280715Y-20756571D02*
X6271191Y-20728000D01*
X6271191Y-20728000D02*
X6261667Y-20680381D01*
X6261667Y-20680381D02*
X6261667Y-20642286D01*
X6261667Y-20642286D02*
X6271191Y-20594667D01*
X6271191Y-20594667D02*
X6280715Y-20566095D01*
X6280715Y-20566095D02*
X6290238Y-20547048D01*
X6290238Y-20547048D02*
X6309286Y-20518476D01*
X6309286Y-20518476D02*
X6318810Y-20508952D01*
X6395000Y-20604190D02*
X6395000Y-20737524D01*
X6395000Y-20623238D02*
X6404524Y-20613714D01*
X6404524Y-20613714D02*
X6423572Y-20604190D01*
X6423572Y-20604190D02*
X6452143Y-20604190D01*
X6452143Y-20604190D02*
X6471191Y-20613714D01*
X6471191Y-20613714D02*
X6480715Y-20632762D01*
X6480715Y-20632762D02*
X6480715Y-20737524D01*
X6604524Y-20737524D02*
X6585477Y-20728000D01*
X6585477Y-20728000D02*
X6575953Y-20718476D01*
X6575953Y-20718476D02*
X6566429Y-20699429D01*
X6566429Y-20699429D02*
X6566429Y-20642286D01*
X6566429Y-20642286D02*
X6575953Y-20623238D01*
X6575953Y-20623238D02*
X6585477Y-20613714D01*
X6585477Y-20613714D02*
X6604524Y-20604190D01*
X6604524Y-20604190D02*
X6633096Y-20604190D01*
X6633096Y-20604190D02*
X6652143Y-20613714D01*
X6652143Y-20613714D02*
X6661667Y-20623238D01*
X6661667Y-20623238D02*
X6671191Y-20642286D01*
X6671191Y-20642286D02*
X6671191Y-20699429D01*
X6671191Y-20699429D02*
X6661667Y-20718476D01*
X6661667Y-20718476D02*
X6652143Y-20728000D01*
X6652143Y-20728000D02*
X6633096Y-20737524D01*
X6633096Y-20737524D02*
X6604524Y-20737524D01*
X6728334Y-20604190D02*
X6804524Y-20604190D01*
X6756905Y-20537524D02*
X6756905Y-20708952D01*
X6756905Y-20708952D02*
X6766429Y-20728000D01*
X6766429Y-20728000D02*
X6785477Y-20737524D01*
X6785477Y-20737524D02*
X6804524Y-20737524D01*
X7023572Y-20604190D02*
X7023572Y-20804190D01*
X7023572Y-20613714D02*
X7042619Y-20604190D01*
X7042619Y-20604190D02*
X7080715Y-20604190D01*
X7080715Y-20604190D02*
X7099762Y-20613714D01*
X7099762Y-20613714D02*
X7109286Y-20623238D01*
X7109286Y-20623238D02*
X7118810Y-20642286D01*
X7118810Y-20642286D02*
X7118810Y-20699429D01*
X7118810Y-20699429D02*
X7109286Y-20718476D01*
X7109286Y-20718476D02*
X7099762Y-20728000D01*
X7099762Y-20728000D02*
X7080715Y-20737524D01*
X7080715Y-20737524D02*
X7042619Y-20737524D01*
X7042619Y-20737524D02*
X7023572Y-20728000D01*
X7233096Y-20737524D02*
X7214048Y-20728000D01*
X7214048Y-20728000D02*
X7204524Y-20708952D01*
X7204524Y-20708952D02*
X7204524Y-20537524D01*
X7395000Y-20737524D02*
X7395000Y-20632762D01*
X7395000Y-20632762D02*
X7385477Y-20613714D01*
X7385477Y-20613714D02*
X7366429Y-20604190D01*
X7366429Y-20604190D02*
X7328334Y-20604190D01*
X7328334Y-20604190D02*
X7309286Y-20613714D01*
X7395000Y-20728000D02*
X7375953Y-20737524D01*
X7375953Y-20737524D02*
X7328334Y-20737524D01*
X7328334Y-20737524D02*
X7309286Y-20728000D01*
X7309286Y-20728000D02*
X7299762Y-20708952D01*
X7299762Y-20708952D02*
X7299762Y-20689905D01*
X7299762Y-20689905D02*
X7309286Y-20670857D01*
X7309286Y-20670857D02*
X7328334Y-20661333D01*
X7328334Y-20661333D02*
X7375953Y-20661333D01*
X7375953Y-20661333D02*
X7395000Y-20651810D01*
X7461667Y-20604190D02*
X7537858Y-20604190D01*
X7490239Y-20537524D02*
X7490239Y-20708952D01*
X7490239Y-20708952D02*
X7499762Y-20728000D01*
X7499762Y-20728000D02*
X7518810Y-20737524D01*
X7518810Y-20737524D02*
X7537858Y-20737524D01*
X7680715Y-20728000D02*
X7661667Y-20737524D01*
X7661667Y-20737524D02*
X7623572Y-20737524D01*
X7623572Y-20737524D02*
X7604524Y-20728000D01*
X7604524Y-20728000D02*
X7595000Y-20708952D01*
X7595000Y-20708952D02*
X7595000Y-20632762D01*
X7595000Y-20632762D02*
X7604524Y-20613714D01*
X7604524Y-20613714D02*
X7623572Y-20604190D01*
X7623572Y-20604190D02*
X7661667Y-20604190D01*
X7661667Y-20604190D02*
X7680715Y-20613714D01*
X7680715Y-20613714D02*
X7690239Y-20632762D01*
X7690239Y-20632762D02*
X7690239Y-20651810D01*
X7690239Y-20651810D02*
X7595000Y-20670857D01*
X7861667Y-20737524D02*
X7861667Y-20537524D01*
X7861667Y-20728000D02*
X7842620Y-20737524D01*
X7842620Y-20737524D02*
X7804524Y-20737524D01*
X7804524Y-20737524D02*
X7785477Y-20728000D01*
X7785477Y-20728000D02*
X7775953Y-20718476D01*
X7775953Y-20718476D02*
X7766429Y-20699429D01*
X7766429Y-20699429D02*
X7766429Y-20642286D01*
X7766429Y-20642286D02*
X7775953Y-20623238D01*
X7775953Y-20623238D02*
X7785477Y-20613714D01*
X7785477Y-20613714D02*
X7804524Y-20604190D01*
X7804524Y-20604190D02*
X7842620Y-20604190D01*
X7842620Y-20604190D02*
X7861667Y-20613714D01*
X7937858Y-20813714D02*
X7947381Y-20804190D01*
X7947381Y-20804190D02*
X7966429Y-20775619D01*
X7966429Y-20775619D02*
X7975953Y-20756571D01*
X7975953Y-20756571D02*
X7985477Y-20728000D01*
X7985477Y-20728000D02*
X7995000Y-20680381D01*
X7995000Y-20680381D02*
X7995000Y-20642286D01*
X7995000Y-20642286D02*
X7985477Y-20594667D01*
X7985477Y-20594667D02*
X7975953Y-20566095D01*
X7975953Y-20566095D02*
X7966429Y-20547048D01*
X7966429Y-20547048D02*
X7947381Y-20518476D01*
X7947381Y-20518476D02*
X7937858Y-20508952D01*
M02*
