M48
; DRILL file {KiCad 7.0.1} date Sun Sep 17 14:31:25 2023
; FORMAT={-:-/ absolute / inch / decimal}
; #@! TF.CreationDate,2023-09-17T14:31:25-07:00
; #@! TF.GenerationSoftware,Kicad,Pcbnew,7.0.1
; #@! TF.FileFunction,Plated,1,2,PTH
FMAT,2
INCH
; #@! TA.AperFunction,Plated,PTH,ComponentDrill
T1C0.0079
; #@! TA.AperFunction,Plated,PTH,ViaDrill
T2C0.0157
; #@! TA.AperFunction,Plated,PTH,ComponentDrill
T3C0.0394
; #@! TA.AperFunction,Plated,PTH,ComponentDrill
T4C0.0472
%
G90
G05
T1
X10.7935Y-7.2109
X10.7935Y-7.271
X10.8235Y-7.1809
X10.8235Y-7.2409
X10.8235Y-7.301
X10.8535Y-7.2109
X10.8535Y-7.271
X10.8836Y-7.1809
X10.8836Y-7.2409
X10.8836Y-7.301
X10.9136Y-7.2109
X10.9136Y-7.271
T2
X2.4272Y-6.3091
X2.5098Y-6.2598
X2.5197Y-6.3531
X2.8228Y-6.3091
X2.8327Y-3.6417
X2.9134Y-6.2589
X2.9134Y-6.3484
X2.9528Y-3.6963
X2.9539Y-3.5872
X3.2087Y-6.3091
X3.2136Y-3.6417
X3.2846Y-6.3122
X3.2882Y-2.3937
X3.3169Y-6.2545
X3.3264Y-3.6963
X3.3283Y-3.5872
X3.3362Y-6.3535
X3.363Y-2.4657
X3.4256Y-2.2988
X3.4501Y-2.1949
X3.485Y-1.8874
X3.5433Y-2.1063
X3.5433Y-2.2835
X3.5684Y-2.8253
X3.5724Y-1.9724
X3.6073Y-3.6417
X3.6152Y-1.8474
X3.6159Y-2.9491
X3.6319Y-2.1949
X3.6591Y-2.3102
X3.677Y-2.875
X3.6811Y-1.9193
X3.6894Y-2.9261
X3.7003Y-1.6727
X3.7008Y-3.6909
X3.7159Y-3.5773
X3.734Y-2.4538
X3.7402Y-1.811
X3.7402Y-1.9193
X3.751Y-3.6112
X3.7591Y-3.6925
X3.779Y-1.7328
X3.7795Y-3.5105
X3.7795Y-3.5773
X3.8066Y-2.38
X3.8091Y-1.998
X3.8189Y-3.6817
X3.8402Y-3.5773
X3.878Y-1.8602
X3.8878Y-2.0571
X3.8878Y-3.4547
X3.8878Y-3.6231
X3.9173Y-1.9587
X3.9374Y-6.3701
X3.9469Y-3.5335
X3.9589Y-3.7291
X3.9606Y-3.4547
X3.9606Y-6.8096
X3.9612Y-4.0232
X3.9618Y-5.1378
X3.9646Y-6.0039
X3.9646Y-6.4272
X3.9665Y-1.9291
X3.9665Y-4.5374
X3.9665Y-5.5118
X3.9665Y-7.2047
X3.9667Y-3.4062
X3.967Y-5.661
X3.9678Y-7.3472
X3.9841Y-3.6396
X3.9862Y-2.628
X3.9961Y-1.811
X3.9997Y-5.9688
X4.0059Y-4.6437
X4.0059Y-5.2411
X4.0059Y-6.5157
X4.0059Y-6.9144
X4.0059Y-7.31
X4.0157Y-1.9291
X4.0157Y-3.3307
X4.0157Y-4.1457
X4.0157Y-5.625
X4.0157Y-6.1093
X4.0541Y-3.3975
X4.0551Y-5.1378
X4.0571Y-6.4272
X4.0579Y-2.7901
X4.0598Y-6.0039
X4.0598Y-6.811
X4.0598Y-7.2146
X4.0604Y-7.3502
X4.0605Y-3.7598
X4.0605Y-4.0224
X4.0605Y-4.5374
X4.0605Y-5.5217
X4.0631Y-3.5072
X4.0697Y-3.2748
X4.0703Y-3.4685
X4.0709Y-3.1988
X4.0748Y-3.6831
X4.0749Y-3.5828
X4.134Y-2.7049
X4.3734Y-3.0317
X4.3789Y-3.6417
X4.4481Y-3.1778
X4.4587Y-3.5925
X4.4856Y-3.6728
X4.5251Y-3.0985
X4.5276Y-1.2598
X4.5472Y-1.2008
X4.6063Y-1.3484
X4.6429Y-1.1913
X4.6457Y-1.3091
X4.6523Y-3.3605
X4.8012Y-3.4004
X4.8024Y-3.3012
X5.0977Y-3.2343
X5.1486Y-3.3465
X5.2519Y-3.2225
X5.2669Y-3.3063
X5.2685Y-3.4102
X5.4364Y-3.5781
X5.5118Y-3.6909
X5.5195Y-3.49
X5.5411Y-3.7205
X5.5748Y-3.6082
X5.6382Y-3.7657
X5.6988Y-3.5846
X5.7398Y-3.7083
X5.8196Y-3.6857
X5.9586Y-4.012
X6.0111Y-4.1503
X6.0634Y-3.6506
X6.0958Y-4.0565
X6.2189Y-3.5935
X6.2197Y-3.6884
X6.2588Y-4.3199
X6.307Y-4.4462
X6.396Y-4.3592
X6.5561Y-4.6171
X6.6065Y-4.7384
X6.622Y-3.6417
X6.687Y-4.6575
X6.7323Y-3.5925
X6.7323Y-3.687
X6.8523Y-4.9035
X6.8972Y-5.0265
X6.9763Y-4.9493
X7.1467Y-3.6417
X7.1639Y-5.2249
X7.2123Y-5.3416
X7.2732Y-3.6864
X7.2744Y-3.5872
X7.2916Y-5.2647
X7.4346Y-5.2106
X7.5354Y-5.374
X7.5364Y-3.6417
X7.6559Y-5.3195
X7.6559Y-5.4203
X7.6583Y-3.5935
X7.6591Y-3.688
X8.0197Y-3.6417
X8.0197Y-5.374
X8.1378Y-5.428
X8.1382Y-5.3195
X8.1394Y-3.5975
X8.1398Y-3.6963
X8.5089Y-3.6417
X8.5089Y-5.374
X8.6299Y-5.428
X8.6303Y-5.3205
X8.6307Y-3.5977
X8.6331Y-3.6963
X8.9961Y-3.6417
X9.0738Y-5.0406
X9.1244Y-3.5977
X9.1244Y-3.6963
X9.1434Y-4.9025
X9.2235Y-4.9786
X9.314Y-4.7471
X9.3598Y-3.5977
X9.3614Y-3.6963
X9.3804Y-4.8135
X9.3865Y-4.7461
X9.4193Y-4.6358
X9.4783Y-3.563
X9.4783Y-3.7264
X9.4882Y-3.6417
X9.4911Y-4.7076
X9.5079Y-3.7933
X9.5273Y-3.5628
X9.5276Y-3.7264
X9.5765Y-4.6257
X9.6103Y-4.4331
X9.6232Y-3.7169
X9.626Y-3.5977
X9.6457Y-7.313
X9.6555Y-3.6713
X9.6555Y-7.4705
X9.6604Y-4.4734
X9.685Y-3.597
X9.685Y-3.773
X9.6949Y-4.5079
X9.6957Y-3.6349
X9.7098Y-3.6894
X9.7146Y-4.3406
X9.7539Y-3.6024
X9.7736Y-3.6662
X9.7798Y-4.4156
X9.7835Y-7.0768
X9.8425Y-3.563
X9.8425Y-3.75
X9.872Y-3.6516
X9.8917Y-3.7559
X9.9016Y-3.563
X9.9108Y-6.9783
X9.9902Y-4.1428
X10.0047Y-4.0453
X10.0126Y-3.7067
X10.013Y-3.6075
X10.0689Y-4.7194
X10.0772Y-4.1193
X10.1071Y-3.7933
X10.111Y-4.6878
X10.1516Y-3.5571
X10.1712Y-4.8343
X10.1718Y-5.2827
X10.1718Y-5.7169
X10.1795Y-6.1508
X10.1817Y-2.863
X10.1829Y-3.6639
X10.2205Y-6.1091
X10.2357Y-5.9941
X10.2362Y-2.749
X10.2432Y-5.5995
X10.2456Y-5.158
X10.2519Y-6.0853
X10.2571Y-4.7567
X10.2809Y-2.8638
X10.2878Y-6.1504
X10.2908Y-5.2843
X10.2908Y-5.7169
X10.3543Y-6.8799
X10.3642Y-6.0805
X10.3642Y-7.3228
X10.3642Y-7.3819
X10.3642Y-7.4803
X10.4134Y-7.5394
X10.5807Y-7.4819
X10.6598Y-2.3956
X10.661Y-2.5059
X10.7785Y-2.4508
X11.113Y-2.5053
X11.1134Y-2.3996
X11.1614Y-6.7618
X11.2417Y-7.5634
X11.2521Y-2.4578
X11.2894Y-7.4902
X11.4469Y-7.3031
X11.4764Y-7.3819
X11.5598Y-2.4004
X11.6358Y-6.9272
X11.6756Y-6.7287
X11.6795Y-2.5053
X11.687Y-2.1646
X11.6876Y-1.6614
X11.6876Y-1.8087
X11.6929Y-6.8799
X11.7362Y-2.37
X11.7461Y-1.6571
X11.752Y-2.0453
X11.7919Y-7.0512
X11.7967Y-1.8165
X11.7967Y-2.1646
X11.7973Y-1.6504
X11.8209Y-6.874
X11.8799Y-5.9252
X11.8799Y-6.0039
X11.8904Y-7.0217
X11.9396Y-6.874
X11.9587Y-6.1122
X12.0571Y-6.063
X12.0587Y-6.4823
T3
X12.1555Y-5.8642
X12.1555Y-5.9642
X12.1555Y-6.0642
X12.1555Y-6.1642
X12.1555Y-6.4823
X12.1555Y-6.5823
X12.1555Y-6.6823
X12.1555Y-6.7823
X12.1555Y-6.8823
X12.1555Y-6.9823
T4
X9.3185Y-7.6378
X9.4685Y-7.6378
T0
M30
