%TF.GenerationSoftware,KiCad,Pcbnew,7.0.1*%
%TF.CreationDate,2023-09-17T14:31:18-07:00*%
%TF.ProjectId,vancouver-skytrain-pcb,76616e63-6f75-4766-9572-2d736b797472,rev?*%
%TF.SameCoordinates,Original*%
%TF.FileFunction,Legend,Bot*%
%TF.FilePolarity,Positive*%
%FSLAX46Y46*%
G04 Gerber Fmt 4.6, Leading zero omitted, Abs format (unit mm)*
G04 Created by KiCad (PCBNEW 7.0.1) date 2023-09-17 14:31:18*
%MOMM*%
%LPD*%
G01*
G04 APERTURE LIST*
%ADD10C,0.150000*%
%ADD11C,0.250000*%
%ADD12C,0.010000*%
%ADD13C,0.120000*%
G04 APERTURE END LIST*
D10*
X289155714Y-176477619D02*
X289631904Y-176477619D01*
X289631904Y-176477619D02*
X289631904Y-175477619D01*
X288822380Y-175953809D02*
X288489047Y-175953809D01*
X288346190Y-176477619D02*
X288822380Y-176477619D01*
X288822380Y-176477619D02*
X288822380Y-175477619D01*
X288822380Y-175477619D02*
X288346190Y-175477619D01*
X287917618Y-176477619D02*
X287917618Y-175477619D01*
X287917618Y-175477619D02*
X287679523Y-175477619D01*
X287679523Y-175477619D02*
X287536666Y-175525238D01*
X287536666Y-175525238D02*
X287441428Y-175620476D01*
X287441428Y-175620476D02*
X287393809Y-175715714D01*
X287393809Y-175715714D02*
X287346190Y-175906190D01*
X287346190Y-175906190D02*
X287346190Y-176049047D01*
X287346190Y-176049047D02*
X287393809Y-176239523D01*
X287393809Y-176239523D02*
X287441428Y-176334761D01*
X287441428Y-176334761D02*
X287536666Y-176430000D01*
X287536666Y-176430000D02*
X287679523Y-176477619D01*
X287679523Y-176477619D02*
X287917618Y-176477619D01*
X287155714Y-176572857D02*
X286393809Y-176572857D01*
X286155713Y-176477619D02*
X286155713Y-175477619D01*
X285679523Y-176477619D02*
X285679523Y-175477619D01*
X285679523Y-175477619D02*
X285108095Y-176477619D01*
X285108095Y-176477619D02*
X285108095Y-175477619D01*
X288888095Y-191275238D02*
X288983333Y-191227619D01*
X288983333Y-191227619D02*
X289126190Y-191227619D01*
X289126190Y-191227619D02*
X289269047Y-191275238D01*
X289269047Y-191275238D02*
X289364285Y-191370476D01*
X289364285Y-191370476D02*
X289411904Y-191465714D01*
X289411904Y-191465714D02*
X289459523Y-191656190D01*
X289459523Y-191656190D02*
X289459523Y-191799047D01*
X289459523Y-191799047D02*
X289411904Y-191989523D01*
X289411904Y-191989523D02*
X289364285Y-192084761D01*
X289364285Y-192084761D02*
X289269047Y-192180000D01*
X289269047Y-192180000D02*
X289126190Y-192227619D01*
X289126190Y-192227619D02*
X289030952Y-192227619D01*
X289030952Y-192227619D02*
X288888095Y-192180000D01*
X288888095Y-192180000D02*
X288840476Y-192132380D01*
X288840476Y-192132380D02*
X288840476Y-191799047D01*
X288840476Y-191799047D02*
X289030952Y-191799047D01*
X288411904Y-192227619D02*
X288411904Y-191227619D01*
X288411904Y-191227619D02*
X287840476Y-192227619D01*
X287840476Y-192227619D02*
X287840476Y-191227619D01*
X287364285Y-192227619D02*
X287364285Y-191227619D01*
X287364285Y-191227619D02*
X287126190Y-191227619D01*
X287126190Y-191227619D02*
X286983333Y-191275238D01*
X286983333Y-191275238D02*
X286888095Y-191370476D01*
X286888095Y-191370476D02*
X286840476Y-191465714D01*
X286840476Y-191465714D02*
X286792857Y-191656190D01*
X286792857Y-191656190D02*
X286792857Y-191799047D01*
X286792857Y-191799047D02*
X286840476Y-191989523D01*
X286840476Y-191989523D02*
X286888095Y-192084761D01*
X286888095Y-192084761D02*
X286983333Y-192180000D01*
X286983333Y-192180000D02*
X287126190Y-192227619D01*
X287126190Y-192227619D02*
X287364285Y-192227619D01*
X291651904Y-190326666D02*
X290890000Y-190326666D01*
X291270952Y-190707619D02*
X291270952Y-189945714D01*
X290509047Y-189707619D02*
X289890000Y-189707619D01*
X289890000Y-189707619D02*
X290223333Y-190088571D01*
X290223333Y-190088571D02*
X290080476Y-190088571D01*
X290080476Y-190088571D02*
X289985238Y-190136190D01*
X289985238Y-190136190D02*
X289937619Y-190183809D01*
X289937619Y-190183809D02*
X289890000Y-190279047D01*
X289890000Y-190279047D02*
X289890000Y-190517142D01*
X289890000Y-190517142D02*
X289937619Y-190612380D01*
X289937619Y-190612380D02*
X289985238Y-190660000D01*
X289985238Y-190660000D02*
X290080476Y-190707619D01*
X290080476Y-190707619D02*
X290366190Y-190707619D01*
X290366190Y-190707619D02*
X290461428Y-190660000D01*
X290461428Y-190660000D02*
X290509047Y-190612380D01*
X289461428Y-190612380D02*
X289413809Y-190660000D01*
X289413809Y-190660000D02*
X289461428Y-190707619D01*
X289461428Y-190707619D02*
X289509047Y-190660000D01*
X289509047Y-190660000D02*
X289461428Y-190612380D01*
X289461428Y-190612380D02*
X289461428Y-190707619D01*
X289080476Y-189707619D02*
X288461429Y-189707619D01*
X288461429Y-189707619D02*
X288794762Y-190088571D01*
X288794762Y-190088571D02*
X288651905Y-190088571D01*
X288651905Y-190088571D02*
X288556667Y-190136190D01*
X288556667Y-190136190D02*
X288509048Y-190183809D01*
X288509048Y-190183809D02*
X288461429Y-190279047D01*
X288461429Y-190279047D02*
X288461429Y-190517142D01*
X288461429Y-190517142D02*
X288509048Y-190612380D01*
X288509048Y-190612380D02*
X288556667Y-190660000D01*
X288556667Y-190660000D02*
X288651905Y-190707619D01*
X288651905Y-190707619D02*
X288937619Y-190707619D01*
X288937619Y-190707619D02*
X289032857Y-190660000D01*
X289032857Y-190660000D02*
X289080476Y-190612380D01*
X288175714Y-189707619D02*
X287842381Y-190707619D01*
X287842381Y-190707619D02*
X287509048Y-189707619D01*
X289550476Y-189117619D02*
X289883809Y-188641428D01*
X290121904Y-189117619D02*
X290121904Y-188117619D01*
X290121904Y-188117619D02*
X289740952Y-188117619D01*
X289740952Y-188117619D02*
X289645714Y-188165238D01*
X289645714Y-188165238D02*
X289598095Y-188212857D01*
X289598095Y-188212857D02*
X289550476Y-188308095D01*
X289550476Y-188308095D02*
X289550476Y-188450952D01*
X289550476Y-188450952D02*
X289598095Y-188546190D01*
X289598095Y-188546190D02*
X289645714Y-188593809D01*
X289645714Y-188593809D02*
X289740952Y-188641428D01*
X289740952Y-188641428D02*
X290121904Y-188641428D01*
X289121904Y-188593809D02*
X288788571Y-188593809D01*
X288645714Y-189117619D02*
X289121904Y-189117619D01*
X289121904Y-189117619D02*
X289121904Y-188117619D01*
X289121904Y-188117619D02*
X288645714Y-188117619D01*
X288264761Y-189070000D02*
X288121904Y-189117619D01*
X288121904Y-189117619D02*
X287883809Y-189117619D01*
X287883809Y-189117619D02*
X287788571Y-189070000D01*
X287788571Y-189070000D02*
X287740952Y-189022380D01*
X287740952Y-189022380D02*
X287693333Y-188927142D01*
X287693333Y-188927142D02*
X287693333Y-188831904D01*
X287693333Y-188831904D02*
X287740952Y-188736666D01*
X287740952Y-188736666D02*
X287788571Y-188689047D01*
X287788571Y-188689047D02*
X287883809Y-188641428D01*
X287883809Y-188641428D02*
X288074285Y-188593809D01*
X288074285Y-188593809D02*
X288169523Y-188546190D01*
X288169523Y-188546190D02*
X288217142Y-188498571D01*
X288217142Y-188498571D02*
X288264761Y-188403333D01*
X288264761Y-188403333D02*
X288264761Y-188308095D01*
X288264761Y-188308095D02*
X288217142Y-188212857D01*
X288217142Y-188212857D02*
X288169523Y-188165238D01*
X288169523Y-188165238D02*
X288074285Y-188117619D01*
X288074285Y-188117619D02*
X287836190Y-188117619D01*
X287836190Y-188117619D02*
X287693333Y-188165238D01*
X287264761Y-188593809D02*
X286931428Y-188593809D01*
X286788571Y-189117619D02*
X287264761Y-189117619D01*
X287264761Y-189117619D02*
X287264761Y-188117619D01*
X287264761Y-188117619D02*
X286788571Y-188117619D01*
X286502856Y-188117619D02*
X285931428Y-188117619D01*
X286217142Y-189117619D02*
X286217142Y-188117619D01*
X263238095Y-191025238D02*
X263333333Y-190977619D01*
X263333333Y-190977619D02*
X263476190Y-190977619D01*
X263476190Y-190977619D02*
X263619047Y-191025238D01*
X263619047Y-191025238D02*
X263714285Y-191120476D01*
X263714285Y-191120476D02*
X263761904Y-191215714D01*
X263761904Y-191215714D02*
X263809523Y-191406190D01*
X263809523Y-191406190D02*
X263809523Y-191549047D01*
X263809523Y-191549047D02*
X263761904Y-191739523D01*
X263761904Y-191739523D02*
X263714285Y-191834761D01*
X263714285Y-191834761D02*
X263619047Y-191930000D01*
X263619047Y-191930000D02*
X263476190Y-191977619D01*
X263476190Y-191977619D02*
X263380952Y-191977619D01*
X263380952Y-191977619D02*
X263238095Y-191930000D01*
X263238095Y-191930000D02*
X263190476Y-191882380D01*
X263190476Y-191882380D02*
X263190476Y-191549047D01*
X263190476Y-191549047D02*
X263380952Y-191549047D01*
X262761904Y-191977619D02*
X262761904Y-190977619D01*
X262761904Y-190977619D02*
X262190476Y-191977619D01*
X262190476Y-191977619D02*
X262190476Y-190977619D01*
X261714285Y-191977619D02*
X261714285Y-190977619D01*
X261714285Y-190977619D02*
X261476190Y-190977619D01*
X261476190Y-190977619D02*
X261333333Y-191025238D01*
X261333333Y-191025238D02*
X261238095Y-191120476D01*
X261238095Y-191120476D02*
X261190476Y-191215714D01*
X261190476Y-191215714D02*
X261142857Y-191406190D01*
X261142857Y-191406190D02*
X261142857Y-191549047D01*
X261142857Y-191549047D02*
X261190476Y-191739523D01*
X261190476Y-191739523D02*
X261238095Y-191834761D01*
X261238095Y-191834761D02*
X261333333Y-191930000D01*
X261333333Y-191930000D02*
X261476190Y-191977619D01*
X261476190Y-191977619D02*
X261714285Y-191977619D01*
X262584761Y-187077619D02*
X262013333Y-187077619D01*
X262299047Y-188077619D02*
X262299047Y-187077619D01*
X261775237Y-187077619D02*
X261108571Y-188077619D01*
X261108571Y-187077619D02*
X261775237Y-188077619D01*
X260727618Y-188077619D02*
X260727618Y-187077619D01*
X260727618Y-187077619D02*
X260489523Y-187077619D01*
X260489523Y-187077619D02*
X260346666Y-187125238D01*
X260346666Y-187125238D02*
X260251428Y-187220476D01*
X260251428Y-187220476D02*
X260203809Y-187315714D01*
X260203809Y-187315714D02*
X260156190Y-187506190D01*
X260156190Y-187506190D02*
X260156190Y-187649047D01*
X260156190Y-187649047D02*
X260203809Y-187839523D01*
X260203809Y-187839523D02*
X260251428Y-187934761D01*
X260251428Y-187934761D02*
X260346666Y-188030000D01*
X260346666Y-188030000D02*
X260489523Y-188077619D01*
X260489523Y-188077619D02*
X260727618Y-188077619D01*
X261820476Y-186487619D02*
X262153809Y-186011428D01*
X262391904Y-186487619D02*
X262391904Y-185487619D01*
X262391904Y-185487619D02*
X262010952Y-185487619D01*
X262010952Y-185487619D02*
X261915714Y-185535238D01*
X261915714Y-185535238D02*
X261868095Y-185582857D01*
X261868095Y-185582857D02*
X261820476Y-185678095D01*
X261820476Y-185678095D02*
X261820476Y-185820952D01*
X261820476Y-185820952D02*
X261868095Y-185916190D01*
X261868095Y-185916190D02*
X261915714Y-185963809D01*
X261915714Y-185963809D02*
X262010952Y-186011428D01*
X262010952Y-186011428D02*
X262391904Y-186011428D01*
X261487142Y-185487619D02*
X260820476Y-186487619D01*
X260820476Y-185487619D02*
X261487142Y-186487619D01*
X260439523Y-186487619D02*
X260439523Y-185487619D01*
X260439523Y-185487619D02*
X260201428Y-185487619D01*
X260201428Y-185487619D02*
X260058571Y-185535238D01*
X260058571Y-185535238D02*
X259963333Y-185630476D01*
X259963333Y-185630476D02*
X259915714Y-185725714D01*
X259915714Y-185725714D02*
X259868095Y-185916190D01*
X259868095Y-185916190D02*
X259868095Y-186059047D01*
X259868095Y-186059047D02*
X259915714Y-186249523D01*
X259915714Y-186249523D02*
X259963333Y-186344761D01*
X259963333Y-186344761D02*
X260058571Y-186440000D01*
X260058571Y-186440000D02*
X260201428Y-186487619D01*
X260201428Y-186487619D02*
X260439523Y-186487619D01*
X261518095Y-174235238D02*
X261613333Y-174187619D01*
X261613333Y-174187619D02*
X261756190Y-174187619D01*
X261756190Y-174187619D02*
X261899047Y-174235238D01*
X261899047Y-174235238D02*
X261994285Y-174330476D01*
X261994285Y-174330476D02*
X262041904Y-174425714D01*
X262041904Y-174425714D02*
X262089523Y-174616190D01*
X262089523Y-174616190D02*
X262089523Y-174759047D01*
X262089523Y-174759047D02*
X262041904Y-174949523D01*
X262041904Y-174949523D02*
X261994285Y-175044761D01*
X261994285Y-175044761D02*
X261899047Y-175140000D01*
X261899047Y-175140000D02*
X261756190Y-175187619D01*
X261756190Y-175187619D02*
X261660952Y-175187619D01*
X261660952Y-175187619D02*
X261518095Y-175140000D01*
X261518095Y-175140000D02*
X261470476Y-175092380D01*
X261470476Y-175092380D02*
X261470476Y-174759047D01*
X261470476Y-174759047D02*
X261660952Y-174759047D01*
X261041904Y-175187619D02*
X261041904Y-174187619D01*
X261041904Y-174187619D02*
X260660952Y-174187619D01*
X260660952Y-174187619D02*
X260565714Y-174235238D01*
X260565714Y-174235238D02*
X260518095Y-174282857D01*
X260518095Y-174282857D02*
X260470476Y-174378095D01*
X260470476Y-174378095D02*
X260470476Y-174520952D01*
X260470476Y-174520952D02*
X260518095Y-174616190D01*
X260518095Y-174616190D02*
X260565714Y-174663809D01*
X260565714Y-174663809D02*
X260660952Y-174711428D01*
X260660952Y-174711428D02*
X261041904Y-174711428D01*
X260041904Y-175187619D02*
X260041904Y-174187619D01*
X259375238Y-174187619D02*
X259184762Y-174187619D01*
X259184762Y-174187619D02*
X259089524Y-174235238D01*
X259089524Y-174235238D02*
X258994286Y-174330476D01*
X258994286Y-174330476D02*
X258946667Y-174520952D01*
X258946667Y-174520952D02*
X258946667Y-174854285D01*
X258946667Y-174854285D02*
X258994286Y-175044761D01*
X258994286Y-175044761D02*
X259089524Y-175140000D01*
X259089524Y-175140000D02*
X259184762Y-175187619D01*
X259184762Y-175187619D02*
X259375238Y-175187619D01*
X259375238Y-175187619D02*
X259470476Y-175140000D01*
X259470476Y-175140000D02*
X259565714Y-175044761D01*
X259565714Y-175044761D02*
X259613333Y-174854285D01*
X259613333Y-174854285D02*
X259613333Y-174520952D01*
X259613333Y-174520952D02*
X259565714Y-174330476D01*
X259565714Y-174330476D02*
X259470476Y-174235238D01*
X259470476Y-174235238D02*
X259375238Y-174187619D01*
X257565714Y-174187619D02*
X257470476Y-174187619D01*
X257470476Y-174187619D02*
X257375238Y-174235238D01*
X257375238Y-174235238D02*
X257327619Y-174282857D01*
X257327619Y-174282857D02*
X257280000Y-174378095D01*
X257280000Y-174378095D02*
X257232381Y-174568571D01*
X257232381Y-174568571D02*
X257232381Y-174806666D01*
X257232381Y-174806666D02*
X257280000Y-174997142D01*
X257280000Y-174997142D02*
X257327619Y-175092380D01*
X257327619Y-175092380D02*
X257375238Y-175140000D01*
X257375238Y-175140000D02*
X257470476Y-175187619D01*
X257470476Y-175187619D02*
X257565714Y-175187619D01*
X257565714Y-175187619D02*
X257660952Y-175140000D01*
X257660952Y-175140000D02*
X257708571Y-175092380D01*
X257708571Y-175092380D02*
X257756190Y-174997142D01*
X257756190Y-174997142D02*
X257803809Y-174806666D01*
X257803809Y-174806666D02*
X257803809Y-174568571D01*
X257803809Y-174568571D02*
X257756190Y-174378095D01*
X257756190Y-174378095D02*
X257708571Y-174282857D01*
X257708571Y-174282857D02*
X257660952Y-174235238D01*
X257660952Y-174235238D02*
X257565714Y-174187619D01*
X242051904Y-197776666D02*
X241290000Y-197776666D01*
X241670952Y-198157619D02*
X241670952Y-197395714D01*
X240337619Y-197157619D02*
X240813809Y-197157619D01*
X240813809Y-197157619D02*
X240861428Y-197633809D01*
X240861428Y-197633809D02*
X240813809Y-197586190D01*
X240813809Y-197586190D02*
X240718571Y-197538571D01*
X240718571Y-197538571D02*
X240480476Y-197538571D01*
X240480476Y-197538571D02*
X240385238Y-197586190D01*
X240385238Y-197586190D02*
X240337619Y-197633809D01*
X240337619Y-197633809D02*
X240290000Y-197729047D01*
X240290000Y-197729047D02*
X240290000Y-197967142D01*
X240290000Y-197967142D02*
X240337619Y-198062380D01*
X240337619Y-198062380D02*
X240385238Y-198110000D01*
X240385238Y-198110000D02*
X240480476Y-198157619D01*
X240480476Y-198157619D02*
X240718571Y-198157619D01*
X240718571Y-198157619D02*
X240813809Y-198110000D01*
X240813809Y-198110000D02*
X240861428Y-198062380D01*
X240004285Y-197157619D02*
X239670952Y-198157619D01*
X239670952Y-198157619D02*
X239337619Y-197157619D01*
X237108095Y-197295238D02*
X237203333Y-197247619D01*
X237203333Y-197247619D02*
X237346190Y-197247619D01*
X237346190Y-197247619D02*
X237489047Y-197295238D01*
X237489047Y-197295238D02*
X237584285Y-197390476D01*
X237584285Y-197390476D02*
X237631904Y-197485714D01*
X237631904Y-197485714D02*
X237679523Y-197676190D01*
X237679523Y-197676190D02*
X237679523Y-197819047D01*
X237679523Y-197819047D02*
X237631904Y-198009523D01*
X237631904Y-198009523D02*
X237584285Y-198104761D01*
X237584285Y-198104761D02*
X237489047Y-198200000D01*
X237489047Y-198200000D02*
X237346190Y-198247619D01*
X237346190Y-198247619D02*
X237250952Y-198247619D01*
X237250952Y-198247619D02*
X237108095Y-198200000D01*
X237108095Y-198200000D02*
X237060476Y-198152380D01*
X237060476Y-198152380D02*
X237060476Y-197819047D01*
X237060476Y-197819047D02*
X237250952Y-197819047D01*
X236631904Y-198247619D02*
X236631904Y-197247619D01*
X236631904Y-197247619D02*
X236060476Y-198247619D01*
X236060476Y-198247619D02*
X236060476Y-197247619D01*
X235584285Y-198247619D02*
X235584285Y-197247619D01*
X235584285Y-197247619D02*
X235346190Y-197247619D01*
X235346190Y-197247619D02*
X235203333Y-197295238D01*
X235203333Y-197295238D02*
X235108095Y-197390476D01*
X235108095Y-197390476D02*
X235060476Y-197485714D01*
X235060476Y-197485714D02*
X235012857Y-197676190D01*
X235012857Y-197676190D02*
X235012857Y-197819047D01*
X235012857Y-197819047D02*
X235060476Y-198009523D01*
X235060476Y-198009523D02*
X235108095Y-198104761D01*
X235108095Y-198104761D02*
X235203333Y-198200000D01*
X235203333Y-198200000D02*
X235346190Y-198247619D01*
X235346190Y-198247619D02*
X235584285Y-198247619D01*
X305930476Y-177747619D02*
X306263809Y-177271428D01*
X306501904Y-177747619D02*
X306501904Y-176747619D01*
X306501904Y-176747619D02*
X306120952Y-176747619D01*
X306120952Y-176747619D02*
X306025714Y-176795238D01*
X306025714Y-176795238D02*
X305978095Y-176842857D01*
X305978095Y-176842857D02*
X305930476Y-176938095D01*
X305930476Y-176938095D02*
X305930476Y-177080952D01*
X305930476Y-177080952D02*
X305978095Y-177176190D01*
X305978095Y-177176190D02*
X306025714Y-177223809D01*
X306025714Y-177223809D02*
X306120952Y-177271428D01*
X306120952Y-177271428D02*
X306501904Y-177271428D01*
X305644761Y-176747619D02*
X305073333Y-176747619D01*
X305359047Y-177747619D02*
X305359047Y-176747619D01*
X304787618Y-177700000D02*
X304644761Y-177747619D01*
X304644761Y-177747619D02*
X304406666Y-177747619D01*
X304406666Y-177747619D02*
X304311428Y-177700000D01*
X304311428Y-177700000D02*
X304263809Y-177652380D01*
X304263809Y-177652380D02*
X304216190Y-177557142D01*
X304216190Y-177557142D02*
X304216190Y-177461904D01*
X304216190Y-177461904D02*
X304263809Y-177366666D01*
X304263809Y-177366666D02*
X304311428Y-177319047D01*
X304311428Y-177319047D02*
X304406666Y-177271428D01*
X304406666Y-177271428D02*
X304597142Y-177223809D01*
X304597142Y-177223809D02*
X304692380Y-177176190D01*
X304692380Y-177176190D02*
X304739999Y-177128571D01*
X304739999Y-177128571D02*
X304787618Y-177033333D01*
X304787618Y-177033333D02*
X304787618Y-176938095D01*
X304787618Y-176938095D02*
X304739999Y-176842857D01*
X304739999Y-176842857D02*
X304692380Y-176795238D01*
X304692380Y-176795238D02*
X304597142Y-176747619D01*
X304597142Y-176747619D02*
X304359047Y-176747619D01*
X304359047Y-176747619D02*
X304216190Y-176795238D01*
X306784761Y-174247619D02*
X306213333Y-174247619D01*
X306499047Y-175247619D02*
X306499047Y-174247619D01*
X305975237Y-174247619D02*
X305308571Y-175247619D01*
X305308571Y-174247619D02*
X305975237Y-175247619D01*
X304927618Y-175247619D02*
X304927618Y-174247619D01*
X304927618Y-174247619D02*
X304689523Y-174247619D01*
X304689523Y-174247619D02*
X304546666Y-174295238D01*
X304546666Y-174295238D02*
X304451428Y-174390476D01*
X304451428Y-174390476D02*
X304403809Y-174485714D01*
X304403809Y-174485714D02*
X304356190Y-174676190D01*
X304356190Y-174676190D02*
X304356190Y-174819047D01*
X304356190Y-174819047D02*
X304403809Y-175009523D01*
X304403809Y-175009523D02*
X304451428Y-175104761D01*
X304451428Y-175104761D02*
X304546666Y-175200000D01*
X304546666Y-175200000D02*
X304689523Y-175247619D01*
X304689523Y-175247619D02*
X304927618Y-175247619D01*
X305970476Y-172607619D02*
X306303809Y-172131428D01*
X306541904Y-172607619D02*
X306541904Y-171607619D01*
X306541904Y-171607619D02*
X306160952Y-171607619D01*
X306160952Y-171607619D02*
X306065714Y-171655238D01*
X306065714Y-171655238D02*
X306018095Y-171702857D01*
X306018095Y-171702857D02*
X305970476Y-171798095D01*
X305970476Y-171798095D02*
X305970476Y-171940952D01*
X305970476Y-171940952D02*
X306018095Y-172036190D01*
X306018095Y-172036190D02*
X306065714Y-172083809D01*
X306065714Y-172083809D02*
X306160952Y-172131428D01*
X306160952Y-172131428D02*
X306541904Y-172131428D01*
X305637142Y-171607619D02*
X304970476Y-172607619D01*
X304970476Y-171607619D02*
X305637142Y-172607619D01*
X304589523Y-172607619D02*
X304589523Y-171607619D01*
X304589523Y-171607619D02*
X304351428Y-171607619D01*
X304351428Y-171607619D02*
X304208571Y-171655238D01*
X304208571Y-171655238D02*
X304113333Y-171750476D01*
X304113333Y-171750476D02*
X304065714Y-171845714D01*
X304065714Y-171845714D02*
X304018095Y-172036190D01*
X304018095Y-172036190D02*
X304018095Y-172179047D01*
X304018095Y-172179047D02*
X304065714Y-172369523D01*
X304065714Y-172369523D02*
X304113333Y-172464761D01*
X304113333Y-172464761D02*
X304208571Y-172560000D01*
X304208571Y-172560000D02*
X304351428Y-172607619D01*
X304351428Y-172607619D02*
X304589523Y-172607619D01*
X306681904Y-169656666D02*
X305920000Y-169656666D01*
X306300952Y-170037619D02*
X306300952Y-169275714D01*
X304967619Y-169037619D02*
X305443809Y-169037619D01*
X305443809Y-169037619D02*
X305491428Y-169513809D01*
X305491428Y-169513809D02*
X305443809Y-169466190D01*
X305443809Y-169466190D02*
X305348571Y-169418571D01*
X305348571Y-169418571D02*
X305110476Y-169418571D01*
X305110476Y-169418571D02*
X305015238Y-169466190D01*
X305015238Y-169466190D02*
X304967619Y-169513809D01*
X304967619Y-169513809D02*
X304920000Y-169609047D01*
X304920000Y-169609047D02*
X304920000Y-169847142D01*
X304920000Y-169847142D02*
X304967619Y-169942380D01*
X304967619Y-169942380D02*
X305015238Y-169990000D01*
X305015238Y-169990000D02*
X305110476Y-170037619D01*
X305110476Y-170037619D02*
X305348571Y-170037619D01*
X305348571Y-170037619D02*
X305443809Y-169990000D01*
X305443809Y-169990000D02*
X305491428Y-169942380D01*
X304634285Y-169037619D02*
X304300952Y-170037619D01*
X304300952Y-170037619D02*
X303967619Y-169037619D01*
X304868095Y-164055238D02*
X304963333Y-164007619D01*
X304963333Y-164007619D02*
X305106190Y-164007619D01*
X305106190Y-164007619D02*
X305249047Y-164055238D01*
X305249047Y-164055238D02*
X305344285Y-164150476D01*
X305344285Y-164150476D02*
X305391904Y-164245714D01*
X305391904Y-164245714D02*
X305439523Y-164436190D01*
X305439523Y-164436190D02*
X305439523Y-164579047D01*
X305439523Y-164579047D02*
X305391904Y-164769523D01*
X305391904Y-164769523D02*
X305344285Y-164864761D01*
X305344285Y-164864761D02*
X305249047Y-164960000D01*
X305249047Y-164960000D02*
X305106190Y-165007619D01*
X305106190Y-165007619D02*
X305010952Y-165007619D01*
X305010952Y-165007619D02*
X304868095Y-164960000D01*
X304868095Y-164960000D02*
X304820476Y-164912380D01*
X304820476Y-164912380D02*
X304820476Y-164579047D01*
X304820476Y-164579047D02*
X305010952Y-164579047D01*
X304391904Y-165007619D02*
X304391904Y-164007619D01*
X304391904Y-164007619D02*
X303820476Y-165007619D01*
X303820476Y-165007619D02*
X303820476Y-164007619D01*
X303344285Y-165007619D02*
X303344285Y-164007619D01*
X303344285Y-164007619D02*
X303106190Y-164007619D01*
X303106190Y-164007619D02*
X302963333Y-164055238D01*
X302963333Y-164055238D02*
X302868095Y-164150476D01*
X302868095Y-164150476D02*
X302820476Y-164245714D01*
X302820476Y-164245714D02*
X302772857Y-164436190D01*
X302772857Y-164436190D02*
X302772857Y-164579047D01*
X302772857Y-164579047D02*
X302820476Y-164769523D01*
X302820476Y-164769523D02*
X302868095Y-164864761D01*
X302868095Y-164864761D02*
X302963333Y-164960000D01*
X302963333Y-164960000D02*
X303106190Y-165007619D01*
X303106190Y-165007619D02*
X303344285Y-165007619D01*
X304878095Y-153385238D02*
X304973333Y-153337619D01*
X304973333Y-153337619D02*
X305116190Y-153337619D01*
X305116190Y-153337619D02*
X305259047Y-153385238D01*
X305259047Y-153385238D02*
X305354285Y-153480476D01*
X305354285Y-153480476D02*
X305401904Y-153575714D01*
X305401904Y-153575714D02*
X305449523Y-153766190D01*
X305449523Y-153766190D02*
X305449523Y-153909047D01*
X305449523Y-153909047D02*
X305401904Y-154099523D01*
X305401904Y-154099523D02*
X305354285Y-154194761D01*
X305354285Y-154194761D02*
X305259047Y-154290000D01*
X305259047Y-154290000D02*
X305116190Y-154337619D01*
X305116190Y-154337619D02*
X305020952Y-154337619D01*
X305020952Y-154337619D02*
X304878095Y-154290000D01*
X304878095Y-154290000D02*
X304830476Y-154242380D01*
X304830476Y-154242380D02*
X304830476Y-153909047D01*
X304830476Y-153909047D02*
X305020952Y-153909047D01*
X304401904Y-154337619D02*
X304401904Y-153337619D01*
X304401904Y-153337619D02*
X303830476Y-154337619D01*
X303830476Y-154337619D02*
X303830476Y-153337619D01*
X303354285Y-154337619D02*
X303354285Y-153337619D01*
X303354285Y-153337619D02*
X303116190Y-153337619D01*
X303116190Y-153337619D02*
X302973333Y-153385238D01*
X302973333Y-153385238D02*
X302878095Y-153480476D01*
X302878095Y-153480476D02*
X302830476Y-153575714D01*
X302830476Y-153575714D02*
X302782857Y-153766190D01*
X302782857Y-153766190D02*
X302782857Y-153909047D01*
X302782857Y-153909047D02*
X302830476Y-154099523D01*
X302830476Y-154099523D02*
X302878095Y-154194761D01*
X302878095Y-154194761D02*
X302973333Y-154290000D01*
X302973333Y-154290000D02*
X303116190Y-154337619D01*
X303116190Y-154337619D02*
X303354285Y-154337619D01*
X306205714Y-157157619D02*
X306681904Y-157157619D01*
X306681904Y-157157619D02*
X306681904Y-156157619D01*
X305872380Y-156633809D02*
X305539047Y-156633809D01*
X305396190Y-157157619D02*
X305872380Y-157157619D01*
X305872380Y-157157619D02*
X305872380Y-156157619D01*
X305872380Y-156157619D02*
X305396190Y-156157619D01*
X304967618Y-157157619D02*
X304967618Y-156157619D01*
X304967618Y-156157619D02*
X304729523Y-156157619D01*
X304729523Y-156157619D02*
X304586666Y-156205238D01*
X304586666Y-156205238D02*
X304491428Y-156300476D01*
X304491428Y-156300476D02*
X304443809Y-156395714D01*
X304443809Y-156395714D02*
X304396190Y-156586190D01*
X304396190Y-156586190D02*
X304396190Y-156729047D01*
X304396190Y-156729047D02*
X304443809Y-156919523D01*
X304443809Y-156919523D02*
X304491428Y-157014761D01*
X304491428Y-157014761D02*
X304586666Y-157110000D01*
X304586666Y-157110000D02*
X304729523Y-157157619D01*
X304729523Y-157157619D02*
X304967618Y-157157619D01*
X304205714Y-157252857D02*
X303443809Y-157252857D01*
X303015237Y-156157619D02*
X302824761Y-156157619D01*
X302824761Y-156157619D02*
X302729523Y-156205238D01*
X302729523Y-156205238D02*
X302634285Y-156300476D01*
X302634285Y-156300476D02*
X302586666Y-156490952D01*
X302586666Y-156490952D02*
X302586666Y-156824285D01*
X302586666Y-156824285D02*
X302634285Y-157014761D01*
X302634285Y-157014761D02*
X302729523Y-157110000D01*
X302729523Y-157110000D02*
X302824761Y-157157619D01*
X302824761Y-157157619D02*
X303015237Y-157157619D01*
X303015237Y-157157619D02*
X303110475Y-157110000D01*
X303110475Y-157110000D02*
X303205713Y-157014761D01*
X303205713Y-157014761D02*
X303253332Y-156824285D01*
X303253332Y-156824285D02*
X303253332Y-156490952D01*
X303253332Y-156490952D02*
X303205713Y-156300476D01*
X303205713Y-156300476D02*
X303110475Y-156205238D01*
X303110475Y-156205238D02*
X303015237Y-156157619D01*
X302158094Y-156157619D02*
X302158094Y-156967142D01*
X302158094Y-156967142D02*
X302110475Y-157062380D01*
X302110475Y-157062380D02*
X302062856Y-157110000D01*
X302062856Y-157110000D02*
X301967618Y-157157619D01*
X301967618Y-157157619D02*
X301777142Y-157157619D01*
X301777142Y-157157619D02*
X301681904Y-157110000D01*
X301681904Y-157110000D02*
X301634285Y-157062380D01*
X301634285Y-157062380D02*
X301586666Y-156967142D01*
X301586666Y-156967142D02*
X301586666Y-156157619D01*
X301253332Y-156157619D02*
X300681904Y-156157619D01*
X300967618Y-157157619D02*
X300967618Y-156157619D01*
X306075714Y-151977619D02*
X306551904Y-151977619D01*
X306551904Y-151977619D02*
X306551904Y-150977619D01*
X305742380Y-151453809D02*
X305409047Y-151453809D01*
X305266190Y-151977619D02*
X305742380Y-151977619D01*
X305742380Y-151977619D02*
X305742380Y-150977619D01*
X305742380Y-150977619D02*
X305266190Y-150977619D01*
X304837618Y-151977619D02*
X304837618Y-150977619D01*
X304837618Y-150977619D02*
X304599523Y-150977619D01*
X304599523Y-150977619D02*
X304456666Y-151025238D01*
X304456666Y-151025238D02*
X304361428Y-151120476D01*
X304361428Y-151120476D02*
X304313809Y-151215714D01*
X304313809Y-151215714D02*
X304266190Y-151406190D01*
X304266190Y-151406190D02*
X304266190Y-151549047D01*
X304266190Y-151549047D02*
X304313809Y-151739523D01*
X304313809Y-151739523D02*
X304361428Y-151834761D01*
X304361428Y-151834761D02*
X304456666Y-151930000D01*
X304456666Y-151930000D02*
X304599523Y-151977619D01*
X304599523Y-151977619D02*
X304837618Y-151977619D01*
X304075714Y-152072857D02*
X303313809Y-152072857D01*
X303075713Y-151977619D02*
X303075713Y-150977619D01*
X302599523Y-151977619D02*
X302599523Y-150977619D01*
X302599523Y-150977619D02*
X302028095Y-151977619D01*
X302028095Y-151977619D02*
X302028095Y-150977619D01*
X306661904Y-149026666D02*
X305900000Y-149026666D01*
X306280952Y-149407619D02*
X306280952Y-148645714D01*
X304947619Y-148407619D02*
X305423809Y-148407619D01*
X305423809Y-148407619D02*
X305471428Y-148883809D01*
X305471428Y-148883809D02*
X305423809Y-148836190D01*
X305423809Y-148836190D02*
X305328571Y-148788571D01*
X305328571Y-148788571D02*
X305090476Y-148788571D01*
X305090476Y-148788571D02*
X304995238Y-148836190D01*
X304995238Y-148836190D02*
X304947619Y-148883809D01*
X304947619Y-148883809D02*
X304900000Y-148979047D01*
X304900000Y-148979047D02*
X304900000Y-149217142D01*
X304900000Y-149217142D02*
X304947619Y-149312380D01*
X304947619Y-149312380D02*
X304995238Y-149360000D01*
X304995238Y-149360000D02*
X305090476Y-149407619D01*
X305090476Y-149407619D02*
X305328571Y-149407619D01*
X305328571Y-149407619D02*
X305423809Y-149360000D01*
X305423809Y-149360000D02*
X305471428Y-149312380D01*
X304614285Y-148407619D02*
X304280952Y-149407619D01*
X304280952Y-149407619D02*
X303947619Y-148407619D01*
D11*
X293349523Y-18661904D02*
X292873333Y-18661904D01*
X293444761Y-18947619D02*
X293111428Y-17947619D01*
X293111428Y-17947619D02*
X292778095Y-18947619D01*
X292016190Y-18280952D02*
X292016190Y-18947619D01*
X292444761Y-18280952D02*
X292444761Y-18804761D01*
X292444761Y-18804761D02*
X292397142Y-18900000D01*
X292397142Y-18900000D02*
X292301904Y-18947619D01*
X292301904Y-18947619D02*
X292159047Y-18947619D01*
X292159047Y-18947619D02*
X292063809Y-18900000D01*
X292063809Y-18900000D02*
X292016190Y-18852380D01*
X291682856Y-18280952D02*
X291301904Y-18280952D01*
X291539999Y-17947619D02*
X291539999Y-18804761D01*
X291539999Y-18804761D02*
X291492380Y-18900000D01*
X291492380Y-18900000D02*
X291397142Y-18947619D01*
X291397142Y-18947619D02*
X291301904Y-18947619D01*
X290968570Y-18947619D02*
X290968570Y-17947619D01*
X290539999Y-18947619D02*
X290539999Y-18423809D01*
X290539999Y-18423809D02*
X290587618Y-18328571D01*
X290587618Y-18328571D02*
X290682856Y-18280952D01*
X290682856Y-18280952D02*
X290825713Y-18280952D01*
X290825713Y-18280952D02*
X290920951Y-18328571D01*
X290920951Y-18328571D02*
X290968570Y-18376190D01*
X289920951Y-18947619D02*
X290016189Y-18900000D01*
X290016189Y-18900000D02*
X290063808Y-18852380D01*
X290063808Y-18852380D02*
X290111427Y-18757142D01*
X290111427Y-18757142D02*
X290111427Y-18471428D01*
X290111427Y-18471428D02*
X290063808Y-18376190D01*
X290063808Y-18376190D02*
X290016189Y-18328571D01*
X290016189Y-18328571D02*
X289920951Y-18280952D01*
X289920951Y-18280952D02*
X289778094Y-18280952D01*
X289778094Y-18280952D02*
X289682856Y-18328571D01*
X289682856Y-18328571D02*
X289635237Y-18376190D01*
X289635237Y-18376190D02*
X289587618Y-18471428D01*
X289587618Y-18471428D02*
X289587618Y-18757142D01*
X289587618Y-18757142D02*
X289635237Y-18852380D01*
X289635237Y-18852380D02*
X289682856Y-18900000D01*
X289682856Y-18900000D02*
X289778094Y-18947619D01*
X289778094Y-18947619D02*
X289920951Y-18947619D01*
X289159046Y-18947619D02*
X289159046Y-18280952D01*
X289159046Y-18471428D02*
X289111427Y-18376190D01*
X289111427Y-18376190D02*
X289063808Y-18328571D01*
X289063808Y-18328571D02*
X288968570Y-18280952D01*
X288968570Y-18280952D02*
X288873332Y-18280952D01*
X288539998Y-18852380D02*
X288492379Y-18900000D01*
X288492379Y-18900000D02*
X288539998Y-18947619D01*
X288539998Y-18947619D02*
X288587617Y-18900000D01*
X288587617Y-18900000D02*
X288539998Y-18852380D01*
X288539998Y-18852380D02*
X288539998Y-18947619D01*
X288539998Y-18328571D02*
X288492379Y-18376190D01*
X288492379Y-18376190D02*
X288539998Y-18423809D01*
X288539998Y-18423809D02*
X288587617Y-18376190D01*
X288587617Y-18376190D02*
X288539998Y-18328571D01*
X288539998Y-18328571D02*
X288539998Y-18423809D01*
X287349522Y-18900000D02*
X287206665Y-18947619D01*
X287206665Y-18947619D02*
X286968570Y-18947619D01*
X286968570Y-18947619D02*
X286873332Y-18900000D01*
X286873332Y-18900000D02*
X286825713Y-18852380D01*
X286825713Y-18852380D02*
X286778094Y-18757142D01*
X286778094Y-18757142D02*
X286778094Y-18661904D01*
X286778094Y-18661904D02*
X286825713Y-18566666D01*
X286825713Y-18566666D02*
X286873332Y-18519047D01*
X286873332Y-18519047D02*
X286968570Y-18471428D01*
X286968570Y-18471428D02*
X287159046Y-18423809D01*
X287159046Y-18423809D02*
X287254284Y-18376190D01*
X287254284Y-18376190D02*
X287301903Y-18328571D01*
X287301903Y-18328571D02*
X287349522Y-18233333D01*
X287349522Y-18233333D02*
X287349522Y-18138095D01*
X287349522Y-18138095D02*
X287301903Y-18042857D01*
X287301903Y-18042857D02*
X287254284Y-17995238D01*
X287254284Y-17995238D02*
X287159046Y-17947619D01*
X287159046Y-17947619D02*
X286920951Y-17947619D01*
X286920951Y-17947619D02*
X286778094Y-17995238D01*
X286492379Y-18280952D02*
X286111427Y-18280952D01*
X286349522Y-17947619D02*
X286349522Y-18804761D01*
X286349522Y-18804761D02*
X286301903Y-18900000D01*
X286301903Y-18900000D02*
X286206665Y-18947619D01*
X286206665Y-18947619D02*
X286111427Y-18947619D01*
X285397141Y-18900000D02*
X285492379Y-18947619D01*
X285492379Y-18947619D02*
X285682855Y-18947619D01*
X285682855Y-18947619D02*
X285778093Y-18900000D01*
X285778093Y-18900000D02*
X285825712Y-18804761D01*
X285825712Y-18804761D02*
X285825712Y-18423809D01*
X285825712Y-18423809D02*
X285778093Y-18328571D01*
X285778093Y-18328571D02*
X285682855Y-18280952D01*
X285682855Y-18280952D02*
X285492379Y-18280952D01*
X285492379Y-18280952D02*
X285397141Y-18328571D01*
X285397141Y-18328571D02*
X285349522Y-18423809D01*
X285349522Y-18423809D02*
X285349522Y-18519047D01*
X285349522Y-18519047D02*
X285825712Y-18614285D01*
X285016188Y-18280952D02*
X284778093Y-18947619D01*
X284778093Y-18947619D02*
X284539998Y-18280952D01*
X283778093Y-18900000D02*
X283873331Y-18947619D01*
X283873331Y-18947619D02*
X284063807Y-18947619D01*
X284063807Y-18947619D02*
X284159045Y-18900000D01*
X284159045Y-18900000D02*
X284206664Y-18804761D01*
X284206664Y-18804761D02*
X284206664Y-18423809D01*
X284206664Y-18423809D02*
X284159045Y-18328571D01*
X284159045Y-18328571D02*
X284063807Y-18280952D01*
X284063807Y-18280952D02*
X283873331Y-18280952D01*
X283873331Y-18280952D02*
X283778093Y-18328571D01*
X283778093Y-18328571D02*
X283730474Y-18423809D01*
X283730474Y-18423809D02*
X283730474Y-18519047D01*
X283730474Y-18519047D02*
X284206664Y-18614285D01*
X283301902Y-18280952D02*
X283301902Y-18947619D01*
X283301902Y-18376190D02*
X283254283Y-18328571D01*
X283254283Y-18328571D02*
X283159045Y-18280952D01*
X283159045Y-18280952D02*
X283016188Y-18280952D01*
X283016188Y-18280952D02*
X282920950Y-18328571D01*
X282920950Y-18328571D02*
X282873331Y-18423809D01*
X282873331Y-18423809D02*
X282873331Y-18947619D01*
X281682854Y-18900000D02*
X281539997Y-18947619D01*
X281539997Y-18947619D02*
X281301902Y-18947619D01*
X281301902Y-18947619D02*
X281206664Y-18900000D01*
X281206664Y-18900000D02*
X281159045Y-18852380D01*
X281159045Y-18852380D02*
X281111426Y-18757142D01*
X281111426Y-18757142D02*
X281111426Y-18661904D01*
X281111426Y-18661904D02*
X281159045Y-18566666D01*
X281159045Y-18566666D02*
X281206664Y-18519047D01*
X281206664Y-18519047D02*
X281301902Y-18471428D01*
X281301902Y-18471428D02*
X281492378Y-18423809D01*
X281492378Y-18423809D02*
X281587616Y-18376190D01*
X281587616Y-18376190D02*
X281635235Y-18328571D01*
X281635235Y-18328571D02*
X281682854Y-18233333D01*
X281682854Y-18233333D02*
X281682854Y-18138095D01*
X281682854Y-18138095D02*
X281635235Y-18042857D01*
X281635235Y-18042857D02*
X281587616Y-17995238D01*
X281587616Y-17995238D02*
X281492378Y-17947619D01*
X281492378Y-17947619D02*
X281254283Y-17947619D01*
X281254283Y-17947619D02*
X281111426Y-17995238D01*
X280682854Y-18947619D02*
X280682854Y-18280952D01*
X280682854Y-18376190D02*
X280635235Y-18328571D01*
X280635235Y-18328571D02*
X280539997Y-18280952D01*
X280539997Y-18280952D02*
X280397140Y-18280952D01*
X280397140Y-18280952D02*
X280301902Y-18328571D01*
X280301902Y-18328571D02*
X280254283Y-18423809D01*
X280254283Y-18423809D02*
X280254283Y-18947619D01*
X280254283Y-18423809D02*
X280206664Y-18328571D01*
X280206664Y-18328571D02*
X280111426Y-18280952D01*
X280111426Y-18280952D02*
X279968569Y-18280952D01*
X279968569Y-18280952D02*
X279873330Y-18328571D01*
X279873330Y-18328571D02*
X279825711Y-18423809D01*
X279825711Y-18423809D02*
X279825711Y-18947619D01*
X278968569Y-18900000D02*
X279063807Y-18947619D01*
X279063807Y-18947619D02*
X279254283Y-18947619D01*
X279254283Y-18947619D02*
X279349521Y-18900000D01*
X279349521Y-18900000D02*
X279397140Y-18804761D01*
X279397140Y-18804761D02*
X279397140Y-18423809D01*
X279397140Y-18423809D02*
X279349521Y-18328571D01*
X279349521Y-18328571D02*
X279254283Y-18280952D01*
X279254283Y-18280952D02*
X279063807Y-18280952D01*
X279063807Y-18280952D02*
X278968569Y-18328571D01*
X278968569Y-18328571D02*
X278920950Y-18423809D01*
X278920950Y-18423809D02*
X278920950Y-18519047D01*
X278920950Y-18519047D02*
X279397140Y-18614285D01*
X278635235Y-18280952D02*
X278254283Y-18280952D01*
X278492378Y-17947619D02*
X278492378Y-18804761D01*
X278492378Y-18804761D02*
X278444759Y-18900000D01*
X278444759Y-18900000D02*
X278349521Y-18947619D01*
X278349521Y-18947619D02*
X278254283Y-18947619D01*
X277920949Y-18947619D02*
X277920949Y-17947619D01*
X277492378Y-18947619D02*
X277492378Y-18423809D01*
X277492378Y-18423809D02*
X277539997Y-18328571D01*
X277539997Y-18328571D02*
X277635235Y-18280952D01*
X277635235Y-18280952D02*
X277778092Y-18280952D01*
X277778092Y-18280952D02*
X277873330Y-18328571D01*
X277873330Y-18328571D02*
X277920949Y-18376190D01*
X276587616Y-18280952D02*
X276587616Y-18947619D01*
X277016187Y-18280952D02*
X277016187Y-18804761D01*
X277016187Y-18804761D02*
X276968568Y-18900000D01*
X276968568Y-18900000D02*
X276873330Y-18947619D01*
X276873330Y-18947619D02*
X276730473Y-18947619D01*
X276730473Y-18947619D02*
X276635235Y-18900000D01*
X276635235Y-18900000D02*
X276587616Y-18852380D01*
X276111425Y-18947619D02*
X276111425Y-18280952D01*
X276111425Y-18471428D02*
X276063806Y-18376190D01*
X276063806Y-18376190D02*
X276016187Y-18328571D01*
X276016187Y-18328571D02*
X275920949Y-18280952D01*
X275920949Y-18280952D02*
X275825711Y-18280952D01*
X275539996Y-18900000D02*
X275444758Y-18947619D01*
X275444758Y-18947619D02*
X275254282Y-18947619D01*
X275254282Y-18947619D02*
X275159044Y-18900000D01*
X275159044Y-18900000D02*
X275111425Y-18804761D01*
X275111425Y-18804761D02*
X275111425Y-18757142D01*
X275111425Y-18757142D02*
X275159044Y-18661904D01*
X275159044Y-18661904D02*
X275254282Y-18614285D01*
X275254282Y-18614285D02*
X275397139Y-18614285D01*
X275397139Y-18614285D02*
X275492377Y-18566666D01*
X275492377Y-18566666D02*
X275539996Y-18471428D01*
X275539996Y-18471428D02*
X275539996Y-18423809D01*
X275539996Y-18423809D02*
X275492377Y-18328571D01*
X275492377Y-18328571D02*
X275397139Y-18280952D01*
X275397139Y-18280952D02*
X275254282Y-18280952D01*
X275254282Y-18280952D02*
X275159044Y-18328571D01*
X274825710Y-18280952D02*
X274444758Y-18280952D01*
X274682853Y-17947619D02*
X274682853Y-18804761D01*
X274682853Y-18804761D02*
X274635234Y-18900000D01*
X274635234Y-18900000D02*
X274539996Y-18947619D01*
X274539996Y-18947619D02*
X274444758Y-18947619D01*
X272730472Y-18471428D02*
X272778091Y-18423809D01*
X272778091Y-18423809D02*
X272873329Y-18376190D01*
X272873329Y-18376190D02*
X272968567Y-18376190D01*
X272968567Y-18376190D02*
X273063805Y-18423809D01*
X273063805Y-18423809D02*
X273111424Y-18471428D01*
X273111424Y-18471428D02*
X273159043Y-18566666D01*
X273159043Y-18566666D02*
X273159043Y-18661904D01*
X273159043Y-18661904D02*
X273111424Y-18757142D01*
X273111424Y-18757142D02*
X273063805Y-18804761D01*
X273063805Y-18804761D02*
X272968567Y-18852380D01*
X272968567Y-18852380D02*
X272873329Y-18852380D01*
X272873329Y-18852380D02*
X272778091Y-18804761D01*
X272778091Y-18804761D02*
X272730472Y-18757142D01*
X272730472Y-18376190D02*
X272730472Y-18757142D01*
X272730472Y-18757142D02*
X272682853Y-18804761D01*
X272682853Y-18804761D02*
X272635234Y-18804761D01*
X272635234Y-18804761D02*
X272539995Y-18757142D01*
X272539995Y-18757142D02*
X272492376Y-18661904D01*
X272492376Y-18661904D02*
X272492376Y-18423809D01*
X272492376Y-18423809D02*
X272587615Y-18280952D01*
X272587615Y-18280952D02*
X272730472Y-18185714D01*
X272730472Y-18185714D02*
X272920948Y-18138095D01*
X272920948Y-18138095D02*
X273111424Y-18185714D01*
X273111424Y-18185714D02*
X273254281Y-18280952D01*
X273254281Y-18280952D02*
X273349519Y-18423809D01*
X273349519Y-18423809D02*
X273397138Y-18614285D01*
X273397138Y-18614285D02*
X273349519Y-18804761D01*
X273349519Y-18804761D02*
X273254281Y-18947619D01*
X273254281Y-18947619D02*
X273111424Y-19042857D01*
X273111424Y-19042857D02*
X272920948Y-19090476D01*
X272920948Y-19090476D02*
X272730472Y-19042857D01*
X272730472Y-19042857D02*
X272587615Y-18947619D01*
X272206662Y-18280952D02*
X271825710Y-18280952D01*
X272063805Y-18947619D02*
X272063805Y-18090476D01*
X272063805Y-18090476D02*
X272016186Y-17995238D01*
X272016186Y-17995238D02*
X271920948Y-17947619D01*
X271920948Y-17947619D02*
X271825710Y-17947619D01*
X271063805Y-18280952D02*
X271063805Y-18947619D01*
X271492376Y-18280952D02*
X271492376Y-18804761D01*
X271492376Y-18804761D02*
X271444757Y-18900000D01*
X271444757Y-18900000D02*
X271349519Y-18947619D01*
X271349519Y-18947619D02*
X271206662Y-18947619D01*
X271206662Y-18947619D02*
X271111424Y-18900000D01*
X271111424Y-18900000D02*
X271063805Y-18852380D01*
X270587614Y-18280952D02*
X270587614Y-18947619D01*
X270587614Y-18376190D02*
X270539995Y-18328571D01*
X270539995Y-18328571D02*
X270444757Y-18280952D01*
X270444757Y-18280952D02*
X270301900Y-18280952D01*
X270301900Y-18280952D02*
X270206662Y-18328571D01*
X270206662Y-18328571D02*
X270159043Y-18423809D01*
X270159043Y-18423809D02*
X270159043Y-18947619D01*
X269778090Y-18280952D02*
X269539995Y-18947619D01*
X269539995Y-18947619D02*
X269301900Y-18280952D01*
X268920947Y-18947619D02*
X268920947Y-18280952D01*
X268920947Y-17947619D02*
X268968566Y-17995238D01*
X268968566Y-17995238D02*
X268920947Y-18042857D01*
X268920947Y-18042857D02*
X268873328Y-17995238D01*
X268873328Y-17995238D02*
X268920947Y-17947619D01*
X268920947Y-17947619D02*
X268920947Y-18042857D01*
X268301900Y-18947619D02*
X268397138Y-18900000D01*
X268397138Y-18900000D02*
X268444757Y-18804761D01*
X268444757Y-18804761D02*
X268444757Y-17947619D01*
X267778090Y-18947619D02*
X267873328Y-18900000D01*
X267873328Y-18900000D02*
X267920947Y-18804761D01*
X267920947Y-18804761D02*
X267920947Y-17947619D01*
X293444761Y-19567619D02*
X293111428Y-20567619D01*
X293111428Y-20567619D02*
X292778095Y-19567619D01*
X292063809Y-20520000D02*
X292159047Y-20567619D01*
X292159047Y-20567619D02*
X292349523Y-20567619D01*
X292349523Y-20567619D02*
X292444761Y-20520000D01*
X292444761Y-20520000D02*
X292492380Y-20424761D01*
X292492380Y-20424761D02*
X292492380Y-20043809D01*
X292492380Y-20043809D02*
X292444761Y-19948571D01*
X292444761Y-19948571D02*
X292349523Y-19900952D01*
X292349523Y-19900952D02*
X292159047Y-19900952D01*
X292159047Y-19900952D02*
X292063809Y-19948571D01*
X292063809Y-19948571D02*
X292016190Y-20043809D01*
X292016190Y-20043809D02*
X292016190Y-20139047D01*
X292016190Y-20139047D02*
X292492380Y-20234285D01*
X291587618Y-20567619D02*
X291587618Y-19900952D01*
X291587618Y-20091428D02*
X291539999Y-19996190D01*
X291539999Y-19996190D02*
X291492380Y-19948571D01*
X291492380Y-19948571D02*
X291397142Y-19900952D01*
X291397142Y-19900952D02*
X291301904Y-19900952D01*
X291016189Y-20520000D02*
X290920951Y-20567619D01*
X290920951Y-20567619D02*
X290730475Y-20567619D01*
X290730475Y-20567619D02*
X290635237Y-20520000D01*
X290635237Y-20520000D02*
X290587618Y-20424761D01*
X290587618Y-20424761D02*
X290587618Y-20377142D01*
X290587618Y-20377142D02*
X290635237Y-20281904D01*
X290635237Y-20281904D02*
X290730475Y-20234285D01*
X290730475Y-20234285D02*
X290873332Y-20234285D01*
X290873332Y-20234285D02*
X290968570Y-20186666D01*
X290968570Y-20186666D02*
X291016189Y-20091428D01*
X291016189Y-20091428D02*
X291016189Y-20043809D01*
X291016189Y-20043809D02*
X290968570Y-19948571D01*
X290968570Y-19948571D02*
X290873332Y-19900952D01*
X290873332Y-19900952D02*
X290730475Y-19900952D01*
X290730475Y-19900952D02*
X290635237Y-19948571D01*
X290159046Y-20567619D02*
X290159046Y-19900952D01*
X290159046Y-19567619D02*
X290206665Y-19615238D01*
X290206665Y-19615238D02*
X290159046Y-19662857D01*
X290159046Y-19662857D02*
X290111427Y-19615238D01*
X290111427Y-19615238D02*
X290159046Y-19567619D01*
X290159046Y-19567619D02*
X290159046Y-19662857D01*
X289539999Y-20567619D02*
X289635237Y-20520000D01*
X289635237Y-20520000D02*
X289682856Y-20472380D01*
X289682856Y-20472380D02*
X289730475Y-20377142D01*
X289730475Y-20377142D02*
X289730475Y-20091428D01*
X289730475Y-20091428D02*
X289682856Y-19996190D01*
X289682856Y-19996190D02*
X289635237Y-19948571D01*
X289635237Y-19948571D02*
X289539999Y-19900952D01*
X289539999Y-19900952D02*
X289397142Y-19900952D01*
X289397142Y-19900952D02*
X289301904Y-19948571D01*
X289301904Y-19948571D02*
X289254285Y-19996190D01*
X289254285Y-19996190D02*
X289206666Y-20091428D01*
X289206666Y-20091428D02*
X289206666Y-20377142D01*
X289206666Y-20377142D02*
X289254285Y-20472380D01*
X289254285Y-20472380D02*
X289301904Y-20520000D01*
X289301904Y-20520000D02*
X289397142Y-20567619D01*
X289397142Y-20567619D02*
X289539999Y-20567619D01*
X288778094Y-19900952D02*
X288778094Y-20567619D01*
X288778094Y-19996190D02*
X288730475Y-19948571D01*
X288730475Y-19948571D02*
X288635237Y-19900952D01*
X288635237Y-19900952D02*
X288492380Y-19900952D01*
X288492380Y-19900952D02*
X288397142Y-19948571D01*
X288397142Y-19948571D02*
X288349523Y-20043809D01*
X288349523Y-20043809D02*
X288349523Y-20567619D01*
X287873332Y-20472380D02*
X287825713Y-20520000D01*
X287825713Y-20520000D02*
X287873332Y-20567619D01*
X287873332Y-20567619D02*
X287920951Y-20520000D01*
X287920951Y-20520000D02*
X287873332Y-20472380D01*
X287873332Y-20472380D02*
X287873332Y-20567619D01*
X287873332Y-19948571D02*
X287825713Y-19996190D01*
X287825713Y-19996190D02*
X287873332Y-20043809D01*
X287873332Y-20043809D02*
X287920951Y-19996190D01*
X287920951Y-19996190D02*
X287873332Y-19948571D01*
X287873332Y-19948571D02*
X287873332Y-20043809D01*
X286682856Y-19662857D02*
X286635237Y-19615238D01*
X286635237Y-19615238D02*
X286539999Y-19567619D01*
X286539999Y-19567619D02*
X286301904Y-19567619D01*
X286301904Y-19567619D02*
X286206666Y-19615238D01*
X286206666Y-19615238D02*
X286159047Y-19662857D01*
X286159047Y-19662857D02*
X286111428Y-19758095D01*
X286111428Y-19758095D02*
X286111428Y-19853333D01*
X286111428Y-19853333D02*
X286159047Y-19996190D01*
X286159047Y-19996190D02*
X286730475Y-20567619D01*
X286730475Y-20567619D02*
X286111428Y-20567619D01*
X285492380Y-19567619D02*
X285397142Y-19567619D01*
X285397142Y-19567619D02*
X285301904Y-19615238D01*
X285301904Y-19615238D02*
X285254285Y-19662857D01*
X285254285Y-19662857D02*
X285206666Y-19758095D01*
X285206666Y-19758095D02*
X285159047Y-19948571D01*
X285159047Y-19948571D02*
X285159047Y-20186666D01*
X285159047Y-20186666D02*
X285206666Y-20377142D01*
X285206666Y-20377142D02*
X285254285Y-20472380D01*
X285254285Y-20472380D02*
X285301904Y-20520000D01*
X285301904Y-20520000D02*
X285397142Y-20567619D01*
X285397142Y-20567619D02*
X285492380Y-20567619D01*
X285492380Y-20567619D02*
X285587618Y-20520000D01*
X285587618Y-20520000D02*
X285635237Y-20472380D01*
X285635237Y-20472380D02*
X285682856Y-20377142D01*
X285682856Y-20377142D02*
X285730475Y-20186666D01*
X285730475Y-20186666D02*
X285730475Y-19948571D01*
X285730475Y-19948571D02*
X285682856Y-19758095D01*
X285682856Y-19758095D02*
X285635237Y-19662857D01*
X285635237Y-19662857D02*
X285587618Y-19615238D01*
X285587618Y-19615238D02*
X285492380Y-19567619D01*
X284778094Y-19662857D02*
X284730475Y-19615238D01*
X284730475Y-19615238D02*
X284635237Y-19567619D01*
X284635237Y-19567619D02*
X284397142Y-19567619D01*
X284397142Y-19567619D02*
X284301904Y-19615238D01*
X284301904Y-19615238D02*
X284254285Y-19662857D01*
X284254285Y-19662857D02*
X284206666Y-19758095D01*
X284206666Y-19758095D02*
X284206666Y-19853333D01*
X284206666Y-19853333D02*
X284254285Y-19996190D01*
X284254285Y-19996190D02*
X284825713Y-20567619D01*
X284825713Y-20567619D02*
X284206666Y-20567619D01*
X283873332Y-19567619D02*
X283254285Y-19567619D01*
X283254285Y-19567619D02*
X283587618Y-19948571D01*
X283587618Y-19948571D02*
X283444761Y-19948571D01*
X283444761Y-19948571D02*
X283349523Y-19996190D01*
X283349523Y-19996190D02*
X283301904Y-20043809D01*
X283301904Y-20043809D02*
X283254285Y-20139047D01*
X283254285Y-20139047D02*
X283254285Y-20377142D01*
X283254285Y-20377142D02*
X283301904Y-20472380D01*
X283301904Y-20472380D02*
X283349523Y-20520000D01*
X283349523Y-20520000D02*
X283444761Y-20567619D01*
X283444761Y-20567619D02*
X283730475Y-20567619D01*
X283730475Y-20567619D02*
X283825713Y-20520000D01*
X283825713Y-20520000D02*
X283873332Y-20472380D01*
X282825713Y-20186666D02*
X282063809Y-20186666D01*
X281635237Y-20520000D02*
X281492380Y-20567619D01*
X281492380Y-20567619D02*
X281254285Y-20567619D01*
X281254285Y-20567619D02*
X281159047Y-20520000D01*
X281159047Y-20520000D02*
X281111428Y-20472380D01*
X281111428Y-20472380D02*
X281063809Y-20377142D01*
X281063809Y-20377142D02*
X281063809Y-20281904D01*
X281063809Y-20281904D02*
X281111428Y-20186666D01*
X281111428Y-20186666D02*
X281159047Y-20139047D01*
X281159047Y-20139047D02*
X281254285Y-20091428D01*
X281254285Y-20091428D02*
X281444761Y-20043809D01*
X281444761Y-20043809D02*
X281539999Y-19996190D01*
X281539999Y-19996190D02*
X281587618Y-19948571D01*
X281587618Y-19948571D02*
X281635237Y-19853333D01*
X281635237Y-19853333D02*
X281635237Y-19758095D01*
X281635237Y-19758095D02*
X281587618Y-19662857D01*
X281587618Y-19662857D02*
X281539999Y-19615238D01*
X281539999Y-19615238D02*
X281444761Y-19567619D01*
X281444761Y-19567619D02*
X281206666Y-19567619D01*
X281206666Y-19567619D02*
X281063809Y-19615238D01*
X280254285Y-20520000D02*
X280349523Y-20567619D01*
X280349523Y-20567619D02*
X280539999Y-20567619D01*
X280539999Y-20567619D02*
X280635237Y-20520000D01*
X280635237Y-20520000D02*
X280682856Y-20424761D01*
X280682856Y-20424761D02*
X280682856Y-20043809D01*
X280682856Y-20043809D02*
X280635237Y-19948571D01*
X280635237Y-19948571D02*
X280539999Y-19900952D01*
X280539999Y-19900952D02*
X280349523Y-19900952D01*
X280349523Y-19900952D02*
X280254285Y-19948571D01*
X280254285Y-19948571D02*
X280206666Y-20043809D01*
X280206666Y-20043809D02*
X280206666Y-20139047D01*
X280206666Y-20139047D02*
X280682856Y-20234285D01*
X279778094Y-19900952D02*
X279778094Y-20900952D01*
X279778094Y-19948571D02*
X279682856Y-19900952D01*
X279682856Y-19900952D02*
X279492380Y-19900952D01*
X279492380Y-19900952D02*
X279397142Y-19948571D01*
X279397142Y-19948571D02*
X279349523Y-19996190D01*
X279349523Y-19996190D02*
X279301904Y-20091428D01*
X279301904Y-20091428D02*
X279301904Y-20377142D01*
X279301904Y-20377142D02*
X279349523Y-20472380D01*
X279349523Y-20472380D02*
X279397142Y-20520000D01*
X279397142Y-20520000D02*
X279492380Y-20567619D01*
X279492380Y-20567619D02*
X279682856Y-20567619D01*
X279682856Y-20567619D02*
X279778094Y-20520000D01*
X278873332Y-20186666D02*
X278111428Y-20186666D01*
X277111428Y-20567619D02*
X277682856Y-20567619D01*
X277397142Y-20567619D02*
X277397142Y-19567619D01*
X277397142Y-19567619D02*
X277492380Y-19710476D01*
X277492380Y-19710476D02*
X277587618Y-19805714D01*
X277587618Y-19805714D02*
X277682856Y-19853333D01*
X276778094Y-19567619D02*
X276111428Y-19567619D01*
X276111428Y-19567619D02*
X276539999Y-20567619D01*
X293301904Y-22187619D02*
X293301904Y-21187619D01*
X292873333Y-22187619D02*
X292873333Y-21663809D01*
X292873333Y-21663809D02*
X292920952Y-21568571D01*
X292920952Y-21568571D02*
X293016190Y-21520952D01*
X293016190Y-21520952D02*
X293159047Y-21520952D01*
X293159047Y-21520952D02*
X293254285Y-21568571D01*
X293254285Y-21568571D02*
X293301904Y-21616190D01*
X292539999Y-21520952D02*
X292159047Y-21520952D01*
X292397142Y-21187619D02*
X292397142Y-22044761D01*
X292397142Y-22044761D02*
X292349523Y-22140000D01*
X292349523Y-22140000D02*
X292254285Y-22187619D01*
X292254285Y-22187619D02*
X292159047Y-22187619D01*
X291968570Y-21520952D02*
X291587618Y-21520952D01*
X291825713Y-21187619D02*
X291825713Y-22044761D01*
X291825713Y-22044761D02*
X291778094Y-22140000D01*
X291778094Y-22140000D02*
X291682856Y-22187619D01*
X291682856Y-22187619D02*
X291587618Y-22187619D01*
X291254284Y-21520952D02*
X291254284Y-22520952D01*
X291254284Y-21568571D02*
X291159046Y-21520952D01*
X291159046Y-21520952D02*
X290968570Y-21520952D01*
X290968570Y-21520952D02*
X290873332Y-21568571D01*
X290873332Y-21568571D02*
X290825713Y-21616190D01*
X290825713Y-21616190D02*
X290778094Y-21711428D01*
X290778094Y-21711428D02*
X290778094Y-21997142D01*
X290778094Y-21997142D02*
X290825713Y-22092380D01*
X290825713Y-22092380D02*
X290873332Y-22140000D01*
X290873332Y-22140000D02*
X290968570Y-22187619D01*
X290968570Y-22187619D02*
X291159046Y-22187619D01*
X291159046Y-22187619D02*
X291254284Y-22140000D01*
X290397141Y-22140000D02*
X290301903Y-22187619D01*
X290301903Y-22187619D02*
X290111427Y-22187619D01*
X290111427Y-22187619D02*
X290016189Y-22140000D01*
X290016189Y-22140000D02*
X289968570Y-22044761D01*
X289968570Y-22044761D02*
X289968570Y-21997142D01*
X289968570Y-21997142D02*
X290016189Y-21901904D01*
X290016189Y-21901904D02*
X290111427Y-21854285D01*
X290111427Y-21854285D02*
X290254284Y-21854285D01*
X290254284Y-21854285D02*
X290349522Y-21806666D01*
X290349522Y-21806666D02*
X290397141Y-21711428D01*
X290397141Y-21711428D02*
X290397141Y-21663809D01*
X290397141Y-21663809D02*
X290349522Y-21568571D01*
X290349522Y-21568571D02*
X290254284Y-21520952D01*
X290254284Y-21520952D02*
X290111427Y-21520952D01*
X290111427Y-21520952D02*
X290016189Y-21568571D01*
X289539998Y-22092380D02*
X289492379Y-22140000D01*
X289492379Y-22140000D02*
X289539998Y-22187619D01*
X289539998Y-22187619D02*
X289587617Y-22140000D01*
X289587617Y-22140000D02*
X289539998Y-22092380D01*
X289539998Y-22092380D02*
X289539998Y-22187619D01*
X289539998Y-21568571D02*
X289492379Y-21616190D01*
X289492379Y-21616190D02*
X289539998Y-21663809D01*
X289539998Y-21663809D02*
X289587617Y-21616190D01*
X289587617Y-21616190D02*
X289539998Y-21568571D01*
X289539998Y-21568571D02*
X289539998Y-21663809D01*
X288349523Y-21140000D02*
X289206665Y-22425714D01*
X287301904Y-21140000D02*
X288159046Y-22425714D01*
X286539999Y-21520952D02*
X286539999Y-22330476D01*
X286539999Y-22330476D02*
X286587618Y-22425714D01*
X286587618Y-22425714D02*
X286635237Y-22473333D01*
X286635237Y-22473333D02*
X286730475Y-22520952D01*
X286730475Y-22520952D02*
X286873332Y-22520952D01*
X286873332Y-22520952D02*
X286968570Y-22473333D01*
X286539999Y-22140000D02*
X286635237Y-22187619D01*
X286635237Y-22187619D02*
X286825713Y-22187619D01*
X286825713Y-22187619D02*
X286920951Y-22140000D01*
X286920951Y-22140000D02*
X286968570Y-22092380D01*
X286968570Y-22092380D02*
X287016189Y-21997142D01*
X287016189Y-21997142D02*
X287016189Y-21711428D01*
X287016189Y-21711428D02*
X286968570Y-21616190D01*
X286968570Y-21616190D02*
X286920951Y-21568571D01*
X286920951Y-21568571D02*
X286825713Y-21520952D01*
X286825713Y-21520952D02*
X286635237Y-21520952D01*
X286635237Y-21520952D02*
X286539999Y-21568571D01*
X286063808Y-22187619D02*
X286063808Y-21520952D01*
X286063808Y-21187619D02*
X286111427Y-21235238D01*
X286111427Y-21235238D02*
X286063808Y-21282857D01*
X286063808Y-21282857D02*
X286016189Y-21235238D01*
X286016189Y-21235238D02*
X286063808Y-21187619D01*
X286063808Y-21187619D02*
X286063808Y-21282857D01*
X285730475Y-21520952D02*
X285349523Y-21520952D01*
X285587618Y-21187619D02*
X285587618Y-22044761D01*
X285587618Y-22044761D02*
X285539999Y-22140000D01*
X285539999Y-22140000D02*
X285444761Y-22187619D01*
X285444761Y-22187619D02*
X285349523Y-22187619D01*
X285016189Y-22187619D02*
X285016189Y-21187619D01*
X284587618Y-22187619D02*
X284587618Y-21663809D01*
X284587618Y-21663809D02*
X284635237Y-21568571D01*
X284635237Y-21568571D02*
X284730475Y-21520952D01*
X284730475Y-21520952D02*
X284873332Y-21520952D01*
X284873332Y-21520952D02*
X284968570Y-21568571D01*
X284968570Y-21568571D02*
X285016189Y-21616190D01*
X283682856Y-21520952D02*
X283682856Y-22187619D01*
X284111427Y-21520952D02*
X284111427Y-22044761D01*
X284111427Y-22044761D02*
X284063808Y-22140000D01*
X284063808Y-22140000D02*
X283968570Y-22187619D01*
X283968570Y-22187619D02*
X283825713Y-22187619D01*
X283825713Y-22187619D02*
X283730475Y-22140000D01*
X283730475Y-22140000D02*
X283682856Y-22092380D01*
X283206665Y-22187619D02*
X283206665Y-21187619D01*
X283206665Y-21568571D02*
X283111427Y-21520952D01*
X283111427Y-21520952D02*
X282920951Y-21520952D01*
X282920951Y-21520952D02*
X282825713Y-21568571D01*
X282825713Y-21568571D02*
X282778094Y-21616190D01*
X282778094Y-21616190D02*
X282730475Y-21711428D01*
X282730475Y-21711428D02*
X282730475Y-21997142D01*
X282730475Y-21997142D02*
X282778094Y-22092380D01*
X282778094Y-22092380D02*
X282825713Y-22140000D01*
X282825713Y-22140000D02*
X282920951Y-22187619D01*
X282920951Y-22187619D02*
X283111427Y-22187619D01*
X283111427Y-22187619D02*
X283206665Y-22140000D01*
X282301903Y-22092380D02*
X282254284Y-22140000D01*
X282254284Y-22140000D02*
X282301903Y-22187619D01*
X282301903Y-22187619D02*
X282349522Y-22140000D01*
X282349522Y-22140000D02*
X282301903Y-22092380D01*
X282301903Y-22092380D02*
X282301903Y-22187619D01*
X281397142Y-22140000D02*
X281492380Y-22187619D01*
X281492380Y-22187619D02*
X281682856Y-22187619D01*
X281682856Y-22187619D02*
X281778094Y-22140000D01*
X281778094Y-22140000D02*
X281825713Y-22092380D01*
X281825713Y-22092380D02*
X281873332Y-21997142D01*
X281873332Y-21997142D02*
X281873332Y-21711428D01*
X281873332Y-21711428D02*
X281825713Y-21616190D01*
X281825713Y-21616190D02*
X281778094Y-21568571D01*
X281778094Y-21568571D02*
X281682856Y-21520952D01*
X281682856Y-21520952D02*
X281492380Y-21520952D01*
X281492380Y-21520952D02*
X281397142Y-21568571D01*
X280825713Y-22187619D02*
X280920951Y-22140000D01*
X280920951Y-22140000D02*
X280968570Y-22092380D01*
X280968570Y-22092380D02*
X281016189Y-21997142D01*
X281016189Y-21997142D02*
X281016189Y-21711428D01*
X281016189Y-21711428D02*
X280968570Y-21616190D01*
X280968570Y-21616190D02*
X280920951Y-21568571D01*
X280920951Y-21568571D02*
X280825713Y-21520952D01*
X280825713Y-21520952D02*
X280682856Y-21520952D01*
X280682856Y-21520952D02*
X280587618Y-21568571D01*
X280587618Y-21568571D02*
X280539999Y-21616190D01*
X280539999Y-21616190D02*
X280492380Y-21711428D01*
X280492380Y-21711428D02*
X280492380Y-21997142D01*
X280492380Y-21997142D02*
X280539999Y-22092380D01*
X280539999Y-22092380D02*
X280587618Y-22140000D01*
X280587618Y-22140000D02*
X280682856Y-22187619D01*
X280682856Y-22187619D02*
X280825713Y-22187619D01*
X280063808Y-22187619D02*
X280063808Y-21520952D01*
X280063808Y-21616190D02*
X280016189Y-21568571D01*
X280016189Y-21568571D02*
X279920951Y-21520952D01*
X279920951Y-21520952D02*
X279778094Y-21520952D01*
X279778094Y-21520952D02*
X279682856Y-21568571D01*
X279682856Y-21568571D02*
X279635237Y-21663809D01*
X279635237Y-21663809D02*
X279635237Y-22187619D01*
X279635237Y-21663809D02*
X279587618Y-21568571D01*
X279587618Y-21568571D02*
X279492380Y-21520952D01*
X279492380Y-21520952D02*
X279349523Y-21520952D01*
X279349523Y-21520952D02*
X279254284Y-21568571D01*
X279254284Y-21568571D02*
X279206665Y-21663809D01*
X279206665Y-21663809D02*
X279206665Y-22187619D01*
X278016190Y-21140000D02*
X278873332Y-22425714D01*
X277825713Y-21520952D02*
X277444761Y-21520952D01*
X277682856Y-22187619D02*
X277682856Y-21330476D01*
X277682856Y-21330476D02*
X277635237Y-21235238D01*
X277635237Y-21235238D02*
X277539999Y-21187619D01*
X277539999Y-21187619D02*
X277444761Y-21187619D01*
X276682856Y-21520952D02*
X276682856Y-22187619D01*
X277111427Y-21520952D02*
X277111427Y-22044761D01*
X277111427Y-22044761D02*
X277063808Y-22140000D01*
X277063808Y-22140000D02*
X276968570Y-22187619D01*
X276968570Y-22187619D02*
X276825713Y-22187619D01*
X276825713Y-22187619D02*
X276730475Y-22140000D01*
X276730475Y-22140000D02*
X276682856Y-22092380D01*
X276206665Y-21520952D02*
X276206665Y-22187619D01*
X276206665Y-21616190D02*
X276159046Y-21568571D01*
X276159046Y-21568571D02*
X276063808Y-21520952D01*
X276063808Y-21520952D02*
X275920951Y-21520952D01*
X275920951Y-21520952D02*
X275825713Y-21568571D01*
X275825713Y-21568571D02*
X275778094Y-21663809D01*
X275778094Y-21663809D02*
X275778094Y-22187619D01*
X275397141Y-21520952D02*
X275159046Y-22187619D01*
X275159046Y-22187619D02*
X274920951Y-21520952D01*
X274539998Y-22187619D02*
X274539998Y-21520952D01*
X274539998Y-21187619D02*
X274587617Y-21235238D01*
X274587617Y-21235238D02*
X274539998Y-21282857D01*
X274539998Y-21282857D02*
X274492379Y-21235238D01*
X274492379Y-21235238D02*
X274539998Y-21187619D01*
X274539998Y-21187619D02*
X274539998Y-21282857D01*
X273920951Y-22187619D02*
X274016189Y-22140000D01*
X274016189Y-22140000D02*
X274063808Y-22044761D01*
X274063808Y-22044761D02*
X274063808Y-21187619D01*
X273397141Y-22187619D02*
X273492379Y-22140000D01*
X273492379Y-22140000D02*
X273539998Y-22044761D01*
X273539998Y-22044761D02*
X273539998Y-21187619D01*
X272301903Y-21140000D02*
X273159045Y-22425714D01*
X272063807Y-21520952D02*
X271825712Y-22187619D01*
X271825712Y-22187619D02*
X271587617Y-21520952D01*
X270778093Y-22187619D02*
X270778093Y-21663809D01*
X270778093Y-21663809D02*
X270825712Y-21568571D01*
X270825712Y-21568571D02*
X270920950Y-21520952D01*
X270920950Y-21520952D02*
X271111426Y-21520952D01*
X271111426Y-21520952D02*
X271206664Y-21568571D01*
X270778093Y-22140000D02*
X270873331Y-22187619D01*
X270873331Y-22187619D02*
X271111426Y-22187619D01*
X271111426Y-22187619D02*
X271206664Y-22140000D01*
X271206664Y-22140000D02*
X271254283Y-22044761D01*
X271254283Y-22044761D02*
X271254283Y-21949523D01*
X271254283Y-21949523D02*
X271206664Y-21854285D01*
X271206664Y-21854285D02*
X271111426Y-21806666D01*
X271111426Y-21806666D02*
X270873331Y-21806666D01*
X270873331Y-21806666D02*
X270778093Y-21759047D01*
X270301902Y-21520952D02*
X270301902Y-22187619D01*
X270301902Y-21616190D02*
X270254283Y-21568571D01*
X270254283Y-21568571D02*
X270159045Y-21520952D01*
X270159045Y-21520952D02*
X270016188Y-21520952D01*
X270016188Y-21520952D02*
X269920950Y-21568571D01*
X269920950Y-21568571D02*
X269873331Y-21663809D01*
X269873331Y-21663809D02*
X269873331Y-22187619D01*
X268968569Y-22140000D02*
X269063807Y-22187619D01*
X269063807Y-22187619D02*
X269254283Y-22187619D01*
X269254283Y-22187619D02*
X269349521Y-22140000D01*
X269349521Y-22140000D02*
X269397140Y-22092380D01*
X269397140Y-22092380D02*
X269444759Y-21997142D01*
X269444759Y-21997142D02*
X269444759Y-21711428D01*
X269444759Y-21711428D02*
X269397140Y-21616190D01*
X269397140Y-21616190D02*
X269349521Y-21568571D01*
X269349521Y-21568571D02*
X269254283Y-21520952D01*
X269254283Y-21520952D02*
X269063807Y-21520952D01*
X269063807Y-21520952D02*
X268968569Y-21568571D01*
X268397140Y-22187619D02*
X268492378Y-22140000D01*
X268492378Y-22140000D02*
X268539997Y-22092380D01*
X268539997Y-22092380D02*
X268587616Y-21997142D01*
X268587616Y-21997142D02*
X268587616Y-21711428D01*
X268587616Y-21711428D02*
X268539997Y-21616190D01*
X268539997Y-21616190D02*
X268492378Y-21568571D01*
X268492378Y-21568571D02*
X268397140Y-21520952D01*
X268397140Y-21520952D02*
X268254283Y-21520952D01*
X268254283Y-21520952D02*
X268159045Y-21568571D01*
X268159045Y-21568571D02*
X268111426Y-21616190D01*
X268111426Y-21616190D02*
X268063807Y-21711428D01*
X268063807Y-21711428D02*
X268063807Y-21997142D01*
X268063807Y-21997142D02*
X268111426Y-22092380D01*
X268111426Y-22092380D02*
X268159045Y-22140000D01*
X268159045Y-22140000D02*
X268254283Y-22187619D01*
X268254283Y-22187619D02*
X268397140Y-22187619D01*
X267206664Y-21520952D02*
X267206664Y-22187619D01*
X267635235Y-21520952D02*
X267635235Y-22044761D01*
X267635235Y-22044761D02*
X267587616Y-22140000D01*
X267587616Y-22140000D02*
X267492378Y-22187619D01*
X267492378Y-22187619D02*
X267349521Y-22187619D01*
X267349521Y-22187619D02*
X267254283Y-22140000D01*
X267254283Y-22140000D02*
X267206664Y-22092380D01*
X266825711Y-21520952D02*
X266587616Y-22187619D01*
X266587616Y-22187619D02*
X266349521Y-21520952D01*
X265587616Y-22140000D02*
X265682854Y-22187619D01*
X265682854Y-22187619D02*
X265873330Y-22187619D01*
X265873330Y-22187619D02*
X265968568Y-22140000D01*
X265968568Y-22140000D02*
X266016187Y-22044761D01*
X266016187Y-22044761D02*
X266016187Y-21663809D01*
X266016187Y-21663809D02*
X265968568Y-21568571D01*
X265968568Y-21568571D02*
X265873330Y-21520952D01*
X265873330Y-21520952D02*
X265682854Y-21520952D01*
X265682854Y-21520952D02*
X265587616Y-21568571D01*
X265587616Y-21568571D02*
X265539997Y-21663809D01*
X265539997Y-21663809D02*
X265539997Y-21759047D01*
X265539997Y-21759047D02*
X266016187Y-21854285D01*
X265111425Y-22187619D02*
X265111425Y-21520952D01*
X265111425Y-21711428D02*
X265063806Y-21616190D01*
X265063806Y-21616190D02*
X265016187Y-21568571D01*
X265016187Y-21568571D02*
X264920949Y-21520952D01*
X264920949Y-21520952D02*
X264825711Y-21520952D01*
X264492377Y-21806666D02*
X263730473Y-21806666D01*
X263301901Y-22140000D02*
X263206663Y-22187619D01*
X263206663Y-22187619D02*
X263016187Y-22187619D01*
X263016187Y-22187619D02*
X262920949Y-22140000D01*
X262920949Y-22140000D02*
X262873330Y-22044761D01*
X262873330Y-22044761D02*
X262873330Y-21997142D01*
X262873330Y-21997142D02*
X262920949Y-21901904D01*
X262920949Y-21901904D02*
X263016187Y-21854285D01*
X263016187Y-21854285D02*
X263159044Y-21854285D01*
X263159044Y-21854285D02*
X263254282Y-21806666D01*
X263254282Y-21806666D02*
X263301901Y-21711428D01*
X263301901Y-21711428D02*
X263301901Y-21663809D01*
X263301901Y-21663809D02*
X263254282Y-21568571D01*
X263254282Y-21568571D02*
X263159044Y-21520952D01*
X263159044Y-21520952D02*
X263016187Y-21520952D01*
X263016187Y-21520952D02*
X262920949Y-21568571D01*
X262444758Y-22187619D02*
X262444758Y-21187619D01*
X262349520Y-21806666D02*
X262063806Y-22187619D01*
X262063806Y-21520952D02*
X262444758Y-21901904D01*
X261730472Y-21520952D02*
X261492377Y-22187619D01*
X261254282Y-21520952D02*
X261492377Y-22187619D01*
X261492377Y-22187619D02*
X261587615Y-22425714D01*
X261587615Y-22425714D02*
X261635234Y-22473333D01*
X261635234Y-22473333D02*
X261730472Y-22520952D01*
X261016186Y-21520952D02*
X260635234Y-21520952D01*
X260873329Y-21187619D02*
X260873329Y-22044761D01*
X260873329Y-22044761D02*
X260825710Y-22140000D01*
X260825710Y-22140000D02*
X260730472Y-22187619D01*
X260730472Y-22187619D02*
X260635234Y-22187619D01*
X260301900Y-22187619D02*
X260301900Y-21520952D01*
X260301900Y-21711428D02*
X260254281Y-21616190D01*
X260254281Y-21616190D02*
X260206662Y-21568571D01*
X260206662Y-21568571D02*
X260111424Y-21520952D01*
X260111424Y-21520952D02*
X260016186Y-21520952D01*
X259254281Y-22187619D02*
X259254281Y-21663809D01*
X259254281Y-21663809D02*
X259301900Y-21568571D01*
X259301900Y-21568571D02*
X259397138Y-21520952D01*
X259397138Y-21520952D02*
X259587614Y-21520952D01*
X259587614Y-21520952D02*
X259682852Y-21568571D01*
X259254281Y-22140000D02*
X259349519Y-22187619D01*
X259349519Y-22187619D02*
X259587614Y-22187619D01*
X259587614Y-22187619D02*
X259682852Y-22140000D01*
X259682852Y-22140000D02*
X259730471Y-22044761D01*
X259730471Y-22044761D02*
X259730471Y-21949523D01*
X259730471Y-21949523D02*
X259682852Y-21854285D01*
X259682852Y-21854285D02*
X259587614Y-21806666D01*
X259587614Y-21806666D02*
X259349519Y-21806666D01*
X259349519Y-21806666D02*
X259254281Y-21759047D01*
X258778090Y-22187619D02*
X258778090Y-21520952D01*
X258778090Y-21187619D02*
X258825709Y-21235238D01*
X258825709Y-21235238D02*
X258778090Y-21282857D01*
X258778090Y-21282857D02*
X258730471Y-21235238D01*
X258730471Y-21235238D02*
X258778090Y-21187619D01*
X258778090Y-21187619D02*
X258778090Y-21282857D01*
X258301900Y-21520952D02*
X258301900Y-22187619D01*
X258301900Y-21616190D02*
X258254281Y-21568571D01*
X258254281Y-21568571D02*
X258159043Y-21520952D01*
X258159043Y-21520952D02*
X258016186Y-21520952D01*
X258016186Y-21520952D02*
X257920948Y-21568571D01*
X257920948Y-21568571D02*
X257873329Y-21663809D01*
X257873329Y-21663809D02*
X257873329Y-22187619D01*
X257397138Y-21806666D02*
X256635234Y-21806666D01*
X256159043Y-21520952D02*
X256159043Y-22520952D01*
X256159043Y-21568571D02*
X256063805Y-21520952D01*
X256063805Y-21520952D02*
X255873329Y-21520952D01*
X255873329Y-21520952D02*
X255778091Y-21568571D01*
X255778091Y-21568571D02*
X255730472Y-21616190D01*
X255730472Y-21616190D02*
X255682853Y-21711428D01*
X255682853Y-21711428D02*
X255682853Y-21997142D01*
X255682853Y-21997142D02*
X255730472Y-22092380D01*
X255730472Y-22092380D02*
X255778091Y-22140000D01*
X255778091Y-22140000D02*
X255873329Y-22187619D01*
X255873329Y-22187619D02*
X256063805Y-22187619D01*
X256063805Y-22187619D02*
X256159043Y-22140000D01*
X254825710Y-22140000D02*
X254920948Y-22187619D01*
X254920948Y-22187619D02*
X255111424Y-22187619D01*
X255111424Y-22187619D02*
X255206662Y-22140000D01*
X255206662Y-22140000D02*
X255254281Y-22092380D01*
X255254281Y-22092380D02*
X255301900Y-21997142D01*
X255301900Y-21997142D02*
X255301900Y-21711428D01*
X255301900Y-21711428D02*
X255254281Y-21616190D01*
X255254281Y-21616190D02*
X255206662Y-21568571D01*
X255206662Y-21568571D02*
X255111424Y-21520952D01*
X255111424Y-21520952D02*
X254920948Y-21520952D01*
X254920948Y-21520952D02*
X254825710Y-21568571D01*
X254397138Y-22187619D02*
X254397138Y-21187619D01*
X254397138Y-21568571D02*
X254301900Y-21520952D01*
X254301900Y-21520952D02*
X254111424Y-21520952D01*
X254111424Y-21520952D02*
X254016186Y-21568571D01*
X254016186Y-21568571D02*
X253968567Y-21616190D01*
X253968567Y-21616190D02*
X253920948Y-21711428D01*
X253920948Y-21711428D02*
X253920948Y-21997142D01*
X253920948Y-21997142D02*
X253968567Y-22092380D01*
X253968567Y-22092380D02*
X254016186Y-22140000D01*
X254016186Y-22140000D02*
X254111424Y-22187619D01*
X254111424Y-22187619D02*
X254301900Y-22187619D01*
X254301900Y-22187619D02*
X254397138Y-22140000D01*
X292730476Y-25332380D02*
X292778095Y-25380000D01*
X292778095Y-25380000D02*
X292920952Y-25427619D01*
X292920952Y-25427619D02*
X293016190Y-25427619D01*
X293016190Y-25427619D02*
X293159047Y-25380000D01*
X293159047Y-25380000D02*
X293254285Y-25284761D01*
X293254285Y-25284761D02*
X293301904Y-25189523D01*
X293301904Y-25189523D02*
X293349523Y-24999047D01*
X293349523Y-24999047D02*
X293349523Y-24856190D01*
X293349523Y-24856190D02*
X293301904Y-24665714D01*
X293301904Y-24665714D02*
X293254285Y-24570476D01*
X293254285Y-24570476D02*
X293159047Y-24475238D01*
X293159047Y-24475238D02*
X293016190Y-24427619D01*
X293016190Y-24427619D02*
X292920952Y-24427619D01*
X292920952Y-24427619D02*
X292778095Y-24475238D01*
X292778095Y-24475238D02*
X292730476Y-24522857D01*
X292301904Y-25427619D02*
X292301904Y-24427619D01*
X291873333Y-25427619D02*
X291873333Y-24903809D01*
X291873333Y-24903809D02*
X291920952Y-24808571D01*
X291920952Y-24808571D02*
X292016190Y-24760952D01*
X292016190Y-24760952D02*
X292159047Y-24760952D01*
X292159047Y-24760952D02*
X292254285Y-24808571D01*
X292254285Y-24808571D02*
X292301904Y-24856190D01*
X291254285Y-25427619D02*
X291349523Y-25380000D01*
X291349523Y-25380000D02*
X291397142Y-25332380D01*
X291397142Y-25332380D02*
X291444761Y-25237142D01*
X291444761Y-25237142D02*
X291444761Y-24951428D01*
X291444761Y-24951428D02*
X291397142Y-24856190D01*
X291397142Y-24856190D02*
X291349523Y-24808571D01*
X291349523Y-24808571D02*
X291254285Y-24760952D01*
X291254285Y-24760952D02*
X291111428Y-24760952D01*
X291111428Y-24760952D02*
X291016190Y-24808571D01*
X291016190Y-24808571D02*
X290968571Y-24856190D01*
X290968571Y-24856190D02*
X290920952Y-24951428D01*
X290920952Y-24951428D02*
X290920952Y-25237142D01*
X290920952Y-25237142D02*
X290968571Y-25332380D01*
X290968571Y-25332380D02*
X291016190Y-25380000D01*
X291016190Y-25380000D02*
X291111428Y-25427619D01*
X291111428Y-25427619D02*
X291254285Y-25427619D01*
X290349523Y-25427619D02*
X290444761Y-25380000D01*
X290444761Y-25380000D02*
X290492380Y-25332380D01*
X290492380Y-25332380D02*
X290539999Y-25237142D01*
X290539999Y-25237142D02*
X290539999Y-24951428D01*
X290539999Y-24951428D02*
X290492380Y-24856190D01*
X290492380Y-24856190D02*
X290444761Y-24808571D01*
X290444761Y-24808571D02*
X290349523Y-24760952D01*
X290349523Y-24760952D02*
X290206666Y-24760952D01*
X290206666Y-24760952D02*
X290111428Y-24808571D01*
X290111428Y-24808571D02*
X290063809Y-24856190D01*
X290063809Y-24856190D02*
X290016190Y-24951428D01*
X290016190Y-24951428D02*
X290016190Y-25237142D01*
X290016190Y-25237142D02*
X290063809Y-25332380D01*
X290063809Y-25332380D02*
X290111428Y-25380000D01*
X290111428Y-25380000D02*
X290206666Y-25427619D01*
X290206666Y-25427619D02*
X290349523Y-25427619D01*
X288254285Y-25332380D02*
X288301904Y-25380000D01*
X288301904Y-25380000D02*
X288444761Y-25427619D01*
X288444761Y-25427619D02*
X288539999Y-25427619D01*
X288539999Y-25427619D02*
X288682856Y-25380000D01*
X288682856Y-25380000D02*
X288778094Y-25284761D01*
X288778094Y-25284761D02*
X288825713Y-25189523D01*
X288825713Y-25189523D02*
X288873332Y-24999047D01*
X288873332Y-24999047D02*
X288873332Y-24856190D01*
X288873332Y-24856190D02*
X288825713Y-24665714D01*
X288825713Y-24665714D02*
X288778094Y-24570476D01*
X288778094Y-24570476D02*
X288682856Y-24475238D01*
X288682856Y-24475238D02*
X288539999Y-24427619D01*
X288539999Y-24427619D02*
X288444761Y-24427619D01*
X288444761Y-24427619D02*
X288301904Y-24475238D01*
X288301904Y-24475238D02*
X288254285Y-24522857D01*
X287825713Y-25427619D02*
X287825713Y-24427619D01*
X287397142Y-25427619D02*
X287397142Y-24903809D01*
X287397142Y-24903809D02*
X287444761Y-24808571D01*
X287444761Y-24808571D02*
X287539999Y-24760952D01*
X287539999Y-24760952D02*
X287682856Y-24760952D01*
X287682856Y-24760952D02*
X287778094Y-24808571D01*
X287778094Y-24808571D02*
X287825713Y-24856190D01*
X286778094Y-25427619D02*
X286873332Y-25380000D01*
X286873332Y-25380000D02*
X286920951Y-25332380D01*
X286920951Y-25332380D02*
X286968570Y-25237142D01*
X286968570Y-25237142D02*
X286968570Y-24951428D01*
X286968570Y-24951428D02*
X286920951Y-24856190D01*
X286920951Y-24856190D02*
X286873332Y-24808571D01*
X286873332Y-24808571D02*
X286778094Y-24760952D01*
X286778094Y-24760952D02*
X286635237Y-24760952D01*
X286635237Y-24760952D02*
X286539999Y-24808571D01*
X286539999Y-24808571D02*
X286492380Y-24856190D01*
X286492380Y-24856190D02*
X286444761Y-24951428D01*
X286444761Y-24951428D02*
X286444761Y-25237142D01*
X286444761Y-25237142D02*
X286492380Y-25332380D01*
X286492380Y-25332380D02*
X286539999Y-25380000D01*
X286539999Y-25380000D02*
X286635237Y-25427619D01*
X286635237Y-25427619D02*
X286778094Y-25427619D01*
X285873332Y-25427619D02*
X285968570Y-25380000D01*
X285968570Y-25380000D02*
X286016189Y-25332380D01*
X286016189Y-25332380D02*
X286063808Y-25237142D01*
X286063808Y-25237142D02*
X286063808Y-24951428D01*
X286063808Y-24951428D02*
X286016189Y-24856190D01*
X286016189Y-24856190D02*
X285968570Y-24808571D01*
X285968570Y-24808571D02*
X285873332Y-24760952D01*
X285873332Y-24760952D02*
X285730475Y-24760952D01*
X285730475Y-24760952D02*
X285635237Y-24808571D01*
X285635237Y-24808571D02*
X285587618Y-24856190D01*
X285587618Y-24856190D02*
X285539999Y-24951428D01*
X285539999Y-24951428D02*
X285539999Y-25237142D01*
X285539999Y-25237142D02*
X285587618Y-25332380D01*
X285587618Y-25332380D02*
X285635237Y-25380000D01*
X285635237Y-25380000D02*
X285730475Y-25427619D01*
X285730475Y-25427619D02*
X285873332Y-25427619D01*
D10*
%TO.C,SW_BOOTLOAD1*%
X263155000Y-158750000D02*
X263202619Y-158892857D01*
X263202619Y-158892857D02*
X263202619Y-159130952D01*
X263202619Y-159130952D02*
X263155000Y-159226190D01*
X263155000Y-159226190D02*
X263107380Y-159273809D01*
X263107380Y-159273809D02*
X263012142Y-159321428D01*
X263012142Y-159321428D02*
X262916904Y-159321428D01*
X262916904Y-159321428D02*
X262821666Y-159273809D01*
X262821666Y-159273809D02*
X262774047Y-159226190D01*
X262774047Y-159226190D02*
X262726428Y-159130952D01*
X262726428Y-159130952D02*
X262678809Y-158940476D01*
X262678809Y-158940476D02*
X262631190Y-158845238D01*
X262631190Y-158845238D02*
X262583571Y-158797619D01*
X262583571Y-158797619D02*
X262488333Y-158750000D01*
X262488333Y-158750000D02*
X262393095Y-158750000D01*
X262393095Y-158750000D02*
X262297857Y-158797619D01*
X262297857Y-158797619D02*
X262250238Y-158845238D01*
X262250238Y-158845238D02*
X262202619Y-158940476D01*
X262202619Y-158940476D02*
X262202619Y-159178571D01*
X262202619Y-159178571D02*
X262250238Y-159321428D01*
X262202619Y-159654762D02*
X263202619Y-159892857D01*
X263202619Y-159892857D02*
X262488333Y-160083333D01*
X262488333Y-160083333D02*
X263202619Y-160273809D01*
X263202619Y-160273809D02*
X262202619Y-160511905D01*
X263297857Y-160654762D02*
X263297857Y-161416666D01*
X262678809Y-161988095D02*
X262726428Y-162130952D01*
X262726428Y-162130952D02*
X262774047Y-162178571D01*
X262774047Y-162178571D02*
X262869285Y-162226190D01*
X262869285Y-162226190D02*
X263012142Y-162226190D01*
X263012142Y-162226190D02*
X263107380Y-162178571D01*
X263107380Y-162178571D02*
X263155000Y-162130952D01*
X263155000Y-162130952D02*
X263202619Y-162035714D01*
X263202619Y-162035714D02*
X263202619Y-161654762D01*
X263202619Y-161654762D02*
X262202619Y-161654762D01*
X262202619Y-161654762D02*
X262202619Y-161988095D01*
X262202619Y-161988095D02*
X262250238Y-162083333D01*
X262250238Y-162083333D02*
X262297857Y-162130952D01*
X262297857Y-162130952D02*
X262393095Y-162178571D01*
X262393095Y-162178571D02*
X262488333Y-162178571D01*
X262488333Y-162178571D02*
X262583571Y-162130952D01*
X262583571Y-162130952D02*
X262631190Y-162083333D01*
X262631190Y-162083333D02*
X262678809Y-161988095D01*
X262678809Y-161988095D02*
X262678809Y-161654762D01*
X262202619Y-162845238D02*
X262202619Y-163035714D01*
X262202619Y-163035714D02*
X262250238Y-163130952D01*
X262250238Y-163130952D02*
X262345476Y-163226190D01*
X262345476Y-163226190D02*
X262535952Y-163273809D01*
X262535952Y-163273809D02*
X262869285Y-163273809D01*
X262869285Y-163273809D02*
X263059761Y-163226190D01*
X263059761Y-163226190D02*
X263155000Y-163130952D01*
X263155000Y-163130952D02*
X263202619Y-163035714D01*
X263202619Y-163035714D02*
X263202619Y-162845238D01*
X263202619Y-162845238D02*
X263155000Y-162750000D01*
X263155000Y-162750000D02*
X263059761Y-162654762D01*
X263059761Y-162654762D02*
X262869285Y-162607143D01*
X262869285Y-162607143D02*
X262535952Y-162607143D01*
X262535952Y-162607143D02*
X262345476Y-162654762D01*
X262345476Y-162654762D02*
X262250238Y-162750000D01*
X262250238Y-162750000D02*
X262202619Y-162845238D01*
X262202619Y-163892857D02*
X262202619Y-164083333D01*
X262202619Y-164083333D02*
X262250238Y-164178571D01*
X262250238Y-164178571D02*
X262345476Y-164273809D01*
X262345476Y-164273809D02*
X262535952Y-164321428D01*
X262535952Y-164321428D02*
X262869285Y-164321428D01*
X262869285Y-164321428D02*
X263059761Y-164273809D01*
X263059761Y-164273809D02*
X263155000Y-164178571D01*
X263155000Y-164178571D02*
X263202619Y-164083333D01*
X263202619Y-164083333D02*
X263202619Y-163892857D01*
X263202619Y-163892857D02*
X263155000Y-163797619D01*
X263155000Y-163797619D02*
X263059761Y-163702381D01*
X263059761Y-163702381D02*
X262869285Y-163654762D01*
X262869285Y-163654762D02*
X262535952Y-163654762D01*
X262535952Y-163654762D02*
X262345476Y-163702381D01*
X262345476Y-163702381D02*
X262250238Y-163797619D01*
X262250238Y-163797619D02*
X262202619Y-163892857D01*
X262202619Y-164607143D02*
X262202619Y-165178571D01*
X263202619Y-164892857D02*
X262202619Y-164892857D01*
X263202619Y-165988095D02*
X263202619Y-165511905D01*
X263202619Y-165511905D02*
X262202619Y-165511905D01*
X262202619Y-166511905D02*
X262202619Y-166702381D01*
X262202619Y-166702381D02*
X262250238Y-166797619D01*
X262250238Y-166797619D02*
X262345476Y-166892857D01*
X262345476Y-166892857D02*
X262535952Y-166940476D01*
X262535952Y-166940476D02*
X262869285Y-166940476D01*
X262869285Y-166940476D02*
X263059761Y-166892857D01*
X263059761Y-166892857D02*
X263155000Y-166797619D01*
X263155000Y-166797619D02*
X263202619Y-166702381D01*
X263202619Y-166702381D02*
X263202619Y-166511905D01*
X263202619Y-166511905D02*
X263155000Y-166416667D01*
X263155000Y-166416667D02*
X263059761Y-166321429D01*
X263059761Y-166321429D02*
X262869285Y-166273810D01*
X262869285Y-166273810D02*
X262535952Y-166273810D01*
X262535952Y-166273810D02*
X262345476Y-166321429D01*
X262345476Y-166321429D02*
X262250238Y-166416667D01*
X262250238Y-166416667D02*
X262202619Y-166511905D01*
X262916904Y-167321429D02*
X262916904Y-167797619D01*
X263202619Y-167226191D02*
X262202619Y-167559524D01*
X262202619Y-167559524D02*
X263202619Y-167892857D01*
X263202619Y-168226191D02*
X262202619Y-168226191D01*
X262202619Y-168226191D02*
X262202619Y-168464286D01*
X262202619Y-168464286D02*
X262250238Y-168607143D01*
X262250238Y-168607143D02*
X262345476Y-168702381D01*
X262345476Y-168702381D02*
X262440714Y-168750000D01*
X262440714Y-168750000D02*
X262631190Y-168797619D01*
X262631190Y-168797619D02*
X262774047Y-168797619D01*
X262774047Y-168797619D02*
X262964523Y-168750000D01*
X262964523Y-168750000D02*
X263059761Y-168702381D01*
X263059761Y-168702381D02*
X263155000Y-168607143D01*
X263155000Y-168607143D02*
X263202619Y-168464286D01*
X263202619Y-168464286D02*
X263202619Y-168226191D01*
X263202619Y-169750000D02*
X263202619Y-169178572D01*
X263202619Y-169464286D02*
X262202619Y-169464286D01*
X262202619Y-169464286D02*
X262345476Y-169369048D01*
X262345476Y-169369048D02*
X262440714Y-169273810D01*
X262440714Y-169273810D02*
X262488333Y-169178572D01*
%TO.C,SW_RESET1*%
X286695000Y-160273809D02*
X286742619Y-160416666D01*
X286742619Y-160416666D02*
X286742619Y-160654761D01*
X286742619Y-160654761D02*
X286695000Y-160749999D01*
X286695000Y-160749999D02*
X286647380Y-160797618D01*
X286647380Y-160797618D02*
X286552142Y-160845237D01*
X286552142Y-160845237D02*
X286456904Y-160845237D01*
X286456904Y-160845237D02*
X286361666Y-160797618D01*
X286361666Y-160797618D02*
X286314047Y-160749999D01*
X286314047Y-160749999D02*
X286266428Y-160654761D01*
X286266428Y-160654761D02*
X286218809Y-160464285D01*
X286218809Y-160464285D02*
X286171190Y-160369047D01*
X286171190Y-160369047D02*
X286123571Y-160321428D01*
X286123571Y-160321428D02*
X286028333Y-160273809D01*
X286028333Y-160273809D02*
X285933095Y-160273809D01*
X285933095Y-160273809D02*
X285837857Y-160321428D01*
X285837857Y-160321428D02*
X285790238Y-160369047D01*
X285790238Y-160369047D02*
X285742619Y-160464285D01*
X285742619Y-160464285D02*
X285742619Y-160702380D01*
X285742619Y-160702380D02*
X285790238Y-160845237D01*
X285742619Y-161178571D02*
X286742619Y-161416666D01*
X286742619Y-161416666D02*
X286028333Y-161607142D01*
X286028333Y-161607142D02*
X286742619Y-161797618D01*
X286742619Y-161797618D02*
X285742619Y-162035714D01*
X286837857Y-162178571D02*
X286837857Y-162940475D01*
X286742619Y-163749999D02*
X286266428Y-163416666D01*
X286742619Y-163178571D02*
X285742619Y-163178571D01*
X285742619Y-163178571D02*
X285742619Y-163559523D01*
X285742619Y-163559523D02*
X285790238Y-163654761D01*
X285790238Y-163654761D02*
X285837857Y-163702380D01*
X285837857Y-163702380D02*
X285933095Y-163749999D01*
X285933095Y-163749999D02*
X286075952Y-163749999D01*
X286075952Y-163749999D02*
X286171190Y-163702380D01*
X286171190Y-163702380D02*
X286218809Y-163654761D01*
X286218809Y-163654761D02*
X286266428Y-163559523D01*
X286266428Y-163559523D02*
X286266428Y-163178571D01*
X286218809Y-164178571D02*
X286218809Y-164511904D01*
X286742619Y-164654761D02*
X286742619Y-164178571D01*
X286742619Y-164178571D02*
X285742619Y-164178571D01*
X285742619Y-164178571D02*
X285742619Y-164654761D01*
X286695000Y-165035714D02*
X286742619Y-165178571D01*
X286742619Y-165178571D02*
X286742619Y-165416666D01*
X286742619Y-165416666D02*
X286695000Y-165511904D01*
X286695000Y-165511904D02*
X286647380Y-165559523D01*
X286647380Y-165559523D02*
X286552142Y-165607142D01*
X286552142Y-165607142D02*
X286456904Y-165607142D01*
X286456904Y-165607142D02*
X286361666Y-165559523D01*
X286361666Y-165559523D02*
X286314047Y-165511904D01*
X286314047Y-165511904D02*
X286266428Y-165416666D01*
X286266428Y-165416666D02*
X286218809Y-165226190D01*
X286218809Y-165226190D02*
X286171190Y-165130952D01*
X286171190Y-165130952D02*
X286123571Y-165083333D01*
X286123571Y-165083333D02*
X286028333Y-165035714D01*
X286028333Y-165035714D02*
X285933095Y-165035714D01*
X285933095Y-165035714D02*
X285837857Y-165083333D01*
X285837857Y-165083333D02*
X285790238Y-165130952D01*
X285790238Y-165130952D02*
X285742619Y-165226190D01*
X285742619Y-165226190D02*
X285742619Y-165464285D01*
X285742619Y-165464285D02*
X285790238Y-165607142D01*
X286218809Y-166035714D02*
X286218809Y-166369047D01*
X286742619Y-166511904D02*
X286742619Y-166035714D01*
X286742619Y-166035714D02*
X285742619Y-166035714D01*
X285742619Y-166035714D02*
X285742619Y-166511904D01*
X285742619Y-166797619D02*
X285742619Y-167369047D01*
X286742619Y-167083333D02*
X285742619Y-167083333D01*
X286742619Y-168226190D02*
X286742619Y-167654762D01*
X286742619Y-167940476D02*
X285742619Y-167940476D01*
X285742619Y-167940476D02*
X285885476Y-167845238D01*
X285885476Y-167845238D02*
X285980714Y-167750000D01*
X285980714Y-167750000D02*
X286028333Y-167654762D01*
%TO.C,G\u002A\u002A\u002A*%
D12*
X93842230Y-59385243D02*
X93960621Y-59438324D01*
X94062613Y-59517405D01*
X94143064Y-59618553D01*
X94196836Y-59737835D01*
X94218787Y-59871319D01*
X94205609Y-60007150D01*
X94154188Y-60148838D01*
X94071766Y-60264593D01*
X93962957Y-60351368D01*
X93832376Y-60406112D01*
X93684635Y-60425779D01*
X93582957Y-60418513D01*
X93450653Y-60378586D01*
X93335730Y-60304021D01*
X93243679Y-60200809D01*
X93179992Y-60074939D01*
X93151520Y-59947804D01*
X93156210Y-59799040D01*
X93199632Y-59662729D01*
X93278754Y-59544402D01*
X93390543Y-59449593D01*
X93440058Y-59421338D01*
X93576808Y-59372817D01*
X93712579Y-59362096D01*
X93842230Y-59385243D01*
G36*
X93842230Y-59385243D02*
G01*
X93960621Y-59438324D01*
X94062613Y-59517405D01*
X94143064Y-59618553D01*
X94196836Y-59737835D01*
X94218787Y-59871319D01*
X94205609Y-60007150D01*
X94154188Y-60148838D01*
X94071766Y-60264593D01*
X93962957Y-60351368D01*
X93832376Y-60406112D01*
X93684635Y-60425779D01*
X93582957Y-60418513D01*
X93450653Y-60378586D01*
X93335730Y-60304021D01*
X93243679Y-60200809D01*
X93179992Y-60074939D01*
X93151520Y-59947804D01*
X93156210Y-59799040D01*
X93199632Y-59662729D01*
X93278754Y-59544402D01*
X93390543Y-59449593D01*
X93440058Y-59421338D01*
X93576808Y-59372817D01*
X93712579Y-59362096D01*
X93842230Y-59385243D01*
G37*
X228867953Y-91986800D02*
X229015335Y-92019358D01*
X229140518Y-92085503D01*
X229239732Y-92180711D01*
X229309208Y-92300459D01*
X229345178Y-92440223D01*
X229347391Y-92562252D01*
X229316359Y-92708498D01*
X229251790Y-92834294D01*
X229159112Y-92935717D01*
X229043752Y-93008840D01*
X228911139Y-93049738D01*
X228766700Y-93054487D01*
X228685826Y-93040671D01*
X228557645Y-92989044D01*
X228447685Y-92905240D01*
X228361126Y-92796861D01*
X228303145Y-92671510D01*
X228278921Y-92536789D01*
X228283418Y-92449876D01*
X228324496Y-92303456D01*
X228398213Y-92179967D01*
X228499614Y-92083333D01*
X228623746Y-92017478D01*
X228765655Y-91986326D01*
X228867953Y-91986800D01*
G36*
X228867953Y-91986800D02*
G01*
X229015335Y-92019358D01*
X229140518Y-92085503D01*
X229239732Y-92180711D01*
X229309208Y-92300459D01*
X229345178Y-92440223D01*
X229347391Y-92562252D01*
X229316359Y-92708498D01*
X229251790Y-92834294D01*
X229159112Y-92935717D01*
X229043752Y-93008840D01*
X228911139Y-93049738D01*
X228766700Y-93054487D01*
X228685826Y-93040671D01*
X228557645Y-92989044D01*
X228447685Y-92905240D01*
X228361126Y-92796861D01*
X228303145Y-92671510D01*
X228278921Y-92536789D01*
X228283418Y-92449876D01*
X228324496Y-92303456D01*
X228398213Y-92179967D01*
X228499614Y-92083333D01*
X228623746Y-92017478D01*
X228765655Y-91986326D01*
X228867953Y-91986800D01*
G37*
X231417078Y-127052522D02*
X231548385Y-127108305D01*
X231657921Y-127196845D01*
X231740392Y-127314210D01*
X231779416Y-127412206D01*
X231802334Y-127557947D01*
X231787483Y-127696012D01*
X231739334Y-127821518D01*
X231662358Y-127929579D01*
X231561027Y-128015312D01*
X231439811Y-128073831D01*
X231303184Y-128100253D01*
X231158651Y-128090299D01*
X231021475Y-128043054D01*
X230905529Y-127963118D01*
X230815491Y-127856732D01*
X230756039Y-127730135D01*
X230731851Y-127589568D01*
X230733717Y-127523420D01*
X230766411Y-127372857D01*
X230832730Y-127245509D01*
X230928828Y-127144895D01*
X231050854Y-127074536D01*
X231194963Y-127037953D01*
X231269295Y-127033428D01*
X231417078Y-127052522D01*
G36*
X231417078Y-127052522D02*
G01*
X231548385Y-127108305D01*
X231657921Y-127196845D01*
X231740392Y-127314210D01*
X231779416Y-127412206D01*
X231802334Y-127557947D01*
X231787483Y-127696012D01*
X231739334Y-127821518D01*
X231662358Y-127929579D01*
X231561027Y-128015312D01*
X231439811Y-128073831D01*
X231303184Y-128100253D01*
X231158651Y-128090299D01*
X231021475Y-128043054D01*
X230905529Y-127963118D01*
X230815491Y-127856732D01*
X230756039Y-127730135D01*
X230731851Y-127589568D01*
X230733717Y-127523420D01*
X230766411Y-127372857D01*
X230832730Y-127245509D01*
X230928828Y-127144895D01*
X231050854Y-127074536D01*
X231194963Y-127037953D01*
X231269295Y-127033428D01*
X231417078Y-127052522D01*
G37*
X72096006Y-159867806D02*
X72240592Y-159899281D01*
X72366612Y-159966024D01*
X72468916Y-160063154D01*
X72542357Y-160185788D01*
X72581688Y-160328338D01*
X72580761Y-160462517D01*
X72545047Y-160594541D01*
X72479642Y-160714913D01*
X72389647Y-160814134D01*
X72285326Y-160880460D01*
X72186109Y-160912370D01*
X72074585Y-160929775D01*
X71970091Y-160930429D01*
X71921936Y-160922663D01*
X71786208Y-160868228D01*
X71674244Y-160783502D01*
X71589165Y-160675028D01*
X71534093Y-160549353D01*
X71512151Y-160413020D01*
X71526460Y-160272574D01*
X71562512Y-160169225D01*
X71642724Y-160043004D01*
X71748992Y-159948986D01*
X71877623Y-159889260D01*
X72024922Y-159865912D01*
X72096006Y-159867806D01*
G36*
X72096006Y-159867806D02*
G01*
X72240592Y-159899281D01*
X72366612Y-159966024D01*
X72468916Y-160063154D01*
X72542357Y-160185788D01*
X72581688Y-160328338D01*
X72580761Y-160462517D01*
X72545047Y-160594541D01*
X72479642Y-160714913D01*
X72389647Y-160814134D01*
X72285326Y-160880460D01*
X72186109Y-160912370D01*
X72074585Y-160929775D01*
X71970091Y-160930429D01*
X71921936Y-160922663D01*
X71786208Y-160868228D01*
X71674244Y-160783502D01*
X71589165Y-160675028D01*
X71534093Y-160549353D01*
X71512151Y-160413020D01*
X71526460Y-160272574D01*
X71562512Y-160169225D01*
X71642724Y-160043004D01*
X71748992Y-159948986D01*
X71877623Y-159889260D01*
X72024922Y-159865912D01*
X72096006Y-159867806D01*
G37*
X119526766Y-84677051D02*
X119657489Y-84731307D01*
X119763657Y-84816793D01*
X119841570Y-84929773D01*
X119887528Y-85066511D01*
X119898812Y-85186463D01*
X119883908Y-85331296D01*
X119837030Y-85453315D01*
X119754926Y-85560802D01*
X119749947Y-85565835D01*
X119636169Y-85651028D01*
X119503967Y-85702372D01*
X119361983Y-85718567D01*
X119218858Y-85698313D01*
X119120140Y-85660525D01*
X118998168Y-85577931D01*
X118908879Y-85469333D01*
X118853981Y-85337584D01*
X118835184Y-85185539D01*
X118835183Y-85184787D01*
X118854075Y-85034327D01*
X118908180Y-84903931D01*
X118993640Y-84797364D01*
X119106599Y-84718388D01*
X119243199Y-84670770D01*
X119375187Y-84657761D01*
X119526766Y-84677051D01*
G36*
X119526766Y-84677051D02*
G01*
X119657489Y-84731307D01*
X119763657Y-84816793D01*
X119841570Y-84929773D01*
X119887528Y-85066511D01*
X119898812Y-85186463D01*
X119883908Y-85331296D01*
X119837030Y-85453315D01*
X119754926Y-85560802D01*
X119749947Y-85565835D01*
X119636169Y-85651028D01*
X119503967Y-85702372D01*
X119361983Y-85718567D01*
X119218858Y-85698313D01*
X119120140Y-85660525D01*
X118998168Y-85577931D01*
X118908879Y-85469333D01*
X118853981Y-85337584D01*
X118835184Y-85185539D01*
X118835183Y-85184787D01*
X118854075Y-85034327D01*
X118908180Y-84903931D01*
X118993640Y-84797364D01*
X119106599Y-84718388D01*
X119243199Y-84670770D01*
X119375187Y-84657761D01*
X119526766Y-84677051D01*
G37*
X174433487Y-124496288D02*
X174553225Y-124544467D01*
X174658193Y-124619864D01*
X174742375Y-124720135D01*
X174799755Y-124842932D01*
X174823614Y-124972373D01*
X174814370Y-125123170D01*
X174769894Y-125257188D01*
X174695240Y-125370657D01*
X174595460Y-125459807D01*
X174475608Y-125520866D01*
X174340737Y-125550065D01*
X174195899Y-125543634D01*
X174093879Y-125516837D01*
X173977206Y-125454085D01*
X173880010Y-125359701D01*
X173808105Y-125242120D01*
X173767306Y-125109777D01*
X173760216Y-125032713D01*
X173775890Y-124878691D01*
X173827753Y-124745974D01*
X173916564Y-124632694D01*
X173927144Y-124622697D01*
X174045807Y-124538534D01*
X174173762Y-124490975D01*
X174304994Y-124477676D01*
X174433487Y-124496288D01*
G36*
X174433487Y-124496288D02*
G01*
X174553225Y-124544467D01*
X174658193Y-124619864D01*
X174742375Y-124720135D01*
X174799755Y-124842932D01*
X174823614Y-124972373D01*
X174814370Y-125123170D01*
X174769894Y-125257188D01*
X174695240Y-125370657D01*
X174595460Y-125459807D01*
X174475608Y-125520866D01*
X174340737Y-125550065D01*
X174195899Y-125543634D01*
X174093879Y-125516837D01*
X173977206Y-125454085D01*
X173880010Y-125359701D01*
X173808105Y-125242120D01*
X173767306Y-125109777D01*
X173760216Y-125032713D01*
X173775890Y-124878691D01*
X173827753Y-124745974D01*
X173916564Y-124632694D01*
X173927144Y-124622697D01*
X174045807Y-124538534D01*
X174173762Y-124490975D01*
X174304994Y-124477676D01*
X174433487Y-124496288D01*
G37*
X239032463Y-119646015D02*
X239146778Y-119701412D01*
X239246493Y-119785659D01*
X239325636Y-119899079D01*
X239361125Y-119982330D01*
X239384330Y-120110788D01*
X239374178Y-120247066D01*
X239333744Y-120378662D01*
X239266103Y-120493074D01*
X239224211Y-120538840D01*
X239106371Y-120621420D01*
X238971208Y-120669885D01*
X238828122Y-120682956D01*
X238686510Y-120659352D01*
X238599921Y-120623850D01*
X238478374Y-120538221D01*
X238387876Y-120427722D01*
X238331389Y-120298660D01*
X238311875Y-120157340D01*
X238325098Y-120038694D01*
X238374398Y-119901250D01*
X238450903Y-119790380D01*
X238548639Y-119706409D01*
X238661635Y-119649662D01*
X238783919Y-119620464D01*
X238909519Y-119619140D01*
X239032463Y-119646015D01*
G36*
X239032463Y-119646015D02*
G01*
X239146778Y-119701412D01*
X239246493Y-119785659D01*
X239325636Y-119899079D01*
X239361125Y-119982330D01*
X239384330Y-120110788D01*
X239374178Y-120247066D01*
X239333744Y-120378662D01*
X239266103Y-120493074D01*
X239224211Y-120538840D01*
X239106371Y-120621420D01*
X238971208Y-120669885D01*
X238828122Y-120682956D01*
X238686510Y-120659352D01*
X238599921Y-120623850D01*
X238478374Y-120538221D01*
X238387876Y-120427722D01*
X238331389Y-120298660D01*
X238311875Y-120157340D01*
X238325098Y-120038694D01*
X238374398Y-119901250D01*
X238450903Y-119790380D01*
X238548639Y-119706409D01*
X238661635Y-119649662D01*
X238783919Y-119620464D01*
X238909519Y-119619140D01*
X239032463Y-119646015D01*
G37*
X253656526Y-91960120D02*
X253780016Y-92005611D01*
X253887758Y-92080413D01*
X253974255Y-92181439D01*
X254034011Y-92305600D01*
X254061526Y-92449810D01*
X254062723Y-92488773D01*
X254043572Y-92632592D01*
X253990100Y-92759125D01*
X253908056Y-92864745D01*
X253803190Y-92945827D01*
X253681249Y-92998743D01*
X253547982Y-93019866D01*
X253409139Y-93005571D01*
X253302505Y-92968360D01*
X253176578Y-92888179D01*
X253082497Y-92781559D01*
X253022382Y-92652200D01*
X252998355Y-92503803D01*
X252999370Y-92439206D01*
X253026984Y-92293162D01*
X253090066Y-92170152D01*
X253189125Y-92069331D01*
X253246550Y-92030390D01*
X253384296Y-91969422D01*
X253522787Y-91947028D01*
X253656526Y-91960120D01*
G36*
X253656526Y-91960120D02*
G01*
X253780016Y-92005611D01*
X253887758Y-92080413D01*
X253974255Y-92181439D01*
X254034011Y-92305600D01*
X254061526Y-92449810D01*
X254062723Y-92488773D01*
X254043572Y-92632592D01*
X253990100Y-92759125D01*
X253908056Y-92864745D01*
X253803190Y-92945827D01*
X253681249Y-92998743D01*
X253547982Y-93019866D01*
X253409139Y-93005571D01*
X253302505Y-92968360D01*
X253176578Y-92888179D01*
X253082497Y-92781559D01*
X253022382Y-92652200D01*
X252998355Y-92503803D01*
X252999370Y-92439206D01*
X253026984Y-92293162D01*
X253090066Y-92170152D01*
X253189125Y-92069331D01*
X253246550Y-92030390D01*
X253384296Y-91969422D01*
X253522787Y-91947028D01*
X253656526Y-91960120D01*
G37*
X259889482Y-131129609D02*
X260010615Y-131157348D01*
X260122286Y-131211017D01*
X260218865Y-131289331D01*
X260294720Y-131391009D01*
X260344222Y-131514766D01*
X260361742Y-131657880D01*
X260342375Y-131800132D01*
X260288214Y-131926961D01*
X260205168Y-132034228D01*
X260099147Y-132117796D01*
X259976062Y-132173524D01*
X259841822Y-132197275D01*
X259702336Y-132184909D01*
X259636858Y-132165522D01*
X259508652Y-132097240D01*
X259405271Y-131995169D01*
X259354591Y-131917263D01*
X259308537Y-131797976D01*
X259290405Y-131666291D01*
X259300652Y-131536600D01*
X259338951Y-131424769D01*
X259422938Y-131303612D01*
X259525615Y-131214801D01*
X259641352Y-131157052D01*
X259764518Y-131129083D01*
X259889482Y-131129609D01*
G36*
X259889482Y-131129609D02*
G01*
X260010615Y-131157348D01*
X260122286Y-131211017D01*
X260218865Y-131289331D01*
X260294720Y-131391009D01*
X260344222Y-131514766D01*
X260361742Y-131657880D01*
X260342375Y-131800132D01*
X260288214Y-131926961D01*
X260205168Y-132034228D01*
X260099147Y-132117796D01*
X259976062Y-132173524D01*
X259841822Y-132197275D01*
X259702336Y-132184909D01*
X259636858Y-132165522D01*
X259508652Y-132097240D01*
X259405271Y-131995169D01*
X259354591Y-131917263D01*
X259308537Y-131797976D01*
X259290405Y-131666291D01*
X259300652Y-131536600D01*
X259338951Y-131424769D01*
X259422938Y-131303612D01*
X259525615Y-131214801D01*
X259641352Y-131157052D01*
X259764518Y-131129083D01*
X259889482Y-131129609D01*
G37*
X82127882Y-159897767D02*
X82233659Y-159934161D01*
X82363894Y-160014907D01*
X82457840Y-160117186D01*
X82516267Y-160242224D01*
X82539942Y-160391245D01*
X82540576Y-160422930D01*
X82521697Y-160573326D01*
X82467252Y-160705187D01*
X82380522Y-160813973D01*
X82264793Y-160895144D01*
X82172533Y-160931856D01*
X82057628Y-160957068D01*
X81954447Y-160956570D01*
X81842076Y-160930605D01*
X81713691Y-160869783D01*
X81609887Y-160777537D01*
X81534504Y-160659348D01*
X81491383Y-160520697D01*
X81482449Y-160417408D01*
X81491972Y-160292177D01*
X81524883Y-160189478D01*
X81587032Y-160093316D01*
X81611732Y-160063944D01*
X81720459Y-159970466D01*
X81848459Y-159910414D01*
X81987133Y-159885583D01*
X82127882Y-159897767D01*
G36*
X82127882Y-159897767D02*
G01*
X82233659Y-159934161D01*
X82363894Y-160014907D01*
X82457840Y-160117186D01*
X82516267Y-160242224D01*
X82539942Y-160391245D01*
X82540576Y-160422930D01*
X82521697Y-160573326D01*
X82467252Y-160705187D01*
X82380522Y-160813973D01*
X82264793Y-160895144D01*
X82172533Y-160931856D01*
X82057628Y-160957068D01*
X81954447Y-160956570D01*
X81842076Y-160930605D01*
X81713691Y-160869783D01*
X81609887Y-160777537D01*
X81534504Y-160659348D01*
X81491383Y-160520697D01*
X81482449Y-160417408D01*
X81491972Y-160292177D01*
X81524883Y-160189478D01*
X81587032Y-160093316D01*
X81611732Y-160063944D01*
X81720459Y-159970466D01*
X81848459Y-159910414D01*
X81987133Y-159885583D01*
X82127882Y-159897767D01*
G37*
X92074266Y-92046904D02*
X92200526Y-92096877D01*
X92310389Y-92180482D01*
X92397633Y-92296038D01*
X92409534Y-92318279D01*
X92452476Y-92440026D01*
X92468908Y-92574018D01*
X92457940Y-92704064D01*
X92434919Y-92780684D01*
X92363840Y-92899328D01*
X92264280Y-92993191D01*
X92144020Y-93059333D01*
X92010841Y-93094815D01*
X91872527Y-93096698D01*
X91736859Y-93062042D01*
X91715148Y-93052553D01*
X91594800Y-92975714D01*
X91503890Y-92875363D01*
X91442818Y-92758249D01*
X91411989Y-92631126D01*
X91411803Y-92500744D01*
X91442664Y-92373855D01*
X91504973Y-92257209D01*
X91599133Y-92157558D01*
X91659322Y-92115591D01*
X91797442Y-92054580D01*
X91937830Y-92032245D01*
X92074266Y-92046904D01*
G36*
X92074266Y-92046904D02*
G01*
X92200526Y-92096877D01*
X92310389Y-92180482D01*
X92397633Y-92296038D01*
X92409534Y-92318279D01*
X92452476Y-92440026D01*
X92468908Y-92574018D01*
X92457940Y-92704064D01*
X92434919Y-92780684D01*
X92363840Y-92899328D01*
X92264280Y-92993191D01*
X92144020Y-93059333D01*
X92010841Y-93094815D01*
X91872527Y-93096698D01*
X91736859Y-93062042D01*
X91715148Y-93052553D01*
X91594800Y-92975714D01*
X91503890Y-92875363D01*
X91442818Y-92758249D01*
X91411989Y-92631126D01*
X91411803Y-92500744D01*
X91442664Y-92373855D01*
X91504973Y-92257209D01*
X91599133Y-92157558D01*
X91659322Y-92115591D01*
X91797442Y-92054580D01*
X91937830Y-92032245D01*
X92074266Y-92046904D01*
G37*
X102109943Y-67421432D02*
X102220148Y-67446885D01*
X102260343Y-67464432D01*
X102376245Y-67546749D01*
X102461367Y-67650261D01*
X102516268Y-67768552D01*
X102541505Y-67895204D01*
X102537639Y-68023803D01*
X102505226Y-68147930D01*
X102444827Y-68261172D01*
X102357000Y-68357110D01*
X102242303Y-68429329D01*
X102174109Y-68454821D01*
X102059025Y-68480034D01*
X101955198Y-68479175D01*
X101844576Y-68453439D01*
X101716569Y-68392693D01*
X101612715Y-68300469D01*
X101537103Y-68182566D01*
X101493824Y-68044782D01*
X101484949Y-67943506D01*
X101503963Y-67791664D01*
X101560042Y-67658099D01*
X101650979Y-67546547D01*
X101768488Y-67463915D01*
X101867313Y-67429929D01*
X101986731Y-67415775D01*
X102109943Y-67421432D01*
G36*
X102109943Y-67421432D02*
G01*
X102220148Y-67446885D01*
X102260343Y-67464432D01*
X102376245Y-67546749D01*
X102461367Y-67650261D01*
X102516268Y-67768552D01*
X102541505Y-67895204D01*
X102537639Y-68023803D01*
X102505226Y-68147930D01*
X102444827Y-68261172D01*
X102357000Y-68357110D01*
X102242303Y-68429329D01*
X102174109Y-68454821D01*
X102059025Y-68480034D01*
X101955198Y-68479175D01*
X101844576Y-68453439D01*
X101716569Y-68392693D01*
X101612715Y-68300469D01*
X101537103Y-68182566D01*
X101493824Y-68044782D01*
X101484949Y-67943506D01*
X101503963Y-67791664D01*
X101560042Y-67658099D01*
X101650979Y-67546547D01*
X101768488Y-67463915D01*
X101867313Y-67429929D01*
X101986731Y-67415775D01*
X102109943Y-67421432D01*
G37*
X102113237Y-84552605D02*
X102221971Y-84602474D01*
X102323436Y-84684071D01*
X102407393Y-84786892D01*
X102463602Y-84900436D01*
X102468899Y-84917368D01*
X102490571Y-85061088D01*
X102474748Y-85197719D01*
X102426081Y-85322363D01*
X102349224Y-85430123D01*
X102248827Y-85516101D01*
X102129544Y-85575399D01*
X101996026Y-85603121D01*
X101852927Y-85594368D01*
X101830436Y-85589491D01*
X101696553Y-85537856D01*
X101586706Y-85456426D01*
X101503123Y-85351690D01*
X101448033Y-85230137D01*
X101423665Y-85098255D01*
X101432246Y-84962535D01*
X101476005Y-84829465D01*
X101535897Y-84731808D01*
X101632387Y-84638575D01*
X101753640Y-84572965D01*
X101889982Y-84537981D01*
X102031738Y-84536627D01*
X102113237Y-84552605D01*
G36*
X102113237Y-84552605D02*
G01*
X102221971Y-84602474D01*
X102323436Y-84684071D01*
X102407393Y-84786892D01*
X102463602Y-84900436D01*
X102468899Y-84917368D01*
X102490571Y-85061088D01*
X102474748Y-85197719D01*
X102426081Y-85322363D01*
X102349224Y-85430123D01*
X102248827Y-85516101D01*
X102129544Y-85575399D01*
X101996026Y-85603121D01*
X101852927Y-85594368D01*
X101830436Y-85589491D01*
X101696553Y-85537856D01*
X101586706Y-85456426D01*
X101503123Y-85351690D01*
X101448033Y-85230137D01*
X101423665Y-85098255D01*
X101432246Y-84962535D01*
X101476005Y-84829465D01*
X101535897Y-84731808D01*
X101632387Y-84638575D01*
X101753640Y-84572965D01*
X101889982Y-84537981D01*
X102031738Y-84536627D01*
X102113237Y-84552605D01*
G37*
X103255910Y-92080465D02*
X103376202Y-92121432D01*
X103484078Y-92188041D01*
X103573941Y-92277641D01*
X103640194Y-92387580D01*
X103677241Y-92515206D01*
X103679483Y-92657867D01*
X103679191Y-92660384D01*
X103643063Y-92799627D01*
X103573635Y-92920871D01*
X103477196Y-93019686D01*
X103360032Y-93091641D01*
X103228432Y-93132306D01*
X103088683Y-93137250D01*
X103019326Y-93125337D01*
X102887158Y-93073539D01*
X102778609Y-92992378D01*
X102695583Y-92888518D01*
X102639981Y-92768619D01*
X102613706Y-92639343D01*
X102618660Y-92507352D01*
X102656746Y-92379309D01*
X102729866Y-92261874D01*
X102762524Y-92226067D01*
X102876509Y-92137943D01*
X103000466Y-92086069D01*
X103128799Y-92067794D01*
X103255910Y-92080465D01*
G36*
X103255910Y-92080465D02*
G01*
X103376202Y-92121432D01*
X103484078Y-92188041D01*
X103573941Y-92277641D01*
X103640194Y-92387580D01*
X103677241Y-92515206D01*
X103679483Y-92657867D01*
X103679191Y-92660384D01*
X103643063Y-92799627D01*
X103573635Y-92920871D01*
X103477196Y-93019686D01*
X103360032Y-93091641D01*
X103228432Y-93132306D01*
X103088683Y-93137250D01*
X103019326Y-93125337D01*
X102887158Y-93073539D01*
X102778609Y-92992378D01*
X102695583Y-92888518D01*
X102639981Y-92768619D01*
X102613706Y-92639343D01*
X102618660Y-92507352D01*
X102656746Y-92379309D01*
X102729866Y-92261874D01*
X102762524Y-92226067D01*
X102876509Y-92137943D01*
X103000466Y-92086069D01*
X103128799Y-92067794D01*
X103255910Y-92080465D01*
G37*
X155371948Y-92092596D02*
X155491365Y-92123535D01*
X155597900Y-92187286D01*
X155661543Y-92244374D01*
X155751975Y-92360679D01*
X155805061Y-92485103D01*
X155823651Y-92612482D01*
X155810594Y-92737652D01*
X155768741Y-92855449D01*
X155700940Y-92960709D01*
X155610042Y-93048269D01*
X155498895Y-93112964D01*
X155370351Y-93149630D01*
X155227258Y-93153104D01*
X155165220Y-93143770D01*
X155037240Y-93097481D01*
X154924316Y-93017222D01*
X154834186Y-92910717D01*
X154774592Y-92785694D01*
X154763100Y-92742407D01*
X154750905Y-92595956D01*
X154775296Y-92457636D01*
X154832136Y-92333232D01*
X154917290Y-92228526D01*
X155026621Y-92149303D01*
X155155995Y-92101346D01*
X155229135Y-92090733D01*
X155371948Y-92092596D01*
G36*
X155371948Y-92092596D02*
G01*
X155491365Y-92123535D01*
X155597900Y-92187286D01*
X155661543Y-92244374D01*
X155751975Y-92360679D01*
X155805061Y-92485103D01*
X155823651Y-92612482D01*
X155810594Y-92737652D01*
X155768741Y-92855449D01*
X155700940Y-92960709D01*
X155610042Y-93048269D01*
X155498895Y-93112964D01*
X155370351Y-93149630D01*
X155227258Y-93153104D01*
X155165220Y-93143770D01*
X155037240Y-93097481D01*
X154924316Y-93017222D01*
X154834186Y-92910717D01*
X154774592Y-92785694D01*
X154763100Y-92742407D01*
X154750905Y-92595956D01*
X154775296Y-92457636D01*
X154832136Y-92333232D01*
X154917290Y-92228526D01*
X155026621Y-92149303D01*
X155155995Y-92101346D01*
X155229135Y-92090733D01*
X155371948Y-92092596D01*
G37*
X159369346Y-109566619D02*
X159495249Y-109620723D01*
X159580949Y-109684494D01*
X159672884Y-109783402D01*
X159728864Y-109890980D01*
X159753650Y-110017957D01*
X159755904Y-110078463D01*
X159737345Y-110229434D01*
X159684408Y-110361349D01*
X159602096Y-110470386D01*
X159495412Y-110552726D01*
X159369361Y-110604548D01*
X159228946Y-110622031D01*
X159079171Y-110601357D01*
X159073178Y-110599716D01*
X158943603Y-110542773D01*
X158837251Y-110453820D01*
X158758314Y-110338663D01*
X158710988Y-110203107D01*
X158698707Y-110081337D01*
X158711648Y-109943374D01*
X158752675Y-109829834D01*
X158826623Y-109729763D01*
X158873869Y-109684494D01*
X158993403Y-109601827D01*
X159122917Y-109558257D01*
X159227409Y-109549296D01*
X159369346Y-109566619D01*
G36*
X159369346Y-109566619D02*
G01*
X159495249Y-109620723D01*
X159580949Y-109684494D01*
X159672884Y-109783402D01*
X159728864Y-109890980D01*
X159753650Y-110017957D01*
X159755904Y-110078463D01*
X159737345Y-110229434D01*
X159684408Y-110361349D01*
X159602096Y-110470386D01*
X159495412Y-110552726D01*
X159369361Y-110604548D01*
X159228946Y-110622031D01*
X159079171Y-110601357D01*
X159073178Y-110599716D01*
X158943603Y-110542773D01*
X158837251Y-110453820D01*
X158758314Y-110338663D01*
X158710988Y-110203107D01*
X158698707Y-110081337D01*
X158711648Y-109943374D01*
X158752675Y-109829834D01*
X158826623Y-109729763D01*
X158873869Y-109684494D01*
X158993403Y-109601827D01*
X159122917Y-109558257D01*
X159227409Y-109549296D01*
X159369346Y-109566619D01*
G37*
X254105098Y-104360298D02*
X254229987Y-104405059D01*
X254339266Y-104479607D01*
X254427226Y-104581104D01*
X254488162Y-104706713D01*
X254515490Y-104841639D01*
X254508290Y-104986782D01*
X254465206Y-105117825D01*
X254391521Y-105230531D01*
X254292519Y-105320663D01*
X254173484Y-105383985D01*
X254039699Y-105416258D01*
X253896449Y-105413247D01*
X253822752Y-105397135D01*
X253701842Y-105341884D01*
X253594678Y-105253464D01*
X253513670Y-105143412D01*
X253477746Y-105070430D01*
X253458648Y-105004336D01*
X253451541Y-104924978D01*
X253450969Y-104882046D01*
X253468597Y-104729968D01*
X253521870Y-104600694D01*
X253610901Y-104494017D01*
X253693839Y-104433114D01*
X253831316Y-104371488D01*
X253970305Y-104348162D01*
X254105098Y-104360298D01*
G36*
X254105098Y-104360298D02*
G01*
X254229987Y-104405059D01*
X254339266Y-104479607D01*
X254427226Y-104581104D01*
X254488162Y-104706713D01*
X254515490Y-104841639D01*
X254508290Y-104986782D01*
X254465206Y-105117825D01*
X254391521Y-105230531D01*
X254292519Y-105320663D01*
X254173484Y-105383985D01*
X254039699Y-105416258D01*
X253896449Y-105413247D01*
X253822752Y-105397135D01*
X253701842Y-105341884D01*
X253594678Y-105253464D01*
X253513670Y-105143412D01*
X253477746Y-105070430D01*
X253458648Y-105004336D01*
X253451541Y-104924978D01*
X253450969Y-104882046D01*
X253468597Y-104729968D01*
X253521870Y-104600694D01*
X253610901Y-104494017D01*
X253693839Y-104433114D01*
X253831316Y-104371488D01*
X253970305Y-104348162D01*
X254105098Y-104360298D01*
G37*
X259935260Y-142211700D02*
X260059289Y-142265330D01*
X260165113Y-142349905D01*
X260210557Y-142406159D01*
X260281073Y-142533430D01*
X260312933Y-142659137D01*
X260307656Y-142793074D01*
X260285311Y-142888246D01*
X260226814Y-143015269D01*
X260137229Y-143120159D01*
X260023750Y-143198855D01*
X259893571Y-143247294D01*
X259753887Y-143261414D01*
X259649102Y-143247491D01*
X259557500Y-143213419D01*
X259462909Y-143158716D01*
X259382663Y-143094391D01*
X259349816Y-143057408D01*
X259280683Y-142931110D01*
X259246415Y-142793666D01*
X259246279Y-142653431D01*
X259279542Y-142518755D01*
X259345473Y-142397992D01*
X259414246Y-142323034D01*
X259532519Y-142244682D01*
X259664017Y-142200555D01*
X259800884Y-142189835D01*
X259935260Y-142211700D01*
G36*
X259935260Y-142211700D02*
G01*
X260059289Y-142265330D01*
X260165113Y-142349905D01*
X260210557Y-142406159D01*
X260281073Y-142533430D01*
X260312933Y-142659137D01*
X260307656Y-142793074D01*
X260285311Y-142888246D01*
X260226814Y-143015269D01*
X260137229Y-143120159D01*
X260023750Y-143198855D01*
X259893571Y-143247294D01*
X259753887Y-143261414D01*
X259649102Y-143247491D01*
X259557500Y-143213419D01*
X259462909Y-143158716D01*
X259382663Y-143094391D01*
X259349816Y-143057408D01*
X259280683Y-142931110D01*
X259246415Y-142793666D01*
X259246279Y-142653431D01*
X259279542Y-142518755D01*
X259345473Y-142397992D01*
X259414246Y-142323034D01*
X259532519Y-142244682D01*
X259664017Y-142200555D01*
X259800884Y-142189835D01*
X259935260Y-142211700D01*
G37*
X284878284Y-61898689D02*
X285001714Y-61943950D01*
X285111170Y-62017672D01*
X285200133Y-62117985D01*
X285262082Y-62243018D01*
X285277610Y-62298516D01*
X285291054Y-62445301D01*
X285267381Y-62582222D01*
X285211419Y-62704725D01*
X285127998Y-62808252D01*
X285021948Y-62888248D01*
X284898099Y-62940156D01*
X284761279Y-62959420D01*
X284616317Y-62941484D01*
X284600618Y-62937199D01*
X284471218Y-62879973D01*
X284366797Y-62794136D01*
X284289049Y-62686432D01*
X284239667Y-62563604D01*
X284220344Y-62432396D01*
X284232773Y-62299551D01*
X284278648Y-62171811D01*
X284359662Y-62055920D01*
X284375250Y-62039674D01*
X284489365Y-61952383D01*
X284615589Y-61901036D01*
X284747402Y-61883761D01*
X284878284Y-61898689D01*
G36*
X284878284Y-61898689D02*
G01*
X285001714Y-61943950D01*
X285111170Y-62017672D01*
X285200133Y-62117985D01*
X285262082Y-62243018D01*
X285277610Y-62298516D01*
X285291054Y-62445301D01*
X285267381Y-62582222D01*
X285211419Y-62704725D01*
X285127998Y-62808252D01*
X285021948Y-62888248D01*
X284898099Y-62940156D01*
X284761279Y-62959420D01*
X284616317Y-62941484D01*
X284600618Y-62937199D01*
X284471218Y-62879973D01*
X284366797Y-62794136D01*
X284289049Y-62686432D01*
X284239667Y-62563604D01*
X284220344Y-62432396D01*
X284232773Y-62299551D01*
X284278648Y-62171811D01*
X284359662Y-62055920D01*
X284375250Y-62039674D01*
X284489365Y-61952383D01*
X284615589Y-61901036D01*
X284747402Y-61883761D01*
X284878284Y-61898689D01*
G37*
X82078361Y-92126808D02*
X82199880Y-92178421D01*
X82311284Y-92255418D01*
X82400809Y-92350415D01*
X82436671Y-92408076D01*
X82483428Y-92543548D01*
X82492225Y-92683930D01*
X82465377Y-92821284D01*
X82405199Y-92947672D01*
X82314005Y-93055157D01*
X82230010Y-93116637D01*
X82126193Y-93158678D01*
X82002836Y-93180526D01*
X81877922Y-93180572D01*
X81770691Y-93157682D01*
X81645242Y-93089387D01*
X81540473Y-92989091D01*
X81482337Y-92899893D01*
X81442531Y-92785803D01*
X81427618Y-92657134D01*
X81437794Y-92529688D01*
X81473259Y-92419269D01*
X81476246Y-92413436D01*
X81552074Y-92307490D01*
X81654889Y-92217433D01*
X81773584Y-92150299D01*
X81897053Y-92113122D01*
X81958492Y-92107963D01*
X82078361Y-92126808D01*
G36*
X82078361Y-92126808D02*
G01*
X82199880Y-92178421D01*
X82311284Y-92255418D01*
X82400809Y-92350415D01*
X82436671Y-92408076D01*
X82483428Y-92543548D01*
X82492225Y-92683930D01*
X82465377Y-92821284D01*
X82405199Y-92947672D01*
X82314005Y-93055157D01*
X82230010Y-93116637D01*
X82126193Y-93158678D01*
X82002836Y-93180526D01*
X81877922Y-93180572D01*
X81770691Y-93157682D01*
X81645242Y-93089387D01*
X81540473Y-92989091D01*
X81482337Y-92899893D01*
X81442531Y-92785803D01*
X81427618Y-92657134D01*
X81437794Y-92529688D01*
X81473259Y-92419269D01*
X81476246Y-92413436D01*
X81552074Y-92307490D01*
X81654889Y-92217433D01*
X81773584Y-92150299D01*
X81897053Y-92113122D01*
X81958492Y-92107963D01*
X82078361Y-92126808D01*
G37*
X101168440Y-44430854D02*
X101268374Y-44461792D01*
X101374760Y-44524794D01*
X101470858Y-44612904D01*
X101543260Y-44712948D01*
X101560882Y-44749204D01*
X101577058Y-44809705D01*
X101587756Y-44891549D01*
X101590369Y-44953241D01*
X101571343Y-45104128D01*
X101517065Y-45236983D01*
X101430992Y-45346981D01*
X101316583Y-45429294D01*
X101221609Y-45467821D01*
X101106525Y-45493034D01*
X101002698Y-45492175D01*
X100892076Y-45466439D01*
X100767619Y-45407398D01*
X100667293Y-45319374D01*
X100593060Y-45209448D01*
X100546885Y-45084703D01*
X100530731Y-44952220D01*
X100546562Y-44819083D01*
X100596343Y-44692374D01*
X100654332Y-44609072D01*
X100762114Y-44513582D01*
X100889512Y-44450662D01*
X101027847Y-44422391D01*
X101168440Y-44430854D01*
G36*
X101168440Y-44430854D02*
G01*
X101268374Y-44461792D01*
X101374760Y-44524794D01*
X101470858Y-44612904D01*
X101543260Y-44712948D01*
X101560882Y-44749204D01*
X101577058Y-44809705D01*
X101587756Y-44891549D01*
X101590369Y-44953241D01*
X101571343Y-45104128D01*
X101517065Y-45236983D01*
X101430992Y-45346981D01*
X101316583Y-45429294D01*
X101221609Y-45467821D01*
X101106525Y-45493034D01*
X101002698Y-45492175D01*
X100892076Y-45466439D01*
X100767619Y-45407398D01*
X100667293Y-45319374D01*
X100593060Y-45209448D01*
X100546885Y-45084703D01*
X100530731Y-44952220D01*
X100546562Y-44819083D01*
X100596343Y-44692374D01*
X100654332Y-44609072D01*
X100762114Y-44513582D01*
X100889512Y-44450662D01*
X101027847Y-44422391D01*
X101168440Y-44430854D01*
G37*
X101981006Y-174817724D02*
X102086525Y-174834295D01*
X102143186Y-174854736D01*
X102266868Y-174939115D01*
X102363318Y-175052449D01*
X102427322Y-175187536D01*
X102447906Y-175275539D01*
X102447496Y-175407834D01*
X102410912Y-175539647D01*
X102343293Y-175661244D01*
X102249774Y-175762892D01*
X102158488Y-175823960D01*
X102052752Y-175860151D01*
X101928670Y-175875876D01*
X101805700Y-175869726D01*
X101738742Y-175854371D01*
X101611644Y-175793506D01*
X101511694Y-175706193D01*
X101439374Y-175598861D01*
X101395163Y-175477939D01*
X101379542Y-175349857D01*
X101392992Y-175221044D01*
X101435993Y-175097928D01*
X101509026Y-174986941D01*
X101612570Y-174894509D01*
X101664659Y-174863094D01*
X101753423Y-174832415D01*
X101864422Y-174817195D01*
X101981006Y-174817724D01*
G36*
X101981006Y-174817724D02*
G01*
X102086525Y-174834295D01*
X102143186Y-174854736D01*
X102266868Y-174939115D01*
X102363318Y-175052449D01*
X102427322Y-175187536D01*
X102447906Y-175275539D01*
X102447496Y-175407834D01*
X102410912Y-175539647D01*
X102343293Y-175661244D01*
X102249774Y-175762892D01*
X102158488Y-175823960D01*
X102052752Y-175860151D01*
X101928670Y-175875876D01*
X101805700Y-175869726D01*
X101738742Y-175854371D01*
X101611644Y-175793506D01*
X101511694Y-175706193D01*
X101439374Y-175598861D01*
X101395163Y-175477939D01*
X101379542Y-175349857D01*
X101392992Y-175221044D01*
X101435993Y-175097928D01*
X101509026Y-174986941D01*
X101612570Y-174894509D01*
X101664659Y-174863094D01*
X101753423Y-174832415D01*
X101864422Y-174817195D01*
X101981006Y-174817724D01*
G37*
X102076045Y-104473478D02*
X102201236Y-104503603D01*
X102317408Y-104563855D01*
X102418356Y-104655015D01*
X102486315Y-104755046D01*
X102519512Y-104851243D01*
X102533603Y-104968511D01*
X102528614Y-105090152D01*
X102504568Y-105199472D01*
X102485624Y-105243884D01*
X102419421Y-105338220D01*
X102330224Y-105424620D01*
X102233741Y-105488465D01*
X102211920Y-105498527D01*
X102102994Y-105525315D01*
X101977097Y-105526984D01*
X101850536Y-105504582D01*
X101758558Y-105469421D01*
X101637400Y-105385741D01*
X101546845Y-105276363D01*
X101489892Y-105147687D01*
X101469541Y-105006110D01*
X101483001Y-104881558D01*
X101531995Y-104747358D01*
X101609202Y-104638589D01*
X101708415Y-104556034D01*
X101823430Y-104500476D01*
X101948042Y-104472696D01*
X102076045Y-104473478D01*
G36*
X102076045Y-104473478D02*
G01*
X102201236Y-104503603D01*
X102317408Y-104563855D01*
X102418356Y-104655015D01*
X102486315Y-104755046D01*
X102519512Y-104851243D01*
X102533603Y-104968511D01*
X102528614Y-105090152D01*
X102504568Y-105199472D01*
X102485624Y-105243884D01*
X102419421Y-105338220D01*
X102330224Y-105424620D01*
X102233741Y-105488465D01*
X102211920Y-105498527D01*
X102102994Y-105525315D01*
X101977097Y-105526984D01*
X101850536Y-105504582D01*
X101758558Y-105469421D01*
X101637400Y-105385741D01*
X101546845Y-105276363D01*
X101489892Y-105147687D01*
X101469541Y-105006110D01*
X101483001Y-104881558D01*
X101531995Y-104747358D01*
X101609202Y-104638589D01*
X101708415Y-104556034D01*
X101823430Y-104500476D01*
X101948042Y-104472696D01*
X102076045Y-104473478D01*
G37*
X102079078Y-184914811D02*
X102199573Y-184955984D01*
X102308164Y-185025833D01*
X102398702Y-185124358D01*
X102465037Y-185251560D01*
X102471488Y-185269978D01*
X102497058Y-185409924D01*
X102484442Y-185548538D01*
X102437384Y-185678643D01*
X102359627Y-185793065D01*
X102254915Y-185884628D01*
X102126990Y-185946158D01*
X102117162Y-185949185D01*
X102019729Y-185973467D01*
X101940215Y-185978840D01*
X101858472Y-185964858D01*
X101784941Y-185941875D01*
X101656414Y-185876629D01*
X101552693Y-185782145D01*
X101477300Y-185665501D01*
X101433759Y-185533775D01*
X101425591Y-185394043D01*
X101450496Y-185269978D01*
X101513277Y-185139093D01*
X101601050Y-185036884D01*
X101707666Y-184963351D01*
X101826976Y-184918495D01*
X101952830Y-184902315D01*
X102079078Y-184914811D01*
G36*
X102079078Y-184914811D02*
G01*
X102199573Y-184955984D01*
X102308164Y-185025833D01*
X102398702Y-185124358D01*
X102465037Y-185251560D01*
X102471488Y-185269978D01*
X102497058Y-185409924D01*
X102484442Y-185548538D01*
X102437384Y-185678643D01*
X102359627Y-185793065D01*
X102254915Y-185884628D01*
X102126990Y-185946158D01*
X102117162Y-185949185D01*
X102019729Y-185973467D01*
X101940215Y-185978840D01*
X101858472Y-185964858D01*
X101784941Y-185941875D01*
X101656414Y-185876629D01*
X101552693Y-185782145D01*
X101477300Y-185665501D01*
X101433759Y-185533775D01*
X101425591Y-185394043D01*
X101450496Y-185269978D01*
X101513277Y-185139093D01*
X101601050Y-185036884D01*
X101707666Y-184963351D01*
X101826976Y-184918495D01*
X101952830Y-184902315D01*
X102079078Y-184914811D01*
G37*
X102150520Y-164744482D02*
X102264467Y-164786316D01*
X102365095Y-164861567D01*
X102407877Y-164906423D01*
X102490545Y-165025957D01*
X102534115Y-165155471D01*
X102543076Y-165259963D01*
X102525753Y-165401900D01*
X102471648Y-165527803D01*
X102407877Y-165613503D01*
X102309673Y-165704951D01*
X102202912Y-165760874D01*
X102076753Y-165786073D01*
X102012413Y-165788665D01*
X101914936Y-165783762D01*
X101835057Y-165764680D01*
X101758558Y-165730921D01*
X101636517Y-165646899D01*
X101546345Y-165536246D01*
X101490831Y-165402570D01*
X101484834Y-165376822D01*
X101472907Y-165225927D01*
X101498789Y-165086462D01*
X101558459Y-164963348D01*
X101647897Y-164861504D01*
X101763082Y-164785849D01*
X101899993Y-164741305D01*
X102012413Y-164731261D01*
X102150520Y-164744482D01*
G36*
X102150520Y-164744482D02*
G01*
X102264467Y-164786316D01*
X102365095Y-164861567D01*
X102407877Y-164906423D01*
X102490545Y-165025957D01*
X102534115Y-165155471D01*
X102543076Y-165259963D01*
X102525753Y-165401900D01*
X102471648Y-165527803D01*
X102407877Y-165613503D01*
X102309673Y-165704951D01*
X102202912Y-165760874D01*
X102076753Y-165786073D01*
X102012413Y-165788665D01*
X101914936Y-165783762D01*
X101835057Y-165764680D01*
X101758558Y-165730921D01*
X101636517Y-165646899D01*
X101546345Y-165536246D01*
X101490831Y-165402570D01*
X101484834Y-165376822D01*
X101472907Y-165225927D01*
X101498789Y-165086462D01*
X101558459Y-164963348D01*
X101647897Y-164861504D01*
X101763082Y-164785849D01*
X101899993Y-164741305D01*
X102012413Y-164731261D01*
X102150520Y-164744482D01*
G37*
X116093897Y-32468602D02*
X116194328Y-32496539D01*
X116282407Y-32549743D01*
X116354770Y-32615793D01*
X116440175Y-32720414D01*
X116490568Y-32828448D01*
X116511602Y-32953843D01*
X116513076Y-33006416D01*
X116493730Y-33148892D01*
X116439114Y-33274520D01*
X116354355Y-33379097D01*
X116244581Y-33458424D01*
X116114920Y-33508299D01*
X115970501Y-33524523D01*
X115888659Y-33517883D01*
X115750727Y-33476845D01*
X115629789Y-33400191D01*
X115533025Y-33293486D01*
X115483507Y-33203866D01*
X115465140Y-33139184D01*
X115452787Y-33052876D01*
X115449428Y-32987463D01*
X115467609Y-32840172D01*
X115521068Y-32710396D01*
X115605155Y-32602867D01*
X115715220Y-32522317D01*
X115846613Y-32473479D01*
X115967354Y-32460414D01*
X116093897Y-32468602D01*
G36*
X116093897Y-32468602D02*
G01*
X116194328Y-32496539D01*
X116282407Y-32549743D01*
X116354770Y-32615793D01*
X116440175Y-32720414D01*
X116490568Y-32828448D01*
X116511602Y-32953843D01*
X116513076Y-33006416D01*
X116493730Y-33148892D01*
X116439114Y-33274520D01*
X116354355Y-33379097D01*
X116244581Y-33458424D01*
X116114920Y-33508299D01*
X115970501Y-33524523D01*
X115888659Y-33517883D01*
X115750727Y-33476845D01*
X115629789Y-33400191D01*
X115533025Y-33293486D01*
X115483507Y-33203866D01*
X115465140Y-33139184D01*
X115452787Y-33052876D01*
X115449428Y-32987463D01*
X115467609Y-32840172D01*
X115521068Y-32710396D01*
X115605155Y-32602867D01*
X115715220Y-32522317D01*
X115846613Y-32473479D01*
X115967354Y-32460414D01*
X116093897Y-32468602D01*
G37*
X168661681Y-92058299D02*
X168728805Y-92070588D01*
X168793879Y-92097310D01*
X168837076Y-92120517D01*
X168951215Y-92207244D01*
X169035150Y-92317727D01*
X169087431Y-92444649D01*
X169106607Y-92580697D01*
X169091230Y-92718555D01*
X169039848Y-92850910D01*
X168995391Y-92919135D01*
X168898577Y-93012734D01*
X168777249Y-93078755D01*
X168641100Y-93114555D01*
X168499827Y-93117491D01*
X168373219Y-93088732D01*
X168252570Y-93023891D01*
X168157001Y-92931102D01*
X168088148Y-92817663D01*
X168047649Y-92690875D01*
X168037140Y-92558039D01*
X168058257Y-92426455D01*
X168112637Y-92303423D01*
X168178253Y-92219061D01*
X168278646Y-92132921D01*
X168384542Y-92080958D01*
X168508680Y-92057886D01*
X168572492Y-92055526D01*
X168661681Y-92058299D01*
G36*
X168661681Y-92058299D02*
G01*
X168728805Y-92070588D01*
X168793879Y-92097310D01*
X168837076Y-92120517D01*
X168951215Y-92207244D01*
X169035150Y-92317727D01*
X169087431Y-92444649D01*
X169106607Y-92580697D01*
X169091230Y-92718555D01*
X169039848Y-92850910D01*
X168995391Y-92919135D01*
X168898577Y-93012734D01*
X168777249Y-93078755D01*
X168641100Y-93114555D01*
X168499827Y-93117491D01*
X168373219Y-93088732D01*
X168252570Y-93023891D01*
X168157001Y-92931102D01*
X168088148Y-92817663D01*
X168047649Y-92690875D01*
X168037140Y-92558039D01*
X168058257Y-92426455D01*
X168112637Y-92303423D01*
X168178253Y-92219061D01*
X168278646Y-92132921D01*
X168384542Y-92080958D01*
X168508680Y-92057886D01*
X168572492Y-92055526D01*
X168661681Y-92058299D01*
G37*
X182329506Y-132542073D02*
X182454404Y-132577045D01*
X182568328Y-132641118D01*
X182664914Y-132733771D01*
X182737796Y-132854481D01*
X182756655Y-132903645D01*
X182783392Y-133044562D01*
X182772302Y-133180052D01*
X182727889Y-133305102D01*
X182654659Y-133414698D01*
X182557116Y-133503827D01*
X182439764Y-133567477D01*
X182307109Y-133600635D01*
X182163653Y-133598288D01*
X182136651Y-133593633D01*
X181997353Y-133545429D01*
X181878099Y-133460651D01*
X181781417Y-133341265D01*
X181756824Y-133298296D01*
X181728522Y-133212262D01*
X181716339Y-133103480D01*
X181720060Y-132988258D01*
X181739465Y-132882903D01*
X181763169Y-132822046D01*
X181847467Y-132703665D01*
X181952614Y-132617000D01*
X182072246Y-132561528D01*
X182199998Y-132536727D01*
X182329506Y-132542073D01*
G36*
X182329506Y-132542073D02*
G01*
X182454404Y-132577045D01*
X182568328Y-132641118D01*
X182664914Y-132733771D01*
X182737796Y-132854481D01*
X182756655Y-132903645D01*
X182783392Y-133044562D01*
X182772302Y-133180052D01*
X182727889Y-133305102D01*
X182654659Y-133414698D01*
X182557116Y-133503827D01*
X182439764Y-133567477D01*
X182307109Y-133600635D01*
X182163653Y-133598288D01*
X182136651Y-133593633D01*
X181997353Y-133545429D01*
X181878099Y-133460651D01*
X181781417Y-133341265D01*
X181756824Y-133298296D01*
X181728522Y-133212262D01*
X181716339Y-133103480D01*
X181720060Y-132988258D01*
X181739465Y-132882903D01*
X181763169Y-132822046D01*
X181847467Y-132703665D01*
X181952614Y-132617000D01*
X182072246Y-132561528D01*
X182199998Y-132536727D01*
X182329506Y-132542073D01*
G37*
X191954683Y-92127789D02*
X192088296Y-92182883D01*
X192199197Y-92271255D01*
X192282095Y-92388808D01*
X192310730Y-92473526D01*
X192326079Y-92580962D01*
X192326873Y-92693241D01*
X192311841Y-92792489D01*
X192310992Y-92795582D01*
X192268066Y-92890930D01*
X192197830Y-92987432D01*
X192112452Y-93070958D01*
X192025978Y-93126535D01*
X191907047Y-93160446D01*
X191772997Y-93166196D01*
X191639848Y-93144304D01*
X191552473Y-93111191D01*
X191430269Y-93028368D01*
X191340483Y-92919552D01*
X191285319Y-92788400D01*
X191266977Y-92638568D01*
X191266986Y-92637130D01*
X191286483Y-92482378D01*
X191340426Y-92350149D01*
X191425620Y-92243594D01*
X191538872Y-92165863D01*
X191676987Y-92120104D01*
X191802909Y-92108634D01*
X191954683Y-92127789D01*
G36*
X191954683Y-92127789D02*
G01*
X192088296Y-92182883D01*
X192199197Y-92271255D01*
X192282095Y-92388808D01*
X192310730Y-92473526D01*
X192326079Y-92580962D01*
X192326873Y-92693241D01*
X192311841Y-92792489D01*
X192310992Y-92795582D01*
X192268066Y-92890930D01*
X192197830Y-92987432D01*
X192112452Y-93070958D01*
X192025978Y-93126535D01*
X191907047Y-93160446D01*
X191772997Y-93166196D01*
X191639848Y-93144304D01*
X191552473Y-93111191D01*
X191430269Y-93028368D01*
X191340483Y-92919552D01*
X191285319Y-92788400D01*
X191266977Y-92638568D01*
X191266986Y-92637130D01*
X191286483Y-92482378D01*
X191340426Y-92350149D01*
X191425620Y-92243594D01*
X191538872Y-92165863D01*
X191676987Y-92120104D01*
X191802909Y-92108634D01*
X191954683Y-92127789D01*
G37*
X204135844Y-91993660D02*
X204265964Y-92038735D01*
X204381158Y-92113691D01*
X204474129Y-92214687D01*
X204537581Y-92337881D01*
X204547658Y-92370517D01*
X204567284Y-92515562D01*
X204549569Y-92652913D01*
X204499177Y-92777747D01*
X204420774Y-92885239D01*
X204319024Y-92970565D01*
X204198591Y-93028900D01*
X204064142Y-93055420D01*
X203920339Y-93045302D01*
X203899659Y-93040671D01*
X203765803Y-92986575D01*
X203648849Y-92894047D01*
X203642737Y-92887644D01*
X203566322Y-92792421D01*
X203521322Y-92696544D01*
X203501695Y-92584536D01*
X203499515Y-92520713D01*
X203517797Y-92367121D01*
X203572127Y-92234109D01*
X203660383Y-92124692D01*
X203780442Y-92041887D01*
X203860020Y-92008520D01*
X203998097Y-91982308D01*
X204135844Y-91993660D01*
G36*
X204135844Y-91993660D02*
G01*
X204265964Y-92038735D01*
X204381158Y-92113691D01*
X204474129Y-92214687D01*
X204537581Y-92337881D01*
X204547658Y-92370517D01*
X204567284Y-92515562D01*
X204549569Y-92652913D01*
X204499177Y-92777747D01*
X204420774Y-92885239D01*
X204319024Y-92970565D01*
X204198591Y-93028900D01*
X204064142Y-93055420D01*
X203920339Y-93045302D01*
X203899659Y-93040671D01*
X203765803Y-92986575D01*
X203648849Y-92894047D01*
X203642737Y-92887644D01*
X203566322Y-92792421D01*
X203521322Y-92696544D01*
X203501695Y-92584536D01*
X203499515Y-92520713D01*
X203517797Y-92367121D01*
X203572127Y-92234109D01*
X203660383Y-92124692D01*
X203780442Y-92041887D01*
X203860020Y-92008520D01*
X203998097Y-91982308D01*
X204135844Y-91993660D01*
G37*
X216577520Y-136042482D02*
X216691467Y-136084316D01*
X216792095Y-136159567D01*
X216834877Y-136204423D01*
X216917545Y-136323957D01*
X216961115Y-136453471D01*
X216970076Y-136557963D01*
X216952753Y-136699900D01*
X216898648Y-136825803D01*
X216834877Y-136911503D01*
X216736673Y-137002951D01*
X216629912Y-137058874D01*
X216503753Y-137084073D01*
X216439413Y-137086665D01*
X216341936Y-137081762D01*
X216262057Y-137062680D01*
X216185558Y-137028921D01*
X216063517Y-136944899D01*
X215973345Y-136834246D01*
X215917831Y-136700570D01*
X215911834Y-136674822D01*
X215899907Y-136523927D01*
X215925789Y-136384462D01*
X215985459Y-136261348D01*
X216074897Y-136159504D01*
X216190082Y-136083849D01*
X216326993Y-136039305D01*
X216439413Y-136029261D01*
X216577520Y-136042482D01*
G36*
X216577520Y-136042482D02*
G01*
X216691467Y-136084316D01*
X216792095Y-136159567D01*
X216834877Y-136204423D01*
X216917545Y-136323957D01*
X216961115Y-136453471D01*
X216970076Y-136557963D01*
X216952753Y-136699900D01*
X216898648Y-136825803D01*
X216834877Y-136911503D01*
X216736673Y-137002951D01*
X216629912Y-137058874D01*
X216503753Y-137084073D01*
X216439413Y-137086665D01*
X216341936Y-137081762D01*
X216262057Y-137062680D01*
X216185558Y-137028921D01*
X216063517Y-136944899D01*
X215973345Y-136834246D01*
X215917831Y-136700570D01*
X215911834Y-136674822D01*
X215899907Y-136523927D01*
X215925789Y-136384462D01*
X215985459Y-136261348D01*
X216074897Y-136159504D01*
X216190082Y-136083849D01*
X216326993Y-136039305D01*
X216439413Y-136029261D01*
X216577520Y-136042482D01*
G37*
X216606633Y-92008642D02*
X216733471Y-92069482D01*
X216843751Y-92165681D01*
X216847986Y-92170572D01*
X216924369Y-92289371D01*
X216964815Y-92419126D01*
X216971321Y-92552890D01*
X216945885Y-92683720D01*
X216890502Y-92804668D01*
X216807169Y-92908790D01*
X216697883Y-92989140D01*
X216601109Y-93029321D01*
X216492636Y-93054138D01*
X216397092Y-93055620D01*
X216294199Y-93033235D01*
X216254274Y-93020208D01*
X216122888Y-92954108D01*
X216020153Y-92858566D01*
X215948984Y-92737756D01*
X215912297Y-92595851D01*
X215907803Y-92524444D01*
X215923540Y-92375226D01*
X215973855Y-92248445D01*
X216060597Y-92139684D01*
X216074433Y-92126830D01*
X216197136Y-92042255D01*
X216331428Y-91994631D01*
X216470273Y-91983559D01*
X216606633Y-92008642D01*
G36*
X216606633Y-92008642D02*
G01*
X216733471Y-92069482D01*
X216843751Y-92165681D01*
X216847986Y-92170572D01*
X216924369Y-92289371D01*
X216964815Y-92419126D01*
X216971321Y-92552890D01*
X216945885Y-92683720D01*
X216890502Y-92804668D01*
X216807169Y-92908790D01*
X216697883Y-92989140D01*
X216601109Y-93029321D01*
X216492636Y-93054138D01*
X216397092Y-93055620D01*
X216294199Y-93033235D01*
X216254274Y-93020208D01*
X216122888Y-92954108D01*
X216020153Y-92858566D01*
X215948984Y-92737756D01*
X215912297Y-92595851D01*
X215907803Y-92524444D01*
X215923540Y-92375226D01*
X215973855Y-92248445D01*
X216060597Y-92139684D01*
X216074433Y-92126830D01*
X216197136Y-92042255D01*
X216331428Y-91994631D01*
X216470273Y-91983559D01*
X216606633Y-92008642D01*
G37*
X62092489Y-159856661D02*
X62123315Y-159864482D01*
X62205536Y-159903874D01*
X62291026Y-159971720D01*
X62368824Y-160056604D01*
X62427966Y-160147111D01*
X62452183Y-160206931D01*
X62468780Y-160309448D01*
X62468843Y-160424144D01*
X62453548Y-160533448D01*
X62424595Y-160618784D01*
X62342336Y-160733834D01*
X62232080Y-160822659D01*
X62101796Y-160881357D01*
X61959456Y-160906027D01*
X61850159Y-160899943D01*
X61709581Y-160857328D01*
X61587236Y-160779379D01*
X61490042Y-160671453D01*
X61441843Y-160583669D01*
X61424150Y-160521090D01*
X61411989Y-160437135D01*
X61408451Y-160370463D01*
X61426506Y-160223903D01*
X61479208Y-160096003D01*
X61561701Y-159990198D01*
X61669131Y-159909925D01*
X61796642Y-159858620D01*
X61939380Y-159839720D01*
X62092489Y-159856661D01*
G36*
X62092489Y-159856661D02*
G01*
X62123315Y-159864482D01*
X62205536Y-159903874D01*
X62291026Y-159971720D01*
X62368824Y-160056604D01*
X62427966Y-160147111D01*
X62452183Y-160206931D01*
X62468780Y-160309448D01*
X62468843Y-160424144D01*
X62453548Y-160533448D01*
X62424595Y-160618784D01*
X62342336Y-160733834D01*
X62232080Y-160822659D01*
X62101796Y-160881357D01*
X61959456Y-160906027D01*
X61850159Y-160899943D01*
X61709581Y-160857328D01*
X61587236Y-160779379D01*
X61490042Y-160671453D01*
X61441843Y-160583669D01*
X61424150Y-160521090D01*
X61411989Y-160437135D01*
X61408451Y-160370463D01*
X61426506Y-160223903D01*
X61479208Y-160096003D01*
X61561701Y-159990198D01*
X61669131Y-159909925D01*
X61796642Y-159858620D01*
X61939380Y-159839720D01*
X62092489Y-159856661D01*
G37*
X72433654Y-92140746D02*
X72559937Y-92196002D01*
X72668890Y-92281626D01*
X72753242Y-92395087D01*
X72777383Y-92445090D01*
X72800624Y-92536640D01*
X72807559Y-92648800D01*
X72798420Y-92763211D01*
X72773437Y-92861512D01*
X72772117Y-92864835D01*
X72723123Y-92947511D01*
X72648036Y-93031352D01*
X72560025Y-93104228D01*
X72472263Y-93154012D01*
X72449067Y-93162300D01*
X72301609Y-93186417D01*
X72155770Y-93172605D01*
X72052492Y-93137017D01*
X71925702Y-93055565D01*
X71830638Y-92948170D01*
X71770154Y-92819307D01*
X71747106Y-92673449D01*
X71746969Y-92658296D01*
X71764745Y-92503859D01*
X71817233Y-92373406D01*
X71905173Y-92265667D01*
X72023489Y-92182506D01*
X72158161Y-92131467D01*
X72297306Y-92118391D01*
X72433654Y-92140746D01*
G36*
X72433654Y-92140746D02*
G01*
X72559937Y-92196002D01*
X72668890Y-92281626D01*
X72753242Y-92395087D01*
X72777383Y-92445090D01*
X72800624Y-92536640D01*
X72807559Y-92648800D01*
X72798420Y-92763211D01*
X72773437Y-92861512D01*
X72772117Y-92864835D01*
X72723123Y-92947511D01*
X72648036Y-93031352D01*
X72560025Y-93104228D01*
X72472263Y-93154012D01*
X72449067Y-93162300D01*
X72301609Y-93186417D01*
X72155770Y-93172605D01*
X72052492Y-93137017D01*
X71925702Y-93055565D01*
X71830638Y-92948170D01*
X71770154Y-92819307D01*
X71747106Y-92673449D01*
X71746969Y-92658296D01*
X71764745Y-92503859D01*
X71817233Y-92373406D01*
X71905173Y-92265667D01*
X72023489Y-92182506D01*
X72158161Y-92131467D01*
X72297306Y-92118391D01*
X72433654Y-92140746D01*
G37*
X91508686Y-46716606D02*
X91640550Y-46772703D01*
X91748529Y-46861945D01*
X91829069Y-46981675D01*
X91865743Y-47077050D01*
X91888125Y-47221079D01*
X91873063Y-47356742D01*
X91825251Y-47479730D01*
X91749384Y-47585734D01*
X91650156Y-47670444D01*
X91532261Y-47729551D01*
X91400395Y-47758746D01*
X91259251Y-47753719D01*
X91157219Y-47727451D01*
X91087907Y-47692652D01*
X91013307Y-47639931D01*
X90975317Y-47605985D01*
X90887006Y-47490299D01*
X90834877Y-47361400D01*
X90817935Y-47226325D01*
X90835187Y-47092110D01*
X90885640Y-46965794D01*
X90968298Y-46854413D01*
X91082170Y-46765006D01*
X91095126Y-46757605D01*
X91166501Y-46722129D01*
X91229945Y-46703335D01*
X91305224Y-46696590D01*
X91356492Y-46696313D01*
X91508686Y-46716606D01*
G36*
X91508686Y-46716606D02*
G01*
X91640550Y-46772703D01*
X91748529Y-46861945D01*
X91829069Y-46981675D01*
X91865743Y-47077050D01*
X91888125Y-47221079D01*
X91873063Y-47356742D01*
X91825251Y-47479730D01*
X91749384Y-47585734D01*
X91650156Y-47670444D01*
X91532261Y-47729551D01*
X91400395Y-47758746D01*
X91259251Y-47753719D01*
X91157219Y-47727451D01*
X91087907Y-47692652D01*
X91013307Y-47639931D01*
X90975317Y-47605985D01*
X90887006Y-47490299D01*
X90834877Y-47361400D01*
X90817935Y-47226325D01*
X90835187Y-47092110D01*
X90885640Y-46965794D01*
X90968298Y-46854413D01*
X91082170Y-46765006D01*
X91095126Y-46757605D01*
X91166501Y-46722129D01*
X91229945Y-46703335D01*
X91305224Y-46696590D01*
X91356492Y-46696313D01*
X91508686Y-46716606D01*
G37*
X91599314Y-72395376D02*
X91671449Y-72421732D01*
X91795317Y-72503462D01*
X91887097Y-72611825D01*
X91945026Y-72743912D01*
X91967340Y-72896818D01*
X91967533Y-72909796D01*
X91948976Y-73056318D01*
X91894275Y-73187453D01*
X91807505Y-73297241D01*
X91692740Y-73379723D01*
X91626410Y-73408763D01*
X91494622Y-73435925D01*
X91354431Y-73431197D01*
X91223778Y-73395446D01*
X91208326Y-73388517D01*
X91083309Y-73307704D01*
X90988848Y-73201021D01*
X90927468Y-73074324D01*
X90901696Y-72933467D01*
X90914058Y-72784305D01*
X90926572Y-72735471D01*
X90967282Y-72650724D01*
X91034512Y-72561645D01*
X91116212Y-72481351D01*
X91200331Y-72422954D01*
X91224037Y-72411749D01*
X91341878Y-72381188D01*
X91472985Y-72375864D01*
X91599314Y-72395376D01*
G36*
X91599314Y-72395376D02*
G01*
X91671449Y-72421732D01*
X91795317Y-72503462D01*
X91887097Y-72611825D01*
X91945026Y-72743912D01*
X91967340Y-72896818D01*
X91967533Y-72909796D01*
X91948976Y-73056318D01*
X91894275Y-73187453D01*
X91807505Y-73297241D01*
X91692740Y-73379723D01*
X91626410Y-73408763D01*
X91494622Y-73435925D01*
X91354431Y-73431197D01*
X91223778Y-73395446D01*
X91208326Y-73388517D01*
X91083309Y-73307704D01*
X90988848Y-73201021D01*
X90927468Y-73074324D01*
X90901696Y-72933467D01*
X90914058Y-72784305D01*
X90926572Y-72735471D01*
X90967282Y-72650724D01*
X91034512Y-72561645D01*
X91116212Y-72481351D01*
X91200331Y-72422954D01*
X91224037Y-72411749D01*
X91341878Y-72381188D01*
X91472985Y-72375864D01*
X91599314Y-72395376D01*
G37*
X102094282Y-117158995D02*
X102224224Y-117204875D01*
X102334476Y-117280946D01*
X102420331Y-117383865D01*
X102477082Y-117510290D01*
X102500023Y-117656877D01*
X102500277Y-117672684D01*
X102482956Y-117826289D01*
X102431254Y-117959389D01*
X102347267Y-118068280D01*
X102233094Y-118149255D01*
X102229555Y-118151049D01*
X102095128Y-118199470D01*
X101955228Y-118216335D01*
X101861077Y-118207687D01*
X101747131Y-118167110D01*
X101637113Y-118096118D01*
X101545868Y-118005198D01*
X101517587Y-117965013D01*
X101467252Y-117848660D01*
X101443326Y-117714431D01*
X101447313Y-117578679D01*
X101472710Y-117477060D01*
X101518852Y-117394691D01*
X101589772Y-117310877D01*
X101673354Y-117237150D01*
X101757482Y-117185037D01*
X101794155Y-117171181D01*
X101949356Y-117146650D01*
X102094282Y-117158995D01*
G36*
X102094282Y-117158995D02*
G01*
X102224224Y-117204875D01*
X102334476Y-117280946D01*
X102420331Y-117383865D01*
X102477082Y-117510290D01*
X102500023Y-117656877D01*
X102500277Y-117672684D01*
X102482956Y-117826289D01*
X102431254Y-117959389D01*
X102347267Y-118068280D01*
X102233094Y-118149255D01*
X102229555Y-118151049D01*
X102095128Y-118199470D01*
X101955228Y-118216335D01*
X101861077Y-118207687D01*
X101747131Y-118167110D01*
X101637113Y-118096118D01*
X101545868Y-118005198D01*
X101517587Y-117965013D01*
X101467252Y-117848660D01*
X101443326Y-117714431D01*
X101447313Y-117578679D01*
X101472710Y-117477060D01*
X101518852Y-117394691D01*
X101589772Y-117310877D01*
X101673354Y-117237150D01*
X101757482Y-117185037D01*
X101794155Y-117171181D01*
X101949356Y-117146650D01*
X102094282Y-117158995D01*
G37*
X102149865Y-132346307D02*
X102230959Y-132382816D01*
X102341830Y-132465147D01*
X102423970Y-132571850D01*
X102476428Y-132695353D01*
X102498251Y-132828082D01*
X102488486Y-132962464D01*
X102446180Y-133090925D01*
X102370381Y-133205894D01*
X102338639Y-133238840D01*
X102227476Y-133316642D01*
X102095357Y-133365172D01*
X101954017Y-133382052D01*
X101815188Y-133364911D01*
X101775741Y-133352763D01*
X101651475Y-133288154D01*
X101550607Y-133190154D01*
X101494807Y-133105050D01*
X101459204Y-133033492D01*
X101440335Y-132970059D01*
X101433546Y-132894954D01*
X101433259Y-132843213D01*
X101446990Y-132705519D01*
X101488771Y-132591745D01*
X101563788Y-132490183D01*
X101609334Y-132445740D01*
X101729102Y-132364591D01*
X101863681Y-132320508D01*
X102006219Y-132314182D01*
X102149865Y-132346307D01*
G36*
X102149865Y-132346307D02*
G01*
X102230959Y-132382816D01*
X102341830Y-132465147D01*
X102423970Y-132571850D01*
X102476428Y-132695353D01*
X102498251Y-132828082D01*
X102488486Y-132962464D01*
X102446180Y-133090925D01*
X102370381Y-133205894D01*
X102338639Y-133238840D01*
X102227476Y-133316642D01*
X102095357Y-133365172D01*
X101954017Y-133382052D01*
X101815188Y-133364911D01*
X101775741Y-133352763D01*
X101651475Y-133288154D01*
X101550607Y-133190154D01*
X101494807Y-133105050D01*
X101459204Y-133033492D01*
X101440335Y-132970059D01*
X101433546Y-132894954D01*
X101433259Y-132843213D01*
X101446990Y-132705519D01*
X101488771Y-132591745D01*
X101563788Y-132490183D01*
X101609334Y-132445740D01*
X101729102Y-132364591D01*
X101863681Y-132320508D01*
X102006219Y-132314182D01*
X102149865Y-132346307D01*
G37*
X102229396Y-142123476D02*
X102363060Y-142178688D01*
X102474012Y-142267366D01*
X102557062Y-142385378D01*
X102583233Y-142463091D01*
X102598858Y-142564690D01*
X102602630Y-142672749D01*
X102593237Y-142769841D01*
X102587750Y-142793880D01*
X102549709Y-142878338D01*
X102485202Y-142968103D01*
X102405815Y-143049936D01*
X102323133Y-143110592D01*
X102300478Y-143122202D01*
X102181547Y-143156113D01*
X102047497Y-143161863D01*
X101914348Y-143139971D01*
X101826973Y-143106858D01*
X101704769Y-143024034D01*
X101614983Y-142915218D01*
X101559819Y-142784066D01*
X101541477Y-142634235D01*
X101541486Y-142632796D01*
X101560983Y-142478044D01*
X101614926Y-142345816D01*
X101700120Y-142239261D01*
X101813372Y-142161529D01*
X101951487Y-142115771D01*
X102077409Y-142104301D01*
X102229396Y-142123476D01*
G36*
X102229396Y-142123476D02*
G01*
X102363060Y-142178688D01*
X102474012Y-142267366D01*
X102557062Y-142385378D01*
X102583233Y-142463091D01*
X102598858Y-142564690D01*
X102602630Y-142672749D01*
X102593237Y-142769841D01*
X102587750Y-142793880D01*
X102549709Y-142878338D01*
X102485202Y-142968103D01*
X102405815Y-143049936D01*
X102323133Y-143110592D01*
X102300478Y-143122202D01*
X102181547Y-143156113D01*
X102047497Y-143161863D01*
X101914348Y-143139971D01*
X101826973Y-143106858D01*
X101704769Y-143024034D01*
X101614983Y-142915218D01*
X101559819Y-142784066D01*
X101541477Y-142634235D01*
X101541486Y-142632796D01*
X101560983Y-142478044D01*
X101614926Y-142345816D01*
X101700120Y-142239261D01*
X101813372Y-142161529D01*
X101951487Y-142115771D01*
X102077409Y-142104301D01*
X102229396Y-142123476D01*
G37*
X112184298Y-77460507D02*
X112189274Y-77461856D01*
X112280500Y-77503696D01*
X112372681Y-77573142D01*
X112453950Y-77658699D01*
X112512442Y-77748871D01*
X112529168Y-77791169D01*
X112555299Y-77947688D01*
X112541738Y-78099588D01*
X112489524Y-78240727D01*
X112440383Y-78317283D01*
X112356515Y-78396281D01*
X112245513Y-78457284D01*
X112120376Y-78495766D01*
X111994101Y-78507201D01*
X111919909Y-78498500D01*
X111772794Y-78447614D01*
X111653523Y-78366524D01*
X111564845Y-78258550D01*
X111509508Y-78127017D01*
X111490280Y-77979213D01*
X111509010Y-77832530D01*
X111564519Y-77697855D01*
X111652292Y-77582829D01*
X111767813Y-77495088D01*
X111780466Y-77488241D01*
X111863867Y-77460041D01*
X111970492Y-77445276D01*
X112083061Y-77445059D01*
X112184298Y-77460507D01*
G36*
X112184298Y-77460507D02*
G01*
X112189274Y-77461856D01*
X112280500Y-77503696D01*
X112372681Y-77573142D01*
X112453950Y-77658699D01*
X112512442Y-77748871D01*
X112529168Y-77791169D01*
X112555299Y-77947688D01*
X112541738Y-78099588D01*
X112489524Y-78240727D01*
X112440383Y-78317283D01*
X112356515Y-78396281D01*
X112245513Y-78457284D01*
X112120376Y-78495766D01*
X111994101Y-78507201D01*
X111919909Y-78498500D01*
X111772794Y-78447614D01*
X111653523Y-78366524D01*
X111564845Y-78258550D01*
X111509508Y-78127017D01*
X111490280Y-77979213D01*
X111509010Y-77832530D01*
X111564519Y-77697855D01*
X111652292Y-77582829D01*
X111767813Y-77495088D01*
X111780466Y-77488241D01*
X111863867Y-77460041D01*
X111970492Y-77445276D01*
X112083061Y-77445059D01*
X112184298Y-77460507D01*
G37*
X181968264Y-92126531D02*
X182101473Y-92178861D01*
X182208869Y-92262647D01*
X182287452Y-92374912D01*
X182334225Y-92512680D01*
X182346723Y-92639129D01*
X182328324Y-92789353D01*
X182272673Y-92921158D01*
X182182189Y-93030901D01*
X182059290Y-93114942D01*
X182018158Y-93133891D01*
X181924087Y-93157925D01*
X181810234Y-93165170D01*
X181695538Y-93155945D01*
X181598941Y-93130567D01*
X181589992Y-93126693D01*
X181508652Y-93075494D01*
X181427704Y-93001322D01*
X181358642Y-92916832D01*
X181312961Y-92834681D01*
X181305967Y-92813971D01*
X181281317Y-92658206D01*
X181293761Y-92513086D01*
X181339983Y-92383231D01*
X181416666Y-92273261D01*
X181520494Y-92187796D01*
X181648151Y-92131456D01*
X181796321Y-92108860D01*
X181812242Y-92108634D01*
X181968264Y-92126531D01*
G36*
X181968264Y-92126531D02*
G01*
X182101473Y-92178861D01*
X182208869Y-92262647D01*
X182287452Y-92374912D01*
X182334225Y-92512680D01*
X182346723Y-92639129D01*
X182328324Y-92789353D01*
X182272673Y-92921158D01*
X182182189Y-93030901D01*
X182059290Y-93114942D01*
X182018158Y-93133891D01*
X181924087Y-93157925D01*
X181810234Y-93165170D01*
X181695538Y-93155945D01*
X181598941Y-93130567D01*
X181589992Y-93126693D01*
X181508652Y-93075494D01*
X181427704Y-93001322D01*
X181358642Y-92916832D01*
X181312961Y-92834681D01*
X181305967Y-92813971D01*
X181281317Y-92658206D01*
X181293761Y-92513086D01*
X181339983Y-92383231D01*
X181416666Y-92273261D01*
X181520494Y-92187796D01*
X181648151Y-92131456D01*
X181796321Y-92108860D01*
X181812242Y-92108634D01*
X181968264Y-92126531D01*
G37*
X204143662Y-136068023D02*
X204263836Y-136112395D01*
X204367629Y-136183057D01*
X204452047Y-136274932D01*
X204514094Y-136382945D01*
X204550776Y-136502019D01*
X204559098Y-136627077D01*
X204536064Y-136753043D01*
X204478680Y-136874841D01*
X204395759Y-136976143D01*
X204333146Y-137028267D01*
X204264702Y-137072701D01*
X204251186Y-137079685D01*
X204159479Y-137108594D01*
X204047458Y-137122236D01*
X203934544Y-137119678D01*
X203840161Y-137099984D01*
X203838858Y-137099506D01*
X203711075Y-137031239D01*
X203609254Y-136934655D01*
X203536200Y-136816823D01*
X203494716Y-136684812D01*
X203487606Y-136545690D01*
X203517673Y-136406526D01*
X203541735Y-136350419D01*
X203625099Y-136226508D01*
X203735439Y-136135223D01*
X203866152Y-136078456D01*
X204010103Y-136055018D01*
X204143662Y-136068023D01*
G36*
X204143662Y-136068023D02*
G01*
X204263836Y-136112395D01*
X204367629Y-136183057D01*
X204452047Y-136274932D01*
X204514094Y-136382945D01*
X204550776Y-136502019D01*
X204559098Y-136627077D01*
X204536064Y-136753043D01*
X204478680Y-136874841D01*
X204395759Y-136976143D01*
X204333146Y-137028267D01*
X204264702Y-137072701D01*
X204251186Y-137079685D01*
X204159479Y-137108594D01*
X204047458Y-137122236D01*
X203934544Y-137119678D01*
X203840161Y-137099984D01*
X203838858Y-137099506D01*
X203711075Y-137031239D01*
X203609254Y-136934655D01*
X203536200Y-136816823D01*
X203494716Y-136684812D01*
X203487606Y-136545690D01*
X203517673Y-136406526D01*
X203541735Y-136350419D01*
X203625099Y-136226508D01*
X203735439Y-136135223D01*
X203866152Y-136078456D01*
X204010103Y-136055018D01*
X204143662Y-136068023D01*
G37*
X246294987Y-112100207D02*
X246426814Y-112136805D01*
X246548416Y-112204464D01*
X246650080Y-112298055D01*
X246711171Y-112389410D01*
X246758202Y-112525163D01*
X246767326Y-112665540D01*
X246740816Y-112802683D01*
X246680940Y-112928735D01*
X246589970Y-113035838D01*
X246506814Y-113096620D01*
X246430588Y-113133352D01*
X246347503Y-113154204D01*
X246257213Y-113163218D01*
X246170821Y-113166059D01*
X246107906Y-113159896D01*
X246049970Y-113141205D01*
X245989721Y-113112271D01*
X245868592Y-113029445D01*
X245780107Y-112926868D01*
X245723253Y-112810467D01*
X245697019Y-112686168D01*
X245700393Y-112559898D01*
X245732361Y-112437585D01*
X245791912Y-112325155D01*
X245878033Y-112228534D01*
X245989712Y-112153650D01*
X246125937Y-112106429D01*
X246162652Y-112099799D01*
X246294987Y-112100207D01*
G36*
X246294987Y-112100207D02*
G01*
X246426814Y-112136805D01*
X246548416Y-112204464D01*
X246650080Y-112298055D01*
X246711171Y-112389410D01*
X246758202Y-112525163D01*
X246767326Y-112665540D01*
X246740816Y-112802683D01*
X246680940Y-112928735D01*
X246589970Y-113035838D01*
X246506814Y-113096620D01*
X246430588Y-113133352D01*
X246347503Y-113154204D01*
X246257213Y-113163218D01*
X246170821Y-113166059D01*
X246107906Y-113159896D01*
X246049970Y-113141205D01*
X245989721Y-113112271D01*
X245868592Y-113029445D01*
X245780107Y-112926868D01*
X245723253Y-112810467D01*
X245697019Y-112686168D01*
X245700393Y-112559898D01*
X245732361Y-112437585D01*
X245791912Y-112325155D01*
X245878033Y-112228534D01*
X245989712Y-112153650D01*
X246125937Y-112106429D01*
X246162652Y-112099799D01*
X246294987Y-112100207D01*
G37*
X259929968Y-153193345D02*
X260036846Y-153222684D01*
X260057671Y-153232471D01*
X260179465Y-153316711D01*
X260270300Y-153422396D01*
X260329912Y-153543062D01*
X260358036Y-153672248D01*
X260354408Y-153803488D01*
X260318764Y-153930319D01*
X260250839Y-154046278D01*
X260150368Y-154144901D01*
X260096467Y-154180737D01*
X259990155Y-154224151D01*
X259865147Y-154246562D01*
X259739124Y-154246334D01*
X259634191Y-154223516D01*
X259508771Y-154155240D01*
X259403981Y-154054974D01*
X259345837Y-153965854D01*
X259308893Y-153861655D01*
X259292114Y-153741755D01*
X259295932Y-153621901D01*
X259320780Y-153517839D01*
X259332795Y-153491296D01*
X259410326Y-153378716D01*
X259511815Y-153281775D01*
X259589159Y-153231434D01*
X259688956Y-153197682D01*
X259808282Y-153184998D01*
X259929968Y-153193345D01*
G36*
X259929968Y-153193345D02*
G01*
X260036846Y-153222684D01*
X260057671Y-153232471D01*
X260179465Y-153316711D01*
X260270300Y-153422396D01*
X260329912Y-153543062D01*
X260358036Y-153672248D01*
X260354408Y-153803488D01*
X260318764Y-153930319D01*
X260250839Y-154046278D01*
X260150368Y-154144901D01*
X260096467Y-154180737D01*
X259990155Y-154224151D01*
X259865147Y-154246562D01*
X259739124Y-154246334D01*
X259634191Y-154223516D01*
X259508771Y-154155240D01*
X259403981Y-154054974D01*
X259345837Y-153965854D01*
X259308893Y-153861655D01*
X259292114Y-153741755D01*
X259295932Y-153621901D01*
X259320780Y-153517839D01*
X259332795Y-153491296D01*
X259410326Y-153378716D01*
X259511815Y-153281775D01*
X259589159Y-153231434D01*
X259688956Y-153197682D01*
X259808282Y-153184998D01*
X259929968Y-153193345D01*
G37*
X273475794Y-61811850D02*
X273593166Y-61856037D01*
X273698190Y-61934759D01*
X273722293Y-61958815D01*
X273804814Y-62074423D01*
X273853190Y-62209124D01*
X273865611Y-62354691D01*
X273841183Y-62499885D01*
X273800220Y-62585725D01*
X273733010Y-62675466D01*
X273651784Y-62755362D01*
X273568776Y-62811668D01*
X273559978Y-62815869D01*
X273460099Y-62844707D01*
X273341126Y-62854780D01*
X273221658Y-62846078D01*
X273120291Y-62818592D01*
X273114659Y-62816104D01*
X272984768Y-62735577D01*
X272886694Y-62629466D01*
X272822934Y-62502723D01*
X272795985Y-62360299D01*
X272808118Y-62208233D01*
X272856517Y-62072263D01*
X272937653Y-61959292D01*
X273046465Y-61873263D01*
X273177890Y-61818116D01*
X273326866Y-61797790D01*
X273335413Y-61797761D01*
X273475794Y-61811850D01*
G36*
X273475794Y-61811850D02*
G01*
X273593166Y-61856037D01*
X273698190Y-61934759D01*
X273722293Y-61958815D01*
X273804814Y-62074423D01*
X273853190Y-62209124D01*
X273865611Y-62354691D01*
X273841183Y-62499885D01*
X273800220Y-62585725D01*
X273733010Y-62675466D01*
X273651784Y-62755362D01*
X273568776Y-62811668D01*
X273559978Y-62815869D01*
X273460099Y-62844707D01*
X273341126Y-62854780D01*
X273221658Y-62846078D01*
X273120291Y-62818592D01*
X273114659Y-62816104D01*
X272984768Y-62735577D01*
X272886694Y-62629466D01*
X272822934Y-62502723D01*
X272795985Y-62360299D01*
X272808118Y-62208233D01*
X272856517Y-62072263D01*
X272937653Y-61959292D01*
X273046465Y-61873263D01*
X273177890Y-61818116D01*
X273326866Y-61797790D01*
X273335413Y-61797761D01*
X273475794Y-61811850D01*
G37*
X298529236Y-51995670D02*
X298661777Y-52048863D01*
X298770850Y-52131765D01*
X298852603Y-52239670D01*
X298903186Y-52367868D01*
X298918748Y-52511654D01*
X298905866Y-52623359D01*
X298857558Y-52758469D01*
X298776365Y-52871259D01*
X298667659Y-52957538D01*
X298536812Y-53013113D01*
X298389194Y-53033792D01*
X298379950Y-53033831D01*
X298254371Y-53023530D01*
X298155411Y-52994960D01*
X298154826Y-52994693D01*
X298073486Y-52943494D01*
X297992537Y-52869322D01*
X297923475Y-52784832D01*
X297877794Y-52702681D01*
X297870800Y-52681971D01*
X297846350Y-52525656D01*
X297860795Y-52378322D01*
X297913166Y-52244609D01*
X297981807Y-52150468D01*
X298083776Y-52058434D01*
X298191836Y-52003006D01*
X298317964Y-51978926D01*
X298377076Y-51976893D01*
X298529236Y-51995670D01*
G36*
X298529236Y-51995670D02*
G01*
X298661777Y-52048863D01*
X298770850Y-52131765D01*
X298852603Y-52239670D01*
X298903186Y-52367868D01*
X298918748Y-52511654D01*
X298905866Y-52623359D01*
X298857558Y-52758469D01*
X298776365Y-52871259D01*
X298667659Y-52957538D01*
X298536812Y-53013113D01*
X298389194Y-53033792D01*
X298379950Y-53033831D01*
X298254371Y-53023530D01*
X298155411Y-52994960D01*
X298154826Y-52994693D01*
X298073486Y-52943494D01*
X297992537Y-52869322D01*
X297923475Y-52784832D01*
X297877794Y-52702681D01*
X297870800Y-52681971D01*
X297846350Y-52525656D01*
X297860795Y-52378322D01*
X297913166Y-52244609D01*
X297981807Y-52150468D01*
X298083776Y-52058434D01*
X298191836Y-52003006D01*
X298317964Y-51978926D01*
X298377076Y-51976893D01*
X298529236Y-51995670D01*
G37*
X102099390Y-92126921D02*
X102230110Y-92180014D01*
X102339529Y-92262581D01*
X102423111Y-92369493D01*
X102476321Y-92495624D01*
X102494621Y-92635847D01*
X102488494Y-92714940D01*
X102452365Y-92833951D01*
X102385177Y-92949722D01*
X102296647Y-93047645D01*
X102238220Y-93091205D01*
X102170621Y-93128059D01*
X102106561Y-93148704D01*
X102027195Y-93158263D01*
X101984220Y-93160221D01*
X101896579Y-93158949D01*
X101815684Y-93150689D01*
X101762810Y-93138391D01*
X101647321Y-93073862D01*
X101548839Y-92978570D01*
X101474212Y-92862311D01*
X101430290Y-92734880D01*
X101421449Y-92650169D01*
X101435709Y-92508640D01*
X101482016Y-92387302D01*
X101556440Y-92283590D01*
X101654645Y-92192141D01*
X101761406Y-92136218D01*
X101887564Y-92111019D01*
X101951905Y-92108428D01*
X102099390Y-92126921D01*
G36*
X102099390Y-92126921D02*
G01*
X102230110Y-92180014D01*
X102339529Y-92262581D01*
X102423111Y-92369493D01*
X102476321Y-92495624D01*
X102494621Y-92635847D01*
X102488494Y-92714940D01*
X102452365Y-92833951D01*
X102385177Y-92949722D01*
X102296647Y-93047645D01*
X102238220Y-93091205D01*
X102170621Y-93128059D01*
X102106561Y-93148704D01*
X102027195Y-93158263D01*
X101984220Y-93160221D01*
X101896579Y-93158949D01*
X101815684Y-93150689D01*
X101762810Y-93138391D01*
X101647321Y-93073862D01*
X101548839Y-92978570D01*
X101474212Y-92862311D01*
X101430290Y-92734880D01*
X101421449Y-92650169D01*
X101435709Y-92508640D01*
X101482016Y-92387302D01*
X101556440Y-92283590D01*
X101654645Y-92192141D01*
X101761406Y-92136218D01*
X101887564Y-92111019D01*
X101951905Y-92108428D01*
X102099390Y-92126921D01*
G37*
X102151779Y-154348314D02*
X102248377Y-154373692D01*
X102257326Y-154377566D01*
X102338665Y-154428765D01*
X102419614Y-154502937D01*
X102488676Y-154587427D01*
X102534357Y-154669578D01*
X102541351Y-154690288D01*
X102565989Y-154845959D01*
X102553578Y-154991016D01*
X102507440Y-155120832D01*
X102430899Y-155230780D01*
X102327277Y-155316233D01*
X102199896Y-155372563D01*
X102052080Y-155395142D01*
X102035076Y-155395366D01*
X101895382Y-155382273D01*
X101802242Y-155352184D01*
X101676145Y-155274054D01*
X101582991Y-155169829D01*
X101523944Y-155041386D01*
X101500169Y-154890601D01*
X101499716Y-154865130D01*
X101519040Y-154714140D01*
X101575483Y-154581925D01*
X101666637Y-154472101D01*
X101790094Y-154388283D01*
X101829160Y-154370368D01*
X101923231Y-154346334D01*
X102037084Y-154339089D01*
X102151779Y-154348314D01*
G36*
X102151779Y-154348314D02*
G01*
X102248377Y-154373692D01*
X102257326Y-154377566D01*
X102338665Y-154428765D01*
X102419614Y-154502937D01*
X102488676Y-154587427D01*
X102534357Y-154669578D01*
X102541351Y-154690288D01*
X102565989Y-154845959D01*
X102553578Y-154991016D01*
X102507440Y-155120832D01*
X102430899Y-155230780D01*
X102327277Y-155316233D01*
X102199896Y-155372563D01*
X102052080Y-155395142D01*
X102035076Y-155395366D01*
X101895382Y-155382273D01*
X101802242Y-155352184D01*
X101676145Y-155274054D01*
X101582991Y-155169829D01*
X101523944Y-155041386D01*
X101500169Y-154890601D01*
X101499716Y-154865130D01*
X101519040Y-154714140D01*
X101575483Y-154581925D01*
X101666637Y-154472101D01*
X101790094Y-154388283D01*
X101829160Y-154370368D01*
X101923231Y-154346334D01*
X102037084Y-154339089D01*
X102151779Y-154348314D01*
G37*
X111677050Y-92140652D02*
X111805970Y-92179948D01*
X111923592Y-92253796D01*
X111982769Y-92311551D01*
X112056460Y-92413299D01*
X112097986Y-92519876D01*
X112112799Y-92646240D01*
X112113055Y-92668880D01*
X112108058Y-92753431D01*
X112095166Y-92832452D01*
X112082630Y-92874308D01*
X112023564Y-92974822D01*
X111938516Y-93069112D01*
X111842620Y-93140886D01*
X111827285Y-93149189D01*
X111725275Y-93184243D01*
X111605068Y-93200287D01*
X111485743Y-93196111D01*
X111400538Y-93176238D01*
X111273123Y-93108099D01*
X111171858Y-93011694D01*
X111099502Y-92894040D01*
X111058817Y-92762157D01*
X111052562Y-92623064D01*
X111083498Y-92483778D01*
X111106902Y-92429586D01*
X111187771Y-92310208D01*
X111292191Y-92220687D01*
X111413190Y-92161961D01*
X111543800Y-92134970D01*
X111677050Y-92140652D01*
G36*
X111677050Y-92140652D02*
G01*
X111805970Y-92179948D01*
X111923592Y-92253796D01*
X111982769Y-92311551D01*
X112056460Y-92413299D01*
X112097986Y-92519876D01*
X112112799Y-92646240D01*
X112113055Y-92668880D01*
X112108058Y-92753431D01*
X112095166Y-92832452D01*
X112082630Y-92874308D01*
X112023564Y-92974822D01*
X111938516Y-93069112D01*
X111842620Y-93140886D01*
X111827285Y-93149189D01*
X111725275Y-93184243D01*
X111605068Y-93200287D01*
X111485743Y-93196111D01*
X111400538Y-93176238D01*
X111273123Y-93108099D01*
X111171858Y-93011694D01*
X111099502Y-92894040D01*
X111058817Y-92762157D01*
X111052562Y-92623064D01*
X111083498Y-92483778D01*
X111106902Y-92429586D01*
X111187771Y-92310208D01*
X111292191Y-92220687D01*
X111413190Y-92161961D01*
X111543800Y-92134970D01*
X111677050Y-92140652D01*
G37*
X141780479Y-91731962D02*
X141858221Y-91750599D01*
X141936730Y-91786076D01*
X142054152Y-91868608D01*
X142140424Y-91972774D01*
X142195813Y-92091999D01*
X142220587Y-92219710D01*
X142215014Y-92349333D01*
X142179360Y-92474295D01*
X142113893Y-92588021D01*
X142018880Y-92683940D01*
X141897352Y-92754330D01*
X141808755Y-92776812D01*
X141698680Y-92784458D01*
X141585163Y-92777629D01*
X141486238Y-92756686D01*
X141457173Y-92745535D01*
X141374721Y-92692698D01*
X141292694Y-92614743D01*
X141223323Y-92525417D01*
X141178841Y-92438465D01*
X141175968Y-92429551D01*
X141150478Y-92277657D01*
X141164942Y-92131568D01*
X141218255Y-91996720D01*
X141282040Y-91907400D01*
X141387222Y-91811109D01*
X141503414Y-91752685D01*
X141639271Y-91728247D01*
X141684508Y-91726963D01*
X141780479Y-91731962D01*
G36*
X141780479Y-91731962D02*
G01*
X141858221Y-91750599D01*
X141936730Y-91786076D01*
X142054152Y-91868608D01*
X142140424Y-91972774D01*
X142195813Y-92091999D01*
X142220587Y-92219710D01*
X142215014Y-92349333D01*
X142179360Y-92474295D01*
X142113893Y-92588021D01*
X142018880Y-92683940D01*
X141897352Y-92754330D01*
X141808755Y-92776812D01*
X141698680Y-92784458D01*
X141585163Y-92777629D01*
X141486238Y-92756686D01*
X141457173Y-92745535D01*
X141374721Y-92692698D01*
X141292694Y-92614743D01*
X141223323Y-92525417D01*
X141178841Y-92438465D01*
X141175968Y-92429551D01*
X141150478Y-92277657D01*
X141164942Y-92131568D01*
X141218255Y-91996720D01*
X141282040Y-91907400D01*
X141387222Y-91811109D01*
X141503414Y-91752685D01*
X141639271Y-91728247D01*
X141684508Y-91726963D01*
X141780479Y-91731962D01*
G37*
X151844172Y-102008901D02*
X151950174Y-102033959D01*
X151976916Y-102045392D01*
X152080833Y-102114178D01*
X152171608Y-102207271D01*
X152237015Y-102311251D01*
X152251266Y-102346590D01*
X152281465Y-102492896D01*
X152273902Y-102632019D01*
X152233058Y-102759544D01*
X152163416Y-102871052D01*
X152069456Y-102962127D01*
X151955660Y-103028351D01*
X151826509Y-103065309D01*
X151686485Y-103068582D01*
X151550320Y-103037484D01*
X151454913Y-102986498D01*
X151362055Y-102907261D01*
X151285282Y-102812407D01*
X151257838Y-102764470D01*
X151226878Y-102666069D01*
X151215363Y-102548570D01*
X151223138Y-102429218D01*
X151250053Y-102325260D01*
X151261951Y-102299435D01*
X151353405Y-102170297D01*
X151474989Y-102070629D01*
X151511881Y-102049505D01*
X151607780Y-102016827D01*
X151724292Y-102003242D01*
X151844172Y-102008901D01*
G36*
X151844172Y-102008901D02*
G01*
X151950174Y-102033959D01*
X151976916Y-102045392D01*
X152080833Y-102114178D01*
X152171608Y-102207271D01*
X152237015Y-102311251D01*
X152251266Y-102346590D01*
X152281465Y-102492896D01*
X152273902Y-102632019D01*
X152233058Y-102759544D01*
X152163416Y-102871052D01*
X152069456Y-102962127D01*
X151955660Y-103028351D01*
X151826509Y-103065309D01*
X151686485Y-103068582D01*
X151550320Y-103037484D01*
X151454913Y-102986498D01*
X151362055Y-102907261D01*
X151285282Y-102812407D01*
X151257838Y-102764470D01*
X151226878Y-102666069D01*
X151215363Y-102548570D01*
X151223138Y-102429218D01*
X151250053Y-102325260D01*
X151261951Y-102299435D01*
X151353405Y-102170297D01*
X151474989Y-102070629D01*
X151511881Y-102049505D01*
X151607780Y-102016827D01*
X151724292Y-102003242D01*
X151844172Y-102008901D01*
G37*
X166992128Y-117129347D02*
X167104964Y-117178172D01*
X167201034Y-117260330D01*
X167248570Y-117319434D01*
X167316660Y-117445369D01*
X167347474Y-117576993D01*
X167344038Y-117708378D01*
X167309377Y-117833598D01*
X167246514Y-117946725D01*
X167158474Y-118041831D01*
X167048282Y-118112990D01*
X166918962Y-118154274D01*
X166818533Y-118162221D01*
X166736511Y-118158073D01*
X166661869Y-118149392D01*
X166624317Y-118141602D01*
X166544222Y-118102307D01*
X166460182Y-118035097D01*
X166384125Y-117951302D01*
X166327979Y-117862252D01*
X166326152Y-117858390D01*
X166281552Y-117715909D01*
X166278124Y-117572965D01*
X166315070Y-117434629D01*
X166391590Y-117305972D01*
X166418079Y-117274499D01*
X166509237Y-117189571D01*
X166606106Y-117136449D01*
X166719418Y-117111052D01*
X166853310Y-117108949D01*
X166992128Y-117129347D01*
G36*
X166992128Y-117129347D02*
G01*
X167104964Y-117178172D01*
X167201034Y-117260330D01*
X167248570Y-117319434D01*
X167316660Y-117445369D01*
X167347474Y-117576993D01*
X167344038Y-117708378D01*
X167309377Y-117833598D01*
X167246514Y-117946725D01*
X167158474Y-118041831D01*
X167048282Y-118112990D01*
X166918962Y-118154274D01*
X166818533Y-118162221D01*
X166736511Y-118158073D01*
X166661869Y-118149392D01*
X166624317Y-118141602D01*
X166544222Y-118102307D01*
X166460182Y-118035097D01*
X166384125Y-117951302D01*
X166327979Y-117862252D01*
X166326152Y-117858390D01*
X166281552Y-117715909D01*
X166278124Y-117572965D01*
X166315070Y-117434629D01*
X166391590Y-117305972D01*
X166418079Y-117274499D01*
X166509237Y-117189571D01*
X166606106Y-117136449D01*
X166719418Y-117111052D01*
X166853310Y-117108949D01*
X166992128Y-117129347D01*
G37*
X259983498Y-69830547D02*
X260123483Y-69873288D01*
X260243759Y-69952181D01*
X260340857Y-70065498D01*
X260355035Y-70088445D01*
X260387490Y-70150245D01*
X260405643Y-70207771D01*
X260413372Y-70277936D01*
X260414659Y-70348630D01*
X260398372Y-70504601D01*
X260348749Y-70635026D01*
X260264646Y-70741849D01*
X260144918Y-70827017D01*
X260128030Y-70835911D01*
X260039348Y-70867468D01*
X259932324Y-70886229D01*
X259827021Y-70889782D01*
X259758492Y-70880317D01*
X259621336Y-70823136D01*
X259503709Y-70728406D01*
X259501570Y-70726144D01*
X259415376Y-70607709D01*
X259365508Y-70479792D01*
X259349790Y-70348407D01*
X259366047Y-70219567D01*
X259412105Y-70099287D01*
X259485786Y-69993581D01*
X259584916Y-69908463D01*
X259707320Y-69849948D01*
X259827276Y-69825686D01*
X259983498Y-69830547D01*
G36*
X259983498Y-69830547D02*
G01*
X260123483Y-69873288D01*
X260243759Y-69952181D01*
X260340857Y-70065498D01*
X260355035Y-70088445D01*
X260387490Y-70150245D01*
X260405643Y-70207771D01*
X260413372Y-70277936D01*
X260414659Y-70348630D01*
X260398372Y-70504601D01*
X260348749Y-70635026D01*
X260264646Y-70741849D01*
X260144918Y-70827017D01*
X260128030Y-70835911D01*
X260039348Y-70867468D01*
X259932324Y-70886229D01*
X259827021Y-70889782D01*
X259758492Y-70880317D01*
X259621336Y-70823136D01*
X259503709Y-70728406D01*
X259501570Y-70726144D01*
X259415376Y-70607709D01*
X259365508Y-70479792D01*
X259349790Y-70348407D01*
X259366047Y-70219567D01*
X259412105Y-70099287D01*
X259485786Y-69993581D01*
X259584916Y-69908463D01*
X259707320Y-69849948D01*
X259827276Y-69825686D01*
X259983498Y-69830547D01*
G37*
X297681572Y-61017528D02*
X297776188Y-61062704D01*
X297870014Y-61136047D01*
X297949084Y-61225493D01*
X297980440Y-61275695D01*
X298014633Y-61374803D01*
X298029039Y-61494340D01*
X298023641Y-61617505D01*
X297998419Y-61727501D01*
X297980957Y-61767550D01*
X297914755Y-61861887D01*
X297825557Y-61948286D01*
X297729074Y-62012131D01*
X297707253Y-62022194D01*
X297635340Y-62040191D01*
X297539660Y-62048736D01*
X297437059Y-62047864D01*
X297344384Y-62037613D01*
X297285347Y-62021273D01*
X297162220Y-61946005D01*
X297066314Y-61843145D01*
X297000525Y-61719747D01*
X296967747Y-61582864D01*
X296970876Y-61439550D01*
X297000411Y-61327024D01*
X297069127Y-61200843D01*
X297166450Y-61101798D01*
X297286413Y-61032601D01*
X297423046Y-60995965D01*
X297570381Y-60994600D01*
X297681572Y-61017528D01*
G36*
X297681572Y-61017528D02*
G01*
X297776188Y-61062704D01*
X297870014Y-61136047D01*
X297949084Y-61225493D01*
X297980440Y-61275695D01*
X298014633Y-61374803D01*
X298029039Y-61494340D01*
X298023641Y-61617505D01*
X297998419Y-61727501D01*
X297980957Y-61767550D01*
X297914755Y-61861887D01*
X297825557Y-61948286D01*
X297729074Y-62012131D01*
X297707253Y-62022194D01*
X297635340Y-62040191D01*
X297539660Y-62048736D01*
X297437059Y-62047864D01*
X297344384Y-62037613D01*
X297285347Y-62021273D01*
X297162220Y-61946005D01*
X297066314Y-61843145D01*
X297000525Y-61719747D01*
X296967747Y-61582864D01*
X296970876Y-61439550D01*
X297000411Y-61327024D01*
X297069127Y-61200843D01*
X297166450Y-61101798D01*
X297286413Y-61032601D01*
X297423046Y-60995965D01*
X297570381Y-60994600D01*
X297681572Y-61017528D01*
G37*
X298547150Y-43196585D02*
X298661571Y-43238476D01*
X298763023Y-43313538D01*
X298792747Y-43343400D01*
X298878925Y-43463011D01*
X298928734Y-43594545D01*
X298943119Y-43731053D01*
X298923023Y-43865587D01*
X298869390Y-43991200D01*
X298783163Y-44100942D01*
X298679096Y-44180035D01*
X298578338Y-44220821D01*
X298457698Y-44242665D01*
X298335125Y-44243944D01*
X298228567Y-44223034D01*
X298223574Y-44221226D01*
X298091292Y-44150576D01*
X297986682Y-44050186D01*
X297913762Y-43925309D01*
X297876553Y-43781201D01*
X297874912Y-43765507D01*
X297879984Y-43611765D01*
X297923275Y-43474511D01*
X298003123Y-43356908D01*
X298117864Y-43262118D01*
X298149442Y-43243642D01*
X298221635Y-43208679D01*
X298287783Y-43190230D01*
X298367859Y-43183651D01*
X298408826Y-43183304D01*
X298547150Y-43196585D01*
G36*
X298547150Y-43196585D02*
G01*
X298661571Y-43238476D01*
X298763023Y-43313538D01*
X298792747Y-43343400D01*
X298878925Y-43463011D01*
X298928734Y-43594545D01*
X298943119Y-43731053D01*
X298923023Y-43865587D01*
X298869390Y-43991200D01*
X298783163Y-44100942D01*
X298679096Y-44180035D01*
X298578338Y-44220821D01*
X298457698Y-44242665D01*
X298335125Y-44243944D01*
X298228567Y-44223034D01*
X298223574Y-44221226D01*
X298091292Y-44150576D01*
X297986682Y-44050186D01*
X297913762Y-43925309D01*
X297876553Y-43781201D01*
X297874912Y-43765507D01*
X297879984Y-43611765D01*
X297923275Y-43474511D01*
X298003123Y-43356908D01*
X298117864Y-43262118D01*
X298149442Y-43243642D01*
X298221635Y-43208679D01*
X298287783Y-43190230D01*
X298367859Y-43183651D01*
X298408826Y-43183304D01*
X298547150Y-43196585D01*
G37*
X99203352Y-46443492D02*
X99332516Y-46491969D01*
X99449517Y-46576631D01*
X99465793Y-46592715D01*
X99552497Y-46709666D01*
X99602827Y-46839233D01*
X99617946Y-46974469D01*
X99599023Y-47108425D01*
X99547221Y-47234154D01*
X99463707Y-47344707D01*
X99349646Y-47433136D01*
X99322294Y-47448055D01*
X99235421Y-47478719D01*
X99129596Y-47497033D01*
X99025039Y-47500623D01*
X98955326Y-47491150D01*
X98818169Y-47433969D01*
X98700542Y-47339239D01*
X98698404Y-47336977D01*
X98621314Y-47241360D01*
X98575968Y-47145998D01*
X98556143Y-47035101D01*
X98553860Y-46970046D01*
X98556914Y-46879183D01*
X98569802Y-46810470D01*
X98597201Y-46744043D01*
X98614924Y-46710663D01*
X98702116Y-46592455D01*
X98811407Y-46505684D01*
X98935945Y-46451300D01*
X99068878Y-46430253D01*
X99203352Y-46443492D01*
G36*
X99203352Y-46443492D02*
G01*
X99332516Y-46491969D01*
X99449517Y-46576631D01*
X99465793Y-46592715D01*
X99552497Y-46709666D01*
X99602827Y-46839233D01*
X99617946Y-46974469D01*
X99599023Y-47108425D01*
X99547221Y-47234154D01*
X99463707Y-47344707D01*
X99349646Y-47433136D01*
X99322294Y-47448055D01*
X99235421Y-47478719D01*
X99129596Y-47497033D01*
X99025039Y-47500623D01*
X98955326Y-47491150D01*
X98818169Y-47433969D01*
X98700542Y-47339239D01*
X98698404Y-47336977D01*
X98621314Y-47241360D01*
X98575968Y-47145998D01*
X98556143Y-47035101D01*
X98553860Y-46970046D01*
X98556914Y-46879183D01*
X98569802Y-46810470D01*
X98597201Y-46744043D01*
X98614924Y-46710663D01*
X98702116Y-46592455D01*
X98811407Y-46505684D01*
X98935945Y-46451300D01*
X99068878Y-46430253D01*
X99203352Y-46443492D01*
G37*
X100191150Y-45375103D02*
X100290147Y-45394775D01*
X100306920Y-45401065D01*
X100402844Y-45457565D01*
X100495140Y-45540020D01*
X100568096Y-45633815D01*
X100580624Y-45655709D01*
X100614093Y-45752755D01*
X100628518Y-45870385D01*
X100623872Y-45991903D01*
X100600134Y-46100616D01*
X100581315Y-46144546D01*
X100495550Y-46263194D01*
X100384806Y-46352181D01*
X100256407Y-46409165D01*
X100117676Y-46431806D01*
X99975934Y-46417762D01*
X99859032Y-46375470D01*
X99735218Y-46291979D01*
X99643366Y-46181985D01*
X99589718Y-46061329D01*
X99565546Y-45961990D01*
X99561179Y-45877987D01*
X99576626Y-45787744D01*
X99589849Y-45740005D01*
X99645071Y-45619671D01*
X99730624Y-45512782D01*
X99835789Y-45431938D01*
X99864683Y-45416899D01*
X99960592Y-45386804D01*
X100075356Y-45372659D01*
X100191150Y-45375103D01*
G36*
X100191150Y-45375103D02*
G01*
X100290147Y-45394775D01*
X100306920Y-45401065D01*
X100402844Y-45457565D01*
X100495140Y-45540020D01*
X100568096Y-45633815D01*
X100580624Y-45655709D01*
X100614093Y-45752755D01*
X100628518Y-45870385D01*
X100623872Y-45991903D01*
X100600134Y-46100616D01*
X100581315Y-46144546D01*
X100495550Y-46263194D01*
X100384806Y-46352181D01*
X100256407Y-46409165D01*
X100117676Y-46431806D01*
X99975934Y-46417762D01*
X99859032Y-46375470D01*
X99735218Y-46291979D01*
X99643366Y-46181985D01*
X99589718Y-46061329D01*
X99565546Y-45961990D01*
X99561179Y-45877987D01*
X99576626Y-45787744D01*
X99589849Y-45740005D01*
X99645071Y-45619671D01*
X99730624Y-45512782D01*
X99835789Y-45431938D01*
X99864683Y-45416899D01*
X99960592Y-45386804D01*
X100075356Y-45372659D01*
X100191150Y-45375103D01*
G37*
X86479291Y-59304718D02*
X86594486Y-59347526D01*
X86696287Y-59423389D01*
X86723914Y-59451233D01*
X86800272Y-59546324D01*
X86845152Y-59641753D01*
X86864591Y-59753047D01*
X86866659Y-59818213D01*
X86847515Y-59971008D01*
X86791658Y-60104762D01*
X86701219Y-60216014D01*
X86578335Y-60301302D01*
X86564519Y-60308185D01*
X86468517Y-60338079D01*
X86352263Y-60350417D01*
X86234313Y-60344562D01*
X86140719Y-60322732D01*
X86071339Y-60287255D01*
X85996681Y-60234069D01*
X85958817Y-60200151D01*
X85870506Y-60084466D01*
X85818377Y-59955567D01*
X85801435Y-59820491D01*
X85818687Y-59686277D01*
X85869140Y-59559961D01*
X85951798Y-59448580D01*
X86065670Y-59359173D01*
X86078626Y-59351772D01*
X86150001Y-59316295D01*
X86213445Y-59297502D01*
X86288724Y-59290756D01*
X86339992Y-59290479D01*
X86479291Y-59304718D01*
G36*
X86479291Y-59304718D02*
G01*
X86594486Y-59347526D01*
X86696287Y-59423389D01*
X86723914Y-59451233D01*
X86800272Y-59546324D01*
X86845152Y-59641753D01*
X86864591Y-59753047D01*
X86866659Y-59818213D01*
X86847515Y-59971008D01*
X86791658Y-60104762D01*
X86701219Y-60216014D01*
X86578335Y-60301302D01*
X86564519Y-60308185D01*
X86468517Y-60338079D01*
X86352263Y-60350417D01*
X86234313Y-60344562D01*
X86140719Y-60322732D01*
X86071339Y-60287255D01*
X85996681Y-60234069D01*
X85958817Y-60200151D01*
X85870506Y-60084466D01*
X85818377Y-59955567D01*
X85801435Y-59820491D01*
X85818687Y-59686277D01*
X85869140Y-59559961D01*
X85951798Y-59448580D01*
X86065670Y-59359173D01*
X86078626Y-59351772D01*
X86150001Y-59316295D01*
X86213445Y-59297502D01*
X86288724Y-59290756D01*
X86339992Y-59290479D01*
X86479291Y-59304718D01*
G37*
X191798674Y-136064174D02*
X191867778Y-136077410D01*
X191935086Y-136105355D01*
X191969025Y-136123391D01*
X192082916Y-136207919D01*
X192166254Y-136314171D01*
X192219077Y-136435319D01*
X192241427Y-136564536D01*
X192233341Y-136694994D01*
X192194861Y-136819864D01*
X192126024Y-136932319D01*
X192026871Y-137025531D01*
X191963586Y-137064006D01*
X191838502Y-137108087D01*
X191699527Y-137123933D01*
X191564041Y-137110389D01*
X191508386Y-137094232D01*
X191439006Y-137058755D01*
X191364348Y-137005569D01*
X191326483Y-136971651D01*
X191238589Y-136856333D01*
X191186714Y-136727592D01*
X191169852Y-136592535D01*
X191187001Y-136458269D01*
X191237157Y-136331901D01*
X191319316Y-136220539D01*
X191432473Y-136131289D01*
X191446293Y-136123391D01*
X191519124Y-136087516D01*
X191584969Y-136068451D01*
X191663946Y-136061383D01*
X191707659Y-136060832D01*
X191798674Y-136064174D01*
G36*
X191798674Y-136064174D02*
G01*
X191867778Y-136077410D01*
X191935086Y-136105355D01*
X191969025Y-136123391D01*
X192082916Y-136207919D01*
X192166254Y-136314171D01*
X192219077Y-136435319D01*
X192241427Y-136564536D01*
X192233341Y-136694994D01*
X192194861Y-136819864D01*
X192126024Y-136932319D01*
X192026871Y-137025531D01*
X191963586Y-137064006D01*
X191838502Y-137108087D01*
X191699527Y-137123933D01*
X191564041Y-137110389D01*
X191508386Y-137094232D01*
X191439006Y-137058755D01*
X191364348Y-137005569D01*
X191326483Y-136971651D01*
X191238589Y-136856333D01*
X191186714Y-136727592D01*
X191169852Y-136592535D01*
X191187001Y-136458269D01*
X191237157Y-136331901D01*
X191319316Y-136220539D01*
X191432473Y-136131289D01*
X191446293Y-136123391D01*
X191519124Y-136087516D01*
X191584969Y-136068451D01*
X191663946Y-136061383D01*
X191707659Y-136060832D01*
X191798674Y-136064174D01*
G37*
X142726479Y-90825740D02*
X142828120Y-90856222D01*
X142921236Y-90913713D01*
X142958320Y-90944436D01*
X143045163Y-91037024D01*
X143099233Y-91138074D01*
X143125177Y-91258510D01*
X143129178Y-91345963D01*
X143113192Y-91499327D01*
X143064292Y-91626653D01*
X142981062Y-91730185D01*
X142862088Y-91812166D01*
X142823242Y-91831084D01*
X142720179Y-91861412D01*
X142598720Y-91872942D01*
X142478746Y-91864962D01*
X142402810Y-91846149D01*
X142308073Y-91795446D01*
X142215464Y-91718059D01*
X142140187Y-91627568D01*
X142119627Y-91593212D01*
X142092104Y-91528394D01*
X142077523Y-91455585D01*
X142072847Y-91358748D01*
X142072807Y-91345963D01*
X142083906Y-91208379D01*
X142120302Y-91096830D01*
X142186642Y-91000391D01*
X142243664Y-90944436D01*
X142337597Y-90875002D01*
X142434115Y-90834700D01*
X142548540Y-90818056D01*
X142600992Y-90816796D01*
X142726479Y-90825740D01*
G36*
X142726479Y-90825740D02*
G01*
X142828120Y-90856222D01*
X142921236Y-90913713D01*
X142958320Y-90944436D01*
X143045163Y-91037024D01*
X143099233Y-91138074D01*
X143125177Y-91258510D01*
X143129178Y-91345963D01*
X143113192Y-91499327D01*
X143064292Y-91626653D01*
X142981062Y-91730185D01*
X142862088Y-91812166D01*
X142823242Y-91831084D01*
X142720179Y-91861412D01*
X142598720Y-91872942D01*
X142478746Y-91864962D01*
X142402810Y-91846149D01*
X142308073Y-91795446D01*
X142215464Y-91718059D01*
X142140187Y-91627568D01*
X142119627Y-91593212D01*
X142092104Y-91528394D01*
X142077523Y-91455585D01*
X142072847Y-91358748D01*
X142072807Y-91345963D01*
X142083906Y-91208379D01*
X142120302Y-91096830D01*
X142186642Y-91000391D01*
X142243664Y-90944436D01*
X142337597Y-90875002D01*
X142434115Y-90834700D01*
X142548540Y-90818056D01*
X142600992Y-90816796D01*
X142726479Y-90825740D01*
G37*
X257641826Y-119499126D02*
X257753375Y-119535522D01*
X257849814Y-119601862D01*
X257905769Y-119658885D01*
X257975203Y-119752818D01*
X258015505Y-119849336D01*
X258032149Y-119963760D01*
X258033409Y-120016213D01*
X258028886Y-120101196D01*
X258017159Y-120179672D01*
X258004307Y-120224807D01*
X257947381Y-120321372D01*
X257864723Y-120413409D01*
X257771333Y-120484873D01*
X257750285Y-120496522D01*
X257670637Y-120524805D01*
X257570985Y-120543333D01*
X257468835Y-120550291D01*
X257381695Y-120543860D01*
X257355938Y-120537455D01*
X257229084Y-120477920D01*
X257120657Y-120392138D01*
X257039182Y-120288202D01*
X256999641Y-120199126D01*
X256980478Y-120097398D01*
X256976506Y-119983851D01*
X256987387Y-119876895D01*
X257006780Y-119807919D01*
X257069793Y-119700900D01*
X257160024Y-119603560D01*
X257258821Y-119533915D01*
X257323508Y-119506765D01*
X257397540Y-119492454D01*
X257496633Y-119488042D01*
X257504242Y-119488027D01*
X257641826Y-119499126D01*
G36*
X257641826Y-119499126D02*
G01*
X257753375Y-119535522D01*
X257849814Y-119601862D01*
X257905769Y-119658885D01*
X257975203Y-119752818D01*
X258015505Y-119849336D01*
X258032149Y-119963760D01*
X258033409Y-120016213D01*
X258028886Y-120101196D01*
X258017159Y-120179672D01*
X258004307Y-120224807D01*
X257947381Y-120321372D01*
X257864723Y-120413409D01*
X257771333Y-120484873D01*
X257750285Y-120496522D01*
X257670637Y-120524805D01*
X257570985Y-120543333D01*
X257468835Y-120550291D01*
X257381695Y-120543860D01*
X257355938Y-120537455D01*
X257229084Y-120477920D01*
X257120657Y-120392138D01*
X257039182Y-120288202D01*
X256999641Y-120199126D01*
X256980478Y-120097398D01*
X256976506Y-119983851D01*
X256987387Y-119876895D01*
X257006780Y-119807919D01*
X257069793Y-119700900D01*
X257160024Y-119603560D01*
X257258821Y-119533915D01*
X257323508Y-119506765D01*
X257397540Y-119492454D01*
X257496633Y-119488042D01*
X257504242Y-119488027D01*
X257641826Y-119499126D01*
G37*
X253554389Y-93072416D02*
X253619108Y-93078614D01*
X253669606Y-93092776D01*
X253719921Y-93118037D01*
X253748259Y-93135106D01*
X253848463Y-93217050D01*
X253915933Y-93302779D01*
X253947664Y-93358021D01*
X253966785Y-93406678D01*
X253976431Y-93462789D01*
X253979737Y-93540393D01*
X253979992Y-93589630D01*
X253978623Y-93682610D01*
X253972425Y-93747329D01*
X253958263Y-93797827D01*
X253933001Y-93848141D01*
X253915933Y-93876480D01*
X253828088Y-93986379D01*
X253720237Y-94061351D01*
X253588283Y-94103661D01*
X253484237Y-94114866D01*
X253393491Y-94116338D01*
X253327529Y-94109647D01*
X253269104Y-94091682D01*
X253214424Y-94066207D01*
X253091942Y-93983377D01*
X253004296Y-93876610D01*
X252951777Y-93746434D01*
X252934673Y-93593380D01*
X252935687Y-93556776D01*
X252960192Y-93406847D01*
X253018081Y-93282232D01*
X253110667Y-93180617D01*
X253174558Y-93135106D01*
X253229800Y-93103374D01*
X253278457Y-93084253D01*
X253334568Y-93074607D01*
X253412172Y-93071301D01*
X253461409Y-93071046D01*
X253554389Y-93072416D01*
G36*
X253554389Y-93072416D02*
G01*
X253619108Y-93078614D01*
X253669606Y-93092776D01*
X253719921Y-93118037D01*
X253748259Y-93135106D01*
X253848463Y-93217050D01*
X253915933Y-93302779D01*
X253947664Y-93358021D01*
X253966785Y-93406678D01*
X253976431Y-93462789D01*
X253979737Y-93540393D01*
X253979992Y-93589630D01*
X253978623Y-93682610D01*
X253972425Y-93747329D01*
X253958263Y-93797827D01*
X253933001Y-93848141D01*
X253915933Y-93876480D01*
X253828088Y-93986379D01*
X253720237Y-94061351D01*
X253588283Y-94103661D01*
X253484237Y-94114866D01*
X253393491Y-94116338D01*
X253327529Y-94109647D01*
X253269104Y-94091682D01*
X253214424Y-94066207D01*
X253091942Y-93983377D01*
X253004296Y-93876610D01*
X252951777Y-93746434D01*
X252934673Y-93593380D01*
X252935687Y-93556776D01*
X252960192Y-93406847D01*
X253018081Y-93282232D01*
X253110667Y-93180617D01*
X253174558Y-93135106D01*
X253229800Y-93103374D01*
X253278457Y-93084253D01*
X253334568Y-93074607D01*
X253412172Y-93071301D01*
X253461409Y-93071046D01*
X253554389Y-93072416D01*
G37*
X131189889Y-84563416D02*
X131254608Y-84569614D01*
X131305106Y-84583776D01*
X131355421Y-84609037D01*
X131383759Y-84626106D01*
X131483963Y-84708050D01*
X131551433Y-84793779D01*
X131583164Y-84849021D01*
X131602285Y-84897678D01*
X131611931Y-84953789D01*
X131615237Y-85031393D01*
X131615492Y-85080630D01*
X131614123Y-85173610D01*
X131607925Y-85238329D01*
X131593763Y-85288827D01*
X131568501Y-85339141D01*
X131551433Y-85367480D01*
X131469494Y-85467679D01*
X131383760Y-85535153D01*
X131319714Y-85570531D01*
X131259333Y-85591154D01*
X131185421Y-85601579D01*
X131119737Y-85605130D01*
X131017492Y-85605162D01*
X130941510Y-85594952D01*
X130876505Y-85572368D01*
X130872948Y-85570726D01*
X130746919Y-85490551D01*
X130653375Y-85384256D01*
X130593961Y-85254724D01*
X130570324Y-85104835D01*
X130571118Y-85042173D01*
X130597187Y-84892786D01*
X130657575Y-84767886D01*
X130753031Y-84666171D01*
X130810058Y-84626106D01*
X130865300Y-84594374D01*
X130913957Y-84575253D01*
X130970068Y-84565607D01*
X131047672Y-84562301D01*
X131096909Y-84562046D01*
X131189889Y-84563416D01*
G36*
X131189889Y-84563416D02*
G01*
X131254608Y-84569614D01*
X131305106Y-84583776D01*
X131355421Y-84609037D01*
X131383759Y-84626106D01*
X131483963Y-84708050D01*
X131551433Y-84793779D01*
X131583164Y-84849021D01*
X131602285Y-84897678D01*
X131611931Y-84953789D01*
X131615237Y-85031393D01*
X131615492Y-85080630D01*
X131614123Y-85173610D01*
X131607925Y-85238329D01*
X131593763Y-85288827D01*
X131568501Y-85339141D01*
X131551433Y-85367480D01*
X131469494Y-85467679D01*
X131383760Y-85535153D01*
X131319714Y-85570531D01*
X131259333Y-85591154D01*
X131185421Y-85601579D01*
X131119737Y-85605130D01*
X131017492Y-85605162D01*
X130941510Y-85594952D01*
X130876505Y-85572368D01*
X130872948Y-85570726D01*
X130746919Y-85490551D01*
X130653375Y-85384256D01*
X130593961Y-85254724D01*
X130570324Y-85104835D01*
X130571118Y-85042173D01*
X130597187Y-84892786D01*
X130657575Y-84767886D01*
X130753031Y-84666171D01*
X130810058Y-84626106D01*
X130865300Y-84594374D01*
X130913957Y-84575253D01*
X130970068Y-84565607D01*
X131047672Y-84562301D01*
X131096909Y-84562046D01*
X131189889Y-84563416D01*
G37*
X241309501Y-91993413D02*
X241444132Y-92039468D01*
X241567474Y-92122456D01*
X241572384Y-92126830D01*
X241663926Y-92233601D01*
X241718803Y-92357828D01*
X241738866Y-92503927D01*
X241739015Y-92524444D01*
X241719118Y-92675706D01*
X241663098Y-92806863D01*
X241573692Y-92914322D01*
X241453637Y-92994489D01*
X241352116Y-93032639D01*
X241223050Y-93068523D01*
X241315021Y-93095543D01*
X241437000Y-93151707D01*
X241535705Y-93237335D01*
X241609186Y-93345318D01*
X241655493Y-93468551D01*
X241672678Y-93599926D01*
X241658791Y-93732338D01*
X241611883Y-93858678D01*
X241549486Y-93950353D01*
X241487616Y-94010922D01*
X241416773Y-94064146D01*
X241389465Y-94080005D01*
X241309069Y-94108652D01*
X241208891Y-94127378D01*
X241106414Y-94134350D01*
X241019120Y-94127734D01*
X240994105Y-94121455D01*
X240859971Y-94058481D01*
X240747437Y-93967690D01*
X240664747Y-93856321D01*
X240644742Y-93814685D01*
X240621741Y-93727503D01*
X240612021Y-93619997D01*
X240615741Y-93510437D01*
X240633065Y-93417092D01*
X240641021Y-93394785D01*
X240714131Y-93272508D01*
X240818306Y-93172490D01*
X240945293Y-93101301D01*
X241047159Y-93071408D01*
X241131826Y-93055463D01*
X241036576Y-93026913D01*
X240912797Y-92969482D01*
X240812798Y-92882840D01*
X240738542Y-92774051D01*
X240691989Y-92650182D01*
X240675101Y-92518298D01*
X240689841Y-92385465D01*
X240738168Y-92258747D01*
X240798832Y-92170572D01*
X240908247Y-92072872D01*
X241034522Y-92010513D01*
X241170619Y-91983894D01*
X241309501Y-91993413D01*
G36*
X241309501Y-91993413D02*
G01*
X241444132Y-92039468D01*
X241567474Y-92122456D01*
X241572384Y-92126830D01*
X241663926Y-92233601D01*
X241718803Y-92357828D01*
X241738866Y-92503927D01*
X241739015Y-92524444D01*
X241719118Y-92675706D01*
X241663098Y-92806863D01*
X241573692Y-92914322D01*
X241453637Y-92994489D01*
X241352116Y-93032639D01*
X241223050Y-93068523D01*
X241315021Y-93095543D01*
X241437000Y-93151707D01*
X241535705Y-93237335D01*
X241609186Y-93345318D01*
X241655493Y-93468551D01*
X241672678Y-93599926D01*
X241658791Y-93732338D01*
X241611883Y-93858678D01*
X241549486Y-93950353D01*
X241487616Y-94010922D01*
X241416773Y-94064146D01*
X241389465Y-94080005D01*
X241309069Y-94108652D01*
X241208891Y-94127378D01*
X241106414Y-94134350D01*
X241019120Y-94127734D01*
X240994105Y-94121455D01*
X240859971Y-94058481D01*
X240747437Y-93967690D01*
X240664747Y-93856321D01*
X240644742Y-93814685D01*
X240621741Y-93727503D01*
X240612021Y-93619997D01*
X240615741Y-93510437D01*
X240633065Y-93417092D01*
X240641021Y-93394785D01*
X240714131Y-93272508D01*
X240818306Y-93172490D01*
X240945293Y-93101301D01*
X241047159Y-93071408D01*
X241131826Y-93055463D01*
X241036576Y-93026913D01*
X240912797Y-92969482D01*
X240812798Y-92882840D01*
X240738542Y-92774051D01*
X240691989Y-92650182D01*
X240675101Y-92518298D01*
X240689841Y-92385465D01*
X240738168Y-92258747D01*
X240798832Y-92170572D01*
X240908247Y-92072872D01*
X241034522Y-92010513D01*
X241170619Y-91983894D01*
X241309501Y-91993413D01*
G37*
D13*
%TO.C,SW_BOOTLOAD1*%
X270220000Y-161020000D02*
X270190000Y-161020000D01*
X270220000Y-161020000D02*
X270220000Y-167480000D01*
X265690000Y-161020000D02*
X268290000Y-161020000D01*
X263790000Y-161020000D02*
X263760000Y-161020000D01*
X263760000Y-161020000D02*
X263760000Y-167480000D01*
X270220000Y-167480000D02*
X270190000Y-167480000D01*
X265690000Y-167480000D02*
X268290000Y-167480000D01*
X263760000Y-167480000D02*
X263790000Y-167480000D01*
%TO.C,SW_RESET1*%
X279000000Y-167480000D02*
X279030000Y-167480000D01*
X279000000Y-167480000D02*
X279000000Y-161020000D01*
X283530000Y-167480000D02*
X280930000Y-167480000D01*
X285430000Y-167480000D02*
X285460000Y-167480000D01*
X285460000Y-167480000D02*
X285460000Y-161020000D01*
X279000000Y-161020000D02*
X279030000Y-161020000D01*
X283530000Y-161020000D02*
X280930000Y-161020000D01*
X285460000Y-161020000D02*
X285430000Y-161020000D01*
%TD*%
M02*
